G04 #@! TF.GenerationSoftware,KiCad,Pcbnew,(5.1.5)-3*
G04 #@! TF.CreationDate,2020-04-14T19:53:29+02:00*
G04 #@! TF.ProjectId,5vfrommains,35766672-6f6d-46d6-9169-6e732e6b6963,rev?*
G04 #@! TF.SameCoordinates,Original*
G04 #@! TF.FileFunction,Legend,Top*
G04 #@! TF.FilePolarity,Positive*
%FSLAX46Y46*%
G04 Gerber Fmt 4.6, Leading zero omitted, Abs format (unit mm)*
G04 Created by KiCad (PCBNEW (5.1.5)-3) date 2020-04-14 19:53:29*
%MOMM*%
%LPD*%
G04 APERTURE LIST*
%ADD10C,0.250000*%
%ADD11C,0.150000*%
%ADD12C,0.120000*%
G04 APERTURE END LIST*
D10*
X182083333Y-91416666D02*
X183833333Y-91416666D01*
X182583333Y-92000000D01*
X183833333Y-92583333D01*
X182083333Y-92583333D01*
X182083333Y-94166666D02*
X183000000Y-94166666D01*
X183166666Y-94083333D01*
X183250000Y-93916666D01*
X183250000Y-93583333D01*
X183166666Y-93416666D01*
X182166666Y-94166666D02*
X182083333Y-94000000D01*
X182083333Y-93583333D01*
X182166666Y-93416666D01*
X182333333Y-93333333D01*
X182500000Y-93333333D01*
X182666666Y-93416666D01*
X182750000Y-93583333D01*
X182750000Y-94000000D01*
X182833333Y-94166666D01*
X182083333Y-95000000D02*
X183250000Y-95000000D01*
X183833333Y-95000000D02*
X183750000Y-94916666D01*
X183666666Y-95000000D01*
X183750000Y-95083333D01*
X183833333Y-95000000D01*
X183666666Y-95000000D01*
X183250000Y-95833333D02*
X182083333Y-95833333D01*
X183083333Y-95833333D02*
X183166666Y-95916666D01*
X183250000Y-96083333D01*
X183250000Y-96333333D01*
X183166666Y-96500000D01*
X183000000Y-96583333D01*
X182083333Y-96583333D01*
X182166666Y-97333333D02*
X182083333Y-97500000D01*
X182083333Y-97833333D01*
X182166666Y-98000000D01*
X182333333Y-98083333D01*
X182416666Y-98083333D01*
X182583333Y-98000000D01*
X182666666Y-97833333D01*
X182666666Y-97583333D01*
X182750000Y-97416666D01*
X182916666Y-97333333D01*
X183000000Y-97333333D01*
X183166666Y-97416666D01*
X183250000Y-97583333D01*
X183250000Y-97833333D01*
X183166666Y-98000000D01*
X182750000Y-98833333D02*
X182750000Y-100166666D01*
X183250000Y-100750000D02*
X183250000Y-101416666D01*
X183833333Y-101000000D02*
X182333333Y-101000000D01*
X182166666Y-101083333D01*
X182083333Y-101250000D01*
X182083333Y-101416666D01*
X182083333Y-102250000D02*
X182166666Y-102083333D01*
X182250000Y-102000000D01*
X182416666Y-101916666D01*
X182916666Y-101916666D01*
X183083333Y-102000000D01*
X183166666Y-102083333D01*
X183250000Y-102250000D01*
X183250000Y-102500000D01*
X183166666Y-102666666D01*
X183083333Y-102750000D01*
X182916666Y-102833333D01*
X182416666Y-102833333D01*
X182250000Y-102750000D01*
X182166666Y-102666666D01*
X182083333Y-102500000D01*
X182083333Y-102250000D01*
X182750000Y-103583333D02*
X182750000Y-104916666D01*
X183833333Y-106583333D02*
X183833333Y-105750000D01*
X183000000Y-105666666D01*
X183083333Y-105750000D01*
X183166666Y-105916666D01*
X183166666Y-106333333D01*
X183083333Y-106500000D01*
X183000000Y-106583333D01*
X182833333Y-106666666D01*
X182416666Y-106666666D01*
X182250000Y-106583333D01*
X182166666Y-106500000D01*
X182083333Y-106333333D01*
X182083333Y-105916666D01*
X182166666Y-105750000D01*
X182250000Y-105666666D01*
X183833333Y-107166666D02*
X182083333Y-107750000D01*
X183833333Y-108333333D01*
X182083333Y-108916666D02*
X183833333Y-108916666D01*
X183833333Y-109333333D01*
X183750000Y-109583333D01*
X183583333Y-109750000D01*
X183416666Y-109833333D01*
X183083333Y-109916666D01*
X182833333Y-109916666D01*
X182500000Y-109833333D01*
X182333333Y-109750000D01*
X182166666Y-109583333D01*
X182083333Y-109333333D01*
X182083333Y-108916666D01*
X182250000Y-111666666D02*
X182166666Y-111583333D01*
X182083333Y-111333333D01*
X182083333Y-111166666D01*
X182166666Y-110916666D01*
X182333333Y-110750000D01*
X182500000Y-110666666D01*
X182833333Y-110583333D01*
X183083333Y-110583333D01*
X183416666Y-110666666D01*
X183583333Y-110750000D01*
X183750000Y-110916666D01*
X183833333Y-111166666D01*
X183833333Y-111333333D01*
X183750000Y-111583333D01*
X183666666Y-111666666D01*
X180791666Y-85875000D02*
X180875000Y-85958333D01*
X180958333Y-86125000D01*
X180958333Y-86541666D01*
X180875000Y-86708333D01*
X180791666Y-86791666D01*
X180625000Y-86875000D01*
X180458333Y-86875000D01*
X180208333Y-86791666D01*
X179208333Y-85791666D01*
X179208333Y-86875000D01*
X180958333Y-87458333D02*
X180958333Y-88541666D01*
X180291666Y-87958333D01*
X180291666Y-88208333D01*
X180208333Y-88375000D01*
X180125000Y-88458333D01*
X179958333Y-88541666D01*
X179541666Y-88541666D01*
X179375000Y-88458333D01*
X179291666Y-88375000D01*
X179208333Y-88208333D01*
X179208333Y-87708333D01*
X179291666Y-87541666D01*
X179375000Y-87458333D01*
X180958333Y-89625000D02*
X180958333Y-89791666D01*
X180875000Y-89958333D01*
X180791666Y-90041666D01*
X180625000Y-90125000D01*
X180291666Y-90208333D01*
X179875000Y-90208333D01*
X179541666Y-90125000D01*
X179375000Y-90041666D01*
X179291666Y-89958333D01*
X179208333Y-89791666D01*
X179208333Y-89625000D01*
X179291666Y-89458333D01*
X179375000Y-89375000D01*
X179541666Y-89291666D01*
X179875000Y-89208333D01*
X180291666Y-89208333D01*
X180625000Y-89291666D01*
X180791666Y-89375000D01*
X180875000Y-89458333D01*
X180958333Y-89625000D01*
X180958333Y-90708333D02*
X179208333Y-91291666D01*
X180958333Y-91875000D01*
X179708333Y-92375000D02*
X179708333Y-93208333D01*
X179208333Y-92208333D02*
X180958333Y-92791666D01*
X179208333Y-93375000D01*
X179375000Y-94958333D02*
X179291666Y-94875000D01*
X179208333Y-94625000D01*
X179208333Y-94458333D01*
X179291666Y-94208333D01*
X179458333Y-94041666D01*
X179625000Y-93958333D01*
X179958333Y-93875000D01*
X180208333Y-93875000D01*
X180541666Y-93958333D01*
X180708333Y-94041666D01*
X180875000Y-94208333D01*
X180958333Y-94458333D01*
X180958333Y-94625000D01*
X180875000Y-94875000D01*
X180791666Y-94958333D01*
X180375000Y-96791666D02*
X180375000Y-97458333D01*
X180958333Y-97041666D02*
X179458333Y-97041666D01*
X179291666Y-97125000D01*
X179208333Y-97291666D01*
X179208333Y-97458333D01*
X179208333Y-98291666D02*
X179291666Y-98125000D01*
X179375000Y-98041666D01*
X179541666Y-97958333D01*
X180041666Y-97958333D01*
X180208333Y-98041666D01*
X180291666Y-98125000D01*
X180375000Y-98291666D01*
X180375000Y-98541666D01*
X180291666Y-98708333D01*
X180208333Y-98791666D01*
X180041666Y-98875000D01*
X179541666Y-98875000D01*
X179375000Y-98791666D01*
X179291666Y-98708333D01*
X179208333Y-98541666D01*
X179208333Y-98291666D01*
X179875000Y-100958333D02*
X179875000Y-102291666D01*
X179208333Y-101625000D02*
X180541666Y-101625000D01*
X180958333Y-103958333D02*
X180958333Y-103125000D01*
X180125000Y-103041666D01*
X180208333Y-103125000D01*
X180291666Y-103291666D01*
X180291666Y-103708333D01*
X180208333Y-103875000D01*
X180125000Y-103958333D01*
X179958333Y-104041666D01*
X179541666Y-104041666D01*
X179375000Y-103958333D01*
X179291666Y-103875000D01*
X179208333Y-103708333D01*
X179208333Y-103291666D01*
X179291666Y-103125000D01*
X179375000Y-103041666D01*
X180958333Y-104541666D02*
X179208333Y-105125000D01*
X180958333Y-105708333D01*
X179208333Y-106291666D02*
X180958333Y-106291666D01*
X180958333Y-106708333D01*
X180875000Y-106958333D01*
X180708333Y-107125000D01*
X180541666Y-107208333D01*
X180208333Y-107291666D01*
X179958333Y-107291666D01*
X179625000Y-107208333D01*
X179458333Y-107125000D01*
X179291666Y-106958333D01*
X179208333Y-106708333D01*
X179208333Y-106291666D01*
X179375000Y-109041666D02*
X179291666Y-108958333D01*
X179208333Y-108708333D01*
X179208333Y-108541666D01*
X179291666Y-108291666D01*
X179458333Y-108125000D01*
X179625000Y-108041666D01*
X179958333Y-107958333D01*
X180208333Y-107958333D01*
X180541666Y-108041666D01*
X180708333Y-108125000D01*
X180875000Y-108291666D01*
X180958333Y-108541666D01*
X180958333Y-108708333D01*
X180875000Y-108958333D01*
X180791666Y-109041666D01*
X180041666Y-112208333D02*
X180125000Y-112125000D01*
X180208333Y-111958333D01*
X180208333Y-111791666D01*
X180125000Y-111625000D01*
X180041666Y-111541666D01*
X179875000Y-111458333D01*
X179708333Y-111458333D01*
X179541666Y-111541666D01*
X179458333Y-111625000D01*
X179375000Y-111791666D01*
X179375000Y-111958333D01*
X179458333Y-112125000D01*
X179541666Y-112208333D01*
X180208333Y-112208333D02*
X179541666Y-112208333D01*
X179458333Y-112291666D01*
X179458333Y-112375000D01*
X179541666Y-112541666D01*
X179708333Y-112625000D01*
X180125000Y-112625000D01*
X180375000Y-112458333D01*
X180541666Y-112208333D01*
X180625000Y-111875000D01*
X180541666Y-111541666D01*
X180375000Y-111291666D01*
X180125000Y-111125000D01*
X179791666Y-111041666D01*
X179458333Y-111125000D01*
X179208333Y-111291666D01*
X179041666Y-111541666D01*
X178958333Y-111875000D01*
X179041666Y-112208333D01*
X179208333Y-112458333D01*
X179208333Y-115625000D02*
X179208333Y-114625000D01*
X179208333Y-115125000D02*
X180958333Y-115125000D01*
X180708333Y-114958333D01*
X180541666Y-114791666D01*
X180458333Y-114625000D01*
X179708333Y-116291666D02*
X179708333Y-117125000D01*
X179208333Y-116125000D02*
X180958333Y-116708333D01*
X179208333Y-117291666D01*
X176333333Y-93375000D02*
X177166666Y-92791666D01*
X176333333Y-92375000D02*
X178083333Y-92375000D01*
X178083333Y-93041666D01*
X178000000Y-93208333D01*
X177916666Y-93291666D01*
X177750000Y-93375000D01*
X177500000Y-93375000D01*
X177333333Y-93291666D01*
X177250000Y-93208333D01*
X177166666Y-93041666D01*
X177166666Y-92375000D01*
X176416666Y-94791666D02*
X176333333Y-94625000D01*
X176333333Y-94291666D01*
X176416666Y-94125000D01*
X176583333Y-94041666D01*
X177250000Y-94041666D01*
X177416666Y-94125000D01*
X177500000Y-94291666D01*
X177500000Y-94625000D01*
X177416666Y-94791666D01*
X177250000Y-94875000D01*
X177083333Y-94875000D01*
X176916666Y-94041666D01*
X177500000Y-95458333D02*
X176333333Y-95875000D01*
X177500000Y-96291666D01*
X177916666Y-98208333D02*
X178000000Y-98291666D01*
X178083333Y-98458333D01*
X178083333Y-98875000D01*
X178000000Y-99041666D01*
X177916666Y-99125000D01*
X177750000Y-99208333D01*
X177583333Y-99208333D01*
X177333333Y-99125000D01*
X176333333Y-98125000D01*
X176333333Y-99208333D01*
X177000000Y-101291666D02*
X177000000Y-102625000D01*
X177916666Y-104708333D02*
X178000000Y-104791666D01*
X178083333Y-104958333D01*
X178083333Y-105375000D01*
X178000000Y-105541666D01*
X177916666Y-105625000D01*
X177750000Y-105708333D01*
X177583333Y-105708333D01*
X177333333Y-105625000D01*
X176333333Y-104625000D01*
X176333333Y-105708333D01*
X178083333Y-106791666D02*
X178083333Y-106958333D01*
X178000000Y-107125000D01*
X177916666Y-107208333D01*
X177750000Y-107291666D01*
X177416666Y-107375000D01*
X177000000Y-107375000D01*
X176666666Y-107291666D01*
X176500000Y-107208333D01*
X176416666Y-107125000D01*
X176333333Y-106958333D01*
X176333333Y-106791666D01*
X176416666Y-106625000D01*
X176500000Y-106541666D01*
X176666666Y-106458333D01*
X177000000Y-106375000D01*
X177416666Y-106375000D01*
X177750000Y-106458333D01*
X177916666Y-106541666D01*
X178000000Y-106625000D01*
X178083333Y-106791666D01*
X176333333Y-109041666D02*
X176333333Y-108041666D01*
X176333333Y-108541666D02*
X178083333Y-108541666D01*
X177833333Y-108375000D01*
X177666666Y-108208333D01*
X177583333Y-108041666D01*
X178083333Y-110541666D02*
X178083333Y-110208333D01*
X178000000Y-110041666D01*
X177916666Y-109958333D01*
X177666666Y-109791666D01*
X177333333Y-109708333D01*
X176666666Y-109708333D01*
X176500000Y-109791666D01*
X176416666Y-109875000D01*
X176333333Y-110041666D01*
X176333333Y-110375000D01*
X176416666Y-110541666D01*
X176500000Y-110625000D01*
X176666666Y-110708333D01*
X177083333Y-110708333D01*
X177250000Y-110625000D01*
X177333333Y-110541666D01*
X177416666Y-110375000D01*
X177416666Y-110041666D01*
X177333333Y-109875000D01*
X177250000Y-109791666D01*
X177083333Y-109708333D01*
D11*
X190833333Y-127607142D02*
X190833333Y-128083333D01*
X190547619Y-127511904D02*
X191547619Y-127845238D01*
X190547619Y-128178571D01*
X190642857Y-129083333D02*
X190595238Y-129035714D01*
X190547619Y-128892857D01*
X190547619Y-128797619D01*
X190595238Y-128654761D01*
X190690476Y-128559523D01*
X190785714Y-128511904D01*
X190976190Y-128464285D01*
X191119047Y-128464285D01*
X191309523Y-128511904D01*
X191404761Y-128559523D01*
X191500000Y-128654761D01*
X191547619Y-128797619D01*
X191547619Y-128892857D01*
X191500000Y-129035714D01*
X191452380Y-129083333D01*
X190452380Y-129273809D02*
X190452380Y-130035714D01*
X190547619Y-130273809D02*
X191547619Y-130273809D01*
X190547619Y-130845238D01*
X191547619Y-130845238D01*
X188083333Y-111130952D02*
X188083333Y-111607142D01*
X187797619Y-111035714D02*
X188797619Y-111369047D01*
X187797619Y-111702380D01*
X187892857Y-112607142D02*
X187845238Y-112559523D01*
X187797619Y-112416666D01*
X187797619Y-112321428D01*
X187845238Y-112178571D01*
X187940476Y-112083333D01*
X188035714Y-112035714D01*
X188226190Y-111988095D01*
X188369047Y-111988095D01*
X188559523Y-112035714D01*
X188654761Y-112083333D01*
X188750000Y-112178571D01*
X188797619Y-112321428D01*
X188797619Y-112416666D01*
X188750000Y-112559523D01*
X188702380Y-112607142D01*
X187702380Y-112797619D02*
X187702380Y-113559523D01*
X187797619Y-113797619D02*
X188797619Y-113797619D01*
X188797619Y-114178571D01*
X188750000Y-114273809D01*
X188702380Y-114321428D01*
X188607142Y-114369047D01*
X188464285Y-114369047D01*
X188369047Y-114321428D01*
X188321428Y-114273809D01*
X188273809Y-114178571D01*
X188273809Y-113797619D01*
X178500000Y-63238095D02*
X178547619Y-63142857D01*
X178547619Y-63000000D01*
X178500000Y-62857142D01*
X178404761Y-62761904D01*
X178309523Y-62714285D01*
X178119047Y-62666666D01*
X177976190Y-62666666D01*
X177785714Y-62714285D01*
X177690476Y-62761904D01*
X177595238Y-62857142D01*
X177547619Y-63000000D01*
X177547619Y-63095238D01*
X177595238Y-63238095D01*
X177642857Y-63285714D01*
X177976190Y-63285714D01*
X177976190Y-63095238D01*
X177547619Y-63714285D02*
X178547619Y-63714285D01*
X177547619Y-64285714D01*
X178547619Y-64285714D01*
X177547619Y-64761904D02*
X178547619Y-64761904D01*
X178547619Y-65000000D01*
X178500000Y-65142857D01*
X178404761Y-65238095D01*
X178309523Y-65285714D01*
X178119047Y-65333333D01*
X177976190Y-65333333D01*
X177785714Y-65285714D01*
X177690476Y-65238095D01*
X177595238Y-65142857D01*
X177547619Y-65000000D01*
X177547619Y-64761904D01*
X177928571Y-54714285D02*
X177928571Y-55476190D01*
X177547619Y-55095238D02*
X178309523Y-55095238D01*
X178547619Y-56428571D02*
X178547619Y-55952380D01*
X178071428Y-55904761D01*
X178119047Y-55952380D01*
X178166666Y-56047619D01*
X178166666Y-56285714D01*
X178119047Y-56380952D01*
X178071428Y-56428571D01*
X177976190Y-56476190D01*
X177738095Y-56476190D01*
X177642857Y-56428571D01*
X177595238Y-56380952D01*
X177547619Y-56285714D01*
X177547619Y-56047619D01*
X177595238Y-55952380D01*
X177642857Y-55904761D01*
X178547619Y-56761904D02*
X177547619Y-57095238D01*
X178547619Y-57428571D01*
X187000000Y-65500000D02*
X187000000Y-54500000D01*
X179500000Y-65500000D02*
X189500000Y-65500000D01*
X179500000Y-54500000D02*
X179500000Y-65500000D01*
X189500000Y-54500000D02*
X179500000Y-54500000D01*
X189500000Y-65500000D02*
X189500000Y-54500000D01*
X193500000Y-126500000D02*
X193500000Y-115500000D01*
X186000000Y-126500000D02*
X196000000Y-126500000D01*
X186000000Y-115500000D02*
X186000000Y-126500000D01*
X196000000Y-115500000D02*
X186000000Y-115500000D01*
X196000000Y-126500000D02*
X196000000Y-115500000D01*
D12*
X200404000Y-53564759D02*
X199774000Y-53564759D01*
X200089000Y-53249759D02*
X200089000Y-53879759D01*
X198652000Y-59991000D02*
X197848000Y-59991000D01*
X198883000Y-59951000D02*
X197617000Y-59951000D01*
X199052000Y-59911000D02*
X197448000Y-59911000D01*
X199190000Y-59871000D02*
X197310000Y-59871000D01*
X199309000Y-59831000D02*
X197191000Y-59831000D01*
X199415000Y-59791000D02*
X197085000Y-59791000D01*
X199512000Y-59751000D02*
X196988000Y-59751000D01*
X199600000Y-59711000D02*
X196900000Y-59711000D01*
X199682000Y-59671000D02*
X196818000Y-59671000D01*
X199759000Y-59631000D02*
X196741000Y-59631000D01*
X199831000Y-59591000D02*
X196669000Y-59591000D01*
X199900000Y-59551000D02*
X196600000Y-59551000D01*
X199964000Y-59511000D02*
X196536000Y-59511000D01*
X200026000Y-59471000D02*
X196474000Y-59471000D01*
X200084000Y-59431000D02*
X196416000Y-59431000D01*
X200140000Y-59391000D02*
X196360000Y-59391000D01*
X200194000Y-59351000D02*
X196306000Y-59351000D01*
X200245000Y-59311000D02*
X196255000Y-59311000D01*
X200294000Y-59271000D02*
X196206000Y-59271000D01*
X200342000Y-59231000D02*
X196158000Y-59231000D01*
X200387000Y-59191000D02*
X196113000Y-59191000D01*
X200432000Y-59151000D02*
X196068000Y-59151000D01*
X200474000Y-59111000D02*
X196026000Y-59111000D01*
X200515000Y-59071000D02*
X195985000Y-59071000D01*
X197210000Y-59031000D02*
X195945000Y-59031000D01*
X200555000Y-59031000D02*
X199290000Y-59031000D01*
X197210000Y-58991000D02*
X195907000Y-58991000D01*
X200593000Y-58991000D02*
X199290000Y-58991000D01*
X197210000Y-58951000D02*
X195870000Y-58951000D01*
X200630000Y-58951000D02*
X199290000Y-58951000D01*
X197210000Y-58911000D02*
X195834000Y-58911000D01*
X200666000Y-58911000D02*
X199290000Y-58911000D01*
X197210000Y-58871000D02*
X195800000Y-58871000D01*
X200700000Y-58871000D02*
X199290000Y-58871000D01*
X197210000Y-58831000D02*
X195766000Y-58831000D01*
X200734000Y-58831000D02*
X199290000Y-58831000D01*
X197210000Y-58791000D02*
X195734000Y-58791000D01*
X200766000Y-58791000D02*
X199290000Y-58791000D01*
X197210000Y-58751000D02*
X195702000Y-58751000D01*
X200798000Y-58751000D02*
X199290000Y-58751000D01*
X197210000Y-58711000D02*
X195672000Y-58711000D01*
X200828000Y-58711000D02*
X199290000Y-58711000D01*
X197210000Y-58671000D02*
X195643000Y-58671000D01*
X200857000Y-58671000D02*
X199290000Y-58671000D01*
X197210000Y-58631000D02*
X195614000Y-58631000D01*
X200886000Y-58631000D02*
X199290000Y-58631000D01*
X197210000Y-58591000D02*
X195586000Y-58591000D01*
X200914000Y-58591000D02*
X199290000Y-58591000D01*
X197210000Y-58551000D02*
X195560000Y-58551000D01*
X200940000Y-58551000D02*
X199290000Y-58551000D01*
X197210000Y-58511000D02*
X195534000Y-58511000D01*
X200966000Y-58511000D02*
X199290000Y-58511000D01*
X197210000Y-58471000D02*
X195508000Y-58471000D01*
X200992000Y-58471000D02*
X199290000Y-58471000D01*
X197210000Y-58431000D02*
X195484000Y-58431000D01*
X201016000Y-58431000D02*
X199290000Y-58431000D01*
X197210000Y-58391000D02*
X195460000Y-58391000D01*
X201040000Y-58391000D02*
X199290000Y-58391000D01*
X197210000Y-58351000D02*
X195438000Y-58351000D01*
X201062000Y-58351000D02*
X199290000Y-58351000D01*
X197210000Y-58311000D02*
X195416000Y-58311000D01*
X201084000Y-58311000D02*
X199290000Y-58311000D01*
X197210000Y-58271000D02*
X195394000Y-58271000D01*
X201106000Y-58271000D02*
X199290000Y-58271000D01*
X197210000Y-58231000D02*
X195374000Y-58231000D01*
X201126000Y-58231000D02*
X199290000Y-58231000D01*
X197210000Y-58191000D02*
X195354000Y-58191000D01*
X201146000Y-58191000D02*
X199290000Y-58191000D01*
X197210000Y-58151000D02*
X195334000Y-58151000D01*
X201166000Y-58151000D02*
X199290000Y-58151000D01*
X197210000Y-58111000D02*
X195316000Y-58111000D01*
X201184000Y-58111000D02*
X199290000Y-58111000D01*
X197210000Y-58071000D02*
X195298000Y-58071000D01*
X201202000Y-58071000D02*
X199290000Y-58071000D01*
X197210000Y-58031000D02*
X195280000Y-58031000D01*
X201220000Y-58031000D02*
X199290000Y-58031000D01*
X197210000Y-57991000D02*
X195264000Y-57991000D01*
X201236000Y-57991000D02*
X199290000Y-57991000D01*
X197210000Y-57951000D02*
X195248000Y-57951000D01*
X201252000Y-57951000D02*
X199290000Y-57951000D01*
X197210000Y-57911000D02*
X195232000Y-57911000D01*
X201268000Y-57911000D02*
X199290000Y-57911000D01*
X197210000Y-57871000D02*
X195217000Y-57871000D01*
X201283000Y-57871000D02*
X199290000Y-57871000D01*
X197210000Y-57831000D02*
X195203000Y-57831000D01*
X201297000Y-57831000D02*
X199290000Y-57831000D01*
X197210000Y-57791000D02*
X195189000Y-57791000D01*
X201311000Y-57791000D02*
X199290000Y-57791000D01*
X197210000Y-57751000D02*
X195176000Y-57751000D01*
X201324000Y-57751000D02*
X199290000Y-57751000D01*
X197210000Y-57711000D02*
X195164000Y-57711000D01*
X201336000Y-57711000D02*
X199290000Y-57711000D01*
X197210000Y-57671000D02*
X195152000Y-57671000D01*
X201348000Y-57671000D02*
X199290000Y-57671000D01*
X197210000Y-57631000D02*
X195140000Y-57631000D01*
X201360000Y-57631000D02*
X199290000Y-57631000D01*
X197210000Y-57591000D02*
X195129000Y-57591000D01*
X201371000Y-57591000D02*
X199290000Y-57591000D01*
X197210000Y-57551000D02*
X195119000Y-57551000D01*
X201381000Y-57551000D02*
X199290000Y-57551000D01*
X197210000Y-57511000D02*
X195109000Y-57511000D01*
X201391000Y-57511000D02*
X199290000Y-57511000D01*
X197210000Y-57471000D02*
X195100000Y-57471000D01*
X201400000Y-57471000D02*
X199290000Y-57471000D01*
X197210000Y-57430000D02*
X195091000Y-57430000D01*
X201409000Y-57430000D02*
X199290000Y-57430000D01*
X197210000Y-57390000D02*
X195083000Y-57390000D01*
X201417000Y-57390000D02*
X199290000Y-57390000D01*
X197210000Y-57350000D02*
X195075000Y-57350000D01*
X201425000Y-57350000D02*
X199290000Y-57350000D01*
X197210000Y-57310000D02*
X195068000Y-57310000D01*
X201432000Y-57310000D02*
X199290000Y-57310000D01*
X197210000Y-57270000D02*
X195061000Y-57270000D01*
X201439000Y-57270000D02*
X199290000Y-57270000D01*
X197210000Y-57230000D02*
X195055000Y-57230000D01*
X201445000Y-57230000D02*
X199290000Y-57230000D01*
X197210000Y-57190000D02*
X195049000Y-57190000D01*
X201451000Y-57190000D02*
X199290000Y-57190000D01*
X197210000Y-57150000D02*
X195044000Y-57150000D01*
X201456000Y-57150000D02*
X199290000Y-57150000D01*
X197210000Y-57110000D02*
X195039000Y-57110000D01*
X201461000Y-57110000D02*
X199290000Y-57110000D01*
X197210000Y-57070000D02*
X195035000Y-57070000D01*
X201465000Y-57070000D02*
X199290000Y-57070000D01*
X197210000Y-57030000D02*
X195032000Y-57030000D01*
X201468000Y-57030000D02*
X199290000Y-57030000D01*
X197210000Y-56990000D02*
X195028000Y-56990000D01*
X201472000Y-56990000D02*
X199290000Y-56990000D01*
X201474000Y-56950000D02*
X195026000Y-56950000D01*
X201477000Y-56910000D02*
X195023000Y-56910000D01*
X201478000Y-56870000D02*
X195022000Y-56870000D01*
X201480000Y-56830000D02*
X195020000Y-56830000D01*
X201480000Y-56790000D02*
X195020000Y-56790000D01*
X201480000Y-56750000D02*
X195020000Y-56750000D01*
X201520000Y-56750000D02*
G75*
G03X201520000Y-56750000I-3270000J0D01*
G01*
X214560000Y-62890000D02*
X212060000Y-66610000D01*
X212060000Y-66610000D02*
X211880000Y-66550000D01*
X211880000Y-66550000D02*
X212540000Y-63750000D01*
X212540000Y-63750000D02*
X207240000Y-66630000D01*
X207120000Y-66510000D02*
X209270000Y-62740000D01*
X207220000Y-63420000D02*
X207130000Y-63270000D01*
X209270000Y-62740000D02*
X207220000Y-63420000D01*
X207130000Y-63270000D02*
X209090000Y-61380000D01*
X207240000Y-66630000D02*
X207120000Y-66510000D01*
X216180000Y-53400000D02*
X214570000Y-57110000D01*
X216850000Y-59150000D02*
X216850000Y-53400000D01*
X216850000Y-53400000D02*
X216180000Y-53400000D01*
X212540000Y-56250000D02*
X207240000Y-53370000D01*
X212060000Y-53390000D02*
X211880000Y-53450000D01*
X211880000Y-53450000D02*
X212540000Y-56250000D01*
X214560000Y-57110000D02*
X212060000Y-53390000D01*
X207130000Y-56730000D02*
X209090000Y-58620000D01*
X207120000Y-53490000D02*
X209270000Y-57260000D01*
X207220000Y-56580000D02*
X207130000Y-56730000D01*
X207240000Y-53370000D02*
X207120000Y-53490000D01*
X209270000Y-57260000D02*
X207220000Y-56580000D01*
X224750000Y-59150000D02*
X216850000Y-59150000D01*
X216850000Y-60850000D02*
X216850000Y-66600000D01*
X216850000Y-66600000D02*
X216180000Y-66600000D01*
X216180000Y-66600000D02*
X214570000Y-62890000D01*
X224750000Y-60850000D02*
X216850000Y-60850000D01*
X237620000Y-53450000D02*
X236960000Y-56250000D01*
X237440000Y-53390000D02*
X237620000Y-53450000D01*
X234940000Y-57110000D02*
X237440000Y-53390000D01*
X236960000Y-56250000D02*
X242260000Y-53370000D01*
X242370000Y-56730000D02*
X240410000Y-58620000D01*
X240230000Y-57260000D02*
X242280000Y-56580000D01*
X242380000Y-53490000D02*
X240230000Y-57260000D01*
X242260000Y-53370000D02*
X242380000Y-53490000D01*
X242280000Y-56580000D02*
X242370000Y-56730000D01*
X233320000Y-53400000D02*
X234930000Y-57110000D01*
X224750000Y-59150000D02*
X232650000Y-59150000D01*
X232650000Y-59150000D02*
X232650000Y-53400000D01*
X232650000Y-53400000D02*
X233320000Y-53400000D01*
X224750000Y-60850000D02*
X232650000Y-60850000D01*
X232650000Y-60850000D02*
X232650000Y-66600000D01*
X232650000Y-66600000D02*
X233320000Y-66600000D01*
X233320000Y-66600000D02*
X234930000Y-62890000D01*
X234940000Y-62890000D02*
X237440000Y-66610000D01*
X237440000Y-66610000D02*
X237620000Y-66550000D01*
X237620000Y-66550000D02*
X236960000Y-63750000D01*
X236960000Y-63750000D02*
X242260000Y-66630000D01*
X242260000Y-66630000D02*
X242380000Y-66510000D01*
X242380000Y-66510000D02*
X240230000Y-62740000D01*
X240230000Y-62740000D02*
X242280000Y-63420000D01*
X242280000Y-63420000D02*
X242370000Y-63270000D01*
X242370000Y-63270000D02*
X240410000Y-61380000D01*
X199380000Y-135870000D02*
X199380000Y-81630000D01*
X199380000Y-135870000D02*
X243620000Y-135870000D01*
X243620000Y-81630000D02*
X199380000Y-81630000D01*
X243620000Y-81630000D02*
X243620000Y-135870000D01*
X204500000Y-87750000D02*
X238500000Y-87750000D01*
X204500000Y-129750000D02*
X204500000Y-87750000D01*
X238500000Y-129750000D02*
X204500000Y-129750000D01*
X238500000Y-87750000D02*
X238500000Y-129750000D01*
X220910000Y-50408578D02*
X220910000Y-49891422D01*
X219490000Y-50408578D02*
X219490000Y-49891422D01*
X226641000Y-61080000D02*
X226641000Y-62590000D01*
X222940000Y-61080000D02*
X222940000Y-62590000D01*
X219670000Y-62590000D02*
X229910000Y-62590000D01*
X229910000Y-61080000D02*
X229910000Y-65721000D01*
X219670000Y-61080000D02*
X219670000Y-65721000D01*
X219670000Y-65721000D02*
X229910000Y-65721000D01*
X219670000Y-61080000D02*
X229910000Y-61080000D01*
X186200000Y-87500000D02*
X189000000Y-87500000D01*
X186200000Y-87500000D02*
X186200000Y-110000000D01*
X195800000Y-87500000D02*
X195800000Y-110000000D01*
X193000000Y-87500000D02*
X195800000Y-87500000D01*
X193000000Y-110000000D02*
X195800000Y-110000000D01*
X186200000Y-110000000D02*
X189000000Y-110000000D01*
X229670000Y-72970000D02*
X226730000Y-72970000D01*
X229670000Y-73210000D02*
X226730000Y-73210000D01*
X229670000Y-73090000D02*
X226730000Y-73090000D01*
X226730000Y-77630000D02*
X226860000Y-77630000D01*
X226730000Y-72190000D02*
X226730000Y-77630000D01*
X226860000Y-72190000D02*
X226730000Y-72190000D01*
X229670000Y-77630000D02*
X229540000Y-77630000D01*
X229670000Y-72190000D02*
X229670000Y-77630000D01*
X229540000Y-72190000D02*
X229670000Y-72190000D01*
X217670000Y-72970000D02*
X214730000Y-72970000D01*
X217670000Y-73210000D02*
X214730000Y-73210000D01*
X217670000Y-73090000D02*
X214730000Y-73090000D01*
X214730000Y-77630000D02*
X214860000Y-77630000D01*
X214730000Y-72190000D02*
X214730000Y-77630000D01*
X214860000Y-72190000D02*
X214730000Y-72190000D01*
X217670000Y-77630000D02*
X217540000Y-77630000D01*
X217670000Y-72190000D02*
X217670000Y-77630000D01*
X217540000Y-72190000D02*
X217670000Y-72190000D01*
X232230000Y-76730000D02*
X235170000Y-76730000D01*
X232230000Y-76490000D02*
X235170000Y-76490000D01*
X232230000Y-76610000D02*
X235170000Y-76610000D01*
X235170000Y-72070000D02*
X235040000Y-72070000D01*
X235170000Y-77510000D02*
X235170000Y-72070000D01*
X235040000Y-77510000D02*
X235170000Y-77510000D01*
X232230000Y-72070000D02*
X232360000Y-72070000D01*
X232230000Y-77510000D02*
X232230000Y-72070000D01*
X232360000Y-77510000D02*
X232230000Y-77510000D01*
X220730000Y-76730000D02*
X223670000Y-76730000D01*
X220730000Y-76490000D02*
X223670000Y-76490000D01*
X220730000Y-76610000D02*
X223670000Y-76610000D01*
X223670000Y-72070000D02*
X223540000Y-72070000D01*
X223670000Y-77510000D02*
X223670000Y-72070000D01*
X223540000Y-77510000D02*
X223670000Y-77510000D01*
X220730000Y-72070000D02*
X220860000Y-72070000D01*
X220730000Y-77510000D02*
X220730000Y-72070000D01*
X220860000Y-77510000D02*
X220730000Y-77510000D01*
X218590000Y-50332779D02*
X218590000Y-50007221D01*
X217570000Y-50332779D02*
X217570000Y-50007221D01*
X190375000Y-68020354D02*
X189375000Y-68020354D01*
X189875000Y-67520354D02*
X189875000Y-68520354D01*
X187599000Y-78081000D02*
X186401000Y-78081000D01*
X187862000Y-78041000D02*
X186138000Y-78041000D01*
X188062000Y-78001000D02*
X185938000Y-78001000D01*
X188230000Y-77961000D02*
X185770000Y-77961000D01*
X188378000Y-77921000D02*
X185622000Y-77921000D01*
X188510000Y-77881000D02*
X185490000Y-77881000D01*
X188630000Y-77841000D02*
X185370000Y-77841000D01*
X188742000Y-77801000D02*
X185258000Y-77801000D01*
X188846000Y-77761000D02*
X185154000Y-77761000D01*
X188944000Y-77721000D02*
X185056000Y-77721000D01*
X189037000Y-77681000D02*
X184963000Y-77681000D01*
X189125000Y-77641000D02*
X184875000Y-77641000D01*
X189209000Y-77601000D02*
X184791000Y-77601000D01*
X189289000Y-77561000D02*
X184711000Y-77561000D01*
X189365000Y-77521000D02*
X184635000Y-77521000D01*
X189439000Y-77481000D02*
X184561000Y-77481000D01*
X189510000Y-77441000D02*
X184490000Y-77441000D01*
X189579000Y-77401000D02*
X184421000Y-77401000D01*
X189645000Y-77361000D02*
X184355000Y-77361000D01*
X189709000Y-77321000D02*
X184291000Y-77321000D01*
X189770000Y-77281000D02*
X184230000Y-77281000D01*
X189830000Y-77241000D02*
X184170000Y-77241000D01*
X189889000Y-77201000D02*
X184111000Y-77201000D01*
X189945000Y-77161000D02*
X184055000Y-77161000D01*
X190000000Y-77121000D02*
X184000000Y-77121000D01*
X190054000Y-77081000D02*
X183946000Y-77081000D01*
X190106000Y-77041000D02*
X183894000Y-77041000D01*
X190156000Y-77001000D02*
X183844000Y-77001000D01*
X190206000Y-76961000D02*
X183794000Y-76961000D01*
X190254000Y-76921000D02*
X183746000Y-76921000D01*
X190301000Y-76881000D02*
X183699000Y-76881000D01*
X190347000Y-76841000D02*
X183653000Y-76841000D01*
X190392000Y-76801000D02*
X183608000Y-76801000D01*
X190436000Y-76761000D02*
X183564000Y-76761000D01*
X185759000Y-76721000D02*
X183522000Y-76721000D01*
X190478000Y-76721000D02*
X188241000Y-76721000D01*
X185759000Y-76681000D02*
X183480000Y-76681000D01*
X190520000Y-76681000D02*
X188241000Y-76681000D01*
X185759000Y-76641000D02*
X183439000Y-76641000D01*
X190561000Y-76641000D02*
X188241000Y-76641000D01*
X185759000Y-76601000D02*
X183399000Y-76601000D01*
X190601000Y-76601000D02*
X188241000Y-76601000D01*
X185759000Y-76561000D02*
X183360000Y-76561000D01*
X190640000Y-76561000D02*
X188241000Y-76561000D01*
X185759000Y-76521000D02*
X183321000Y-76521000D01*
X190679000Y-76521000D02*
X188241000Y-76521000D01*
X185759000Y-76481000D02*
X183284000Y-76481000D01*
X190716000Y-76481000D02*
X188241000Y-76481000D01*
X185759000Y-76441000D02*
X183247000Y-76441000D01*
X190753000Y-76441000D02*
X188241000Y-76441000D01*
X185759000Y-76401000D02*
X183211000Y-76401000D01*
X190789000Y-76401000D02*
X188241000Y-76401000D01*
X185759000Y-76361000D02*
X183176000Y-76361000D01*
X190824000Y-76361000D02*
X188241000Y-76361000D01*
X185759000Y-76321000D02*
X183142000Y-76321000D01*
X190858000Y-76321000D02*
X188241000Y-76321000D01*
X185759000Y-76281000D02*
X183108000Y-76281000D01*
X190892000Y-76281000D02*
X188241000Y-76281000D01*
X185759000Y-76241000D02*
X183075000Y-76241000D01*
X190925000Y-76241000D02*
X188241000Y-76241000D01*
X185759000Y-76201000D02*
X183043000Y-76201000D01*
X190957000Y-76201000D02*
X188241000Y-76201000D01*
X185759000Y-76161000D02*
X183011000Y-76161000D01*
X190989000Y-76161000D02*
X188241000Y-76161000D01*
X185759000Y-76121000D02*
X182980000Y-76121000D01*
X191020000Y-76121000D02*
X188241000Y-76121000D01*
X185759000Y-76081000D02*
X182950000Y-76081000D01*
X191050000Y-76081000D02*
X188241000Y-76081000D01*
X185759000Y-76041000D02*
X182920000Y-76041000D01*
X191080000Y-76041000D02*
X188241000Y-76041000D01*
X185759000Y-76001000D02*
X182890000Y-76001000D01*
X191110000Y-76001000D02*
X188241000Y-76001000D01*
X185759000Y-75961000D02*
X182862000Y-75961000D01*
X191138000Y-75961000D02*
X188241000Y-75961000D01*
X185759000Y-75921000D02*
X182834000Y-75921000D01*
X191166000Y-75921000D02*
X188241000Y-75921000D01*
X185759000Y-75881000D02*
X182806000Y-75881000D01*
X191194000Y-75881000D02*
X188241000Y-75881000D01*
X185759000Y-75841000D02*
X182779000Y-75841000D01*
X191221000Y-75841000D02*
X188241000Y-75841000D01*
X185759000Y-75801000D02*
X182753000Y-75801000D01*
X191247000Y-75801000D02*
X188241000Y-75801000D01*
X185759000Y-75761000D02*
X182727000Y-75761000D01*
X191273000Y-75761000D02*
X188241000Y-75761000D01*
X185759000Y-75721000D02*
X182702000Y-75721000D01*
X191298000Y-75721000D02*
X188241000Y-75721000D01*
X185759000Y-75681000D02*
X182677000Y-75681000D01*
X191323000Y-75681000D02*
X188241000Y-75681000D01*
X185759000Y-75641000D02*
X182653000Y-75641000D01*
X191347000Y-75641000D02*
X188241000Y-75641000D01*
X185759000Y-75601000D02*
X182629000Y-75601000D01*
X191371000Y-75601000D02*
X188241000Y-75601000D01*
X185759000Y-75561000D02*
X182605000Y-75561000D01*
X191395000Y-75561000D02*
X188241000Y-75561000D01*
X185759000Y-75521000D02*
X182583000Y-75521000D01*
X191417000Y-75521000D02*
X188241000Y-75521000D01*
X185759000Y-75481000D02*
X182560000Y-75481000D01*
X191440000Y-75481000D02*
X188241000Y-75481000D01*
X185759000Y-75441000D02*
X182538000Y-75441000D01*
X191462000Y-75441000D02*
X188241000Y-75441000D01*
X185759000Y-75401000D02*
X182517000Y-75401000D01*
X191483000Y-75401000D02*
X188241000Y-75401000D01*
X185759000Y-75361000D02*
X182496000Y-75361000D01*
X191504000Y-75361000D02*
X188241000Y-75361000D01*
X185759000Y-75321000D02*
X182475000Y-75321000D01*
X191525000Y-75321000D02*
X188241000Y-75321000D01*
X185759000Y-75281000D02*
X182455000Y-75281000D01*
X191545000Y-75281000D02*
X188241000Y-75281000D01*
X185759000Y-75241000D02*
X182436000Y-75241000D01*
X191564000Y-75241000D02*
X188241000Y-75241000D01*
X185759000Y-75201000D02*
X182416000Y-75201000D01*
X191584000Y-75201000D02*
X188241000Y-75201000D01*
X185759000Y-75161000D02*
X182397000Y-75161000D01*
X191603000Y-75161000D02*
X188241000Y-75161000D01*
X185759000Y-75121000D02*
X182379000Y-75121000D01*
X191621000Y-75121000D02*
X188241000Y-75121000D01*
X185759000Y-75081000D02*
X182361000Y-75081000D01*
X191639000Y-75081000D02*
X188241000Y-75081000D01*
X185759000Y-75041000D02*
X182343000Y-75041000D01*
X191657000Y-75041000D02*
X188241000Y-75041000D01*
X185759000Y-75001000D02*
X182326000Y-75001000D01*
X191674000Y-75001000D02*
X188241000Y-75001000D01*
X185759000Y-74961000D02*
X182310000Y-74961000D01*
X191690000Y-74961000D02*
X188241000Y-74961000D01*
X185759000Y-74921000D02*
X182293000Y-74921000D01*
X191707000Y-74921000D02*
X188241000Y-74921000D01*
X185759000Y-74881000D02*
X182277000Y-74881000D01*
X191723000Y-74881000D02*
X188241000Y-74881000D01*
X185759000Y-74841000D02*
X182262000Y-74841000D01*
X191738000Y-74841000D02*
X188241000Y-74841000D01*
X185759000Y-74801000D02*
X182246000Y-74801000D01*
X191754000Y-74801000D02*
X188241000Y-74801000D01*
X185759000Y-74761000D02*
X182232000Y-74761000D01*
X191768000Y-74761000D02*
X188241000Y-74761000D01*
X185759000Y-74721000D02*
X182217000Y-74721000D01*
X191783000Y-74721000D02*
X188241000Y-74721000D01*
X185759000Y-74681000D02*
X182203000Y-74681000D01*
X191797000Y-74681000D02*
X188241000Y-74681000D01*
X185759000Y-74641000D02*
X182189000Y-74641000D01*
X191811000Y-74641000D02*
X188241000Y-74641000D01*
X185759000Y-74601000D02*
X182176000Y-74601000D01*
X191824000Y-74601000D02*
X188241000Y-74601000D01*
X185759000Y-74561000D02*
X182163000Y-74561000D01*
X191837000Y-74561000D02*
X188241000Y-74561000D01*
X185759000Y-74521000D02*
X182150000Y-74521000D01*
X191850000Y-74521000D02*
X188241000Y-74521000D01*
X185759000Y-74481000D02*
X182138000Y-74481000D01*
X191862000Y-74481000D02*
X188241000Y-74481000D01*
X185759000Y-74441000D02*
X182126000Y-74441000D01*
X191874000Y-74441000D02*
X188241000Y-74441000D01*
X185759000Y-74401000D02*
X182115000Y-74401000D01*
X191885000Y-74401000D02*
X188241000Y-74401000D01*
X185759000Y-74361000D02*
X182103000Y-74361000D01*
X191897000Y-74361000D02*
X188241000Y-74361000D01*
X185759000Y-74321000D02*
X182093000Y-74321000D01*
X191907000Y-74321000D02*
X188241000Y-74321000D01*
X185759000Y-74281000D02*
X182082000Y-74281000D01*
X191918000Y-74281000D02*
X188241000Y-74281000D01*
X191928000Y-74241000D02*
X182072000Y-74241000D01*
X191938000Y-74201000D02*
X182062000Y-74201000D01*
X191947000Y-74161000D02*
X182053000Y-74161000D01*
X191956000Y-74121000D02*
X182044000Y-74121000D01*
X191965000Y-74081000D02*
X182035000Y-74081000D01*
X191974000Y-74041000D02*
X182026000Y-74041000D01*
X191982000Y-74001000D02*
X182018000Y-74001000D01*
X191990000Y-73961000D02*
X182010000Y-73961000D01*
X191997000Y-73921000D02*
X182003000Y-73921000D01*
X192004000Y-73881000D02*
X181996000Y-73881000D01*
X192011000Y-73841000D02*
X181989000Y-73841000D01*
X192018000Y-73801000D02*
X181982000Y-73801000D01*
X192024000Y-73761000D02*
X181976000Y-73761000D01*
X192030000Y-73721000D02*
X181970000Y-73721000D01*
X192035000Y-73680000D02*
X181965000Y-73680000D01*
X192040000Y-73640000D02*
X181960000Y-73640000D01*
X192045000Y-73600000D02*
X181955000Y-73600000D01*
X192050000Y-73560000D02*
X181950000Y-73560000D01*
X192054000Y-73520000D02*
X181946000Y-73520000D01*
X192058000Y-73480000D02*
X181942000Y-73480000D01*
X192062000Y-73440000D02*
X181938000Y-73440000D01*
X192065000Y-73400000D02*
X181935000Y-73400000D01*
X192068000Y-73360000D02*
X181932000Y-73360000D01*
X192070000Y-73320000D02*
X181930000Y-73320000D01*
X192073000Y-73280000D02*
X181927000Y-73280000D01*
X192075000Y-73240000D02*
X181925000Y-73240000D01*
X192077000Y-73200000D02*
X181923000Y-73200000D01*
X192078000Y-73160000D02*
X181922000Y-73160000D01*
X192079000Y-73120000D02*
X181921000Y-73120000D01*
X192080000Y-73080000D02*
X181920000Y-73080000D01*
X192080000Y-73040000D02*
X181920000Y-73040000D01*
X192080000Y-73000000D02*
X181920000Y-73000000D01*
X192120000Y-73000000D02*
G75*
G03X192120000Y-73000000I-5120000J0D01*
G01*
X202625000Y-68020354D02*
X201625000Y-68020354D01*
X202125000Y-67520354D02*
X202125000Y-68520354D01*
X199849000Y-78081000D02*
X198651000Y-78081000D01*
X200112000Y-78041000D02*
X198388000Y-78041000D01*
X200312000Y-78001000D02*
X198188000Y-78001000D01*
X200480000Y-77961000D02*
X198020000Y-77961000D01*
X200628000Y-77921000D02*
X197872000Y-77921000D01*
X200760000Y-77881000D02*
X197740000Y-77881000D01*
X200880000Y-77841000D02*
X197620000Y-77841000D01*
X200992000Y-77801000D02*
X197508000Y-77801000D01*
X201096000Y-77761000D02*
X197404000Y-77761000D01*
X201194000Y-77721000D02*
X197306000Y-77721000D01*
X201287000Y-77681000D02*
X197213000Y-77681000D01*
X201375000Y-77641000D02*
X197125000Y-77641000D01*
X201459000Y-77601000D02*
X197041000Y-77601000D01*
X201539000Y-77561000D02*
X196961000Y-77561000D01*
X201615000Y-77521000D02*
X196885000Y-77521000D01*
X201689000Y-77481000D02*
X196811000Y-77481000D01*
X201760000Y-77441000D02*
X196740000Y-77441000D01*
X201829000Y-77401000D02*
X196671000Y-77401000D01*
X201895000Y-77361000D02*
X196605000Y-77361000D01*
X201959000Y-77321000D02*
X196541000Y-77321000D01*
X202020000Y-77281000D02*
X196480000Y-77281000D01*
X202080000Y-77241000D02*
X196420000Y-77241000D01*
X202139000Y-77201000D02*
X196361000Y-77201000D01*
X202195000Y-77161000D02*
X196305000Y-77161000D01*
X202250000Y-77121000D02*
X196250000Y-77121000D01*
X202304000Y-77081000D02*
X196196000Y-77081000D01*
X202356000Y-77041000D02*
X196144000Y-77041000D01*
X202406000Y-77001000D02*
X196094000Y-77001000D01*
X202456000Y-76961000D02*
X196044000Y-76961000D01*
X202504000Y-76921000D02*
X195996000Y-76921000D01*
X202551000Y-76881000D02*
X195949000Y-76881000D01*
X202597000Y-76841000D02*
X195903000Y-76841000D01*
X202642000Y-76801000D02*
X195858000Y-76801000D01*
X202686000Y-76761000D02*
X195814000Y-76761000D01*
X198009000Y-76721000D02*
X195772000Y-76721000D01*
X202728000Y-76721000D02*
X200491000Y-76721000D01*
X198009000Y-76681000D02*
X195730000Y-76681000D01*
X202770000Y-76681000D02*
X200491000Y-76681000D01*
X198009000Y-76641000D02*
X195689000Y-76641000D01*
X202811000Y-76641000D02*
X200491000Y-76641000D01*
X198009000Y-76601000D02*
X195649000Y-76601000D01*
X202851000Y-76601000D02*
X200491000Y-76601000D01*
X198009000Y-76561000D02*
X195610000Y-76561000D01*
X202890000Y-76561000D02*
X200491000Y-76561000D01*
X198009000Y-76521000D02*
X195571000Y-76521000D01*
X202929000Y-76521000D02*
X200491000Y-76521000D01*
X198009000Y-76481000D02*
X195534000Y-76481000D01*
X202966000Y-76481000D02*
X200491000Y-76481000D01*
X198009000Y-76441000D02*
X195497000Y-76441000D01*
X203003000Y-76441000D02*
X200491000Y-76441000D01*
X198009000Y-76401000D02*
X195461000Y-76401000D01*
X203039000Y-76401000D02*
X200491000Y-76401000D01*
X198009000Y-76361000D02*
X195426000Y-76361000D01*
X203074000Y-76361000D02*
X200491000Y-76361000D01*
X198009000Y-76321000D02*
X195392000Y-76321000D01*
X203108000Y-76321000D02*
X200491000Y-76321000D01*
X198009000Y-76281000D02*
X195358000Y-76281000D01*
X203142000Y-76281000D02*
X200491000Y-76281000D01*
X198009000Y-76241000D02*
X195325000Y-76241000D01*
X203175000Y-76241000D02*
X200491000Y-76241000D01*
X198009000Y-76201000D02*
X195293000Y-76201000D01*
X203207000Y-76201000D02*
X200491000Y-76201000D01*
X198009000Y-76161000D02*
X195261000Y-76161000D01*
X203239000Y-76161000D02*
X200491000Y-76161000D01*
X198009000Y-76121000D02*
X195230000Y-76121000D01*
X203270000Y-76121000D02*
X200491000Y-76121000D01*
X198009000Y-76081000D02*
X195200000Y-76081000D01*
X203300000Y-76081000D02*
X200491000Y-76081000D01*
X198009000Y-76041000D02*
X195170000Y-76041000D01*
X203330000Y-76041000D02*
X200491000Y-76041000D01*
X198009000Y-76001000D02*
X195140000Y-76001000D01*
X203360000Y-76001000D02*
X200491000Y-76001000D01*
X198009000Y-75961000D02*
X195112000Y-75961000D01*
X203388000Y-75961000D02*
X200491000Y-75961000D01*
X198009000Y-75921000D02*
X195084000Y-75921000D01*
X203416000Y-75921000D02*
X200491000Y-75921000D01*
X198009000Y-75881000D02*
X195056000Y-75881000D01*
X203444000Y-75881000D02*
X200491000Y-75881000D01*
X198009000Y-75841000D02*
X195029000Y-75841000D01*
X203471000Y-75841000D02*
X200491000Y-75841000D01*
X198009000Y-75801000D02*
X195003000Y-75801000D01*
X203497000Y-75801000D02*
X200491000Y-75801000D01*
X198009000Y-75761000D02*
X194977000Y-75761000D01*
X203523000Y-75761000D02*
X200491000Y-75761000D01*
X198009000Y-75721000D02*
X194952000Y-75721000D01*
X203548000Y-75721000D02*
X200491000Y-75721000D01*
X198009000Y-75681000D02*
X194927000Y-75681000D01*
X203573000Y-75681000D02*
X200491000Y-75681000D01*
X198009000Y-75641000D02*
X194903000Y-75641000D01*
X203597000Y-75641000D02*
X200491000Y-75641000D01*
X198009000Y-75601000D02*
X194879000Y-75601000D01*
X203621000Y-75601000D02*
X200491000Y-75601000D01*
X198009000Y-75561000D02*
X194855000Y-75561000D01*
X203645000Y-75561000D02*
X200491000Y-75561000D01*
X198009000Y-75521000D02*
X194833000Y-75521000D01*
X203667000Y-75521000D02*
X200491000Y-75521000D01*
X198009000Y-75481000D02*
X194810000Y-75481000D01*
X203690000Y-75481000D02*
X200491000Y-75481000D01*
X198009000Y-75441000D02*
X194788000Y-75441000D01*
X203712000Y-75441000D02*
X200491000Y-75441000D01*
X198009000Y-75401000D02*
X194767000Y-75401000D01*
X203733000Y-75401000D02*
X200491000Y-75401000D01*
X198009000Y-75361000D02*
X194746000Y-75361000D01*
X203754000Y-75361000D02*
X200491000Y-75361000D01*
X198009000Y-75321000D02*
X194725000Y-75321000D01*
X203775000Y-75321000D02*
X200491000Y-75321000D01*
X198009000Y-75281000D02*
X194705000Y-75281000D01*
X203795000Y-75281000D02*
X200491000Y-75281000D01*
X198009000Y-75241000D02*
X194686000Y-75241000D01*
X203814000Y-75241000D02*
X200491000Y-75241000D01*
X198009000Y-75201000D02*
X194666000Y-75201000D01*
X203834000Y-75201000D02*
X200491000Y-75201000D01*
X198009000Y-75161000D02*
X194647000Y-75161000D01*
X203853000Y-75161000D02*
X200491000Y-75161000D01*
X198009000Y-75121000D02*
X194629000Y-75121000D01*
X203871000Y-75121000D02*
X200491000Y-75121000D01*
X198009000Y-75081000D02*
X194611000Y-75081000D01*
X203889000Y-75081000D02*
X200491000Y-75081000D01*
X198009000Y-75041000D02*
X194593000Y-75041000D01*
X203907000Y-75041000D02*
X200491000Y-75041000D01*
X198009000Y-75001000D02*
X194576000Y-75001000D01*
X203924000Y-75001000D02*
X200491000Y-75001000D01*
X198009000Y-74961000D02*
X194560000Y-74961000D01*
X203940000Y-74961000D02*
X200491000Y-74961000D01*
X198009000Y-74921000D02*
X194543000Y-74921000D01*
X203957000Y-74921000D02*
X200491000Y-74921000D01*
X198009000Y-74881000D02*
X194527000Y-74881000D01*
X203973000Y-74881000D02*
X200491000Y-74881000D01*
X198009000Y-74841000D02*
X194512000Y-74841000D01*
X203988000Y-74841000D02*
X200491000Y-74841000D01*
X198009000Y-74801000D02*
X194496000Y-74801000D01*
X204004000Y-74801000D02*
X200491000Y-74801000D01*
X198009000Y-74761000D02*
X194482000Y-74761000D01*
X204018000Y-74761000D02*
X200491000Y-74761000D01*
X198009000Y-74721000D02*
X194467000Y-74721000D01*
X204033000Y-74721000D02*
X200491000Y-74721000D01*
X198009000Y-74681000D02*
X194453000Y-74681000D01*
X204047000Y-74681000D02*
X200491000Y-74681000D01*
X198009000Y-74641000D02*
X194439000Y-74641000D01*
X204061000Y-74641000D02*
X200491000Y-74641000D01*
X198009000Y-74601000D02*
X194426000Y-74601000D01*
X204074000Y-74601000D02*
X200491000Y-74601000D01*
X198009000Y-74561000D02*
X194413000Y-74561000D01*
X204087000Y-74561000D02*
X200491000Y-74561000D01*
X198009000Y-74521000D02*
X194400000Y-74521000D01*
X204100000Y-74521000D02*
X200491000Y-74521000D01*
X198009000Y-74481000D02*
X194388000Y-74481000D01*
X204112000Y-74481000D02*
X200491000Y-74481000D01*
X198009000Y-74441000D02*
X194376000Y-74441000D01*
X204124000Y-74441000D02*
X200491000Y-74441000D01*
X198009000Y-74401000D02*
X194365000Y-74401000D01*
X204135000Y-74401000D02*
X200491000Y-74401000D01*
X198009000Y-74361000D02*
X194353000Y-74361000D01*
X204147000Y-74361000D02*
X200491000Y-74361000D01*
X198009000Y-74321000D02*
X194343000Y-74321000D01*
X204157000Y-74321000D02*
X200491000Y-74321000D01*
X198009000Y-74281000D02*
X194332000Y-74281000D01*
X204168000Y-74281000D02*
X200491000Y-74281000D01*
X204178000Y-74241000D02*
X194322000Y-74241000D01*
X204188000Y-74201000D02*
X194312000Y-74201000D01*
X204197000Y-74161000D02*
X194303000Y-74161000D01*
X204206000Y-74121000D02*
X194294000Y-74121000D01*
X204215000Y-74081000D02*
X194285000Y-74081000D01*
X204224000Y-74041000D02*
X194276000Y-74041000D01*
X204232000Y-74001000D02*
X194268000Y-74001000D01*
X204240000Y-73961000D02*
X194260000Y-73961000D01*
X204247000Y-73921000D02*
X194253000Y-73921000D01*
X204254000Y-73881000D02*
X194246000Y-73881000D01*
X204261000Y-73841000D02*
X194239000Y-73841000D01*
X204268000Y-73801000D02*
X194232000Y-73801000D01*
X204274000Y-73761000D02*
X194226000Y-73761000D01*
X204280000Y-73721000D02*
X194220000Y-73721000D01*
X204285000Y-73680000D02*
X194215000Y-73680000D01*
X204290000Y-73640000D02*
X194210000Y-73640000D01*
X204295000Y-73600000D02*
X194205000Y-73600000D01*
X204300000Y-73560000D02*
X194200000Y-73560000D01*
X204304000Y-73520000D02*
X194196000Y-73520000D01*
X204308000Y-73480000D02*
X194192000Y-73480000D01*
X204312000Y-73440000D02*
X194188000Y-73440000D01*
X204315000Y-73400000D02*
X194185000Y-73400000D01*
X204318000Y-73360000D02*
X194182000Y-73360000D01*
X204320000Y-73320000D02*
X194180000Y-73320000D01*
X204323000Y-73280000D02*
X194177000Y-73280000D01*
X204325000Y-73240000D02*
X194175000Y-73240000D01*
X204327000Y-73200000D02*
X194173000Y-73200000D01*
X204328000Y-73160000D02*
X194172000Y-73160000D01*
X204329000Y-73120000D02*
X194171000Y-73120000D01*
X204330000Y-73080000D02*
X194170000Y-73080000D01*
X204330000Y-73040000D02*
X194170000Y-73040000D01*
X204330000Y-73000000D02*
X194170000Y-73000000D01*
X204370000Y-73000000D02*
G75*
G03X204370000Y-73000000I-5120000J0D01*
G01*
D11*
X178452380Y-66833333D02*
X179166666Y-66833333D01*
X179309523Y-66880952D01*
X179404761Y-66976190D01*
X179452380Y-67119047D01*
X179452380Y-67214285D01*
X179452380Y-65833333D02*
X179452380Y-66404761D01*
X179452380Y-66119047D02*
X178452380Y-66119047D01*
X178595238Y-66214285D01*
X178690476Y-66309523D01*
X178738095Y-66404761D01*
X184952380Y-127833333D02*
X185666666Y-127833333D01*
X185809523Y-127880952D01*
X185904761Y-127976190D01*
X185952380Y-128119047D01*
X185952380Y-128214285D01*
X185047619Y-127404761D02*
X185000000Y-127357142D01*
X184952380Y-127261904D01*
X184952380Y-127023809D01*
X185000000Y-126928571D01*
X185047619Y-126880952D01*
X185142857Y-126833333D01*
X185238095Y-126833333D01*
X185380952Y-126880952D01*
X185952380Y-127452380D01*
X185952380Y-126833333D01*
X202333333Y-54857142D02*
X202285714Y-54904761D01*
X202142857Y-54952380D01*
X202047619Y-54952380D01*
X201904761Y-54904761D01*
X201809523Y-54809523D01*
X201761904Y-54714285D01*
X201714285Y-54523809D01*
X201714285Y-54380952D01*
X201761904Y-54190476D01*
X201809523Y-54095238D01*
X201904761Y-54000000D01*
X202047619Y-53952380D01*
X202142857Y-53952380D01*
X202285714Y-54000000D01*
X202333333Y-54047619D01*
X203285714Y-54952380D02*
X202714285Y-54952380D01*
X203000000Y-54952380D02*
X203000000Y-53952380D01*
X202904761Y-54095238D01*
X202809523Y-54190476D01*
X202714285Y-54238095D01*
X223486904Y-57952380D02*
X223486904Y-56952380D01*
X223486904Y-57428571D02*
X224058333Y-57428571D01*
X224058333Y-57952380D02*
X224058333Y-56952380D01*
X224486904Y-57904761D02*
X224629761Y-57952380D01*
X224867857Y-57952380D01*
X224963095Y-57904761D01*
X225010714Y-57857142D01*
X225058333Y-57761904D01*
X225058333Y-57666666D01*
X225010714Y-57571428D01*
X224963095Y-57523809D01*
X224867857Y-57476190D01*
X224677380Y-57428571D01*
X224582142Y-57380952D01*
X224534523Y-57333333D01*
X224486904Y-57238095D01*
X224486904Y-57142857D01*
X224534523Y-57047619D01*
X224582142Y-57000000D01*
X224677380Y-56952380D01*
X224915476Y-56952380D01*
X225058333Y-57000000D01*
X226010714Y-57952380D02*
X225439285Y-57952380D01*
X225725000Y-57952380D02*
X225725000Y-56952380D01*
X225629761Y-57095238D01*
X225534523Y-57190476D01*
X225439285Y-57238095D01*
X231238095Y-136452380D02*
X231809523Y-136452380D01*
X231523809Y-137452380D02*
X231523809Y-136452380D01*
X232714285Y-137452380D02*
X232380952Y-136976190D01*
X232142857Y-137452380D02*
X232142857Y-136452380D01*
X232523809Y-136452380D01*
X232619047Y-136500000D01*
X232666666Y-136547619D01*
X232714285Y-136642857D01*
X232714285Y-136785714D01*
X232666666Y-136880952D01*
X232619047Y-136928571D01*
X232523809Y-136976190D01*
X232142857Y-136976190D01*
X233666666Y-137452380D02*
X233095238Y-137452380D01*
X233380952Y-137452380D02*
X233380952Y-136452380D01*
X233285714Y-136595238D01*
X233190476Y-136690476D01*
X233095238Y-136738095D01*
X201952380Y-95964285D02*
X201952380Y-96535714D01*
X201952380Y-96250000D02*
X200952380Y-96250000D01*
X201095238Y-96345238D01*
X201190476Y-96440476D01*
X201238095Y-96535714D01*
X201047619Y-101535714D02*
X201000000Y-101488095D01*
X200952380Y-101392857D01*
X200952380Y-101154761D01*
X201000000Y-101059523D01*
X201047619Y-101011904D01*
X201142857Y-100964285D01*
X201238095Y-100964285D01*
X201380952Y-101011904D01*
X201952380Y-101583333D01*
X201952380Y-100964285D01*
X200952380Y-106583333D02*
X200952380Y-105964285D01*
X201333333Y-106297619D01*
X201333333Y-106154761D01*
X201380952Y-106059523D01*
X201428571Y-106011904D01*
X201523809Y-105964285D01*
X201761904Y-105964285D01*
X201857142Y-106011904D01*
X201904761Y-106059523D01*
X201952380Y-106154761D01*
X201952380Y-106440476D01*
X201904761Y-106535714D01*
X201857142Y-106583333D01*
X201285714Y-111059523D02*
X201952380Y-111059523D01*
X200904761Y-111297619D02*
X201619047Y-111535714D01*
X201619047Y-110916666D01*
X200952380Y-116011904D02*
X200952380Y-116488095D01*
X201428571Y-116535714D01*
X201380952Y-116488095D01*
X201333333Y-116392857D01*
X201333333Y-116154761D01*
X201380952Y-116059523D01*
X201428571Y-116011904D01*
X201523809Y-115964285D01*
X201761904Y-115964285D01*
X201857142Y-116011904D01*
X201904761Y-116059523D01*
X201952380Y-116154761D01*
X201952380Y-116392857D01*
X201904761Y-116488095D01*
X201857142Y-116535714D01*
X200952380Y-121059523D02*
X200952380Y-121250000D01*
X201000000Y-121345238D01*
X201047619Y-121392857D01*
X201190476Y-121488095D01*
X201380952Y-121535714D01*
X201761904Y-121535714D01*
X201857142Y-121488095D01*
X201904761Y-121440476D01*
X201952380Y-121345238D01*
X201952380Y-121154761D01*
X201904761Y-121059523D01*
X201857142Y-121011904D01*
X201761904Y-120964285D01*
X201523809Y-120964285D01*
X201428571Y-121011904D01*
X201380952Y-121059523D01*
X201333333Y-121154761D01*
X201333333Y-121345238D01*
X201380952Y-121440476D01*
X201428571Y-121488095D01*
X201523809Y-121535714D01*
X240952380Y-121583333D02*
X240952380Y-120916666D01*
X241952380Y-121345238D01*
X241380952Y-116345238D02*
X241333333Y-116440476D01*
X241285714Y-116488095D01*
X241190476Y-116535714D01*
X241142857Y-116535714D01*
X241047619Y-116488095D01*
X241000000Y-116440476D01*
X240952380Y-116345238D01*
X240952380Y-116154761D01*
X241000000Y-116059523D01*
X241047619Y-116011904D01*
X241142857Y-115964285D01*
X241190476Y-115964285D01*
X241285714Y-116011904D01*
X241333333Y-116059523D01*
X241380952Y-116154761D01*
X241380952Y-116345238D01*
X241428571Y-116440476D01*
X241476190Y-116488095D01*
X241571428Y-116535714D01*
X241761904Y-116535714D01*
X241857142Y-116488095D01*
X241904761Y-116440476D01*
X241952380Y-116345238D01*
X241952380Y-116154761D01*
X241904761Y-116059523D01*
X241857142Y-116011904D01*
X241761904Y-115964285D01*
X241571428Y-115964285D01*
X241476190Y-116011904D01*
X241428571Y-116059523D01*
X241380952Y-116154761D01*
X241952380Y-111440476D02*
X241952380Y-111250000D01*
X241904761Y-111154761D01*
X241857142Y-111107142D01*
X241714285Y-111011904D01*
X241523809Y-110964285D01*
X241142857Y-110964285D01*
X241047619Y-111011904D01*
X241000000Y-111059523D01*
X240952380Y-111154761D01*
X240952380Y-111345238D01*
X241000000Y-111440476D01*
X241047619Y-111488095D01*
X241142857Y-111535714D01*
X241380952Y-111535714D01*
X241476190Y-111488095D01*
X241523809Y-111440476D01*
X241571428Y-111345238D01*
X241571428Y-111154761D01*
X241523809Y-111059523D01*
X241476190Y-111011904D01*
X241380952Y-110964285D01*
X241952380Y-106440476D02*
X241952380Y-107011904D01*
X241952380Y-106726190D02*
X240952380Y-106726190D01*
X241095238Y-106821428D01*
X241190476Y-106916666D01*
X241238095Y-107011904D01*
X240952380Y-105821428D02*
X240952380Y-105726190D01*
X241000000Y-105630952D01*
X241047619Y-105583333D01*
X241142857Y-105535714D01*
X241333333Y-105488095D01*
X241571428Y-105488095D01*
X241761904Y-105535714D01*
X241857142Y-105583333D01*
X241904761Y-105630952D01*
X241952380Y-105726190D01*
X241952380Y-105821428D01*
X241904761Y-105916666D01*
X241857142Y-105964285D01*
X241761904Y-106011904D01*
X241571428Y-106059523D01*
X241333333Y-106059523D01*
X241142857Y-106011904D01*
X241047619Y-105964285D01*
X241000000Y-105916666D01*
X240952380Y-105821428D01*
X241952380Y-101440476D02*
X241952380Y-102011904D01*
X241952380Y-101726190D02*
X240952380Y-101726190D01*
X241095238Y-101821428D01*
X241190476Y-101916666D01*
X241238095Y-102011904D01*
X241952380Y-100488095D02*
X241952380Y-101059523D01*
X241952380Y-100773809D02*
X240952380Y-100773809D01*
X241095238Y-100869047D01*
X241190476Y-100964285D01*
X241238095Y-101059523D01*
X241952380Y-96440476D02*
X241952380Y-97011904D01*
X241952380Y-96726190D02*
X240952380Y-96726190D01*
X241095238Y-96821428D01*
X241190476Y-96916666D01*
X241238095Y-97011904D01*
X241047619Y-96059523D02*
X241000000Y-96011904D01*
X240952380Y-95916666D01*
X240952380Y-95678571D01*
X241000000Y-95583333D01*
X241047619Y-95535714D01*
X241142857Y-95488095D01*
X241238095Y-95488095D01*
X241380952Y-95535714D01*
X241952380Y-96107142D01*
X241952380Y-95488095D01*
X222457142Y-50792857D02*
X222504761Y-50840476D01*
X222552380Y-50983333D01*
X222552380Y-51078571D01*
X222504761Y-51221428D01*
X222409523Y-51316666D01*
X222314285Y-51364285D01*
X222123809Y-51411904D01*
X221980952Y-51411904D01*
X221790476Y-51364285D01*
X221695238Y-51316666D01*
X221600000Y-51221428D01*
X221552380Y-51078571D01*
X221552380Y-50983333D01*
X221600000Y-50840476D01*
X221647619Y-50792857D01*
X222552380Y-49840476D02*
X222552380Y-50411904D01*
X222552380Y-50126190D02*
X221552380Y-50126190D01*
X221695238Y-50221428D01*
X221790476Y-50316666D01*
X221838095Y-50411904D01*
X221552380Y-49507142D02*
X221552380Y-48840476D01*
X222552380Y-49269047D01*
X228688095Y-67052380D02*
X228688095Y-67861904D01*
X228735714Y-67957142D01*
X228783333Y-68004761D01*
X228878571Y-68052380D01*
X229069047Y-68052380D01*
X229164285Y-68004761D01*
X229211904Y-67957142D01*
X229259523Y-67861904D01*
X229259523Y-67052380D01*
X229640476Y-67052380D02*
X230307142Y-67052380D01*
X229878571Y-68052380D01*
X193878571Y-86433333D02*
X193878571Y-86766666D01*
X194402380Y-86766666D02*
X193402380Y-86766666D01*
X193402380Y-86290476D01*
X194402380Y-85385714D02*
X194402380Y-85957142D01*
X194402380Y-85671428D02*
X193402380Y-85671428D01*
X193545238Y-85766666D01*
X193640476Y-85861904D01*
X193688095Y-85957142D01*
X224611904Y-75402380D02*
X224611904Y-74402380D01*
X224850000Y-74402380D01*
X224992857Y-74450000D01*
X225088095Y-74545238D01*
X225135714Y-74640476D01*
X225183333Y-74830952D01*
X225183333Y-74973809D01*
X225135714Y-75164285D01*
X225088095Y-75259523D01*
X224992857Y-75354761D01*
X224850000Y-75402380D01*
X224611904Y-75402380D01*
X226040476Y-74735714D02*
X226040476Y-75402380D01*
X225802380Y-74354761D02*
X225564285Y-75069047D01*
X226183333Y-75069047D01*
X230752380Y-71361904D02*
X229752380Y-71361904D01*
X230752380Y-70790476D02*
X230180952Y-71219047D01*
X229752380Y-70790476D02*
X230323809Y-71361904D01*
X212611904Y-75552380D02*
X212611904Y-74552380D01*
X212850000Y-74552380D01*
X212992857Y-74600000D01*
X213088095Y-74695238D01*
X213135714Y-74790476D01*
X213183333Y-74980952D01*
X213183333Y-75123809D01*
X213135714Y-75314285D01*
X213088095Y-75409523D01*
X212992857Y-75504761D01*
X212850000Y-75552380D01*
X212611904Y-75552380D01*
X213516666Y-74552380D02*
X214135714Y-74552380D01*
X213802380Y-74933333D01*
X213945238Y-74933333D01*
X214040476Y-74980952D01*
X214088095Y-75028571D01*
X214135714Y-75123809D01*
X214135714Y-75361904D01*
X214088095Y-75457142D01*
X214040476Y-75504761D01*
X213945238Y-75552380D01*
X213659523Y-75552380D01*
X213564285Y-75504761D01*
X213516666Y-75457142D01*
X218752380Y-71361904D02*
X217752380Y-71361904D01*
X218752380Y-70790476D02*
X218180952Y-71219047D01*
X217752380Y-70790476D02*
X218323809Y-71361904D01*
X230111904Y-75252380D02*
X230111904Y-74252380D01*
X230350000Y-74252380D01*
X230492857Y-74300000D01*
X230588095Y-74395238D01*
X230635714Y-74490476D01*
X230683333Y-74680952D01*
X230683333Y-74823809D01*
X230635714Y-75014285D01*
X230588095Y-75109523D01*
X230492857Y-75204761D01*
X230350000Y-75252380D01*
X230111904Y-75252380D01*
X231064285Y-74347619D02*
X231111904Y-74300000D01*
X231207142Y-74252380D01*
X231445238Y-74252380D01*
X231540476Y-74300000D01*
X231588095Y-74347619D01*
X231635714Y-74442857D01*
X231635714Y-74538095D01*
X231588095Y-74680952D01*
X231016666Y-75252380D01*
X231635714Y-75252380D01*
X232052380Y-78861904D02*
X231052380Y-78861904D01*
X232052380Y-78290476D02*
X231480952Y-78719047D01*
X231052380Y-78290476D02*
X231623809Y-78861904D01*
X218861904Y-75302380D02*
X218861904Y-74302380D01*
X219100000Y-74302380D01*
X219242857Y-74350000D01*
X219338095Y-74445238D01*
X219385714Y-74540476D01*
X219433333Y-74730952D01*
X219433333Y-74873809D01*
X219385714Y-75064285D01*
X219338095Y-75159523D01*
X219242857Y-75254761D01*
X219100000Y-75302380D01*
X218861904Y-75302380D01*
X220385714Y-75302380D02*
X219814285Y-75302380D01*
X220100000Y-75302380D02*
X220100000Y-74302380D01*
X220004761Y-74445238D01*
X219909523Y-74540476D01*
X219814285Y-74588095D01*
X220552380Y-78861904D02*
X219552380Y-78861904D01*
X220552380Y-78290476D02*
X219980952Y-78719047D01*
X219552380Y-78290476D02*
X220123809Y-78861904D01*
X217007142Y-50812857D02*
X217054761Y-50860476D01*
X217102380Y-51003333D01*
X217102380Y-51098571D01*
X217054761Y-51241428D01*
X216959523Y-51336666D01*
X216864285Y-51384285D01*
X216673809Y-51431904D01*
X216530952Y-51431904D01*
X216340476Y-51384285D01*
X216245238Y-51336666D01*
X216150000Y-51241428D01*
X216102380Y-51098571D01*
X216102380Y-51003333D01*
X216150000Y-50860476D01*
X216197619Y-50812857D01*
X217102380Y-49860476D02*
X217102380Y-50431904D01*
X217102380Y-50146190D02*
X216102380Y-50146190D01*
X216245238Y-50241428D01*
X216340476Y-50336666D01*
X216388095Y-50431904D01*
X216102380Y-49003333D02*
X216102380Y-49193809D01*
X216150000Y-49289047D01*
X216197619Y-49336666D01*
X216340476Y-49431904D01*
X216530952Y-49479523D01*
X216911904Y-49479523D01*
X217007142Y-49431904D01*
X217054761Y-49384285D01*
X217102380Y-49289047D01*
X217102380Y-49098571D01*
X217054761Y-49003333D01*
X217007142Y-48955714D01*
X216911904Y-48908095D01*
X216673809Y-48908095D01*
X216578571Y-48955714D01*
X216530952Y-49003333D01*
X216483333Y-49098571D01*
X216483333Y-49289047D01*
X216530952Y-49384285D01*
X216578571Y-49431904D01*
X216673809Y-49479523D01*
X186833333Y-79857142D02*
X186785714Y-79904761D01*
X186642857Y-79952380D01*
X186547619Y-79952380D01*
X186404761Y-79904761D01*
X186309523Y-79809523D01*
X186261904Y-79714285D01*
X186214285Y-79523809D01*
X186214285Y-79380952D01*
X186261904Y-79190476D01*
X186309523Y-79095238D01*
X186404761Y-79000000D01*
X186547619Y-78952380D01*
X186642857Y-78952380D01*
X186785714Y-79000000D01*
X186833333Y-79047619D01*
X187309523Y-79952380D02*
X187500000Y-79952380D01*
X187595238Y-79904761D01*
X187642857Y-79857142D01*
X187738095Y-79714285D01*
X187785714Y-79523809D01*
X187785714Y-79142857D01*
X187738095Y-79047619D01*
X187690476Y-79000000D01*
X187595238Y-78952380D01*
X187404761Y-78952380D01*
X187309523Y-79000000D01*
X187261904Y-79047619D01*
X187214285Y-79142857D01*
X187214285Y-79380952D01*
X187261904Y-79476190D01*
X187309523Y-79523809D01*
X187404761Y-79571428D01*
X187595238Y-79571428D01*
X187690476Y-79523809D01*
X187738095Y-79476190D01*
X187785714Y-79380952D01*
X199333333Y-67157142D02*
X199285714Y-67204761D01*
X199142857Y-67252380D01*
X199047619Y-67252380D01*
X198904761Y-67204761D01*
X198809523Y-67109523D01*
X198761904Y-67014285D01*
X198714285Y-66823809D01*
X198714285Y-66680952D01*
X198761904Y-66490476D01*
X198809523Y-66395238D01*
X198904761Y-66300000D01*
X199047619Y-66252380D01*
X199142857Y-66252380D01*
X199285714Y-66300000D01*
X199333333Y-66347619D01*
X199904761Y-66680952D02*
X199809523Y-66633333D01*
X199761904Y-66585714D01*
X199714285Y-66490476D01*
X199714285Y-66442857D01*
X199761904Y-66347619D01*
X199809523Y-66300000D01*
X199904761Y-66252380D01*
X200095238Y-66252380D01*
X200190476Y-66300000D01*
X200238095Y-66347619D01*
X200285714Y-66442857D01*
X200285714Y-66490476D01*
X200238095Y-66585714D01*
X200190476Y-66633333D01*
X200095238Y-66680952D01*
X199904761Y-66680952D01*
X199809523Y-66728571D01*
X199761904Y-66776190D01*
X199714285Y-66871428D01*
X199714285Y-67061904D01*
X199761904Y-67157142D01*
X199809523Y-67204761D01*
X199904761Y-67252380D01*
X200095238Y-67252380D01*
X200190476Y-67204761D01*
X200238095Y-67157142D01*
X200285714Y-67061904D01*
X200285714Y-66871428D01*
X200238095Y-66776190D01*
X200190476Y-66728571D01*
X200095238Y-66680952D01*
M02*
