G04 #@! TF.GenerationSoftware,KiCad,Pcbnew,(5.1.5)-3*
G04 #@! TF.CreationDate,2020-04-01T20:44:35+02:00*
G04 #@! TF.ProjectId,5vfrommains,35766672-6f6d-46d6-9169-6e732e6b6963,rev?*
G04 #@! TF.SameCoordinates,Original*
G04 #@! TF.FileFunction,Copper,L1,Top*
G04 #@! TF.FilePolarity,Positive*
%FSLAX46Y46*%
G04 Gerber Fmt 4.6, Leading zero omitted, Abs format (unit mm)*
G04 Created by KiCad (PCBNEW (5.1.5)-3) date 2020-04-01 20:44:35*
%MOMM*%
%LPD*%
G04 APERTURE LIST*
%ADD10C,0.381000*%
%ADD11C,6.000000*%
%ADD12C,4.500000*%
%ADD13C,2.000000*%
%ADD14R,2.000000X2.000000*%
%ADD15C,0.100000*%
%ADD16O,1.905000X2.000000*%
%ADD17R,1.905000X2.000000*%
%ADD18R,2.500880X2.500880*%
%ADD19C,3.000000*%
%ADD20O,2.200000X2.200000*%
%ADD21R,2.200000X2.200000*%
%ADD22C,0.800000*%
%ADD23C,2.500000*%
%ADD24C,0.254000*%
G04 APERTURE END LIST*
D10*
X179381000Y-131567000D02*
X179889000Y-128900000D01*
X183318000Y-128392000D02*
X179381000Y-131567000D01*
X178238000Y-134488000D02*
X183318000Y-128392000D01*
X181794000Y-134742000D02*
X178238000Y-134488000D01*
X177095000Y-141600000D02*
X181794000Y-134742000D01*
X178111000Y-141219000D02*
X177095000Y-141600000D01*
X176587000Y-143124000D02*
X178111000Y-141219000D01*
X176714000Y-140457000D02*
X176587000Y-143124000D01*
X176841000Y-141727000D02*
X176714000Y-140457000D01*
X179889000Y-135631000D02*
X176841000Y-141727000D01*
X175825000Y-135631000D02*
X179889000Y-135631000D01*
X179889000Y-128900000D02*
X175825000Y-135631000D01*
X181032000Y-135377000D02*
X179762000Y-137409000D01*
X180397000Y-135377000D02*
X181032000Y-135377000D01*
X177603000Y-140711000D02*
X180397000Y-135377000D01*
X180905000Y-135123000D02*
X177603000Y-140711000D01*
X177857000Y-135250000D02*
X180905000Y-135123000D01*
X177984000Y-134869000D02*
X177857000Y-135250000D01*
X181413000Y-134869000D02*
X177984000Y-134869000D01*
X181032000Y-135377000D02*
X181413000Y-134869000D01*
X177349000Y-135504000D02*
X181032000Y-135377000D01*
X180524000Y-130805000D02*
X177349000Y-135504000D01*
X177984000Y-133726000D02*
X180524000Y-130805000D01*
X181667000Y-130043000D02*
X177984000Y-133726000D01*
X176968000Y-135377000D02*
X181667000Y-130043000D01*
X179254000Y-131694000D02*
X176968000Y-135377000D01*
X176587000Y-135377000D02*
X179254000Y-131694000D01*
X179381000Y-130932000D02*
X176587000Y-135377000D01*
X176206000Y-135504000D02*
X179381000Y-130932000D01*
X179508000Y-130170000D02*
X176206000Y-135504000D01*
X177095000Y-141346000D02*
X177222000Y-141473000D01*
X177222000Y-141219000D02*
X177095000Y-141346000D01*
X177095000Y-141600000D02*
X177222000Y-141219000D01*
X176714000Y-142489000D02*
X177095000Y-141600000D01*
X177476000Y-141727000D02*
X176714000Y-142489000D01*
X182048000Y-129789000D02*
X179127000Y-132075000D01*
X179508000Y-129662000D02*
X179381000Y-130297000D01*
X177984000Y-134234000D02*
X178238000Y-134869000D01*
D11*
X212100000Y-60000000D03*
X237500000Y-60000000D03*
D12*
X179000000Y-65000000D03*
X239000000Y-48000000D03*
D13*
X235250000Y-96250000D03*
X235250000Y-101250000D03*
X235250000Y-106250000D03*
X235250000Y-111250000D03*
X235250000Y-116250000D03*
X235250000Y-121250000D03*
X207750000Y-121250000D03*
X207750000Y-116250000D03*
X207750000Y-101250000D03*
D14*
X207750000Y-96250000D03*
G04 #@! TA.AperFunction,SMDPad,CuDef*
D15*
G36*
X220680142Y-48726174D02*
G01*
X220703803Y-48729684D01*
X220727007Y-48735496D01*
X220749529Y-48743554D01*
X220771153Y-48753782D01*
X220791670Y-48766079D01*
X220810883Y-48780329D01*
X220828607Y-48796393D01*
X220844671Y-48814117D01*
X220858921Y-48833330D01*
X220871218Y-48853847D01*
X220881446Y-48875471D01*
X220889504Y-48897993D01*
X220895316Y-48921197D01*
X220898826Y-48944858D01*
X220900000Y-48968750D01*
X220900000Y-49456250D01*
X220898826Y-49480142D01*
X220895316Y-49503803D01*
X220889504Y-49527007D01*
X220881446Y-49549529D01*
X220871218Y-49571153D01*
X220858921Y-49591670D01*
X220844671Y-49610883D01*
X220828607Y-49628607D01*
X220810883Y-49644671D01*
X220791670Y-49658921D01*
X220771153Y-49671218D01*
X220749529Y-49681446D01*
X220727007Y-49689504D01*
X220703803Y-49695316D01*
X220680142Y-49698826D01*
X220656250Y-49700000D01*
X219743750Y-49700000D01*
X219719858Y-49698826D01*
X219696197Y-49695316D01*
X219672993Y-49689504D01*
X219650471Y-49681446D01*
X219628847Y-49671218D01*
X219608330Y-49658921D01*
X219589117Y-49644671D01*
X219571393Y-49628607D01*
X219555329Y-49610883D01*
X219541079Y-49591670D01*
X219528782Y-49571153D01*
X219518554Y-49549529D01*
X219510496Y-49527007D01*
X219504684Y-49503803D01*
X219501174Y-49480142D01*
X219500000Y-49456250D01*
X219500000Y-48968750D01*
X219501174Y-48944858D01*
X219504684Y-48921197D01*
X219510496Y-48897993D01*
X219518554Y-48875471D01*
X219528782Y-48853847D01*
X219541079Y-48833330D01*
X219555329Y-48814117D01*
X219571393Y-48796393D01*
X219589117Y-48780329D01*
X219608330Y-48766079D01*
X219628847Y-48753782D01*
X219650471Y-48743554D01*
X219672993Y-48735496D01*
X219696197Y-48729684D01*
X219719858Y-48726174D01*
X219743750Y-48725000D01*
X220656250Y-48725000D01*
X220680142Y-48726174D01*
G37*
G04 #@! TD.AperFunction*
G04 #@! TA.AperFunction,SMDPad,CuDef*
G36*
X220680142Y-50601174D02*
G01*
X220703803Y-50604684D01*
X220727007Y-50610496D01*
X220749529Y-50618554D01*
X220771153Y-50628782D01*
X220791670Y-50641079D01*
X220810883Y-50655329D01*
X220828607Y-50671393D01*
X220844671Y-50689117D01*
X220858921Y-50708330D01*
X220871218Y-50728847D01*
X220881446Y-50750471D01*
X220889504Y-50772993D01*
X220895316Y-50796197D01*
X220898826Y-50819858D01*
X220900000Y-50843750D01*
X220900000Y-51331250D01*
X220898826Y-51355142D01*
X220895316Y-51378803D01*
X220889504Y-51402007D01*
X220881446Y-51424529D01*
X220871218Y-51446153D01*
X220858921Y-51466670D01*
X220844671Y-51485883D01*
X220828607Y-51503607D01*
X220810883Y-51519671D01*
X220791670Y-51533921D01*
X220771153Y-51546218D01*
X220749529Y-51556446D01*
X220727007Y-51564504D01*
X220703803Y-51570316D01*
X220680142Y-51573826D01*
X220656250Y-51575000D01*
X219743750Y-51575000D01*
X219719858Y-51573826D01*
X219696197Y-51570316D01*
X219672993Y-51564504D01*
X219650471Y-51556446D01*
X219628847Y-51546218D01*
X219608330Y-51533921D01*
X219589117Y-51519671D01*
X219571393Y-51503607D01*
X219555329Y-51485883D01*
X219541079Y-51466670D01*
X219528782Y-51446153D01*
X219518554Y-51424529D01*
X219510496Y-51402007D01*
X219504684Y-51378803D01*
X219501174Y-51355142D01*
X219500000Y-51331250D01*
X219500000Y-50843750D01*
X219501174Y-50819858D01*
X219504684Y-50796197D01*
X219510496Y-50772993D01*
X219518554Y-50750471D01*
X219528782Y-50728847D01*
X219541079Y-50708330D01*
X219555329Y-50689117D01*
X219571393Y-50671393D01*
X219589117Y-50655329D01*
X219608330Y-50641079D01*
X219628847Y-50628782D01*
X219650471Y-50618554D01*
X219672993Y-50610496D01*
X219696197Y-50604684D01*
X219719858Y-50601174D01*
X219743750Y-50600000D01*
X220656250Y-50600000D01*
X220680142Y-50601174D01*
G37*
G04 #@! TD.AperFunction*
D16*
X227330000Y-64350000D03*
X224790000Y-64350000D03*
D17*
X222250000Y-64350000D03*
D18*
X184500000Y-57500000D03*
X184500000Y-48500000D03*
X191000000Y-125500000D03*
X191000000Y-116500000D03*
D12*
X200500000Y-72000000D03*
X237500000Y-140000000D03*
X200500000Y-140000000D03*
D19*
X191000000Y-110000000D03*
X191000000Y-87500000D03*
D20*
X228200000Y-78720000D03*
D21*
X228200000Y-71100000D03*
D20*
X216200000Y-78720000D03*
D21*
X216200000Y-71100000D03*
D20*
X233700000Y-70980000D03*
D21*
X233700000Y-78600000D03*
D20*
X222200000Y-70980000D03*
D21*
X222200000Y-78600000D03*
G04 #@! TA.AperFunction,SMDPad,CuDef*
D15*
G36*
X218357691Y-48946053D02*
G01*
X218378926Y-48949203D01*
X218399750Y-48954419D01*
X218419962Y-48961651D01*
X218439368Y-48970830D01*
X218457781Y-48981866D01*
X218475024Y-48994654D01*
X218490930Y-49009070D01*
X218505346Y-49024976D01*
X218518134Y-49042219D01*
X218529170Y-49060632D01*
X218538349Y-49080038D01*
X218545581Y-49100250D01*
X218550797Y-49121074D01*
X218553947Y-49142309D01*
X218555000Y-49163750D01*
X218555000Y-49601250D01*
X218553947Y-49622691D01*
X218550797Y-49643926D01*
X218545581Y-49664750D01*
X218538349Y-49684962D01*
X218529170Y-49704368D01*
X218518134Y-49722781D01*
X218505346Y-49740024D01*
X218490930Y-49755930D01*
X218475024Y-49770346D01*
X218457781Y-49783134D01*
X218439368Y-49794170D01*
X218419962Y-49803349D01*
X218399750Y-49810581D01*
X218378926Y-49815797D01*
X218357691Y-49818947D01*
X218336250Y-49820000D01*
X217823750Y-49820000D01*
X217802309Y-49818947D01*
X217781074Y-49815797D01*
X217760250Y-49810581D01*
X217740038Y-49803349D01*
X217720632Y-49794170D01*
X217702219Y-49783134D01*
X217684976Y-49770346D01*
X217669070Y-49755930D01*
X217654654Y-49740024D01*
X217641866Y-49722781D01*
X217630830Y-49704368D01*
X217621651Y-49684962D01*
X217614419Y-49664750D01*
X217609203Y-49643926D01*
X217606053Y-49622691D01*
X217605000Y-49601250D01*
X217605000Y-49163750D01*
X217606053Y-49142309D01*
X217609203Y-49121074D01*
X217614419Y-49100250D01*
X217621651Y-49080038D01*
X217630830Y-49060632D01*
X217641866Y-49042219D01*
X217654654Y-49024976D01*
X217669070Y-49009070D01*
X217684976Y-48994654D01*
X217702219Y-48981866D01*
X217720632Y-48970830D01*
X217740038Y-48961651D01*
X217760250Y-48954419D01*
X217781074Y-48949203D01*
X217802309Y-48946053D01*
X217823750Y-48945000D01*
X218336250Y-48945000D01*
X218357691Y-48946053D01*
G37*
G04 #@! TD.AperFunction*
G04 #@! TA.AperFunction,SMDPad,CuDef*
G36*
X218357691Y-50521053D02*
G01*
X218378926Y-50524203D01*
X218399750Y-50529419D01*
X218419962Y-50536651D01*
X218439368Y-50545830D01*
X218457781Y-50556866D01*
X218475024Y-50569654D01*
X218490930Y-50584070D01*
X218505346Y-50599976D01*
X218518134Y-50617219D01*
X218529170Y-50635632D01*
X218538349Y-50655038D01*
X218545581Y-50675250D01*
X218550797Y-50696074D01*
X218553947Y-50717309D01*
X218555000Y-50738750D01*
X218555000Y-51176250D01*
X218553947Y-51197691D01*
X218550797Y-51218926D01*
X218545581Y-51239750D01*
X218538349Y-51259962D01*
X218529170Y-51279368D01*
X218518134Y-51297781D01*
X218505346Y-51315024D01*
X218490930Y-51330930D01*
X218475024Y-51345346D01*
X218457781Y-51358134D01*
X218439368Y-51369170D01*
X218419962Y-51378349D01*
X218399750Y-51385581D01*
X218378926Y-51390797D01*
X218357691Y-51393947D01*
X218336250Y-51395000D01*
X217823750Y-51395000D01*
X217802309Y-51393947D01*
X217781074Y-51390797D01*
X217760250Y-51385581D01*
X217740038Y-51378349D01*
X217720632Y-51369170D01*
X217702219Y-51358134D01*
X217684976Y-51345346D01*
X217669070Y-51330930D01*
X217654654Y-51315024D01*
X217641866Y-51297781D01*
X217630830Y-51279368D01*
X217621651Y-51259962D01*
X217614419Y-51239750D01*
X217609203Y-51218926D01*
X217606053Y-51197691D01*
X217605000Y-51176250D01*
X217605000Y-50738750D01*
X217606053Y-50717309D01*
X217609203Y-50696074D01*
X217614419Y-50675250D01*
X217621651Y-50655038D01*
X217630830Y-50635632D01*
X217641866Y-50617219D01*
X217654654Y-50599976D01*
X217669070Y-50584070D01*
X217684976Y-50569654D01*
X217702219Y-50556866D01*
X217720632Y-50545830D01*
X217740038Y-50536651D01*
X217760250Y-50529419D01*
X217781074Y-50524203D01*
X217802309Y-50521053D01*
X217823750Y-50520000D01*
X218336250Y-50520000D01*
X218357691Y-50521053D01*
G37*
G04 #@! TD.AperFunction*
D13*
X185500000Y-69000000D03*
D14*
X190500000Y-69000000D03*
D13*
X198500000Y-60000000D03*
D14*
X198500000Y-65000000D03*
D22*
X242500000Y-47500000D03*
X235000000Y-47500000D03*
X227500000Y-47500000D03*
X220000000Y-47500000D03*
X212500000Y-47500000D03*
X205000000Y-47500000D03*
X195000000Y-47500000D03*
X195000000Y-55000000D03*
X205000000Y-67500000D03*
X195000000Y-75000000D03*
X195000000Y-82500000D03*
X195000000Y-90000000D03*
X195000000Y-97500000D03*
X195000000Y-105000000D03*
X195000000Y-112500000D03*
X195000000Y-140000000D03*
X205000000Y-142500000D03*
X212500000Y-142500000D03*
X220000000Y-142500000D03*
X227500000Y-142500000D03*
X235000000Y-142500000D03*
X242500000Y-142500000D03*
X242500000Y-135000000D03*
X242500000Y-127500000D03*
X242500000Y-120000000D03*
X242500000Y-112500000D03*
X242500000Y-105000000D03*
X242500000Y-97500000D03*
X242500000Y-90000000D03*
X242500000Y-82500000D03*
X242500000Y-75000000D03*
X240000000Y-67500000D03*
X232500000Y-67500000D03*
X205000000Y-77500000D03*
X205000000Y-80000000D03*
X202500000Y-85000000D03*
X225000000Y-52500000D03*
X232500000Y-52500000D03*
X240000000Y-52500000D03*
X175000000Y-85000000D03*
X175000000Y-75000000D03*
X175000000Y-65000000D03*
X175000000Y-57500000D03*
X175000000Y-50000000D03*
X175000000Y-92500000D03*
X175000000Y-100000000D03*
X175000000Y-110000000D03*
X175000000Y-117500000D03*
X175000000Y-127500000D03*
X175000000Y-137500000D03*
X180000000Y-142500000D03*
X187500000Y-142500000D03*
X185000000Y-135000000D03*
X182500000Y-125000000D03*
X182500000Y-115000000D03*
X182500000Y-105000000D03*
X182500000Y-95000000D03*
X182500000Y-87500000D03*
X218000000Y-48000000D03*
X182000000Y-69000000D03*
X184000000Y-73000000D03*
X183000000Y-65000000D03*
X194500000Y-58500000D03*
X198500000Y-56500000D03*
X202500000Y-58500000D03*
X181000000Y-80000000D03*
X189500000Y-79500000D03*
D23*
X224412501Y-54350001D02*
X227330000Y-57267500D01*
X223149999Y-53388001D02*
X224111999Y-54350001D01*
X223149999Y-53087499D02*
X223149999Y-53388001D01*
X186957500Y-50957500D02*
X214957500Y-50957500D01*
X221562500Y-51500000D02*
X223149999Y-53087499D01*
X224111999Y-54350001D02*
X224412501Y-54350001D01*
X184500000Y-48500000D02*
X186957500Y-50957500D01*
X227330000Y-57267500D02*
X227330000Y-64350000D01*
X214957500Y-50957500D02*
X215500000Y-51500000D01*
X215500000Y-51500000D02*
X221562500Y-51500000D01*
X222200000Y-89614213D02*
X222200000Y-82200000D01*
X222200000Y-82200000D02*
X222200000Y-78600000D01*
X232750001Y-100250001D02*
X222250000Y-89750000D01*
X234250001Y-100250001D02*
X232750001Y-100250001D01*
X235250000Y-101250000D02*
X234250001Y-100250001D01*
X222250000Y-89750000D02*
X222200000Y-89614213D01*
X216200000Y-78720000D02*
X216200000Y-85200000D01*
X220750000Y-89750000D02*
X222250000Y-89750000D01*
X216200000Y-85200000D02*
X220750000Y-89750000D01*
X222080000Y-78720000D02*
X222200000Y-78600000D01*
X216200000Y-78720000D02*
X222080000Y-78720000D01*
X228320000Y-78600000D02*
X228200000Y-78720000D01*
X233700000Y-78600000D02*
X228320000Y-78600000D01*
X203500000Y-125500000D02*
X207750000Y-121250000D01*
X191000000Y-125500000D02*
X203500000Y-125500000D01*
X191000000Y-110000000D02*
X191000000Y-116500000D01*
X199000000Y-87500000D02*
X191000000Y-87500000D01*
X207750000Y-96250000D02*
X199000000Y-87500000D01*
X216200000Y-70400000D02*
X222250000Y-64350000D01*
X216200000Y-71100000D02*
X216200000Y-70400000D01*
X222250000Y-65500000D02*
X222250000Y-64350000D01*
X228200000Y-71100000D02*
X227850000Y-71100000D01*
X227850000Y-71100000D02*
X222250000Y-65500000D01*
X212600000Y-71100000D02*
X216200000Y-71100000D01*
X205600000Y-71100000D02*
X212600000Y-71100000D01*
X195000000Y-68000000D02*
X202500000Y-68000000D01*
X190500000Y-69000000D02*
X194000000Y-69000000D01*
X194000000Y-69000000D02*
X195000000Y-68000000D01*
X202500000Y-68000000D02*
X205600000Y-71100000D01*
X202000000Y-65000000D02*
X198500000Y-65000000D01*
X202500000Y-65500000D02*
X202000000Y-65000000D01*
X202500000Y-68000000D02*
X202500000Y-65500000D01*
X198500000Y-65000000D02*
X197500000Y-65000000D01*
X195000000Y-67500000D02*
X195000000Y-68000000D01*
X197500000Y-65000000D02*
X195000000Y-67500000D01*
D24*
G36*
X242356775Y-45148147D02*
G01*
X242699967Y-45251763D01*
X243016489Y-45420062D01*
X243294299Y-45646637D01*
X243522806Y-45922856D01*
X243693310Y-46238197D01*
X243799319Y-46580656D01*
X243840000Y-46967712D01*
X243840001Y-141867711D01*
X243801853Y-142256776D01*
X243698238Y-142599964D01*
X243529939Y-142916489D01*
X243303365Y-143194296D01*
X243027146Y-143422805D01*
X242711803Y-143593310D01*
X242369344Y-143699319D01*
X241982288Y-143740000D01*
X177141989Y-143740000D01*
X177144978Y-143737776D01*
X177188950Y-143689113D01*
X177206273Y-143671352D01*
X177216110Y-143659056D01*
X177253998Y-143617126D01*
X177266802Y-143595691D01*
X178743654Y-141749628D01*
X178784668Y-141702973D01*
X178814688Y-141651121D01*
X178847372Y-141600860D01*
X178855361Y-141580871D01*
X178866143Y-141562248D01*
X178885473Y-141505526D01*
X178907720Y-141449863D01*
X178911656Y-141428699D01*
X178918597Y-141408331D01*
X178926492Y-141348917D01*
X178937449Y-141289995D01*
X178937180Y-141268478D01*
X178940016Y-141247139D01*
X178936168Y-141187324D01*
X178935420Y-141127398D01*
X178930958Y-141106342D01*
X178929576Y-141084864D01*
X178914134Y-141026957D01*
X178901708Y-140968322D01*
X178893223Y-140948538D01*
X178887678Y-140927746D01*
X178861244Y-140873980D01*
X178837611Y-140818879D01*
X178825426Y-140801127D01*
X178815934Y-140781820D01*
X178779515Y-140734240D01*
X178745589Y-140684812D01*
X178731905Y-140671466D01*
X179386677Y-139715852D01*
X197615000Y-139715852D01*
X197615000Y-140284148D01*
X197725869Y-140841523D01*
X197943346Y-141366560D01*
X198259074Y-141839080D01*
X198660920Y-142240926D01*
X199133440Y-142556654D01*
X199658477Y-142774131D01*
X200215852Y-142885000D01*
X200784148Y-142885000D01*
X201341523Y-142774131D01*
X201866560Y-142556654D01*
X202339080Y-142240926D01*
X202740926Y-141839080D01*
X203056654Y-141366560D01*
X203274131Y-140841523D01*
X203385000Y-140284148D01*
X203385000Y-139715852D01*
X234615000Y-139715852D01*
X234615000Y-140284148D01*
X234725869Y-140841523D01*
X234943346Y-141366560D01*
X235259074Y-141839080D01*
X235660920Y-142240926D01*
X236133440Y-142556654D01*
X236658477Y-142774131D01*
X237215852Y-142885000D01*
X237784148Y-142885000D01*
X238341523Y-142774131D01*
X238866560Y-142556654D01*
X239339080Y-142240926D01*
X239740926Y-141839080D01*
X240056654Y-141366560D01*
X240274131Y-140841523D01*
X240385000Y-140284148D01*
X240385000Y-139715852D01*
X240274131Y-139158477D01*
X240056654Y-138633440D01*
X239740926Y-138160920D01*
X239339080Y-137759074D01*
X238866560Y-137443346D01*
X238341523Y-137225869D01*
X237784148Y-137115000D01*
X237215852Y-137115000D01*
X236658477Y-137225869D01*
X236133440Y-137443346D01*
X235660920Y-137759074D01*
X235259074Y-138160920D01*
X234943346Y-138633440D01*
X234725869Y-139158477D01*
X234615000Y-139715852D01*
X203385000Y-139715852D01*
X203274131Y-139158477D01*
X203056654Y-138633440D01*
X202740926Y-138160920D01*
X202339080Y-137759074D01*
X201866560Y-137443346D01*
X201341523Y-137225869D01*
X200784148Y-137115000D01*
X200215852Y-137115000D01*
X199658477Y-137225869D01*
X199133440Y-137443346D01*
X198660920Y-137759074D01*
X198259074Y-138160920D01*
X197943346Y-138633440D01*
X197725869Y-139158477D01*
X197615000Y-139715852D01*
X179386677Y-139715852D01*
X182438089Y-135262441D01*
X182449112Y-135250809D01*
X182483965Y-135195486D01*
X182497903Y-135175145D01*
X182505577Y-135161183D01*
X182535789Y-135113227D01*
X182544658Y-135090075D01*
X182556597Y-135068352D01*
X182573684Y-135014303D01*
X182593958Y-134961378D01*
X182598138Y-134936950D01*
X182605613Y-134913306D01*
X182611827Y-134856961D01*
X182621386Y-134801099D01*
X182620720Y-134776314D01*
X182623437Y-134751676D01*
X182618541Y-134695217D01*
X182617018Y-134638548D01*
X182611530Y-134614371D01*
X182609388Y-134589675D01*
X182593568Y-134535247D01*
X182581021Y-134479974D01*
X182570922Y-134457334D01*
X182564003Y-134433528D01*
X182537869Y-134383231D01*
X182514780Y-134331469D01*
X182500459Y-134311235D01*
X182489028Y-134289235D01*
X182453580Y-134244999D01*
X182420839Y-134198739D01*
X182402848Y-134181690D01*
X182387343Y-134162341D01*
X182343940Y-134125866D01*
X182302809Y-134086888D01*
X182281838Y-134073676D01*
X182262856Y-134057724D01*
X182213179Y-134030421D01*
X182165227Y-134000211D01*
X182142080Y-133991344D01*
X182120352Y-133979402D01*
X182066295Y-133962313D01*
X182013378Y-133942042D01*
X181988950Y-133937862D01*
X181965305Y-133930387D01*
X181908952Y-133924173D01*
X181893264Y-133921488D01*
X181868694Y-133919733D01*
X181803676Y-133912563D01*
X181787705Y-133913948D01*
X179903114Y-133779334D01*
X183925926Y-128951961D01*
X183954679Y-128923697D01*
X183977853Y-128889648D01*
X183978128Y-128889319D01*
X184000502Y-128856373D01*
X184046174Y-128789270D01*
X184046345Y-128788868D01*
X184046589Y-128788508D01*
X184078263Y-128713637D01*
X184109685Y-128639577D01*
X184109773Y-128639156D01*
X184109945Y-128638748D01*
X184126438Y-128558966D01*
X184142773Y-128480369D01*
X184142777Y-128479933D01*
X184142865Y-128479506D01*
X184143473Y-128398583D01*
X184144165Y-128317766D01*
X184144084Y-128317338D01*
X184144087Y-128316901D01*
X184128959Y-128237745D01*
X184113809Y-128158015D01*
X184113644Y-128157607D01*
X184113563Y-128157183D01*
X184083390Y-128082761D01*
X184052869Y-128007256D01*
X184052629Y-128006890D01*
X184052466Y-128006488D01*
X184007786Y-127938519D01*
X183963688Y-127871284D01*
X183963387Y-127870978D01*
X183963144Y-127870608D01*
X183905832Y-127812428D01*
X183849695Y-127755321D01*
X183849336Y-127755077D01*
X183849029Y-127754765D01*
X183782076Y-127709297D01*
X183715269Y-127663826D01*
X183714867Y-127663655D01*
X183714507Y-127663411D01*
X183639460Y-127631663D01*
X183565575Y-127600315D01*
X183565155Y-127600228D01*
X183564747Y-127600055D01*
X183484778Y-127583523D01*
X183406368Y-127567227D01*
X183405933Y-127567223D01*
X183405506Y-127567135D01*
X183324574Y-127566527D01*
X183243765Y-127565835D01*
X183243337Y-127565916D01*
X183242901Y-127565913D01*
X183163833Y-127581024D01*
X183084014Y-127596191D01*
X183083606Y-127596356D01*
X183083182Y-127596437D01*
X183008351Y-127626776D01*
X182933255Y-127657131D01*
X182932893Y-127657368D01*
X182932487Y-127657533D01*
X182864465Y-127702249D01*
X182831357Y-127723963D01*
X182831025Y-127724231D01*
X182796607Y-127746856D01*
X182767882Y-127775153D01*
X180612512Y-129513355D01*
X180695249Y-129078983D01*
X180709119Y-129024361D01*
X180712555Y-128958729D01*
X180718467Y-128893259D01*
X180716801Y-128877643D01*
X180717621Y-128861974D01*
X180708189Y-128796944D01*
X180701213Y-128731567D01*
X180696534Y-128716582D01*
X180694281Y-128701048D01*
X180672340Y-128639097D01*
X180652747Y-128576349D01*
X180645234Y-128562563D01*
X180639994Y-128547769D01*
X180606386Y-128491284D01*
X180574930Y-128433567D01*
X180564875Y-128421517D01*
X180556848Y-128408025D01*
X180512849Y-128359164D01*
X180470753Y-128308712D01*
X180458543Y-128298857D01*
X180448035Y-128287187D01*
X180395364Y-128247860D01*
X180344221Y-128206578D01*
X180330314Y-128199289D01*
X180317739Y-128189900D01*
X180258415Y-128161607D01*
X180200194Y-128131093D01*
X180185138Y-128126659D01*
X180170968Y-128119901D01*
X180107253Y-128103723D01*
X180044208Y-128085156D01*
X180028575Y-128083744D01*
X180013360Y-128079881D01*
X179947734Y-128076445D01*
X179882258Y-128070533D01*
X179866642Y-128072199D01*
X179850973Y-128071379D01*
X179785944Y-128080811D01*
X179720566Y-128087787D01*
X179705580Y-128092466D01*
X179690048Y-128094719D01*
X179628101Y-128116659D01*
X179565348Y-128136253D01*
X179551562Y-128143766D01*
X179536768Y-128149006D01*
X179480276Y-128182618D01*
X179422567Y-128214070D01*
X179410519Y-128224123D01*
X179397024Y-128232152D01*
X179348151Y-128276162D01*
X179297712Y-128318247D01*
X179287859Y-128330453D01*
X179276186Y-128340965D01*
X179236847Y-128393652D01*
X179195578Y-128444779D01*
X179169424Y-128494681D01*
X175149103Y-135153341D01*
X175135301Y-135170158D01*
X175107148Y-135222828D01*
X175097359Y-135239041D01*
X175088059Y-135258540D01*
X175058647Y-135313566D01*
X175053109Y-135331821D01*
X175044901Y-135349032D01*
X175029552Y-135409479D01*
X175011444Y-135469174D01*
X175009574Y-135488156D01*
X175004881Y-135506640D01*
X175001620Y-135568919D01*
X174995506Y-135631000D01*
X174997376Y-135649986D01*
X174996379Y-135669026D01*
X175005328Y-135730728D01*
X175011444Y-135792826D01*
X175016983Y-135811085D01*
X175019719Y-135829951D01*
X175040532Y-135888718D01*
X175058647Y-135948434D01*
X175067642Y-135965262D01*
X175074006Y-135983231D01*
X175105891Y-136036820D01*
X175135301Y-136091842D01*
X175147400Y-136106585D01*
X175157152Y-136122975D01*
X175198887Y-136169322D01*
X175238459Y-136217541D01*
X175253204Y-136229642D01*
X175265965Y-136243813D01*
X175315936Y-136281124D01*
X175364158Y-136320699D01*
X175380982Y-136329692D01*
X175396261Y-136341100D01*
X175452545Y-136367943D01*
X175507566Y-136397353D01*
X175525821Y-136402891D01*
X175543032Y-136411099D01*
X175603479Y-136426448D01*
X175663174Y-136444556D01*
X175682156Y-136446426D01*
X175700640Y-136451119D01*
X175762919Y-136454380D01*
X175784447Y-136456500D01*
X175803416Y-136456500D01*
X175863026Y-136459621D01*
X175884545Y-136456500D01*
X178553313Y-136456500D01*
X176950443Y-139662241D01*
X176933570Y-139658911D01*
X176914339Y-139652063D01*
X176853954Y-139643198D01*
X176794071Y-139631380D01*
X176773656Y-139631411D01*
X176753455Y-139628445D01*
X176692492Y-139631532D01*
X176631463Y-139631623D01*
X176611447Y-139635635D01*
X176591054Y-139636668D01*
X176531867Y-139651588D01*
X176472026Y-139663584D01*
X176453176Y-139671425D01*
X176433377Y-139676416D01*
X176378238Y-139702597D01*
X176321887Y-139726037D01*
X176304928Y-139737406D01*
X176286486Y-139746162D01*
X176237517Y-139782594D01*
X176186818Y-139816580D01*
X176172403Y-139831037D01*
X176156022Y-139843225D01*
X176115108Y-139888504D01*
X176072007Y-139931733D01*
X176060686Y-139948731D01*
X176047002Y-139963875D01*
X176015705Y-140016270D01*
X175981869Y-140067073D01*
X175974085Y-140085944D01*
X175963614Y-140103474D01*
X175943138Y-140160972D01*
X175919865Y-140217397D01*
X175915911Y-140237430D01*
X175909063Y-140256661D01*
X175900199Y-140317042D01*
X175888380Y-140376929D01*
X175888471Y-140437977D01*
X175765115Y-143028460D01*
X175760550Y-143053006D01*
X175761255Y-143109505D01*
X175760506Y-143125242D01*
X175761761Y-143150037D01*
X175762580Y-143215602D01*
X175765866Y-143231108D01*
X175766668Y-143246945D01*
X175782702Y-143310550D01*
X175796292Y-143374678D01*
X175802539Y-143389243D01*
X175806416Y-143404623D01*
X175834544Y-143463862D01*
X175860389Y-143524121D01*
X175869364Y-143537196D01*
X175876162Y-143551514D01*
X175915297Y-143604116D01*
X175952411Y-143658188D01*
X175963760Y-143669257D01*
X175973224Y-143681978D01*
X176007634Y-143713071D01*
X175893224Y-143701853D01*
X175550036Y-143598238D01*
X175233511Y-143429939D01*
X174955704Y-143203365D01*
X174727195Y-142927146D01*
X174556690Y-142611803D01*
X174450681Y-142269344D01*
X174410000Y-141882288D01*
X174410000Y-125500000D01*
X189105880Y-125500000D01*
X189111488Y-125556939D01*
X189111488Y-126750440D01*
X189123748Y-126874922D01*
X189160058Y-126994620D01*
X189219023Y-127104934D01*
X189298375Y-127201625D01*
X189395066Y-127280977D01*
X189505380Y-127339942D01*
X189625078Y-127376252D01*
X189749560Y-127388512D01*
X192250440Y-127388512D01*
X192286099Y-127385000D01*
X203407411Y-127385000D01*
X203500000Y-127394119D01*
X203592589Y-127385000D01*
X203592597Y-127385000D01*
X203869524Y-127357725D01*
X204224848Y-127249939D01*
X204552317Y-127074903D01*
X204839345Y-126839345D01*
X204898374Y-126767418D01*
X209148372Y-122517421D01*
X209324903Y-122302317D01*
X209499938Y-121974849D01*
X209607725Y-121619524D01*
X209644120Y-121250000D01*
X209628260Y-121088967D01*
X233615000Y-121088967D01*
X233615000Y-121411033D01*
X233677832Y-121726912D01*
X233801082Y-122024463D01*
X233980013Y-122292252D01*
X234207748Y-122519987D01*
X234475537Y-122698918D01*
X234773088Y-122822168D01*
X235088967Y-122885000D01*
X235411033Y-122885000D01*
X235726912Y-122822168D01*
X236024463Y-122698918D01*
X236292252Y-122519987D01*
X236519987Y-122292252D01*
X236698918Y-122024463D01*
X236822168Y-121726912D01*
X236885000Y-121411033D01*
X236885000Y-121088967D01*
X236822168Y-120773088D01*
X236698918Y-120475537D01*
X236519987Y-120207748D01*
X236292252Y-119980013D01*
X236024463Y-119801082D01*
X235726912Y-119677832D01*
X235411033Y-119615000D01*
X235088967Y-119615000D01*
X234773088Y-119677832D01*
X234475537Y-119801082D01*
X234207748Y-119980013D01*
X233980013Y-120207748D01*
X233801082Y-120475537D01*
X233677832Y-120773088D01*
X233615000Y-121088967D01*
X209628260Y-121088967D01*
X209607725Y-120880476D01*
X209499938Y-120525151D01*
X209324903Y-120197683D01*
X209089345Y-119910655D01*
X208802317Y-119675097D01*
X208474849Y-119500062D01*
X208119524Y-119392275D01*
X207750000Y-119355880D01*
X207380476Y-119392275D01*
X207025151Y-119500062D01*
X206697683Y-119675097D01*
X206482579Y-119851628D01*
X202719208Y-123615000D01*
X192286099Y-123615000D01*
X192250440Y-123611488D01*
X189749560Y-123611488D01*
X189625078Y-123623748D01*
X189505380Y-123660058D01*
X189395066Y-123719023D01*
X189298375Y-123798375D01*
X189219023Y-123895066D01*
X189160058Y-124005380D01*
X189123748Y-124125078D01*
X189111488Y-124249560D01*
X189111488Y-125443061D01*
X189105880Y-125500000D01*
X174410000Y-125500000D01*
X174410000Y-120950656D01*
X184342753Y-120950656D01*
X184343171Y-121010472D01*
X184342753Y-121070288D01*
X184343652Y-121079460D01*
X184374252Y-121370605D01*
X184386283Y-121429217D01*
X184397489Y-121487963D01*
X184400153Y-121496784D01*
X184486721Y-121776440D01*
X184509899Y-121831578D01*
X184532311Y-121887050D01*
X184536638Y-121895186D01*
X184675877Y-122152702D01*
X184709304Y-122202259D01*
X184742080Y-122252347D01*
X184747905Y-122259488D01*
X184934510Y-122485056D01*
X184976965Y-122527215D01*
X185018809Y-122569945D01*
X185025909Y-122575819D01*
X185252773Y-122760845D01*
X185302566Y-122793927D01*
X185351955Y-122827745D01*
X185360061Y-122832127D01*
X185618542Y-122969564D01*
X185673836Y-122992355D01*
X185728829Y-123015925D01*
X185737632Y-123018650D01*
X186017887Y-123103264D01*
X186076564Y-123114882D01*
X186135079Y-123127320D01*
X186144242Y-123128283D01*
X186144244Y-123128283D01*
X186435596Y-123156850D01*
X186435598Y-123156850D01*
X186467581Y-123160000D01*
X196532419Y-123160000D01*
X196565884Y-123156704D01*
X196585349Y-123156704D01*
X196594514Y-123155741D01*
X196885438Y-123123108D01*
X196943941Y-123110672D01*
X197002629Y-123099052D01*
X197011432Y-123096327D01*
X197290476Y-123007809D01*
X197345412Y-122984263D01*
X197400764Y-122961449D01*
X197408870Y-122957065D01*
X197665408Y-122816032D01*
X197714753Y-122782245D01*
X197764591Y-122749133D01*
X197771691Y-122743259D01*
X197995949Y-122555084D01*
X198037793Y-122512354D01*
X198080248Y-122470195D01*
X198086072Y-122463053D01*
X198269509Y-122234903D01*
X198302251Y-122184869D01*
X198335714Y-122135258D01*
X198340040Y-122127122D01*
X198475670Y-121867687D01*
X198498082Y-121812215D01*
X198521260Y-121757077D01*
X198523923Y-121748255D01*
X198606578Y-121467417D01*
X198617785Y-121408669D01*
X198629816Y-121350059D01*
X198630715Y-121340888D01*
X198657247Y-121049344D01*
X198656829Y-120989528D01*
X198657247Y-120929712D01*
X198656348Y-120920541D01*
X198625748Y-120629395D01*
X198613710Y-120570753D01*
X198602510Y-120512037D01*
X198599847Y-120503216D01*
X198513279Y-120223560D01*
X198490101Y-120168422D01*
X198467689Y-120112950D01*
X198463362Y-120104814D01*
X198324123Y-119847298D01*
X198290701Y-119797749D01*
X198257920Y-119747653D01*
X198252095Y-119740512D01*
X198065490Y-119514945D01*
X198023054Y-119472804D01*
X197981191Y-119430055D01*
X197974091Y-119424181D01*
X197747227Y-119239155D01*
X197697408Y-119206055D01*
X197648045Y-119172256D01*
X197639939Y-119167873D01*
X197381458Y-119030436D01*
X197326164Y-119007645D01*
X197271171Y-118984075D01*
X197262368Y-118981350D01*
X196982114Y-118896736D01*
X196923429Y-118885116D01*
X196864921Y-118872680D01*
X196855758Y-118871717D01*
X196855756Y-118871717D01*
X196564404Y-118843150D01*
X196564402Y-118843150D01*
X196532419Y-118840000D01*
X186467581Y-118840000D01*
X186434116Y-118843296D01*
X186414651Y-118843296D01*
X186405486Y-118844259D01*
X186114561Y-118876892D01*
X186056044Y-118889331D01*
X185997371Y-118900948D01*
X185988568Y-118903673D01*
X185709523Y-118992191D01*
X185654588Y-119015737D01*
X185599235Y-119038551D01*
X185591129Y-119042935D01*
X185334592Y-119183968D01*
X185285247Y-119217755D01*
X185235409Y-119250867D01*
X185228309Y-119256741D01*
X185004051Y-119444916D01*
X184962207Y-119487646D01*
X184919751Y-119529806D01*
X184913927Y-119536947D01*
X184730491Y-119765097D01*
X184697744Y-119815139D01*
X184664286Y-119864742D01*
X184659960Y-119872879D01*
X184524330Y-120132313D01*
X184501918Y-120187785D01*
X184478740Y-120242923D01*
X184476077Y-120251745D01*
X184393422Y-120532583D01*
X184382224Y-120591284D01*
X184370184Y-120649940D01*
X184369285Y-120659112D01*
X184342753Y-120950656D01*
X174410000Y-120950656D01*
X174410000Y-109789721D01*
X188865000Y-109789721D01*
X188865000Y-110210279D01*
X188947047Y-110622756D01*
X189107988Y-111011302D01*
X189115000Y-111021796D01*
X189115001Y-115213893D01*
X189111488Y-115249560D01*
X189111488Y-117750440D01*
X189123748Y-117874922D01*
X189160058Y-117994620D01*
X189219023Y-118104934D01*
X189298375Y-118201625D01*
X189395066Y-118280977D01*
X189505380Y-118339942D01*
X189625078Y-118376252D01*
X189749560Y-118388512D01*
X190943061Y-118388512D01*
X191000000Y-118394120D01*
X191056939Y-118388512D01*
X192250440Y-118388512D01*
X192374922Y-118376252D01*
X192494620Y-118339942D01*
X192604934Y-118280977D01*
X192701625Y-118201625D01*
X192780977Y-118104934D01*
X192839942Y-117994620D01*
X192876252Y-117874922D01*
X192888512Y-117750440D01*
X192888512Y-116088967D01*
X206115000Y-116088967D01*
X206115000Y-116411033D01*
X206177832Y-116726912D01*
X206301082Y-117024463D01*
X206480013Y-117292252D01*
X206707748Y-117519987D01*
X206975537Y-117698918D01*
X207273088Y-117822168D01*
X207588967Y-117885000D01*
X207911033Y-117885000D01*
X208226912Y-117822168D01*
X208524463Y-117698918D01*
X208792252Y-117519987D01*
X209019987Y-117292252D01*
X209198918Y-117024463D01*
X209322168Y-116726912D01*
X209385000Y-116411033D01*
X209385000Y-116088967D01*
X233615000Y-116088967D01*
X233615000Y-116411033D01*
X233677832Y-116726912D01*
X233801082Y-117024463D01*
X233980013Y-117292252D01*
X234207748Y-117519987D01*
X234475537Y-117698918D01*
X234773088Y-117822168D01*
X235088967Y-117885000D01*
X235411033Y-117885000D01*
X235726912Y-117822168D01*
X236024463Y-117698918D01*
X236292252Y-117519987D01*
X236519987Y-117292252D01*
X236698918Y-117024463D01*
X236822168Y-116726912D01*
X236885000Y-116411033D01*
X236885000Y-116088967D01*
X236822168Y-115773088D01*
X236698918Y-115475537D01*
X236519987Y-115207748D01*
X236292252Y-114980013D01*
X236024463Y-114801082D01*
X235726912Y-114677832D01*
X235411033Y-114615000D01*
X235088967Y-114615000D01*
X234773088Y-114677832D01*
X234475537Y-114801082D01*
X234207748Y-114980013D01*
X233980013Y-115207748D01*
X233801082Y-115475537D01*
X233677832Y-115773088D01*
X233615000Y-116088967D01*
X209385000Y-116088967D01*
X209322168Y-115773088D01*
X209198918Y-115475537D01*
X209019987Y-115207748D01*
X208792252Y-114980013D01*
X208524463Y-114801082D01*
X208226912Y-114677832D01*
X207911033Y-114615000D01*
X207588967Y-114615000D01*
X207273088Y-114677832D01*
X206975537Y-114801082D01*
X206707748Y-114980013D01*
X206480013Y-115207748D01*
X206301082Y-115475537D01*
X206177832Y-115773088D01*
X206115000Y-116088967D01*
X192888512Y-116088967D01*
X192888512Y-115249560D01*
X192885000Y-115213901D01*
X192885000Y-111088967D01*
X233615000Y-111088967D01*
X233615000Y-111411033D01*
X233677832Y-111726912D01*
X233801082Y-112024463D01*
X233980013Y-112292252D01*
X234207748Y-112519987D01*
X234475537Y-112698918D01*
X234773088Y-112822168D01*
X235088967Y-112885000D01*
X235411033Y-112885000D01*
X235726912Y-112822168D01*
X236024463Y-112698918D01*
X236292252Y-112519987D01*
X236519987Y-112292252D01*
X236698918Y-112024463D01*
X236822168Y-111726912D01*
X236885000Y-111411033D01*
X236885000Y-111088967D01*
X236822168Y-110773088D01*
X236698918Y-110475537D01*
X236519987Y-110207748D01*
X236292252Y-109980013D01*
X236024463Y-109801082D01*
X235726912Y-109677832D01*
X235411033Y-109615000D01*
X235088967Y-109615000D01*
X234773088Y-109677832D01*
X234475537Y-109801082D01*
X234207748Y-109980013D01*
X233980013Y-110207748D01*
X233801082Y-110475537D01*
X233677832Y-110773088D01*
X233615000Y-111088967D01*
X192885000Y-111088967D01*
X192885000Y-111021796D01*
X192892012Y-111011302D01*
X193052953Y-110622756D01*
X193135000Y-110210279D01*
X193135000Y-109789721D01*
X193052953Y-109377244D01*
X192892012Y-108988698D01*
X192658363Y-108639017D01*
X192360983Y-108341637D01*
X192011302Y-108107988D01*
X191622756Y-107947047D01*
X191210279Y-107865000D01*
X190789721Y-107865000D01*
X190377244Y-107947047D01*
X189988698Y-108107988D01*
X189639017Y-108341637D01*
X189341637Y-108639017D01*
X189107988Y-108988698D01*
X188947047Y-109377244D01*
X188865000Y-109789721D01*
X174410000Y-109789721D01*
X174410000Y-106088967D01*
X233615000Y-106088967D01*
X233615000Y-106411033D01*
X233677832Y-106726912D01*
X233801082Y-107024463D01*
X233980013Y-107292252D01*
X234207748Y-107519987D01*
X234475537Y-107698918D01*
X234773088Y-107822168D01*
X235088967Y-107885000D01*
X235411033Y-107885000D01*
X235726912Y-107822168D01*
X236024463Y-107698918D01*
X236292252Y-107519987D01*
X236519987Y-107292252D01*
X236698918Y-107024463D01*
X236822168Y-106726912D01*
X236885000Y-106411033D01*
X236885000Y-106088967D01*
X236822168Y-105773088D01*
X236698918Y-105475537D01*
X236519987Y-105207748D01*
X236292252Y-104980013D01*
X236024463Y-104801082D01*
X235726912Y-104677832D01*
X235411033Y-104615000D01*
X235088967Y-104615000D01*
X234773088Y-104677832D01*
X234475537Y-104801082D01*
X234207748Y-104980013D01*
X233980013Y-105207748D01*
X233801082Y-105475537D01*
X233677832Y-105773088D01*
X233615000Y-106088967D01*
X174410000Y-106088967D01*
X174410000Y-101088967D01*
X206115000Y-101088967D01*
X206115000Y-101411033D01*
X206177832Y-101726912D01*
X206301082Y-102024463D01*
X206480013Y-102292252D01*
X206707748Y-102519987D01*
X206975537Y-102698918D01*
X207273088Y-102822168D01*
X207588967Y-102885000D01*
X207911033Y-102885000D01*
X208226912Y-102822168D01*
X208524463Y-102698918D01*
X208792252Y-102519987D01*
X209019987Y-102292252D01*
X209198918Y-102024463D01*
X209322168Y-101726912D01*
X209385000Y-101411033D01*
X209385000Y-101088967D01*
X209322168Y-100773088D01*
X209198918Y-100475537D01*
X209019987Y-100207748D01*
X208792252Y-99980013D01*
X208524463Y-99801082D01*
X208226912Y-99677832D01*
X207911033Y-99615000D01*
X207588967Y-99615000D01*
X207273088Y-99677832D01*
X206975537Y-99801082D01*
X206707748Y-99980013D01*
X206480013Y-100207748D01*
X206301082Y-100475537D01*
X206177832Y-100773088D01*
X206115000Y-101088967D01*
X174410000Y-101088967D01*
X174410000Y-98554495D01*
X189015000Y-98554495D01*
X189015000Y-98945505D01*
X189091282Y-99329003D01*
X189240915Y-99690250D01*
X189458149Y-100015364D01*
X189734636Y-100291851D01*
X190059750Y-100509085D01*
X190420997Y-100658718D01*
X190804495Y-100735000D01*
X191195505Y-100735000D01*
X191579003Y-100658718D01*
X191940250Y-100509085D01*
X192265364Y-100291851D01*
X192541851Y-100015364D01*
X192759085Y-99690250D01*
X192908718Y-99329003D01*
X192985000Y-98945505D01*
X192985000Y-98554495D01*
X192908718Y-98170997D01*
X192759085Y-97809750D01*
X192541851Y-97484636D01*
X192265364Y-97208149D01*
X191940250Y-96990915D01*
X191579003Y-96841282D01*
X191195505Y-96765000D01*
X190804495Y-96765000D01*
X190420997Y-96841282D01*
X190059750Y-96990915D01*
X189734636Y-97208149D01*
X189458149Y-97484636D01*
X189240915Y-97809750D01*
X189091282Y-98170997D01*
X189015000Y-98554495D01*
X174410000Y-98554495D01*
X174410000Y-87289721D01*
X188865000Y-87289721D01*
X188865000Y-87710279D01*
X188947047Y-88122756D01*
X189107988Y-88511302D01*
X189341637Y-88860983D01*
X189639017Y-89158363D01*
X189988698Y-89392012D01*
X190377244Y-89552953D01*
X190789721Y-89635000D01*
X191210279Y-89635000D01*
X191622756Y-89552953D01*
X192011302Y-89392012D01*
X192021796Y-89385000D01*
X198219208Y-89385000D01*
X206114956Y-97280749D01*
X206124188Y-97374482D01*
X206160498Y-97494180D01*
X206219463Y-97604494D01*
X206298815Y-97701185D01*
X206395506Y-97780537D01*
X206505820Y-97839502D01*
X206625518Y-97875812D01*
X206750000Y-97888072D01*
X206815864Y-97888072D01*
X207025151Y-97999938D01*
X207380476Y-98107725D01*
X207750000Y-98144120D01*
X208119524Y-98107725D01*
X208474849Y-97999938D01*
X208684136Y-97888072D01*
X208750000Y-97888072D01*
X208874482Y-97875812D01*
X208994180Y-97839502D01*
X209104494Y-97780537D01*
X209201185Y-97701185D01*
X209280537Y-97604494D01*
X209339502Y-97494180D01*
X209375812Y-97374482D01*
X209388072Y-97250000D01*
X209388072Y-97184136D01*
X209499938Y-96974849D01*
X209607725Y-96619524D01*
X209644120Y-96250000D01*
X209607725Y-95880476D01*
X209499938Y-95525151D01*
X209388072Y-95315864D01*
X209388072Y-95250000D01*
X209375812Y-95125518D01*
X209339502Y-95005820D01*
X209280537Y-94895506D01*
X209201185Y-94798815D01*
X209104494Y-94719463D01*
X208994180Y-94660498D01*
X208874482Y-94624188D01*
X208780749Y-94614956D01*
X200398374Y-86232582D01*
X200339345Y-86160655D01*
X200052317Y-85925097D01*
X199724848Y-85750061D01*
X199369524Y-85642275D01*
X199092597Y-85615000D01*
X199092589Y-85615000D01*
X199000000Y-85605881D01*
X198907411Y-85615000D01*
X192021796Y-85615000D01*
X192011302Y-85607988D01*
X191622756Y-85447047D01*
X191210279Y-85365000D01*
X190789721Y-85365000D01*
X190377244Y-85447047D01*
X189988698Y-85607988D01*
X189639017Y-85841637D01*
X189341637Y-86139017D01*
X189107988Y-86488698D01*
X188947047Y-86877244D01*
X188865000Y-87289721D01*
X174410000Y-87289721D01*
X174410000Y-78720000D01*
X214305880Y-78720000D01*
X214315000Y-78812597D01*
X214315001Y-85107401D01*
X214305881Y-85200000D01*
X214342275Y-85569524D01*
X214450062Y-85924848D01*
X214625098Y-86252317D01*
X214801628Y-86467420D01*
X214801631Y-86467423D01*
X214860656Y-86539345D01*
X214932577Y-86598369D01*
X219351630Y-91017423D01*
X219410655Y-91089345D01*
X219482577Y-91148370D01*
X219482579Y-91148372D01*
X219697683Y-91324903D01*
X220025152Y-91499939D01*
X220327032Y-91591513D01*
X220380476Y-91607725D01*
X220750000Y-91644120D01*
X220842597Y-91635000D01*
X221469208Y-91635000D01*
X231351631Y-101517424D01*
X231410656Y-101589346D01*
X231482578Y-101648371D01*
X231482580Y-101648373D01*
X231548980Y-101702865D01*
X231697684Y-101824904D01*
X232025153Y-101999940D01*
X232380477Y-102107726D01*
X232657404Y-102135001D01*
X232657412Y-102135001D01*
X232750001Y-102144120D01*
X232842590Y-102135001D01*
X233469209Y-102135001D01*
X233982580Y-102648372D01*
X234197683Y-102824902D01*
X234525151Y-102999938D01*
X234880475Y-103107724D01*
X235249999Y-103144119D01*
X235619523Y-103107724D01*
X235974848Y-102999938D01*
X236302316Y-102824902D01*
X236589344Y-102589344D01*
X236824902Y-102302316D01*
X236999938Y-101974848D01*
X237107724Y-101619523D01*
X237144119Y-101249999D01*
X237107724Y-100880475D01*
X236999938Y-100525151D01*
X236824902Y-100197683D01*
X236648372Y-99982580D01*
X235648375Y-98982583D01*
X235589346Y-98910656D01*
X235302318Y-98675098D01*
X234974849Y-98500062D01*
X234619525Y-98392276D01*
X234342598Y-98365001D01*
X234342590Y-98365001D01*
X234250001Y-98355882D01*
X234157412Y-98365001D01*
X233530794Y-98365001D01*
X231254760Y-96088967D01*
X233615000Y-96088967D01*
X233615000Y-96411033D01*
X233677832Y-96726912D01*
X233801082Y-97024463D01*
X233980013Y-97292252D01*
X234207748Y-97519987D01*
X234475537Y-97698918D01*
X234773088Y-97822168D01*
X235088967Y-97885000D01*
X235411033Y-97885000D01*
X235726912Y-97822168D01*
X236024463Y-97698918D01*
X236292252Y-97519987D01*
X236519987Y-97292252D01*
X236698918Y-97024463D01*
X236822168Y-96726912D01*
X236885000Y-96411033D01*
X236885000Y-96088967D01*
X236822168Y-95773088D01*
X236698918Y-95475537D01*
X236519987Y-95207748D01*
X236292252Y-94980013D01*
X236024463Y-94801082D01*
X235726912Y-94677832D01*
X235411033Y-94615000D01*
X235088967Y-94615000D01*
X234773088Y-94677832D01*
X234475537Y-94801082D01*
X234207748Y-94980013D01*
X233980013Y-95207748D01*
X233801082Y-95475537D01*
X233677832Y-95773088D01*
X233615000Y-96088967D01*
X231254760Y-96088967D01*
X224085000Y-88919208D01*
X224085000Y-78720000D01*
X226305881Y-78720000D01*
X226342275Y-79089524D01*
X226450062Y-79444848D01*
X226625098Y-79772317D01*
X226860655Y-80059345D01*
X227147683Y-80294902D01*
X227475152Y-80469938D01*
X227830476Y-80577725D01*
X228200000Y-80614119D01*
X228569524Y-80577725D01*
X228875196Y-80485000D01*
X233792597Y-80485000D01*
X234069524Y-80457725D01*
X234424848Y-80349939D01*
X234447050Y-80338072D01*
X234800000Y-80338072D01*
X234924482Y-80325812D01*
X235044180Y-80289502D01*
X235154494Y-80230537D01*
X235251185Y-80151185D01*
X235330537Y-80054494D01*
X235389502Y-79944180D01*
X235425812Y-79824482D01*
X235438072Y-79700000D01*
X235438072Y-79347050D01*
X235449939Y-79324848D01*
X235557725Y-78969524D01*
X235594120Y-78600000D01*
X235557725Y-78230476D01*
X235449939Y-77875152D01*
X235438072Y-77852950D01*
X235438072Y-77500000D01*
X235425812Y-77375518D01*
X235389502Y-77255820D01*
X235330537Y-77145506D01*
X235251185Y-77048815D01*
X235154494Y-76969463D01*
X235044180Y-76910498D01*
X234924482Y-76874188D01*
X234800000Y-76861928D01*
X234447050Y-76861928D01*
X234424848Y-76850061D01*
X234069524Y-76742275D01*
X233792597Y-76715000D01*
X228412597Y-76715000D01*
X228320000Y-76705880D01*
X228227403Y-76715000D01*
X227950476Y-76742275D01*
X227595152Y-76850061D01*
X227267683Y-77025097D01*
X226980655Y-77260655D01*
X226921626Y-77332582D01*
X226801628Y-77452580D01*
X226625098Y-77667683D01*
X226450062Y-77995152D01*
X226342275Y-78350476D01*
X226305881Y-78720000D01*
X224085000Y-78720000D01*
X224085000Y-78692597D01*
X224094120Y-78600000D01*
X224057725Y-78230476D01*
X223949939Y-77875152D01*
X223938072Y-77852950D01*
X223938072Y-77500000D01*
X223925812Y-77375518D01*
X223889502Y-77255820D01*
X223830537Y-77145506D01*
X223751185Y-77048815D01*
X223654494Y-76969463D01*
X223544180Y-76910498D01*
X223424482Y-76874188D01*
X223300000Y-76861928D01*
X222947050Y-76861928D01*
X222924848Y-76850061D01*
X222569524Y-76742275D01*
X222200000Y-76705880D01*
X221830477Y-76742275D01*
X221524803Y-76835000D01*
X216292597Y-76835000D01*
X216200000Y-76825880D01*
X216107403Y-76835000D01*
X215830476Y-76862275D01*
X215475152Y-76970061D01*
X215147683Y-77145097D01*
X214860655Y-77380655D01*
X214625097Y-77667683D01*
X214450061Y-77995152D01*
X214342275Y-78350476D01*
X214305880Y-78720000D01*
X174410000Y-78720000D01*
X174410000Y-70135413D01*
X184544192Y-70135413D01*
X184639956Y-70399814D01*
X184929571Y-70540704D01*
X185241108Y-70622384D01*
X185562595Y-70641718D01*
X185881675Y-70597961D01*
X186186088Y-70492795D01*
X186360044Y-70399814D01*
X186455808Y-70135413D01*
X185500000Y-69179605D01*
X184544192Y-70135413D01*
X174410000Y-70135413D01*
X174410000Y-69062595D01*
X183858282Y-69062595D01*
X183902039Y-69381675D01*
X184007205Y-69686088D01*
X184100186Y-69860044D01*
X184364587Y-69955808D01*
X185320395Y-69000000D01*
X185679605Y-69000000D01*
X186635413Y-69955808D01*
X186899814Y-69860044D01*
X187040704Y-69570429D01*
X187122384Y-69258892D01*
X187141718Y-68937405D01*
X187097961Y-68618325D01*
X186992795Y-68313912D01*
X186899814Y-68139956D01*
X186635413Y-68044192D01*
X185679605Y-69000000D01*
X185320395Y-69000000D01*
X184364587Y-68044192D01*
X184100186Y-68139956D01*
X183959296Y-68429571D01*
X183877616Y-68741108D01*
X183858282Y-69062595D01*
X174410000Y-69062595D01*
X174410000Y-64715852D01*
X176115000Y-64715852D01*
X176115000Y-65284148D01*
X176225869Y-65841523D01*
X176443346Y-66366560D01*
X176759074Y-66839080D01*
X177160920Y-67240926D01*
X177633440Y-67556654D01*
X178158477Y-67774131D01*
X178715852Y-67885000D01*
X179284148Y-67885000D01*
X179386770Y-67864587D01*
X184544192Y-67864587D01*
X185500000Y-68820395D01*
X186455808Y-67864587D01*
X186360044Y-67600186D01*
X186070429Y-67459296D01*
X185758892Y-67377616D01*
X185437405Y-67358282D01*
X185118325Y-67402039D01*
X184813912Y-67507205D01*
X184639956Y-67600186D01*
X184544192Y-67864587D01*
X179386770Y-67864587D01*
X179841523Y-67774131D01*
X180366560Y-67556654D01*
X180839080Y-67240926D01*
X181240926Y-66839080D01*
X181556654Y-66366560D01*
X181774131Y-65841523D01*
X181885000Y-65284148D01*
X181885000Y-64715852D01*
X181774131Y-64158477D01*
X181556654Y-63633440D01*
X181240926Y-63160920D01*
X180839080Y-62759074D01*
X180366560Y-62443346D01*
X179841523Y-62225869D01*
X179284148Y-62115000D01*
X178715852Y-62115000D01*
X178158477Y-62225869D01*
X177633440Y-62443346D01*
X177160920Y-62759074D01*
X176759074Y-63160920D01*
X176443346Y-63633440D01*
X176225869Y-64158477D01*
X176115000Y-64715852D01*
X174410000Y-64715852D01*
X174410000Y-61135413D01*
X197544192Y-61135413D01*
X197639956Y-61399814D01*
X197929571Y-61540704D01*
X198241108Y-61622384D01*
X198562595Y-61641718D01*
X198881675Y-61597961D01*
X199186088Y-61492795D01*
X199360044Y-61399814D01*
X199455808Y-61135413D01*
X198500000Y-60179605D01*
X197544192Y-61135413D01*
X174410000Y-61135413D01*
X174410000Y-60062595D01*
X196858282Y-60062595D01*
X196902039Y-60381675D01*
X197007205Y-60686088D01*
X197100186Y-60860044D01*
X197364587Y-60955808D01*
X198320395Y-60000000D01*
X198679605Y-60000000D01*
X199635413Y-60955808D01*
X199899814Y-60860044D01*
X200040704Y-60570429D01*
X200122384Y-60258892D01*
X200141718Y-59937405D01*
X200101206Y-59641984D01*
X208465000Y-59641984D01*
X208465000Y-60358016D01*
X208604691Y-61060290D01*
X208878705Y-61721818D01*
X209276511Y-62317177D01*
X209782823Y-62823489D01*
X210378182Y-63221295D01*
X211039710Y-63495309D01*
X211741984Y-63635000D01*
X212458016Y-63635000D01*
X213160290Y-63495309D01*
X213821818Y-63221295D01*
X214417177Y-62823489D01*
X214923489Y-62317177D01*
X215321295Y-61721818D01*
X215595309Y-61060290D01*
X215735000Y-60358016D01*
X215735000Y-59641984D01*
X215595309Y-58939710D01*
X215321295Y-58278182D01*
X214923489Y-57682823D01*
X214417177Y-57176511D01*
X213821818Y-56778705D01*
X213160290Y-56504691D01*
X212458016Y-56365000D01*
X211741984Y-56365000D01*
X211039710Y-56504691D01*
X210378182Y-56778705D01*
X209782823Y-57176511D01*
X209276511Y-57682823D01*
X208878705Y-58278182D01*
X208604691Y-58939710D01*
X208465000Y-59641984D01*
X200101206Y-59641984D01*
X200097961Y-59618325D01*
X199992795Y-59313912D01*
X199899814Y-59139956D01*
X199635413Y-59044192D01*
X198679605Y-60000000D01*
X198320395Y-60000000D01*
X197364587Y-59044192D01*
X197100186Y-59139956D01*
X196959296Y-59429571D01*
X196877616Y-59741108D01*
X196858282Y-60062595D01*
X174410000Y-60062595D01*
X174410000Y-58750440D01*
X182611488Y-58750440D01*
X182623748Y-58874922D01*
X182660058Y-58994620D01*
X182719023Y-59104934D01*
X182798375Y-59201625D01*
X182895066Y-59280977D01*
X183005380Y-59339942D01*
X183125078Y-59376252D01*
X183249560Y-59388512D01*
X184214250Y-59385440D01*
X184373000Y-59226690D01*
X184373000Y-57627000D01*
X184627000Y-57627000D01*
X184627000Y-59226690D01*
X184785750Y-59385440D01*
X185750440Y-59388512D01*
X185874922Y-59376252D01*
X185994620Y-59339942D01*
X186104934Y-59280977D01*
X186201625Y-59201625D01*
X186280977Y-59104934D01*
X186339942Y-58994620D01*
X186376252Y-58874922D01*
X186377269Y-58864587D01*
X197544192Y-58864587D01*
X198500000Y-59820395D01*
X199455808Y-58864587D01*
X199360044Y-58600186D01*
X199070429Y-58459296D01*
X198758892Y-58377616D01*
X198437405Y-58358282D01*
X198118325Y-58402039D01*
X197813912Y-58507205D01*
X197639956Y-58600186D01*
X197544192Y-58864587D01*
X186377269Y-58864587D01*
X186388512Y-58750440D01*
X186385440Y-57785750D01*
X186226690Y-57627000D01*
X184627000Y-57627000D01*
X184373000Y-57627000D01*
X182773310Y-57627000D01*
X182614560Y-57785750D01*
X182611488Y-58750440D01*
X174410000Y-58750440D01*
X174410000Y-56249560D01*
X182611488Y-56249560D01*
X182614560Y-57214250D01*
X182773310Y-57373000D01*
X184373000Y-57373000D01*
X184373000Y-55773310D01*
X184627000Y-55773310D01*
X184627000Y-57373000D01*
X186226690Y-57373000D01*
X186385440Y-57214250D01*
X186388512Y-56249560D01*
X186376252Y-56125078D01*
X186339942Y-56005380D01*
X186280977Y-55895066D01*
X186201625Y-55798375D01*
X186104934Y-55719023D01*
X185994620Y-55660058D01*
X185874922Y-55623748D01*
X185750440Y-55611488D01*
X184785750Y-55614560D01*
X184627000Y-55773310D01*
X184373000Y-55773310D01*
X184214250Y-55614560D01*
X183249560Y-55611488D01*
X183125078Y-55623748D01*
X183005380Y-55660058D01*
X182895066Y-55719023D01*
X182798375Y-55798375D01*
X182719023Y-55895066D01*
X182660058Y-56005380D01*
X182623748Y-56125078D01*
X182611488Y-56249560D01*
X174410000Y-56249560D01*
X174410000Y-48500000D01*
X182605881Y-48500000D01*
X182611488Y-48556930D01*
X182611488Y-49750440D01*
X182623748Y-49874922D01*
X182660058Y-49994620D01*
X182719023Y-50104934D01*
X182798375Y-50201625D01*
X182895066Y-50280977D01*
X183005380Y-50339942D01*
X183125078Y-50376252D01*
X183249560Y-50388512D01*
X183722720Y-50388512D01*
X185559130Y-52224923D01*
X185618155Y-52296845D01*
X185690077Y-52355870D01*
X185690079Y-52355872D01*
X185698341Y-52362652D01*
X185905183Y-52532403D01*
X186232652Y-52707439D01*
X186587976Y-52815225D01*
X186864903Y-52842500D01*
X186864911Y-52842500D01*
X186957500Y-52851619D01*
X187050089Y-52842500D01*
X214164499Y-52842500D01*
X214447683Y-53074903D01*
X214775152Y-53249939D01*
X215047776Y-53332638D01*
X215130475Y-53357725D01*
X215162662Y-53360895D01*
X215407403Y-53385000D01*
X215407411Y-53385000D01*
X215500000Y-53394119D01*
X215592589Y-53385000D01*
X220781708Y-53385000D01*
X221352382Y-53955674D01*
X221400060Y-54112849D01*
X221575096Y-54440318D01*
X221810654Y-54727346D01*
X221882582Y-54786376D01*
X222713621Y-55617414D01*
X222772654Y-55689346D01*
X223059682Y-55924904D01*
X223387151Y-56099940D01*
X223544326Y-56147618D01*
X225445000Y-58048293D01*
X225445001Y-62863700D01*
X225381094Y-62830429D01*
X225162980Y-62759437D01*
X224917000Y-62879406D01*
X224917000Y-64223000D01*
X224937000Y-64223000D01*
X224937000Y-64477000D01*
X224917000Y-64477000D01*
X224917000Y-64497000D01*
X224663000Y-64497000D01*
X224663000Y-64477000D01*
X224643000Y-64477000D01*
X224643000Y-64223000D01*
X224663000Y-64223000D01*
X224663000Y-62879406D01*
X224417020Y-62759437D01*
X224198906Y-62830429D01*
X223923077Y-62974031D01*
X223782059Y-63087219D01*
X223733037Y-62995506D01*
X223653685Y-62898815D01*
X223556994Y-62819463D01*
X223446680Y-62760498D01*
X223326982Y-62724188D01*
X223202500Y-62711928D01*
X223184136Y-62711928D01*
X222974848Y-62600061D01*
X222619524Y-62492275D01*
X222250000Y-62455880D01*
X221946739Y-62485749D01*
X221880475Y-62492275D01*
X221664903Y-62557668D01*
X221525153Y-62600061D01*
X221525151Y-62600062D01*
X221315865Y-62711928D01*
X221297500Y-62711928D01*
X221173018Y-62724188D01*
X221053320Y-62760498D01*
X220943006Y-62819463D01*
X220846315Y-62898815D01*
X220766963Y-62995506D01*
X220707998Y-63105820D01*
X220671688Y-63225518D01*
X220667646Y-63266561D01*
X214932577Y-69001631D01*
X214860656Y-69060655D01*
X214733988Y-69215000D01*
X206380793Y-69215000D01*
X204385000Y-67219208D01*
X204385000Y-65592596D01*
X204394120Y-65500000D01*
X204357725Y-65130476D01*
X204320557Y-65007949D01*
X204249939Y-64775152D01*
X204074903Y-64447683D01*
X203839345Y-64160655D01*
X203767418Y-64101626D01*
X203398374Y-63732582D01*
X203339345Y-63660655D01*
X203052317Y-63425097D01*
X202724848Y-63250061D01*
X202369524Y-63142275D01*
X202092597Y-63115000D01*
X202092589Y-63115000D01*
X202000000Y-63105881D01*
X201907411Y-63115000D01*
X197592589Y-63115000D01*
X197500000Y-63105881D01*
X197407411Y-63115000D01*
X197407403Y-63115000D01*
X197162662Y-63139105D01*
X197130475Y-63142275D01*
X197024122Y-63174537D01*
X196775152Y-63250061D01*
X196447683Y-63425097D01*
X196362130Y-63495309D01*
X196232579Y-63601628D01*
X196232577Y-63601630D01*
X196160655Y-63660655D01*
X196101630Y-63732577D01*
X193732582Y-66101626D01*
X193660655Y-66160655D01*
X193425097Y-66447683D01*
X193250061Y-66775153D01*
X193146970Y-67115000D01*
X190407403Y-67115000D01*
X190130476Y-67142275D01*
X189775152Y-67250061D01*
X189565864Y-67361928D01*
X189500000Y-67361928D01*
X189375518Y-67374188D01*
X189255820Y-67410498D01*
X189145506Y-67469463D01*
X189048815Y-67548815D01*
X188969463Y-67645506D01*
X188910498Y-67755820D01*
X188874188Y-67875518D01*
X188861928Y-68000000D01*
X188861928Y-68065864D01*
X188750061Y-68275152D01*
X188642275Y-68630476D01*
X188605880Y-69000000D01*
X188642275Y-69369524D01*
X188750061Y-69724848D01*
X188861928Y-69934136D01*
X188861928Y-70000000D01*
X188874188Y-70124482D01*
X188910498Y-70244180D01*
X188969463Y-70354494D01*
X189048815Y-70451185D01*
X189145506Y-70530537D01*
X189255820Y-70589502D01*
X189375518Y-70625812D01*
X189500000Y-70638072D01*
X189565864Y-70638072D01*
X189775152Y-70749939D01*
X190130476Y-70857725D01*
X190407403Y-70885000D01*
X193907411Y-70885000D01*
X194000000Y-70894119D01*
X194092589Y-70885000D01*
X194092597Y-70885000D01*
X194369524Y-70857725D01*
X194724848Y-70749939D01*
X195052317Y-70574903D01*
X195339345Y-70339345D01*
X195398374Y-70267418D01*
X195780792Y-69885000D01*
X198534994Y-69885000D01*
X198259074Y-70160920D01*
X197943346Y-70633440D01*
X197725869Y-71158477D01*
X197615000Y-71715852D01*
X197615000Y-72284148D01*
X197725869Y-72841523D01*
X197943346Y-73366560D01*
X198259074Y-73839080D01*
X198660920Y-74240926D01*
X199133440Y-74556654D01*
X199658477Y-74774131D01*
X200215852Y-74885000D01*
X200784148Y-74885000D01*
X201341523Y-74774131D01*
X201866560Y-74556654D01*
X202339080Y-74240926D01*
X202740926Y-73839080D01*
X203056654Y-73366560D01*
X203274131Y-72841523D01*
X203385000Y-72284148D01*
X203385000Y-71715852D01*
X203344015Y-71509808D01*
X204201630Y-72367423D01*
X204260655Y-72439345D01*
X204332577Y-72498370D01*
X204332579Y-72498372D01*
X204396859Y-72551125D01*
X204547683Y-72674903D01*
X204875152Y-72849939D01*
X205122689Y-72925028D01*
X205230475Y-72957725D01*
X205265732Y-72961197D01*
X205507403Y-72985000D01*
X205507410Y-72985000D01*
X205599999Y-72994119D01*
X205692588Y-72985000D01*
X216107403Y-72985000D01*
X216200000Y-72994120D01*
X216292597Y-72985000D01*
X216569524Y-72957725D01*
X216924848Y-72849939D01*
X216947050Y-72838072D01*
X217300000Y-72838072D01*
X217424482Y-72825812D01*
X217544180Y-72789502D01*
X217654494Y-72730537D01*
X217751185Y-72651185D01*
X217830537Y-72554494D01*
X217889502Y-72444180D01*
X217925812Y-72324482D01*
X217938072Y-72200000D01*
X217938072Y-71847050D01*
X217949939Y-71824848D01*
X218057725Y-71469524D01*
X218066924Y-71376123D01*
X220510821Y-71376123D01*
X220620558Y-71698054D01*
X220790992Y-71992391D01*
X221015573Y-72247822D01*
X221285671Y-72454531D01*
X221590906Y-72604575D01*
X221803878Y-72669175D01*
X222073000Y-72551125D01*
X222073000Y-71107000D01*
X222327000Y-71107000D01*
X222327000Y-72551125D01*
X222596122Y-72669175D01*
X222809094Y-72604575D01*
X223114329Y-72454531D01*
X223384427Y-72247822D01*
X223609008Y-71992391D01*
X223779442Y-71698054D01*
X223889179Y-71376123D01*
X223771600Y-71107000D01*
X222327000Y-71107000D01*
X222073000Y-71107000D01*
X220628400Y-71107000D01*
X220510821Y-71376123D01*
X218066924Y-71376123D01*
X218086290Y-71179502D01*
X218681915Y-70583877D01*
X220510821Y-70583877D01*
X220628400Y-70853000D01*
X222073000Y-70853000D01*
X222073000Y-69408875D01*
X222327000Y-69408875D01*
X222327000Y-70853000D01*
X223771600Y-70853000D01*
X223889179Y-70583877D01*
X223779442Y-70261946D01*
X223609008Y-69967609D01*
X223384427Y-69712178D01*
X223114329Y-69505469D01*
X222809094Y-69355425D01*
X222596122Y-69290825D01*
X222327000Y-69408875D01*
X222073000Y-69408875D01*
X221803878Y-69290825D01*
X221590906Y-69355425D01*
X221285671Y-69505469D01*
X221015573Y-69712178D01*
X220790992Y-69967609D01*
X220620558Y-70261946D01*
X220510821Y-70583877D01*
X218681915Y-70583877D01*
X221675000Y-67590792D01*
X226451630Y-72367423D01*
X226508079Y-72436206D01*
X226510498Y-72444180D01*
X226569463Y-72554494D01*
X226648815Y-72651185D01*
X226745506Y-72730537D01*
X226855820Y-72789502D01*
X226975518Y-72825812D01*
X227100000Y-72838072D01*
X227102950Y-72838072D01*
X227125152Y-72849939D01*
X227372689Y-72925028D01*
X227480475Y-72957725D01*
X227512662Y-72960895D01*
X227757403Y-72985000D01*
X227757411Y-72985000D01*
X227850000Y-72994119D01*
X227942589Y-72985000D01*
X228292597Y-72985000D01*
X228569524Y-72957725D01*
X228924848Y-72849939D01*
X228947050Y-72838072D01*
X229300000Y-72838072D01*
X229424482Y-72825812D01*
X229544180Y-72789502D01*
X229654494Y-72730537D01*
X229751185Y-72651185D01*
X229830537Y-72554494D01*
X229889502Y-72444180D01*
X229925812Y-72324482D01*
X229938072Y-72200000D01*
X229938072Y-71847050D01*
X229949939Y-71824848D01*
X230057725Y-71469524D01*
X230066924Y-71376123D01*
X232010821Y-71376123D01*
X232120558Y-71698054D01*
X232290992Y-71992391D01*
X232515573Y-72247822D01*
X232785671Y-72454531D01*
X233090906Y-72604575D01*
X233303878Y-72669175D01*
X233573000Y-72551125D01*
X233573000Y-71107000D01*
X233827000Y-71107000D01*
X233827000Y-72551125D01*
X234096122Y-72669175D01*
X234309094Y-72604575D01*
X234614329Y-72454531D01*
X234884427Y-72247822D01*
X235109008Y-71992391D01*
X235279442Y-71698054D01*
X235389179Y-71376123D01*
X235271600Y-71107000D01*
X233827000Y-71107000D01*
X233573000Y-71107000D01*
X232128400Y-71107000D01*
X232010821Y-71376123D01*
X230066924Y-71376123D01*
X230094120Y-71100000D01*
X230057725Y-70730476D01*
X230013255Y-70583877D01*
X232010821Y-70583877D01*
X232128400Y-70853000D01*
X233573000Y-70853000D01*
X233573000Y-69408875D01*
X233827000Y-69408875D01*
X233827000Y-70853000D01*
X235271600Y-70853000D01*
X235389179Y-70583877D01*
X235279442Y-70261946D01*
X235109008Y-69967609D01*
X234884427Y-69712178D01*
X234614329Y-69505469D01*
X234309094Y-69355425D01*
X234096122Y-69290825D01*
X233827000Y-69408875D01*
X233573000Y-69408875D01*
X233303878Y-69290825D01*
X233090906Y-69355425D01*
X232785671Y-69505469D01*
X232515573Y-69712178D01*
X232290992Y-69967609D01*
X232120558Y-70261946D01*
X232010821Y-70583877D01*
X230013255Y-70583877D01*
X229949939Y-70375152D01*
X229938072Y-70352950D01*
X229938072Y-70000000D01*
X229925812Y-69875518D01*
X229889502Y-69755820D01*
X229830537Y-69645506D01*
X229751185Y-69548815D01*
X229654494Y-69469463D01*
X229544180Y-69410498D01*
X229424482Y-69374188D01*
X229300000Y-69361928D01*
X228947050Y-69361928D01*
X228924848Y-69350061D01*
X228696623Y-69280830D01*
X225308871Y-65893078D01*
X225381094Y-65869571D01*
X225656923Y-65725969D01*
X225876243Y-65549932D01*
X225990656Y-65689345D01*
X226277684Y-65924903D01*
X226605153Y-66099939D01*
X226960477Y-66207725D01*
X227330000Y-66244120D01*
X227699524Y-66207725D01*
X228054848Y-66099939D01*
X228382317Y-65924903D01*
X228669345Y-65689345D01*
X228904903Y-65402317D01*
X229079939Y-65074848D01*
X229187725Y-64719524D01*
X229215000Y-64442597D01*
X229215000Y-59641984D01*
X233865000Y-59641984D01*
X233865000Y-60358016D01*
X234004691Y-61060290D01*
X234278705Y-61721818D01*
X234676511Y-62317177D01*
X235182823Y-62823489D01*
X235778182Y-63221295D01*
X236439710Y-63495309D01*
X237141984Y-63635000D01*
X237858016Y-63635000D01*
X238560290Y-63495309D01*
X239221818Y-63221295D01*
X239817177Y-62823489D01*
X240323489Y-62317177D01*
X240721295Y-61721818D01*
X240995309Y-61060290D01*
X241135000Y-60358016D01*
X241135000Y-59641984D01*
X240995309Y-58939710D01*
X240721295Y-58278182D01*
X240323489Y-57682823D01*
X239817177Y-57176511D01*
X239221818Y-56778705D01*
X238560290Y-56504691D01*
X237858016Y-56365000D01*
X237141984Y-56365000D01*
X236439710Y-56504691D01*
X235778182Y-56778705D01*
X235182823Y-57176511D01*
X234676511Y-57682823D01*
X234278705Y-58278182D01*
X234004691Y-58939710D01*
X233865000Y-59641984D01*
X229215000Y-59641984D01*
X229215000Y-57360097D01*
X229224120Y-57267500D01*
X229187725Y-56897976D01*
X229079939Y-56542652D01*
X228904903Y-56215183D01*
X228830956Y-56125078D01*
X228728372Y-56000079D01*
X228728370Y-56000077D01*
X228669345Y-55928155D01*
X228597423Y-55869130D01*
X225810873Y-53082581D01*
X225751846Y-53010656D01*
X225464818Y-52775098D01*
X225137349Y-52600062D01*
X224980173Y-52552383D01*
X224947617Y-52519827D01*
X224899938Y-52362651D01*
X224724902Y-52035182D01*
X224709659Y-52016608D01*
X224548371Y-51820078D01*
X224548369Y-51820076D01*
X224489344Y-51748154D01*
X224417422Y-51689129D01*
X222960872Y-50232580D01*
X222901845Y-50160655D01*
X222614817Y-49925097D01*
X222287348Y-49750061D01*
X221932024Y-49642275D01*
X221655097Y-49615000D01*
X221655089Y-49615000D01*
X221562500Y-49605881D01*
X221536678Y-49608424D01*
X221535000Y-49498250D01*
X221376250Y-49339500D01*
X220327000Y-49339500D01*
X220327000Y-49359500D01*
X220073000Y-49359500D01*
X220073000Y-49339500D01*
X220053000Y-49339500D01*
X220053000Y-49085500D01*
X220073000Y-49085500D01*
X220073000Y-48248750D01*
X220327000Y-48248750D01*
X220327000Y-49085500D01*
X221376250Y-49085500D01*
X221535000Y-48926750D01*
X221538072Y-48725000D01*
X221525812Y-48600518D01*
X221489502Y-48480820D01*
X221430537Y-48370506D01*
X221351185Y-48273815D01*
X221254494Y-48194463D01*
X221144180Y-48135498D01*
X221024482Y-48099188D01*
X220900000Y-48086928D01*
X220485750Y-48090000D01*
X220327000Y-48248750D01*
X220073000Y-48248750D01*
X219914250Y-48090000D01*
X219500000Y-48086928D01*
X219375518Y-48099188D01*
X219255820Y-48135498D01*
X219145506Y-48194463D01*
X219048815Y-48273815D01*
X218969463Y-48370506D01*
X218934846Y-48435269D01*
X218909494Y-48414463D01*
X218799180Y-48355498D01*
X218679482Y-48319188D01*
X218555000Y-48306928D01*
X218365750Y-48310000D01*
X218207000Y-48468750D01*
X218207000Y-49255500D01*
X218227000Y-49255500D01*
X218227000Y-49509500D01*
X218207000Y-49509500D01*
X218207000Y-49529500D01*
X217953000Y-49529500D01*
X217953000Y-49509500D01*
X217128750Y-49509500D01*
X217023250Y-49615000D01*
X216293001Y-49615000D01*
X216009817Y-49382597D01*
X215682348Y-49207561D01*
X215327024Y-49099775D01*
X215050097Y-49072500D01*
X215050089Y-49072500D01*
X214957500Y-49063381D01*
X214864911Y-49072500D01*
X187738293Y-49072500D01*
X187610793Y-48945000D01*
X216966928Y-48945000D01*
X216970000Y-49096750D01*
X217128750Y-49255500D01*
X217953000Y-49255500D01*
X217953000Y-48468750D01*
X217794250Y-48310000D01*
X217605000Y-48306928D01*
X217480518Y-48319188D01*
X217360820Y-48355498D01*
X217250506Y-48414463D01*
X217153815Y-48493815D01*
X217074463Y-48590506D01*
X217015498Y-48700820D01*
X216979188Y-48820518D01*
X216966928Y-48945000D01*
X187610793Y-48945000D01*
X186388512Y-47722720D01*
X186388512Y-47715852D01*
X236115000Y-47715852D01*
X236115000Y-48284148D01*
X236225869Y-48841523D01*
X236443346Y-49366560D01*
X236759074Y-49839080D01*
X237160920Y-50240926D01*
X237633440Y-50556654D01*
X238158477Y-50774131D01*
X238715852Y-50885000D01*
X239284148Y-50885000D01*
X239841523Y-50774131D01*
X240366560Y-50556654D01*
X240839080Y-50240926D01*
X241240926Y-49839080D01*
X241556654Y-49366560D01*
X241774131Y-48841523D01*
X241885000Y-48284148D01*
X241885000Y-47715852D01*
X241774131Y-47158477D01*
X241556654Y-46633440D01*
X241240926Y-46160920D01*
X240839080Y-45759074D01*
X240366560Y-45443346D01*
X239841523Y-45225869D01*
X239284148Y-45115000D01*
X238715852Y-45115000D01*
X238158477Y-45225869D01*
X237633440Y-45443346D01*
X237160920Y-45759074D01*
X236759074Y-46160920D01*
X236443346Y-46633440D01*
X236225869Y-47158477D01*
X236115000Y-47715852D01*
X186388512Y-47715852D01*
X186388512Y-47249560D01*
X186376252Y-47125078D01*
X186339942Y-47005380D01*
X186280977Y-46895066D01*
X186201625Y-46798375D01*
X186104934Y-46719023D01*
X185994620Y-46660058D01*
X185874922Y-46623748D01*
X185750440Y-46611488D01*
X184556930Y-46611488D01*
X184500000Y-46605881D01*
X184443070Y-46611488D01*
X183249560Y-46611488D01*
X183125078Y-46623748D01*
X183005380Y-46660058D01*
X182895066Y-46719023D01*
X182798375Y-46798375D01*
X182719023Y-46895066D01*
X182660058Y-47005380D01*
X182623748Y-47125078D01*
X182611488Y-47249560D01*
X182611488Y-48443070D01*
X182605881Y-48500000D01*
X174410000Y-48500000D01*
X174410000Y-46982279D01*
X174448147Y-46593225D01*
X174551763Y-46250033D01*
X174720062Y-45933511D01*
X174946637Y-45655701D01*
X175222856Y-45427194D01*
X175538197Y-45256690D01*
X175880656Y-45150681D01*
X176267712Y-45110000D01*
X241967721Y-45110000D01*
X242356775Y-45148147D01*
G37*
X242356775Y-45148147D02*
X242699967Y-45251763D01*
X243016489Y-45420062D01*
X243294299Y-45646637D01*
X243522806Y-45922856D01*
X243693310Y-46238197D01*
X243799319Y-46580656D01*
X243840000Y-46967712D01*
X243840001Y-141867711D01*
X243801853Y-142256776D01*
X243698238Y-142599964D01*
X243529939Y-142916489D01*
X243303365Y-143194296D01*
X243027146Y-143422805D01*
X242711803Y-143593310D01*
X242369344Y-143699319D01*
X241982288Y-143740000D01*
X177141989Y-143740000D01*
X177144978Y-143737776D01*
X177188950Y-143689113D01*
X177206273Y-143671352D01*
X177216110Y-143659056D01*
X177253998Y-143617126D01*
X177266802Y-143595691D01*
X178743654Y-141749628D01*
X178784668Y-141702973D01*
X178814688Y-141651121D01*
X178847372Y-141600860D01*
X178855361Y-141580871D01*
X178866143Y-141562248D01*
X178885473Y-141505526D01*
X178907720Y-141449863D01*
X178911656Y-141428699D01*
X178918597Y-141408331D01*
X178926492Y-141348917D01*
X178937449Y-141289995D01*
X178937180Y-141268478D01*
X178940016Y-141247139D01*
X178936168Y-141187324D01*
X178935420Y-141127398D01*
X178930958Y-141106342D01*
X178929576Y-141084864D01*
X178914134Y-141026957D01*
X178901708Y-140968322D01*
X178893223Y-140948538D01*
X178887678Y-140927746D01*
X178861244Y-140873980D01*
X178837611Y-140818879D01*
X178825426Y-140801127D01*
X178815934Y-140781820D01*
X178779515Y-140734240D01*
X178745589Y-140684812D01*
X178731905Y-140671466D01*
X179386677Y-139715852D01*
X197615000Y-139715852D01*
X197615000Y-140284148D01*
X197725869Y-140841523D01*
X197943346Y-141366560D01*
X198259074Y-141839080D01*
X198660920Y-142240926D01*
X199133440Y-142556654D01*
X199658477Y-142774131D01*
X200215852Y-142885000D01*
X200784148Y-142885000D01*
X201341523Y-142774131D01*
X201866560Y-142556654D01*
X202339080Y-142240926D01*
X202740926Y-141839080D01*
X203056654Y-141366560D01*
X203274131Y-140841523D01*
X203385000Y-140284148D01*
X203385000Y-139715852D01*
X234615000Y-139715852D01*
X234615000Y-140284148D01*
X234725869Y-140841523D01*
X234943346Y-141366560D01*
X235259074Y-141839080D01*
X235660920Y-142240926D01*
X236133440Y-142556654D01*
X236658477Y-142774131D01*
X237215852Y-142885000D01*
X237784148Y-142885000D01*
X238341523Y-142774131D01*
X238866560Y-142556654D01*
X239339080Y-142240926D01*
X239740926Y-141839080D01*
X240056654Y-141366560D01*
X240274131Y-140841523D01*
X240385000Y-140284148D01*
X240385000Y-139715852D01*
X240274131Y-139158477D01*
X240056654Y-138633440D01*
X239740926Y-138160920D01*
X239339080Y-137759074D01*
X238866560Y-137443346D01*
X238341523Y-137225869D01*
X237784148Y-137115000D01*
X237215852Y-137115000D01*
X236658477Y-137225869D01*
X236133440Y-137443346D01*
X235660920Y-137759074D01*
X235259074Y-138160920D01*
X234943346Y-138633440D01*
X234725869Y-139158477D01*
X234615000Y-139715852D01*
X203385000Y-139715852D01*
X203274131Y-139158477D01*
X203056654Y-138633440D01*
X202740926Y-138160920D01*
X202339080Y-137759074D01*
X201866560Y-137443346D01*
X201341523Y-137225869D01*
X200784148Y-137115000D01*
X200215852Y-137115000D01*
X199658477Y-137225869D01*
X199133440Y-137443346D01*
X198660920Y-137759074D01*
X198259074Y-138160920D01*
X197943346Y-138633440D01*
X197725869Y-139158477D01*
X197615000Y-139715852D01*
X179386677Y-139715852D01*
X182438089Y-135262441D01*
X182449112Y-135250809D01*
X182483965Y-135195486D01*
X182497903Y-135175145D01*
X182505577Y-135161183D01*
X182535789Y-135113227D01*
X182544658Y-135090075D01*
X182556597Y-135068352D01*
X182573684Y-135014303D01*
X182593958Y-134961378D01*
X182598138Y-134936950D01*
X182605613Y-134913306D01*
X182611827Y-134856961D01*
X182621386Y-134801099D01*
X182620720Y-134776314D01*
X182623437Y-134751676D01*
X182618541Y-134695217D01*
X182617018Y-134638548D01*
X182611530Y-134614371D01*
X182609388Y-134589675D01*
X182593568Y-134535247D01*
X182581021Y-134479974D01*
X182570922Y-134457334D01*
X182564003Y-134433528D01*
X182537869Y-134383231D01*
X182514780Y-134331469D01*
X182500459Y-134311235D01*
X182489028Y-134289235D01*
X182453580Y-134244999D01*
X182420839Y-134198739D01*
X182402848Y-134181690D01*
X182387343Y-134162341D01*
X182343940Y-134125866D01*
X182302809Y-134086888D01*
X182281838Y-134073676D01*
X182262856Y-134057724D01*
X182213179Y-134030421D01*
X182165227Y-134000211D01*
X182142080Y-133991344D01*
X182120352Y-133979402D01*
X182066295Y-133962313D01*
X182013378Y-133942042D01*
X181988950Y-133937862D01*
X181965305Y-133930387D01*
X181908952Y-133924173D01*
X181893264Y-133921488D01*
X181868694Y-133919733D01*
X181803676Y-133912563D01*
X181787705Y-133913948D01*
X179903114Y-133779334D01*
X183925926Y-128951961D01*
X183954679Y-128923697D01*
X183977853Y-128889648D01*
X183978128Y-128889319D01*
X184000502Y-128856373D01*
X184046174Y-128789270D01*
X184046345Y-128788868D01*
X184046589Y-128788508D01*
X184078263Y-128713637D01*
X184109685Y-128639577D01*
X184109773Y-128639156D01*
X184109945Y-128638748D01*
X184126438Y-128558966D01*
X184142773Y-128480369D01*
X184142777Y-128479933D01*
X184142865Y-128479506D01*
X184143473Y-128398583D01*
X184144165Y-128317766D01*
X184144084Y-128317338D01*
X184144087Y-128316901D01*
X184128959Y-128237745D01*
X184113809Y-128158015D01*
X184113644Y-128157607D01*
X184113563Y-128157183D01*
X184083390Y-128082761D01*
X184052869Y-128007256D01*
X184052629Y-128006890D01*
X184052466Y-128006488D01*
X184007786Y-127938519D01*
X183963688Y-127871284D01*
X183963387Y-127870978D01*
X183963144Y-127870608D01*
X183905832Y-127812428D01*
X183849695Y-127755321D01*
X183849336Y-127755077D01*
X183849029Y-127754765D01*
X183782076Y-127709297D01*
X183715269Y-127663826D01*
X183714867Y-127663655D01*
X183714507Y-127663411D01*
X183639460Y-127631663D01*
X183565575Y-127600315D01*
X183565155Y-127600228D01*
X183564747Y-127600055D01*
X183484778Y-127583523D01*
X183406368Y-127567227D01*
X183405933Y-127567223D01*
X183405506Y-127567135D01*
X183324574Y-127566527D01*
X183243765Y-127565835D01*
X183243337Y-127565916D01*
X183242901Y-127565913D01*
X183163833Y-127581024D01*
X183084014Y-127596191D01*
X183083606Y-127596356D01*
X183083182Y-127596437D01*
X183008351Y-127626776D01*
X182933255Y-127657131D01*
X182932893Y-127657368D01*
X182932487Y-127657533D01*
X182864465Y-127702249D01*
X182831357Y-127723963D01*
X182831025Y-127724231D01*
X182796607Y-127746856D01*
X182767882Y-127775153D01*
X180612512Y-129513355D01*
X180695249Y-129078983D01*
X180709119Y-129024361D01*
X180712555Y-128958729D01*
X180718467Y-128893259D01*
X180716801Y-128877643D01*
X180717621Y-128861974D01*
X180708189Y-128796944D01*
X180701213Y-128731567D01*
X180696534Y-128716582D01*
X180694281Y-128701048D01*
X180672340Y-128639097D01*
X180652747Y-128576349D01*
X180645234Y-128562563D01*
X180639994Y-128547769D01*
X180606386Y-128491284D01*
X180574930Y-128433567D01*
X180564875Y-128421517D01*
X180556848Y-128408025D01*
X180512849Y-128359164D01*
X180470753Y-128308712D01*
X180458543Y-128298857D01*
X180448035Y-128287187D01*
X180395364Y-128247860D01*
X180344221Y-128206578D01*
X180330314Y-128199289D01*
X180317739Y-128189900D01*
X180258415Y-128161607D01*
X180200194Y-128131093D01*
X180185138Y-128126659D01*
X180170968Y-128119901D01*
X180107253Y-128103723D01*
X180044208Y-128085156D01*
X180028575Y-128083744D01*
X180013360Y-128079881D01*
X179947734Y-128076445D01*
X179882258Y-128070533D01*
X179866642Y-128072199D01*
X179850973Y-128071379D01*
X179785944Y-128080811D01*
X179720566Y-128087787D01*
X179705580Y-128092466D01*
X179690048Y-128094719D01*
X179628101Y-128116659D01*
X179565348Y-128136253D01*
X179551562Y-128143766D01*
X179536768Y-128149006D01*
X179480276Y-128182618D01*
X179422567Y-128214070D01*
X179410519Y-128224123D01*
X179397024Y-128232152D01*
X179348151Y-128276162D01*
X179297712Y-128318247D01*
X179287859Y-128330453D01*
X179276186Y-128340965D01*
X179236847Y-128393652D01*
X179195578Y-128444779D01*
X179169424Y-128494681D01*
X175149103Y-135153341D01*
X175135301Y-135170158D01*
X175107148Y-135222828D01*
X175097359Y-135239041D01*
X175088059Y-135258540D01*
X175058647Y-135313566D01*
X175053109Y-135331821D01*
X175044901Y-135349032D01*
X175029552Y-135409479D01*
X175011444Y-135469174D01*
X175009574Y-135488156D01*
X175004881Y-135506640D01*
X175001620Y-135568919D01*
X174995506Y-135631000D01*
X174997376Y-135649986D01*
X174996379Y-135669026D01*
X175005328Y-135730728D01*
X175011444Y-135792826D01*
X175016983Y-135811085D01*
X175019719Y-135829951D01*
X175040532Y-135888718D01*
X175058647Y-135948434D01*
X175067642Y-135965262D01*
X175074006Y-135983231D01*
X175105891Y-136036820D01*
X175135301Y-136091842D01*
X175147400Y-136106585D01*
X175157152Y-136122975D01*
X175198887Y-136169322D01*
X175238459Y-136217541D01*
X175253204Y-136229642D01*
X175265965Y-136243813D01*
X175315936Y-136281124D01*
X175364158Y-136320699D01*
X175380982Y-136329692D01*
X175396261Y-136341100D01*
X175452545Y-136367943D01*
X175507566Y-136397353D01*
X175525821Y-136402891D01*
X175543032Y-136411099D01*
X175603479Y-136426448D01*
X175663174Y-136444556D01*
X175682156Y-136446426D01*
X175700640Y-136451119D01*
X175762919Y-136454380D01*
X175784447Y-136456500D01*
X175803416Y-136456500D01*
X175863026Y-136459621D01*
X175884545Y-136456500D01*
X178553313Y-136456500D01*
X176950443Y-139662241D01*
X176933570Y-139658911D01*
X176914339Y-139652063D01*
X176853954Y-139643198D01*
X176794071Y-139631380D01*
X176773656Y-139631411D01*
X176753455Y-139628445D01*
X176692492Y-139631532D01*
X176631463Y-139631623D01*
X176611447Y-139635635D01*
X176591054Y-139636668D01*
X176531867Y-139651588D01*
X176472026Y-139663584D01*
X176453176Y-139671425D01*
X176433377Y-139676416D01*
X176378238Y-139702597D01*
X176321887Y-139726037D01*
X176304928Y-139737406D01*
X176286486Y-139746162D01*
X176237517Y-139782594D01*
X176186818Y-139816580D01*
X176172403Y-139831037D01*
X176156022Y-139843225D01*
X176115108Y-139888504D01*
X176072007Y-139931733D01*
X176060686Y-139948731D01*
X176047002Y-139963875D01*
X176015705Y-140016270D01*
X175981869Y-140067073D01*
X175974085Y-140085944D01*
X175963614Y-140103474D01*
X175943138Y-140160972D01*
X175919865Y-140217397D01*
X175915911Y-140237430D01*
X175909063Y-140256661D01*
X175900199Y-140317042D01*
X175888380Y-140376929D01*
X175888471Y-140437977D01*
X175765115Y-143028460D01*
X175760550Y-143053006D01*
X175761255Y-143109505D01*
X175760506Y-143125242D01*
X175761761Y-143150037D01*
X175762580Y-143215602D01*
X175765866Y-143231108D01*
X175766668Y-143246945D01*
X175782702Y-143310550D01*
X175796292Y-143374678D01*
X175802539Y-143389243D01*
X175806416Y-143404623D01*
X175834544Y-143463862D01*
X175860389Y-143524121D01*
X175869364Y-143537196D01*
X175876162Y-143551514D01*
X175915297Y-143604116D01*
X175952411Y-143658188D01*
X175963760Y-143669257D01*
X175973224Y-143681978D01*
X176007634Y-143713071D01*
X175893224Y-143701853D01*
X175550036Y-143598238D01*
X175233511Y-143429939D01*
X174955704Y-143203365D01*
X174727195Y-142927146D01*
X174556690Y-142611803D01*
X174450681Y-142269344D01*
X174410000Y-141882288D01*
X174410000Y-125500000D01*
X189105880Y-125500000D01*
X189111488Y-125556939D01*
X189111488Y-126750440D01*
X189123748Y-126874922D01*
X189160058Y-126994620D01*
X189219023Y-127104934D01*
X189298375Y-127201625D01*
X189395066Y-127280977D01*
X189505380Y-127339942D01*
X189625078Y-127376252D01*
X189749560Y-127388512D01*
X192250440Y-127388512D01*
X192286099Y-127385000D01*
X203407411Y-127385000D01*
X203500000Y-127394119D01*
X203592589Y-127385000D01*
X203592597Y-127385000D01*
X203869524Y-127357725D01*
X204224848Y-127249939D01*
X204552317Y-127074903D01*
X204839345Y-126839345D01*
X204898374Y-126767418D01*
X209148372Y-122517421D01*
X209324903Y-122302317D01*
X209499938Y-121974849D01*
X209607725Y-121619524D01*
X209644120Y-121250000D01*
X209628260Y-121088967D01*
X233615000Y-121088967D01*
X233615000Y-121411033D01*
X233677832Y-121726912D01*
X233801082Y-122024463D01*
X233980013Y-122292252D01*
X234207748Y-122519987D01*
X234475537Y-122698918D01*
X234773088Y-122822168D01*
X235088967Y-122885000D01*
X235411033Y-122885000D01*
X235726912Y-122822168D01*
X236024463Y-122698918D01*
X236292252Y-122519987D01*
X236519987Y-122292252D01*
X236698918Y-122024463D01*
X236822168Y-121726912D01*
X236885000Y-121411033D01*
X236885000Y-121088967D01*
X236822168Y-120773088D01*
X236698918Y-120475537D01*
X236519987Y-120207748D01*
X236292252Y-119980013D01*
X236024463Y-119801082D01*
X235726912Y-119677832D01*
X235411033Y-119615000D01*
X235088967Y-119615000D01*
X234773088Y-119677832D01*
X234475537Y-119801082D01*
X234207748Y-119980013D01*
X233980013Y-120207748D01*
X233801082Y-120475537D01*
X233677832Y-120773088D01*
X233615000Y-121088967D01*
X209628260Y-121088967D01*
X209607725Y-120880476D01*
X209499938Y-120525151D01*
X209324903Y-120197683D01*
X209089345Y-119910655D01*
X208802317Y-119675097D01*
X208474849Y-119500062D01*
X208119524Y-119392275D01*
X207750000Y-119355880D01*
X207380476Y-119392275D01*
X207025151Y-119500062D01*
X206697683Y-119675097D01*
X206482579Y-119851628D01*
X202719208Y-123615000D01*
X192286099Y-123615000D01*
X192250440Y-123611488D01*
X189749560Y-123611488D01*
X189625078Y-123623748D01*
X189505380Y-123660058D01*
X189395066Y-123719023D01*
X189298375Y-123798375D01*
X189219023Y-123895066D01*
X189160058Y-124005380D01*
X189123748Y-124125078D01*
X189111488Y-124249560D01*
X189111488Y-125443061D01*
X189105880Y-125500000D01*
X174410000Y-125500000D01*
X174410000Y-120950656D01*
X184342753Y-120950656D01*
X184343171Y-121010472D01*
X184342753Y-121070288D01*
X184343652Y-121079460D01*
X184374252Y-121370605D01*
X184386283Y-121429217D01*
X184397489Y-121487963D01*
X184400153Y-121496784D01*
X184486721Y-121776440D01*
X184509899Y-121831578D01*
X184532311Y-121887050D01*
X184536638Y-121895186D01*
X184675877Y-122152702D01*
X184709304Y-122202259D01*
X184742080Y-122252347D01*
X184747905Y-122259488D01*
X184934510Y-122485056D01*
X184976965Y-122527215D01*
X185018809Y-122569945D01*
X185025909Y-122575819D01*
X185252773Y-122760845D01*
X185302566Y-122793927D01*
X185351955Y-122827745D01*
X185360061Y-122832127D01*
X185618542Y-122969564D01*
X185673836Y-122992355D01*
X185728829Y-123015925D01*
X185737632Y-123018650D01*
X186017887Y-123103264D01*
X186076564Y-123114882D01*
X186135079Y-123127320D01*
X186144242Y-123128283D01*
X186144244Y-123128283D01*
X186435596Y-123156850D01*
X186435598Y-123156850D01*
X186467581Y-123160000D01*
X196532419Y-123160000D01*
X196565884Y-123156704D01*
X196585349Y-123156704D01*
X196594514Y-123155741D01*
X196885438Y-123123108D01*
X196943941Y-123110672D01*
X197002629Y-123099052D01*
X197011432Y-123096327D01*
X197290476Y-123007809D01*
X197345412Y-122984263D01*
X197400764Y-122961449D01*
X197408870Y-122957065D01*
X197665408Y-122816032D01*
X197714753Y-122782245D01*
X197764591Y-122749133D01*
X197771691Y-122743259D01*
X197995949Y-122555084D01*
X198037793Y-122512354D01*
X198080248Y-122470195D01*
X198086072Y-122463053D01*
X198269509Y-122234903D01*
X198302251Y-122184869D01*
X198335714Y-122135258D01*
X198340040Y-122127122D01*
X198475670Y-121867687D01*
X198498082Y-121812215D01*
X198521260Y-121757077D01*
X198523923Y-121748255D01*
X198606578Y-121467417D01*
X198617785Y-121408669D01*
X198629816Y-121350059D01*
X198630715Y-121340888D01*
X198657247Y-121049344D01*
X198656829Y-120989528D01*
X198657247Y-120929712D01*
X198656348Y-120920541D01*
X198625748Y-120629395D01*
X198613710Y-120570753D01*
X198602510Y-120512037D01*
X198599847Y-120503216D01*
X198513279Y-120223560D01*
X198490101Y-120168422D01*
X198467689Y-120112950D01*
X198463362Y-120104814D01*
X198324123Y-119847298D01*
X198290701Y-119797749D01*
X198257920Y-119747653D01*
X198252095Y-119740512D01*
X198065490Y-119514945D01*
X198023054Y-119472804D01*
X197981191Y-119430055D01*
X197974091Y-119424181D01*
X197747227Y-119239155D01*
X197697408Y-119206055D01*
X197648045Y-119172256D01*
X197639939Y-119167873D01*
X197381458Y-119030436D01*
X197326164Y-119007645D01*
X197271171Y-118984075D01*
X197262368Y-118981350D01*
X196982114Y-118896736D01*
X196923429Y-118885116D01*
X196864921Y-118872680D01*
X196855758Y-118871717D01*
X196855756Y-118871717D01*
X196564404Y-118843150D01*
X196564402Y-118843150D01*
X196532419Y-118840000D01*
X186467581Y-118840000D01*
X186434116Y-118843296D01*
X186414651Y-118843296D01*
X186405486Y-118844259D01*
X186114561Y-118876892D01*
X186056044Y-118889331D01*
X185997371Y-118900948D01*
X185988568Y-118903673D01*
X185709523Y-118992191D01*
X185654588Y-119015737D01*
X185599235Y-119038551D01*
X185591129Y-119042935D01*
X185334592Y-119183968D01*
X185285247Y-119217755D01*
X185235409Y-119250867D01*
X185228309Y-119256741D01*
X185004051Y-119444916D01*
X184962207Y-119487646D01*
X184919751Y-119529806D01*
X184913927Y-119536947D01*
X184730491Y-119765097D01*
X184697744Y-119815139D01*
X184664286Y-119864742D01*
X184659960Y-119872879D01*
X184524330Y-120132313D01*
X184501918Y-120187785D01*
X184478740Y-120242923D01*
X184476077Y-120251745D01*
X184393422Y-120532583D01*
X184382224Y-120591284D01*
X184370184Y-120649940D01*
X184369285Y-120659112D01*
X184342753Y-120950656D01*
X174410000Y-120950656D01*
X174410000Y-109789721D01*
X188865000Y-109789721D01*
X188865000Y-110210279D01*
X188947047Y-110622756D01*
X189107988Y-111011302D01*
X189115000Y-111021796D01*
X189115001Y-115213893D01*
X189111488Y-115249560D01*
X189111488Y-117750440D01*
X189123748Y-117874922D01*
X189160058Y-117994620D01*
X189219023Y-118104934D01*
X189298375Y-118201625D01*
X189395066Y-118280977D01*
X189505380Y-118339942D01*
X189625078Y-118376252D01*
X189749560Y-118388512D01*
X190943061Y-118388512D01*
X191000000Y-118394120D01*
X191056939Y-118388512D01*
X192250440Y-118388512D01*
X192374922Y-118376252D01*
X192494620Y-118339942D01*
X192604934Y-118280977D01*
X192701625Y-118201625D01*
X192780977Y-118104934D01*
X192839942Y-117994620D01*
X192876252Y-117874922D01*
X192888512Y-117750440D01*
X192888512Y-116088967D01*
X206115000Y-116088967D01*
X206115000Y-116411033D01*
X206177832Y-116726912D01*
X206301082Y-117024463D01*
X206480013Y-117292252D01*
X206707748Y-117519987D01*
X206975537Y-117698918D01*
X207273088Y-117822168D01*
X207588967Y-117885000D01*
X207911033Y-117885000D01*
X208226912Y-117822168D01*
X208524463Y-117698918D01*
X208792252Y-117519987D01*
X209019987Y-117292252D01*
X209198918Y-117024463D01*
X209322168Y-116726912D01*
X209385000Y-116411033D01*
X209385000Y-116088967D01*
X233615000Y-116088967D01*
X233615000Y-116411033D01*
X233677832Y-116726912D01*
X233801082Y-117024463D01*
X233980013Y-117292252D01*
X234207748Y-117519987D01*
X234475537Y-117698918D01*
X234773088Y-117822168D01*
X235088967Y-117885000D01*
X235411033Y-117885000D01*
X235726912Y-117822168D01*
X236024463Y-117698918D01*
X236292252Y-117519987D01*
X236519987Y-117292252D01*
X236698918Y-117024463D01*
X236822168Y-116726912D01*
X236885000Y-116411033D01*
X236885000Y-116088967D01*
X236822168Y-115773088D01*
X236698918Y-115475537D01*
X236519987Y-115207748D01*
X236292252Y-114980013D01*
X236024463Y-114801082D01*
X235726912Y-114677832D01*
X235411033Y-114615000D01*
X235088967Y-114615000D01*
X234773088Y-114677832D01*
X234475537Y-114801082D01*
X234207748Y-114980013D01*
X233980013Y-115207748D01*
X233801082Y-115475537D01*
X233677832Y-115773088D01*
X233615000Y-116088967D01*
X209385000Y-116088967D01*
X209322168Y-115773088D01*
X209198918Y-115475537D01*
X209019987Y-115207748D01*
X208792252Y-114980013D01*
X208524463Y-114801082D01*
X208226912Y-114677832D01*
X207911033Y-114615000D01*
X207588967Y-114615000D01*
X207273088Y-114677832D01*
X206975537Y-114801082D01*
X206707748Y-114980013D01*
X206480013Y-115207748D01*
X206301082Y-115475537D01*
X206177832Y-115773088D01*
X206115000Y-116088967D01*
X192888512Y-116088967D01*
X192888512Y-115249560D01*
X192885000Y-115213901D01*
X192885000Y-111088967D01*
X233615000Y-111088967D01*
X233615000Y-111411033D01*
X233677832Y-111726912D01*
X233801082Y-112024463D01*
X233980013Y-112292252D01*
X234207748Y-112519987D01*
X234475537Y-112698918D01*
X234773088Y-112822168D01*
X235088967Y-112885000D01*
X235411033Y-112885000D01*
X235726912Y-112822168D01*
X236024463Y-112698918D01*
X236292252Y-112519987D01*
X236519987Y-112292252D01*
X236698918Y-112024463D01*
X236822168Y-111726912D01*
X236885000Y-111411033D01*
X236885000Y-111088967D01*
X236822168Y-110773088D01*
X236698918Y-110475537D01*
X236519987Y-110207748D01*
X236292252Y-109980013D01*
X236024463Y-109801082D01*
X235726912Y-109677832D01*
X235411033Y-109615000D01*
X235088967Y-109615000D01*
X234773088Y-109677832D01*
X234475537Y-109801082D01*
X234207748Y-109980013D01*
X233980013Y-110207748D01*
X233801082Y-110475537D01*
X233677832Y-110773088D01*
X233615000Y-111088967D01*
X192885000Y-111088967D01*
X192885000Y-111021796D01*
X192892012Y-111011302D01*
X193052953Y-110622756D01*
X193135000Y-110210279D01*
X193135000Y-109789721D01*
X193052953Y-109377244D01*
X192892012Y-108988698D01*
X192658363Y-108639017D01*
X192360983Y-108341637D01*
X192011302Y-108107988D01*
X191622756Y-107947047D01*
X191210279Y-107865000D01*
X190789721Y-107865000D01*
X190377244Y-107947047D01*
X189988698Y-108107988D01*
X189639017Y-108341637D01*
X189341637Y-108639017D01*
X189107988Y-108988698D01*
X188947047Y-109377244D01*
X188865000Y-109789721D01*
X174410000Y-109789721D01*
X174410000Y-106088967D01*
X233615000Y-106088967D01*
X233615000Y-106411033D01*
X233677832Y-106726912D01*
X233801082Y-107024463D01*
X233980013Y-107292252D01*
X234207748Y-107519987D01*
X234475537Y-107698918D01*
X234773088Y-107822168D01*
X235088967Y-107885000D01*
X235411033Y-107885000D01*
X235726912Y-107822168D01*
X236024463Y-107698918D01*
X236292252Y-107519987D01*
X236519987Y-107292252D01*
X236698918Y-107024463D01*
X236822168Y-106726912D01*
X236885000Y-106411033D01*
X236885000Y-106088967D01*
X236822168Y-105773088D01*
X236698918Y-105475537D01*
X236519987Y-105207748D01*
X236292252Y-104980013D01*
X236024463Y-104801082D01*
X235726912Y-104677832D01*
X235411033Y-104615000D01*
X235088967Y-104615000D01*
X234773088Y-104677832D01*
X234475537Y-104801082D01*
X234207748Y-104980013D01*
X233980013Y-105207748D01*
X233801082Y-105475537D01*
X233677832Y-105773088D01*
X233615000Y-106088967D01*
X174410000Y-106088967D01*
X174410000Y-101088967D01*
X206115000Y-101088967D01*
X206115000Y-101411033D01*
X206177832Y-101726912D01*
X206301082Y-102024463D01*
X206480013Y-102292252D01*
X206707748Y-102519987D01*
X206975537Y-102698918D01*
X207273088Y-102822168D01*
X207588967Y-102885000D01*
X207911033Y-102885000D01*
X208226912Y-102822168D01*
X208524463Y-102698918D01*
X208792252Y-102519987D01*
X209019987Y-102292252D01*
X209198918Y-102024463D01*
X209322168Y-101726912D01*
X209385000Y-101411033D01*
X209385000Y-101088967D01*
X209322168Y-100773088D01*
X209198918Y-100475537D01*
X209019987Y-100207748D01*
X208792252Y-99980013D01*
X208524463Y-99801082D01*
X208226912Y-99677832D01*
X207911033Y-99615000D01*
X207588967Y-99615000D01*
X207273088Y-99677832D01*
X206975537Y-99801082D01*
X206707748Y-99980013D01*
X206480013Y-100207748D01*
X206301082Y-100475537D01*
X206177832Y-100773088D01*
X206115000Y-101088967D01*
X174410000Y-101088967D01*
X174410000Y-98554495D01*
X189015000Y-98554495D01*
X189015000Y-98945505D01*
X189091282Y-99329003D01*
X189240915Y-99690250D01*
X189458149Y-100015364D01*
X189734636Y-100291851D01*
X190059750Y-100509085D01*
X190420997Y-100658718D01*
X190804495Y-100735000D01*
X191195505Y-100735000D01*
X191579003Y-100658718D01*
X191940250Y-100509085D01*
X192265364Y-100291851D01*
X192541851Y-100015364D01*
X192759085Y-99690250D01*
X192908718Y-99329003D01*
X192985000Y-98945505D01*
X192985000Y-98554495D01*
X192908718Y-98170997D01*
X192759085Y-97809750D01*
X192541851Y-97484636D01*
X192265364Y-97208149D01*
X191940250Y-96990915D01*
X191579003Y-96841282D01*
X191195505Y-96765000D01*
X190804495Y-96765000D01*
X190420997Y-96841282D01*
X190059750Y-96990915D01*
X189734636Y-97208149D01*
X189458149Y-97484636D01*
X189240915Y-97809750D01*
X189091282Y-98170997D01*
X189015000Y-98554495D01*
X174410000Y-98554495D01*
X174410000Y-87289721D01*
X188865000Y-87289721D01*
X188865000Y-87710279D01*
X188947047Y-88122756D01*
X189107988Y-88511302D01*
X189341637Y-88860983D01*
X189639017Y-89158363D01*
X189988698Y-89392012D01*
X190377244Y-89552953D01*
X190789721Y-89635000D01*
X191210279Y-89635000D01*
X191622756Y-89552953D01*
X192011302Y-89392012D01*
X192021796Y-89385000D01*
X198219208Y-89385000D01*
X206114956Y-97280749D01*
X206124188Y-97374482D01*
X206160498Y-97494180D01*
X206219463Y-97604494D01*
X206298815Y-97701185D01*
X206395506Y-97780537D01*
X206505820Y-97839502D01*
X206625518Y-97875812D01*
X206750000Y-97888072D01*
X206815864Y-97888072D01*
X207025151Y-97999938D01*
X207380476Y-98107725D01*
X207750000Y-98144120D01*
X208119524Y-98107725D01*
X208474849Y-97999938D01*
X208684136Y-97888072D01*
X208750000Y-97888072D01*
X208874482Y-97875812D01*
X208994180Y-97839502D01*
X209104494Y-97780537D01*
X209201185Y-97701185D01*
X209280537Y-97604494D01*
X209339502Y-97494180D01*
X209375812Y-97374482D01*
X209388072Y-97250000D01*
X209388072Y-97184136D01*
X209499938Y-96974849D01*
X209607725Y-96619524D01*
X209644120Y-96250000D01*
X209607725Y-95880476D01*
X209499938Y-95525151D01*
X209388072Y-95315864D01*
X209388072Y-95250000D01*
X209375812Y-95125518D01*
X209339502Y-95005820D01*
X209280537Y-94895506D01*
X209201185Y-94798815D01*
X209104494Y-94719463D01*
X208994180Y-94660498D01*
X208874482Y-94624188D01*
X208780749Y-94614956D01*
X200398374Y-86232582D01*
X200339345Y-86160655D01*
X200052317Y-85925097D01*
X199724848Y-85750061D01*
X199369524Y-85642275D01*
X199092597Y-85615000D01*
X199092589Y-85615000D01*
X199000000Y-85605881D01*
X198907411Y-85615000D01*
X192021796Y-85615000D01*
X192011302Y-85607988D01*
X191622756Y-85447047D01*
X191210279Y-85365000D01*
X190789721Y-85365000D01*
X190377244Y-85447047D01*
X189988698Y-85607988D01*
X189639017Y-85841637D01*
X189341637Y-86139017D01*
X189107988Y-86488698D01*
X188947047Y-86877244D01*
X188865000Y-87289721D01*
X174410000Y-87289721D01*
X174410000Y-78720000D01*
X214305880Y-78720000D01*
X214315000Y-78812597D01*
X214315001Y-85107401D01*
X214305881Y-85200000D01*
X214342275Y-85569524D01*
X214450062Y-85924848D01*
X214625098Y-86252317D01*
X214801628Y-86467420D01*
X214801631Y-86467423D01*
X214860656Y-86539345D01*
X214932577Y-86598369D01*
X219351630Y-91017423D01*
X219410655Y-91089345D01*
X219482577Y-91148370D01*
X219482579Y-91148372D01*
X219697683Y-91324903D01*
X220025152Y-91499939D01*
X220327032Y-91591513D01*
X220380476Y-91607725D01*
X220750000Y-91644120D01*
X220842597Y-91635000D01*
X221469208Y-91635000D01*
X231351631Y-101517424D01*
X231410656Y-101589346D01*
X231482578Y-101648371D01*
X231482580Y-101648373D01*
X231548980Y-101702865D01*
X231697684Y-101824904D01*
X232025153Y-101999940D01*
X232380477Y-102107726D01*
X232657404Y-102135001D01*
X232657412Y-102135001D01*
X232750001Y-102144120D01*
X232842590Y-102135001D01*
X233469209Y-102135001D01*
X233982580Y-102648372D01*
X234197683Y-102824902D01*
X234525151Y-102999938D01*
X234880475Y-103107724D01*
X235249999Y-103144119D01*
X235619523Y-103107724D01*
X235974848Y-102999938D01*
X236302316Y-102824902D01*
X236589344Y-102589344D01*
X236824902Y-102302316D01*
X236999938Y-101974848D01*
X237107724Y-101619523D01*
X237144119Y-101249999D01*
X237107724Y-100880475D01*
X236999938Y-100525151D01*
X236824902Y-100197683D01*
X236648372Y-99982580D01*
X235648375Y-98982583D01*
X235589346Y-98910656D01*
X235302318Y-98675098D01*
X234974849Y-98500062D01*
X234619525Y-98392276D01*
X234342598Y-98365001D01*
X234342590Y-98365001D01*
X234250001Y-98355882D01*
X234157412Y-98365001D01*
X233530794Y-98365001D01*
X231254760Y-96088967D01*
X233615000Y-96088967D01*
X233615000Y-96411033D01*
X233677832Y-96726912D01*
X233801082Y-97024463D01*
X233980013Y-97292252D01*
X234207748Y-97519987D01*
X234475537Y-97698918D01*
X234773088Y-97822168D01*
X235088967Y-97885000D01*
X235411033Y-97885000D01*
X235726912Y-97822168D01*
X236024463Y-97698918D01*
X236292252Y-97519987D01*
X236519987Y-97292252D01*
X236698918Y-97024463D01*
X236822168Y-96726912D01*
X236885000Y-96411033D01*
X236885000Y-96088967D01*
X236822168Y-95773088D01*
X236698918Y-95475537D01*
X236519987Y-95207748D01*
X236292252Y-94980013D01*
X236024463Y-94801082D01*
X235726912Y-94677832D01*
X235411033Y-94615000D01*
X235088967Y-94615000D01*
X234773088Y-94677832D01*
X234475537Y-94801082D01*
X234207748Y-94980013D01*
X233980013Y-95207748D01*
X233801082Y-95475537D01*
X233677832Y-95773088D01*
X233615000Y-96088967D01*
X231254760Y-96088967D01*
X224085000Y-88919208D01*
X224085000Y-78720000D01*
X226305881Y-78720000D01*
X226342275Y-79089524D01*
X226450062Y-79444848D01*
X226625098Y-79772317D01*
X226860655Y-80059345D01*
X227147683Y-80294902D01*
X227475152Y-80469938D01*
X227830476Y-80577725D01*
X228200000Y-80614119D01*
X228569524Y-80577725D01*
X228875196Y-80485000D01*
X233792597Y-80485000D01*
X234069524Y-80457725D01*
X234424848Y-80349939D01*
X234447050Y-80338072D01*
X234800000Y-80338072D01*
X234924482Y-80325812D01*
X235044180Y-80289502D01*
X235154494Y-80230537D01*
X235251185Y-80151185D01*
X235330537Y-80054494D01*
X235389502Y-79944180D01*
X235425812Y-79824482D01*
X235438072Y-79700000D01*
X235438072Y-79347050D01*
X235449939Y-79324848D01*
X235557725Y-78969524D01*
X235594120Y-78600000D01*
X235557725Y-78230476D01*
X235449939Y-77875152D01*
X235438072Y-77852950D01*
X235438072Y-77500000D01*
X235425812Y-77375518D01*
X235389502Y-77255820D01*
X235330537Y-77145506D01*
X235251185Y-77048815D01*
X235154494Y-76969463D01*
X235044180Y-76910498D01*
X234924482Y-76874188D01*
X234800000Y-76861928D01*
X234447050Y-76861928D01*
X234424848Y-76850061D01*
X234069524Y-76742275D01*
X233792597Y-76715000D01*
X228412597Y-76715000D01*
X228320000Y-76705880D01*
X228227403Y-76715000D01*
X227950476Y-76742275D01*
X227595152Y-76850061D01*
X227267683Y-77025097D01*
X226980655Y-77260655D01*
X226921626Y-77332582D01*
X226801628Y-77452580D01*
X226625098Y-77667683D01*
X226450062Y-77995152D01*
X226342275Y-78350476D01*
X226305881Y-78720000D01*
X224085000Y-78720000D01*
X224085000Y-78692597D01*
X224094120Y-78600000D01*
X224057725Y-78230476D01*
X223949939Y-77875152D01*
X223938072Y-77852950D01*
X223938072Y-77500000D01*
X223925812Y-77375518D01*
X223889502Y-77255820D01*
X223830537Y-77145506D01*
X223751185Y-77048815D01*
X223654494Y-76969463D01*
X223544180Y-76910498D01*
X223424482Y-76874188D01*
X223300000Y-76861928D01*
X222947050Y-76861928D01*
X222924848Y-76850061D01*
X222569524Y-76742275D01*
X222200000Y-76705880D01*
X221830477Y-76742275D01*
X221524803Y-76835000D01*
X216292597Y-76835000D01*
X216200000Y-76825880D01*
X216107403Y-76835000D01*
X215830476Y-76862275D01*
X215475152Y-76970061D01*
X215147683Y-77145097D01*
X214860655Y-77380655D01*
X214625097Y-77667683D01*
X214450061Y-77995152D01*
X214342275Y-78350476D01*
X214305880Y-78720000D01*
X174410000Y-78720000D01*
X174410000Y-70135413D01*
X184544192Y-70135413D01*
X184639956Y-70399814D01*
X184929571Y-70540704D01*
X185241108Y-70622384D01*
X185562595Y-70641718D01*
X185881675Y-70597961D01*
X186186088Y-70492795D01*
X186360044Y-70399814D01*
X186455808Y-70135413D01*
X185500000Y-69179605D01*
X184544192Y-70135413D01*
X174410000Y-70135413D01*
X174410000Y-69062595D01*
X183858282Y-69062595D01*
X183902039Y-69381675D01*
X184007205Y-69686088D01*
X184100186Y-69860044D01*
X184364587Y-69955808D01*
X185320395Y-69000000D01*
X185679605Y-69000000D01*
X186635413Y-69955808D01*
X186899814Y-69860044D01*
X187040704Y-69570429D01*
X187122384Y-69258892D01*
X187141718Y-68937405D01*
X187097961Y-68618325D01*
X186992795Y-68313912D01*
X186899814Y-68139956D01*
X186635413Y-68044192D01*
X185679605Y-69000000D01*
X185320395Y-69000000D01*
X184364587Y-68044192D01*
X184100186Y-68139956D01*
X183959296Y-68429571D01*
X183877616Y-68741108D01*
X183858282Y-69062595D01*
X174410000Y-69062595D01*
X174410000Y-64715852D01*
X176115000Y-64715852D01*
X176115000Y-65284148D01*
X176225869Y-65841523D01*
X176443346Y-66366560D01*
X176759074Y-66839080D01*
X177160920Y-67240926D01*
X177633440Y-67556654D01*
X178158477Y-67774131D01*
X178715852Y-67885000D01*
X179284148Y-67885000D01*
X179386770Y-67864587D01*
X184544192Y-67864587D01*
X185500000Y-68820395D01*
X186455808Y-67864587D01*
X186360044Y-67600186D01*
X186070429Y-67459296D01*
X185758892Y-67377616D01*
X185437405Y-67358282D01*
X185118325Y-67402039D01*
X184813912Y-67507205D01*
X184639956Y-67600186D01*
X184544192Y-67864587D01*
X179386770Y-67864587D01*
X179841523Y-67774131D01*
X180366560Y-67556654D01*
X180839080Y-67240926D01*
X181240926Y-66839080D01*
X181556654Y-66366560D01*
X181774131Y-65841523D01*
X181885000Y-65284148D01*
X181885000Y-64715852D01*
X181774131Y-64158477D01*
X181556654Y-63633440D01*
X181240926Y-63160920D01*
X180839080Y-62759074D01*
X180366560Y-62443346D01*
X179841523Y-62225869D01*
X179284148Y-62115000D01*
X178715852Y-62115000D01*
X178158477Y-62225869D01*
X177633440Y-62443346D01*
X177160920Y-62759074D01*
X176759074Y-63160920D01*
X176443346Y-63633440D01*
X176225869Y-64158477D01*
X176115000Y-64715852D01*
X174410000Y-64715852D01*
X174410000Y-61135413D01*
X197544192Y-61135413D01*
X197639956Y-61399814D01*
X197929571Y-61540704D01*
X198241108Y-61622384D01*
X198562595Y-61641718D01*
X198881675Y-61597961D01*
X199186088Y-61492795D01*
X199360044Y-61399814D01*
X199455808Y-61135413D01*
X198500000Y-60179605D01*
X197544192Y-61135413D01*
X174410000Y-61135413D01*
X174410000Y-60062595D01*
X196858282Y-60062595D01*
X196902039Y-60381675D01*
X197007205Y-60686088D01*
X197100186Y-60860044D01*
X197364587Y-60955808D01*
X198320395Y-60000000D01*
X198679605Y-60000000D01*
X199635413Y-60955808D01*
X199899814Y-60860044D01*
X200040704Y-60570429D01*
X200122384Y-60258892D01*
X200141718Y-59937405D01*
X200101206Y-59641984D01*
X208465000Y-59641984D01*
X208465000Y-60358016D01*
X208604691Y-61060290D01*
X208878705Y-61721818D01*
X209276511Y-62317177D01*
X209782823Y-62823489D01*
X210378182Y-63221295D01*
X211039710Y-63495309D01*
X211741984Y-63635000D01*
X212458016Y-63635000D01*
X213160290Y-63495309D01*
X213821818Y-63221295D01*
X214417177Y-62823489D01*
X214923489Y-62317177D01*
X215321295Y-61721818D01*
X215595309Y-61060290D01*
X215735000Y-60358016D01*
X215735000Y-59641984D01*
X215595309Y-58939710D01*
X215321295Y-58278182D01*
X214923489Y-57682823D01*
X214417177Y-57176511D01*
X213821818Y-56778705D01*
X213160290Y-56504691D01*
X212458016Y-56365000D01*
X211741984Y-56365000D01*
X211039710Y-56504691D01*
X210378182Y-56778705D01*
X209782823Y-57176511D01*
X209276511Y-57682823D01*
X208878705Y-58278182D01*
X208604691Y-58939710D01*
X208465000Y-59641984D01*
X200101206Y-59641984D01*
X200097961Y-59618325D01*
X199992795Y-59313912D01*
X199899814Y-59139956D01*
X199635413Y-59044192D01*
X198679605Y-60000000D01*
X198320395Y-60000000D01*
X197364587Y-59044192D01*
X197100186Y-59139956D01*
X196959296Y-59429571D01*
X196877616Y-59741108D01*
X196858282Y-60062595D01*
X174410000Y-60062595D01*
X174410000Y-58750440D01*
X182611488Y-58750440D01*
X182623748Y-58874922D01*
X182660058Y-58994620D01*
X182719023Y-59104934D01*
X182798375Y-59201625D01*
X182895066Y-59280977D01*
X183005380Y-59339942D01*
X183125078Y-59376252D01*
X183249560Y-59388512D01*
X184214250Y-59385440D01*
X184373000Y-59226690D01*
X184373000Y-57627000D01*
X184627000Y-57627000D01*
X184627000Y-59226690D01*
X184785750Y-59385440D01*
X185750440Y-59388512D01*
X185874922Y-59376252D01*
X185994620Y-59339942D01*
X186104934Y-59280977D01*
X186201625Y-59201625D01*
X186280977Y-59104934D01*
X186339942Y-58994620D01*
X186376252Y-58874922D01*
X186377269Y-58864587D01*
X197544192Y-58864587D01*
X198500000Y-59820395D01*
X199455808Y-58864587D01*
X199360044Y-58600186D01*
X199070429Y-58459296D01*
X198758892Y-58377616D01*
X198437405Y-58358282D01*
X198118325Y-58402039D01*
X197813912Y-58507205D01*
X197639956Y-58600186D01*
X197544192Y-58864587D01*
X186377269Y-58864587D01*
X186388512Y-58750440D01*
X186385440Y-57785750D01*
X186226690Y-57627000D01*
X184627000Y-57627000D01*
X184373000Y-57627000D01*
X182773310Y-57627000D01*
X182614560Y-57785750D01*
X182611488Y-58750440D01*
X174410000Y-58750440D01*
X174410000Y-56249560D01*
X182611488Y-56249560D01*
X182614560Y-57214250D01*
X182773310Y-57373000D01*
X184373000Y-57373000D01*
X184373000Y-55773310D01*
X184627000Y-55773310D01*
X184627000Y-57373000D01*
X186226690Y-57373000D01*
X186385440Y-57214250D01*
X186388512Y-56249560D01*
X186376252Y-56125078D01*
X186339942Y-56005380D01*
X186280977Y-55895066D01*
X186201625Y-55798375D01*
X186104934Y-55719023D01*
X185994620Y-55660058D01*
X185874922Y-55623748D01*
X185750440Y-55611488D01*
X184785750Y-55614560D01*
X184627000Y-55773310D01*
X184373000Y-55773310D01*
X184214250Y-55614560D01*
X183249560Y-55611488D01*
X183125078Y-55623748D01*
X183005380Y-55660058D01*
X182895066Y-55719023D01*
X182798375Y-55798375D01*
X182719023Y-55895066D01*
X182660058Y-56005380D01*
X182623748Y-56125078D01*
X182611488Y-56249560D01*
X174410000Y-56249560D01*
X174410000Y-48500000D01*
X182605881Y-48500000D01*
X182611488Y-48556930D01*
X182611488Y-49750440D01*
X182623748Y-49874922D01*
X182660058Y-49994620D01*
X182719023Y-50104934D01*
X182798375Y-50201625D01*
X182895066Y-50280977D01*
X183005380Y-50339942D01*
X183125078Y-50376252D01*
X183249560Y-50388512D01*
X183722720Y-50388512D01*
X185559130Y-52224923D01*
X185618155Y-52296845D01*
X185690077Y-52355870D01*
X185690079Y-52355872D01*
X185698341Y-52362652D01*
X185905183Y-52532403D01*
X186232652Y-52707439D01*
X186587976Y-52815225D01*
X186864903Y-52842500D01*
X186864911Y-52842500D01*
X186957500Y-52851619D01*
X187050089Y-52842500D01*
X214164499Y-52842500D01*
X214447683Y-53074903D01*
X214775152Y-53249939D01*
X215047776Y-53332638D01*
X215130475Y-53357725D01*
X215162662Y-53360895D01*
X215407403Y-53385000D01*
X215407411Y-53385000D01*
X215500000Y-53394119D01*
X215592589Y-53385000D01*
X220781708Y-53385000D01*
X221352382Y-53955674D01*
X221400060Y-54112849D01*
X221575096Y-54440318D01*
X221810654Y-54727346D01*
X221882582Y-54786376D01*
X222713621Y-55617414D01*
X222772654Y-55689346D01*
X223059682Y-55924904D01*
X223387151Y-56099940D01*
X223544326Y-56147618D01*
X225445000Y-58048293D01*
X225445001Y-62863700D01*
X225381094Y-62830429D01*
X225162980Y-62759437D01*
X224917000Y-62879406D01*
X224917000Y-64223000D01*
X224937000Y-64223000D01*
X224937000Y-64477000D01*
X224917000Y-64477000D01*
X224917000Y-64497000D01*
X224663000Y-64497000D01*
X224663000Y-64477000D01*
X224643000Y-64477000D01*
X224643000Y-64223000D01*
X224663000Y-64223000D01*
X224663000Y-62879406D01*
X224417020Y-62759437D01*
X224198906Y-62830429D01*
X223923077Y-62974031D01*
X223782059Y-63087219D01*
X223733037Y-62995506D01*
X223653685Y-62898815D01*
X223556994Y-62819463D01*
X223446680Y-62760498D01*
X223326982Y-62724188D01*
X223202500Y-62711928D01*
X223184136Y-62711928D01*
X222974848Y-62600061D01*
X222619524Y-62492275D01*
X222250000Y-62455880D01*
X221946739Y-62485749D01*
X221880475Y-62492275D01*
X221664903Y-62557668D01*
X221525153Y-62600061D01*
X221525151Y-62600062D01*
X221315865Y-62711928D01*
X221297500Y-62711928D01*
X221173018Y-62724188D01*
X221053320Y-62760498D01*
X220943006Y-62819463D01*
X220846315Y-62898815D01*
X220766963Y-62995506D01*
X220707998Y-63105820D01*
X220671688Y-63225518D01*
X220667646Y-63266561D01*
X214932577Y-69001631D01*
X214860656Y-69060655D01*
X214733988Y-69215000D01*
X206380793Y-69215000D01*
X204385000Y-67219208D01*
X204385000Y-65592596D01*
X204394120Y-65500000D01*
X204357725Y-65130476D01*
X204320557Y-65007949D01*
X204249939Y-64775152D01*
X204074903Y-64447683D01*
X203839345Y-64160655D01*
X203767418Y-64101626D01*
X203398374Y-63732582D01*
X203339345Y-63660655D01*
X203052317Y-63425097D01*
X202724848Y-63250061D01*
X202369524Y-63142275D01*
X202092597Y-63115000D01*
X202092589Y-63115000D01*
X202000000Y-63105881D01*
X201907411Y-63115000D01*
X197592589Y-63115000D01*
X197500000Y-63105881D01*
X197407411Y-63115000D01*
X197407403Y-63115000D01*
X197162662Y-63139105D01*
X197130475Y-63142275D01*
X197024122Y-63174537D01*
X196775152Y-63250061D01*
X196447683Y-63425097D01*
X196362130Y-63495309D01*
X196232579Y-63601628D01*
X196232577Y-63601630D01*
X196160655Y-63660655D01*
X196101630Y-63732577D01*
X193732582Y-66101626D01*
X193660655Y-66160655D01*
X193425097Y-66447683D01*
X193250061Y-66775153D01*
X193146970Y-67115000D01*
X190407403Y-67115000D01*
X190130476Y-67142275D01*
X189775152Y-67250061D01*
X189565864Y-67361928D01*
X189500000Y-67361928D01*
X189375518Y-67374188D01*
X189255820Y-67410498D01*
X189145506Y-67469463D01*
X189048815Y-67548815D01*
X188969463Y-67645506D01*
X188910498Y-67755820D01*
X188874188Y-67875518D01*
X188861928Y-68000000D01*
X188861928Y-68065864D01*
X188750061Y-68275152D01*
X188642275Y-68630476D01*
X188605880Y-69000000D01*
X188642275Y-69369524D01*
X188750061Y-69724848D01*
X188861928Y-69934136D01*
X188861928Y-70000000D01*
X188874188Y-70124482D01*
X188910498Y-70244180D01*
X188969463Y-70354494D01*
X189048815Y-70451185D01*
X189145506Y-70530537D01*
X189255820Y-70589502D01*
X189375518Y-70625812D01*
X189500000Y-70638072D01*
X189565864Y-70638072D01*
X189775152Y-70749939D01*
X190130476Y-70857725D01*
X190407403Y-70885000D01*
X193907411Y-70885000D01*
X194000000Y-70894119D01*
X194092589Y-70885000D01*
X194092597Y-70885000D01*
X194369524Y-70857725D01*
X194724848Y-70749939D01*
X195052317Y-70574903D01*
X195339345Y-70339345D01*
X195398374Y-70267418D01*
X195780792Y-69885000D01*
X198534994Y-69885000D01*
X198259074Y-70160920D01*
X197943346Y-70633440D01*
X197725869Y-71158477D01*
X197615000Y-71715852D01*
X197615000Y-72284148D01*
X197725869Y-72841523D01*
X197943346Y-73366560D01*
X198259074Y-73839080D01*
X198660920Y-74240926D01*
X199133440Y-74556654D01*
X199658477Y-74774131D01*
X200215852Y-74885000D01*
X200784148Y-74885000D01*
X201341523Y-74774131D01*
X201866560Y-74556654D01*
X202339080Y-74240926D01*
X202740926Y-73839080D01*
X203056654Y-73366560D01*
X203274131Y-72841523D01*
X203385000Y-72284148D01*
X203385000Y-71715852D01*
X203344015Y-71509808D01*
X204201630Y-72367423D01*
X204260655Y-72439345D01*
X204332577Y-72498370D01*
X204332579Y-72498372D01*
X204396859Y-72551125D01*
X204547683Y-72674903D01*
X204875152Y-72849939D01*
X205122689Y-72925028D01*
X205230475Y-72957725D01*
X205265732Y-72961197D01*
X205507403Y-72985000D01*
X205507410Y-72985000D01*
X205599999Y-72994119D01*
X205692588Y-72985000D01*
X216107403Y-72985000D01*
X216200000Y-72994120D01*
X216292597Y-72985000D01*
X216569524Y-72957725D01*
X216924848Y-72849939D01*
X216947050Y-72838072D01*
X217300000Y-72838072D01*
X217424482Y-72825812D01*
X217544180Y-72789502D01*
X217654494Y-72730537D01*
X217751185Y-72651185D01*
X217830537Y-72554494D01*
X217889502Y-72444180D01*
X217925812Y-72324482D01*
X217938072Y-72200000D01*
X217938072Y-71847050D01*
X217949939Y-71824848D01*
X218057725Y-71469524D01*
X218066924Y-71376123D01*
X220510821Y-71376123D01*
X220620558Y-71698054D01*
X220790992Y-71992391D01*
X221015573Y-72247822D01*
X221285671Y-72454531D01*
X221590906Y-72604575D01*
X221803878Y-72669175D01*
X222073000Y-72551125D01*
X222073000Y-71107000D01*
X222327000Y-71107000D01*
X222327000Y-72551125D01*
X222596122Y-72669175D01*
X222809094Y-72604575D01*
X223114329Y-72454531D01*
X223384427Y-72247822D01*
X223609008Y-71992391D01*
X223779442Y-71698054D01*
X223889179Y-71376123D01*
X223771600Y-71107000D01*
X222327000Y-71107000D01*
X222073000Y-71107000D01*
X220628400Y-71107000D01*
X220510821Y-71376123D01*
X218066924Y-71376123D01*
X218086290Y-71179502D01*
X218681915Y-70583877D01*
X220510821Y-70583877D01*
X220628400Y-70853000D01*
X222073000Y-70853000D01*
X222073000Y-69408875D01*
X222327000Y-69408875D01*
X222327000Y-70853000D01*
X223771600Y-70853000D01*
X223889179Y-70583877D01*
X223779442Y-70261946D01*
X223609008Y-69967609D01*
X223384427Y-69712178D01*
X223114329Y-69505469D01*
X222809094Y-69355425D01*
X222596122Y-69290825D01*
X222327000Y-69408875D01*
X222073000Y-69408875D01*
X221803878Y-69290825D01*
X221590906Y-69355425D01*
X221285671Y-69505469D01*
X221015573Y-69712178D01*
X220790992Y-69967609D01*
X220620558Y-70261946D01*
X220510821Y-70583877D01*
X218681915Y-70583877D01*
X221675000Y-67590792D01*
X226451630Y-72367423D01*
X226508079Y-72436206D01*
X226510498Y-72444180D01*
X226569463Y-72554494D01*
X226648815Y-72651185D01*
X226745506Y-72730537D01*
X226855820Y-72789502D01*
X226975518Y-72825812D01*
X227100000Y-72838072D01*
X227102950Y-72838072D01*
X227125152Y-72849939D01*
X227372689Y-72925028D01*
X227480475Y-72957725D01*
X227512662Y-72960895D01*
X227757403Y-72985000D01*
X227757411Y-72985000D01*
X227850000Y-72994119D01*
X227942589Y-72985000D01*
X228292597Y-72985000D01*
X228569524Y-72957725D01*
X228924848Y-72849939D01*
X228947050Y-72838072D01*
X229300000Y-72838072D01*
X229424482Y-72825812D01*
X229544180Y-72789502D01*
X229654494Y-72730537D01*
X229751185Y-72651185D01*
X229830537Y-72554494D01*
X229889502Y-72444180D01*
X229925812Y-72324482D01*
X229938072Y-72200000D01*
X229938072Y-71847050D01*
X229949939Y-71824848D01*
X230057725Y-71469524D01*
X230066924Y-71376123D01*
X232010821Y-71376123D01*
X232120558Y-71698054D01*
X232290992Y-71992391D01*
X232515573Y-72247822D01*
X232785671Y-72454531D01*
X233090906Y-72604575D01*
X233303878Y-72669175D01*
X233573000Y-72551125D01*
X233573000Y-71107000D01*
X233827000Y-71107000D01*
X233827000Y-72551125D01*
X234096122Y-72669175D01*
X234309094Y-72604575D01*
X234614329Y-72454531D01*
X234884427Y-72247822D01*
X235109008Y-71992391D01*
X235279442Y-71698054D01*
X235389179Y-71376123D01*
X235271600Y-71107000D01*
X233827000Y-71107000D01*
X233573000Y-71107000D01*
X232128400Y-71107000D01*
X232010821Y-71376123D01*
X230066924Y-71376123D01*
X230094120Y-71100000D01*
X230057725Y-70730476D01*
X230013255Y-70583877D01*
X232010821Y-70583877D01*
X232128400Y-70853000D01*
X233573000Y-70853000D01*
X233573000Y-69408875D01*
X233827000Y-69408875D01*
X233827000Y-70853000D01*
X235271600Y-70853000D01*
X235389179Y-70583877D01*
X235279442Y-70261946D01*
X235109008Y-69967609D01*
X234884427Y-69712178D01*
X234614329Y-69505469D01*
X234309094Y-69355425D01*
X234096122Y-69290825D01*
X233827000Y-69408875D01*
X233573000Y-69408875D01*
X233303878Y-69290825D01*
X233090906Y-69355425D01*
X232785671Y-69505469D01*
X232515573Y-69712178D01*
X232290992Y-69967609D01*
X232120558Y-70261946D01*
X232010821Y-70583877D01*
X230013255Y-70583877D01*
X229949939Y-70375152D01*
X229938072Y-70352950D01*
X229938072Y-70000000D01*
X229925812Y-69875518D01*
X229889502Y-69755820D01*
X229830537Y-69645506D01*
X229751185Y-69548815D01*
X229654494Y-69469463D01*
X229544180Y-69410498D01*
X229424482Y-69374188D01*
X229300000Y-69361928D01*
X228947050Y-69361928D01*
X228924848Y-69350061D01*
X228696623Y-69280830D01*
X225308871Y-65893078D01*
X225381094Y-65869571D01*
X225656923Y-65725969D01*
X225876243Y-65549932D01*
X225990656Y-65689345D01*
X226277684Y-65924903D01*
X226605153Y-66099939D01*
X226960477Y-66207725D01*
X227330000Y-66244120D01*
X227699524Y-66207725D01*
X228054848Y-66099939D01*
X228382317Y-65924903D01*
X228669345Y-65689345D01*
X228904903Y-65402317D01*
X229079939Y-65074848D01*
X229187725Y-64719524D01*
X229215000Y-64442597D01*
X229215000Y-59641984D01*
X233865000Y-59641984D01*
X233865000Y-60358016D01*
X234004691Y-61060290D01*
X234278705Y-61721818D01*
X234676511Y-62317177D01*
X235182823Y-62823489D01*
X235778182Y-63221295D01*
X236439710Y-63495309D01*
X237141984Y-63635000D01*
X237858016Y-63635000D01*
X238560290Y-63495309D01*
X239221818Y-63221295D01*
X239817177Y-62823489D01*
X240323489Y-62317177D01*
X240721295Y-61721818D01*
X240995309Y-61060290D01*
X241135000Y-60358016D01*
X241135000Y-59641984D01*
X240995309Y-58939710D01*
X240721295Y-58278182D01*
X240323489Y-57682823D01*
X239817177Y-57176511D01*
X239221818Y-56778705D01*
X238560290Y-56504691D01*
X237858016Y-56365000D01*
X237141984Y-56365000D01*
X236439710Y-56504691D01*
X235778182Y-56778705D01*
X235182823Y-57176511D01*
X234676511Y-57682823D01*
X234278705Y-58278182D01*
X234004691Y-58939710D01*
X233865000Y-59641984D01*
X229215000Y-59641984D01*
X229215000Y-57360097D01*
X229224120Y-57267500D01*
X229187725Y-56897976D01*
X229079939Y-56542652D01*
X228904903Y-56215183D01*
X228830956Y-56125078D01*
X228728372Y-56000079D01*
X228728370Y-56000077D01*
X228669345Y-55928155D01*
X228597423Y-55869130D01*
X225810873Y-53082581D01*
X225751846Y-53010656D01*
X225464818Y-52775098D01*
X225137349Y-52600062D01*
X224980173Y-52552383D01*
X224947617Y-52519827D01*
X224899938Y-52362651D01*
X224724902Y-52035182D01*
X224709659Y-52016608D01*
X224548371Y-51820078D01*
X224548369Y-51820076D01*
X224489344Y-51748154D01*
X224417422Y-51689129D01*
X222960872Y-50232580D01*
X222901845Y-50160655D01*
X222614817Y-49925097D01*
X222287348Y-49750061D01*
X221932024Y-49642275D01*
X221655097Y-49615000D01*
X221655089Y-49615000D01*
X221562500Y-49605881D01*
X221536678Y-49608424D01*
X221535000Y-49498250D01*
X221376250Y-49339500D01*
X220327000Y-49339500D01*
X220327000Y-49359500D01*
X220073000Y-49359500D01*
X220073000Y-49339500D01*
X220053000Y-49339500D01*
X220053000Y-49085500D01*
X220073000Y-49085500D01*
X220073000Y-48248750D01*
X220327000Y-48248750D01*
X220327000Y-49085500D01*
X221376250Y-49085500D01*
X221535000Y-48926750D01*
X221538072Y-48725000D01*
X221525812Y-48600518D01*
X221489502Y-48480820D01*
X221430537Y-48370506D01*
X221351185Y-48273815D01*
X221254494Y-48194463D01*
X221144180Y-48135498D01*
X221024482Y-48099188D01*
X220900000Y-48086928D01*
X220485750Y-48090000D01*
X220327000Y-48248750D01*
X220073000Y-48248750D01*
X219914250Y-48090000D01*
X219500000Y-48086928D01*
X219375518Y-48099188D01*
X219255820Y-48135498D01*
X219145506Y-48194463D01*
X219048815Y-48273815D01*
X218969463Y-48370506D01*
X218934846Y-48435269D01*
X218909494Y-48414463D01*
X218799180Y-48355498D01*
X218679482Y-48319188D01*
X218555000Y-48306928D01*
X218365750Y-48310000D01*
X218207000Y-48468750D01*
X218207000Y-49255500D01*
X218227000Y-49255500D01*
X218227000Y-49509500D01*
X218207000Y-49509500D01*
X218207000Y-49529500D01*
X217953000Y-49529500D01*
X217953000Y-49509500D01*
X217128750Y-49509500D01*
X217023250Y-49615000D01*
X216293001Y-49615000D01*
X216009817Y-49382597D01*
X215682348Y-49207561D01*
X215327024Y-49099775D01*
X215050097Y-49072500D01*
X215050089Y-49072500D01*
X214957500Y-49063381D01*
X214864911Y-49072500D01*
X187738293Y-49072500D01*
X187610793Y-48945000D01*
X216966928Y-48945000D01*
X216970000Y-49096750D01*
X217128750Y-49255500D01*
X217953000Y-49255500D01*
X217953000Y-48468750D01*
X217794250Y-48310000D01*
X217605000Y-48306928D01*
X217480518Y-48319188D01*
X217360820Y-48355498D01*
X217250506Y-48414463D01*
X217153815Y-48493815D01*
X217074463Y-48590506D01*
X217015498Y-48700820D01*
X216979188Y-48820518D01*
X216966928Y-48945000D01*
X187610793Y-48945000D01*
X186388512Y-47722720D01*
X186388512Y-47715852D01*
X236115000Y-47715852D01*
X236115000Y-48284148D01*
X236225869Y-48841523D01*
X236443346Y-49366560D01*
X236759074Y-49839080D01*
X237160920Y-50240926D01*
X237633440Y-50556654D01*
X238158477Y-50774131D01*
X238715852Y-50885000D01*
X239284148Y-50885000D01*
X239841523Y-50774131D01*
X240366560Y-50556654D01*
X240839080Y-50240926D01*
X241240926Y-49839080D01*
X241556654Y-49366560D01*
X241774131Y-48841523D01*
X241885000Y-48284148D01*
X241885000Y-47715852D01*
X241774131Y-47158477D01*
X241556654Y-46633440D01*
X241240926Y-46160920D01*
X240839080Y-45759074D01*
X240366560Y-45443346D01*
X239841523Y-45225869D01*
X239284148Y-45115000D01*
X238715852Y-45115000D01*
X238158477Y-45225869D01*
X237633440Y-45443346D01*
X237160920Y-45759074D01*
X236759074Y-46160920D01*
X236443346Y-46633440D01*
X236225869Y-47158477D01*
X236115000Y-47715852D01*
X186388512Y-47715852D01*
X186388512Y-47249560D01*
X186376252Y-47125078D01*
X186339942Y-47005380D01*
X186280977Y-46895066D01*
X186201625Y-46798375D01*
X186104934Y-46719023D01*
X185994620Y-46660058D01*
X185874922Y-46623748D01*
X185750440Y-46611488D01*
X184556930Y-46611488D01*
X184500000Y-46605881D01*
X184443070Y-46611488D01*
X183249560Y-46611488D01*
X183125078Y-46623748D01*
X183005380Y-46660058D01*
X182895066Y-46719023D01*
X182798375Y-46798375D01*
X182719023Y-46895066D01*
X182660058Y-47005380D01*
X182623748Y-47125078D01*
X182611488Y-47249560D01*
X182611488Y-48443070D01*
X182605881Y-48500000D01*
X174410000Y-48500000D01*
X174410000Y-46982279D01*
X174448147Y-46593225D01*
X174551763Y-46250033D01*
X174720062Y-45933511D01*
X174946637Y-45655701D01*
X175222856Y-45427194D01*
X175538197Y-45256690D01*
X175880656Y-45150681D01*
X176267712Y-45110000D01*
X241967721Y-45110000D01*
X242356775Y-45148147D01*
M02*
