G04 #@! TF.GenerationSoftware,KiCad,Pcbnew,(5.1.5)-3*
G04 #@! TF.CreationDate,2020-04-16T19:35:31+02:00*
G04 #@! TF.ProjectId,5vfrommains,35766672-6f6d-46d6-9169-6e732e6b6963,rev?*
G04 #@! TF.SameCoordinates,Original*
G04 #@! TF.FileFunction,Copper,L1,Top*
G04 #@! TF.FilePolarity,Positive*
%FSLAX46Y46*%
G04 Gerber Fmt 4.6, Leading zero omitted, Abs format (unit mm)*
G04 Created by KiCad (PCBNEW (5.1.5)-3) date 2020-04-16 19:35:31*
%MOMM*%
%LPD*%
G04 APERTURE LIST*
%ADD10C,2.000000*%
%ADD11R,2.000000X2.000000*%
%ADD12C,3.000000*%
%ADD13R,3.000000X3.000000*%
%ADD14C,1.600000*%
%ADD15R,1.600000X1.600000*%
%ADD16C,6.000000*%
%ADD17C,4.500000*%
%ADD18C,0.100000*%
%ADD19O,1.905000X2.000000*%
%ADD20R,1.905000X2.000000*%
%ADD21O,2.200000X2.200000*%
%ADD22R,2.200000X2.200000*%
%ADD23C,0.800000*%
%ADD24C,2.500000*%
%ADD25C,0.254000*%
G04 APERTURE END LIST*
D10*
X235000000Y-95900000D03*
X235000000Y-100900000D03*
X235000000Y-105900000D03*
X235000000Y-110900000D03*
X235000000Y-115900000D03*
X235000000Y-120900000D03*
X207500000Y-120900000D03*
X207500000Y-115900000D03*
X207500000Y-100900000D03*
D11*
X207500000Y-95900000D03*
D12*
X191000000Y-87500000D03*
X191000000Y-110000000D03*
D13*
X184500000Y-63960000D03*
X184500000Y-56040000D03*
X187500000Y-130060000D03*
X187500000Y-122140000D03*
D14*
X198250000Y-58000000D03*
D15*
X198250000Y-55500000D03*
D16*
X212050000Y-60000000D03*
X237450000Y-60000000D03*
D17*
X179000000Y-48000000D03*
X239000000Y-48000000D03*
G04 #@! TA.AperFunction,SMDPad,CuDef*
D18*
G36*
X220680142Y-48726174D02*
G01*
X220703803Y-48729684D01*
X220727007Y-48735496D01*
X220749529Y-48743554D01*
X220771153Y-48753782D01*
X220791670Y-48766079D01*
X220810883Y-48780329D01*
X220828607Y-48796393D01*
X220844671Y-48814117D01*
X220858921Y-48833330D01*
X220871218Y-48853847D01*
X220881446Y-48875471D01*
X220889504Y-48897993D01*
X220895316Y-48921197D01*
X220898826Y-48944858D01*
X220900000Y-48968750D01*
X220900000Y-49456250D01*
X220898826Y-49480142D01*
X220895316Y-49503803D01*
X220889504Y-49527007D01*
X220881446Y-49549529D01*
X220871218Y-49571153D01*
X220858921Y-49591670D01*
X220844671Y-49610883D01*
X220828607Y-49628607D01*
X220810883Y-49644671D01*
X220791670Y-49658921D01*
X220771153Y-49671218D01*
X220749529Y-49681446D01*
X220727007Y-49689504D01*
X220703803Y-49695316D01*
X220680142Y-49698826D01*
X220656250Y-49700000D01*
X219743750Y-49700000D01*
X219719858Y-49698826D01*
X219696197Y-49695316D01*
X219672993Y-49689504D01*
X219650471Y-49681446D01*
X219628847Y-49671218D01*
X219608330Y-49658921D01*
X219589117Y-49644671D01*
X219571393Y-49628607D01*
X219555329Y-49610883D01*
X219541079Y-49591670D01*
X219528782Y-49571153D01*
X219518554Y-49549529D01*
X219510496Y-49527007D01*
X219504684Y-49503803D01*
X219501174Y-49480142D01*
X219500000Y-49456250D01*
X219500000Y-48968750D01*
X219501174Y-48944858D01*
X219504684Y-48921197D01*
X219510496Y-48897993D01*
X219518554Y-48875471D01*
X219528782Y-48853847D01*
X219541079Y-48833330D01*
X219555329Y-48814117D01*
X219571393Y-48796393D01*
X219589117Y-48780329D01*
X219608330Y-48766079D01*
X219628847Y-48753782D01*
X219650471Y-48743554D01*
X219672993Y-48735496D01*
X219696197Y-48729684D01*
X219719858Y-48726174D01*
X219743750Y-48725000D01*
X220656250Y-48725000D01*
X220680142Y-48726174D01*
G37*
G04 #@! TD.AperFunction*
G04 #@! TA.AperFunction,SMDPad,CuDef*
G36*
X220680142Y-50601174D02*
G01*
X220703803Y-50604684D01*
X220727007Y-50610496D01*
X220749529Y-50618554D01*
X220771153Y-50628782D01*
X220791670Y-50641079D01*
X220810883Y-50655329D01*
X220828607Y-50671393D01*
X220844671Y-50689117D01*
X220858921Y-50708330D01*
X220871218Y-50728847D01*
X220881446Y-50750471D01*
X220889504Y-50772993D01*
X220895316Y-50796197D01*
X220898826Y-50819858D01*
X220900000Y-50843750D01*
X220900000Y-51331250D01*
X220898826Y-51355142D01*
X220895316Y-51378803D01*
X220889504Y-51402007D01*
X220881446Y-51424529D01*
X220871218Y-51446153D01*
X220858921Y-51466670D01*
X220844671Y-51485883D01*
X220828607Y-51503607D01*
X220810883Y-51519671D01*
X220791670Y-51533921D01*
X220771153Y-51546218D01*
X220749529Y-51556446D01*
X220727007Y-51564504D01*
X220703803Y-51570316D01*
X220680142Y-51573826D01*
X220656250Y-51575000D01*
X219743750Y-51575000D01*
X219719858Y-51573826D01*
X219696197Y-51570316D01*
X219672993Y-51564504D01*
X219650471Y-51556446D01*
X219628847Y-51546218D01*
X219608330Y-51533921D01*
X219589117Y-51519671D01*
X219571393Y-51503607D01*
X219555329Y-51485883D01*
X219541079Y-51466670D01*
X219528782Y-51446153D01*
X219518554Y-51424529D01*
X219510496Y-51402007D01*
X219504684Y-51378803D01*
X219501174Y-51355142D01*
X219500000Y-51331250D01*
X219500000Y-50843750D01*
X219501174Y-50819858D01*
X219504684Y-50796197D01*
X219510496Y-50772993D01*
X219518554Y-50750471D01*
X219528782Y-50728847D01*
X219541079Y-50708330D01*
X219555329Y-50689117D01*
X219571393Y-50671393D01*
X219589117Y-50655329D01*
X219608330Y-50641079D01*
X219628847Y-50628782D01*
X219650471Y-50618554D01*
X219672993Y-50610496D01*
X219696197Y-50604684D01*
X219719858Y-50601174D01*
X219743750Y-50600000D01*
X220656250Y-50600000D01*
X220680142Y-50601174D01*
G37*
G04 #@! TD.AperFunction*
D19*
X227330000Y-64350000D03*
X224790000Y-64350000D03*
D20*
X222250000Y-64350000D03*
D17*
X237500000Y-140000000D03*
X200500000Y-140000000D03*
D21*
X228200000Y-78720000D03*
D22*
X228200000Y-71100000D03*
D21*
X216200000Y-78720000D03*
D22*
X216200000Y-71100000D03*
D21*
X233700000Y-70980000D03*
D22*
X233700000Y-78600000D03*
D21*
X222200000Y-70980000D03*
D22*
X222200000Y-78600000D03*
G04 #@! TA.AperFunction,SMDPad,CuDef*
D18*
G36*
X218357691Y-48946053D02*
G01*
X218378926Y-48949203D01*
X218399750Y-48954419D01*
X218419962Y-48961651D01*
X218439368Y-48970830D01*
X218457781Y-48981866D01*
X218475024Y-48994654D01*
X218490930Y-49009070D01*
X218505346Y-49024976D01*
X218518134Y-49042219D01*
X218529170Y-49060632D01*
X218538349Y-49080038D01*
X218545581Y-49100250D01*
X218550797Y-49121074D01*
X218553947Y-49142309D01*
X218555000Y-49163750D01*
X218555000Y-49601250D01*
X218553947Y-49622691D01*
X218550797Y-49643926D01*
X218545581Y-49664750D01*
X218538349Y-49684962D01*
X218529170Y-49704368D01*
X218518134Y-49722781D01*
X218505346Y-49740024D01*
X218490930Y-49755930D01*
X218475024Y-49770346D01*
X218457781Y-49783134D01*
X218439368Y-49794170D01*
X218419962Y-49803349D01*
X218399750Y-49810581D01*
X218378926Y-49815797D01*
X218357691Y-49818947D01*
X218336250Y-49820000D01*
X217823750Y-49820000D01*
X217802309Y-49818947D01*
X217781074Y-49815797D01*
X217760250Y-49810581D01*
X217740038Y-49803349D01*
X217720632Y-49794170D01*
X217702219Y-49783134D01*
X217684976Y-49770346D01*
X217669070Y-49755930D01*
X217654654Y-49740024D01*
X217641866Y-49722781D01*
X217630830Y-49704368D01*
X217621651Y-49684962D01*
X217614419Y-49664750D01*
X217609203Y-49643926D01*
X217606053Y-49622691D01*
X217605000Y-49601250D01*
X217605000Y-49163750D01*
X217606053Y-49142309D01*
X217609203Y-49121074D01*
X217614419Y-49100250D01*
X217621651Y-49080038D01*
X217630830Y-49060632D01*
X217641866Y-49042219D01*
X217654654Y-49024976D01*
X217669070Y-49009070D01*
X217684976Y-48994654D01*
X217702219Y-48981866D01*
X217720632Y-48970830D01*
X217740038Y-48961651D01*
X217760250Y-48954419D01*
X217781074Y-48949203D01*
X217802309Y-48946053D01*
X217823750Y-48945000D01*
X218336250Y-48945000D01*
X218357691Y-48946053D01*
G37*
G04 #@! TD.AperFunction*
G04 #@! TA.AperFunction,SMDPad,CuDef*
G36*
X218357691Y-50521053D02*
G01*
X218378926Y-50524203D01*
X218399750Y-50529419D01*
X218419962Y-50536651D01*
X218439368Y-50545830D01*
X218457781Y-50556866D01*
X218475024Y-50569654D01*
X218490930Y-50584070D01*
X218505346Y-50599976D01*
X218518134Y-50617219D01*
X218529170Y-50635632D01*
X218538349Y-50655038D01*
X218545581Y-50675250D01*
X218550797Y-50696074D01*
X218553947Y-50717309D01*
X218555000Y-50738750D01*
X218555000Y-51176250D01*
X218553947Y-51197691D01*
X218550797Y-51218926D01*
X218545581Y-51239750D01*
X218538349Y-51259962D01*
X218529170Y-51279368D01*
X218518134Y-51297781D01*
X218505346Y-51315024D01*
X218490930Y-51330930D01*
X218475024Y-51345346D01*
X218457781Y-51358134D01*
X218439368Y-51369170D01*
X218419962Y-51378349D01*
X218399750Y-51385581D01*
X218378926Y-51390797D01*
X218357691Y-51393947D01*
X218336250Y-51395000D01*
X217823750Y-51395000D01*
X217802309Y-51393947D01*
X217781074Y-51390797D01*
X217760250Y-51385581D01*
X217740038Y-51378349D01*
X217720632Y-51369170D01*
X217702219Y-51358134D01*
X217684976Y-51345346D01*
X217669070Y-51330930D01*
X217654654Y-51315024D01*
X217641866Y-51297781D01*
X217630830Y-51279368D01*
X217621651Y-51259962D01*
X217614419Y-51239750D01*
X217609203Y-51218926D01*
X217606053Y-51197691D01*
X217605000Y-51176250D01*
X217605000Y-50738750D01*
X217606053Y-50717309D01*
X217609203Y-50696074D01*
X217614419Y-50675250D01*
X217621651Y-50655038D01*
X217630830Y-50635632D01*
X217641866Y-50617219D01*
X217654654Y-50599976D01*
X217669070Y-50584070D01*
X217684976Y-50569654D01*
X217702219Y-50556866D01*
X217720632Y-50545830D01*
X217740038Y-50536651D01*
X217760250Y-50529419D01*
X217781074Y-50524203D01*
X217802309Y-50521053D01*
X217823750Y-50520000D01*
X218336250Y-50520000D01*
X218357691Y-50521053D01*
G37*
G04 #@! TD.AperFunction*
D10*
X187000000Y-75500000D03*
D11*
X187000000Y-70500000D03*
D10*
X199250000Y-75500000D03*
D11*
X199250000Y-70500000D03*
D23*
X242500000Y-47500000D03*
X235000000Y-47500000D03*
X227500000Y-47500000D03*
X220000000Y-47500000D03*
X212500000Y-47500000D03*
X205000000Y-47500000D03*
X195000000Y-46250000D03*
X205000000Y-67500000D03*
X195000000Y-82500000D03*
X195000000Y-140000000D03*
X205000000Y-142500000D03*
X212500000Y-142500000D03*
X220000000Y-142500000D03*
X227500000Y-142500000D03*
X235000000Y-142500000D03*
X242500000Y-142500000D03*
X242500000Y-135000000D03*
X242500000Y-127500000D03*
X242500000Y-120000000D03*
X242500000Y-112500000D03*
X242500000Y-105000000D03*
X242500000Y-97500000D03*
X242500000Y-90000000D03*
X242500000Y-82500000D03*
X242500000Y-75000000D03*
X240000000Y-67500000D03*
X232500000Y-67500000D03*
X205000000Y-77500000D03*
X205000000Y-80000000D03*
X225000000Y-52500000D03*
X232500000Y-52500000D03*
X240000000Y-52500000D03*
X175000000Y-85000000D03*
X175000000Y-75000000D03*
X175000000Y-65000000D03*
X175000000Y-57500000D03*
X175000000Y-50000000D03*
X175000000Y-92500000D03*
X175000000Y-100000000D03*
X175000000Y-110000000D03*
X175000000Y-117500000D03*
X175000000Y-127500000D03*
X175000000Y-137500000D03*
X180000000Y-142500000D03*
X187500000Y-142500000D03*
X185000000Y-135000000D03*
X182500000Y-105000000D03*
X182500000Y-95000000D03*
X182500000Y-87500000D03*
X218000000Y-48000000D03*
X181000000Y-80000000D03*
X189500000Y-79500000D03*
X202500000Y-62500000D03*
X197500000Y-62500000D03*
X192500000Y-62500000D03*
X192500000Y-58500000D03*
X195000000Y-77500000D03*
X192500000Y-67500000D03*
X207500000Y-72500000D03*
X212500000Y-77500000D03*
X210000000Y-75000000D03*
X188500000Y-46500000D03*
X184500000Y-46500000D03*
X184000000Y-51500000D03*
X191000000Y-51500000D03*
X197500000Y-49000000D03*
D24*
X227330000Y-57267500D02*
X227330000Y-64350000D01*
X224412501Y-54350001D02*
X227330000Y-57267500D01*
X223149999Y-53388001D02*
X224111999Y-54350001D01*
X221562500Y-51500000D02*
X223149999Y-53087499D01*
X224111999Y-54350001D02*
X224412501Y-54350001D01*
X223149999Y-53087499D02*
X223149999Y-53388001D01*
X215500000Y-51500000D02*
X221562500Y-51500000D01*
X214957500Y-50957500D02*
X215500000Y-51500000D01*
X199207500Y-50957500D02*
X214957500Y-50957500D01*
X199207500Y-51242500D02*
X199207500Y-50957500D01*
X198250000Y-52200000D02*
X199207500Y-51242500D01*
X198250000Y-55500000D02*
X198250000Y-52200000D01*
X194165000Y-56000000D02*
X199207500Y-50957500D01*
X184500000Y-56040000D02*
X184540000Y-56000000D01*
X184540000Y-56000000D02*
X194165000Y-56000000D01*
X222200000Y-89614213D02*
X222200000Y-82200000D01*
X222200000Y-82200000D02*
X222200000Y-78600000D01*
X234250001Y-100250001D02*
X232750001Y-100250001D01*
X235250000Y-101250000D02*
X234250001Y-100250001D01*
X222250000Y-89750000D02*
X222200000Y-89614213D01*
X216200000Y-78720000D02*
X216200000Y-85200000D01*
X220750000Y-89750000D02*
X222250000Y-89750000D01*
X216200000Y-85200000D02*
X220750000Y-89750000D01*
X232750001Y-100250001D02*
X226200000Y-94600000D01*
X226200000Y-94600000D02*
X222250000Y-89750000D01*
X230000000Y-98400000D02*
X226200000Y-94600000D01*
X230000000Y-118200000D02*
X230000000Y-98400000D01*
X235000000Y-120900000D02*
X232700000Y-120900000D01*
X232700000Y-120900000D02*
X230000000Y-118200000D01*
X222080000Y-78720000D02*
X222200000Y-78600000D01*
X216200000Y-78720000D02*
X222080000Y-78720000D01*
X235000000Y-115900000D02*
X239500000Y-111400000D01*
X239500000Y-111400000D02*
X239500000Y-96800000D01*
X238600000Y-95900000D02*
X235000000Y-95900000D01*
X239500000Y-96800000D02*
X238600000Y-95900000D01*
X233700000Y-91000000D02*
X233700000Y-78600000D01*
X239500000Y-96800000D02*
X233700000Y-91000000D01*
X235000000Y-92300000D02*
X233700000Y-91000000D01*
X235000000Y-95900000D02*
X235000000Y-92300000D01*
X234000001Y-94900001D02*
X234000001Y-93100001D01*
X235000000Y-95900000D02*
X234000001Y-94900001D01*
X228200000Y-87300000D02*
X228200000Y-78720000D01*
X234000001Y-93100001D02*
X228200000Y-87300000D01*
X233580000Y-78720000D02*
X233700000Y-78600000D01*
X228200000Y-78720000D02*
X233580000Y-78720000D01*
X198400000Y-130000000D02*
X207500000Y-120900000D01*
X187500000Y-130600000D02*
X188100000Y-130000000D01*
X188100000Y-130000000D02*
X198400000Y-130000000D01*
X187500000Y-113500000D02*
X187500000Y-121600000D01*
X191000000Y-110000000D02*
X187500000Y-113500000D01*
X199000000Y-87500000D02*
X191000000Y-87500000D01*
X207750000Y-96250000D02*
X199000000Y-87500000D01*
X216200000Y-70400000D02*
X222250000Y-64350000D01*
X216200000Y-71100000D02*
X216200000Y-70400000D01*
X222250000Y-65500000D02*
X222250000Y-64350000D01*
X228200000Y-71100000D02*
X227850000Y-71100000D01*
X227850000Y-71100000D02*
X222250000Y-65500000D01*
X211500000Y-70000000D02*
X187500000Y-70000000D01*
X216200000Y-71100000D02*
X212600000Y-71100000D01*
X187500000Y-70000000D02*
X187000000Y-70500000D01*
X212600000Y-71100000D02*
X211500000Y-70000000D01*
D25*
G36*
X242356775Y-45148147D02*
G01*
X242699967Y-45251763D01*
X243016489Y-45420062D01*
X243294299Y-45646637D01*
X243522806Y-45922856D01*
X243693310Y-46238197D01*
X243799319Y-46580656D01*
X243840000Y-46967712D01*
X243840001Y-141867711D01*
X243801853Y-142256776D01*
X243698238Y-142599964D01*
X243529939Y-142916489D01*
X243303365Y-143194296D01*
X243027146Y-143422805D01*
X242711803Y-143593310D01*
X242369344Y-143699319D01*
X241982288Y-143740000D01*
X176282279Y-143740000D01*
X175893224Y-143701853D01*
X175550036Y-143598238D01*
X175233511Y-143429939D01*
X174955704Y-143203365D01*
X174727195Y-142927146D01*
X174556690Y-142611803D01*
X174450681Y-142269344D01*
X174410000Y-141882288D01*
X174410000Y-139715852D01*
X197615000Y-139715852D01*
X197615000Y-140284148D01*
X197725869Y-140841523D01*
X197943346Y-141366560D01*
X198259074Y-141839080D01*
X198660920Y-142240926D01*
X199133440Y-142556654D01*
X199658477Y-142774131D01*
X200215852Y-142885000D01*
X200784148Y-142885000D01*
X201341523Y-142774131D01*
X201866560Y-142556654D01*
X202339080Y-142240926D01*
X202740926Y-141839080D01*
X203056654Y-141366560D01*
X203274131Y-140841523D01*
X203385000Y-140284148D01*
X203385000Y-139715852D01*
X234615000Y-139715852D01*
X234615000Y-140284148D01*
X234725869Y-140841523D01*
X234943346Y-141366560D01*
X235259074Y-141839080D01*
X235660920Y-142240926D01*
X236133440Y-142556654D01*
X236658477Y-142774131D01*
X237215852Y-142885000D01*
X237784148Y-142885000D01*
X238341523Y-142774131D01*
X238866560Y-142556654D01*
X239339080Y-142240926D01*
X239740926Y-141839080D01*
X240056654Y-141366560D01*
X240274131Y-140841523D01*
X240385000Y-140284148D01*
X240385000Y-139715852D01*
X240274131Y-139158477D01*
X240056654Y-138633440D01*
X239740926Y-138160920D01*
X239339080Y-137759074D01*
X238866560Y-137443346D01*
X238341523Y-137225869D01*
X237784148Y-137115000D01*
X237215852Y-137115000D01*
X236658477Y-137225869D01*
X236133440Y-137443346D01*
X235660920Y-137759074D01*
X235259074Y-138160920D01*
X234943346Y-138633440D01*
X234725869Y-139158477D01*
X234615000Y-139715852D01*
X203385000Y-139715852D01*
X203274131Y-139158477D01*
X203056654Y-138633440D01*
X202740926Y-138160920D01*
X202339080Y-137759074D01*
X201866560Y-137443346D01*
X201341523Y-137225869D01*
X200784148Y-137115000D01*
X200215852Y-137115000D01*
X199658477Y-137225869D01*
X199133440Y-137443346D01*
X198660920Y-137759074D01*
X198259074Y-138160920D01*
X197943346Y-138633440D01*
X197725869Y-139158477D01*
X197615000Y-139715852D01*
X174410000Y-139715852D01*
X174410000Y-128560000D01*
X185361928Y-128560000D01*
X185361928Y-131560000D01*
X185374188Y-131684482D01*
X185410498Y-131804180D01*
X185469463Y-131914494D01*
X185548815Y-132011185D01*
X185645506Y-132090537D01*
X185755820Y-132149502D01*
X185875518Y-132185812D01*
X186000000Y-132198072D01*
X186491031Y-132198072D01*
X186775152Y-132349938D01*
X187130476Y-132457725D01*
X187500000Y-132494119D01*
X187869524Y-132457725D01*
X188224848Y-132349938D01*
X188508969Y-132198072D01*
X189000000Y-132198072D01*
X189124482Y-132185812D01*
X189244180Y-132149502D01*
X189354494Y-132090537D01*
X189451185Y-132011185D01*
X189530537Y-131914494D01*
X189546302Y-131885000D01*
X198307411Y-131885000D01*
X198400000Y-131894119D01*
X198492589Y-131885000D01*
X198492597Y-131885000D01*
X198769524Y-131857725D01*
X199124848Y-131749939D01*
X199452317Y-131574903D01*
X199739345Y-131339345D01*
X199798374Y-131267418D01*
X208898371Y-122167421D01*
X209074902Y-121952318D01*
X209249938Y-121624850D01*
X209357724Y-121269525D01*
X209394119Y-120900001D01*
X209357724Y-120530477D01*
X209249938Y-120175152D01*
X209074902Y-119847684D01*
X208839344Y-119560656D01*
X208552316Y-119325098D01*
X208224848Y-119150062D01*
X207869523Y-119042276D01*
X207499999Y-119005881D01*
X207130475Y-119042276D01*
X206775150Y-119150062D01*
X206447682Y-119325098D01*
X206232579Y-119501629D01*
X197619208Y-128115000D01*
X189456261Y-128115000D01*
X189451185Y-128108815D01*
X189354494Y-128029463D01*
X189244180Y-127970498D01*
X189124482Y-127934188D01*
X189000000Y-127921928D01*
X186000000Y-127921928D01*
X185875518Y-127934188D01*
X185755820Y-127970498D01*
X185645506Y-128029463D01*
X185548815Y-128108815D01*
X185469463Y-128205506D01*
X185410498Y-128315820D01*
X185374188Y-128435518D01*
X185361928Y-128560000D01*
X174410000Y-128560000D01*
X174410000Y-126166801D01*
X181842740Y-126166801D01*
X181843640Y-126175972D01*
X181864041Y-126370069D01*
X181876068Y-126428658D01*
X181887277Y-126487423D01*
X181889941Y-126496245D01*
X181947653Y-126682683D01*
X181970838Y-126737838D01*
X181993242Y-126793291D01*
X181997568Y-126801427D01*
X182090393Y-126973104D01*
X182123846Y-127022699D01*
X182156600Y-127072753D01*
X182162424Y-127079894D01*
X182286828Y-127230272D01*
X182329263Y-127272411D01*
X182371126Y-127315161D01*
X182378227Y-127321034D01*
X182529469Y-127444384D01*
X182579277Y-127477477D01*
X182628651Y-127511284D01*
X182636757Y-127515667D01*
X182809080Y-127607292D01*
X182864392Y-127630090D01*
X182919366Y-127653652D01*
X182928169Y-127656377D01*
X183115006Y-127712786D01*
X183173686Y-127724405D01*
X183232196Y-127736842D01*
X183241361Y-127737805D01*
X183435594Y-127756850D01*
X183435598Y-127756850D01*
X183467581Y-127760000D01*
X191532419Y-127760000D01*
X191565387Y-127756753D01*
X191578367Y-127756753D01*
X191587532Y-127755790D01*
X191781481Y-127734035D01*
X191839966Y-127721603D01*
X191898676Y-127709978D01*
X191907479Y-127707253D01*
X192093509Y-127648240D01*
X192148519Y-127624662D01*
X192203794Y-127601880D01*
X192211900Y-127597497D01*
X192382925Y-127503475D01*
X192432264Y-127469692D01*
X192482106Y-127436577D01*
X192489206Y-127430703D01*
X192638712Y-127305253D01*
X192680557Y-127262523D01*
X192723013Y-127220362D01*
X192728837Y-127213220D01*
X192851128Y-127061121D01*
X192883887Y-127011059D01*
X192917331Y-126961477D01*
X192921657Y-126953340D01*
X193012077Y-126780385D01*
X193034475Y-126724947D01*
X193057669Y-126669772D01*
X193060332Y-126660950D01*
X193115435Y-126473725D01*
X193126633Y-126415017D01*
X193138672Y-126356372D01*
X193139570Y-126347201D01*
X193157259Y-126152839D01*
X193156842Y-126093057D01*
X193157260Y-126033199D01*
X193156360Y-126024028D01*
X193135959Y-125829931D01*
X193123934Y-125771348D01*
X193112723Y-125712577D01*
X193110059Y-125703755D01*
X193052347Y-125517317D01*
X193029162Y-125462162D01*
X193006758Y-125406709D01*
X193002432Y-125398573D01*
X192909607Y-125226896D01*
X192876139Y-125177278D01*
X192843400Y-125127247D01*
X192837576Y-125120106D01*
X192713172Y-124969728D01*
X192670737Y-124927589D01*
X192628874Y-124884839D01*
X192621773Y-124878966D01*
X192470531Y-124755616D01*
X192420738Y-124722534D01*
X192371349Y-124688716D01*
X192363243Y-124684333D01*
X192190921Y-124592708D01*
X192135606Y-124569909D01*
X192080634Y-124546348D01*
X192071831Y-124543623D01*
X191884995Y-124487214D01*
X191826307Y-124475594D01*
X191767804Y-124463158D01*
X191758639Y-124462195D01*
X191564405Y-124443150D01*
X191564402Y-124443150D01*
X191532419Y-124440000D01*
X183467581Y-124440000D01*
X183434613Y-124443247D01*
X183421633Y-124443247D01*
X183412468Y-124444210D01*
X183218518Y-124465965D01*
X183160019Y-124478400D01*
X183101325Y-124490022D01*
X183092522Y-124492747D01*
X182906491Y-124551760D01*
X182851509Y-124575326D01*
X182796206Y-124598120D01*
X182788100Y-124602503D01*
X182617075Y-124696525D01*
X182567752Y-124730298D01*
X182517894Y-124763423D01*
X182510794Y-124769297D01*
X182361288Y-124894747D01*
X182319443Y-124937477D01*
X182276987Y-124979638D01*
X182271163Y-124986780D01*
X182148872Y-125138880D01*
X182116114Y-125188939D01*
X182082669Y-125238523D01*
X182078343Y-125246660D01*
X181987923Y-125419616D01*
X181965535Y-125475028D01*
X181942331Y-125530228D01*
X181939668Y-125539050D01*
X181884565Y-125726276D01*
X181873360Y-125785014D01*
X181861328Y-125843628D01*
X181860429Y-125852800D01*
X181842741Y-126047161D01*
X181843158Y-126106943D01*
X181842740Y-126166801D01*
X174410000Y-126166801D01*
X174410000Y-120640000D01*
X185361928Y-120640000D01*
X185361928Y-123640000D01*
X185374188Y-123764482D01*
X185410498Y-123884180D01*
X185469463Y-123994494D01*
X185548815Y-124091185D01*
X185645506Y-124170537D01*
X185755820Y-124229502D01*
X185875518Y-124265812D01*
X186000000Y-124278072D01*
X189000000Y-124278072D01*
X189124482Y-124265812D01*
X189244180Y-124229502D01*
X189354494Y-124170537D01*
X189451185Y-124091185D01*
X189530537Y-123994494D01*
X189589502Y-123884180D01*
X189625812Y-123764482D01*
X189638072Y-123640000D01*
X189638072Y-120640000D01*
X189625812Y-120515518D01*
X189589502Y-120395820D01*
X189530537Y-120285506D01*
X189451185Y-120188815D01*
X189385000Y-120134499D01*
X189385000Y-115738967D01*
X205865000Y-115738967D01*
X205865000Y-116061033D01*
X205927832Y-116376912D01*
X206051082Y-116674463D01*
X206230013Y-116942252D01*
X206457748Y-117169987D01*
X206725537Y-117348918D01*
X207023088Y-117472168D01*
X207338967Y-117535000D01*
X207661033Y-117535000D01*
X207976912Y-117472168D01*
X208274463Y-117348918D01*
X208542252Y-117169987D01*
X208769987Y-116942252D01*
X208948918Y-116674463D01*
X209072168Y-116376912D01*
X209135000Y-116061033D01*
X209135000Y-115738967D01*
X209072168Y-115423088D01*
X208948918Y-115125537D01*
X208769987Y-114857748D01*
X208542252Y-114630013D01*
X208274463Y-114451082D01*
X207976912Y-114327832D01*
X207661033Y-114265000D01*
X207338967Y-114265000D01*
X207023088Y-114327832D01*
X206725537Y-114451082D01*
X206457748Y-114630013D01*
X206230013Y-114857748D01*
X206051082Y-115125537D01*
X205927832Y-115423088D01*
X205865000Y-115738967D01*
X189385000Y-115738967D01*
X189385000Y-114280792D01*
X191610377Y-112055415D01*
X191622756Y-112052953D01*
X192011302Y-111892012D01*
X192360983Y-111658363D01*
X192658363Y-111360983D01*
X192892012Y-111011302D01*
X193052953Y-110622756D01*
X193135000Y-110210279D01*
X193135000Y-109789721D01*
X193052953Y-109377244D01*
X192892012Y-108988698D01*
X192777155Y-108816801D01*
X199092740Y-108816801D01*
X199093640Y-108825972D01*
X199114041Y-109020069D01*
X199126068Y-109078658D01*
X199137277Y-109137423D01*
X199139941Y-109146245D01*
X199197653Y-109332683D01*
X199220838Y-109387838D01*
X199243242Y-109443291D01*
X199247568Y-109451427D01*
X199340393Y-109623104D01*
X199373846Y-109672699D01*
X199406600Y-109722753D01*
X199412424Y-109729894D01*
X199536828Y-109880272D01*
X199579263Y-109922411D01*
X199621126Y-109965161D01*
X199628227Y-109971034D01*
X199779469Y-110094384D01*
X199829277Y-110127477D01*
X199878651Y-110161284D01*
X199886757Y-110165667D01*
X200059080Y-110257292D01*
X200114392Y-110280090D01*
X200169366Y-110303652D01*
X200178169Y-110306377D01*
X200365006Y-110362786D01*
X200423686Y-110374405D01*
X200482196Y-110386842D01*
X200491361Y-110387805D01*
X200685594Y-110406850D01*
X200685598Y-110406850D01*
X200717581Y-110410000D01*
X216467721Y-110410000D01*
X216565424Y-110419580D01*
X216628356Y-110438580D01*
X216686405Y-110469445D01*
X216737343Y-110510989D01*
X216779248Y-110561644D01*
X216810515Y-110619471D01*
X216829956Y-110682272D01*
X216840000Y-110777835D01*
X216840001Y-124532419D01*
X216843247Y-124565377D01*
X216843247Y-124578367D01*
X216844210Y-124587532D01*
X216865965Y-124781481D01*
X216878397Y-124839966D01*
X216890022Y-124898676D01*
X216892747Y-124907479D01*
X216951760Y-125093509D01*
X216975338Y-125148519D01*
X216998120Y-125203794D01*
X217002503Y-125211900D01*
X217096525Y-125382925D01*
X217130308Y-125432264D01*
X217163423Y-125482106D01*
X217169297Y-125489206D01*
X217294747Y-125638712D01*
X217337477Y-125680557D01*
X217379638Y-125723013D01*
X217386780Y-125728837D01*
X217538879Y-125851128D01*
X217588941Y-125883887D01*
X217638523Y-125917331D01*
X217646660Y-125921657D01*
X217646663Y-125921659D01*
X217646667Y-125921660D01*
X217819615Y-126012077D01*
X217875053Y-126034475D01*
X217930228Y-126057669D01*
X217939050Y-126060332D01*
X218126275Y-126115435D01*
X218184983Y-126126633D01*
X218243628Y-126138672D01*
X218252799Y-126139570D01*
X218447161Y-126157259D01*
X218506943Y-126156842D01*
X218566801Y-126157260D01*
X218575972Y-126156360D01*
X218770069Y-126135959D01*
X218828658Y-126123932D01*
X218887423Y-126112723D01*
X218896245Y-126110059D01*
X219082683Y-126052347D01*
X219137838Y-126029162D01*
X219193291Y-126006758D01*
X219201427Y-126002432D01*
X219373104Y-125909607D01*
X219422699Y-125876154D01*
X219472753Y-125843400D01*
X219479894Y-125837576D01*
X219630272Y-125713172D01*
X219672411Y-125670737D01*
X219715161Y-125628874D01*
X219721034Y-125621773D01*
X219844384Y-125470531D01*
X219877477Y-125420723D01*
X219911284Y-125371349D01*
X219915667Y-125363243D01*
X220007292Y-125190920D01*
X220030090Y-125135608D01*
X220053652Y-125080634D01*
X220056377Y-125071831D01*
X220112786Y-124884994D01*
X220124405Y-124826314D01*
X220136842Y-124767804D01*
X220137805Y-124758639D01*
X220156850Y-124564406D01*
X220156850Y-124564402D01*
X220160000Y-124532419D01*
X220160000Y-92967581D01*
X220156753Y-92934613D01*
X220156753Y-92921633D01*
X220155790Y-92912468D01*
X220134035Y-92718518D01*
X220121600Y-92660019D01*
X220109978Y-92601325D01*
X220107253Y-92592522D01*
X220048240Y-92406491D01*
X220024674Y-92351509D01*
X220001880Y-92296206D01*
X219997497Y-92288100D01*
X219903475Y-92117075D01*
X219869702Y-92067752D01*
X219836577Y-92017894D01*
X219830703Y-92010794D01*
X219705253Y-91861288D01*
X219662523Y-91819443D01*
X219620362Y-91776987D01*
X219613220Y-91771163D01*
X219461120Y-91648872D01*
X219411061Y-91616114D01*
X219361477Y-91582669D01*
X219353340Y-91578343D01*
X219353337Y-91578341D01*
X219353333Y-91578340D01*
X219180384Y-91487923D01*
X219124972Y-91465535D01*
X219069772Y-91442331D01*
X219060950Y-91439668D01*
X218873724Y-91384565D01*
X218814986Y-91373360D01*
X218756372Y-91361328D01*
X218747200Y-91360429D01*
X218552839Y-91342741D01*
X218493057Y-91343158D01*
X218433199Y-91342740D01*
X218424028Y-91343640D01*
X218229931Y-91364041D01*
X218171348Y-91376066D01*
X218112577Y-91387277D01*
X218103755Y-91389941D01*
X217917317Y-91447653D01*
X217862162Y-91470838D01*
X217806709Y-91493242D01*
X217798573Y-91497568D01*
X217626896Y-91590393D01*
X217577278Y-91623861D01*
X217527247Y-91656600D01*
X217520106Y-91662424D01*
X217369728Y-91786828D01*
X217327589Y-91829263D01*
X217284839Y-91871126D01*
X217278966Y-91878227D01*
X217155616Y-92029469D01*
X217122534Y-92079262D01*
X217088716Y-92128651D01*
X217084333Y-92136757D01*
X216992708Y-92309079D01*
X216969909Y-92364394D01*
X216946348Y-92419366D01*
X216943623Y-92428169D01*
X216887214Y-92615005D01*
X216875594Y-92673693D01*
X216863158Y-92732196D01*
X216862195Y-92741361D01*
X216843150Y-92935595D01*
X216843150Y-92935608D01*
X216840001Y-92967581D01*
X216840000Y-106717721D01*
X216830420Y-106815424D01*
X216811420Y-106878357D01*
X216780554Y-106936406D01*
X216739011Y-106987343D01*
X216688356Y-107029248D01*
X216630529Y-107060515D01*
X216567728Y-107079956D01*
X216472165Y-107090000D01*
X200717581Y-107090000D01*
X200684613Y-107093247D01*
X200671633Y-107093247D01*
X200662468Y-107094210D01*
X200468518Y-107115965D01*
X200410019Y-107128400D01*
X200351325Y-107140022D01*
X200342522Y-107142747D01*
X200156491Y-107201760D01*
X200101509Y-107225326D01*
X200046206Y-107248120D01*
X200038100Y-107252503D01*
X199867075Y-107346525D01*
X199817752Y-107380298D01*
X199767894Y-107413423D01*
X199760794Y-107419297D01*
X199611288Y-107544747D01*
X199569443Y-107587477D01*
X199526987Y-107629638D01*
X199521163Y-107636780D01*
X199398872Y-107788880D01*
X199366114Y-107838939D01*
X199332669Y-107888523D01*
X199328343Y-107896660D01*
X199237923Y-108069616D01*
X199215535Y-108125028D01*
X199192331Y-108180228D01*
X199189668Y-108189050D01*
X199134565Y-108376276D01*
X199123360Y-108435014D01*
X199111328Y-108493628D01*
X199110429Y-108502800D01*
X199092741Y-108697161D01*
X199093158Y-108756943D01*
X199092740Y-108816801D01*
X192777155Y-108816801D01*
X192658363Y-108639017D01*
X192360983Y-108341637D01*
X192011302Y-108107988D01*
X191622756Y-107947047D01*
X191210279Y-107865000D01*
X190789721Y-107865000D01*
X190377244Y-107947047D01*
X189988698Y-108107988D01*
X189639017Y-108341637D01*
X189341637Y-108639017D01*
X189107988Y-108988698D01*
X188947047Y-109377244D01*
X188944585Y-109389623D01*
X186232582Y-112101626D01*
X186160655Y-112160655D01*
X185925097Y-112447683D01*
X185750061Y-112775153D01*
X185642275Y-113130477D01*
X185615000Y-113407404D01*
X185615000Y-113407411D01*
X185605881Y-113500000D01*
X185615000Y-113592589D01*
X185615001Y-120134498D01*
X185548815Y-120188815D01*
X185469463Y-120285506D01*
X185410498Y-120395820D01*
X185374188Y-120515518D01*
X185361928Y-120640000D01*
X174410000Y-120640000D01*
X174410000Y-100738967D01*
X205865000Y-100738967D01*
X205865000Y-101061033D01*
X205927832Y-101376912D01*
X206051082Y-101674463D01*
X206230013Y-101942252D01*
X206457748Y-102169987D01*
X206725537Y-102348918D01*
X207023088Y-102472168D01*
X207338967Y-102535000D01*
X207661033Y-102535000D01*
X207976912Y-102472168D01*
X208274463Y-102348918D01*
X208542252Y-102169987D01*
X208769987Y-101942252D01*
X208948918Y-101674463D01*
X209072168Y-101376912D01*
X209135000Y-101061033D01*
X209135000Y-100738967D01*
X209072168Y-100423088D01*
X208948918Y-100125537D01*
X208769987Y-99857748D01*
X208542252Y-99630013D01*
X208274463Y-99451082D01*
X207976912Y-99327832D01*
X207661033Y-99265000D01*
X207338967Y-99265000D01*
X207023088Y-99327832D01*
X206725537Y-99451082D01*
X206457748Y-99630013D01*
X206230013Y-99857748D01*
X206051082Y-100125537D01*
X205927832Y-100423088D01*
X205865000Y-100738967D01*
X174410000Y-100738967D01*
X174410000Y-98554495D01*
X189015000Y-98554495D01*
X189015000Y-98945505D01*
X189091282Y-99329003D01*
X189240915Y-99690250D01*
X189458149Y-100015364D01*
X189734636Y-100291851D01*
X190059750Y-100509085D01*
X190420997Y-100658718D01*
X190804495Y-100735000D01*
X191195505Y-100735000D01*
X191579003Y-100658718D01*
X191940250Y-100509085D01*
X192265364Y-100291851D01*
X192541851Y-100015364D01*
X192759085Y-99690250D01*
X192908718Y-99329003D01*
X192985000Y-98945505D01*
X192985000Y-98554495D01*
X192908718Y-98170997D01*
X192759085Y-97809750D01*
X192541851Y-97484636D01*
X192265364Y-97208149D01*
X191940250Y-96990915D01*
X191579003Y-96841282D01*
X191195505Y-96765000D01*
X190804495Y-96765000D01*
X190420997Y-96841282D01*
X190059750Y-96990915D01*
X189734636Y-97208149D01*
X189458149Y-97484636D01*
X189240915Y-97809750D01*
X189091282Y-98170997D01*
X189015000Y-98554495D01*
X174410000Y-98554495D01*
X174410000Y-87289721D01*
X188865000Y-87289721D01*
X188865000Y-87710279D01*
X188947047Y-88122756D01*
X189107988Y-88511302D01*
X189341637Y-88860983D01*
X189639017Y-89158363D01*
X189988698Y-89392012D01*
X190377244Y-89552953D01*
X190789721Y-89635000D01*
X191210279Y-89635000D01*
X191622756Y-89552953D01*
X192011302Y-89392012D01*
X192021796Y-89385000D01*
X198219208Y-89385000D01*
X205880937Y-97046730D01*
X205910498Y-97144180D01*
X205969463Y-97254494D01*
X206048815Y-97351185D01*
X206145506Y-97430537D01*
X206255820Y-97489502D01*
X206353270Y-97519063D01*
X206482579Y-97648372D01*
X206697683Y-97824903D01*
X207025151Y-97999938D01*
X207380476Y-98107725D01*
X207750000Y-98144120D01*
X208119524Y-98107725D01*
X208474849Y-97999938D01*
X208802317Y-97824903D01*
X209089345Y-97589345D01*
X209324903Y-97302317D01*
X209499938Y-96974849D01*
X209607725Y-96619524D01*
X209644120Y-96250000D01*
X209607725Y-95880476D01*
X209499938Y-95525151D01*
X209324903Y-95197683D01*
X209148372Y-94982579D01*
X209138072Y-94972279D01*
X209138072Y-94900000D01*
X209125812Y-94775518D01*
X209089502Y-94655820D01*
X209030537Y-94545506D01*
X208951185Y-94448815D01*
X208854494Y-94369463D01*
X208744180Y-94310498D01*
X208624482Y-94274188D01*
X208500000Y-94261928D01*
X208427721Y-94261928D01*
X200398374Y-86232582D01*
X200339345Y-86160655D01*
X200052317Y-85925097D01*
X199724848Y-85750061D01*
X199369524Y-85642275D01*
X199092597Y-85615000D01*
X199092589Y-85615000D01*
X199000000Y-85605881D01*
X198907411Y-85615000D01*
X192021796Y-85615000D01*
X192011302Y-85607988D01*
X191622756Y-85447047D01*
X191210279Y-85365000D01*
X190789721Y-85365000D01*
X190377244Y-85447047D01*
X189988698Y-85607988D01*
X189639017Y-85841637D01*
X189341637Y-86139017D01*
X189107988Y-86488698D01*
X188947047Y-86877244D01*
X188865000Y-87289721D01*
X174410000Y-87289721D01*
X174410000Y-78720000D01*
X214305880Y-78720000D01*
X214315000Y-78812597D01*
X214315001Y-85107401D01*
X214305881Y-85200000D01*
X214342275Y-85569524D01*
X214450062Y-85924848D01*
X214625098Y-86252317D01*
X214801628Y-86467420D01*
X214801631Y-86467423D01*
X214860656Y-86539345D01*
X214932577Y-86598369D01*
X219351630Y-91017423D01*
X219410655Y-91089345D01*
X219482577Y-91148370D01*
X219482579Y-91148372D01*
X219697683Y-91324903D01*
X220025152Y-91499939D01*
X220327032Y-91591513D01*
X220380476Y-91607725D01*
X220750000Y-91644120D01*
X220842597Y-91635000D01*
X221354141Y-91635000D01*
X224623422Y-95649181D01*
X224625098Y-95652317D01*
X224669413Y-95706316D01*
X224706785Y-95765331D01*
X224784477Y-95846932D01*
X224796883Y-95862165D01*
X224799380Y-95864681D01*
X224801628Y-95867420D01*
X224850788Y-95916580D01*
X224898663Y-95966864D01*
X224913524Y-95979683D01*
X224992909Y-96059665D01*
X224995863Y-96061655D01*
X228115001Y-99180793D01*
X228115000Y-118107411D01*
X228105881Y-118200000D01*
X228115000Y-118292589D01*
X228115000Y-118292596D01*
X228142275Y-118569523D01*
X228250061Y-118924847D01*
X228425097Y-119252317D01*
X228660655Y-119539345D01*
X228732582Y-119598374D01*
X231301628Y-122167421D01*
X231360655Y-122239345D01*
X231432577Y-122298370D01*
X231432579Y-122298372D01*
X231494170Y-122348918D01*
X231647683Y-122474903D01*
X231975152Y-122649939D01*
X232330476Y-122757725D01*
X232700000Y-122794120D01*
X232792597Y-122785000D01*
X235092597Y-122785000D01*
X235369524Y-122757725D01*
X235724848Y-122649939D01*
X236052317Y-122474903D01*
X236339345Y-122239345D01*
X236574903Y-121952317D01*
X236749939Y-121624848D01*
X236857725Y-121269524D01*
X236894120Y-120900000D01*
X236857725Y-120530476D01*
X236749939Y-120175152D01*
X236574903Y-119847683D01*
X236339345Y-119560655D01*
X236052317Y-119325097D01*
X235724848Y-119150061D01*
X235369524Y-119042275D01*
X235092597Y-119015000D01*
X233480793Y-119015000D01*
X231885000Y-117419208D01*
X231885000Y-110738967D01*
X233365000Y-110738967D01*
X233365000Y-111061033D01*
X233427832Y-111376912D01*
X233551082Y-111674463D01*
X233730013Y-111942252D01*
X233957748Y-112169987D01*
X234225537Y-112348918D01*
X234523088Y-112472168D01*
X234838967Y-112535000D01*
X235161033Y-112535000D01*
X235476912Y-112472168D01*
X235774463Y-112348918D01*
X236042252Y-112169987D01*
X236269987Y-111942252D01*
X236448918Y-111674463D01*
X236572168Y-111376912D01*
X236635000Y-111061033D01*
X236635000Y-110738967D01*
X236572168Y-110423088D01*
X236448918Y-110125537D01*
X236269987Y-109857748D01*
X236042252Y-109630013D01*
X235774463Y-109451082D01*
X235476912Y-109327832D01*
X235161033Y-109265000D01*
X234838967Y-109265000D01*
X234523088Y-109327832D01*
X234225537Y-109451082D01*
X233957748Y-109630013D01*
X233730013Y-109857748D01*
X233551082Y-110125537D01*
X233427832Y-110423088D01*
X233365000Y-110738967D01*
X231885000Y-110738967D01*
X231885000Y-105738967D01*
X233365000Y-105738967D01*
X233365000Y-106061033D01*
X233427832Y-106376912D01*
X233551082Y-106674463D01*
X233730013Y-106942252D01*
X233957748Y-107169987D01*
X234225537Y-107348918D01*
X234523088Y-107472168D01*
X234838967Y-107535000D01*
X235161033Y-107535000D01*
X235476912Y-107472168D01*
X235774463Y-107348918D01*
X236042252Y-107169987D01*
X236269987Y-106942252D01*
X236448918Y-106674463D01*
X236572168Y-106376912D01*
X236635000Y-106061033D01*
X236635000Y-105738967D01*
X236572168Y-105423088D01*
X236448918Y-105125537D01*
X236269987Y-104857748D01*
X236042252Y-104630013D01*
X235774463Y-104451082D01*
X235476912Y-104327832D01*
X235161033Y-104265000D01*
X234838967Y-104265000D01*
X234523088Y-104327832D01*
X234225537Y-104451082D01*
X233957748Y-104630013D01*
X233730013Y-104857748D01*
X233551082Y-105125537D01*
X233427832Y-105423088D01*
X233365000Y-105738967D01*
X231885000Y-105738967D01*
X231885000Y-101928462D01*
X231922648Y-101945150D01*
X232025153Y-101999940D01*
X232092004Y-102020219D01*
X232155860Y-102048524D01*
X232269251Y-102073986D01*
X232380477Y-102107726D01*
X232450000Y-102114573D01*
X232518152Y-102129877D01*
X232634328Y-102132728D01*
X232657404Y-102135001D01*
X232726937Y-102135001D01*
X232889352Y-102138987D01*
X232912323Y-102135001D01*
X233469209Y-102135001D01*
X233982580Y-102648372D01*
X234197683Y-102824902D01*
X234525151Y-102999938D01*
X234880475Y-103107724D01*
X235249999Y-103144119D01*
X235619523Y-103107724D01*
X235974848Y-102999938D01*
X236302316Y-102824902D01*
X236589344Y-102589344D01*
X236824902Y-102302316D01*
X236999938Y-101974848D01*
X237107724Y-101619523D01*
X237144119Y-101249999D01*
X237107724Y-100880475D01*
X236999938Y-100525151D01*
X236824902Y-100197683D01*
X236648372Y-99982580D01*
X235648375Y-98982583D01*
X235589346Y-98910656D01*
X235302318Y-98675098D01*
X234974849Y-98500062D01*
X234619525Y-98392276D01*
X234342598Y-98365001D01*
X234342590Y-98365001D01*
X234250001Y-98355882D01*
X234157412Y-98365001D01*
X233450668Y-98365001D01*
X227556836Y-93281009D01*
X224085000Y-89018123D01*
X224085000Y-78720000D01*
X226305880Y-78720000D01*
X226315001Y-78812607D01*
X226315000Y-87207411D01*
X226305881Y-87300000D01*
X226315000Y-87392589D01*
X226315000Y-87392596D01*
X226342275Y-87669523D01*
X226450061Y-88024847D01*
X226625097Y-88352317D01*
X226860655Y-88639345D01*
X226932582Y-88698374D01*
X232115001Y-93880794D01*
X232115001Y-94807412D01*
X232105882Y-94900001D01*
X232115001Y-94992590D01*
X232115001Y-94992597D01*
X232142276Y-95269524D01*
X232250062Y-95624848D01*
X232425098Y-95952318D01*
X232660656Y-96239346D01*
X232732583Y-96298375D01*
X233601626Y-97167418D01*
X233660655Y-97239345D01*
X233947683Y-97474903D01*
X234275152Y-97649939D01*
X234630476Y-97757725D01*
X235000000Y-97794120D01*
X235092597Y-97785000D01*
X237615001Y-97785000D01*
X237615000Y-110619207D01*
X233601628Y-114632580D01*
X233425098Y-114847683D01*
X233250062Y-115175152D01*
X233142275Y-115530476D01*
X233105881Y-115900000D01*
X233142275Y-116269524D01*
X233250062Y-116624848D01*
X233425098Y-116952317D01*
X233660655Y-117239345D01*
X233947683Y-117474902D01*
X234275152Y-117649938D01*
X234630476Y-117757725D01*
X235000000Y-117794119D01*
X235369524Y-117757725D01*
X235724848Y-117649938D01*
X236052317Y-117474902D01*
X236267420Y-117298372D01*
X240767423Y-112798370D01*
X240839345Y-112739345D01*
X241074903Y-112452317D01*
X241249939Y-112124848D01*
X241357725Y-111769524D01*
X241385000Y-111492597D01*
X241385000Y-111492590D01*
X241394119Y-111400001D01*
X241385000Y-111307412D01*
X241385000Y-96892597D01*
X241394120Y-96800000D01*
X241357725Y-96430476D01*
X241351662Y-96410488D01*
X241249939Y-96075152D01*
X241074903Y-95747683D01*
X240974095Y-95624848D01*
X240898372Y-95532579D01*
X240898370Y-95532577D01*
X240839345Y-95460655D01*
X240767423Y-95401630D01*
X239998370Y-94632577D01*
X239939345Y-94560655D01*
X239867423Y-94501630D01*
X236398375Y-91032583D01*
X236398372Y-91032579D01*
X236398370Y-91032577D01*
X236339345Y-90960655D01*
X236267423Y-90901630D01*
X235585000Y-90219208D01*
X235585000Y-78692597D01*
X235594120Y-78600000D01*
X235557725Y-78230476D01*
X235449939Y-77875152D01*
X235438072Y-77852950D01*
X235438072Y-77500000D01*
X235425812Y-77375518D01*
X235389502Y-77255820D01*
X235330537Y-77145506D01*
X235251185Y-77048815D01*
X235154494Y-76969463D01*
X235044180Y-76910498D01*
X234924482Y-76874188D01*
X234800000Y-76861928D01*
X234447050Y-76861928D01*
X234424848Y-76850061D01*
X234069524Y-76742275D01*
X233700000Y-76705880D01*
X233330477Y-76742275D01*
X233024803Y-76835000D01*
X228292597Y-76835000D01*
X228200000Y-76825880D01*
X228107403Y-76835000D01*
X227830476Y-76862275D01*
X227475152Y-76970061D01*
X227147683Y-77145097D01*
X226860655Y-77380655D01*
X226625097Y-77667683D01*
X226450061Y-77995152D01*
X226342275Y-78350476D01*
X226305880Y-78720000D01*
X224085000Y-78720000D01*
X224085000Y-78692597D01*
X224094120Y-78600000D01*
X224057725Y-78230476D01*
X223949939Y-77875152D01*
X223938072Y-77852950D01*
X223938072Y-77500000D01*
X223925812Y-77375518D01*
X223889502Y-77255820D01*
X223830537Y-77145506D01*
X223751185Y-77048815D01*
X223654494Y-76969463D01*
X223544180Y-76910498D01*
X223424482Y-76874188D01*
X223300000Y-76861928D01*
X222947050Y-76861928D01*
X222924848Y-76850061D01*
X222569524Y-76742275D01*
X222200000Y-76705880D01*
X221830477Y-76742275D01*
X221524803Y-76835000D01*
X216292597Y-76835000D01*
X216200000Y-76825880D01*
X216107403Y-76835000D01*
X215830476Y-76862275D01*
X215475152Y-76970061D01*
X215147683Y-77145097D01*
X214860655Y-77380655D01*
X214625097Y-77667683D01*
X214450061Y-77995152D01*
X214342275Y-78350476D01*
X214305880Y-78720000D01*
X174410000Y-78720000D01*
X174410000Y-76635413D01*
X186044192Y-76635413D01*
X186139956Y-76899814D01*
X186429571Y-77040704D01*
X186741108Y-77122384D01*
X187062595Y-77141718D01*
X187381675Y-77097961D01*
X187686088Y-76992795D01*
X187860044Y-76899814D01*
X187955808Y-76635413D01*
X198294192Y-76635413D01*
X198389956Y-76899814D01*
X198679571Y-77040704D01*
X198991108Y-77122384D01*
X199312595Y-77141718D01*
X199631675Y-77097961D01*
X199936088Y-76992795D01*
X200110044Y-76899814D01*
X200205808Y-76635413D01*
X199250000Y-75679605D01*
X198294192Y-76635413D01*
X187955808Y-76635413D01*
X187000000Y-75679605D01*
X186044192Y-76635413D01*
X174410000Y-76635413D01*
X174410000Y-75562595D01*
X185358282Y-75562595D01*
X185402039Y-75881675D01*
X185507205Y-76186088D01*
X185600186Y-76360044D01*
X185864587Y-76455808D01*
X186820395Y-75500000D01*
X187179605Y-75500000D01*
X188135413Y-76455808D01*
X188399814Y-76360044D01*
X188540704Y-76070429D01*
X188622384Y-75758892D01*
X188634189Y-75562595D01*
X197608282Y-75562595D01*
X197652039Y-75881675D01*
X197757205Y-76186088D01*
X197850186Y-76360044D01*
X198114587Y-76455808D01*
X199070395Y-75500000D01*
X199429605Y-75500000D01*
X200385413Y-76455808D01*
X200649814Y-76360044D01*
X200790704Y-76070429D01*
X200872384Y-75758892D01*
X200891718Y-75437405D01*
X200847961Y-75118325D01*
X200742795Y-74813912D01*
X200649814Y-74639956D01*
X200385413Y-74544192D01*
X199429605Y-75500000D01*
X199070395Y-75500000D01*
X198114587Y-74544192D01*
X197850186Y-74639956D01*
X197709296Y-74929571D01*
X197627616Y-75241108D01*
X197608282Y-75562595D01*
X188634189Y-75562595D01*
X188641718Y-75437405D01*
X188597961Y-75118325D01*
X188492795Y-74813912D01*
X188399814Y-74639956D01*
X188135413Y-74544192D01*
X187179605Y-75500000D01*
X186820395Y-75500000D01*
X185864587Y-74544192D01*
X185600186Y-74639956D01*
X185459296Y-74929571D01*
X185377616Y-75241108D01*
X185358282Y-75562595D01*
X174410000Y-75562595D01*
X174410000Y-74364587D01*
X186044192Y-74364587D01*
X187000000Y-75320395D01*
X187955808Y-74364587D01*
X198294192Y-74364587D01*
X199250000Y-75320395D01*
X200205808Y-74364587D01*
X200110044Y-74100186D01*
X199820429Y-73959296D01*
X199508892Y-73877616D01*
X199187405Y-73858282D01*
X198868325Y-73902039D01*
X198563912Y-74007205D01*
X198389956Y-74100186D01*
X198294192Y-74364587D01*
X187955808Y-74364587D01*
X187860044Y-74100186D01*
X187570429Y-73959296D01*
X187258892Y-73877616D01*
X186937405Y-73858282D01*
X186618325Y-73902039D01*
X186313912Y-74007205D01*
X186139956Y-74100186D01*
X186044192Y-74364587D01*
X174410000Y-74364587D01*
X174410000Y-65460000D01*
X182361928Y-65460000D01*
X182374188Y-65584482D01*
X182410498Y-65704180D01*
X182469463Y-65814494D01*
X182548815Y-65911185D01*
X182645506Y-65990537D01*
X182755820Y-66049502D01*
X182875518Y-66085812D01*
X183000000Y-66098072D01*
X184214250Y-66095000D01*
X184373000Y-65936250D01*
X184373000Y-64087000D01*
X184627000Y-64087000D01*
X184627000Y-65936250D01*
X184785750Y-66095000D01*
X186000000Y-66098072D01*
X186124482Y-66085812D01*
X186244180Y-66049502D01*
X186354494Y-65990537D01*
X186451185Y-65911185D01*
X186530537Y-65814494D01*
X186589502Y-65704180D01*
X186625812Y-65584482D01*
X186638072Y-65460000D01*
X186635000Y-64245750D01*
X186476250Y-64087000D01*
X184627000Y-64087000D01*
X184373000Y-64087000D01*
X182523750Y-64087000D01*
X182365000Y-64245750D01*
X182361928Y-65460000D01*
X174410000Y-65460000D01*
X174410000Y-62460000D01*
X182361928Y-62460000D01*
X182365000Y-63674250D01*
X182523750Y-63833000D01*
X184373000Y-63833000D01*
X184373000Y-61983750D01*
X184627000Y-61983750D01*
X184627000Y-63833000D01*
X186476250Y-63833000D01*
X186635000Y-63674250D01*
X186638072Y-62460000D01*
X186625812Y-62335518D01*
X186589502Y-62215820D01*
X186530537Y-62105506D01*
X186451185Y-62008815D01*
X186354494Y-61929463D01*
X186244180Y-61870498D01*
X186124482Y-61834188D01*
X186000000Y-61821928D01*
X184785750Y-61825000D01*
X184627000Y-61983750D01*
X184373000Y-61983750D01*
X184214250Y-61825000D01*
X183000000Y-61821928D01*
X182875518Y-61834188D01*
X182755820Y-61870498D01*
X182645506Y-61929463D01*
X182548815Y-62008815D01*
X182469463Y-62105506D01*
X182410498Y-62215820D01*
X182374188Y-62335518D01*
X182361928Y-62460000D01*
X174410000Y-62460000D01*
X174410000Y-59641984D01*
X208415000Y-59641984D01*
X208415000Y-60358016D01*
X208554691Y-61060290D01*
X208828705Y-61721818D01*
X209226511Y-62317177D01*
X209732823Y-62823489D01*
X210328182Y-63221295D01*
X210989710Y-63495309D01*
X211691984Y-63635000D01*
X212408016Y-63635000D01*
X213110290Y-63495309D01*
X213771818Y-63221295D01*
X214367177Y-62823489D01*
X214873489Y-62317177D01*
X215271295Y-61721818D01*
X215545309Y-61060290D01*
X215685000Y-60358016D01*
X215685000Y-59641984D01*
X215545309Y-58939710D01*
X215271295Y-58278182D01*
X214873489Y-57682823D01*
X214367177Y-57176511D01*
X213771818Y-56778705D01*
X213110290Y-56504691D01*
X212408016Y-56365000D01*
X211691984Y-56365000D01*
X210989710Y-56504691D01*
X210328182Y-56778705D01*
X209732823Y-57176511D01*
X209226511Y-57682823D01*
X208828705Y-58278182D01*
X208554691Y-58939710D01*
X208415000Y-59641984D01*
X174410000Y-59641984D01*
X174410000Y-58992702D01*
X197436903Y-58992702D01*
X197508486Y-59236671D01*
X197763996Y-59357571D01*
X198038184Y-59426300D01*
X198320512Y-59440217D01*
X198600130Y-59398787D01*
X198866292Y-59303603D01*
X198991514Y-59236671D01*
X199063097Y-58992702D01*
X198250000Y-58179605D01*
X197436903Y-58992702D01*
X174410000Y-58992702D01*
X174410000Y-54540000D01*
X182361928Y-54540000D01*
X182361928Y-57540000D01*
X182374188Y-57664482D01*
X182410498Y-57784180D01*
X182469463Y-57894494D01*
X182548815Y-57991185D01*
X182645506Y-58070537D01*
X182755820Y-58129502D01*
X182875518Y-58165812D01*
X183000000Y-58178072D01*
X186000000Y-58178072D01*
X186124482Y-58165812D01*
X186244180Y-58129502D01*
X186354494Y-58070537D01*
X186451185Y-57991185D01*
X186530537Y-57894494D01*
X186535612Y-57885000D01*
X194072411Y-57885000D01*
X194165000Y-57894119D01*
X194257589Y-57885000D01*
X194257597Y-57885000D01*
X194534524Y-57857725D01*
X194889848Y-57749939D01*
X195217317Y-57574903D01*
X195504345Y-57339345D01*
X195563374Y-57267418D01*
X196536943Y-56293849D01*
X196675097Y-56552317D01*
X196910655Y-56839345D01*
X197164216Y-57047437D01*
X197141023Y-57070630D01*
X197257296Y-57186903D01*
X197013329Y-57258486D01*
X196892429Y-57513996D01*
X196823700Y-57788184D01*
X196809783Y-58070512D01*
X196851213Y-58350130D01*
X196946397Y-58616292D01*
X197013329Y-58741514D01*
X197257298Y-58813097D01*
X198070395Y-58000000D01*
X198056253Y-57985858D01*
X198235858Y-57806253D01*
X198250000Y-57820395D01*
X198264143Y-57806253D01*
X198443748Y-57985858D01*
X198429605Y-58000000D01*
X199242702Y-58813097D01*
X199486671Y-58741514D01*
X199607571Y-58486004D01*
X199676300Y-58211816D01*
X199690217Y-57929488D01*
X199648787Y-57649870D01*
X199553603Y-57383708D01*
X199486671Y-57258486D01*
X199242704Y-57186903D01*
X199358977Y-57070630D01*
X199335784Y-57047437D01*
X199589345Y-56839345D01*
X199824903Y-56552317D01*
X199999939Y-56224848D01*
X200107725Y-55869524D01*
X200135000Y-55592597D01*
X200135000Y-52980791D01*
X200273291Y-52842500D01*
X214164499Y-52842500D01*
X214447683Y-53074903D01*
X214775152Y-53249939D01*
X215047776Y-53332638D01*
X215130475Y-53357725D01*
X215162662Y-53360895D01*
X215407403Y-53385000D01*
X215407411Y-53385000D01*
X215500000Y-53394119D01*
X215592589Y-53385000D01*
X220781708Y-53385000D01*
X221352382Y-53955674D01*
X221400060Y-54112849D01*
X221575096Y-54440318D01*
X221810654Y-54727346D01*
X221882582Y-54786376D01*
X222713621Y-55617414D01*
X222772654Y-55689346D01*
X223059682Y-55924904D01*
X223387151Y-56099940D01*
X223544326Y-56147618D01*
X225445000Y-58048293D01*
X225445001Y-62863700D01*
X225381094Y-62830429D01*
X225162980Y-62759437D01*
X224917000Y-62879406D01*
X224917000Y-64223000D01*
X224937000Y-64223000D01*
X224937000Y-64477000D01*
X224917000Y-64477000D01*
X224917000Y-64497000D01*
X224663000Y-64497000D01*
X224663000Y-64477000D01*
X224643000Y-64477000D01*
X224643000Y-64223000D01*
X224663000Y-64223000D01*
X224663000Y-62879406D01*
X224417020Y-62759437D01*
X224198906Y-62830429D01*
X223923077Y-62974031D01*
X223782059Y-63087219D01*
X223733037Y-62995506D01*
X223653685Y-62898815D01*
X223556994Y-62819463D01*
X223446680Y-62760498D01*
X223326982Y-62724188D01*
X223202500Y-62711928D01*
X223184136Y-62711928D01*
X222974848Y-62600061D01*
X222619524Y-62492275D01*
X222250000Y-62455880D01*
X221946739Y-62485749D01*
X221880475Y-62492275D01*
X221664903Y-62557668D01*
X221525153Y-62600061D01*
X221525151Y-62600062D01*
X221315865Y-62711928D01*
X221297500Y-62711928D01*
X221173018Y-62724188D01*
X221053320Y-62760498D01*
X220943006Y-62819463D01*
X220846315Y-62898815D01*
X220766963Y-62995506D01*
X220707998Y-63105820D01*
X220671688Y-63225518D01*
X220667646Y-63266561D01*
X214932577Y-69001631D01*
X214860656Y-69060655D01*
X214733988Y-69215000D01*
X213380792Y-69215000D01*
X212898374Y-68732582D01*
X212839345Y-68660655D01*
X212552317Y-68425097D01*
X212224848Y-68250061D01*
X211869524Y-68142275D01*
X211592597Y-68115000D01*
X211592589Y-68115000D01*
X211500000Y-68105881D01*
X211407411Y-68115000D01*
X187592597Y-68115000D01*
X187500000Y-68105880D01*
X187407403Y-68115000D01*
X187130476Y-68142275D01*
X186775152Y-68250061D01*
X186447683Y-68425097D01*
X186160655Y-68660655D01*
X186101626Y-68732582D01*
X185969252Y-68864956D01*
X185875518Y-68874188D01*
X185755820Y-68910498D01*
X185645506Y-68969463D01*
X185548815Y-69048815D01*
X185469463Y-69145506D01*
X185410498Y-69255820D01*
X185374188Y-69375518D01*
X185361928Y-69500000D01*
X185361928Y-69565866D01*
X185250062Y-69775152D01*
X185142275Y-70130476D01*
X185105881Y-70500000D01*
X185142275Y-70869524D01*
X185250062Y-71224848D01*
X185361928Y-71434134D01*
X185361928Y-71500000D01*
X185374188Y-71624482D01*
X185410498Y-71744180D01*
X185469463Y-71854494D01*
X185548815Y-71951185D01*
X185645506Y-72030537D01*
X185755820Y-72089502D01*
X185875518Y-72125812D01*
X186000000Y-72138072D01*
X186065866Y-72138072D01*
X186275152Y-72249938D01*
X186630476Y-72357725D01*
X187000000Y-72394119D01*
X187369524Y-72357725D01*
X187724848Y-72249938D01*
X187934134Y-72138072D01*
X188000000Y-72138072D01*
X188124482Y-72125812D01*
X188244180Y-72089502D01*
X188354494Y-72030537D01*
X188451185Y-71951185D01*
X188505501Y-71885000D01*
X197744499Y-71885000D01*
X197798815Y-71951185D01*
X197895506Y-72030537D01*
X198005820Y-72089502D01*
X198125518Y-72125812D01*
X198250000Y-72138072D01*
X200250000Y-72138072D01*
X200374482Y-72125812D01*
X200494180Y-72089502D01*
X200604494Y-72030537D01*
X200701185Y-71951185D01*
X200755501Y-71885000D01*
X210719208Y-71885000D01*
X211201626Y-72367418D01*
X211260655Y-72439345D01*
X211547683Y-72674903D01*
X211875152Y-72849939D01*
X212122689Y-72925028D01*
X212230475Y-72957725D01*
X212262662Y-72960895D01*
X212507403Y-72985000D01*
X212507411Y-72985000D01*
X212600000Y-72994119D01*
X212692589Y-72985000D01*
X216107403Y-72985000D01*
X216200000Y-72994120D01*
X216292597Y-72985000D01*
X216569524Y-72957725D01*
X216924848Y-72849939D01*
X216947050Y-72838072D01*
X217300000Y-72838072D01*
X217424482Y-72825812D01*
X217544180Y-72789502D01*
X217654494Y-72730537D01*
X217751185Y-72651185D01*
X217830537Y-72554494D01*
X217889502Y-72444180D01*
X217925812Y-72324482D01*
X217938072Y-72200000D01*
X217938072Y-71847050D01*
X217949939Y-71824848D01*
X218057725Y-71469524D01*
X218066924Y-71376123D01*
X220510821Y-71376123D01*
X220620558Y-71698054D01*
X220790992Y-71992391D01*
X221015573Y-72247822D01*
X221285671Y-72454531D01*
X221590906Y-72604575D01*
X221803878Y-72669175D01*
X222073000Y-72551125D01*
X222073000Y-71107000D01*
X222327000Y-71107000D01*
X222327000Y-72551125D01*
X222596122Y-72669175D01*
X222809094Y-72604575D01*
X223114329Y-72454531D01*
X223384427Y-72247822D01*
X223609008Y-71992391D01*
X223779442Y-71698054D01*
X223889179Y-71376123D01*
X223771600Y-71107000D01*
X222327000Y-71107000D01*
X222073000Y-71107000D01*
X220628400Y-71107000D01*
X220510821Y-71376123D01*
X218066924Y-71376123D01*
X218086290Y-71179502D01*
X218681915Y-70583877D01*
X220510821Y-70583877D01*
X220628400Y-70853000D01*
X222073000Y-70853000D01*
X222073000Y-69408875D01*
X222327000Y-69408875D01*
X222327000Y-70853000D01*
X223771600Y-70853000D01*
X223889179Y-70583877D01*
X223779442Y-70261946D01*
X223609008Y-69967609D01*
X223384427Y-69712178D01*
X223114329Y-69505469D01*
X222809094Y-69355425D01*
X222596122Y-69290825D01*
X222327000Y-69408875D01*
X222073000Y-69408875D01*
X221803878Y-69290825D01*
X221590906Y-69355425D01*
X221285671Y-69505469D01*
X221015573Y-69712178D01*
X220790992Y-69967609D01*
X220620558Y-70261946D01*
X220510821Y-70583877D01*
X218681915Y-70583877D01*
X221675000Y-67590792D01*
X226451630Y-72367423D01*
X226508079Y-72436206D01*
X226510498Y-72444180D01*
X226569463Y-72554494D01*
X226648815Y-72651185D01*
X226745506Y-72730537D01*
X226855820Y-72789502D01*
X226975518Y-72825812D01*
X227100000Y-72838072D01*
X227102950Y-72838072D01*
X227125152Y-72849939D01*
X227372689Y-72925028D01*
X227480475Y-72957725D01*
X227512662Y-72960895D01*
X227757403Y-72985000D01*
X227757411Y-72985000D01*
X227850000Y-72994119D01*
X227942589Y-72985000D01*
X228292597Y-72985000D01*
X228569524Y-72957725D01*
X228924848Y-72849939D01*
X228947050Y-72838072D01*
X229300000Y-72838072D01*
X229424482Y-72825812D01*
X229544180Y-72789502D01*
X229654494Y-72730537D01*
X229751185Y-72651185D01*
X229830537Y-72554494D01*
X229889502Y-72444180D01*
X229925812Y-72324482D01*
X229938072Y-72200000D01*
X229938072Y-71847050D01*
X229949939Y-71824848D01*
X230057725Y-71469524D01*
X230066924Y-71376123D01*
X232010821Y-71376123D01*
X232120558Y-71698054D01*
X232290992Y-71992391D01*
X232515573Y-72247822D01*
X232785671Y-72454531D01*
X233090906Y-72604575D01*
X233303878Y-72669175D01*
X233573000Y-72551125D01*
X233573000Y-71107000D01*
X233827000Y-71107000D01*
X233827000Y-72551125D01*
X234096122Y-72669175D01*
X234309094Y-72604575D01*
X234614329Y-72454531D01*
X234884427Y-72247822D01*
X235109008Y-71992391D01*
X235279442Y-71698054D01*
X235389179Y-71376123D01*
X235271600Y-71107000D01*
X233827000Y-71107000D01*
X233573000Y-71107000D01*
X232128400Y-71107000D01*
X232010821Y-71376123D01*
X230066924Y-71376123D01*
X230094120Y-71100000D01*
X230057725Y-70730476D01*
X230013255Y-70583877D01*
X232010821Y-70583877D01*
X232128400Y-70853000D01*
X233573000Y-70853000D01*
X233573000Y-69408875D01*
X233827000Y-69408875D01*
X233827000Y-70853000D01*
X235271600Y-70853000D01*
X235389179Y-70583877D01*
X235279442Y-70261946D01*
X235109008Y-69967609D01*
X234884427Y-69712178D01*
X234614329Y-69505469D01*
X234309094Y-69355425D01*
X234096122Y-69290825D01*
X233827000Y-69408875D01*
X233573000Y-69408875D01*
X233303878Y-69290825D01*
X233090906Y-69355425D01*
X232785671Y-69505469D01*
X232515573Y-69712178D01*
X232290992Y-69967609D01*
X232120558Y-70261946D01*
X232010821Y-70583877D01*
X230013255Y-70583877D01*
X229949939Y-70375152D01*
X229938072Y-70352950D01*
X229938072Y-70000000D01*
X229925812Y-69875518D01*
X229889502Y-69755820D01*
X229830537Y-69645506D01*
X229751185Y-69548815D01*
X229654494Y-69469463D01*
X229544180Y-69410498D01*
X229424482Y-69374188D01*
X229300000Y-69361928D01*
X228947050Y-69361928D01*
X228924848Y-69350061D01*
X228696623Y-69280830D01*
X225308871Y-65893078D01*
X225381094Y-65869571D01*
X225656923Y-65725969D01*
X225876243Y-65549932D01*
X225990656Y-65689345D01*
X226277684Y-65924903D01*
X226605153Y-66099939D01*
X226960477Y-66207725D01*
X227330000Y-66244120D01*
X227699524Y-66207725D01*
X228054848Y-66099939D01*
X228382317Y-65924903D01*
X228669345Y-65689345D01*
X228904903Y-65402317D01*
X229079939Y-65074848D01*
X229187725Y-64719524D01*
X229215000Y-64442597D01*
X229215000Y-59641984D01*
X233815000Y-59641984D01*
X233815000Y-60358016D01*
X233954691Y-61060290D01*
X234228705Y-61721818D01*
X234626511Y-62317177D01*
X235132823Y-62823489D01*
X235728182Y-63221295D01*
X236389710Y-63495309D01*
X237091984Y-63635000D01*
X237808016Y-63635000D01*
X238510290Y-63495309D01*
X239171818Y-63221295D01*
X239767177Y-62823489D01*
X240273489Y-62317177D01*
X240671295Y-61721818D01*
X240945309Y-61060290D01*
X241085000Y-60358016D01*
X241085000Y-59641984D01*
X240945309Y-58939710D01*
X240671295Y-58278182D01*
X240273489Y-57682823D01*
X239767177Y-57176511D01*
X239171818Y-56778705D01*
X238510290Y-56504691D01*
X237808016Y-56365000D01*
X237091984Y-56365000D01*
X236389710Y-56504691D01*
X235728182Y-56778705D01*
X235132823Y-57176511D01*
X234626511Y-57682823D01*
X234228705Y-58278182D01*
X233954691Y-58939710D01*
X233815000Y-59641984D01*
X229215000Y-59641984D01*
X229215000Y-57360097D01*
X229224120Y-57267500D01*
X229187725Y-56897976D01*
X229185154Y-56889502D01*
X229079939Y-56542652D01*
X228904903Y-56215183D01*
X228898782Y-56207725D01*
X228728372Y-56000079D01*
X228728370Y-56000077D01*
X228669345Y-55928155D01*
X228597423Y-55869130D01*
X225810873Y-53082581D01*
X225751846Y-53010656D01*
X225464818Y-52775098D01*
X225137349Y-52600062D01*
X224980173Y-52552383D01*
X224947617Y-52519827D01*
X224899938Y-52362651D01*
X224724902Y-52035182D01*
X224709659Y-52016608D01*
X224548371Y-51820078D01*
X224548369Y-51820076D01*
X224489344Y-51748154D01*
X224417422Y-51689129D01*
X222960872Y-50232580D01*
X222901845Y-50160655D01*
X222614817Y-49925097D01*
X222287348Y-49750061D01*
X221932024Y-49642275D01*
X221655097Y-49615000D01*
X221655089Y-49615000D01*
X221562500Y-49605881D01*
X221536678Y-49608424D01*
X221535000Y-49498250D01*
X221376250Y-49339500D01*
X220327000Y-49339500D01*
X220327000Y-49359500D01*
X220073000Y-49359500D01*
X220073000Y-49339500D01*
X220053000Y-49339500D01*
X220053000Y-49085500D01*
X220073000Y-49085500D01*
X220073000Y-48248750D01*
X220327000Y-48248750D01*
X220327000Y-49085500D01*
X221376250Y-49085500D01*
X221535000Y-48926750D01*
X221538072Y-48725000D01*
X221525812Y-48600518D01*
X221489502Y-48480820D01*
X221430537Y-48370506D01*
X221351185Y-48273815D01*
X221254494Y-48194463D01*
X221144180Y-48135498D01*
X221024482Y-48099188D01*
X220900000Y-48086928D01*
X220485750Y-48090000D01*
X220327000Y-48248750D01*
X220073000Y-48248750D01*
X219914250Y-48090000D01*
X219500000Y-48086928D01*
X219375518Y-48099188D01*
X219255820Y-48135498D01*
X219145506Y-48194463D01*
X219048815Y-48273815D01*
X218969463Y-48370506D01*
X218934846Y-48435269D01*
X218909494Y-48414463D01*
X218799180Y-48355498D01*
X218679482Y-48319188D01*
X218555000Y-48306928D01*
X218365750Y-48310000D01*
X218207000Y-48468750D01*
X218207000Y-49255500D01*
X218227000Y-49255500D01*
X218227000Y-49509500D01*
X218207000Y-49509500D01*
X218207000Y-49529500D01*
X217953000Y-49529500D01*
X217953000Y-49509500D01*
X217128750Y-49509500D01*
X217023250Y-49615000D01*
X216293001Y-49615000D01*
X216009817Y-49382597D01*
X215682348Y-49207561D01*
X215327024Y-49099775D01*
X215050097Y-49072500D01*
X215050089Y-49072500D01*
X214957500Y-49063381D01*
X214864911Y-49072500D01*
X199300097Y-49072500D01*
X199207500Y-49063380D01*
X199114903Y-49072500D01*
X198870162Y-49096605D01*
X198837975Y-49099775D01*
X198730189Y-49132472D01*
X198482652Y-49207561D01*
X198155183Y-49382597D01*
X198021190Y-49492562D01*
X197940079Y-49559128D01*
X197940077Y-49559130D01*
X197868155Y-49618155D01*
X197809130Y-49690077D01*
X193384208Y-54115000D01*
X186472674Y-54115000D01*
X186451185Y-54088815D01*
X186354494Y-54009463D01*
X186244180Y-53950498D01*
X186124482Y-53914188D01*
X186000000Y-53901928D01*
X183000000Y-53901928D01*
X182875518Y-53914188D01*
X182755820Y-53950498D01*
X182645506Y-54009463D01*
X182548815Y-54088815D01*
X182469463Y-54185506D01*
X182410498Y-54295820D01*
X182374188Y-54415518D01*
X182361928Y-54540000D01*
X174410000Y-54540000D01*
X174410000Y-47715852D01*
X176115000Y-47715852D01*
X176115000Y-48284148D01*
X176225869Y-48841523D01*
X176443346Y-49366560D01*
X176759074Y-49839080D01*
X177160920Y-50240926D01*
X177633440Y-50556654D01*
X178158477Y-50774131D01*
X178715852Y-50885000D01*
X179284148Y-50885000D01*
X179841523Y-50774131D01*
X180366560Y-50556654D01*
X180839080Y-50240926D01*
X181240926Y-49839080D01*
X181556654Y-49366560D01*
X181731269Y-48945000D01*
X216966928Y-48945000D01*
X216970000Y-49096750D01*
X217128750Y-49255500D01*
X217953000Y-49255500D01*
X217953000Y-48468750D01*
X217794250Y-48310000D01*
X217605000Y-48306928D01*
X217480518Y-48319188D01*
X217360820Y-48355498D01*
X217250506Y-48414463D01*
X217153815Y-48493815D01*
X217074463Y-48590506D01*
X217015498Y-48700820D01*
X216979188Y-48820518D01*
X216966928Y-48945000D01*
X181731269Y-48945000D01*
X181774131Y-48841523D01*
X181885000Y-48284148D01*
X181885000Y-47715852D01*
X236115000Y-47715852D01*
X236115000Y-48284148D01*
X236225869Y-48841523D01*
X236443346Y-49366560D01*
X236759074Y-49839080D01*
X237160920Y-50240926D01*
X237633440Y-50556654D01*
X238158477Y-50774131D01*
X238715852Y-50885000D01*
X239284148Y-50885000D01*
X239841523Y-50774131D01*
X240366560Y-50556654D01*
X240839080Y-50240926D01*
X241240926Y-49839080D01*
X241556654Y-49366560D01*
X241774131Y-48841523D01*
X241885000Y-48284148D01*
X241885000Y-47715852D01*
X241774131Y-47158477D01*
X241556654Y-46633440D01*
X241240926Y-46160920D01*
X240839080Y-45759074D01*
X240366560Y-45443346D01*
X239841523Y-45225869D01*
X239284148Y-45115000D01*
X238715852Y-45115000D01*
X238158477Y-45225869D01*
X237633440Y-45443346D01*
X237160920Y-45759074D01*
X236759074Y-46160920D01*
X236443346Y-46633440D01*
X236225869Y-47158477D01*
X236115000Y-47715852D01*
X181885000Y-47715852D01*
X181774131Y-47158477D01*
X181556654Y-46633440D01*
X181240926Y-46160920D01*
X180839080Y-45759074D01*
X180366560Y-45443346D01*
X179841523Y-45225869D01*
X179284148Y-45115000D01*
X178715852Y-45115000D01*
X178158477Y-45225869D01*
X177633440Y-45443346D01*
X177160920Y-45759074D01*
X176759074Y-46160920D01*
X176443346Y-46633440D01*
X176225869Y-47158477D01*
X176115000Y-47715852D01*
X174410000Y-47715852D01*
X174410000Y-46982279D01*
X174448147Y-46593225D01*
X174551763Y-46250033D01*
X174720062Y-45933511D01*
X174946637Y-45655701D01*
X175222856Y-45427194D01*
X175538197Y-45256690D01*
X175880656Y-45150681D01*
X176267712Y-45110000D01*
X241967721Y-45110000D01*
X242356775Y-45148147D01*
G37*
X242356775Y-45148147D02*
X242699967Y-45251763D01*
X243016489Y-45420062D01*
X243294299Y-45646637D01*
X243522806Y-45922856D01*
X243693310Y-46238197D01*
X243799319Y-46580656D01*
X243840000Y-46967712D01*
X243840001Y-141867711D01*
X243801853Y-142256776D01*
X243698238Y-142599964D01*
X243529939Y-142916489D01*
X243303365Y-143194296D01*
X243027146Y-143422805D01*
X242711803Y-143593310D01*
X242369344Y-143699319D01*
X241982288Y-143740000D01*
X176282279Y-143740000D01*
X175893224Y-143701853D01*
X175550036Y-143598238D01*
X175233511Y-143429939D01*
X174955704Y-143203365D01*
X174727195Y-142927146D01*
X174556690Y-142611803D01*
X174450681Y-142269344D01*
X174410000Y-141882288D01*
X174410000Y-139715852D01*
X197615000Y-139715852D01*
X197615000Y-140284148D01*
X197725869Y-140841523D01*
X197943346Y-141366560D01*
X198259074Y-141839080D01*
X198660920Y-142240926D01*
X199133440Y-142556654D01*
X199658477Y-142774131D01*
X200215852Y-142885000D01*
X200784148Y-142885000D01*
X201341523Y-142774131D01*
X201866560Y-142556654D01*
X202339080Y-142240926D01*
X202740926Y-141839080D01*
X203056654Y-141366560D01*
X203274131Y-140841523D01*
X203385000Y-140284148D01*
X203385000Y-139715852D01*
X234615000Y-139715852D01*
X234615000Y-140284148D01*
X234725869Y-140841523D01*
X234943346Y-141366560D01*
X235259074Y-141839080D01*
X235660920Y-142240926D01*
X236133440Y-142556654D01*
X236658477Y-142774131D01*
X237215852Y-142885000D01*
X237784148Y-142885000D01*
X238341523Y-142774131D01*
X238866560Y-142556654D01*
X239339080Y-142240926D01*
X239740926Y-141839080D01*
X240056654Y-141366560D01*
X240274131Y-140841523D01*
X240385000Y-140284148D01*
X240385000Y-139715852D01*
X240274131Y-139158477D01*
X240056654Y-138633440D01*
X239740926Y-138160920D01*
X239339080Y-137759074D01*
X238866560Y-137443346D01*
X238341523Y-137225869D01*
X237784148Y-137115000D01*
X237215852Y-137115000D01*
X236658477Y-137225869D01*
X236133440Y-137443346D01*
X235660920Y-137759074D01*
X235259074Y-138160920D01*
X234943346Y-138633440D01*
X234725869Y-139158477D01*
X234615000Y-139715852D01*
X203385000Y-139715852D01*
X203274131Y-139158477D01*
X203056654Y-138633440D01*
X202740926Y-138160920D01*
X202339080Y-137759074D01*
X201866560Y-137443346D01*
X201341523Y-137225869D01*
X200784148Y-137115000D01*
X200215852Y-137115000D01*
X199658477Y-137225869D01*
X199133440Y-137443346D01*
X198660920Y-137759074D01*
X198259074Y-138160920D01*
X197943346Y-138633440D01*
X197725869Y-139158477D01*
X197615000Y-139715852D01*
X174410000Y-139715852D01*
X174410000Y-128560000D01*
X185361928Y-128560000D01*
X185361928Y-131560000D01*
X185374188Y-131684482D01*
X185410498Y-131804180D01*
X185469463Y-131914494D01*
X185548815Y-132011185D01*
X185645506Y-132090537D01*
X185755820Y-132149502D01*
X185875518Y-132185812D01*
X186000000Y-132198072D01*
X186491031Y-132198072D01*
X186775152Y-132349938D01*
X187130476Y-132457725D01*
X187500000Y-132494119D01*
X187869524Y-132457725D01*
X188224848Y-132349938D01*
X188508969Y-132198072D01*
X189000000Y-132198072D01*
X189124482Y-132185812D01*
X189244180Y-132149502D01*
X189354494Y-132090537D01*
X189451185Y-132011185D01*
X189530537Y-131914494D01*
X189546302Y-131885000D01*
X198307411Y-131885000D01*
X198400000Y-131894119D01*
X198492589Y-131885000D01*
X198492597Y-131885000D01*
X198769524Y-131857725D01*
X199124848Y-131749939D01*
X199452317Y-131574903D01*
X199739345Y-131339345D01*
X199798374Y-131267418D01*
X208898371Y-122167421D01*
X209074902Y-121952318D01*
X209249938Y-121624850D01*
X209357724Y-121269525D01*
X209394119Y-120900001D01*
X209357724Y-120530477D01*
X209249938Y-120175152D01*
X209074902Y-119847684D01*
X208839344Y-119560656D01*
X208552316Y-119325098D01*
X208224848Y-119150062D01*
X207869523Y-119042276D01*
X207499999Y-119005881D01*
X207130475Y-119042276D01*
X206775150Y-119150062D01*
X206447682Y-119325098D01*
X206232579Y-119501629D01*
X197619208Y-128115000D01*
X189456261Y-128115000D01*
X189451185Y-128108815D01*
X189354494Y-128029463D01*
X189244180Y-127970498D01*
X189124482Y-127934188D01*
X189000000Y-127921928D01*
X186000000Y-127921928D01*
X185875518Y-127934188D01*
X185755820Y-127970498D01*
X185645506Y-128029463D01*
X185548815Y-128108815D01*
X185469463Y-128205506D01*
X185410498Y-128315820D01*
X185374188Y-128435518D01*
X185361928Y-128560000D01*
X174410000Y-128560000D01*
X174410000Y-126166801D01*
X181842740Y-126166801D01*
X181843640Y-126175972D01*
X181864041Y-126370069D01*
X181876068Y-126428658D01*
X181887277Y-126487423D01*
X181889941Y-126496245D01*
X181947653Y-126682683D01*
X181970838Y-126737838D01*
X181993242Y-126793291D01*
X181997568Y-126801427D01*
X182090393Y-126973104D01*
X182123846Y-127022699D01*
X182156600Y-127072753D01*
X182162424Y-127079894D01*
X182286828Y-127230272D01*
X182329263Y-127272411D01*
X182371126Y-127315161D01*
X182378227Y-127321034D01*
X182529469Y-127444384D01*
X182579277Y-127477477D01*
X182628651Y-127511284D01*
X182636757Y-127515667D01*
X182809080Y-127607292D01*
X182864392Y-127630090D01*
X182919366Y-127653652D01*
X182928169Y-127656377D01*
X183115006Y-127712786D01*
X183173686Y-127724405D01*
X183232196Y-127736842D01*
X183241361Y-127737805D01*
X183435594Y-127756850D01*
X183435598Y-127756850D01*
X183467581Y-127760000D01*
X191532419Y-127760000D01*
X191565387Y-127756753D01*
X191578367Y-127756753D01*
X191587532Y-127755790D01*
X191781481Y-127734035D01*
X191839966Y-127721603D01*
X191898676Y-127709978D01*
X191907479Y-127707253D01*
X192093509Y-127648240D01*
X192148519Y-127624662D01*
X192203794Y-127601880D01*
X192211900Y-127597497D01*
X192382925Y-127503475D01*
X192432264Y-127469692D01*
X192482106Y-127436577D01*
X192489206Y-127430703D01*
X192638712Y-127305253D01*
X192680557Y-127262523D01*
X192723013Y-127220362D01*
X192728837Y-127213220D01*
X192851128Y-127061121D01*
X192883887Y-127011059D01*
X192917331Y-126961477D01*
X192921657Y-126953340D01*
X193012077Y-126780385D01*
X193034475Y-126724947D01*
X193057669Y-126669772D01*
X193060332Y-126660950D01*
X193115435Y-126473725D01*
X193126633Y-126415017D01*
X193138672Y-126356372D01*
X193139570Y-126347201D01*
X193157259Y-126152839D01*
X193156842Y-126093057D01*
X193157260Y-126033199D01*
X193156360Y-126024028D01*
X193135959Y-125829931D01*
X193123934Y-125771348D01*
X193112723Y-125712577D01*
X193110059Y-125703755D01*
X193052347Y-125517317D01*
X193029162Y-125462162D01*
X193006758Y-125406709D01*
X193002432Y-125398573D01*
X192909607Y-125226896D01*
X192876139Y-125177278D01*
X192843400Y-125127247D01*
X192837576Y-125120106D01*
X192713172Y-124969728D01*
X192670737Y-124927589D01*
X192628874Y-124884839D01*
X192621773Y-124878966D01*
X192470531Y-124755616D01*
X192420738Y-124722534D01*
X192371349Y-124688716D01*
X192363243Y-124684333D01*
X192190921Y-124592708D01*
X192135606Y-124569909D01*
X192080634Y-124546348D01*
X192071831Y-124543623D01*
X191884995Y-124487214D01*
X191826307Y-124475594D01*
X191767804Y-124463158D01*
X191758639Y-124462195D01*
X191564405Y-124443150D01*
X191564402Y-124443150D01*
X191532419Y-124440000D01*
X183467581Y-124440000D01*
X183434613Y-124443247D01*
X183421633Y-124443247D01*
X183412468Y-124444210D01*
X183218518Y-124465965D01*
X183160019Y-124478400D01*
X183101325Y-124490022D01*
X183092522Y-124492747D01*
X182906491Y-124551760D01*
X182851509Y-124575326D01*
X182796206Y-124598120D01*
X182788100Y-124602503D01*
X182617075Y-124696525D01*
X182567752Y-124730298D01*
X182517894Y-124763423D01*
X182510794Y-124769297D01*
X182361288Y-124894747D01*
X182319443Y-124937477D01*
X182276987Y-124979638D01*
X182271163Y-124986780D01*
X182148872Y-125138880D01*
X182116114Y-125188939D01*
X182082669Y-125238523D01*
X182078343Y-125246660D01*
X181987923Y-125419616D01*
X181965535Y-125475028D01*
X181942331Y-125530228D01*
X181939668Y-125539050D01*
X181884565Y-125726276D01*
X181873360Y-125785014D01*
X181861328Y-125843628D01*
X181860429Y-125852800D01*
X181842741Y-126047161D01*
X181843158Y-126106943D01*
X181842740Y-126166801D01*
X174410000Y-126166801D01*
X174410000Y-120640000D01*
X185361928Y-120640000D01*
X185361928Y-123640000D01*
X185374188Y-123764482D01*
X185410498Y-123884180D01*
X185469463Y-123994494D01*
X185548815Y-124091185D01*
X185645506Y-124170537D01*
X185755820Y-124229502D01*
X185875518Y-124265812D01*
X186000000Y-124278072D01*
X189000000Y-124278072D01*
X189124482Y-124265812D01*
X189244180Y-124229502D01*
X189354494Y-124170537D01*
X189451185Y-124091185D01*
X189530537Y-123994494D01*
X189589502Y-123884180D01*
X189625812Y-123764482D01*
X189638072Y-123640000D01*
X189638072Y-120640000D01*
X189625812Y-120515518D01*
X189589502Y-120395820D01*
X189530537Y-120285506D01*
X189451185Y-120188815D01*
X189385000Y-120134499D01*
X189385000Y-115738967D01*
X205865000Y-115738967D01*
X205865000Y-116061033D01*
X205927832Y-116376912D01*
X206051082Y-116674463D01*
X206230013Y-116942252D01*
X206457748Y-117169987D01*
X206725537Y-117348918D01*
X207023088Y-117472168D01*
X207338967Y-117535000D01*
X207661033Y-117535000D01*
X207976912Y-117472168D01*
X208274463Y-117348918D01*
X208542252Y-117169987D01*
X208769987Y-116942252D01*
X208948918Y-116674463D01*
X209072168Y-116376912D01*
X209135000Y-116061033D01*
X209135000Y-115738967D01*
X209072168Y-115423088D01*
X208948918Y-115125537D01*
X208769987Y-114857748D01*
X208542252Y-114630013D01*
X208274463Y-114451082D01*
X207976912Y-114327832D01*
X207661033Y-114265000D01*
X207338967Y-114265000D01*
X207023088Y-114327832D01*
X206725537Y-114451082D01*
X206457748Y-114630013D01*
X206230013Y-114857748D01*
X206051082Y-115125537D01*
X205927832Y-115423088D01*
X205865000Y-115738967D01*
X189385000Y-115738967D01*
X189385000Y-114280792D01*
X191610377Y-112055415D01*
X191622756Y-112052953D01*
X192011302Y-111892012D01*
X192360983Y-111658363D01*
X192658363Y-111360983D01*
X192892012Y-111011302D01*
X193052953Y-110622756D01*
X193135000Y-110210279D01*
X193135000Y-109789721D01*
X193052953Y-109377244D01*
X192892012Y-108988698D01*
X192777155Y-108816801D01*
X199092740Y-108816801D01*
X199093640Y-108825972D01*
X199114041Y-109020069D01*
X199126068Y-109078658D01*
X199137277Y-109137423D01*
X199139941Y-109146245D01*
X199197653Y-109332683D01*
X199220838Y-109387838D01*
X199243242Y-109443291D01*
X199247568Y-109451427D01*
X199340393Y-109623104D01*
X199373846Y-109672699D01*
X199406600Y-109722753D01*
X199412424Y-109729894D01*
X199536828Y-109880272D01*
X199579263Y-109922411D01*
X199621126Y-109965161D01*
X199628227Y-109971034D01*
X199779469Y-110094384D01*
X199829277Y-110127477D01*
X199878651Y-110161284D01*
X199886757Y-110165667D01*
X200059080Y-110257292D01*
X200114392Y-110280090D01*
X200169366Y-110303652D01*
X200178169Y-110306377D01*
X200365006Y-110362786D01*
X200423686Y-110374405D01*
X200482196Y-110386842D01*
X200491361Y-110387805D01*
X200685594Y-110406850D01*
X200685598Y-110406850D01*
X200717581Y-110410000D01*
X216467721Y-110410000D01*
X216565424Y-110419580D01*
X216628356Y-110438580D01*
X216686405Y-110469445D01*
X216737343Y-110510989D01*
X216779248Y-110561644D01*
X216810515Y-110619471D01*
X216829956Y-110682272D01*
X216840000Y-110777835D01*
X216840001Y-124532419D01*
X216843247Y-124565377D01*
X216843247Y-124578367D01*
X216844210Y-124587532D01*
X216865965Y-124781481D01*
X216878397Y-124839966D01*
X216890022Y-124898676D01*
X216892747Y-124907479D01*
X216951760Y-125093509D01*
X216975338Y-125148519D01*
X216998120Y-125203794D01*
X217002503Y-125211900D01*
X217096525Y-125382925D01*
X217130308Y-125432264D01*
X217163423Y-125482106D01*
X217169297Y-125489206D01*
X217294747Y-125638712D01*
X217337477Y-125680557D01*
X217379638Y-125723013D01*
X217386780Y-125728837D01*
X217538879Y-125851128D01*
X217588941Y-125883887D01*
X217638523Y-125917331D01*
X217646660Y-125921657D01*
X217646663Y-125921659D01*
X217646667Y-125921660D01*
X217819615Y-126012077D01*
X217875053Y-126034475D01*
X217930228Y-126057669D01*
X217939050Y-126060332D01*
X218126275Y-126115435D01*
X218184983Y-126126633D01*
X218243628Y-126138672D01*
X218252799Y-126139570D01*
X218447161Y-126157259D01*
X218506943Y-126156842D01*
X218566801Y-126157260D01*
X218575972Y-126156360D01*
X218770069Y-126135959D01*
X218828658Y-126123932D01*
X218887423Y-126112723D01*
X218896245Y-126110059D01*
X219082683Y-126052347D01*
X219137838Y-126029162D01*
X219193291Y-126006758D01*
X219201427Y-126002432D01*
X219373104Y-125909607D01*
X219422699Y-125876154D01*
X219472753Y-125843400D01*
X219479894Y-125837576D01*
X219630272Y-125713172D01*
X219672411Y-125670737D01*
X219715161Y-125628874D01*
X219721034Y-125621773D01*
X219844384Y-125470531D01*
X219877477Y-125420723D01*
X219911284Y-125371349D01*
X219915667Y-125363243D01*
X220007292Y-125190920D01*
X220030090Y-125135608D01*
X220053652Y-125080634D01*
X220056377Y-125071831D01*
X220112786Y-124884994D01*
X220124405Y-124826314D01*
X220136842Y-124767804D01*
X220137805Y-124758639D01*
X220156850Y-124564406D01*
X220156850Y-124564402D01*
X220160000Y-124532419D01*
X220160000Y-92967581D01*
X220156753Y-92934613D01*
X220156753Y-92921633D01*
X220155790Y-92912468D01*
X220134035Y-92718518D01*
X220121600Y-92660019D01*
X220109978Y-92601325D01*
X220107253Y-92592522D01*
X220048240Y-92406491D01*
X220024674Y-92351509D01*
X220001880Y-92296206D01*
X219997497Y-92288100D01*
X219903475Y-92117075D01*
X219869702Y-92067752D01*
X219836577Y-92017894D01*
X219830703Y-92010794D01*
X219705253Y-91861288D01*
X219662523Y-91819443D01*
X219620362Y-91776987D01*
X219613220Y-91771163D01*
X219461120Y-91648872D01*
X219411061Y-91616114D01*
X219361477Y-91582669D01*
X219353340Y-91578343D01*
X219353337Y-91578341D01*
X219353333Y-91578340D01*
X219180384Y-91487923D01*
X219124972Y-91465535D01*
X219069772Y-91442331D01*
X219060950Y-91439668D01*
X218873724Y-91384565D01*
X218814986Y-91373360D01*
X218756372Y-91361328D01*
X218747200Y-91360429D01*
X218552839Y-91342741D01*
X218493057Y-91343158D01*
X218433199Y-91342740D01*
X218424028Y-91343640D01*
X218229931Y-91364041D01*
X218171348Y-91376066D01*
X218112577Y-91387277D01*
X218103755Y-91389941D01*
X217917317Y-91447653D01*
X217862162Y-91470838D01*
X217806709Y-91493242D01*
X217798573Y-91497568D01*
X217626896Y-91590393D01*
X217577278Y-91623861D01*
X217527247Y-91656600D01*
X217520106Y-91662424D01*
X217369728Y-91786828D01*
X217327589Y-91829263D01*
X217284839Y-91871126D01*
X217278966Y-91878227D01*
X217155616Y-92029469D01*
X217122534Y-92079262D01*
X217088716Y-92128651D01*
X217084333Y-92136757D01*
X216992708Y-92309079D01*
X216969909Y-92364394D01*
X216946348Y-92419366D01*
X216943623Y-92428169D01*
X216887214Y-92615005D01*
X216875594Y-92673693D01*
X216863158Y-92732196D01*
X216862195Y-92741361D01*
X216843150Y-92935595D01*
X216843150Y-92935608D01*
X216840001Y-92967581D01*
X216840000Y-106717721D01*
X216830420Y-106815424D01*
X216811420Y-106878357D01*
X216780554Y-106936406D01*
X216739011Y-106987343D01*
X216688356Y-107029248D01*
X216630529Y-107060515D01*
X216567728Y-107079956D01*
X216472165Y-107090000D01*
X200717581Y-107090000D01*
X200684613Y-107093247D01*
X200671633Y-107093247D01*
X200662468Y-107094210D01*
X200468518Y-107115965D01*
X200410019Y-107128400D01*
X200351325Y-107140022D01*
X200342522Y-107142747D01*
X200156491Y-107201760D01*
X200101509Y-107225326D01*
X200046206Y-107248120D01*
X200038100Y-107252503D01*
X199867075Y-107346525D01*
X199817752Y-107380298D01*
X199767894Y-107413423D01*
X199760794Y-107419297D01*
X199611288Y-107544747D01*
X199569443Y-107587477D01*
X199526987Y-107629638D01*
X199521163Y-107636780D01*
X199398872Y-107788880D01*
X199366114Y-107838939D01*
X199332669Y-107888523D01*
X199328343Y-107896660D01*
X199237923Y-108069616D01*
X199215535Y-108125028D01*
X199192331Y-108180228D01*
X199189668Y-108189050D01*
X199134565Y-108376276D01*
X199123360Y-108435014D01*
X199111328Y-108493628D01*
X199110429Y-108502800D01*
X199092741Y-108697161D01*
X199093158Y-108756943D01*
X199092740Y-108816801D01*
X192777155Y-108816801D01*
X192658363Y-108639017D01*
X192360983Y-108341637D01*
X192011302Y-108107988D01*
X191622756Y-107947047D01*
X191210279Y-107865000D01*
X190789721Y-107865000D01*
X190377244Y-107947047D01*
X189988698Y-108107988D01*
X189639017Y-108341637D01*
X189341637Y-108639017D01*
X189107988Y-108988698D01*
X188947047Y-109377244D01*
X188944585Y-109389623D01*
X186232582Y-112101626D01*
X186160655Y-112160655D01*
X185925097Y-112447683D01*
X185750061Y-112775153D01*
X185642275Y-113130477D01*
X185615000Y-113407404D01*
X185615000Y-113407411D01*
X185605881Y-113500000D01*
X185615000Y-113592589D01*
X185615001Y-120134498D01*
X185548815Y-120188815D01*
X185469463Y-120285506D01*
X185410498Y-120395820D01*
X185374188Y-120515518D01*
X185361928Y-120640000D01*
X174410000Y-120640000D01*
X174410000Y-100738967D01*
X205865000Y-100738967D01*
X205865000Y-101061033D01*
X205927832Y-101376912D01*
X206051082Y-101674463D01*
X206230013Y-101942252D01*
X206457748Y-102169987D01*
X206725537Y-102348918D01*
X207023088Y-102472168D01*
X207338967Y-102535000D01*
X207661033Y-102535000D01*
X207976912Y-102472168D01*
X208274463Y-102348918D01*
X208542252Y-102169987D01*
X208769987Y-101942252D01*
X208948918Y-101674463D01*
X209072168Y-101376912D01*
X209135000Y-101061033D01*
X209135000Y-100738967D01*
X209072168Y-100423088D01*
X208948918Y-100125537D01*
X208769987Y-99857748D01*
X208542252Y-99630013D01*
X208274463Y-99451082D01*
X207976912Y-99327832D01*
X207661033Y-99265000D01*
X207338967Y-99265000D01*
X207023088Y-99327832D01*
X206725537Y-99451082D01*
X206457748Y-99630013D01*
X206230013Y-99857748D01*
X206051082Y-100125537D01*
X205927832Y-100423088D01*
X205865000Y-100738967D01*
X174410000Y-100738967D01*
X174410000Y-98554495D01*
X189015000Y-98554495D01*
X189015000Y-98945505D01*
X189091282Y-99329003D01*
X189240915Y-99690250D01*
X189458149Y-100015364D01*
X189734636Y-100291851D01*
X190059750Y-100509085D01*
X190420997Y-100658718D01*
X190804495Y-100735000D01*
X191195505Y-100735000D01*
X191579003Y-100658718D01*
X191940250Y-100509085D01*
X192265364Y-100291851D01*
X192541851Y-100015364D01*
X192759085Y-99690250D01*
X192908718Y-99329003D01*
X192985000Y-98945505D01*
X192985000Y-98554495D01*
X192908718Y-98170997D01*
X192759085Y-97809750D01*
X192541851Y-97484636D01*
X192265364Y-97208149D01*
X191940250Y-96990915D01*
X191579003Y-96841282D01*
X191195505Y-96765000D01*
X190804495Y-96765000D01*
X190420997Y-96841282D01*
X190059750Y-96990915D01*
X189734636Y-97208149D01*
X189458149Y-97484636D01*
X189240915Y-97809750D01*
X189091282Y-98170997D01*
X189015000Y-98554495D01*
X174410000Y-98554495D01*
X174410000Y-87289721D01*
X188865000Y-87289721D01*
X188865000Y-87710279D01*
X188947047Y-88122756D01*
X189107988Y-88511302D01*
X189341637Y-88860983D01*
X189639017Y-89158363D01*
X189988698Y-89392012D01*
X190377244Y-89552953D01*
X190789721Y-89635000D01*
X191210279Y-89635000D01*
X191622756Y-89552953D01*
X192011302Y-89392012D01*
X192021796Y-89385000D01*
X198219208Y-89385000D01*
X205880937Y-97046730D01*
X205910498Y-97144180D01*
X205969463Y-97254494D01*
X206048815Y-97351185D01*
X206145506Y-97430537D01*
X206255820Y-97489502D01*
X206353270Y-97519063D01*
X206482579Y-97648372D01*
X206697683Y-97824903D01*
X207025151Y-97999938D01*
X207380476Y-98107725D01*
X207750000Y-98144120D01*
X208119524Y-98107725D01*
X208474849Y-97999938D01*
X208802317Y-97824903D01*
X209089345Y-97589345D01*
X209324903Y-97302317D01*
X209499938Y-96974849D01*
X209607725Y-96619524D01*
X209644120Y-96250000D01*
X209607725Y-95880476D01*
X209499938Y-95525151D01*
X209324903Y-95197683D01*
X209148372Y-94982579D01*
X209138072Y-94972279D01*
X209138072Y-94900000D01*
X209125812Y-94775518D01*
X209089502Y-94655820D01*
X209030537Y-94545506D01*
X208951185Y-94448815D01*
X208854494Y-94369463D01*
X208744180Y-94310498D01*
X208624482Y-94274188D01*
X208500000Y-94261928D01*
X208427721Y-94261928D01*
X200398374Y-86232582D01*
X200339345Y-86160655D01*
X200052317Y-85925097D01*
X199724848Y-85750061D01*
X199369524Y-85642275D01*
X199092597Y-85615000D01*
X199092589Y-85615000D01*
X199000000Y-85605881D01*
X198907411Y-85615000D01*
X192021796Y-85615000D01*
X192011302Y-85607988D01*
X191622756Y-85447047D01*
X191210279Y-85365000D01*
X190789721Y-85365000D01*
X190377244Y-85447047D01*
X189988698Y-85607988D01*
X189639017Y-85841637D01*
X189341637Y-86139017D01*
X189107988Y-86488698D01*
X188947047Y-86877244D01*
X188865000Y-87289721D01*
X174410000Y-87289721D01*
X174410000Y-78720000D01*
X214305880Y-78720000D01*
X214315000Y-78812597D01*
X214315001Y-85107401D01*
X214305881Y-85200000D01*
X214342275Y-85569524D01*
X214450062Y-85924848D01*
X214625098Y-86252317D01*
X214801628Y-86467420D01*
X214801631Y-86467423D01*
X214860656Y-86539345D01*
X214932577Y-86598369D01*
X219351630Y-91017423D01*
X219410655Y-91089345D01*
X219482577Y-91148370D01*
X219482579Y-91148372D01*
X219697683Y-91324903D01*
X220025152Y-91499939D01*
X220327032Y-91591513D01*
X220380476Y-91607725D01*
X220750000Y-91644120D01*
X220842597Y-91635000D01*
X221354141Y-91635000D01*
X224623422Y-95649181D01*
X224625098Y-95652317D01*
X224669413Y-95706316D01*
X224706785Y-95765331D01*
X224784477Y-95846932D01*
X224796883Y-95862165D01*
X224799380Y-95864681D01*
X224801628Y-95867420D01*
X224850788Y-95916580D01*
X224898663Y-95966864D01*
X224913524Y-95979683D01*
X224992909Y-96059665D01*
X224995863Y-96061655D01*
X228115001Y-99180793D01*
X228115000Y-118107411D01*
X228105881Y-118200000D01*
X228115000Y-118292589D01*
X228115000Y-118292596D01*
X228142275Y-118569523D01*
X228250061Y-118924847D01*
X228425097Y-119252317D01*
X228660655Y-119539345D01*
X228732582Y-119598374D01*
X231301628Y-122167421D01*
X231360655Y-122239345D01*
X231432577Y-122298370D01*
X231432579Y-122298372D01*
X231494170Y-122348918D01*
X231647683Y-122474903D01*
X231975152Y-122649939D01*
X232330476Y-122757725D01*
X232700000Y-122794120D01*
X232792597Y-122785000D01*
X235092597Y-122785000D01*
X235369524Y-122757725D01*
X235724848Y-122649939D01*
X236052317Y-122474903D01*
X236339345Y-122239345D01*
X236574903Y-121952317D01*
X236749939Y-121624848D01*
X236857725Y-121269524D01*
X236894120Y-120900000D01*
X236857725Y-120530476D01*
X236749939Y-120175152D01*
X236574903Y-119847683D01*
X236339345Y-119560655D01*
X236052317Y-119325097D01*
X235724848Y-119150061D01*
X235369524Y-119042275D01*
X235092597Y-119015000D01*
X233480793Y-119015000D01*
X231885000Y-117419208D01*
X231885000Y-110738967D01*
X233365000Y-110738967D01*
X233365000Y-111061033D01*
X233427832Y-111376912D01*
X233551082Y-111674463D01*
X233730013Y-111942252D01*
X233957748Y-112169987D01*
X234225537Y-112348918D01*
X234523088Y-112472168D01*
X234838967Y-112535000D01*
X235161033Y-112535000D01*
X235476912Y-112472168D01*
X235774463Y-112348918D01*
X236042252Y-112169987D01*
X236269987Y-111942252D01*
X236448918Y-111674463D01*
X236572168Y-111376912D01*
X236635000Y-111061033D01*
X236635000Y-110738967D01*
X236572168Y-110423088D01*
X236448918Y-110125537D01*
X236269987Y-109857748D01*
X236042252Y-109630013D01*
X235774463Y-109451082D01*
X235476912Y-109327832D01*
X235161033Y-109265000D01*
X234838967Y-109265000D01*
X234523088Y-109327832D01*
X234225537Y-109451082D01*
X233957748Y-109630013D01*
X233730013Y-109857748D01*
X233551082Y-110125537D01*
X233427832Y-110423088D01*
X233365000Y-110738967D01*
X231885000Y-110738967D01*
X231885000Y-105738967D01*
X233365000Y-105738967D01*
X233365000Y-106061033D01*
X233427832Y-106376912D01*
X233551082Y-106674463D01*
X233730013Y-106942252D01*
X233957748Y-107169987D01*
X234225537Y-107348918D01*
X234523088Y-107472168D01*
X234838967Y-107535000D01*
X235161033Y-107535000D01*
X235476912Y-107472168D01*
X235774463Y-107348918D01*
X236042252Y-107169987D01*
X236269987Y-106942252D01*
X236448918Y-106674463D01*
X236572168Y-106376912D01*
X236635000Y-106061033D01*
X236635000Y-105738967D01*
X236572168Y-105423088D01*
X236448918Y-105125537D01*
X236269987Y-104857748D01*
X236042252Y-104630013D01*
X235774463Y-104451082D01*
X235476912Y-104327832D01*
X235161033Y-104265000D01*
X234838967Y-104265000D01*
X234523088Y-104327832D01*
X234225537Y-104451082D01*
X233957748Y-104630013D01*
X233730013Y-104857748D01*
X233551082Y-105125537D01*
X233427832Y-105423088D01*
X233365000Y-105738967D01*
X231885000Y-105738967D01*
X231885000Y-101928462D01*
X231922648Y-101945150D01*
X232025153Y-101999940D01*
X232092004Y-102020219D01*
X232155860Y-102048524D01*
X232269251Y-102073986D01*
X232380477Y-102107726D01*
X232450000Y-102114573D01*
X232518152Y-102129877D01*
X232634328Y-102132728D01*
X232657404Y-102135001D01*
X232726937Y-102135001D01*
X232889352Y-102138987D01*
X232912323Y-102135001D01*
X233469209Y-102135001D01*
X233982580Y-102648372D01*
X234197683Y-102824902D01*
X234525151Y-102999938D01*
X234880475Y-103107724D01*
X235249999Y-103144119D01*
X235619523Y-103107724D01*
X235974848Y-102999938D01*
X236302316Y-102824902D01*
X236589344Y-102589344D01*
X236824902Y-102302316D01*
X236999938Y-101974848D01*
X237107724Y-101619523D01*
X237144119Y-101249999D01*
X237107724Y-100880475D01*
X236999938Y-100525151D01*
X236824902Y-100197683D01*
X236648372Y-99982580D01*
X235648375Y-98982583D01*
X235589346Y-98910656D01*
X235302318Y-98675098D01*
X234974849Y-98500062D01*
X234619525Y-98392276D01*
X234342598Y-98365001D01*
X234342590Y-98365001D01*
X234250001Y-98355882D01*
X234157412Y-98365001D01*
X233450668Y-98365001D01*
X227556836Y-93281009D01*
X224085000Y-89018123D01*
X224085000Y-78720000D01*
X226305880Y-78720000D01*
X226315001Y-78812607D01*
X226315000Y-87207411D01*
X226305881Y-87300000D01*
X226315000Y-87392589D01*
X226315000Y-87392596D01*
X226342275Y-87669523D01*
X226450061Y-88024847D01*
X226625097Y-88352317D01*
X226860655Y-88639345D01*
X226932582Y-88698374D01*
X232115001Y-93880794D01*
X232115001Y-94807412D01*
X232105882Y-94900001D01*
X232115001Y-94992590D01*
X232115001Y-94992597D01*
X232142276Y-95269524D01*
X232250062Y-95624848D01*
X232425098Y-95952318D01*
X232660656Y-96239346D01*
X232732583Y-96298375D01*
X233601626Y-97167418D01*
X233660655Y-97239345D01*
X233947683Y-97474903D01*
X234275152Y-97649939D01*
X234630476Y-97757725D01*
X235000000Y-97794120D01*
X235092597Y-97785000D01*
X237615001Y-97785000D01*
X237615000Y-110619207D01*
X233601628Y-114632580D01*
X233425098Y-114847683D01*
X233250062Y-115175152D01*
X233142275Y-115530476D01*
X233105881Y-115900000D01*
X233142275Y-116269524D01*
X233250062Y-116624848D01*
X233425098Y-116952317D01*
X233660655Y-117239345D01*
X233947683Y-117474902D01*
X234275152Y-117649938D01*
X234630476Y-117757725D01*
X235000000Y-117794119D01*
X235369524Y-117757725D01*
X235724848Y-117649938D01*
X236052317Y-117474902D01*
X236267420Y-117298372D01*
X240767423Y-112798370D01*
X240839345Y-112739345D01*
X241074903Y-112452317D01*
X241249939Y-112124848D01*
X241357725Y-111769524D01*
X241385000Y-111492597D01*
X241385000Y-111492590D01*
X241394119Y-111400001D01*
X241385000Y-111307412D01*
X241385000Y-96892597D01*
X241394120Y-96800000D01*
X241357725Y-96430476D01*
X241351662Y-96410488D01*
X241249939Y-96075152D01*
X241074903Y-95747683D01*
X240974095Y-95624848D01*
X240898372Y-95532579D01*
X240898370Y-95532577D01*
X240839345Y-95460655D01*
X240767423Y-95401630D01*
X239998370Y-94632577D01*
X239939345Y-94560655D01*
X239867423Y-94501630D01*
X236398375Y-91032583D01*
X236398372Y-91032579D01*
X236398370Y-91032577D01*
X236339345Y-90960655D01*
X236267423Y-90901630D01*
X235585000Y-90219208D01*
X235585000Y-78692597D01*
X235594120Y-78600000D01*
X235557725Y-78230476D01*
X235449939Y-77875152D01*
X235438072Y-77852950D01*
X235438072Y-77500000D01*
X235425812Y-77375518D01*
X235389502Y-77255820D01*
X235330537Y-77145506D01*
X235251185Y-77048815D01*
X235154494Y-76969463D01*
X235044180Y-76910498D01*
X234924482Y-76874188D01*
X234800000Y-76861928D01*
X234447050Y-76861928D01*
X234424848Y-76850061D01*
X234069524Y-76742275D01*
X233700000Y-76705880D01*
X233330477Y-76742275D01*
X233024803Y-76835000D01*
X228292597Y-76835000D01*
X228200000Y-76825880D01*
X228107403Y-76835000D01*
X227830476Y-76862275D01*
X227475152Y-76970061D01*
X227147683Y-77145097D01*
X226860655Y-77380655D01*
X226625097Y-77667683D01*
X226450061Y-77995152D01*
X226342275Y-78350476D01*
X226305880Y-78720000D01*
X224085000Y-78720000D01*
X224085000Y-78692597D01*
X224094120Y-78600000D01*
X224057725Y-78230476D01*
X223949939Y-77875152D01*
X223938072Y-77852950D01*
X223938072Y-77500000D01*
X223925812Y-77375518D01*
X223889502Y-77255820D01*
X223830537Y-77145506D01*
X223751185Y-77048815D01*
X223654494Y-76969463D01*
X223544180Y-76910498D01*
X223424482Y-76874188D01*
X223300000Y-76861928D01*
X222947050Y-76861928D01*
X222924848Y-76850061D01*
X222569524Y-76742275D01*
X222200000Y-76705880D01*
X221830477Y-76742275D01*
X221524803Y-76835000D01*
X216292597Y-76835000D01*
X216200000Y-76825880D01*
X216107403Y-76835000D01*
X215830476Y-76862275D01*
X215475152Y-76970061D01*
X215147683Y-77145097D01*
X214860655Y-77380655D01*
X214625097Y-77667683D01*
X214450061Y-77995152D01*
X214342275Y-78350476D01*
X214305880Y-78720000D01*
X174410000Y-78720000D01*
X174410000Y-76635413D01*
X186044192Y-76635413D01*
X186139956Y-76899814D01*
X186429571Y-77040704D01*
X186741108Y-77122384D01*
X187062595Y-77141718D01*
X187381675Y-77097961D01*
X187686088Y-76992795D01*
X187860044Y-76899814D01*
X187955808Y-76635413D01*
X198294192Y-76635413D01*
X198389956Y-76899814D01*
X198679571Y-77040704D01*
X198991108Y-77122384D01*
X199312595Y-77141718D01*
X199631675Y-77097961D01*
X199936088Y-76992795D01*
X200110044Y-76899814D01*
X200205808Y-76635413D01*
X199250000Y-75679605D01*
X198294192Y-76635413D01*
X187955808Y-76635413D01*
X187000000Y-75679605D01*
X186044192Y-76635413D01*
X174410000Y-76635413D01*
X174410000Y-75562595D01*
X185358282Y-75562595D01*
X185402039Y-75881675D01*
X185507205Y-76186088D01*
X185600186Y-76360044D01*
X185864587Y-76455808D01*
X186820395Y-75500000D01*
X187179605Y-75500000D01*
X188135413Y-76455808D01*
X188399814Y-76360044D01*
X188540704Y-76070429D01*
X188622384Y-75758892D01*
X188634189Y-75562595D01*
X197608282Y-75562595D01*
X197652039Y-75881675D01*
X197757205Y-76186088D01*
X197850186Y-76360044D01*
X198114587Y-76455808D01*
X199070395Y-75500000D01*
X199429605Y-75500000D01*
X200385413Y-76455808D01*
X200649814Y-76360044D01*
X200790704Y-76070429D01*
X200872384Y-75758892D01*
X200891718Y-75437405D01*
X200847961Y-75118325D01*
X200742795Y-74813912D01*
X200649814Y-74639956D01*
X200385413Y-74544192D01*
X199429605Y-75500000D01*
X199070395Y-75500000D01*
X198114587Y-74544192D01*
X197850186Y-74639956D01*
X197709296Y-74929571D01*
X197627616Y-75241108D01*
X197608282Y-75562595D01*
X188634189Y-75562595D01*
X188641718Y-75437405D01*
X188597961Y-75118325D01*
X188492795Y-74813912D01*
X188399814Y-74639956D01*
X188135413Y-74544192D01*
X187179605Y-75500000D01*
X186820395Y-75500000D01*
X185864587Y-74544192D01*
X185600186Y-74639956D01*
X185459296Y-74929571D01*
X185377616Y-75241108D01*
X185358282Y-75562595D01*
X174410000Y-75562595D01*
X174410000Y-74364587D01*
X186044192Y-74364587D01*
X187000000Y-75320395D01*
X187955808Y-74364587D01*
X198294192Y-74364587D01*
X199250000Y-75320395D01*
X200205808Y-74364587D01*
X200110044Y-74100186D01*
X199820429Y-73959296D01*
X199508892Y-73877616D01*
X199187405Y-73858282D01*
X198868325Y-73902039D01*
X198563912Y-74007205D01*
X198389956Y-74100186D01*
X198294192Y-74364587D01*
X187955808Y-74364587D01*
X187860044Y-74100186D01*
X187570429Y-73959296D01*
X187258892Y-73877616D01*
X186937405Y-73858282D01*
X186618325Y-73902039D01*
X186313912Y-74007205D01*
X186139956Y-74100186D01*
X186044192Y-74364587D01*
X174410000Y-74364587D01*
X174410000Y-65460000D01*
X182361928Y-65460000D01*
X182374188Y-65584482D01*
X182410498Y-65704180D01*
X182469463Y-65814494D01*
X182548815Y-65911185D01*
X182645506Y-65990537D01*
X182755820Y-66049502D01*
X182875518Y-66085812D01*
X183000000Y-66098072D01*
X184214250Y-66095000D01*
X184373000Y-65936250D01*
X184373000Y-64087000D01*
X184627000Y-64087000D01*
X184627000Y-65936250D01*
X184785750Y-66095000D01*
X186000000Y-66098072D01*
X186124482Y-66085812D01*
X186244180Y-66049502D01*
X186354494Y-65990537D01*
X186451185Y-65911185D01*
X186530537Y-65814494D01*
X186589502Y-65704180D01*
X186625812Y-65584482D01*
X186638072Y-65460000D01*
X186635000Y-64245750D01*
X186476250Y-64087000D01*
X184627000Y-64087000D01*
X184373000Y-64087000D01*
X182523750Y-64087000D01*
X182365000Y-64245750D01*
X182361928Y-65460000D01*
X174410000Y-65460000D01*
X174410000Y-62460000D01*
X182361928Y-62460000D01*
X182365000Y-63674250D01*
X182523750Y-63833000D01*
X184373000Y-63833000D01*
X184373000Y-61983750D01*
X184627000Y-61983750D01*
X184627000Y-63833000D01*
X186476250Y-63833000D01*
X186635000Y-63674250D01*
X186638072Y-62460000D01*
X186625812Y-62335518D01*
X186589502Y-62215820D01*
X186530537Y-62105506D01*
X186451185Y-62008815D01*
X186354494Y-61929463D01*
X186244180Y-61870498D01*
X186124482Y-61834188D01*
X186000000Y-61821928D01*
X184785750Y-61825000D01*
X184627000Y-61983750D01*
X184373000Y-61983750D01*
X184214250Y-61825000D01*
X183000000Y-61821928D01*
X182875518Y-61834188D01*
X182755820Y-61870498D01*
X182645506Y-61929463D01*
X182548815Y-62008815D01*
X182469463Y-62105506D01*
X182410498Y-62215820D01*
X182374188Y-62335518D01*
X182361928Y-62460000D01*
X174410000Y-62460000D01*
X174410000Y-59641984D01*
X208415000Y-59641984D01*
X208415000Y-60358016D01*
X208554691Y-61060290D01*
X208828705Y-61721818D01*
X209226511Y-62317177D01*
X209732823Y-62823489D01*
X210328182Y-63221295D01*
X210989710Y-63495309D01*
X211691984Y-63635000D01*
X212408016Y-63635000D01*
X213110290Y-63495309D01*
X213771818Y-63221295D01*
X214367177Y-62823489D01*
X214873489Y-62317177D01*
X215271295Y-61721818D01*
X215545309Y-61060290D01*
X215685000Y-60358016D01*
X215685000Y-59641984D01*
X215545309Y-58939710D01*
X215271295Y-58278182D01*
X214873489Y-57682823D01*
X214367177Y-57176511D01*
X213771818Y-56778705D01*
X213110290Y-56504691D01*
X212408016Y-56365000D01*
X211691984Y-56365000D01*
X210989710Y-56504691D01*
X210328182Y-56778705D01*
X209732823Y-57176511D01*
X209226511Y-57682823D01*
X208828705Y-58278182D01*
X208554691Y-58939710D01*
X208415000Y-59641984D01*
X174410000Y-59641984D01*
X174410000Y-58992702D01*
X197436903Y-58992702D01*
X197508486Y-59236671D01*
X197763996Y-59357571D01*
X198038184Y-59426300D01*
X198320512Y-59440217D01*
X198600130Y-59398787D01*
X198866292Y-59303603D01*
X198991514Y-59236671D01*
X199063097Y-58992702D01*
X198250000Y-58179605D01*
X197436903Y-58992702D01*
X174410000Y-58992702D01*
X174410000Y-54540000D01*
X182361928Y-54540000D01*
X182361928Y-57540000D01*
X182374188Y-57664482D01*
X182410498Y-57784180D01*
X182469463Y-57894494D01*
X182548815Y-57991185D01*
X182645506Y-58070537D01*
X182755820Y-58129502D01*
X182875518Y-58165812D01*
X183000000Y-58178072D01*
X186000000Y-58178072D01*
X186124482Y-58165812D01*
X186244180Y-58129502D01*
X186354494Y-58070537D01*
X186451185Y-57991185D01*
X186530537Y-57894494D01*
X186535612Y-57885000D01*
X194072411Y-57885000D01*
X194165000Y-57894119D01*
X194257589Y-57885000D01*
X194257597Y-57885000D01*
X194534524Y-57857725D01*
X194889848Y-57749939D01*
X195217317Y-57574903D01*
X195504345Y-57339345D01*
X195563374Y-57267418D01*
X196536943Y-56293849D01*
X196675097Y-56552317D01*
X196910655Y-56839345D01*
X197164216Y-57047437D01*
X197141023Y-57070630D01*
X197257296Y-57186903D01*
X197013329Y-57258486D01*
X196892429Y-57513996D01*
X196823700Y-57788184D01*
X196809783Y-58070512D01*
X196851213Y-58350130D01*
X196946397Y-58616292D01*
X197013329Y-58741514D01*
X197257298Y-58813097D01*
X198070395Y-58000000D01*
X198056253Y-57985858D01*
X198235858Y-57806253D01*
X198250000Y-57820395D01*
X198264143Y-57806253D01*
X198443748Y-57985858D01*
X198429605Y-58000000D01*
X199242702Y-58813097D01*
X199486671Y-58741514D01*
X199607571Y-58486004D01*
X199676300Y-58211816D01*
X199690217Y-57929488D01*
X199648787Y-57649870D01*
X199553603Y-57383708D01*
X199486671Y-57258486D01*
X199242704Y-57186903D01*
X199358977Y-57070630D01*
X199335784Y-57047437D01*
X199589345Y-56839345D01*
X199824903Y-56552317D01*
X199999939Y-56224848D01*
X200107725Y-55869524D01*
X200135000Y-55592597D01*
X200135000Y-52980791D01*
X200273291Y-52842500D01*
X214164499Y-52842500D01*
X214447683Y-53074903D01*
X214775152Y-53249939D01*
X215047776Y-53332638D01*
X215130475Y-53357725D01*
X215162662Y-53360895D01*
X215407403Y-53385000D01*
X215407411Y-53385000D01*
X215500000Y-53394119D01*
X215592589Y-53385000D01*
X220781708Y-53385000D01*
X221352382Y-53955674D01*
X221400060Y-54112849D01*
X221575096Y-54440318D01*
X221810654Y-54727346D01*
X221882582Y-54786376D01*
X222713621Y-55617414D01*
X222772654Y-55689346D01*
X223059682Y-55924904D01*
X223387151Y-56099940D01*
X223544326Y-56147618D01*
X225445000Y-58048293D01*
X225445001Y-62863700D01*
X225381094Y-62830429D01*
X225162980Y-62759437D01*
X224917000Y-62879406D01*
X224917000Y-64223000D01*
X224937000Y-64223000D01*
X224937000Y-64477000D01*
X224917000Y-64477000D01*
X224917000Y-64497000D01*
X224663000Y-64497000D01*
X224663000Y-64477000D01*
X224643000Y-64477000D01*
X224643000Y-64223000D01*
X224663000Y-64223000D01*
X224663000Y-62879406D01*
X224417020Y-62759437D01*
X224198906Y-62830429D01*
X223923077Y-62974031D01*
X223782059Y-63087219D01*
X223733037Y-62995506D01*
X223653685Y-62898815D01*
X223556994Y-62819463D01*
X223446680Y-62760498D01*
X223326982Y-62724188D01*
X223202500Y-62711928D01*
X223184136Y-62711928D01*
X222974848Y-62600061D01*
X222619524Y-62492275D01*
X222250000Y-62455880D01*
X221946739Y-62485749D01*
X221880475Y-62492275D01*
X221664903Y-62557668D01*
X221525153Y-62600061D01*
X221525151Y-62600062D01*
X221315865Y-62711928D01*
X221297500Y-62711928D01*
X221173018Y-62724188D01*
X221053320Y-62760498D01*
X220943006Y-62819463D01*
X220846315Y-62898815D01*
X220766963Y-62995506D01*
X220707998Y-63105820D01*
X220671688Y-63225518D01*
X220667646Y-63266561D01*
X214932577Y-69001631D01*
X214860656Y-69060655D01*
X214733988Y-69215000D01*
X213380792Y-69215000D01*
X212898374Y-68732582D01*
X212839345Y-68660655D01*
X212552317Y-68425097D01*
X212224848Y-68250061D01*
X211869524Y-68142275D01*
X211592597Y-68115000D01*
X211592589Y-68115000D01*
X211500000Y-68105881D01*
X211407411Y-68115000D01*
X187592597Y-68115000D01*
X187500000Y-68105880D01*
X187407403Y-68115000D01*
X187130476Y-68142275D01*
X186775152Y-68250061D01*
X186447683Y-68425097D01*
X186160655Y-68660655D01*
X186101626Y-68732582D01*
X185969252Y-68864956D01*
X185875518Y-68874188D01*
X185755820Y-68910498D01*
X185645506Y-68969463D01*
X185548815Y-69048815D01*
X185469463Y-69145506D01*
X185410498Y-69255820D01*
X185374188Y-69375518D01*
X185361928Y-69500000D01*
X185361928Y-69565866D01*
X185250062Y-69775152D01*
X185142275Y-70130476D01*
X185105881Y-70500000D01*
X185142275Y-70869524D01*
X185250062Y-71224848D01*
X185361928Y-71434134D01*
X185361928Y-71500000D01*
X185374188Y-71624482D01*
X185410498Y-71744180D01*
X185469463Y-71854494D01*
X185548815Y-71951185D01*
X185645506Y-72030537D01*
X185755820Y-72089502D01*
X185875518Y-72125812D01*
X186000000Y-72138072D01*
X186065866Y-72138072D01*
X186275152Y-72249938D01*
X186630476Y-72357725D01*
X187000000Y-72394119D01*
X187369524Y-72357725D01*
X187724848Y-72249938D01*
X187934134Y-72138072D01*
X188000000Y-72138072D01*
X188124482Y-72125812D01*
X188244180Y-72089502D01*
X188354494Y-72030537D01*
X188451185Y-71951185D01*
X188505501Y-71885000D01*
X197744499Y-71885000D01*
X197798815Y-71951185D01*
X197895506Y-72030537D01*
X198005820Y-72089502D01*
X198125518Y-72125812D01*
X198250000Y-72138072D01*
X200250000Y-72138072D01*
X200374482Y-72125812D01*
X200494180Y-72089502D01*
X200604494Y-72030537D01*
X200701185Y-71951185D01*
X200755501Y-71885000D01*
X210719208Y-71885000D01*
X211201626Y-72367418D01*
X211260655Y-72439345D01*
X211547683Y-72674903D01*
X211875152Y-72849939D01*
X212122689Y-72925028D01*
X212230475Y-72957725D01*
X212262662Y-72960895D01*
X212507403Y-72985000D01*
X212507411Y-72985000D01*
X212600000Y-72994119D01*
X212692589Y-72985000D01*
X216107403Y-72985000D01*
X216200000Y-72994120D01*
X216292597Y-72985000D01*
X216569524Y-72957725D01*
X216924848Y-72849939D01*
X216947050Y-72838072D01*
X217300000Y-72838072D01*
X217424482Y-72825812D01*
X217544180Y-72789502D01*
X217654494Y-72730537D01*
X217751185Y-72651185D01*
X217830537Y-72554494D01*
X217889502Y-72444180D01*
X217925812Y-72324482D01*
X217938072Y-72200000D01*
X217938072Y-71847050D01*
X217949939Y-71824848D01*
X218057725Y-71469524D01*
X218066924Y-71376123D01*
X220510821Y-71376123D01*
X220620558Y-71698054D01*
X220790992Y-71992391D01*
X221015573Y-72247822D01*
X221285671Y-72454531D01*
X221590906Y-72604575D01*
X221803878Y-72669175D01*
X222073000Y-72551125D01*
X222073000Y-71107000D01*
X222327000Y-71107000D01*
X222327000Y-72551125D01*
X222596122Y-72669175D01*
X222809094Y-72604575D01*
X223114329Y-72454531D01*
X223384427Y-72247822D01*
X223609008Y-71992391D01*
X223779442Y-71698054D01*
X223889179Y-71376123D01*
X223771600Y-71107000D01*
X222327000Y-71107000D01*
X222073000Y-71107000D01*
X220628400Y-71107000D01*
X220510821Y-71376123D01*
X218066924Y-71376123D01*
X218086290Y-71179502D01*
X218681915Y-70583877D01*
X220510821Y-70583877D01*
X220628400Y-70853000D01*
X222073000Y-70853000D01*
X222073000Y-69408875D01*
X222327000Y-69408875D01*
X222327000Y-70853000D01*
X223771600Y-70853000D01*
X223889179Y-70583877D01*
X223779442Y-70261946D01*
X223609008Y-69967609D01*
X223384427Y-69712178D01*
X223114329Y-69505469D01*
X222809094Y-69355425D01*
X222596122Y-69290825D01*
X222327000Y-69408875D01*
X222073000Y-69408875D01*
X221803878Y-69290825D01*
X221590906Y-69355425D01*
X221285671Y-69505469D01*
X221015573Y-69712178D01*
X220790992Y-69967609D01*
X220620558Y-70261946D01*
X220510821Y-70583877D01*
X218681915Y-70583877D01*
X221675000Y-67590792D01*
X226451630Y-72367423D01*
X226508079Y-72436206D01*
X226510498Y-72444180D01*
X226569463Y-72554494D01*
X226648815Y-72651185D01*
X226745506Y-72730537D01*
X226855820Y-72789502D01*
X226975518Y-72825812D01*
X227100000Y-72838072D01*
X227102950Y-72838072D01*
X227125152Y-72849939D01*
X227372689Y-72925028D01*
X227480475Y-72957725D01*
X227512662Y-72960895D01*
X227757403Y-72985000D01*
X227757411Y-72985000D01*
X227850000Y-72994119D01*
X227942589Y-72985000D01*
X228292597Y-72985000D01*
X228569524Y-72957725D01*
X228924848Y-72849939D01*
X228947050Y-72838072D01*
X229300000Y-72838072D01*
X229424482Y-72825812D01*
X229544180Y-72789502D01*
X229654494Y-72730537D01*
X229751185Y-72651185D01*
X229830537Y-72554494D01*
X229889502Y-72444180D01*
X229925812Y-72324482D01*
X229938072Y-72200000D01*
X229938072Y-71847050D01*
X229949939Y-71824848D01*
X230057725Y-71469524D01*
X230066924Y-71376123D01*
X232010821Y-71376123D01*
X232120558Y-71698054D01*
X232290992Y-71992391D01*
X232515573Y-72247822D01*
X232785671Y-72454531D01*
X233090906Y-72604575D01*
X233303878Y-72669175D01*
X233573000Y-72551125D01*
X233573000Y-71107000D01*
X233827000Y-71107000D01*
X233827000Y-72551125D01*
X234096122Y-72669175D01*
X234309094Y-72604575D01*
X234614329Y-72454531D01*
X234884427Y-72247822D01*
X235109008Y-71992391D01*
X235279442Y-71698054D01*
X235389179Y-71376123D01*
X235271600Y-71107000D01*
X233827000Y-71107000D01*
X233573000Y-71107000D01*
X232128400Y-71107000D01*
X232010821Y-71376123D01*
X230066924Y-71376123D01*
X230094120Y-71100000D01*
X230057725Y-70730476D01*
X230013255Y-70583877D01*
X232010821Y-70583877D01*
X232128400Y-70853000D01*
X233573000Y-70853000D01*
X233573000Y-69408875D01*
X233827000Y-69408875D01*
X233827000Y-70853000D01*
X235271600Y-70853000D01*
X235389179Y-70583877D01*
X235279442Y-70261946D01*
X235109008Y-69967609D01*
X234884427Y-69712178D01*
X234614329Y-69505469D01*
X234309094Y-69355425D01*
X234096122Y-69290825D01*
X233827000Y-69408875D01*
X233573000Y-69408875D01*
X233303878Y-69290825D01*
X233090906Y-69355425D01*
X232785671Y-69505469D01*
X232515573Y-69712178D01*
X232290992Y-69967609D01*
X232120558Y-70261946D01*
X232010821Y-70583877D01*
X230013255Y-70583877D01*
X229949939Y-70375152D01*
X229938072Y-70352950D01*
X229938072Y-70000000D01*
X229925812Y-69875518D01*
X229889502Y-69755820D01*
X229830537Y-69645506D01*
X229751185Y-69548815D01*
X229654494Y-69469463D01*
X229544180Y-69410498D01*
X229424482Y-69374188D01*
X229300000Y-69361928D01*
X228947050Y-69361928D01*
X228924848Y-69350061D01*
X228696623Y-69280830D01*
X225308871Y-65893078D01*
X225381094Y-65869571D01*
X225656923Y-65725969D01*
X225876243Y-65549932D01*
X225990656Y-65689345D01*
X226277684Y-65924903D01*
X226605153Y-66099939D01*
X226960477Y-66207725D01*
X227330000Y-66244120D01*
X227699524Y-66207725D01*
X228054848Y-66099939D01*
X228382317Y-65924903D01*
X228669345Y-65689345D01*
X228904903Y-65402317D01*
X229079939Y-65074848D01*
X229187725Y-64719524D01*
X229215000Y-64442597D01*
X229215000Y-59641984D01*
X233815000Y-59641984D01*
X233815000Y-60358016D01*
X233954691Y-61060290D01*
X234228705Y-61721818D01*
X234626511Y-62317177D01*
X235132823Y-62823489D01*
X235728182Y-63221295D01*
X236389710Y-63495309D01*
X237091984Y-63635000D01*
X237808016Y-63635000D01*
X238510290Y-63495309D01*
X239171818Y-63221295D01*
X239767177Y-62823489D01*
X240273489Y-62317177D01*
X240671295Y-61721818D01*
X240945309Y-61060290D01*
X241085000Y-60358016D01*
X241085000Y-59641984D01*
X240945309Y-58939710D01*
X240671295Y-58278182D01*
X240273489Y-57682823D01*
X239767177Y-57176511D01*
X239171818Y-56778705D01*
X238510290Y-56504691D01*
X237808016Y-56365000D01*
X237091984Y-56365000D01*
X236389710Y-56504691D01*
X235728182Y-56778705D01*
X235132823Y-57176511D01*
X234626511Y-57682823D01*
X234228705Y-58278182D01*
X233954691Y-58939710D01*
X233815000Y-59641984D01*
X229215000Y-59641984D01*
X229215000Y-57360097D01*
X229224120Y-57267500D01*
X229187725Y-56897976D01*
X229185154Y-56889502D01*
X229079939Y-56542652D01*
X228904903Y-56215183D01*
X228898782Y-56207725D01*
X228728372Y-56000079D01*
X228728370Y-56000077D01*
X228669345Y-55928155D01*
X228597423Y-55869130D01*
X225810873Y-53082581D01*
X225751846Y-53010656D01*
X225464818Y-52775098D01*
X225137349Y-52600062D01*
X224980173Y-52552383D01*
X224947617Y-52519827D01*
X224899938Y-52362651D01*
X224724902Y-52035182D01*
X224709659Y-52016608D01*
X224548371Y-51820078D01*
X224548369Y-51820076D01*
X224489344Y-51748154D01*
X224417422Y-51689129D01*
X222960872Y-50232580D01*
X222901845Y-50160655D01*
X222614817Y-49925097D01*
X222287348Y-49750061D01*
X221932024Y-49642275D01*
X221655097Y-49615000D01*
X221655089Y-49615000D01*
X221562500Y-49605881D01*
X221536678Y-49608424D01*
X221535000Y-49498250D01*
X221376250Y-49339500D01*
X220327000Y-49339500D01*
X220327000Y-49359500D01*
X220073000Y-49359500D01*
X220073000Y-49339500D01*
X220053000Y-49339500D01*
X220053000Y-49085500D01*
X220073000Y-49085500D01*
X220073000Y-48248750D01*
X220327000Y-48248750D01*
X220327000Y-49085500D01*
X221376250Y-49085500D01*
X221535000Y-48926750D01*
X221538072Y-48725000D01*
X221525812Y-48600518D01*
X221489502Y-48480820D01*
X221430537Y-48370506D01*
X221351185Y-48273815D01*
X221254494Y-48194463D01*
X221144180Y-48135498D01*
X221024482Y-48099188D01*
X220900000Y-48086928D01*
X220485750Y-48090000D01*
X220327000Y-48248750D01*
X220073000Y-48248750D01*
X219914250Y-48090000D01*
X219500000Y-48086928D01*
X219375518Y-48099188D01*
X219255820Y-48135498D01*
X219145506Y-48194463D01*
X219048815Y-48273815D01*
X218969463Y-48370506D01*
X218934846Y-48435269D01*
X218909494Y-48414463D01*
X218799180Y-48355498D01*
X218679482Y-48319188D01*
X218555000Y-48306928D01*
X218365750Y-48310000D01*
X218207000Y-48468750D01*
X218207000Y-49255500D01*
X218227000Y-49255500D01*
X218227000Y-49509500D01*
X218207000Y-49509500D01*
X218207000Y-49529500D01*
X217953000Y-49529500D01*
X217953000Y-49509500D01*
X217128750Y-49509500D01*
X217023250Y-49615000D01*
X216293001Y-49615000D01*
X216009817Y-49382597D01*
X215682348Y-49207561D01*
X215327024Y-49099775D01*
X215050097Y-49072500D01*
X215050089Y-49072500D01*
X214957500Y-49063381D01*
X214864911Y-49072500D01*
X199300097Y-49072500D01*
X199207500Y-49063380D01*
X199114903Y-49072500D01*
X198870162Y-49096605D01*
X198837975Y-49099775D01*
X198730189Y-49132472D01*
X198482652Y-49207561D01*
X198155183Y-49382597D01*
X198021190Y-49492562D01*
X197940079Y-49559128D01*
X197940077Y-49559130D01*
X197868155Y-49618155D01*
X197809130Y-49690077D01*
X193384208Y-54115000D01*
X186472674Y-54115000D01*
X186451185Y-54088815D01*
X186354494Y-54009463D01*
X186244180Y-53950498D01*
X186124482Y-53914188D01*
X186000000Y-53901928D01*
X183000000Y-53901928D01*
X182875518Y-53914188D01*
X182755820Y-53950498D01*
X182645506Y-54009463D01*
X182548815Y-54088815D01*
X182469463Y-54185506D01*
X182410498Y-54295820D01*
X182374188Y-54415518D01*
X182361928Y-54540000D01*
X174410000Y-54540000D01*
X174410000Y-47715852D01*
X176115000Y-47715852D01*
X176115000Y-48284148D01*
X176225869Y-48841523D01*
X176443346Y-49366560D01*
X176759074Y-49839080D01*
X177160920Y-50240926D01*
X177633440Y-50556654D01*
X178158477Y-50774131D01*
X178715852Y-50885000D01*
X179284148Y-50885000D01*
X179841523Y-50774131D01*
X180366560Y-50556654D01*
X180839080Y-50240926D01*
X181240926Y-49839080D01*
X181556654Y-49366560D01*
X181731269Y-48945000D01*
X216966928Y-48945000D01*
X216970000Y-49096750D01*
X217128750Y-49255500D01*
X217953000Y-49255500D01*
X217953000Y-48468750D01*
X217794250Y-48310000D01*
X217605000Y-48306928D01*
X217480518Y-48319188D01*
X217360820Y-48355498D01*
X217250506Y-48414463D01*
X217153815Y-48493815D01*
X217074463Y-48590506D01*
X217015498Y-48700820D01*
X216979188Y-48820518D01*
X216966928Y-48945000D01*
X181731269Y-48945000D01*
X181774131Y-48841523D01*
X181885000Y-48284148D01*
X181885000Y-47715852D01*
X236115000Y-47715852D01*
X236115000Y-48284148D01*
X236225869Y-48841523D01*
X236443346Y-49366560D01*
X236759074Y-49839080D01*
X237160920Y-50240926D01*
X237633440Y-50556654D01*
X238158477Y-50774131D01*
X238715852Y-50885000D01*
X239284148Y-50885000D01*
X239841523Y-50774131D01*
X240366560Y-50556654D01*
X240839080Y-50240926D01*
X241240926Y-49839080D01*
X241556654Y-49366560D01*
X241774131Y-48841523D01*
X241885000Y-48284148D01*
X241885000Y-47715852D01*
X241774131Y-47158477D01*
X241556654Y-46633440D01*
X241240926Y-46160920D01*
X240839080Y-45759074D01*
X240366560Y-45443346D01*
X239841523Y-45225869D01*
X239284148Y-45115000D01*
X238715852Y-45115000D01*
X238158477Y-45225869D01*
X237633440Y-45443346D01*
X237160920Y-45759074D01*
X236759074Y-46160920D01*
X236443346Y-46633440D01*
X236225869Y-47158477D01*
X236115000Y-47715852D01*
X181885000Y-47715852D01*
X181774131Y-47158477D01*
X181556654Y-46633440D01*
X181240926Y-46160920D01*
X180839080Y-45759074D01*
X180366560Y-45443346D01*
X179841523Y-45225869D01*
X179284148Y-45115000D01*
X178715852Y-45115000D01*
X178158477Y-45225869D01*
X177633440Y-45443346D01*
X177160920Y-45759074D01*
X176759074Y-46160920D01*
X176443346Y-46633440D01*
X176225869Y-47158477D01*
X176115000Y-47715852D01*
X174410000Y-47715852D01*
X174410000Y-46982279D01*
X174448147Y-46593225D01*
X174551763Y-46250033D01*
X174720062Y-45933511D01*
X174946637Y-45655701D01*
X175222856Y-45427194D01*
X175538197Y-45256690D01*
X175880656Y-45150681D01*
X176267712Y-45110000D01*
X241967721Y-45110000D01*
X242356775Y-45148147D01*
M02*
