G04 #@! TF.GenerationSoftware,KiCad,Pcbnew,(5.1.5)-3*
G04 #@! TF.CreationDate,2020-04-14T19:53:29+02:00*
G04 #@! TF.ProjectId,5vfrommains,35766672-6f6d-46d6-9169-6e732e6b6963,rev?*
G04 #@! TF.SameCoordinates,Original*
G04 #@! TF.FileFunction,Copper,L2,Bot*
G04 #@! TF.FilePolarity,Positive*
%FSLAX46Y46*%
G04 Gerber Fmt 4.6, Leading zero omitted, Abs format (unit mm)*
G04 Created by KiCad (PCBNEW (5.1.5)-3) date 2020-04-14 19:53:29*
%MOMM*%
%LPD*%
G04 APERTURE LIST*
%ADD10R,3.000000X3.000000*%
%ADD11C,1.600000*%
%ADD12R,1.600000X1.600000*%
%ADD13C,6.000000*%
%ADD14C,4.500000*%
%ADD15C,2.000000*%
%ADD16R,2.000000X2.000000*%
%ADD17O,1.905000X2.000000*%
%ADD18R,1.905000X2.000000*%
%ADD19C,3.000000*%
%ADD20O,2.200000X2.200000*%
%ADD21R,2.200000X2.200000*%
%ADD22C,0.800000*%
%ADD23C,2.500000*%
%ADD24C,0.254000*%
G04 APERTURE END LIST*
D10*
X184500000Y-63960000D03*
X184500000Y-56040000D03*
X191000000Y-124960000D03*
X191000000Y-117040000D03*
D11*
X198250000Y-58000000D03*
D12*
X198250000Y-55500000D03*
D13*
X212050000Y-60000000D03*
X237450000Y-60000000D03*
D14*
X179000000Y-48000000D03*
X239000000Y-48000000D03*
D15*
X235250000Y-96250000D03*
X235250000Y-101250000D03*
X235250000Y-106250000D03*
X235250000Y-111250000D03*
X235250000Y-116250000D03*
X235250000Y-121250000D03*
X207750000Y-121250000D03*
X207750000Y-116250000D03*
X207750000Y-101250000D03*
D16*
X207750000Y-96250000D03*
D17*
X227330000Y-64350000D03*
X224790000Y-64350000D03*
D18*
X222250000Y-64350000D03*
D14*
X237500000Y-140000000D03*
X200500000Y-140000000D03*
D19*
X191000000Y-110000000D03*
X191000000Y-87500000D03*
D20*
X228200000Y-78720000D03*
D21*
X228200000Y-71100000D03*
D20*
X216200000Y-78720000D03*
D21*
X216200000Y-71100000D03*
D20*
X233700000Y-70980000D03*
D21*
X233700000Y-78600000D03*
D20*
X222200000Y-70980000D03*
D21*
X222200000Y-78600000D03*
D15*
X187000000Y-75500000D03*
D16*
X187000000Y-70500000D03*
D15*
X199250000Y-75500000D03*
D16*
X199250000Y-70500000D03*
D22*
X242500000Y-47500000D03*
X235000000Y-47500000D03*
X227500000Y-47500000D03*
X220000000Y-47500000D03*
X212500000Y-47500000D03*
X205000000Y-47500000D03*
X195000000Y-46250000D03*
X205000000Y-67500000D03*
X195000000Y-82500000D03*
X195000000Y-90000000D03*
X195000000Y-97500000D03*
X195000000Y-105000000D03*
X195000000Y-112500000D03*
X195000000Y-140000000D03*
X205000000Y-142500000D03*
X212500000Y-142500000D03*
X220000000Y-142500000D03*
X227500000Y-142500000D03*
X235000000Y-142500000D03*
X242500000Y-142500000D03*
X242500000Y-135000000D03*
X242500000Y-127500000D03*
X242500000Y-120000000D03*
X242500000Y-112500000D03*
X242500000Y-105000000D03*
X242500000Y-97500000D03*
X242500000Y-90000000D03*
X242500000Y-82500000D03*
X242500000Y-75000000D03*
X240000000Y-67500000D03*
X232500000Y-67500000D03*
X205000000Y-77500000D03*
X205000000Y-80000000D03*
X202500000Y-85000000D03*
X225000000Y-52500000D03*
X232500000Y-52500000D03*
X240000000Y-52500000D03*
X175000000Y-85000000D03*
X175000000Y-75000000D03*
X175000000Y-65000000D03*
X175000000Y-57500000D03*
X175000000Y-50000000D03*
X175000000Y-92500000D03*
X175000000Y-100000000D03*
X175000000Y-110000000D03*
X175000000Y-117500000D03*
X175000000Y-127500000D03*
X175000000Y-137500000D03*
X180000000Y-142500000D03*
X187500000Y-142500000D03*
X185000000Y-135000000D03*
X182500000Y-125000000D03*
X182500000Y-115000000D03*
X182500000Y-105000000D03*
X182500000Y-95000000D03*
X182500000Y-87500000D03*
X218000000Y-48000000D03*
X181000000Y-80000000D03*
X189500000Y-79500000D03*
X202500000Y-62500000D03*
X197500000Y-62500000D03*
X192500000Y-62500000D03*
X192500000Y-58500000D03*
X195000000Y-77500000D03*
X192500000Y-67500000D03*
X207500000Y-72500000D03*
X212500000Y-77500000D03*
X210000000Y-75000000D03*
X188500000Y-46500000D03*
X184500000Y-46500000D03*
X184000000Y-51500000D03*
X191000000Y-51500000D03*
X197500000Y-49000000D03*
D23*
X228200000Y-78720000D02*
X228200000Y-109200000D01*
X228200000Y-109200000D02*
X231250000Y-112250000D01*
X231250000Y-112250000D02*
X235250000Y-116250000D01*
X230000000Y-111000000D02*
X231250000Y-112250000D01*
X230000000Y-85900000D02*
X230000000Y-111000000D01*
X233700000Y-78600000D02*
X233700000Y-82200000D01*
X233700000Y-82200000D02*
X230000000Y-85900000D01*
D24*
G36*
X242356775Y-45148147D02*
G01*
X242699967Y-45251763D01*
X243016489Y-45420062D01*
X243294299Y-45646637D01*
X243522806Y-45922856D01*
X243693310Y-46238197D01*
X243799319Y-46580656D01*
X243840000Y-46967712D01*
X243840001Y-141867711D01*
X243801853Y-142256776D01*
X243698238Y-142599964D01*
X243529939Y-142916489D01*
X243303365Y-143194296D01*
X243027146Y-143422805D01*
X242711803Y-143593310D01*
X242369344Y-143699319D01*
X241982288Y-143740000D01*
X176282279Y-143740000D01*
X175893224Y-143701853D01*
X175550036Y-143598238D01*
X175233511Y-143429939D01*
X174955704Y-143203365D01*
X174727195Y-142927146D01*
X174556690Y-142611803D01*
X174450681Y-142269344D01*
X174410000Y-141882288D01*
X174410000Y-139715852D01*
X197615000Y-139715852D01*
X197615000Y-140284148D01*
X197725869Y-140841523D01*
X197943346Y-141366560D01*
X198259074Y-141839080D01*
X198660920Y-142240926D01*
X199133440Y-142556654D01*
X199658477Y-142774131D01*
X200215852Y-142885000D01*
X200784148Y-142885000D01*
X201341523Y-142774131D01*
X201866560Y-142556654D01*
X202339080Y-142240926D01*
X202740926Y-141839080D01*
X203056654Y-141366560D01*
X203274131Y-140841523D01*
X203385000Y-140284148D01*
X203385000Y-139715852D01*
X234615000Y-139715852D01*
X234615000Y-140284148D01*
X234725869Y-140841523D01*
X234943346Y-141366560D01*
X235259074Y-141839080D01*
X235660920Y-142240926D01*
X236133440Y-142556654D01*
X236658477Y-142774131D01*
X237215852Y-142885000D01*
X237784148Y-142885000D01*
X238341523Y-142774131D01*
X238866560Y-142556654D01*
X239339080Y-142240926D01*
X239740926Y-141839080D01*
X240056654Y-141366560D01*
X240274131Y-140841523D01*
X240385000Y-140284148D01*
X240385000Y-139715852D01*
X240274131Y-139158477D01*
X240056654Y-138633440D01*
X239740926Y-138160920D01*
X239339080Y-137759074D01*
X238866560Y-137443346D01*
X238341523Y-137225869D01*
X237784148Y-137115000D01*
X237215852Y-137115000D01*
X236658477Y-137225869D01*
X236133440Y-137443346D01*
X235660920Y-137759074D01*
X235259074Y-138160920D01*
X234943346Y-138633440D01*
X234725869Y-139158477D01*
X234615000Y-139715852D01*
X203385000Y-139715852D01*
X203274131Y-139158477D01*
X203056654Y-138633440D01*
X202740926Y-138160920D01*
X202339080Y-137759074D01*
X201866560Y-137443346D01*
X201341523Y-137225869D01*
X200784148Y-137115000D01*
X200215852Y-137115000D01*
X199658477Y-137225869D01*
X199133440Y-137443346D01*
X198660920Y-137759074D01*
X198259074Y-138160920D01*
X197943346Y-138633440D01*
X197725869Y-139158477D01*
X197615000Y-139715852D01*
X174410000Y-139715852D01*
X174410000Y-123460000D01*
X188861928Y-123460000D01*
X188861928Y-126460000D01*
X188874188Y-126584482D01*
X188910498Y-126704180D01*
X188969463Y-126814494D01*
X189048815Y-126911185D01*
X189145506Y-126990537D01*
X189255820Y-127049502D01*
X189375518Y-127085812D01*
X189500000Y-127098072D01*
X192500000Y-127098072D01*
X192624482Y-127085812D01*
X192744180Y-127049502D01*
X192854494Y-126990537D01*
X192951185Y-126911185D01*
X193030537Y-126814494D01*
X193089502Y-126704180D01*
X193125812Y-126584482D01*
X193138072Y-126460000D01*
X193138072Y-123460000D01*
X193125812Y-123335518D01*
X193089502Y-123215820D01*
X193030537Y-123105506D01*
X192951185Y-123008815D01*
X192854494Y-122929463D01*
X192744180Y-122870498D01*
X192624482Y-122834188D01*
X192500000Y-122821928D01*
X189500000Y-122821928D01*
X189375518Y-122834188D01*
X189255820Y-122870498D01*
X189145506Y-122929463D01*
X189048815Y-123008815D01*
X188969463Y-123105506D01*
X188910498Y-123215820D01*
X188874188Y-123335518D01*
X188861928Y-123460000D01*
X174410000Y-123460000D01*
X174410000Y-121066801D01*
X185342740Y-121066801D01*
X185343640Y-121075972D01*
X185364041Y-121270069D01*
X185376068Y-121328658D01*
X185387277Y-121387423D01*
X185389941Y-121396245D01*
X185447653Y-121582683D01*
X185470838Y-121637838D01*
X185493242Y-121693291D01*
X185497568Y-121701427D01*
X185590393Y-121873104D01*
X185623846Y-121922699D01*
X185656600Y-121972753D01*
X185662424Y-121979894D01*
X185786828Y-122130272D01*
X185829263Y-122172411D01*
X185871126Y-122215161D01*
X185878227Y-122221034D01*
X186029469Y-122344384D01*
X186079277Y-122377477D01*
X186128651Y-122411284D01*
X186136757Y-122415667D01*
X186309080Y-122507292D01*
X186364392Y-122530090D01*
X186419366Y-122553652D01*
X186428169Y-122556377D01*
X186615006Y-122612786D01*
X186673686Y-122624405D01*
X186732196Y-122636842D01*
X186741361Y-122637805D01*
X186935594Y-122656850D01*
X186935598Y-122656850D01*
X186967581Y-122660000D01*
X195032419Y-122660000D01*
X195065387Y-122656753D01*
X195078367Y-122656753D01*
X195087532Y-122655790D01*
X195281481Y-122634035D01*
X195339966Y-122621603D01*
X195398676Y-122609978D01*
X195407479Y-122607253D01*
X195593509Y-122548240D01*
X195648519Y-122524662D01*
X195703794Y-122501880D01*
X195711900Y-122497497D01*
X195882925Y-122403475D01*
X195932264Y-122369692D01*
X195982106Y-122336577D01*
X195989206Y-122330703D01*
X196138712Y-122205253D01*
X196180557Y-122162523D01*
X196223013Y-122120362D01*
X196228837Y-122113220D01*
X196351128Y-121961121D01*
X196383887Y-121911059D01*
X196417331Y-121861477D01*
X196421657Y-121853340D01*
X196512077Y-121680385D01*
X196534475Y-121624947D01*
X196557669Y-121569772D01*
X196560332Y-121560950D01*
X196615435Y-121373725D01*
X196626633Y-121315017D01*
X196638672Y-121256372D01*
X196639570Y-121247201D01*
X196653970Y-121088967D01*
X206115000Y-121088967D01*
X206115000Y-121411033D01*
X206177832Y-121726912D01*
X206301082Y-122024463D01*
X206480013Y-122292252D01*
X206707748Y-122519987D01*
X206975537Y-122698918D01*
X207273088Y-122822168D01*
X207588967Y-122885000D01*
X207911033Y-122885000D01*
X208226912Y-122822168D01*
X208524463Y-122698918D01*
X208792252Y-122519987D01*
X209019987Y-122292252D01*
X209198918Y-122024463D01*
X209322168Y-121726912D01*
X209385000Y-121411033D01*
X209385000Y-121088967D01*
X209322168Y-120773088D01*
X209198918Y-120475537D01*
X209019987Y-120207748D01*
X208792252Y-119980013D01*
X208524463Y-119801082D01*
X208226912Y-119677832D01*
X207911033Y-119615000D01*
X207588967Y-119615000D01*
X207273088Y-119677832D01*
X206975537Y-119801082D01*
X206707748Y-119980013D01*
X206480013Y-120207748D01*
X206301082Y-120475537D01*
X206177832Y-120773088D01*
X206115000Y-121088967D01*
X196653970Y-121088967D01*
X196657259Y-121052839D01*
X196656842Y-120993057D01*
X196657260Y-120933199D01*
X196656360Y-120924028D01*
X196635959Y-120729931D01*
X196623934Y-120671348D01*
X196612723Y-120612577D01*
X196610059Y-120603755D01*
X196552347Y-120417317D01*
X196529162Y-120362162D01*
X196506758Y-120306709D01*
X196502432Y-120298573D01*
X196409607Y-120126896D01*
X196376139Y-120077278D01*
X196343400Y-120027247D01*
X196337576Y-120020106D01*
X196213172Y-119869728D01*
X196170737Y-119827589D01*
X196128874Y-119784839D01*
X196121773Y-119778966D01*
X195970531Y-119655616D01*
X195920738Y-119622534D01*
X195871349Y-119588716D01*
X195863243Y-119584333D01*
X195690921Y-119492708D01*
X195635606Y-119469909D01*
X195580634Y-119446348D01*
X195571831Y-119443623D01*
X195384995Y-119387214D01*
X195326307Y-119375594D01*
X195267804Y-119363158D01*
X195258639Y-119362195D01*
X195064405Y-119343150D01*
X195064402Y-119343150D01*
X195032419Y-119340000D01*
X186967581Y-119340000D01*
X186934613Y-119343247D01*
X186921633Y-119343247D01*
X186912468Y-119344210D01*
X186718518Y-119365965D01*
X186660019Y-119378400D01*
X186601325Y-119390022D01*
X186592522Y-119392747D01*
X186406491Y-119451760D01*
X186351509Y-119475326D01*
X186296206Y-119498120D01*
X186288100Y-119502503D01*
X186117075Y-119596525D01*
X186067752Y-119630298D01*
X186017894Y-119663423D01*
X186010794Y-119669297D01*
X185861288Y-119794747D01*
X185819443Y-119837477D01*
X185776987Y-119879638D01*
X185771163Y-119886780D01*
X185648872Y-120038880D01*
X185616114Y-120088939D01*
X185582669Y-120138523D01*
X185578343Y-120146660D01*
X185487923Y-120319616D01*
X185465535Y-120375028D01*
X185442331Y-120430228D01*
X185439668Y-120439050D01*
X185384565Y-120626276D01*
X185373360Y-120685014D01*
X185361328Y-120743628D01*
X185360429Y-120752800D01*
X185342741Y-120947161D01*
X185343158Y-121006943D01*
X185342740Y-121066801D01*
X174410000Y-121066801D01*
X174410000Y-115540000D01*
X188861928Y-115540000D01*
X188861928Y-118540000D01*
X188874188Y-118664482D01*
X188910498Y-118784180D01*
X188969463Y-118894494D01*
X189048815Y-118991185D01*
X189145506Y-119070537D01*
X189255820Y-119129502D01*
X189375518Y-119165812D01*
X189500000Y-119178072D01*
X192500000Y-119178072D01*
X192624482Y-119165812D01*
X192744180Y-119129502D01*
X192854494Y-119070537D01*
X192951185Y-118991185D01*
X193030537Y-118894494D01*
X193089502Y-118784180D01*
X193125812Y-118664482D01*
X193138072Y-118540000D01*
X193138072Y-116088967D01*
X206115000Y-116088967D01*
X206115000Y-116411033D01*
X206177832Y-116726912D01*
X206301082Y-117024463D01*
X206480013Y-117292252D01*
X206707748Y-117519987D01*
X206975537Y-117698918D01*
X207273088Y-117822168D01*
X207588967Y-117885000D01*
X207911033Y-117885000D01*
X208226912Y-117822168D01*
X208524463Y-117698918D01*
X208792252Y-117519987D01*
X209019987Y-117292252D01*
X209198918Y-117024463D01*
X209322168Y-116726912D01*
X209385000Y-116411033D01*
X209385000Y-116088967D01*
X209322168Y-115773088D01*
X209198918Y-115475537D01*
X209019987Y-115207748D01*
X208792252Y-114980013D01*
X208524463Y-114801082D01*
X208226912Y-114677832D01*
X207911033Y-114615000D01*
X207588967Y-114615000D01*
X207273088Y-114677832D01*
X206975537Y-114801082D01*
X206707748Y-114980013D01*
X206480013Y-115207748D01*
X206301082Y-115475537D01*
X206177832Y-115773088D01*
X206115000Y-116088967D01*
X193138072Y-116088967D01*
X193138072Y-115540000D01*
X193125812Y-115415518D01*
X193089502Y-115295820D01*
X193030537Y-115185506D01*
X192951185Y-115088815D01*
X192854494Y-115009463D01*
X192744180Y-114950498D01*
X192624482Y-114914188D01*
X192500000Y-114901928D01*
X189500000Y-114901928D01*
X189375518Y-114914188D01*
X189255820Y-114950498D01*
X189145506Y-115009463D01*
X189048815Y-115088815D01*
X188969463Y-115185506D01*
X188910498Y-115295820D01*
X188874188Y-115415518D01*
X188861928Y-115540000D01*
X174410000Y-115540000D01*
X174410000Y-109789721D01*
X188865000Y-109789721D01*
X188865000Y-110210279D01*
X188947047Y-110622756D01*
X189107988Y-111011302D01*
X189341637Y-111360983D01*
X189639017Y-111658363D01*
X189988698Y-111892012D01*
X190377244Y-112052953D01*
X190789721Y-112135000D01*
X191210279Y-112135000D01*
X191622756Y-112052953D01*
X192011302Y-111892012D01*
X192360983Y-111658363D01*
X192658363Y-111360983D01*
X192892012Y-111011302D01*
X193052953Y-110622756D01*
X193135000Y-110210279D01*
X193135000Y-109789721D01*
X193052953Y-109377244D01*
X192892012Y-108988698D01*
X192777155Y-108816801D01*
X199092740Y-108816801D01*
X199093640Y-108825972D01*
X199114041Y-109020069D01*
X199126068Y-109078658D01*
X199137277Y-109137423D01*
X199139941Y-109146245D01*
X199197653Y-109332683D01*
X199220838Y-109387838D01*
X199243242Y-109443291D01*
X199247568Y-109451427D01*
X199340393Y-109623104D01*
X199373846Y-109672699D01*
X199406600Y-109722753D01*
X199412424Y-109729894D01*
X199536828Y-109880272D01*
X199579263Y-109922411D01*
X199621126Y-109965161D01*
X199628227Y-109971034D01*
X199779469Y-110094384D01*
X199829277Y-110127477D01*
X199878651Y-110161284D01*
X199886757Y-110165667D01*
X200059080Y-110257292D01*
X200114392Y-110280090D01*
X200169366Y-110303652D01*
X200178169Y-110306377D01*
X200365006Y-110362786D01*
X200423686Y-110374405D01*
X200482196Y-110386842D01*
X200491361Y-110387805D01*
X200685594Y-110406850D01*
X200685598Y-110406850D01*
X200717581Y-110410000D01*
X216467721Y-110410000D01*
X216565424Y-110419580D01*
X216628356Y-110438580D01*
X216686405Y-110469445D01*
X216737343Y-110510989D01*
X216779248Y-110561644D01*
X216810515Y-110619471D01*
X216829956Y-110682272D01*
X216840000Y-110777835D01*
X216840001Y-124532419D01*
X216843247Y-124565377D01*
X216843247Y-124578367D01*
X216844210Y-124587532D01*
X216865965Y-124781481D01*
X216878397Y-124839966D01*
X216890022Y-124898676D01*
X216892747Y-124907479D01*
X216951760Y-125093509D01*
X216975338Y-125148519D01*
X216998120Y-125203794D01*
X217002503Y-125211900D01*
X217096525Y-125382925D01*
X217130308Y-125432264D01*
X217163423Y-125482106D01*
X217169297Y-125489206D01*
X217294747Y-125638712D01*
X217337477Y-125680557D01*
X217379638Y-125723013D01*
X217386780Y-125728837D01*
X217538879Y-125851128D01*
X217588941Y-125883887D01*
X217638523Y-125917331D01*
X217646660Y-125921657D01*
X217646663Y-125921659D01*
X217646667Y-125921660D01*
X217819615Y-126012077D01*
X217875053Y-126034475D01*
X217930228Y-126057669D01*
X217939050Y-126060332D01*
X218126275Y-126115435D01*
X218184983Y-126126633D01*
X218243628Y-126138672D01*
X218252799Y-126139570D01*
X218447161Y-126157259D01*
X218506943Y-126156842D01*
X218566801Y-126157260D01*
X218575972Y-126156360D01*
X218770069Y-126135959D01*
X218828658Y-126123932D01*
X218887423Y-126112723D01*
X218896245Y-126110059D01*
X219082683Y-126052347D01*
X219137838Y-126029162D01*
X219193291Y-126006758D01*
X219201427Y-126002432D01*
X219373104Y-125909607D01*
X219422699Y-125876154D01*
X219472753Y-125843400D01*
X219479894Y-125837576D01*
X219630272Y-125713172D01*
X219672411Y-125670737D01*
X219715161Y-125628874D01*
X219721034Y-125621773D01*
X219844384Y-125470531D01*
X219877477Y-125420723D01*
X219911284Y-125371349D01*
X219915667Y-125363243D01*
X220007292Y-125190920D01*
X220030090Y-125135608D01*
X220053652Y-125080634D01*
X220056377Y-125071831D01*
X220112786Y-124884994D01*
X220124405Y-124826314D01*
X220136842Y-124767804D01*
X220137805Y-124758639D01*
X220156850Y-124564406D01*
X220156850Y-124564402D01*
X220160000Y-124532419D01*
X220160000Y-121088967D01*
X233615000Y-121088967D01*
X233615000Y-121411033D01*
X233677832Y-121726912D01*
X233801082Y-122024463D01*
X233980013Y-122292252D01*
X234207748Y-122519987D01*
X234475537Y-122698918D01*
X234773088Y-122822168D01*
X235088967Y-122885000D01*
X235411033Y-122885000D01*
X235726912Y-122822168D01*
X236024463Y-122698918D01*
X236292252Y-122519987D01*
X236519987Y-122292252D01*
X236698918Y-122024463D01*
X236822168Y-121726912D01*
X236885000Y-121411033D01*
X236885000Y-121088967D01*
X236822168Y-120773088D01*
X236698918Y-120475537D01*
X236519987Y-120207748D01*
X236292252Y-119980013D01*
X236024463Y-119801082D01*
X235726912Y-119677832D01*
X235411033Y-119615000D01*
X235088967Y-119615000D01*
X234773088Y-119677832D01*
X234475537Y-119801082D01*
X234207748Y-119980013D01*
X233980013Y-120207748D01*
X233801082Y-120475537D01*
X233677832Y-120773088D01*
X233615000Y-121088967D01*
X220160000Y-121088967D01*
X220160000Y-109200000D01*
X226305881Y-109200000D01*
X226342275Y-109569524D01*
X226450062Y-109924848D01*
X226625098Y-110252317D01*
X226801628Y-110467420D01*
X226801631Y-110467423D01*
X226860656Y-110539345D01*
X226932578Y-110598370D01*
X228601631Y-112267423D01*
X228660656Y-112339345D01*
X228732578Y-112398370D01*
X229851628Y-113517420D01*
X233982579Y-117648372D01*
X234197682Y-117824902D01*
X234525151Y-117999938D01*
X234880475Y-118107724D01*
X235249999Y-118144119D01*
X235619523Y-118107724D01*
X235974848Y-117999938D01*
X236302316Y-117824902D01*
X236589344Y-117589344D01*
X236824902Y-117302316D01*
X236999938Y-116974848D01*
X237107724Y-116619523D01*
X237144119Y-116249999D01*
X237107724Y-115880475D01*
X236999938Y-115525151D01*
X236824902Y-115197682D01*
X236648372Y-114982579D01*
X232754760Y-111088967D01*
X233615000Y-111088967D01*
X233615000Y-111411033D01*
X233677832Y-111726912D01*
X233801082Y-112024463D01*
X233980013Y-112292252D01*
X234207748Y-112519987D01*
X234475537Y-112698918D01*
X234773088Y-112822168D01*
X235088967Y-112885000D01*
X235411033Y-112885000D01*
X235726912Y-112822168D01*
X236024463Y-112698918D01*
X236292252Y-112519987D01*
X236519987Y-112292252D01*
X236698918Y-112024463D01*
X236822168Y-111726912D01*
X236885000Y-111411033D01*
X236885000Y-111088967D01*
X236822168Y-110773088D01*
X236698918Y-110475537D01*
X236519987Y-110207748D01*
X236292252Y-109980013D01*
X236024463Y-109801082D01*
X235726912Y-109677832D01*
X235411033Y-109615000D01*
X235088967Y-109615000D01*
X234773088Y-109677832D01*
X234475537Y-109801082D01*
X234207748Y-109980013D01*
X233980013Y-110207748D01*
X233801082Y-110475537D01*
X233677832Y-110773088D01*
X233615000Y-111088967D01*
X232754760Y-111088967D01*
X232517420Y-110851628D01*
X231885000Y-110219208D01*
X231885000Y-106088967D01*
X233615000Y-106088967D01*
X233615000Y-106411033D01*
X233677832Y-106726912D01*
X233801082Y-107024463D01*
X233980013Y-107292252D01*
X234207748Y-107519987D01*
X234475537Y-107698918D01*
X234773088Y-107822168D01*
X235088967Y-107885000D01*
X235411033Y-107885000D01*
X235726912Y-107822168D01*
X236024463Y-107698918D01*
X236292252Y-107519987D01*
X236519987Y-107292252D01*
X236698918Y-107024463D01*
X236822168Y-106726912D01*
X236885000Y-106411033D01*
X236885000Y-106088967D01*
X236822168Y-105773088D01*
X236698918Y-105475537D01*
X236519987Y-105207748D01*
X236292252Y-104980013D01*
X236024463Y-104801082D01*
X235726912Y-104677832D01*
X235411033Y-104615000D01*
X235088967Y-104615000D01*
X234773088Y-104677832D01*
X234475537Y-104801082D01*
X234207748Y-104980013D01*
X233980013Y-105207748D01*
X233801082Y-105475537D01*
X233677832Y-105773088D01*
X233615000Y-106088967D01*
X231885000Y-106088967D01*
X231885000Y-101088967D01*
X233615000Y-101088967D01*
X233615000Y-101411033D01*
X233677832Y-101726912D01*
X233801082Y-102024463D01*
X233980013Y-102292252D01*
X234207748Y-102519987D01*
X234475537Y-102698918D01*
X234773088Y-102822168D01*
X235088967Y-102885000D01*
X235411033Y-102885000D01*
X235726912Y-102822168D01*
X236024463Y-102698918D01*
X236292252Y-102519987D01*
X236519987Y-102292252D01*
X236698918Y-102024463D01*
X236822168Y-101726912D01*
X236885000Y-101411033D01*
X236885000Y-101088967D01*
X236822168Y-100773088D01*
X236698918Y-100475537D01*
X236519987Y-100207748D01*
X236292252Y-99980013D01*
X236024463Y-99801082D01*
X235726912Y-99677832D01*
X235411033Y-99615000D01*
X235088967Y-99615000D01*
X234773088Y-99677832D01*
X234475537Y-99801082D01*
X234207748Y-99980013D01*
X233980013Y-100207748D01*
X233801082Y-100475537D01*
X233677832Y-100773088D01*
X233615000Y-101088967D01*
X231885000Y-101088967D01*
X231885000Y-96088967D01*
X233615000Y-96088967D01*
X233615000Y-96411033D01*
X233677832Y-96726912D01*
X233801082Y-97024463D01*
X233980013Y-97292252D01*
X234207748Y-97519987D01*
X234475537Y-97698918D01*
X234773088Y-97822168D01*
X235088967Y-97885000D01*
X235411033Y-97885000D01*
X235726912Y-97822168D01*
X236024463Y-97698918D01*
X236292252Y-97519987D01*
X236519987Y-97292252D01*
X236698918Y-97024463D01*
X236822168Y-96726912D01*
X236885000Y-96411033D01*
X236885000Y-96088967D01*
X236822168Y-95773088D01*
X236698918Y-95475537D01*
X236519987Y-95207748D01*
X236292252Y-94980013D01*
X236024463Y-94801082D01*
X235726912Y-94677832D01*
X235411033Y-94615000D01*
X235088967Y-94615000D01*
X234773088Y-94677832D01*
X234475537Y-94801082D01*
X234207748Y-94980013D01*
X233980013Y-95207748D01*
X233801082Y-95475537D01*
X233677832Y-95773088D01*
X233615000Y-96088967D01*
X231885000Y-96088967D01*
X231885000Y-86680792D01*
X234967423Y-83598370D01*
X235039345Y-83539345D01*
X235274903Y-83252317D01*
X235449939Y-82924848D01*
X235557725Y-82569524D01*
X235585000Y-82292597D01*
X235585000Y-82292588D01*
X235594119Y-82200001D01*
X235585000Y-82107414D01*
X235585000Y-78507403D01*
X235557725Y-78230476D01*
X235449939Y-77875152D01*
X235438072Y-77852950D01*
X235438072Y-77500000D01*
X235425812Y-77375518D01*
X235389502Y-77255820D01*
X235330537Y-77145506D01*
X235251185Y-77048815D01*
X235154494Y-76969463D01*
X235044180Y-76910498D01*
X234924482Y-76874188D01*
X234800000Y-76861928D01*
X234447049Y-76861928D01*
X234424847Y-76850061D01*
X234069523Y-76742275D01*
X233700000Y-76705880D01*
X233330476Y-76742275D01*
X232975152Y-76850061D01*
X232952950Y-76861928D01*
X232600000Y-76861928D01*
X232475518Y-76874188D01*
X232355820Y-76910498D01*
X232245506Y-76969463D01*
X232148815Y-77048815D01*
X232069463Y-77145506D01*
X232010498Y-77255820D01*
X231974188Y-77375518D01*
X231961928Y-77500000D01*
X231961928Y-77852951D01*
X231950061Y-77875153D01*
X231842275Y-78230477D01*
X231815000Y-78507404D01*
X231815001Y-81419206D01*
X230085000Y-83149208D01*
X230085000Y-78627403D01*
X230057725Y-78350476D01*
X229949939Y-77995152D01*
X229774903Y-77667683D01*
X229539345Y-77380655D01*
X229252317Y-77145097D01*
X228924847Y-76970061D01*
X228569523Y-76862275D01*
X228200000Y-76825880D01*
X227830476Y-76862275D01*
X227475152Y-76970061D01*
X227147683Y-77145097D01*
X226860655Y-77380655D01*
X226625097Y-77667683D01*
X226450061Y-77995153D01*
X226342275Y-78350477D01*
X226315000Y-78627404D01*
X226315001Y-109107401D01*
X226305881Y-109200000D01*
X220160000Y-109200000D01*
X220160000Y-92967581D01*
X220156753Y-92934613D01*
X220156753Y-92921633D01*
X220155790Y-92912468D01*
X220134035Y-92718518D01*
X220121600Y-92660019D01*
X220109978Y-92601325D01*
X220107253Y-92592522D01*
X220048240Y-92406491D01*
X220024674Y-92351509D01*
X220001880Y-92296206D01*
X219997497Y-92288100D01*
X219903475Y-92117075D01*
X219869702Y-92067752D01*
X219836577Y-92017894D01*
X219830703Y-92010794D01*
X219705253Y-91861288D01*
X219662523Y-91819443D01*
X219620362Y-91776987D01*
X219613220Y-91771163D01*
X219461120Y-91648872D01*
X219411061Y-91616114D01*
X219361477Y-91582669D01*
X219353340Y-91578343D01*
X219353337Y-91578341D01*
X219353333Y-91578340D01*
X219180384Y-91487923D01*
X219124972Y-91465535D01*
X219069772Y-91442331D01*
X219060950Y-91439668D01*
X218873724Y-91384565D01*
X218814986Y-91373360D01*
X218756372Y-91361328D01*
X218747200Y-91360429D01*
X218552839Y-91342741D01*
X218493057Y-91343158D01*
X218433199Y-91342740D01*
X218424028Y-91343640D01*
X218229931Y-91364041D01*
X218171348Y-91376066D01*
X218112577Y-91387277D01*
X218103755Y-91389941D01*
X217917317Y-91447653D01*
X217862162Y-91470838D01*
X217806709Y-91493242D01*
X217798573Y-91497568D01*
X217626896Y-91590393D01*
X217577278Y-91623861D01*
X217527247Y-91656600D01*
X217520106Y-91662424D01*
X217369728Y-91786828D01*
X217327589Y-91829263D01*
X217284839Y-91871126D01*
X217278966Y-91878227D01*
X217155616Y-92029469D01*
X217122534Y-92079262D01*
X217088716Y-92128651D01*
X217084333Y-92136757D01*
X216992708Y-92309079D01*
X216969909Y-92364394D01*
X216946348Y-92419366D01*
X216943623Y-92428169D01*
X216887214Y-92615005D01*
X216875594Y-92673693D01*
X216863158Y-92732196D01*
X216862195Y-92741361D01*
X216843150Y-92935595D01*
X216843150Y-92935608D01*
X216840001Y-92967581D01*
X216840000Y-106717721D01*
X216830420Y-106815424D01*
X216811420Y-106878357D01*
X216780554Y-106936406D01*
X216739011Y-106987343D01*
X216688356Y-107029248D01*
X216630529Y-107060515D01*
X216567728Y-107079956D01*
X216472165Y-107090000D01*
X200717581Y-107090000D01*
X200684613Y-107093247D01*
X200671633Y-107093247D01*
X200662468Y-107094210D01*
X200468518Y-107115965D01*
X200410019Y-107128400D01*
X200351325Y-107140022D01*
X200342522Y-107142747D01*
X200156491Y-107201760D01*
X200101509Y-107225326D01*
X200046206Y-107248120D01*
X200038100Y-107252503D01*
X199867075Y-107346525D01*
X199817752Y-107380298D01*
X199767894Y-107413423D01*
X199760794Y-107419297D01*
X199611288Y-107544747D01*
X199569443Y-107587477D01*
X199526987Y-107629638D01*
X199521163Y-107636780D01*
X199398872Y-107788880D01*
X199366114Y-107838939D01*
X199332669Y-107888523D01*
X199328343Y-107896660D01*
X199237923Y-108069616D01*
X199215535Y-108125028D01*
X199192331Y-108180228D01*
X199189668Y-108189050D01*
X199134565Y-108376276D01*
X199123360Y-108435014D01*
X199111328Y-108493628D01*
X199110429Y-108502800D01*
X199092741Y-108697161D01*
X199093158Y-108756943D01*
X199092740Y-108816801D01*
X192777155Y-108816801D01*
X192658363Y-108639017D01*
X192360983Y-108341637D01*
X192011302Y-108107988D01*
X191622756Y-107947047D01*
X191210279Y-107865000D01*
X190789721Y-107865000D01*
X190377244Y-107947047D01*
X189988698Y-108107988D01*
X189639017Y-108341637D01*
X189341637Y-108639017D01*
X189107988Y-108988698D01*
X188947047Y-109377244D01*
X188865000Y-109789721D01*
X174410000Y-109789721D01*
X174410000Y-101088967D01*
X206115000Y-101088967D01*
X206115000Y-101411033D01*
X206177832Y-101726912D01*
X206301082Y-102024463D01*
X206480013Y-102292252D01*
X206707748Y-102519987D01*
X206975537Y-102698918D01*
X207273088Y-102822168D01*
X207588967Y-102885000D01*
X207911033Y-102885000D01*
X208226912Y-102822168D01*
X208524463Y-102698918D01*
X208792252Y-102519987D01*
X209019987Y-102292252D01*
X209198918Y-102024463D01*
X209322168Y-101726912D01*
X209385000Y-101411033D01*
X209385000Y-101088967D01*
X209322168Y-100773088D01*
X209198918Y-100475537D01*
X209019987Y-100207748D01*
X208792252Y-99980013D01*
X208524463Y-99801082D01*
X208226912Y-99677832D01*
X207911033Y-99615000D01*
X207588967Y-99615000D01*
X207273088Y-99677832D01*
X206975537Y-99801082D01*
X206707748Y-99980013D01*
X206480013Y-100207748D01*
X206301082Y-100475537D01*
X206177832Y-100773088D01*
X206115000Y-101088967D01*
X174410000Y-101088967D01*
X174410000Y-98554495D01*
X189015000Y-98554495D01*
X189015000Y-98945505D01*
X189091282Y-99329003D01*
X189240915Y-99690250D01*
X189458149Y-100015364D01*
X189734636Y-100291851D01*
X190059750Y-100509085D01*
X190420997Y-100658718D01*
X190804495Y-100735000D01*
X191195505Y-100735000D01*
X191579003Y-100658718D01*
X191940250Y-100509085D01*
X192265364Y-100291851D01*
X192541851Y-100015364D01*
X192759085Y-99690250D01*
X192908718Y-99329003D01*
X192985000Y-98945505D01*
X192985000Y-98554495D01*
X192908718Y-98170997D01*
X192759085Y-97809750D01*
X192541851Y-97484636D01*
X192265364Y-97208149D01*
X191940250Y-96990915D01*
X191579003Y-96841282D01*
X191195505Y-96765000D01*
X190804495Y-96765000D01*
X190420997Y-96841282D01*
X190059750Y-96990915D01*
X189734636Y-97208149D01*
X189458149Y-97484636D01*
X189240915Y-97809750D01*
X189091282Y-98170997D01*
X189015000Y-98554495D01*
X174410000Y-98554495D01*
X174410000Y-95250000D01*
X206111928Y-95250000D01*
X206111928Y-97250000D01*
X206124188Y-97374482D01*
X206160498Y-97494180D01*
X206219463Y-97604494D01*
X206298815Y-97701185D01*
X206395506Y-97780537D01*
X206505820Y-97839502D01*
X206625518Y-97875812D01*
X206750000Y-97888072D01*
X208750000Y-97888072D01*
X208874482Y-97875812D01*
X208994180Y-97839502D01*
X209104494Y-97780537D01*
X209201185Y-97701185D01*
X209280537Y-97604494D01*
X209339502Y-97494180D01*
X209375812Y-97374482D01*
X209388072Y-97250000D01*
X209388072Y-95250000D01*
X209375812Y-95125518D01*
X209339502Y-95005820D01*
X209280537Y-94895506D01*
X209201185Y-94798815D01*
X209104494Y-94719463D01*
X208994180Y-94660498D01*
X208874482Y-94624188D01*
X208750000Y-94611928D01*
X206750000Y-94611928D01*
X206625518Y-94624188D01*
X206505820Y-94660498D01*
X206395506Y-94719463D01*
X206298815Y-94798815D01*
X206219463Y-94895506D01*
X206160498Y-95005820D01*
X206124188Y-95125518D01*
X206111928Y-95250000D01*
X174410000Y-95250000D01*
X174410000Y-87289721D01*
X188865000Y-87289721D01*
X188865000Y-87710279D01*
X188947047Y-88122756D01*
X189107988Y-88511302D01*
X189341637Y-88860983D01*
X189639017Y-89158363D01*
X189988698Y-89392012D01*
X190377244Y-89552953D01*
X190789721Y-89635000D01*
X191210279Y-89635000D01*
X191622756Y-89552953D01*
X192011302Y-89392012D01*
X192360983Y-89158363D01*
X192658363Y-88860983D01*
X192892012Y-88511302D01*
X193052953Y-88122756D01*
X193135000Y-87710279D01*
X193135000Y-87289721D01*
X193052953Y-86877244D01*
X192892012Y-86488698D01*
X192658363Y-86139017D01*
X192360983Y-85841637D01*
X192011302Y-85607988D01*
X191622756Y-85447047D01*
X191210279Y-85365000D01*
X190789721Y-85365000D01*
X190377244Y-85447047D01*
X189988698Y-85607988D01*
X189639017Y-85841637D01*
X189341637Y-86139017D01*
X189107988Y-86488698D01*
X188947047Y-86877244D01*
X188865000Y-87289721D01*
X174410000Y-87289721D01*
X174410000Y-78549117D01*
X214465000Y-78549117D01*
X214465000Y-78890883D01*
X214531675Y-79226081D01*
X214662463Y-79541831D01*
X214852337Y-79825998D01*
X215094002Y-80067663D01*
X215378169Y-80257537D01*
X215693919Y-80388325D01*
X216029117Y-80455000D01*
X216370883Y-80455000D01*
X216706081Y-80388325D01*
X217021831Y-80257537D01*
X217305998Y-80067663D01*
X217547663Y-79825998D01*
X217737537Y-79541831D01*
X217868325Y-79226081D01*
X217935000Y-78890883D01*
X217935000Y-78549117D01*
X217868325Y-78213919D01*
X217737537Y-77898169D01*
X217547663Y-77614002D01*
X217433661Y-77500000D01*
X220461928Y-77500000D01*
X220461928Y-79700000D01*
X220474188Y-79824482D01*
X220510498Y-79944180D01*
X220569463Y-80054494D01*
X220648815Y-80151185D01*
X220745506Y-80230537D01*
X220855820Y-80289502D01*
X220975518Y-80325812D01*
X221100000Y-80338072D01*
X223300000Y-80338072D01*
X223424482Y-80325812D01*
X223544180Y-80289502D01*
X223654494Y-80230537D01*
X223751185Y-80151185D01*
X223830537Y-80054494D01*
X223889502Y-79944180D01*
X223925812Y-79824482D01*
X223938072Y-79700000D01*
X223938072Y-77500000D01*
X223925812Y-77375518D01*
X223889502Y-77255820D01*
X223830537Y-77145506D01*
X223751185Y-77048815D01*
X223654494Y-76969463D01*
X223544180Y-76910498D01*
X223424482Y-76874188D01*
X223300000Y-76861928D01*
X221100000Y-76861928D01*
X220975518Y-76874188D01*
X220855820Y-76910498D01*
X220745506Y-76969463D01*
X220648815Y-77048815D01*
X220569463Y-77145506D01*
X220510498Y-77255820D01*
X220474188Y-77375518D01*
X220461928Y-77500000D01*
X217433661Y-77500000D01*
X217305998Y-77372337D01*
X217021831Y-77182463D01*
X216706081Y-77051675D01*
X216370883Y-76985000D01*
X216029117Y-76985000D01*
X215693919Y-77051675D01*
X215378169Y-77182463D01*
X215094002Y-77372337D01*
X214852337Y-77614002D01*
X214662463Y-77898169D01*
X214531675Y-78213919D01*
X214465000Y-78549117D01*
X174410000Y-78549117D01*
X174410000Y-76635413D01*
X186044192Y-76635413D01*
X186139956Y-76899814D01*
X186429571Y-77040704D01*
X186741108Y-77122384D01*
X187062595Y-77141718D01*
X187381675Y-77097961D01*
X187686088Y-76992795D01*
X187860044Y-76899814D01*
X187955808Y-76635413D01*
X198294192Y-76635413D01*
X198389956Y-76899814D01*
X198679571Y-77040704D01*
X198991108Y-77122384D01*
X199312595Y-77141718D01*
X199631675Y-77097961D01*
X199936088Y-76992795D01*
X200110044Y-76899814D01*
X200205808Y-76635413D01*
X199250000Y-75679605D01*
X198294192Y-76635413D01*
X187955808Y-76635413D01*
X187000000Y-75679605D01*
X186044192Y-76635413D01*
X174410000Y-76635413D01*
X174410000Y-75562595D01*
X185358282Y-75562595D01*
X185402039Y-75881675D01*
X185507205Y-76186088D01*
X185600186Y-76360044D01*
X185864587Y-76455808D01*
X186820395Y-75500000D01*
X187179605Y-75500000D01*
X188135413Y-76455808D01*
X188399814Y-76360044D01*
X188540704Y-76070429D01*
X188622384Y-75758892D01*
X188634189Y-75562595D01*
X197608282Y-75562595D01*
X197652039Y-75881675D01*
X197757205Y-76186088D01*
X197850186Y-76360044D01*
X198114587Y-76455808D01*
X199070395Y-75500000D01*
X199429605Y-75500000D01*
X200385413Y-76455808D01*
X200649814Y-76360044D01*
X200790704Y-76070429D01*
X200872384Y-75758892D01*
X200891718Y-75437405D01*
X200847961Y-75118325D01*
X200742795Y-74813912D01*
X200649814Y-74639956D01*
X200385413Y-74544192D01*
X199429605Y-75500000D01*
X199070395Y-75500000D01*
X198114587Y-74544192D01*
X197850186Y-74639956D01*
X197709296Y-74929571D01*
X197627616Y-75241108D01*
X197608282Y-75562595D01*
X188634189Y-75562595D01*
X188641718Y-75437405D01*
X188597961Y-75118325D01*
X188492795Y-74813912D01*
X188399814Y-74639956D01*
X188135413Y-74544192D01*
X187179605Y-75500000D01*
X186820395Y-75500000D01*
X185864587Y-74544192D01*
X185600186Y-74639956D01*
X185459296Y-74929571D01*
X185377616Y-75241108D01*
X185358282Y-75562595D01*
X174410000Y-75562595D01*
X174410000Y-74364587D01*
X186044192Y-74364587D01*
X187000000Y-75320395D01*
X187955808Y-74364587D01*
X198294192Y-74364587D01*
X199250000Y-75320395D01*
X200205808Y-74364587D01*
X200110044Y-74100186D01*
X199820429Y-73959296D01*
X199508892Y-73877616D01*
X199187405Y-73858282D01*
X198868325Y-73902039D01*
X198563912Y-74007205D01*
X198389956Y-74100186D01*
X198294192Y-74364587D01*
X187955808Y-74364587D01*
X187860044Y-74100186D01*
X187570429Y-73959296D01*
X187258892Y-73877616D01*
X186937405Y-73858282D01*
X186618325Y-73902039D01*
X186313912Y-74007205D01*
X186139956Y-74100186D01*
X186044192Y-74364587D01*
X174410000Y-74364587D01*
X174410000Y-69500000D01*
X185361928Y-69500000D01*
X185361928Y-71500000D01*
X185374188Y-71624482D01*
X185410498Y-71744180D01*
X185469463Y-71854494D01*
X185548815Y-71951185D01*
X185645506Y-72030537D01*
X185755820Y-72089502D01*
X185875518Y-72125812D01*
X186000000Y-72138072D01*
X188000000Y-72138072D01*
X188124482Y-72125812D01*
X188244180Y-72089502D01*
X188354494Y-72030537D01*
X188451185Y-71951185D01*
X188530537Y-71854494D01*
X188589502Y-71744180D01*
X188625812Y-71624482D01*
X188638072Y-71500000D01*
X188638072Y-69500000D01*
X197611928Y-69500000D01*
X197611928Y-71500000D01*
X197624188Y-71624482D01*
X197660498Y-71744180D01*
X197719463Y-71854494D01*
X197798815Y-71951185D01*
X197895506Y-72030537D01*
X198005820Y-72089502D01*
X198125518Y-72125812D01*
X198250000Y-72138072D01*
X200250000Y-72138072D01*
X200374482Y-72125812D01*
X200494180Y-72089502D01*
X200604494Y-72030537D01*
X200701185Y-71951185D01*
X200780537Y-71854494D01*
X200839502Y-71744180D01*
X200875812Y-71624482D01*
X200888072Y-71500000D01*
X200888072Y-70000000D01*
X214461928Y-70000000D01*
X214461928Y-72200000D01*
X214474188Y-72324482D01*
X214510498Y-72444180D01*
X214569463Y-72554494D01*
X214648815Y-72651185D01*
X214745506Y-72730537D01*
X214855820Y-72789502D01*
X214975518Y-72825812D01*
X215100000Y-72838072D01*
X217300000Y-72838072D01*
X217424482Y-72825812D01*
X217544180Y-72789502D01*
X217654494Y-72730537D01*
X217751185Y-72651185D01*
X217830537Y-72554494D01*
X217889502Y-72444180D01*
X217925812Y-72324482D01*
X217938072Y-72200000D01*
X217938072Y-71376123D01*
X220510821Y-71376123D01*
X220620558Y-71698054D01*
X220790992Y-71992391D01*
X221015573Y-72247822D01*
X221285671Y-72454531D01*
X221590906Y-72604575D01*
X221803878Y-72669175D01*
X222073000Y-72551125D01*
X222073000Y-71107000D01*
X222327000Y-71107000D01*
X222327000Y-72551125D01*
X222596122Y-72669175D01*
X222809094Y-72604575D01*
X223114329Y-72454531D01*
X223384427Y-72247822D01*
X223609008Y-71992391D01*
X223779442Y-71698054D01*
X223889179Y-71376123D01*
X223771600Y-71107000D01*
X222327000Y-71107000D01*
X222073000Y-71107000D01*
X220628400Y-71107000D01*
X220510821Y-71376123D01*
X217938072Y-71376123D01*
X217938072Y-70583877D01*
X220510821Y-70583877D01*
X220628400Y-70853000D01*
X222073000Y-70853000D01*
X222073000Y-69408875D01*
X222327000Y-69408875D01*
X222327000Y-70853000D01*
X223771600Y-70853000D01*
X223889179Y-70583877D01*
X223779442Y-70261946D01*
X223627764Y-70000000D01*
X226461928Y-70000000D01*
X226461928Y-72200000D01*
X226474188Y-72324482D01*
X226510498Y-72444180D01*
X226569463Y-72554494D01*
X226648815Y-72651185D01*
X226745506Y-72730537D01*
X226855820Y-72789502D01*
X226975518Y-72825812D01*
X227100000Y-72838072D01*
X229300000Y-72838072D01*
X229424482Y-72825812D01*
X229544180Y-72789502D01*
X229654494Y-72730537D01*
X229751185Y-72651185D01*
X229830537Y-72554494D01*
X229889502Y-72444180D01*
X229925812Y-72324482D01*
X229938072Y-72200000D01*
X229938072Y-71376123D01*
X232010821Y-71376123D01*
X232120558Y-71698054D01*
X232290992Y-71992391D01*
X232515573Y-72247822D01*
X232785671Y-72454531D01*
X233090906Y-72604575D01*
X233303878Y-72669175D01*
X233573000Y-72551125D01*
X233573000Y-71107000D01*
X233827000Y-71107000D01*
X233827000Y-72551125D01*
X234096122Y-72669175D01*
X234309094Y-72604575D01*
X234614329Y-72454531D01*
X234884427Y-72247822D01*
X235109008Y-71992391D01*
X235279442Y-71698054D01*
X235389179Y-71376123D01*
X235271600Y-71107000D01*
X233827000Y-71107000D01*
X233573000Y-71107000D01*
X232128400Y-71107000D01*
X232010821Y-71376123D01*
X229938072Y-71376123D01*
X229938072Y-70583877D01*
X232010821Y-70583877D01*
X232128400Y-70853000D01*
X233573000Y-70853000D01*
X233573000Y-69408875D01*
X233827000Y-69408875D01*
X233827000Y-70853000D01*
X235271600Y-70853000D01*
X235389179Y-70583877D01*
X235279442Y-70261946D01*
X235109008Y-69967609D01*
X234884427Y-69712178D01*
X234614329Y-69505469D01*
X234309094Y-69355425D01*
X234096122Y-69290825D01*
X233827000Y-69408875D01*
X233573000Y-69408875D01*
X233303878Y-69290825D01*
X233090906Y-69355425D01*
X232785671Y-69505469D01*
X232515573Y-69712178D01*
X232290992Y-69967609D01*
X232120558Y-70261946D01*
X232010821Y-70583877D01*
X229938072Y-70583877D01*
X229938072Y-70000000D01*
X229925812Y-69875518D01*
X229889502Y-69755820D01*
X229830537Y-69645506D01*
X229751185Y-69548815D01*
X229654494Y-69469463D01*
X229544180Y-69410498D01*
X229424482Y-69374188D01*
X229300000Y-69361928D01*
X227100000Y-69361928D01*
X226975518Y-69374188D01*
X226855820Y-69410498D01*
X226745506Y-69469463D01*
X226648815Y-69548815D01*
X226569463Y-69645506D01*
X226510498Y-69755820D01*
X226474188Y-69875518D01*
X226461928Y-70000000D01*
X223627764Y-70000000D01*
X223609008Y-69967609D01*
X223384427Y-69712178D01*
X223114329Y-69505469D01*
X222809094Y-69355425D01*
X222596122Y-69290825D01*
X222327000Y-69408875D01*
X222073000Y-69408875D01*
X221803878Y-69290825D01*
X221590906Y-69355425D01*
X221285671Y-69505469D01*
X221015573Y-69712178D01*
X220790992Y-69967609D01*
X220620558Y-70261946D01*
X220510821Y-70583877D01*
X217938072Y-70583877D01*
X217938072Y-70000000D01*
X217925812Y-69875518D01*
X217889502Y-69755820D01*
X217830537Y-69645506D01*
X217751185Y-69548815D01*
X217654494Y-69469463D01*
X217544180Y-69410498D01*
X217424482Y-69374188D01*
X217300000Y-69361928D01*
X215100000Y-69361928D01*
X214975518Y-69374188D01*
X214855820Y-69410498D01*
X214745506Y-69469463D01*
X214648815Y-69548815D01*
X214569463Y-69645506D01*
X214510498Y-69755820D01*
X214474188Y-69875518D01*
X214461928Y-70000000D01*
X200888072Y-70000000D01*
X200888072Y-69500000D01*
X200875812Y-69375518D01*
X200839502Y-69255820D01*
X200780537Y-69145506D01*
X200701185Y-69048815D01*
X200604494Y-68969463D01*
X200494180Y-68910498D01*
X200374482Y-68874188D01*
X200250000Y-68861928D01*
X198250000Y-68861928D01*
X198125518Y-68874188D01*
X198005820Y-68910498D01*
X197895506Y-68969463D01*
X197798815Y-69048815D01*
X197719463Y-69145506D01*
X197660498Y-69255820D01*
X197624188Y-69375518D01*
X197611928Y-69500000D01*
X188638072Y-69500000D01*
X188625812Y-69375518D01*
X188589502Y-69255820D01*
X188530537Y-69145506D01*
X188451185Y-69048815D01*
X188354494Y-68969463D01*
X188244180Y-68910498D01*
X188124482Y-68874188D01*
X188000000Y-68861928D01*
X186000000Y-68861928D01*
X185875518Y-68874188D01*
X185755820Y-68910498D01*
X185645506Y-68969463D01*
X185548815Y-69048815D01*
X185469463Y-69145506D01*
X185410498Y-69255820D01*
X185374188Y-69375518D01*
X185361928Y-69500000D01*
X174410000Y-69500000D01*
X174410000Y-65460000D01*
X182361928Y-65460000D01*
X182374188Y-65584482D01*
X182410498Y-65704180D01*
X182469463Y-65814494D01*
X182548815Y-65911185D01*
X182645506Y-65990537D01*
X182755820Y-66049502D01*
X182875518Y-66085812D01*
X183000000Y-66098072D01*
X184214250Y-66095000D01*
X184373000Y-65936250D01*
X184373000Y-64087000D01*
X184627000Y-64087000D01*
X184627000Y-65936250D01*
X184785750Y-66095000D01*
X186000000Y-66098072D01*
X186124482Y-66085812D01*
X186244180Y-66049502D01*
X186354494Y-65990537D01*
X186451185Y-65911185D01*
X186530537Y-65814494D01*
X186589502Y-65704180D01*
X186625812Y-65584482D01*
X186638072Y-65460000D01*
X186635000Y-64245750D01*
X186476250Y-64087000D01*
X184627000Y-64087000D01*
X184373000Y-64087000D01*
X182523750Y-64087000D01*
X182365000Y-64245750D01*
X182361928Y-65460000D01*
X174410000Y-65460000D01*
X174410000Y-62460000D01*
X182361928Y-62460000D01*
X182365000Y-63674250D01*
X182523750Y-63833000D01*
X184373000Y-63833000D01*
X184373000Y-61983750D01*
X184627000Y-61983750D01*
X184627000Y-63833000D01*
X186476250Y-63833000D01*
X186635000Y-63674250D01*
X186638072Y-62460000D01*
X186625812Y-62335518D01*
X186589502Y-62215820D01*
X186530537Y-62105506D01*
X186451185Y-62008815D01*
X186354494Y-61929463D01*
X186244180Y-61870498D01*
X186124482Y-61834188D01*
X186000000Y-61821928D01*
X184785750Y-61825000D01*
X184627000Y-61983750D01*
X184373000Y-61983750D01*
X184214250Y-61825000D01*
X183000000Y-61821928D01*
X182875518Y-61834188D01*
X182755820Y-61870498D01*
X182645506Y-61929463D01*
X182548815Y-62008815D01*
X182469463Y-62105506D01*
X182410498Y-62215820D01*
X182374188Y-62335518D01*
X182361928Y-62460000D01*
X174410000Y-62460000D01*
X174410000Y-59641984D01*
X208415000Y-59641984D01*
X208415000Y-60358016D01*
X208554691Y-61060290D01*
X208828705Y-61721818D01*
X209226511Y-62317177D01*
X209732823Y-62823489D01*
X210328182Y-63221295D01*
X210989710Y-63495309D01*
X211691984Y-63635000D01*
X212408016Y-63635000D01*
X213110290Y-63495309D01*
X213461096Y-63350000D01*
X220659428Y-63350000D01*
X220659428Y-65350000D01*
X220671688Y-65474482D01*
X220707998Y-65594180D01*
X220766963Y-65704494D01*
X220846315Y-65801185D01*
X220943006Y-65880537D01*
X221053320Y-65939502D01*
X221173018Y-65975812D01*
X221297500Y-65988072D01*
X223202500Y-65988072D01*
X223326982Y-65975812D01*
X223446680Y-65939502D01*
X223556994Y-65880537D01*
X223653685Y-65801185D01*
X223733037Y-65704494D01*
X223782059Y-65612781D01*
X223923077Y-65725969D01*
X224198906Y-65869571D01*
X224417020Y-65940563D01*
X224663000Y-65820594D01*
X224663000Y-64477000D01*
X224643000Y-64477000D01*
X224643000Y-64223000D01*
X224663000Y-64223000D01*
X224663000Y-62879406D01*
X224917000Y-62879406D01*
X224917000Y-64223000D01*
X224937000Y-64223000D01*
X224937000Y-64477000D01*
X224917000Y-64477000D01*
X224917000Y-65820594D01*
X225162980Y-65940563D01*
X225381094Y-65869571D01*
X225656923Y-65725969D01*
X225899437Y-65531315D01*
X226054837Y-65346101D01*
X226202037Y-65525463D01*
X226443766Y-65723845D01*
X226719552Y-65871255D01*
X227018797Y-65962030D01*
X227330000Y-65992681D01*
X227641204Y-65962030D01*
X227940449Y-65871255D01*
X228216235Y-65723845D01*
X228457963Y-65525463D01*
X228656345Y-65283734D01*
X228803755Y-65007948D01*
X228894530Y-64708703D01*
X228917500Y-64475485D01*
X228917500Y-64224514D01*
X228894530Y-63991296D01*
X228803755Y-63692051D01*
X228656345Y-63416265D01*
X228457963Y-63174537D01*
X228216234Y-62976155D01*
X227940448Y-62828745D01*
X227641203Y-62737970D01*
X227330000Y-62707319D01*
X227018796Y-62737970D01*
X226719551Y-62828745D01*
X226443765Y-62976155D01*
X226202037Y-63174537D01*
X226054838Y-63353900D01*
X225899437Y-63168685D01*
X225656923Y-62974031D01*
X225381094Y-62830429D01*
X225162980Y-62759437D01*
X224917000Y-62879406D01*
X224663000Y-62879406D01*
X224417020Y-62759437D01*
X224198906Y-62830429D01*
X223923077Y-62974031D01*
X223782059Y-63087219D01*
X223733037Y-62995506D01*
X223653685Y-62898815D01*
X223556994Y-62819463D01*
X223446680Y-62760498D01*
X223326982Y-62724188D01*
X223202500Y-62711928D01*
X221297500Y-62711928D01*
X221173018Y-62724188D01*
X221053320Y-62760498D01*
X220943006Y-62819463D01*
X220846315Y-62898815D01*
X220766963Y-62995506D01*
X220707998Y-63105820D01*
X220671688Y-63225518D01*
X220659428Y-63350000D01*
X213461096Y-63350000D01*
X213771818Y-63221295D01*
X214367177Y-62823489D01*
X214873489Y-62317177D01*
X215271295Y-61721818D01*
X215545309Y-61060290D01*
X215685000Y-60358016D01*
X215685000Y-59641984D01*
X233815000Y-59641984D01*
X233815000Y-60358016D01*
X233954691Y-61060290D01*
X234228705Y-61721818D01*
X234626511Y-62317177D01*
X235132823Y-62823489D01*
X235728182Y-63221295D01*
X236389710Y-63495309D01*
X237091984Y-63635000D01*
X237808016Y-63635000D01*
X238510290Y-63495309D01*
X239171818Y-63221295D01*
X239767177Y-62823489D01*
X240273489Y-62317177D01*
X240671295Y-61721818D01*
X240945309Y-61060290D01*
X241085000Y-60358016D01*
X241085000Y-59641984D01*
X240945309Y-58939710D01*
X240671295Y-58278182D01*
X240273489Y-57682823D01*
X239767177Y-57176511D01*
X239171818Y-56778705D01*
X238510290Y-56504691D01*
X237808016Y-56365000D01*
X237091984Y-56365000D01*
X236389710Y-56504691D01*
X235728182Y-56778705D01*
X235132823Y-57176511D01*
X234626511Y-57682823D01*
X234228705Y-58278182D01*
X233954691Y-58939710D01*
X233815000Y-59641984D01*
X215685000Y-59641984D01*
X215545309Y-58939710D01*
X215271295Y-58278182D01*
X214873489Y-57682823D01*
X214367177Y-57176511D01*
X213771818Y-56778705D01*
X213110290Y-56504691D01*
X212408016Y-56365000D01*
X211691984Y-56365000D01*
X210989710Y-56504691D01*
X210328182Y-56778705D01*
X209732823Y-57176511D01*
X209226511Y-57682823D01*
X208828705Y-58278182D01*
X208554691Y-58939710D01*
X208415000Y-59641984D01*
X174410000Y-59641984D01*
X174410000Y-58992702D01*
X197436903Y-58992702D01*
X197508486Y-59236671D01*
X197763996Y-59357571D01*
X198038184Y-59426300D01*
X198320512Y-59440217D01*
X198600130Y-59398787D01*
X198866292Y-59303603D01*
X198991514Y-59236671D01*
X199063097Y-58992702D01*
X198250000Y-58179605D01*
X197436903Y-58992702D01*
X174410000Y-58992702D01*
X174410000Y-54540000D01*
X182361928Y-54540000D01*
X182361928Y-57540000D01*
X182374188Y-57664482D01*
X182410498Y-57784180D01*
X182469463Y-57894494D01*
X182548815Y-57991185D01*
X182645506Y-58070537D01*
X182755820Y-58129502D01*
X182875518Y-58165812D01*
X183000000Y-58178072D01*
X186000000Y-58178072D01*
X186124482Y-58165812D01*
X186244180Y-58129502D01*
X186354494Y-58070537D01*
X186354524Y-58070512D01*
X196809783Y-58070512D01*
X196851213Y-58350130D01*
X196946397Y-58616292D01*
X197013329Y-58741514D01*
X197257298Y-58813097D01*
X198070395Y-58000000D01*
X198429605Y-58000000D01*
X199242702Y-58813097D01*
X199486671Y-58741514D01*
X199607571Y-58486004D01*
X199676300Y-58211816D01*
X199690217Y-57929488D01*
X199648787Y-57649870D01*
X199553603Y-57383708D01*
X199486671Y-57258486D01*
X199242702Y-57186903D01*
X198429605Y-58000000D01*
X198070395Y-58000000D01*
X197257298Y-57186903D01*
X197013329Y-57258486D01*
X196892429Y-57513996D01*
X196823700Y-57788184D01*
X196809783Y-58070512D01*
X186354524Y-58070512D01*
X186451185Y-57991185D01*
X186530537Y-57894494D01*
X186589502Y-57784180D01*
X186625812Y-57664482D01*
X186638072Y-57540000D01*
X186638072Y-54700000D01*
X196811928Y-54700000D01*
X196811928Y-56300000D01*
X196824188Y-56424482D01*
X196860498Y-56544180D01*
X196919463Y-56654494D01*
X196998815Y-56751185D01*
X197095506Y-56830537D01*
X197205820Y-56889502D01*
X197325518Y-56925812D01*
X197450000Y-56938072D01*
X197457215Y-56938072D01*
X197436903Y-57007298D01*
X198250000Y-57820395D01*
X199063097Y-57007298D01*
X199042785Y-56938072D01*
X199050000Y-56938072D01*
X199174482Y-56925812D01*
X199294180Y-56889502D01*
X199404494Y-56830537D01*
X199501185Y-56751185D01*
X199580537Y-56654494D01*
X199639502Y-56544180D01*
X199675812Y-56424482D01*
X199688072Y-56300000D01*
X199688072Y-54700000D01*
X199675812Y-54575518D01*
X199639502Y-54455820D01*
X199580537Y-54345506D01*
X199501185Y-54248815D01*
X199404494Y-54169463D01*
X199294180Y-54110498D01*
X199174482Y-54074188D01*
X199050000Y-54061928D01*
X197450000Y-54061928D01*
X197325518Y-54074188D01*
X197205820Y-54110498D01*
X197095506Y-54169463D01*
X196998815Y-54248815D01*
X196919463Y-54345506D01*
X196860498Y-54455820D01*
X196824188Y-54575518D01*
X196811928Y-54700000D01*
X186638072Y-54700000D01*
X186638072Y-54540000D01*
X186625812Y-54415518D01*
X186589502Y-54295820D01*
X186530537Y-54185506D01*
X186451185Y-54088815D01*
X186354494Y-54009463D01*
X186244180Y-53950498D01*
X186124482Y-53914188D01*
X186000000Y-53901928D01*
X183000000Y-53901928D01*
X182875518Y-53914188D01*
X182755820Y-53950498D01*
X182645506Y-54009463D01*
X182548815Y-54088815D01*
X182469463Y-54185506D01*
X182410498Y-54295820D01*
X182374188Y-54415518D01*
X182361928Y-54540000D01*
X174410000Y-54540000D01*
X174410000Y-47715852D01*
X176115000Y-47715852D01*
X176115000Y-48284148D01*
X176225869Y-48841523D01*
X176443346Y-49366560D01*
X176759074Y-49839080D01*
X177160920Y-50240926D01*
X177633440Y-50556654D01*
X178158477Y-50774131D01*
X178715852Y-50885000D01*
X179284148Y-50885000D01*
X179841523Y-50774131D01*
X180366560Y-50556654D01*
X180839080Y-50240926D01*
X181240926Y-49839080D01*
X181556654Y-49366560D01*
X181774131Y-48841523D01*
X181885000Y-48284148D01*
X181885000Y-47715852D01*
X236115000Y-47715852D01*
X236115000Y-48284148D01*
X236225869Y-48841523D01*
X236443346Y-49366560D01*
X236759074Y-49839080D01*
X237160920Y-50240926D01*
X237633440Y-50556654D01*
X238158477Y-50774131D01*
X238715852Y-50885000D01*
X239284148Y-50885000D01*
X239841523Y-50774131D01*
X240366560Y-50556654D01*
X240839080Y-50240926D01*
X241240926Y-49839080D01*
X241556654Y-49366560D01*
X241774131Y-48841523D01*
X241885000Y-48284148D01*
X241885000Y-47715852D01*
X241774131Y-47158477D01*
X241556654Y-46633440D01*
X241240926Y-46160920D01*
X240839080Y-45759074D01*
X240366560Y-45443346D01*
X239841523Y-45225869D01*
X239284148Y-45115000D01*
X238715852Y-45115000D01*
X238158477Y-45225869D01*
X237633440Y-45443346D01*
X237160920Y-45759074D01*
X236759074Y-46160920D01*
X236443346Y-46633440D01*
X236225869Y-47158477D01*
X236115000Y-47715852D01*
X181885000Y-47715852D01*
X181774131Y-47158477D01*
X181556654Y-46633440D01*
X181240926Y-46160920D01*
X180839080Y-45759074D01*
X180366560Y-45443346D01*
X179841523Y-45225869D01*
X179284148Y-45115000D01*
X178715852Y-45115000D01*
X178158477Y-45225869D01*
X177633440Y-45443346D01*
X177160920Y-45759074D01*
X176759074Y-46160920D01*
X176443346Y-46633440D01*
X176225869Y-47158477D01*
X176115000Y-47715852D01*
X174410000Y-47715852D01*
X174410000Y-46982279D01*
X174448147Y-46593225D01*
X174551763Y-46250033D01*
X174720062Y-45933511D01*
X174946637Y-45655701D01*
X175222856Y-45427194D01*
X175538197Y-45256690D01*
X175880656Y-45150681D01*
X176267712Y-45110000D01*
X241967721Y-45110000D01*
X242356775Y-45148147D01*
G37*
X242356775Y-45148147D02*
X242699967Y-45251763D01*
X243016489Y-45420062D01*
X243294299Y-45646637D01*
X243522806Y-45922856D01*
X243693310Y-46238197D01*
X243799319Y-46580656D01*
X243840000Y-46967712D01*
X243840001Y-141867711D01*
X243801853Y-142256776D01*
X243698238Y-142599964D01*
X243529939Y-142916489D01*
X243303365Y-143194296D01*
X243027146Y-143422805D01*
X242711803Y-143593310D01*
X242369344Y-143699319D01*
X241982288Y-143740000D01*
X176282279Y-143740000D01*
X175893224Y-143701853D01*
X175550036Y-143598238D01*
X175233511Y-143429939D01*
X174955704Y-143203365D01*
X174727195Y-142927146D01*
X174556690Y-142611803D01*
X174450681Y-142269344D01*
X174410000Y-141882288D01*
X174410000Y-139715852D01*
X197615000Y-139715852D01*
X197615000Y-140284148D01*
X197725869Y-140841523D01*
X197943346Y-141366560D01*
X198259074Y-141839080D01*
X198660920Y-142240926D01*
X199133440Y-142556654D01*
X199658477Y-142774131D01*
X200215852Y-142885000D01*
X200784148Y-142885000D01*
X201341523Y-142774131D01*
X201866560Y-142556654D01*
X202339080Y-142240926D01*
X202740926Y-141839080D01*
X203056654Y-141366560D01*
X203274131Y-140841523D01*
X203385000Y-140284148D01*
X203385000Y-139715852D01*
X234615000Y-139715852D01*
X234615000Y-140284148D01*
X234725869Y-140841523D01*
X234943346Y-141366560D01*
X235259074Y-141839080D01*
X235660920Y-142240926D01*
X236133440Y-142556654D01*
X236658477Y-142774131D01*
X237215852Y-142885000D01*
X237784148Y-142885000D01*
X238341523Y-142774131D01*
X238866560Y-142556654D01*
X239339080Y-142240926D01*
X239740926Y-141839080D01*
X240056654Y-141366560D01*
X240274131Y-140841523D01*
X240385000Y-140284148D01*
X240385000Y-139715852D01*
X240274131Y-139158477D01*
X240056654Y-138633440D01*
X239740926Y-138160920D01*
X239339080Y-137759074D01*
X238866560Y-137443346D01*
X238341523Y-137225869D01*
X237784148Y-137115000D01*
X237215852Y-137115000D01*
X236658477Y-137225869D01*
X236133440Y-137443346D01*
X235660920Y-137759074D01*
X235259074Y-138160920D01*
X234943346Y-138633440D01*
X234725869Y-139158477D01*
X234615000Y-139715852D01*
X203385000Y-139715852D01*
X203274131Y-139158477D01*
X203056654Y-138633440D01*
X202740926Y-138160920D01*
X202339080Y-137759074D01*
X201866560Y-137443346D01*
X201341523Y-137225869D01*
X200784148Y-137115000D01*
X200215852Y-137115000D01*
X199658477Y-137225869D01*
X199133440Y-137443346D01*
X198660920Y-137759074D01*
X198259074Y-138160920D01*
X197943346Y-138633440D01*
X197725869Y-139158477D01*
X197615000Y-139715852D01*
X174410000Y-139715852D01*
X174410000Y-123460000D01*
X188861928Y-123460000D01*
X188861928Y-126460000D01*
X188874188Y-126584482D01*
X188910498Y-126704180D01*
X188969463Y-126814494D01*
X189048815Y-126911185D01*
X189145506Y-126990537D01*
X189255820Y-127049502D01*
X189375518Y-127085812D01*
X189500000Y-127098072D01*
X192500000Y-127098072D01*
X192624482Y-127085812D01*
X192744180Y-127049502D01*
X192854494Y-126990537D01*
X192951185Y-126911185D01*
X193030537Y-126814494D01*
X193089502Y-126704180D01*
X193125812Y-126584482D01*
X193138072Y-126460000D01*
X193138072Y-123460000D01*
X193125812Y-123335518D01*
X193089502Y-123215820D01*
X193030537Y-123105506D01*
X192951185Y-123008815D01*
X192854494Y-122929463D01*
X192744180Y-122870498D01*
X192624482Y-122834188D01*
X192500000Y-122821928D01*
X189500000Y-122821928D01*
X189375518Y-122834188D01*
X189255820Y-122870498D01*
X189145506Y-122929463D01*
X189048815Y-123008815D01*
X188969463Y-123105506D01*
X188910498Y-123215820D01*
X188874188Y-123335518D01*
X188861928Y-123460000D01*
X174410000Y-123460000D01*
X174410000Y-121066801D01*
X185342740Y-121066801D01*
X185343640Y-121075972D01*
X185364041Y-121270069D01*
X185376068Y-121328658D01*
X185387277Y-121387423D01*
X185389941Y-121396245D01*
X185447653Y-121582683D01*
X185470838Y-121637838D01*
X185493242Y-121693291D01*
X185497568Y-121701427D01*
X185590393Y-121873104D01*
X185623846Y-121922699D01*
X185656600Y-121972753D01*
X185662424Y-121979894D01*
X185786828Y-122130272D01*
X185829263Y-122172411D01*
X185871126Y-122215161D01*
X185878227Y-122221034D01*
X186029469Y-122344384D01*
X186079277Y-122377477D01*
X186128651Y-122411284D01*
X186136757Y-122415667D01*
X186309080Y-122507292D01*
X186364392Y-122530090D01*
X186419366Y-122553652D01*
X186428169Y-122556377D01*
X186615006Y-122612786D01*
X186673686Y-122624405D01*
X186732196Y-122636842D01*
X186741361Y-122637805D01*
X186935594Y-122656850D01*
X186935598Y-122656850D01*
X186967581Y-122660000D01*
X195032419Y-122660000D01*
X195065387Y-122656753D01*
X195078367Y-122656753D01*
X195087532Y-122655790D01*
X195281481Y-122634035D01*
X195339966Y-122621603D01*
X195398676Y-122609978D01*
X195407479Y-122607253D01*
X195593509Y-122548240D01*
X195648519Y-122524662D01*
X195703794Y-122501880D01*
X195711900Y-122497497D01*
X195882925Y-122403475D01*
X195932264Y-122369692D01*
X195982106Y-122336577D01*
X195989206Y-122330703D01*
X196138712Y-122205253D01*
X196180557Y-122162523D01*
X196223013Y-122120362D01*
X196228837Y-122113220D01*
X196351128Y-121961121D01*
X196383887Y-121911059D01*
X196417331Y-121861477D01*
X196421657Y-121853340D01*
X196512077Y-121680385D01*
X196534475Y-121624947D01*
X196557669Y-121569772D01*
X196560332Y-121560950D01*
X196615435Y-121373725D01*
X196626633Y-121315017D01*
X196638672Y-121256372D01*
X196639570Y-121247201D01*
X196653970Y-121088967D01*
X206115000Y-121088967D01*
X206115000Y-121411033D01*
X206177832Y-121726912D01*
X206301082Y-122024463D01*
X206480013Y-122292252D01*
X206707748Y-122519987D01*
X206975537Y-122698918D01*
X207273088Y-122822168D01*
X207588967Y-122885000D01*
X207911033Y-122885000D01*
X208226912Y-122822168D01*
X208524463Y-122698918D01*
X208792252Y-122519987D01*
X209019987Y-122292252D01*
X209198918Y-122024463D01*
X209322168Y-121726912D01*
X209385000Y-121411033D01*
X209385000Y-121088967D01*
X209322168Y-120773088D01*
X209198918Y-120475537D01*
X209019987Y-120207748D01*
X208792252Y-119980013D01*
X208524463Y-119801082D01*
X208226912Y-119677832D01*
X207911033Y-119615000D01*
X207588967Y-119615000D01*
X207273088Y-119677832D01*
X206975537Y-119801082D01*
X206707748Y-119980013D01*
X206480013Y-120207748D01*
X206301082Y-120475537D01*
X206177832Y-120773088D01*
X206115000Y-121088967D01*
X196653970Y-121088967D01*
X196657259Y-121052839D01*
X196656842Y-120993057D01*
X196657260Y-120933199D01*
X196656360Y-120924028D01*
X196635959Y-120729931D01*
X196623934Y-120671348D01*
X196612723Y-120612577D01*
X196610059Y-120603755D01*
X196552347Y-120417317D01*
X196529162Y-120362162D01*
X196506758Y-120306709D01*
X196502432Y-120298573D01*
X196409607Y-120126896D01*
X196376139Y-120077278D01*
X196343400Y-120027247D01*
X196337576Y-120020106D01*
X196213172Y-119869728D01*
X196170737Y-119827589D01*
X196128874Y-119784839D01*
X196121773Y-119778966D01*
X195970531Y-119655616D01*
X195920738Y-119622534D01*
X195871349Y-119588716D01*
X195863243Y-119584333D01*
X195690921Y-119492708D01*
X195635606Y-119469909D01*
X195580634Y-119446348D01*
X195571831Y-119443623D01*
X195384995Y-119387214D01*
X195326307Y-119375594D01*
X195267804Y-119363158D01*
X195258639Y-119362195D01*
X195064405Y-119343150D01*
X195064402Y-119343150D01*
X195032419Y-119340000D01*
X186967581Y-119340000D01*
X186934613Y-119343247D01*
X186921633Y-119343247D01*
X186912468Y-119344210D01*
X186718518Y-119365965D01*
X186660019Y-119378400D01*
X186601325Y-119390022D01*
X186592522Y-119392747D01*
X186406491Y-119451760D01*
X186351509Y-119475326D01*
X186296206Y-119498120D01*
X186288100Y-119502503D01*
X186117075Y-119596525D01*
X186067752Y-119630298D01*
X186017894Y-119663423D01*
X186010794Y-119669297D01*
X185861288Y-119794747D01*
X185819443Y-119837477D01*
X185776987Y-119879638D01*
X185771163Y-119886780D01*
X185648872Y-120038880D01*
X185616114Y-120088939D01*
X185582669Y-120138523D01*
X185578343Y-120146660D01*
X185487923Y-120319616D01*
X185465535Y-120375028D01*
X185442331Y-120430228D01*
X185439668Y-120439050D01*
X185384565Y-120626276D01*
X185373360Y-120685014D01*
X185361328Y-120743628D01*
X185360429Y-120752800D01*
X185342741Y-120947161D01*
X185343158Y-121006943D01*
X185342740Y-121066801D01*
X174410000Y-121066801D01*
X174410000Y-115540000D01*
X188861928Y-115540000D01*
X188861928Y-118540000D01*
X188874188Y-118664482D01*
X188910498Y-118784180D01*
X188969463Y-118894494D01*
X189048815Y-118991185D01*
X189145506Y-119070537D01*
X189255820Y-119129502D01*
X189375518Y-119165812D01*
X189500000Y-119178072D01*
X192500000Y-119178072D01*
X192624482Y-119165812D01*
X192744180Y-119129502D01*
X192854494Y-119070537D01*
X192951185Y-118991185D01*
X193030537Y-118894494D01*
X193089502Y-118784180D01*
X193125812Y-118664482D01*
X193138072Y-118540000D01*
X193138072Y-116088967D01*
X206115000Y-116088967D01*
X206115000Y-116411033D01*
X206177832Y-116726912D01*
X206301082Y-117024463D01*
X206480013Y-117292252D01*
X206707748Y-117519987D01*
X206975537Y-117698918D01*
X207273088Y-117822168D01*
X207588967Y-117885000D01*
X207911033Y-117885000D01*
X208226912Y-117822168D01*
X208524463Y-117698918D01*
X208792252Y-117519987D01*
X209019987Y-117292252D01*
X209198918Y-117024463D01*
X209322168Y-116726912D01*
X209385000Y-116411033D01*
X209385000Y-116088967D01*
X209322168Y-115773088D01*
X209198918Y-115475537D01*
X209019987Y-115207748D01*
X208792252Y-114980013D01*
X208524463Y-114801082D01*
X208226912Y-114677832D01*
X207911033Y-114615000D01*
X207588967Y-114615000D01*
X207273088Y-114677832D01*
X206975537Y-114801082D01*
X206707748Y-114980013D01*
X206480013Y-115207748D01*
X206301082Y-115475537D01*
X206177832Y-115773088D01*
X206115000Y-116088967D01*
X193138072Y-116088967D01*
X193138072Y-115540000D01*
X193125812Y-115415518D01*
X193089502Y-115295820D01*
X193030537Y-115185506D01*
X192951185Y-115088815D01*
X192854494Y-115009463D01*
X192744180Y-114950498D01*
X192624482Y-114914188D01*
X192500000Y-114901928D01*
X189500000Y-114901928D01*
X189375518Y-114914188D01*
X189255820Y-114950498D01*
X189145506Y-115009463D01*
X189048815Y-115088815D01*
X188969463Y-115185506D01*
X188910498Y-115295820D01*
X188874188Y-115415518D01*
X188861928Y-115540000D01*
X174410000Y-115540000D01*
X174410000Y-109789721D01*
X188865000Y-109789721D01*
X188865000Y-110210279D01*
X188947047Y-110622756D01*
X189107988Y-111011302D01*
X189341637Y-111360983D01*
X189639017Y-111658363D01*
X189988698Y-111892012D01*
X190377244Y-112052953D01*
X190789721Y-112135000D01*
X191210279Y-112135000D01*
X191622756Y-112052953D01*
X192011302Y-111892012D01*
X192360983Y-111658363D01*
X192658363Y-111360983D01*
X192892012Y-111011302D01*
X193052953Y-110622756D01*
X193135000Y-110210279D01*
X193135000Y-109789721D01*
X193052953Y-109377244D01*
X192892012Y-108988698D01*
X192777155Y-108816801D01*
X199092740Y-108816801D01*
X199093640Y-108825972D01*
X199114041Y-109020069D01*
X199126068Y-109078658D01*
X199137277Y-109137423D01*
X199139941Y-109146245D01*
X199197653Y-109332683D01*
X199220838Y-109387838D01*
X199243242Y-109443291D01*
X199247568Y-109451427D01*
X199340393Y-109623104D01*
X199373846Y-109672699D01*
X199406600Y-109722753D01*
X199412424Y-109729894D01*
X199536828Y-109880272D01*
X199579263Y-109922411D01*
X199621126Y-109965161D01*
X199628227Y-109971034D01*
X199779469Y-110094384D01*
X199829277Y-110127477D01*
X199878651Y-110161284D01*
X199886757Y-110165667D01*
X200059080Y-110257292D01*
X200114392Y-110280090D01*
X200169366Y-110303652D01*
X200178169Y-110306377D01*
X200365006Y-110362786D01*
X200423686Y-110374405D01*
X200482196Y-110386842D01*
X200491361Y-110387805D01*
X200685594Y-110406850D01*
X200685598Y-110406850D01*
X200717581Y-110410000D01*
X216467721Y-110410000D01*
X216565424Y-110419580D01*
X216628356Y-110438580D01*
X216686405Y-110469445D01*
X216737343Y-110510989D01*
X216779248Y-110561644D01*
X216810515Y-110619471D01*
X216829956Y-110682272D01*
X216840000Y-110777835D01*
X216840001Y-124532419D01*
X216843247Y-124565377D01*
X216843247Y-124578367D01*
X216844210Y-124587532D01*
X216865965Y-124781481D01*
X216878397Y-124839966D01*
X216890022Y-124898676D01*
X216892747Y-124907479D01*
X216951760Y-125093509D01*
X216975338Y-125148519D01*
X216998120Y-125203794D01*
X217002503Y-125211900D01*
X217096525Y-125382925D01*
X217130308Y-125432264D01*
X217163423Y-125482106D01*
X217169297Y-125489206D01*
X217294747Y-125638712D01*
X217337477Y-125680557D01*
X217379638Y-125723013D01*
X217386780Y-125728837D01*
X217538879Y-125851128D01*
X217588941Y-125883887D01*
X217638523Y-125917331D01*
X217646660Y-125921657D01*
X217646663Y-125921659D01*
X217646667Y-125921660D01*
X217819615Y-126012077D01*
X217875053Y-126034475D01*
X217930228Y-126057669D01*
X217939050Y-126060332D01*
X218126275Y-126115435D01*
X218184983Y-126126633D01*
X218243628Y-126138672D01*
X218252799Y-126139570D01*
X218447161Y-126157259D01*
X218506943Y-126156842D01*
X218566801Y-126157260D01*
X218575972Y-126156360D01*
X218770069Y-126135959D01*
X218828658Y-126123932D01*
X218887423Y-126112723D01*
X218896245Y-126110059D01*
X219082683Y-126052347D01*
X219137838Y-126029162D01*
X219193291Y-126006758D01*
X219201427Y-126002432D01*
X219373104Y-125909607D01*
X219422699Y-125876154D01*
X219472753Y-125843400D01*
X219479894Y-125837576D01*
X219630272Y-125713172D01*
X219672411Y-125670737D01*
X219715161Y-125628874D01*
X219721034Y-125621773D01*
X219844384Y-125470531D01*
X219877477Y-125420723D01*
X219911284Y-125371349D01*
X219915667Y-125363243D01*
X220007292Y-125190920D01*
X220030090Y-125135608D01*
X220053652Y-125080634D01*
X220056377Y-125071831D01*
X220112786Y-124884994D01*
X220124405Y-124826314D01*
X220136842Y-124767804D01*
X220137805Y-124758639D01*
X220156850Y-124564406D01*
X220156850Y-124564402D01*
X220160000Y-124532419D01*
X220160000Y-121088967D01*
X233615000Y-121088967D01*
X233615000Y-121411033D01*
X233677832Y-121726912D01*
X233801082Y-122024463D01*
X233980013Y-122292252D01*
X234207748Y-122519987D01*
X234475537Y-122698918D01*
X234773088Y-122822168D01*
X235088967Y-122885000D01*
X235411033Y-122885000D01*
X235726912Y-122822168D01*
X236024463Y-122698918D01*
X236292252Y-122519987D01*
X236519987Y-122292252D01*
X236698918Y-122024463D01*
X236822168Y-121726912D01*
X236885000Y-121411033D01*
X236885000Y-121088967D01*
X236822168Y-120773088D01*
X236698918Y-120475537D01*
X236519987Y-120207748D01*
X236292252Y-119980013D01*
X236024463Y-119801082D01*
X235726912Y-119677832D01*
X235411033Y-119615000D01*
X235088967Y-119615000D01*
X234773088Y-119677832D01*
X234475537Y-119801082D01*
X234207748Y-119980013D01*
X233980013Y-120207748D01*
X233801082Y-120475537D01*
X233677832Y-120773088D01*
X233615000Y-121088967D01*
X220160000Y-121088967D01*
X220160000Y-109200000D01*
X226305881Y-109200000D01*
X226342275Y-109569524D01*
X226450062Y-109924848D01*
X226625098Y-110252317D01*
X226801628Y-110467420D01*
X226801631Y-110467423D01*
X226860656Y-110539345D01*
X226932578Y-110598370D01*
X228601631Y-112267423D01*
X228660656Y-112339345D01*
X228732578Y-112398370D01*
X229851628Y-113517420D01*
X233982579Y-117648372D01*
X234197682Y-117824902D01*
X234525151Y-117999938D01*
X234880475Y-118107724D01*
X235249999Y-118144119D01*
X235619523Y-118107724D01*
X235974848Y-117999938D01*
X236302316Y-117824902D01*
X236589344Y-117589344D01*
X236824902Y-117302316D01*
X236999938Y-116974848D01*
X237107724Y-116619523D01*
X237144119Y-116249999D01*
X237107724Y-115880475D01*
X236999938Y-115525151D01*
X236824902Y-115197682D01*
X236648372Y-114982579D01*
X232754760Y-111088967D01*
X233615000Y-111088967D01*
X233615000Y-111411033D01*
X233677832Y-111726912D01*
X233801082Y-112024463D01*
X233980013Y-112292252D01*
X234207748Y-112519987D01*
X234475537Y-112698918D01*
X234773088Y-112822168D01*
X235088967Y-112885000D01*
X235411033Y-112885000D01*
X235726912Y-112822168D01*
X236024463Y-112698918D01*
X236292252Y-112519987D01*
X236519987Y-112292252D01*
X236698918Y-112024463D01*
X236822168Y-111726912D01*
X236885000Y-111411033D01*
X236885000Y-111088967D01*
X236822168Y-110773088D01*
X236698918Y-110475537D01*
X236519987Y-110207748D01*
X236292252Y-109980013D01*
X236024463Y-109801082D01*
X235726912Y-109677832D01*
X235411033Y-109615000D01*
X235088967Y-109615000D01*
X234773088Y-109677832D01*
X234475537Y-109801082D01*
X234207748Y-109980013D01*
X233980013Y-110207748D01*
X233801082Y-110475537D01*
X233677832Y-110773088D01*
X233615000Y-111088967D01*
X232754760Y-111088967D01*
X232517420Y-110851628D01*
X231885000Y-110219208D01*
X231885000Y-106088967D01*
X233615000Y-106088967D01*
X233615000Y-106411033D01*
X233677832Y-106726912D01*
X233801082Y-107024463D01*
X233980013Y-107292252D01*
X234207748Y-107519987D01*
X234475537Y-107698918D01*
X234773088Y-107822168D01*
X235088967Y-107885000D01*
X235411033Y-107885000D01*
X235726912Y-107822168D01*
X236024463Y-107698918D01*
X236292252Y-107519987D01*
X236519987Y-107292252D01*
X236698918Y-107024463D01*
X236822168Y-106726912D01*
X236885000Y-106411033D01*
X236885000Y-106088967D01*
X236822168Y-105773088D01*
X236698918Y-105475537D01*
X236519987Y-105207748D01*
X236292252Y-104980013D01*
X236024463Y-104801082D01*
X235726912Y-104677832D01*
X235411033Y-104615000D01*
X235088967Y-104615000D01*
X234773088Y-104677832D01*
X234475537Y-104801082D01*
X234207748Y-104980013D01*
X233980013Y-105207748D01*
X233801082Y-105475537D01*
X233677832Y-105773088D01*
X233615000Y-106088967D01*
X231885000Y-106088967D01*
X231885000Y-101088967D01*
X233615000Y-101088967D01*
X233615000Y-101411033D01*
X233677832Y-101726912D01*
X233801082Y-102024463D01*
X233980013Y-102292252D01*
X234207748Y-102519987D01*
X234475537Y-102698918D01*
X234773088Y-102822168D01*
X235088967Y-102885000D01*
X235411033Y-102885000D01*
X235726912Y-102822168D01*
X236024463Y-102698918D01*
X236292252Y-102519987D01*
X236519987Y-102292252D01*
X236698918Y-102024463D01*
X236822168Y-101726912D01*
X236885000Y-101411033D01*
X236885000Y-101088967D01*
X236822168Y-100773088D01*
X236698918Y-100475537D01*
X236519987Y-100207748D01*
X236292252Y-99980013D01*
X236024463Y-99801082D01*
X235726912Y-99677832D01*
X235411033Y-99615000D01*
X235088967Y-99615000D01*
X234773088Y-99677832D01*
X234475537Y-99801082D01*
X234207748Y-99980013D01*
X233980013Y-100207748D01*
X233801082Y-100475537D01*
X233677832Y-100773088D01*
X233615000Y-101088967D01*
X231885000Y-101088967D01*
X231885000Y-96088967D01*
X233615000Y-96088967D01*
X233615000Y-96411033D01*
X233677832Y-96726912D01*
X233801082Y-97024463D01*
X233980013Y-97292252D01*
X234207748Y-97519987D01*
X234475537Y-97698918D01*
X234773088Y-97822168D01*
X235088967Y-97885000D01*
X235411033Y-97885000D01*
X235726912Y-97822168D01*
X236024463Y-97698918D01*
X236292252Y-97519987D01*
X236519987Y-97292252D01*
X236698918Y-97024463D01*
X236822168Y-96726912D01*
X236885000Y-96411033D01*
X236885000Y-96088967D01*
X236822168Y-95773088D01*
X236698918Y-95475537D01*
X236519987Y-95207748D01*
X236292252Y-94980013D01*
X236024463Y-94801082D01*
X235726912Y-94677832D01*
X235411033Y-94615000D01*
X235088967Y-94615000D01*
X234773088Y-94677832D01*
X234475537Y-94801082D01*
X234207748Y-94980013D01*
X233980013Y-95207748D01*
X233801082Y-95475537D01*
X233677832Y-95773088D01*
X233615000Y-96088967D01*
X231885000Y-96088967D01*
X231885000Y-86680792D01*
X234967423Y-83598370D01*
X235039345Y-83539345D01*
X235274903Y-83252317D01*
X235449939Y-82924848D01*
X235557725Y-82569524D01*
X235585000Y-82292597D01*
X235585000Y-82292588D01*
X235594119Y-82200001D01*
X235585000Y-82107414D01*
X235585000Y-78507403D01*
X235557725Y-78230476D01*
X235449939Y-77875152D01*
X235438072Y-77852950D01*
X235438072Y-77500000D01*
X235425812Y-77375518D01*
X235389502Y-77255820D01*
X235330537Y-77145506D01*
X235251185Y-77048815D01*
X235154494Y-76969463D01*
X235044180Y-76910498D01*
X234924482Y-76874188D01*
X234800000Y-76861928D01*
X234447049Y-76861928D01*
X234424847Y-76850061D01*
X234069523Y-76742275D01*
X233700000Y-76705880D01*
X233330476Y-76742275D01*
X232975152Y-76850061D01*
X232952950Y-76861928D01*
X232600000Y-76861928D01*
X232475518Y-76874188D01*
X232355820Y-76910498D01*
X232245506Y-76969463D01*
X232148815Y-77048815D01*
X232069463Y-77145506D01*
X232010498Y-77255820D01*
X231974188Y-77375518D01*
X231961928Y-77500000D01*
X231961928Y-77852951D01*
X231950061Y-77875153D01*
X231842275Y-78230477D01*
X231815000Y-78507404D01*
X231815001Y-81419206D01*
X230085000Y-83149208D01*
X230085000Y-78627403D01*
X230057725Y-78350476D01*
X229949939Y-77995152D01*
X229774903Y-77667683D01*
X229539345Y-77380655D01*
X229252317Y-77145097D01*
X228924847Y-76970061D01*
X228569523Y-76862275D01*
X228200000Y-76825880D01*
X227830476Y-76862275D01*
X227475152Y-76970061D01*
X227147683Y-77145097D01*
X226860655Y-77380655D01*
X226625097Y-77667683D01*
X226450061Y-77995153D01*
X226342275Y-78350477D01*
X226315000Y-78627404D01*
X226315001Y-109107401D01*
X226305881Y-109200000D01*
X220160000Y-109200000D01*
X220160000Y-92967581D01*
X220156753Y-92934613D01*
X220156753Y-92921633D01*
X220155790Y-92912468D01*
X220134035Y-92718518D01*
X220121600Y-92660019D01*
X220109978Y-92601325D01*
X220107253Y-92592522D01*
X220048240Y-92406491D01*
X220024674Y-92351509D01*
X220001880Y-92296206D01*
X219997497Y-92288100D01*
X219903475Y-92117075D01*
X219869702Y-92067752D01*
X219836577Y-92017894D01*
X219830703Y-92010794D01*
X219705253Y-91861288D01*
X219662523Y-91819443D01*
X219620362Y-91776987D01*
X219613220Y-91771163D01*
X219461120Y-91648872D01*
X219411061Y-91616114D01*
X219361477Y-91582669D01*
X219353340Y-91578343D01*
X219353337Y-91578341D01*
X219353333Y-91578340D01*
X219180384Y-91487923D01*
X219124972Y-91465535D01*
X219069772Y-91442331D01*
X219060950Y-91439668D01*
X218873724Y-91384565D01*
X218814986Y-91373360D01*
X218756372Y-91361328D01*
X218747200Y-91360429D01*
X218552839Y-91342741D01*
X218493057Y-91343158D01*
X218433199Y-91342740D01*
X218424028Y-91343640D01*
X218229931Y-91364041D01*
X218171348Y-91376066D01*
X218112577Y-91387277D01*
X218103755Y-91389941D01*
X217917317Y-91447653D01*
X217862162Y-91470838D01*
X217806709Y-91493242D01*
X217798573Y-91497568D01*
X217626896Y-91590393D01*
X217577278Y-91623861D01*
X217527247Y-91656600D01*
X217520106Y-91662424D01*
X217369728Y-91786828D01*
X217327589Y-91829263D01*
X217284839Y-91871126D01*
X217278966Y-91878227D01*
X217155616Y-92029469D01*
X217122534Y-92079262D01*
X217088716Y-92128651D01*
X217084333Y-92136757D01*
X216992708Y-92309079D01*
X216969909Y-92364394D01*
X216946348Y-92419366D01*
X216943623Y-92428169D01*
X216887214Y-92615005D01*
X216875594Y-92673693D01*
X216863158Y-92732196D01*
X216862195Y-92741361D01*
X216843150Y-92935595D01*
X216843150Y-92935608D01*
X216840001Y-92967581D01*
X216840000Y-106717721D01*
X216830420Y-106815424D01*
X216811420Y-106878357D01*
X216780554Y-106936406D01*
X216739011Y-106987343D01*
X216688356Y-107029248D01*
X216630529Y-107060515D01*
X216567728Y-107079956D01*
X216472165Y-107090000D01*
X200717581Y-107090000D01*
X200684613Y-107093247D01*
X200671633Y-107093247D01*
X200662468Y-107094210D01*
X200468518Y-107115965D01*
X200410019Y-107128400D01*
X200351325Y-107140022D01*
X200342522Y-107142747D01*
X200156491Y-107201760D01*
X200101509Y-107225326D01*
X200046206Y-107248120D01*
X200038100Y-107252503D01*
X199867075Y-107346525D01*
X199817752Y-107380298D01*
X199767894Y-107413423D01*
X199760794Y-107419297D01*
X199611288Y-107544747D01*
X199569443Y-107587477D01*
X199526987Y-107629638D01*
X199521163Y-107636780D01*
X199398872Y-107788880D01*
X199366114Y-107838939D01*
X199332669Y-107888523D01*
X199328343Y-107896660D01*
X199237923Y-108069616D01*
X199215535Y-108125028D01*
X199192331Y-108180228D01*
X199189668Y-108189050D01*
X199134565Y-108376276D01*
X199123360Y-108435014D01*
X199111328Y-108493628D01*
X199110429Y-108502800D01*
X199092741Y-108697161D01*
X199093158Y-108756943D01*
X199092740Y-108816801D01*
X192777155Y-108816801D01*
X192658363Y-108639017D01*
X192360983Y-108341637D01*
X192011302Y-108107988D01*
X191622756Y-107947047D01*
X191210279Y-107865000D01*
X190789721Y-107865000D01*
X190377244Y-107947047D01*
X189988698Y-108107988D01*
X189639017Y-108341637D01*
X189341637Y-108639017D01*
X189107988Y-108988698D01*
X188947047Y-109377244D01*
X188865000Y-109789721D01*
X174410000Y-109789721D01*
X174410000Y-101088967D01*
X206115000Y-101088967D01*
X206115000Y-101411033D01*
X206177832Y-101726912D01*
X206301082Y-102024463D01*
X206480013Y-102292252D01*
X206707748Y-102519987D01*
X206975537Y-102698918D01*
X207273088Y-102822168D01*
X207588967Y-102885000D01*
X207911033Y-102885000D01*
X208226912Y-102822168D01*
X208524463Y-102698918D01*
X208792252Y-102519987D01*
X209019987Y-102292252D01*
X209198918Y-102024463D01*
X209322168Y-101726912D01*
X209385000Y-101411033D01*
X209385000Y-101088967D01*
X209322168Y-100773088D01*
X209198918Y-100475537D01*
X209019987Y-100207748D01*
X208792252Y-99980013D01*
X208524463Y-99801082D01*
X208226912Y-99677832D01*
X207911033Y-99615000D01*
X207588967Y-99615000D01*
X207273088Y-99677832D01*
X206975537Y-99801082D01*
X206707748Y-99980013D01*
X206480013Y-100207748D01*
X206301082Y-100475537D01*
X206177832Y-100773088D01*
X206115000Y-101088967D01*
X174410000Y-101088967D01*
X174410000Y-98554495D01*
X189015000Y-98554495D01*
X189015000Y-98945505D01*
X189091282Y-99329003D01*
X189240915Y-99690250D01*
X189458149Y-100015364D01*
X189734636Y-100291851D01*
X190059750Y-100509085D01*
X190420997Y-100658718D01*
X190804495Y-100735000D01*
X191195505Y-100735000D01*
X191579003Y-100658718D01*
X191940250Y-100509085D01*
X192265364Y-100291851D01*
X192541851Y-100015364D01*
X192759085Y-99690250D01*
X192908718Y-99329003D01*
X192985000Y-98945505D01*
X192985000Y-98554495D01*
X192908718Y-98170997D01*
X192759085Y-97809750D01*
X192541851Y-97484636D01*
X192265364Y-97208149D01*
X191940250Y-96990915D01*
X191579003Y-96841282D01*
X191195505Y-96765000D01*
X190804495Y-96765000D01*
X190420997Y-96841282D01*
X190059750Y-96990915D01*
X189734636Y-97208149D01*
X189458149Y-97484636D01*
X189240915Y-97809750D01*
X189091282Y-98170997D01*
X189015000Y-98554495D01*
X174410000Y-98554495D01*
X174410000Y-95250000D01*
X206111928Y-95250000D01*
X206111928Y-97250000D01*
X206124188Y-97374482D01*
X206160498Y-97494180D01*
X206219463Y-97604494D01*
X206298815Y-97701185D01*
X206395506Y-97780537D01*
X206505820Y-97839502D01*
X206625518Y-97875812D01*
X206750000Y-97888072D01*
X208750000Y-97888072D01*
X208874482Y-97875812D01*
X208994180Y-97839502D01*
X209104494Y-97780537D01*
X209201185Y-97701185D01*
X209280537Y-97604494D01*
X209339502Y-97494180D01*
X209375812Y-97374482D01*
X209388072Y-97250000D01*
X209388072Y-95250000D01*
X209375812Y-95125518D01*
X209339502Y-95005820D01*
X209280537Y-94895506D01*
X209201185Y-94798815D01*
X209104494Y-94719463D01*
X208994180Y-94660498D01*
X208874482Y-94624188D01*
X208750000Y-94611928D01*
X206750000Y-94611928D01*
X206625518Y-94624188D01*
X206505820Y-94660498D01*
X206395506Y-94719463D01*
X206298815Y-94798815D01*
X206219463Y-94895506D01*
X206160498Y-95005820D01*
X206124188Y-95125518D01*
X206111928Y-95250000D01*
X174410000Y-95250000D01*
X174410000Y-87289721D01*
X188865000Y-87289721D01*
X188865000Y-87710279D01*
X188947047Y-88122756D01*
X189107988Y-88511302D01*
X189341637Y-88860983D01*
X189639017Y-89158363D01*
X189988698Y-89392012D01*
X190377244Y-89552953D01*
X190789721Y-89635000D01*
X191210279Y-89635000D01*
X191622756Y-89552953D01*
X192011302Y-89392012D01*
X192360983Y-89158363D01*
X192658363Y-88860983D01*
X192892012Y-88511302D01*
X193052953Y-88122756D01*
X193135000Y-87710279D01*
X193135000Y-87289721D01*
X193052953Y-86877244D01*
X192892012Y-86488698D01*
X192658363Y-86139017D01*
X192360983Y-85841637D01*
X192011302Y-85607988D01*
X191622756Y-85447047D01*
X191210279Y-85365000D01*
X190789721Y-85365000D01*
X190377244Y-85447047D01*
X189988698Y-85607988D01*
X189639017Y-85841637D01*
X189341637Y-86139017D01*
X189107988Y-86488698D01*
X188947047Y-86877244D01*
X188865000Y-87289721D01*
X174410000Y-87289721D01*
X174410000Y-78549117D01*
X214465000Y-78549117D01*
X214465000Y-78890883D01*
X214531675Y-79226081D01*
X214662463Y-79541831D01*
X214852337Y-79825998D01*
X215094002Y-80067663D01*
X215378169Y-80257537D01*
X215693919Y-80388325D01*
X216029117Y-80455000D01*
X216370883Y-80455000D01*
X216706081Y-80388325D01*
X217021831Y-80257537D01*
X217305998Y-80067663D01*
X217547663Y-79825998D01*
X217737537Y-79541831D01*
X217868325Y-79226081D01*
X217935000Y-78890883D01*
X217935000Y-78549117D01*
X217868325Y-78213919D01*
X217737537Y-77898169D01*
X217547663Y-77614002D01*
X217433661Y-77500000D01*
X220461928Y-77500000D01*
X220461928Y-79700000D01*
X220474188Y-79824482D01*
X220510498Y-79944180D01*
X220569463Y-80054494D01*
X220648815Y-80151185D01*
X220745506Y-80230537D01*
X220855820Y-80289502D01*
X220975518Y-80325812D01*
X221100000Y-80338072D01*
X223300000Y-80338072D01*
X223424482Y-80325812D01*
X223544180Y-80289502D01*
X223654494Y-80230537D01*
X223751185Y-80151185D01*
X223830537Y-80054494D01*
X223889502Y-79944180D01*
X223925812Y-79824482D01*
X223938072Y-79700000D01*
X223938072Y-77500000D01*
X223925812Y-77375518D01*
X223889502Y-77255820D01*
X223830537Y-77145506D01*
X223751185Y-77048815D01*
X223654494Y-76969463D01*
X223544180Y-76910498D01*
X223424482Y-76874188D01*
X223300000Y-76861928D01*
X221100000Y-76861928D01*
X220975518Y-76874188D01*
X220855820Y-76910498D01*
X220745506Y-76969463D01*
X220648815Y-77048815D01*
X220569463Y-77145506D01*
X220510498Y-77255820D01*
X220474188Y-77375518D01*
X220461928Y-77500000D01*
X217433661Y-77500000D01*
X217305998Y-77372337D01*
X217021831Y-77182463D01*
X216706081Y-77051675D01*
X216370883Y-76985000D01*
X216029117Y-76985000D01*
X215693919Y-77051675D01*
X215378169Y-77182463D01*
X215094002Y-77372337D01*
X214852337Y-77614002D01*
X214662463Y-77898169D01*
X214531675Y-78213919D01*
X214465000Y-78549117D01*
X174410000Y-78549117D01*
X174410000Y-76635413D01*
X186044192Y-76635413D01*
X186139956Y-76899814D01*
X186429571Y-77040704D01*
X186741108Y-77122384D01*
X187062595Y-77141718D01*
X187381675Y-77097961D01*
X187686088Y-76992795D01*
X187860044Y-76899814D01*
X187955808Y-76635413D01*
X198294192Y-76635413D01*
X198389956Y-76899814D01*
X198679571Y-77040704D01*
X198991108Y-77122384D01*
X199312595Y-77141718D01*
X199631675Y-77097961D01*
X199936088Y-76992795D01*
X200110044Y-76899814D01*
X200205808Y-76635413D01*
X199250000Y-75679605D01*
X198294192Y-76635413D01*
X187955808Y-76635413D01*
X187000000Y-75679605D01*
X186044192Y-76635413D01*
X174410000Y-76635413D01*
X174410000Y-75562595D01*
X185358282Y-75562595D01*
X185402039Y-75881675D01*
X185507205Y-76186088D01*
X185600186Y-76360044D01*
X185864587Y-76455808D01*
X186820395Y-75500000D01*
X187179605Y-75500000D01*
X188135413Y-76455808D01*
X188399814Y-76360044D01*
X188540704Y-76070429D01*
X188622384Y-75758892D01*
X188634189Y-75562595D01*
X197608282Y-75562595D01*
X197652039Y-75881675D01*
X197757205Y-76186088D01*
X197850186Y-76360044D01*
X198114587Y-76455808D01*
X199070395Y-75500000D01*
X199429605Y-75500000D01*
X200385413Y-76455808D01*
X200649814Y-76360044D01*
X200790704Y-76070429D01*
X200872384Y-75758892D01*
X200891718Y-75437405D01*
X200847961Y-75118325D01*
X200742795Y-74813912D01*
X200649814Y-74639956D01*
X200385413Y-74544192D01*
X199429605Y-75500000D01*
X199070395Y-75500000D01*
X198114587Y-74544192D01*
X197850186Y-74639956D01*
X197709296Y-74929571D01*
X197627616Y-75241108D01*
X197608282Y-75562595D01*
X188634189Y-75562595D01*
X188641718Y-75437405D01*
X188597961Y-75118325D01*
X188492795Y-74813912D01*
X188399814Y-74639956D01*
X188135413Y-74544192D01*
X187179605Y-75500000D01*
X186820395Y-75500000D01*
X185864587Y-74544192D01*
X185600186Y-74639956D01*
X185459296Y-74929571D01*
X185377616Y-75241108D01*
X185358282Y-75562595D01*
X174410000Y-75562595D01*
X174410000Y-74364587D01*
X186044192Y-74364587D01*
X187000000Y-75320395D01*
X187955808Y-74364587D01*
X198294192Y-74364587D01*
X199250000Y-75320395D01*
X200205808Y-74364587D01*
X200110044Y-74100186D01*
X199820429Y-73959296D01*
X199508892Y-73877616D01*
X199187405Y-73858282D01*
X198868325Y-73902039D01*
X198563912Y-74007205D01*
X198389956Y-74100186D01*
X198294192Y-74364587D01*
X187955808Y-74364587D01*
X187860044Y-74100186D01*
X187570429Y-73959296D01*
X187258892Y-73877616D01*
X186937405Y-73858282D01*
X186618325Y-73902039D01*
X186313912Y-74007205D01*
X186139956Y-74100186D01*
X186044192Y-74364587D01*
X174410000Y-74364587D01*
X174410000Y-69500000D01*
X185361928Y-69500000D01*
X185361928Y-71500000D01*
X185374188Y-71624482D01*
X185410498Y-71744180D01*
X185469463Y-71854494D01*
X185548815Y-71951185D01*
X185645506Y-72030537D01*
X185755820Y-72089502D01*
X185875518Y-72125812D01*
X186000000Y-72138072D01*
X188000000Y-72138072D01*
X188124482Y-72125812D01*
X188244180Y-72089502D01*
X188354494Y-72030537D01*
X188451185Y-71951185D01*
X188530537Y-71854494D01*
X188589502Y-71744180D01*
X188625812Y-71624482D01*
X188638072Y-71500000D01*
X188638072Y-69500000D01*
X197611928Y-69500000D01*
X197611928Y-71500000D01*
X197624188Y-71624482D01*
X197660498Y-71744180D01*
X197719463Y-71854494D01*
X197798815Y-71951185D01*
X197895506Y-72030537D01*
X198005820Y-72089502D01*
X198125518Y-72125812D01*
X198250000Y-72138072D01*
X200250000Y-72138072D01*
X200374482Y-72125812D01*
X200494180Y-72089502D01*
X200604494Y-72030537D01*
X200701185Y-71951185D01*
X200780537Y-71854494D01*
X200839502Y-71744180D01*
X200875812Y-71624482D01*
X200888072Y-71500000D01*
X200888072Y-70000000D01*
X214461928Y-70000000D01*
X214461928Y-72200000D01*
X214474188Y-72324482D01*
X214510498Y-72444180D01*
X214569463Y-72554494D01*
X214648815Y-72651185D01*
X214745506Y-72730537D01*
X214855820Y-72789502D01*
X214975518Y-72825812D01*
X215100000Y-72838072D01*
X217300000Y-72838072D01*
X217424482Y-72825812D01*
X217544180Y-72789502D01*
X217654494Y-72730537D01*
X217751185Y-72651185D01*
X217830537Y-72554494D01*
X217889502Y-72444180D01*
X217925812Y-72324482D01*
X217938072Y-72200000D01*
X217938072Y-71376123D01*
X220510821Y-71376123D01*
X220620558Y-71698054D01*
X220790992Y-71992391D01*
X221015573Y-72247822D01*
X221285671Y-72454531D01*
X221590906Y-72604575D01*
X221803878Y-72669175D01*
X222073000Y-72551125D01*
X222073000Y-71107000D01*
X222327000Y-71107000D01*
X222327000Y-72551125D01*
X222596122Y-72669175D01*
X222809094Y-72604575D01*
X223114329Y-72454531D01*
X223384427Y-72247822D01*
X223609008Y-71992391D01*
X223779442Y-71698054D01*
X223889179Y-71376123D01*
X223771600Y-71107000D01*
X222327000Y-71107000D01*
X222073000Y-71107000D01*
X220628400Y-71107000D01*
X220510821Y-71376123D01*
X217938072Y-71376123D01*
X217938072Y-70583877D01*
X220510821Y-70583877D01*
X220628400Y-70853000D01*
X222073000Y-70853000D01*
X222073000Y-69408875D01*
X222327000Y-69408875D01*
X222327000Y-70853000D01*
X223771600Y-70853000D01*
X223889179Y-70583877D01*
X223779442Y-70261946D01*
X223627764Y-70000000D01*
X226461928Y-70000000D01*
X226461928Y-72200000D01*
X226474188Y-72324482D01*
X226510498Y-72444180D01*
X226569463Y-72554494D01*
X226648815Y-72651185D01*
X226745506Y-72730537D01*
X226855820Y-72789502D01*
X226975518Y-72825812D01*
X227100000Y-72838072D01*
X229300000Y-72838072D01*
X229424482Y-72825812D01*
X229544180Y-72789502D01*
X229654494Y-72730537D01*
X229751185Y-72651185D01*
X229830537Y-72554494D01*
X229889502Y-72444180D01*
X229925812Y-72324482D01*
X229938072Y-72200000D01*
X229938072Y-71376123D01*
X232010821Y-71376123D01*
X232120558Y-71698054D01*
X232290992Y-71992391D01*
X232515573Y-72247822D01*
X232785671Y-72454531D01*
X233090906Y-72604575D01*
X233303878Y-72669175D01*
X233573000Y-72551125D01*
X233573000Y-71107000D01*
X233827000Y-71107000D01*
X233827000Y-72551125D01*
X234096122Y-72669175D01*
X234309094Y-72604575D01*
X234614329Y-72454531D01*
X234884427Y-72247822D01*
X235109008Y-71992391D01*
X235279442Y-71698054D01*
X235389179Y-71376123D01*
X235271600Y-71107000D01*
X233827000Y-71107000D01*
X233573000Y-71107000D01*
X232128400Y-71107000D01*
X232010821Y-71376123D01*
X229938072Y-71376123D01*
X229938072Y-70583877D01*
X232010821Y-70583877D01*
X232128400Y-70853000D01*
X233573000Y-70853000D01*
X233573000Y-69408875D01*
X233827000Y-69408875D01*
X233827000Y-70853000D01*
X235271600Y-70853000D01*
X235389179Y-70583877D01*
X235279442Y-70261946D01*
X235109008Y-69967609D01*
X234884427Y-69712178D01*
X234614329Y-69505469D01*
X234309094Y-69355425D01*
X234096122Y-69290825D01*
X233827000Y-69408875D01*
X233573000Y-69408875D01*
X233303878Y-69290825D01*
X233090906Y-69355425D01*
X232785671Y-69505469D01*
X232515573Y-69712178D01*
X232290992Y-69967609D01*
X232120558Y-70261946D01*
X232010821Y-70583877D01*
X229938072Y-70583877D01*
X229938072Y-70000000D01*
X229925812Y-69875518D01*
X229889502Y-69755820D01*
X229830537Y-69645506D01*
X229751185Y-69548815D01*
X229654494Y-69469463D01*
X229544180Y-69410498D01*
X229424482Y-69374188D01*
X229300000Y-69361928D01*
X227100000Y-69361928D01*
X226975518Y-69374188D01*
X226855820Y-69410498D01*
X226745506Y-69469463D01*
X226648815Y-69548815D01*
X226569463Y-69645506D01*
X226510498Y-69755820D01*
X226474188Y-69875518D01*
X226461928Y-70000000D01*
X223627764Y-70000000D01*
X223609008Y-69967609D01*
X223384427Y-69712178D01*
X223114329Y-69505469D01*
X222809094Y-69355425D01*
X222596122Y-69290825D01*
X222327000Y-69408875D01*
X222073000Y-69408875D01*
X221803878Y-69290825D01*
X221590906Y-69355425D01*
X221285671Y-69505469D01*
X221015573Y-69712178D01*
X220790992Y-69967609D01*
X220620558Y-70261946D01*
X220510821Y-70583877D01*
X217938072Y-70583877D01*
X217938072Y-70000000D01*
X217925812Y-69875518D01*
X217889502Y-69755820D01*
X217830537Y-69645506D01*
X217751185Y-69548815D01*
X217654494Y-69469463D01*
X217544180Y-69410498D01*
X217424482Y-69374188D01*
X217300000Y-69361928D01*
X215100000Y-69361928D01*
X214975518Y-69374188D01*
X214855820Y-69410498D01*
X214745506Y-69469463D01*
X214648815Y-69548815D01*
X214569463Y-69645506D01*
X214510498Y-69755820D01*
X214474188Y-69875518D01*
X214461928Y-70000000D01*
X200888072Y-70000000D01*
X200888072Y-69500000D01*
X200875812Y-69375518D01*
X200839502Y-69255820D01*
X200780537Y-69145506D01*
X200701185Y-69048815D01*
X200604494Y-68969463D01*
X200494180Y-68910498D01*
X200374482Y-68874188D01*
X200250000Y-68861928D01*
X198250000Y-68861928D01*
X198125518Y-68874188D01*
X198005820Y-68910498D01*
X197895506Y-68969463D01*
X197798815Y-69048815D01*
X197719463Y-69145506D01*
X197660498Y-69255820D01*
X197624188Y-69375518D01*
X197611928Y-69500000D01*
X188638072Y-69500000D01*
X188625812Y-69375518D01*
X188589502Y-69255820D01*
X188530537Y-69145506D01*
X188451185Y-69048815D01*
X188354494Y-68969463D01*
X188244180Y-68910498D01*
X188124482Y-68874188D01*
X188000000Y-68861928D01*
X186000000Y-68861928D01*
X185875518Y-68874188D01*
X185755820Y-68910498D01*
X185645506Y-68969463D01*
X185548815Y-69048815D01*
X185469463Y-69145506D01*
X185410498Y-69255820D01*
X185374188Y-69375518D01*
X185361928Y-69500000D01*
X174410000Y-69500000D01*
X174410000Y-65460000D01*
X182361928Y-65460000D01*
X182374188Y-65584482D01*
X182410498Y-65704180D01*
X182469463Y-65814494D01*
X182548815Y-65911185D01*
X182645506Y-65990537D01*
X182755820Y-66049502D01*
X182875518Y-66085812D01*
X183000000Y-66098072D01*
X184214250Y-66095000D01*
X184373000Y-65936250D01*
X184373000Y-64087000D01*
X184627000Y-64087000D01*
X184627000Y-65936250D01*
X184785750Y-66095000D01*
X186000000Y-66098072D01*
X186124482Y-66085812D01*
X186244180Y-66049502D01*
X186354494Y-65990537D01*
X186451185Y-65911185D01*
X186530537Y-65814494D01*
X186589502Y-65704180D01*
X186625812Y-65584482D01*
X186638072Y-65460000D01*
X186635000Y-64245750D01*
X186476250Y-64087000D01*
X184627000Y-64087000D01*
X184373000Y-64087000D01*
X182523750Y-64087000D01*
X182365000Y-64245750D01*
X182361928Y-65460000D01*
X174410000Y-65460000D01*
X174410000Y-62460000D01*
X182361928Y-62460000D01*
X182365000Y-63674250D01*
X182523750Y-63833000D01*
X184373000Y-63833000D01*
X184373000Y-61983750D01*
X184627000Y-61983750D01*
X184627000Y-63833000D01*
X186476250Y-63833000D01*
X186635000Y-63674250D01*
X186638072Y-62460000D01*
X186625812Y-62335518D01*
X186589502Y-62215820D01*
X186530537Y-62105506D01*
X186451185Y-62008815D01*
X186354494Y-61929463D01*
X186244180Y-61870498D01*
X186124482Y-61834188D01*
X186000000Y-61821928D01*
X184785750Y-61825000D01*
X184627000Y-61983750D01*
X184373000Y-61983750D01*
X184214250Y-61825000D01*
X183000000Y-61821928D01*
X182875518Y-61834188D01*
X182755820Y-61870498D01*
X182645506Y-61929463D01*
X182548815Y-62008815D01*
X182469463Y-62105506D01*
X182410498Y-62215820D01*
X182374188Y-62335518D01*
X182361928Y-62460000D01*
X174410000Y-62460000D01*
X174410000Y-59641984D01*
X208415000Y-59641984D01*
X208415000Y-60358016D01*
X208554691Y-61060290D01*
X208828705Y-61721818D01*
X209226511Y-62317177D01*
X209732823Y-62823489D01*
X210328182Y-63221295D01*
X210989710Y-63495309D01*
X211691984Y-63635000D01*
X212408016Y-63635000D01*
X213110290Y-63495309D01*
X213461096Y-63350000D01*
X220659428Y-63350000D01*
X220659428Y-65350000D01*
X220671688Y-65474482D01*
X220707998Y-65594180D01*
X220766963Y-65704494D01*
X220846315Y-65801185D01*
X220943006Y-65880537D01*
X221053320Y-65939502D01*
X221173018Y-65975812D01*
X221297500Y-65988072D01*
X223202500Y-65988072D01*
X223326982Y-65975812D01*
X223446680Y-65939502D01*
X223556994Y-65880537D01*
X223653685Y-65801185D01*
X223733037Y-65704494D01*
X223782059Y-65612781D01*
X223923077Y-65725969D01*
X224198906Y-65869571D01*
X224417020Y-65940563D01*
X224663000Y-65820594D01*
X224663000Y-64477000D01*
X224643000Y-64477000D01*
X224643000Y-64223000D01*
X224663000Y-64223000D01*
X224663000Y-62879406D01*
X224917000Y-62879406D01*
X224917000Y-64223000D01*
X224937000Y-64223000D01*
X224937000Y-64477000D01*
X224917000Y-64477000D01*
X224917000Y-65820594D01*
X225162980Y-65940563D01*
X225381094Y-65869571D01*
X225656923Y-65725969D01*
X225899437Y-65531315D01*
X226054837Y-65346101D01*
X226202037Y-65525463D01*
X226443766Y-65723845D01*
X226719552Y-65871255D01*
X227018797Y-65962030D01*
X227330000Y-65992681D01*
X227641204Y-65962030D01*
X227940449Y-65871255D01*
X228216235Y-65723845D01*
X228457963Y-65525463D01*
X228656345Y-65283734D01*
X228803755Y-65007948D01*
X228894530Y-64708703D01*
X228917500Y-64475485D01*
X228917500Y-64224514D01*
X228894530Y-63991296D01*
X228803755Y-63692051D01*
X228656345Y-63416265D01*
X228457963Y-63174537D01*
X228216234Y-62976155D01*
X227940448Y-62828745D01*
X227641203Y-62737970D01*
X227330000Y-62707319D01*
X227018796Y-62737970D01*
X226719551Y-62828745D01*
X226443765Y-62976155D01*
X226202037Y-63174537D01*
X226054838Y-63353900D01*
X225899437Y-63168685D01*
X225656923Y-62974031D01*
X225381094Y-62830429D01*
X225162980Y-62759437D01*
X224917000Y-62879406D01*
X224663000Y-62879406D01*
X224417020Y-62759437D01*
X224198906Y-62830429D01*
X223923077Y-62974031D01*
X223782059Y-63087219D01*
X223733037Y-62995506D01*
X223653685Y-62898815D01*
X223556994Y-62819463D01*
X223446680Y-62760498D01*
X223326982Y-62724188D01*
X223202500Y-62711928D01*
X221297500Y-62711928D01*
X221173018Y-62724188D01*
X221053320Y-62760498D01*
X220943006Y-62819463D01*
X220846315Y-62898815D01*
X220766963Y-62995506D01*
X220707998Y-63105820D01*
X220671688Y-63225518D01*
X220659428Y-63350000D01*
X213461096Y-63350000D01*
X213771818Y-63221295D01*
X214367177Y-62823489D01*
X214873489Y-62317177D01*
X215271295Y-61721818D01*
X215545309Y-61060290D01*
X215685000Y-60358016D01*
X215685000Y-59641984D01*
X233815000Y-59641984D01*
X233815000Y-60358016D01*
X233954691Y-61060290D01*
X234228705Y-61721818D01*
X234626511Y-62317177D01*
X235132823Y-62823489D01*
X235728182Y-63221295D01*
X236389710Y-63495309D01*
X237091984Y-63635000D01*
X237808016Y-63635000D01*
X238510290Y-63495309D01*
X239171818Y-63221295D01*
X239767177Y-62823489D01*
X240273489Y-62317177D01*
X240671295Y-61721818D01*
X240945309Y-61060290D01*
X241085000Y-60358016D01*
X241085000Y-59641984D01*
X240945309Y-58939710D01*
X240671295Y-58278182D01*
X240273489Y-57682823D01*
X239767177Y-57176511D01*
X239171818Y-56778705D01*
X238510290Y-56504691D01*
X237808016Y-56365000D01*
X237091984Y-56365000D01*
X236389710Y-56504691D01*
X235728182Y-56778705D01*
X235132823Y-57176511D01*
X234626511Y-57682823D01*
X234228705Y-58278182D01*
X233954691Y-58939710D01*
X233815000Y-59641984D01*
X215685000Y-59641984D01*
X215545309Y-58939710D01*
X215271295Y-58278182D01*
X214873489Y-57682823D01*
X214367177Y-57176511D01*
X213771818Y-56778705D01*
X213110290Y-56504691D01*
X212408016Y-56365000D01*
X211691984Y-56365000D01*
X210989710Y-56504691D01*
X210328182Y-56778705D01*
X209732823Y-57176511D01*
X209226511Y-57682823D01*
X208828705Y-58278182D01*
X208554691Y-58939710D01*
X208415000Y-59641984D01*
X174410000Y-59641984D01*
X174410000Y-58992702D01*
X197436903Y-58992702D01*
X197508486Y-59236671D01*
X197763996Y-59357571D01*
X198038184Y-59426300D01*
X198320512Y-59440217D01*
X198600130Y-59398787D01*
X198866292Y-59303603D01*
X198991514Y-59236671D01*
X199063097Y-58992702D01*
X198250000Y-58179605D01*
X197436903Y-58992702D01*
X174410000Y-58992702D01*
X174410000Y-54540000D01*
X182361928Y-54540000D01*
X182361928Y-57540000D01*
X182374188Y-57664482D01*
X182410498Y-57784180D01*
X182469463Y-57894494D01*
X182548815Y-57991185D01*
X182645506Y-58070537D01*
X182755820Y-58129502D01*
X182875518Y-58165812D01*
X183000000Y-58178072D01*
X186000000Y-58178072D01*
X186124482Y-58165812D01*
X186244180Y-58129502D01*
X186354494Y-58070537D01*
X186354524Y-58070512D01*
X196809783Y-58070512D01*
X196851213Y-58350130D01*
X196946397Y-58616292D01*
X197013329Y-58741514D01*
X197257298Y-58813097D01*
X198070395Y-58000000D01*
X198429605Y-58000000D01*
X199242702Y-58813097D01*
X199486671Y-58741514D01*
X199607571Y-58486004D01*
X199676300Y-58211816D01*
X199690217Y-57929488D01*
X199648787Y-57649870D01*
X199553603Y-57383708D01*
X199486671Y-57258486D01*
X199242702Y-57186903D01*
X198429605Y-58000000D01*
X198070395Y-58000000D01*
X197257298Y-57186903D01*
X197013329Y-57258486D01*
X196892429Y-57513996D01*
X196823700Y-57788184D01*
X196809783Y-58070512D01*
X186354524Y-58070512D01*
X186451185Y-57991185D01*
X186530537Y-57894494D01*
X186589502Y-57784180D01*
X186625812Y-57664482D01*
X186638072Y-57540000D01*
X186638072Y-54700000D01*
X196811928Y-54700000D01*
X196811928Y-56300000D01*
X196824188Y-56424482D01*
X196860498Y-56544180D01*
X196919463Y-56654494D01*
X196998815Y-56751185D01*
X197095506Y-56830537D01*
X197205820Y-56889502D01*
X197325518Y-56925812D01*
X197450000Y-56938072D01*
X197457215Y-56938072D01*
X197436903Y-57007298D01*
X198250000Y-57820395D01*
X199063097Y-57007298D01*
X199042785Y-56938072D01*
X199050000Y-56938072D01*
X199174482Y-56925812D01*
X199294180Y-56889502D01*
X199404494Y-56830537D01*
X199501185Y-56751185D01*
X199580537Y-56654494D01*
X199639502Y-56544180D01*
X199675812Y-56424482D01*
X199688072Y-56300000D01*
X199688072Y-54700000D01*
X199675812Y-54575518D01*
X199639502Y-54455820D01*
X199580537Y-54345506D01*
X199501185Y-54248815D01*
X199404494Y-54169463D01*
X199294180Y-54110498D01*
X199174482Y-54074188D01*
X199050000Y-54061928D01*
X197450000Y-54061928D01*
X197325518Y-54074188D01*
X197205820Y-54110498D01*
X197095506Y-54169463D01*
X196998815Y-54248815D01*
X196919463Y-54345506D01*
X196860498Y-54455820D01*
X196824188Y-54575518D01*
X196811928Y-54700000D01*
X186638072Y-54700000D01*
X186638072Y-54540000D01*
X186625812Y-54415518D01*
X186589502Y-54295820D01*
X186530537Y-54185506D01*
X186451185Y-54088815D01*
X186354494Y-54009463D01*
X186244180Y-53950498D01*
X186124482Y-53914188D01*
X186000000Y-53901928D01*
X183000000Y-53901928D01*
X182875518Y-53914188D01*
X182755820Y-53950498D01*
X182645506Y-54009463D01*
X182548815Y-54088815D01*
X182469463Y-54185506D01*
X182410498Y-54295820D01*
X182374188Y-54415518D01*
X182361928Y-54540000D01*
X174410000Y-54540000D01*
X174410000Y-47715852D01*
X176115000Y-47715852D01*
X176115000Y-48284148D01*
X176225869Y-48841523D01*
X176443346Y-49366560D01*
X176759074Y-49839080D01*
X177160920Y-50240926D01*
X177633440Y-50556654D01*
X178158477Y-50774131D01*
X178715852Y-50885000D01*
X179284148Y-50885000D01*
X179841523Y-50774131D01*
X180366560Y-50556654D01*
X180839080Y-50240926D01*
X181240926Y-49839080D01*
X181556654Y-49366560D01*
X181774131Y-48841523D01*
X181885000Y-48284148D01*
X181885000Y-47715852D01*
X236115000Y-47715852D01*
X236115000Y-48284148D01*
X236225869Y-48841523D01*
X236443346Y-49366560D01*
X236759074Y-49839080D01*
X237160920Y-50240926D01*
X237633440Y-50556654D01*
X238158477Y-50774131D01*
X238715852Y-50885000D01*
X239284148Y-50885000D01*
X239841523Y-50774131D01*
X240366560Y-50556654D01*
X240839080Y-50240926D01*
X241240926Y-49839080D01*
X241556654Y-49366560D01*
X241774131Y-48841523D01*
X241885000Y-48284148D01*
X241885000Y-47715852D01*
X241774131Y-47158477D01*
X241556654Y-46633440D01*
X241240926Y-46160920D01*
X240839080Y-45759074D01*
X240366560Y-45443346D01*
X239841523Y-45225869D01*
X239284148Y-45115000D01*
X238715852Y-45115000D01*
X238158477Y-45225869D01*
X237633440Y-45443346D01*
X237160920Y-45759074D01*
X236759074Y-46160920D01*
X236443346Y-46633440D01*
X236225869Y-47158477D01*
X236115000Y-47715852D01*
X181885000Y-47715852D01*
X181774131Y-47158477D01*
X181556654Y-46633440D01*
X181240926Y-46160920D01*
X180839080Y-45759074D01*
X180366560Y-45443346D01*
X179841523Y-45225869D01*
X179284148Y-45115000D01*
X178715852Y-45115000D01*
X178158477Y-45225869D01*
X177633440Y-45443346D01*
X177160920Y-45759074D01*
X176759074Y-46160920D01*
X176443346Y-46633440D01*
X176225869Y-47158477D01*
X176115000Y-47715852D01*
X174410000Y-47715852D01*
X174410000Y-46982279D01*
X174448147Y-46593225D01*
X174551763Y-46250033D01*
X174720062Y-45933511D01*
X174946637Y-45655701D01*
X175222856Y-45427194D01*
X175538197Y-45256690D01*
X175880656Y-45150681D01*
X176267712Y-45110000D01*
X241967721Y-45110000D01*
X242356775Y-45148147D01*
M02*
