G04 #@! TF.GenerationSoftware,KiCad,Pcbnew,(5.1.5)-3*
G04 #@! TF.CreationDate,2020-04-01T20:44:35+02:00*
G04 #@! TF.ProjectId,5vfrommains,35766672-6f6d-46d6-9169-6e732e6b6963,rev?*
G04 #@! TF.SameCoordinates,Original*
G04 #@! TF.FileFunction,Legend,Top*
G04 #@! TF.FilePolarity,Positive*
%FSLAX46Y46*%
G04 Gerber Fmt 4.6, Leading zero omitted, Abs format (unit mm)*
G04 Created by KiCad (PCBNEW (5.1.5)-3) date 2020-04-01 20:44:35*
%MOMM*%
%LPD*%
G04 APERTURE LIST*
%ADD10C,0.250000*%
%ADD11C,0.150000*%
%ADD12C,0.120000*%
%ADD13C,0.010000*%
G04 APERTURE END LIST*
D10*
X182083333Y-91416666D02*
X183833333Y-91416666D01*
X182583333Y-92000000D01*
X183833333Y-92583333D01*
X182083333Y-92583333D01*
X182083333Y-94166666D02*
X183000000Y-94166666D01*
X183166666Y-94083333D01*
X183250000Y-93916666D01*
X183250000Y-93583333D01*
X183166666Y-93416666D01*
X182166666Y-94166666D02*
X182083333Y-94000000D01*
X182083333Y-93583333D01*
X182166666Y-93416666D01*
X182333333Y-93333333D01*
X182500000Y-93333333D01*
X182666666Y-93416666D01*
X182750000Y-93583333D01*
X182750000Y-94000000D01*
X182833333Y-94166666D01*
X182083333Y-95000000D02*
X183250000Y-95000000D01*
X183833333Y-95000000D02*
X183750000Y-94916666D01*
X183666666Y-95000000D01*
X183750000Y-95083333D01*
X183833333Y-95000000D01*
X183666666Y-95000000D01*
X183250000Y-95833333D02*
X182083333Y-95833333D01*
X183083333Y-95833333D02*
X183166666Y-95916666D01*
X183250000Y-96083333D01*
X183250000Y-96333333D01*
X183166666Y-96500000D01*
X183000000Y-96583333D01*
X182083333Y-96583333D01*
X182166666Y-97333333D02*
X182083333Y-97500000D01*
X182083333Y-97833333D01*
X182166666Y-98000000D01*
X182333333Y-98083333D01*
X182416666Y-98083333D01*
X182583333Y-98000000D01*
X182666666Y-97833333D01*
X182666666Y-97583333D01*
X182750000Y-97416666D01*
X182916666Y-97333333D01*
X183000000Y-97333333D01*
X183166666Y-97416666D01*
X183250000Y-97583333D01*
X183250000Y-97833333D01*
X183166666Y-98000000D01*
X182750000Y-98833333D02*
X182750000Y-100166666D01*
X183250000Y-100750000D02*
X183250000Y-101416666D01*
X183833333Y-101000000D02*
X182333333Y-101000000D01*
X182166666Y-101083333D01*
X182083333Y-101250000D01*
X182083333Y-101416666D01*
X182083333Y-102250000D02*
X182166666Y-102083333D01*
X182250000Y-102000000D01*
X182416666Y-101916666D01*
X182916666Y-101916666D01*
X183083333Y-102000000D01*
X183166666Y-102083333D01*
X183250000Y-102250000D01*
X183250000Y-102500000D01*
X183166666Y-102666666D01*
X183083333Y-102750000D01*
X182916666Y-102833333D01*
X182416666Y-102833333D01*
X182250000Y-102750000D01*
X182166666Y-102666666D01*
X182083333Y-102500000D01*
X182083333Y-102250000D01*
X182750000Y-103583333D02*
X182750000Y-104916666D01*
X183833333Y-106583333D02*
X183833333Y-105750000D01*
X183000000Y-105666666D01*
X183083333Y-105750000D01*
X183166666Y-105916666D01*
X183166666Y-106333333D01*
X183083333Y-106500000D01*
X183000000Y-106583333D01*
X182833333Y-106666666D01*
X182416666Y-106666666D01*
X182250000Y-106583333D01*
X182166666Y-106500000D01*
X182083333Y-106333333D01*
X182083333Y-105916666D01*
X182166666Y-105750000D01*
X182250000Y-105666666D01*
X183833333Y-107166666D02*
X182083333Y-107750000D01*
X183833333Y-108333333D01*
X182083333Y-108916666D02*
X183833333Y-108916666D01*
X183833333Y-109333333D01*
X183750000Y-109583333D01*
X183583333Y-109750000D01*
X183416666Y-109833333D01*
X183083333Y-109916666D01*
X182833333Y-109916666D01*
X182500000Y-109833333D01*
X182333333Y-109750000D01*
X182166666Y-109583333D01*
X182083333Y-109333333D01*
X182083333Y-108916666D01*
X182250000Y-111666666D02*
X182166666Y-111583333D01*
X182083333Y-111333333D01*
X182083333Y-111166666D01*
X182166666Y-110916666D01*
X182333333Y-110750000D01*
X182500000Y-110666666D01*
X182833333Y-110583333D01*
X183083333Y-110583333D01*
X183416666Y-110666666D01*
X183583333Y-110750000D01*
X183750000Y-110916666D01*
X183833333Y-111166666D01*
X183833333Y-111333333D01*
X183750000Y-111583333D01*
X183666666Y-111666666D01*
X180791666Y-85875000D02*
X180875000Y-85958333D01*
X180958333Y-86125000D01*
X180958333Y-86541666D01*
X180875000Y-86708333D01*
X180791666Y-86791666D01*
X180625000Y-86875000D01*
X180458333Y-86875000D01*
X180208333Y-86791666D01*
X179208333Y-85791666D01*
X179208333Y-86875000D01*
X180958333Y-87458333D02*
X180958333Y-88541666D01*
X180291666Y-87958333D01*
X180291666Y-88208333D01*
X180208333Y-88375000D01*
X180125000Y-88458333D01*
X179958333Y-88541666D01*
X179541666Y-88541666D01*
X179375000Y-88458333D01*
X179291666Y-88375000D01*
X179208333Y-88208333D01*
X179208333Y-87708333D01*
X179291666Y-87541666D01*
X179375000Y-87458333D01*
X180958333Y-89625000D02*
X180958333Y-89791666D01*
X180875000Y-89958333D01*
X180791666Y-90041666D01*
X180625000Y-90125000D01*
X180291666Y-90208333D01*
X179875000Y-90208333D01*
X179541666Y-90125000D01*
X179375000Y-90041666D01*
X179291666Y-89958333D01*
X179208333Y-89791666D01*
X179208333Y-89625000D01*
X179291666Y-89458333D01*
X179375000Y-89375000D01*
X179541666Y-89291666D01*
X179875000Y-89208333D01*
X180291666Y-89208333D01*
X180625000Y-89291666D01*
X180791666Y-89375000D01*
X180875000Y-89458333D01*
X180958333Y-89625000D01*
X180958333Y-90708333D02*
X179208333Y-91291666D01*
X180958333Y-91875000D01*
X179708333Y-92375000D02*
X179708333Y-93208333D01*
X179208333Y-92208333D02*
X180958333Y-92791666D01*
X179208333Y-93375000D01*
X179375000Y-94958333D02*
X179291666Y-94875000D01*
X179208333Y-94625000D01*
X179208333Y-94458333D01*
X179291666Y-94208333D01*
X179458333Y-94041666D01*
X179625000Y-93958333D01*
X179958333Y-93875000D01*
X180208333Y-93875000D01*
X180541666Y-93958333D01*
X180708333Y-94041666D01*
X180875000Y-94208333D01*
X180958333Y-94458333D01*
X180958333Y-94625000D01*
X180875000Y-94875000D01*
X180791666Y-94958333D01*
X180375000Y-96791666D02*
X180375000Y-97458333D01*
X180958333Y-97041666D02*
X179458333Y-97041666D01*
X179291666Y-97125000D01*
X179208333Y-97291666D01*
X179208333Y-97458333D01*
X179208333Y-98291666D02*
X179291666Y-98125000D01*
X179375000Y-98041666D01*
X179541666Y-97958333D01*
X180041666Y-97958333D01*
X180208333Y-98041666D01*
X180291666Y-98125000D01*
X180375000Y-98291666D01*
X180375000Y-98541666D01*
X180291666Y-98708333D01*
X180208333Y-98791666D01*
X180041666Y-98875000D01*
X179541666Y-98875000D01*
X179375000Y-98791666D01*
X179291666Y-98708333D01*
X179208333Y-98541666D01*
X179208333Y-98291666D01*
X179875000Y-100958333D02*
X179875000Y-102291666D01*
X179208333Y-101625000D02*
X180541666Y-101625000D01*
X180958333Y-103958333D02*
X180958333Y-103125000D01*
X180125000Y-103041666D01*
X180208333Y-103125000D01*
X180291666Y-103291666D01*
X180291666Y-103708333D01*
X180208333Y-103875000D01*
X180125000Y-103958333D01*
X179958333Y-104041666D01*
X179541666Y-104041666D01*
X179375000Y-103958333D01*
X179291666Y-103875000D01*
X179208333Y-103708333D01*
X179208333Y-103291666D01*
X179291666Y-103125000D01*
X179375000Y-103041666D01*
X180958333Y-104541666D02*
X179208333Y-105125000D01*
X180958333Y-105708333D01*
X179208333Y-106291666D02*
X180958333Y-106291666D01*
X180958333Y-106708333D01*
X180875000Y-106958333D01*
X180708333Y-107125000D01*
X180541666Y-107208333D01*
X180208333Y-107291666D01*
X179958333Y-107291666D01*
X179625000Y-107208333D01*
X179458333Y-107125000D01*
X179291666Y-106958333D01*
X179208333Y-106708333D01*
X179208333Y-106291666D01*
X179375000Y-109041666D02*
X179291666Y-108958333D01*
X179208333Y-108708333D01*
X179208333Y-108541666D01*
X179291666Y-108291666D01*
X179458333Y-108125000D01*
X179625000Y-108041666D01*
X179958333Y-107958333D01*
X180208333Y-107958333D01*
X180541666Y-108041666D01*
X180708333Y-108125000D01*
X180875000Y-108291666D01*
X180958333Y-108541666D01*
X180958333Y-108708333D01*
X180875000Y-108958333D01*
X180791666Y-109041666D01*
X180041666Y-112208333D02*
X180125000Y-112125000D01*
X180208333Y-111958333D01*
X180208333Y-111791666D01*
X180125000Y-111625000D01*
X180041666Y-111541666D01*
X179875000Y-111458333D01*
X179708333Y-111458333D01*
X179541666Y-111541666D01*
X179458333Y-111625000D01*
X179375000Y-111791666D01*
X179375000Y-111958333D01*
X179458333Y-112125000D01*
X179541666Y-112208333D01*
X180208333Y-112208333D02*
X179541666Y-112208333D01*
X179458333Y-112291666D01*
X179458333Y-112375000D01*
X179541666Y-112541666D01*
X179708333Y-112625000D01*
X180125000Y-112625000D01*
X180375000Y-112458333D01*
X180541666Y-112208333D01*
X180625000Y-111875000D01*
X180541666Y-111541666D01*
X180375000Y-111291666D01*
X180125000Y-111125000D01*
X179791666Y-111041666D01*
X179458333Y-111125000D01*
X179208333Y-111291666D01*
X179041666Y-111541666D01*
X178958333Y-111875000D01*
X179041666Y-112208333D01*
X179208333Y-112458333D01*
X179208333Y-115625000D02*
X179208333Y-114625000D01*
X179208333Y-115125000D02*
X180958333Y-115125000D01*
X180708333Y-114958333D01*
X180541666Y-114791666D01*
X180458333Y-114625000D01*
X179708333Y-116291666D02*
X179708333Y-117125000D01*
X179208333Y-116125000D02*
X180958333Y-116708333D01*
X179208333Y-117291666D01*
X176333333Y-93375000D02*
X177166666Y-92791666D01*
X176333333Y-92375000D02*
X178083333Y-92375000D01*
X178083333Y-93041666D01*
X178000000Y-93208333D01*
X177916666Y-93291666D01*
X177750000Y-93375000D01*
X177500000Y-93375000D01*
X177333333Y-93291666D01*
X177250000Y-93208333D01*
X177166666Y-93041666D01*
X177166666Y-92375000D01*
X176416666Y-94791666D02*
X176333333Y-94625000D01*
X176333333Y-94291666D01*
X176416666Y-94125000D01*
X176583333Y-94041666D01*
X177250000Y-94041666D01*
X177416666Y-94125000D01*
X177500000Y-94291666D01*
X177500000Y-94625000D01*
X177416666Y-94791666D01*
X177250000Y-94875000D01*
X177083333Y-94875000D01*
X176916666Y-94041666D01*
X177500000Y-95458333D02*
X176333333Y-95875000D01*
X177500000Y-96291666D01*
X176333333Y-99208333D02*
X176333333Y-98208333D01*
X176333333Y-98708333D02*
X178083333Y-98708333D01*
X177833333Y-98541666D01*
X177666666Y-98375000D01*
X177583333Y-98208333D01*
X177000000Y-101291666D02*
X177000000Y-102625000D01*
X177916666Y-104708333D02*
X178000000Y-104791666D01*
X178083333Y-104958333D01*
X178083333Y-105375000D01*
X178000000Y-105541666D01*
X177916666Y-105625000D01*
X177750000Y-105708333D01*
X177583333Y-105708333D01*
X177333333Y-105625000D01*
X176333333Y-104625000D01*
X176333333Y-105708333D01*
X178083333Y-106791666D02*
X178083333Y-106958333D01*
X178000000Y-107125000D01*
X177916666Y-107208333D01*
X177750000Y-107291666D01*
X177416666Y-107375000D01*
X177000000Y-107375000D01*
X176666666Y-107291666D01*
X176500000Y-107208333D01*
X176416666Y-107125000D01*
X176333333Y-106958333D01*
X176333333Y-106791666D01*
X176416666Y-106625000D01*
X176500000Y-106541666D01*
X176666666Y-106458333D01*
X177000000Y-106375000D01*
X177416666Y-106375000D01*
X177750000Y-106458333D01*
X177916666Y-106541666D01*
X178000000Y-106625000D01*
X178083333Y-106791666D01*
X176333333Y-109041666D02*
X176333333Y-108041666D01*
X176333333Y-108541666D02*
X178083333Y-108541666D01*
X177833333Y-108375000D01*
X177666666Y-108208333D01*
X177583333Y-108041666D01*
X177500000Y-110541666D02*
X176333333Y-110541666D01*
X178166666Y-110125000D02*
X176916666Y-109708333D01*
X176916666Y-110791666D01*
D11*
X190833333Y-127607142D02*
X190833333Y-128083333D01*
X190547619Y-127511904D02*
X191547619Y-127845238D01*
X190547619Y-128178571D01*
X190642857Y-129083333D02*
X190595238Y-129035714D01*
X190547619Y-128892857D01*
X190547619Y-128797619D01*
X190595238Y-128654761D01*
X190690476Y-128559523D01*
X190785714Y-128511904D01*
X190976190Y-128464285D01*
X191119047Y-128464285D01*
X191309523Y-128511904D01*
X191404761Y-128559523D01*
X191500000Y-128654761D01*
X191547619Y-128797619D01*
X191547619Y-128892857D01*
X191500000Y-129035714D01*
X191452380Y-129083333D01*
X190452380Y-129273809D02*
X190452380Y-130035714D01*
X190547619Y-130273809D02*
X191547619Y-130273809D01*
X190547619Y-130845238D01*
X191547619Y-130845238D01*
X188083333Y-111130952D02*
X188083333Y-111607142D01*
X187797619Y-111035714D02*
X188797619Y-111369047D01*
X187797619Y-111702380D01*
X187892857Y-112607142D02*
X187845238Y-112559523D01*
X187797619Y-112416666D01*
X187797619Y-112321428D01*
X187845238Y-112178571D01*
X187940476Y-112083333D01*
X188035714Y-112035714D01*
X188226190Y-111988095D01*
X188369047Y-111988095D01*
X188559523Y-112035714D01*
X188654761Y-112083333D01*
X188750000Y-112178571D01*
X188797619Y-112321428D01*
X188797619Y-112416666D01*
X188750000Y-112559523D01*
X188702380Y-112607142D01*
X187702380Y-112797619D02*
X187702380Y-113559523D01*
X187797619Y-113797619D02*
X188797619Y-113797619D01*
X188797619Y-114178571D01*
X188750000Y-114273809D01*
X188702380Y-114321428D01*
X188607142Y-114369047D01*
X188464285Y-114369047D01*
X188369047Y-114321428D01*
X188321428Y-114273809D01*
X188273809Y-114178571D01*
X188273809Y-113797619D01*
X177750000Y-56738095D02*
X177797619Y-56642857D01*
X177797619Y-56500000D01*
X177750000Y-56357142D01*
X177654761Y-56261904D01*
X177559523Y-56214285D01*
X177369047Y-56166666D01*
X177226190Y-56166666D01*
X177035714Y-56214285D01*
X176940476Y-56261904D01*
X176845238Y-56357142D01*
X176797619Y-56500000D01*
X176797619Y-56595238D01*
X176845238Y-56738095D01*
X176892857Y-56785714D01*
X177226190Y-56785714D01*
X177226190Y-56595238D01*
X176797619Y-57214285D02*
X177797619Y-57214285D01*
X176797619Y-57785714D01*
X177797619Y-57785714D01*
X176797619Y-58261904D02*
X177797619Y-58261904D01*
X177797619Y-58500000D01*
X177750000Y-58642857D01*
X177654761Y-58738095D01*
X177559523Y-58785714D01*
X177369047Y-58833333D01*
X177226190Y-58833333D01*
X177035714Y-58785714D01*
X176940476Y-58738095D01*
X176845238Y-58642857D01*
X176797619Y-58500000D01*
X176797619Y-58261904D01*
X177178571Y-46964285D02*
X177178571Y-47726190D01*
X176797619Y-47345238D02*
X177559523Y-47345238D01*
X177797619Y-48678571D02*
X177797619Y-48202380D01*
X177321428Y-48154761D01*
X177369047Y-48202380D01*
X177416666Y-48297619D01*
X177416666Y-48535714D01*
X177369047Y-48630952D01*
X177321428Y-48678571D01*
X177226190Y-48726190D01*
X176988095Y-48726190D01*
X176892857Y-48678571D01*
X176845238Y-48630952D01*
X176797619Y-48535714D01*
X176797619Y-48297619D01*
X176845238Y-48202380D01*
X176892857Y-48154761D01*
X177797619Y-49011904D02*
X176797619Y-49345238D01*
X177797619Y-49678571D01*
D12*
X214610000Y-62890000D02*
X212110000Y-66610000D01*
X212110000Y-66610000D02*
X211930000Y-66550000D01*
X211930000Y-66550000D02*
X212590000Y-63750000D01*
X212590000Y-63750000D02*
X207290000Y-66630000D01*
X207170000Y-66510000D02*
X209320000Y-62740000D01*
X207270000Y-63420000D02*
X207180000Y-63270000D01*
X209320000Y-62740000D02*
X207270000Y-63420000D01*
X207180000Y-63270000D02*
X209140000Y-61380000D01*
X207290000Y-66630000D02*
X207170000Y-66510000D01*
X216230000Y-53400000D02*
X214620000Y-57110000D01*
X216900000Y-59150000D02*
X216900000Y-53400000D01*
X216900000Y-53400000D02*
X216230000Y-53400000D01*
X212590000Y-56250000D02*
X207290000Y-53370000D01*
X212110000Y-53390000D02*
X211930000Y-53450000D01*
X211930000Y-53450000D02*
X212590000Y-56250000D01*
X214610000Y-57110000D02*
X212110000Y-53390000D01*
X207180000Y-56730000D02*
X209140000Y-58620000D01*
X207170000Y-53490000D02*
X209320000Y-57260000D01*
X207270000Y-56580000D02*
X207180000Y-56730000D01*
X207290000Y-53370000D02*
X207170000Y-53490000D01*
X209320000Y-57260000D02*
X207270000Y-56580000D01*
X224800000Y-59150000D02*
X216900000Y-59150000D01*
X216900000Y-60850000D02*
X216900000Y-66600000D01*
X216900000Y-66600000D02*
X216230000Y-66600000D01*
X216230000Y-66600000D02*
X214620000Y-62890000D01*
X224800000Y-60850000D02*
X216900000Y-60850000D01*
X237670000Y-53450000D02*
X237010000Y-56250000D01*
X237490000Y-53390000D02*
X237670000Y-53450000D01*
X234990000Y-57110000D02*
X237490000Y-53390000D01*
X237010000Y-56250000D02*
X242310000Y-53370000D01*
X242420000Y-56730000D02*
X240460000Y-58620000D01*
X240280000Y-57260000D02*
X242330000Y-56580000D01*
X242430000Y-53490000D02*
X240280000Y-57260000D01*
X242310000Y-53370000D02*
X242430000Y-53490000D01*
X242330000Y-56580000D02*
X242420000Y-56730000D01*
X233370000Y-53400000D02*
X234980000Y-57110000D01*
X224800000Y-59150000D02*
X232700000Y-59150000D01*
X232700000Y-59150000D02*
X232700000Y-53400000D01*
X232700000Y-53400000D02*
X233370000Y-53400000D01*
X224800000Y-60850000D02*
X232700000Y-60850000D01*
X232700000Y-60850000D02*
X232700000Y-66600000D01*
X232700000Y-66600000D02*
X233370000Y-66600000D01*
X233370000Y-66600000D02*
X234980000Y-62890000D01*
X234990000Y-62890000D02*
X237490000Y-66610000D01*
X237490000Y-66610000D02*
X237670000Y-66550000D01*
X237670000Y-66550000D02*
X237010000Y-63750000D01*
X237010000Y-63750000D02*
X242310000Y-66630000D01*
X242310000Y-66630000D02*
X242430000Y-66510000D01*
X242430000Y-66510000D02*
X240280000Y-62740000D01*
X240280000Y-62740000D02*
X242330000Y-63420000D01*
X242330000Y-63420000D02*
X242420000Y-63270000D01*
X242420000Y-63270000D02*
X240460000Y-61380000D01*
D13*
G36*
X193707205Y-130937248D02*
G01*
X193705978Y-131109706D01*
X192811386Y-132018628D01*
X191916794Y-132927549D01*
X191915490Y-133761765D01*
X191370699Y-133761765D01*
X191356661Y-133867598D01*
X191351345Y-133915837D01*
X191342386Y-134006679D01*
X191330261Y-134134704D01*
X191315450Y-134294494D01*
X191298432Y-134480630D01*
X191279687Y-134687693D01*
X191259694Y-134910265D01*
X191238932Y-135142926D01*
X191217880Y-135380257D01*
X191197017Y-135616840D01*
X191176823Y-135847256D01*
X191157778Y-136066086D01*
X191140359Y-136267911D01*
X191125047Y-136447312D01*
X191112321Y-136598870D01*
X191102659Y-136717168D01*
X191096542Y-136796784D01*
X191094449Y-136832302D01*
X191094450Y-136832471D01*
X191109716Y-136860970D01*
X191155570Y-136919815D01*
X191232635Y-137009691D01*
X191341535Y-137131283D01*
X191482895Y-137285276D01*
X191657338Y-137472355D01*
X191865488Y-137693204D01*
X192107968Y-137948510D01*
X192176125Y-138020000D01*
X193257075Y-139153039D01*
X193169684Y-139240196D01*
X193082294Y-139327353D01*
X192940902Y-139173521D01*
X192889176Y-139117926D01*
X192808376Y-139031953D01*
X192703833Y-138921235D01*
X192580879Y-138791403D01*
X192444843Y-138648089D01*
X192301059Y-138496927D01*
X192215040Y-138406644D01*
X192053549Y-138237509D01*
X191923017Y-138102033D01*
X191820116Y-137997752D01*
X191741517Y-137922203D01*
X191683892Y-137872922D01*
X191643911Y-137847446D01*
X191618248Y-137843311D01*
X191603573Y-137858054D01*
X191596558Y-137889212D01*
X191593875Y-137934320D01*
X191593515Y-137946630D01*
X191574863Y-138031433D01*
X191528906Y-138133934D01*
X191464819Y-138237924D01*
X191391774Y-138327191D01*
X191362546Y-138354766D01*
X191212578Y-138451250D01*
X191037395Y-138505234D01*
X190882512Y-138518039D01*
X190706986Y-138493886D01*
X190544879Y-138423061D01*
X190401404Y-138308017D01*
X190374932Y-138279381D01*
X190278133Y-138169412D01*
X188603529Y-138169412D01*
X188603529Y-138518039D01*
X188155294Y-138518039D01*
X188155294Y-138355168D01*
X188149669Y-138243980D01*
X188130771Y-138166805D01*
X188107803Y-138124825D01*
X188091393Y-138094789D01*
X188077341Y-138051239D01*
X188064716Y-137987720D01*
X188052587Y-137897774D01*
X188040024Y-137774947D01*
X188026094Y-137612782D01*
X188016556Y-137492144D01*
X187972800Y-136926934D01*
X186898626Y-138015085D01*
X186704405Y-138211981D01*
X186517957Y-138401281D01*
X186342690Y-138579506D01*
X186182011Y-138743180D01*
X186039326Y-138888824D01*
X185918042Y-139012962D01*
X185821566Y-139112115D01*
X185753304Y-139182807D01*
X185716702Y-139221520D01*
X185656568Y-139282811D01*
X185606408Y-139325559D01*
X185579429Y-139339804D01*
X185544968Y-139323118D01*
X185494736Y-139281425D01*
X185477709Y-139264447D01*
X185405512Y-139189089D01*
X185803001Y-138785164D01*
X185904408Y-138682266D01*
X186035167Y-138549820D01*
X186189541Y-138393625D01*
X186361796Y-138219478D01*
X186546194Y-138033176D01*
X186736999Y-137840518D01*
X186928477Y-137647301D01*
X187065833Y-137508777D01*
X187274628Y-137297678D01*
X187450038Y-137118960D01*
X187594308Y-136970204D01*
X187709680Y-136848991D01*
X187798399Y-136752903D01*
X187842370Y-136702727D01*
X188195469Y-136702727D01*
X188239677Y-137267981D01*
X188253009Y-137433668D01*
X188265905Y-137585185D01*
X188277636Y-137714611D01*
X188287470Y-137814027D01*
X188294676Y-137875515D01*
X188296995Y-137889265D01*
X188310105Y-137945294D01*
X190190436Y-137945294D01*
X190202988Y-137788925D01*
X190240884Y-137604173D01*
X190320188Y-137440742D01*
X190435899Y-137304585D01*
X190583019Y-137201654D01*
X190748146Y-137139866D01*
X190801716Y-137110883D01*
X190828535Y-137048680D01*
X190829097Y-137045937D01*
X190832315Y-137019677D01*
X190828337Y-136992787D01*
X190813281Y-136960279D01*
X190783264Y-136917166D01*
X190734403Y-136858461D01*
X190662816Y-136779174D01*
X190564620Y-136674319D01*
X190435932Y-136538907D01*
X190427617Y-136530186D01*
X190289200Y-136384837D01*
X190142043Y-136230021D01*
X189996259Y-136076397D01*
X189861958Y-135934623D01*
X189749253Y-135815355D01*
X189724118Y-135788692D01*
X189627762Y-135688153D01*
X189542166Y-135602115D01*
X189473473Y-135536496D01*
X189427828Y-135497214D01*
X189412503Y-135488580D01*
X189389648Y-135506650D01*
X189336201Y-135556219D01*
X189256370Y-135633162D01*
X189154364Y-135733351D01*
X189034392Y-135852660D01*
X188900663Y-135986962D01*
X188791364Y-136097589D01*
X188195469Y-136702727D01*
X187842370Y-136702727D01*
X187862708Y-136679519D01*
X187904852Y-136626420D01*
X187927073Y-136591189D01*
X187932017Y-136574873D01*
X187930144Y-136539266D01*
X187924454Y-136458669D01*
X187915315Y-136337720D01*
X187903096Y-136181058D01*
X187888164Y-135993320D01*
X187870887Y-135779146D01*
X187851635Y-135543172D01*
X187830775Y-135290036D01*
X187813963Y-135087729D01*
X187718843Y-133947099D01*
X187963602Y-133947099D01*
X187964656Y-133971714D01*
X187969614Y-134041041D01*
X187978078Y-134150171D01*
X187989648Y-134294200D01*
X188003928Y-134468219D01*
X188020517Y-134667322D01*
X188039019Y-134886604D01*
X188056775Y-135094797D01*
X188076887Y-135331016D01*
X188095621Y-135554000D01*
X188112546Y-135758428D01*
X188127235Y-135938975D01*
X188139257Y-136090320D01*
X188148183Y-136207139D01*
X188153585Y-136284111D01*
X188155084Y-136314004D01*
X188157423Y-136332608D01*
X188166689Y-136339991D01*
X188186454Y-136333070D01*
X188220290Y-136308767D01*
X188271769Y-136263999D01*
X188344462Y-136195688D01*
X188441942Y-136100751D01*
X188567779Y-135976110D01*
X188701297Y-135842917D01*
X189247301Y-135297337D01*
X189243474Y-135293235D01*
X189604387Y-135293235D01*
X189620836Y-135315761D01*
X189666883Y-135368801D01*
X189737914Y-135447481D01*
X189829314Y-135546926D01*
X189936468Y-135662261D01*
X190054760Y-135788612D01*
X190179576Y-135921104D01*
X190306300Y-136054863D01*
X190430318Y-136185013D01*
X190547013Y-136306680D01*
X190651772Y-136414990D01*
X190739979Y-136505068D01*
X190807019Y-136572038D01*
X190848276Y-136611027D01*
X190859527Y-136618970D01*
X190863236Y-136593332D01*
X190870935Y-136522519D01*
X190882202Y-136410964D01*
X190896611Y-136263100D01*
X190913741Y-136083359D01*
X190933167Y-135876175D01*
X190954467Y-135645981D01*
X190977217Y-135397210D01*
X190995381Y-135196615D01*
X191018616Y-134936512D01*
X191040083Y-134691484D01*
X191059421Y-134465976D01*
X191076268Y-134264432D01*
X191090265Y-134091297D01*
X191101050Y-133951018D01*
X191108261Y-133848037D01*
X191111539Y-133786801D01*
X191111164Y-133770902D01*
X191091574Y-133785064D01*
X191041689Y-133830587D01*
X190965868Y-133903064D01*
X190868472Y-133998090D01*
X190753864Y-134111258D01*
X190626403Y-134238162D01*
X190490452Y-134374396D01*
X190350371Y-134515554D01*
X190210522Y-134657230D01*
X190075265Y-134795016D01*
X189948962Y-134924508D01*
X189835974Y-135041300D01*
X189740662Y-135140984D01*
X189667388Y-135219154D01*
X189620511Y-135271406D01*
X189604387Y-135293235D01*
X189243474Y-135293235D01*
X189043699Y-135079132D01*
X188940008Y-134968393D01*
X188823628Y-134844759D01*
X188699160Y-134713054D01*
X188571206Y-134578100D01*
X188444367Y-134444720D01*
X188323245Y-134317737D01*
X188212442Y-134201972D01*
X188116558Y-134102250D01*
X188040194Y-134023392D01*
X187987954Y-133970222D01*
X187964437Y-133947562D01*
X187963602Y-133947099D01*
X187718843Y-133947099D01*
X187695069Y-133662026D01*
X185316471Y-131160520D01*
X185318221Y-130810882D01*
X185510336Y-131016103D01*
X185617855Y-131130564D01*
X185744796Y-131265041D01*
X185887734Y-131415956D01*
X186043243Y-131579729D01*
X186207897Y-131752782D01*
X186378271Y-131931537D01*
X186550939Y-132112415D01*
X186722475Y-132291838D01*
X186889454Y-132466226D01*
X187048450Y-132632002D01*
X187196037Y-132785586D01*
X187328789Y-132923400D01*
X187443282Y-133041866D01*
X187536088Y-133137404D01*
X187603783Y-133206437D01*
X187642940Y-133245385D01*
X187651522Y-133252857D01*
X187652112Y-133226866D01*
X187648866Y-133160319D01*
X187642347Y-133062272D01*
X187633120Y-132941779D01*
X187629159Y-132893645D01*
X187599661Y-132541569D01*
X187830620Y-132541569D01*
X187842544Y-132597598D01*
X187848625Y-132641909D01*
X187857170Y-132725283D01*
X187867191Y-132837097D01*
X187877701Y-132966728D01*
X187881338Y-133014706D01*
X187892066Y-133152460D01*
X187902894Y-133280387D01*
X187912739Y-133386399D01*
X187920518Y-133458409D01*
X187922272Y-133471477D01*
X187928889Y-133498307D01*
X187943212Y-133529712D01*
X187968287Y-133569214D01*
X188007159Y-133620332D01*
X188062874Y-133686589D01*
X188138477Y-133771503D01*
X188237013Y-133878595D01*
X188361529Y-134011386D01*
X188515070Y-134173397D01*
X188671700Y-134337783D01*
X188827530Y-134500461D01*
X188972994Y-134651118D01*
X189104469Y-134786093D01*
X189218335Y-134901722D01*
X189310970Y-134994343D01*
X189378754Y-135060294D01*
X189418065Y-135095910D01*
X189426448Y-135101208D01*
X189448504Y-135081996D01*
X189500058Y-135031893D01*
X189576106Y-134955926D01*
X189671645Y-134859121D01*
X189781672Y-134746504D01*
X189861240Y-134664461D01*
X190276650Y-134234902D01*
X189051765Y-134234902D01*
X189051765Y-133761765D01*
X190545882Y-133761765D01*
X190545882Y-133972582D01*
X190819804Y-133699510D01*
X191014116Y-133505800D01*
X191392549Y-133505800D01*
X191396169Y-133536358D01*
X191414491Y-133553383D01*
X191458707Y-133560801D01*
X191540012Y-133562536D01*
X191554412Y-133562549D01*
X191716274Y-133562549D01*
X191716274Y-133128204D01*
X191554412Y-133288628D01*
X191463105Y-133386161D01*
X191408493Y-133460883D01*
X191392549Y-133505800D01*
X191014116Y-133505800D01*
X191093725Y-133426438D01*
X191093725Y-133183219D01*
X191094488Y-133071323D01*
X191097979Y-133000137D01*
X191106000Y-132960579D01*
X191120356Y-132943562D01*
X191142004Y-132940000D01*
X191166080Y-132934771D01*
X191183875Y-132913805D01*
X191197541Y-132869186D01*
X191209228Y-132792997D01*
X191221089Y-132677320D01*
X191224896Y-132634951D01*
X191233137Y-132541569D01*
X187830620Y-132541569D01*
X187599661Y-132541569D01*
X187283725Y-132541569D01*
X187283725Y-132317451D01*
X187417987Y-132317451D01*
X187496514Y-132315300D01*
X187539183Y-132304919D01*
X187544403Y-132298740D01*
X187819407Y-132298740D01*
X187833880Y-132312855D01*
X187884014Y-132317212D01*
X187917849Y-132317451D01*
X188030784Y-132317451D01*
X188451936Y-132317451D01*
X191253245Y-132317451D01*
X191158496Y-132220419D01*
X191011336Y-132100681D01*
X190829207Y-132008330D01*
X190609023Y-131942100D01*
X190390245Y-131905470D01*
X190247059Y-131888379D01*
X190247059Y-132068431D01*
X189101569Y-132068431D01*
X189101569Y-131864161D01*
X188933480Y-131881197D01*
X188816037Y-131895574D01*
X188690909Y-131914633D01*
X188615980Y-131928245D01*
X188466569Y-131958257D01*
X188459252Y-132137854D01*
X188451936Y-132317451D01*
X188030784Y-132317451D01*
X188030784Y-132217843D01*
X188027492Y-132155443D01*
X188019267Y-132120760D01*
X188015952Y-132118235D01*
X187979086Y-132134208D01*
X187925226Y-132172957D01*
X187871231Y-132220732D01*
X187833962Y-132263781D01*
X187830642Y-132269379D01*
X187819407Y-132298740D01*
X187544403Y-132298740D01*
X187559885Y-132280416D01*
X187568242Y-132253724D01*
X187602352Y-132184456D01*
X187667864Y-132101185D01*
X187753507Y-132015587D01*
X187848009Y-131939339D01*
X187910083Y-131899625D01*
X187980795Y-131856155D01*
X188017044Y-131819638D01*
X188029780Y-131776578D01*
X188030759Y-131750931D01*
X188030760Y-131744706D01*
X189300784Y-131744706D01*
X189300784Y-131869216D01*
X190047843Y-131869216D01*
X190047843Y-131744706D01*
X189300784Y-131744706D01*
X188030760Y-131744706D01*
X188030784Y-131670000D01*
X188240376Y-131670000D01*
X188336807Y-131672331D01*
X188411963Y-131678543D01*
X188453743Y-131687465D01*
X188458268Y-131691078D01*
X188484770Y-131696624D01*
X188549267Y-131694352D01*
X188640677Y-131684935D01*
X188703137Y-131676240D01*
X188816392Y-131659159D01*
X188919970Y-131643739D01*
X188997808Y-131632363D01*
X189020637Y-131629132D01*
X189080282Y-131610660D01*
X189101569Y-131581715D01*
X189108041Y-131569926D01*
X189131192Y-131560933D01*
X189176626Y-131554381D01*
X189249945Y-131549915D01*
X189356754Y-131547181D01*
X189502654Y-131545826D01*
X189674314Y-131545490D01*
X189857519Y-131545681D01*
X189996892Y-131546579D01*
X190098404Y-131548677D01*
X190168026Y-131552467D01*
X190211731Y-131558439D01*
X190235488Y-131567085D01*
X190245269Y-131578897D01*
X190247059Y-131592630D01*
X190262295Y-131636221D01*
X190312201Y-131661027D01*
X190403076Y-131669874D01*
X190419426Y-131670000D01*
X190573320Y-131685876D01*
X190748109Y-131729579D01*
X190928032Y-131795224D01*
X191097324Y-131876927D01*
X191240223Y-131968801D01*
X191258731Y-131983358D01*
X191319056Y-132030720D01*
X191354780Y-132049690D01*
X191379728Y-132043557D01*
X191405336Y-132018256D01*
X191480972Y-131968695D01*
X191579409Y-131949669D01*
X191685412Y-131959564D01*
X191783746Y-131996763D01*
X191859176Y-132059651D01*
X191864639Y-132066961D01*
X191921081Y-132184354D01*
X191931582Y-132305869D01*
X191897301Y-132421707D01*
X191819396Y-132522068D01*
X191809870Y-132530355D01*
X191754558Y-132569722D01*
X191698438Y-132587058D01*
X191619541Y-132588310D01*
X191599832Y-132587200D01*
X191522638Y-132584367D01*
X191482876Y-132590857D01*
X191468481Y-132610441D01*
X191467004Y-132628726D01*
X191463987Y-132681768D01*
X191456500Y-132761539D01*
X191451119Y-132809265D01*
X191443314Y-132885069D01*
X191446560Y-132923874D01*
X191465383Y-132938058D01*
X191498911Y-132940000D01*
X191518796Y-132933587D01*
X191550874Y-132912831D01*
X191597522Y-132875456D01*
X191661118Y-132819189D01*
X191744038Y-132741755D01*
X191848660Y-132640878D01*
X191977361Y-132514283D01*
X192132518Y-132359696D01*
X192316508Y-132174842D01*
X192531709Y-131957446D01*
X192635419Y-131852395D01*
X193708431Y-130764791D01*
X193707205Y-130937248D01*
G37*
X193707205Y-130937248D02*
X193705978Y-131109706D01*
X192811386Y-132018628D01*
X191916794Y-132927549D01*
X191915490Y-133761765D01*
X191370699Y-133761765D01*
X191356661Y-133867598D01*
X191351345Y-133915837D01*
X191342386Y-134006679D01*
X191330261Y-134134704D01*
X191315450Y-134294494D01*
X191298432Y-134480630D01*
X191279687Y-134687693D01*
X191259694Y-134910265D01*
X191238932Y-135142926D01*
X191217880Y-135380257D01*
X191197017Y-135616840D01*
X191176823Y-135847256D01*
X191157778Y-136066086D01*
X191140359Y-136267911D01*
X191125047Y-136447312D01*
X191112321Y-136598870D01*
X191102659Y-136717168D01*
X191096542Y-136796784D01*
X191094449Y-136832302D01*
X191094450Y-136832471D01*
X191109716Y-136860970D01*
X191155570Y-136919815D01*
X191232635Y-137009691D01*
X191341535Y-137131283D01*
X191482895Y-137285276D01*
X191657338Y-137472355D01*
X191865488Y-137693204D01*
X192107968Y-137948510D01*
X192176125Y-138020000D01*
X193257075Y-139153039D01*
X193169684Y-139240196D01*
X193082294Y-139327353D01*
X192940902Y-139173521D01*
X192889176Y-139117926D01*
X192808376Y-139031953D01*
X192703833Y-138921235D01*
X192580879Y-138791403D01*
X192444843Y-138648089D01*
X192301059Y-138496927D01*
X192215040Y-138406644D01*
X192053549Y-138237509D01*
X191923017Y-138102033D01*
X191820116Y-137997752D01*
X191741517Y-137922203D01*
X191683892Y-137872922D01*
X191643911Y-137847446D01*
X191618248Y-137843311D01*
X191603573Y-137858054D01*
X191596558Y-137889212D01*
X191593875Y-137934320D01*
X191593515Y-137946630D01*
X191574863Y-138031433D01*
X191528906Y-138133934D01*
X191464819Y-138237924D01*
X191391774Y-138327191D01*
X191362546Y-138354766D01*
X191212578Y-138451250D01*
X191037395Y-138505234D01*
X190882512Y-138518039D01*
X190706986Y-138493886D01*
X190544879Y-138423061D01*
X190401404Y-138308017D01*
X190374932Y-138279381D01*
X190278133Y-138169412D01*
X188603529Y-138169412D01*
X188603529Y-138518039D01*
X188155294Y-138518039D01*
X188155294Y-138355168D01*
X188149669Y-138243980D01*
X188130771Y-138166805D01*
X188107803Y-138124825D01*
X188091393Y-138094789D01*
X188077341Y-138051239D01*
X188064716Y-137987720D01*
X188052587Y-137897774D01*
X188040024Y-137774947D01*
X188026094Y-137612782D01*
X188016556Y-137492144D01*
X187972800Y-136926934D01*
X186898626Y-138015085D01*
X186704405Y-138211981D01*
X186517957Y-138401281D01*
X186342690Y-138579506D01*
X186182011Y-138743180D01*
X186039326Y-138888824D01*
X185918042Y-139012962D01*
X185821566Y-139112115D01*
X185753304Y-139182807D01*
X185716702Y-139221520D01*
X185656568Y-139282811D01*
X185606408Y-139325559D01*
X185579429Y-139339804D01*
X185544968Y-139323118D01*
X185494736Y-139281425D01*
X185477709Y-139264447D01*
X185405512Y-139189089D01*
X185803001Y-138785164D01*
X185904408Y-138682266D01*
X186035167Y-138549820D01*
X186189541Y-138393625D01*
X186361796Y-138219478D01*
X186546194Y-138033176D01*
X186736999Y-137840518D01*
X186928477Y-137647301D01*
X187065833Y-137508777D01*
X187274628Y-137297678D01*
X187450038Y-137118960D01*
X187594308Y-136970204D01*
X187709680Y-136848991D01*
X187798399Y-136752903D01*
X187842370Y-136702727D01*
X188195469Y-136702727D01*
X188239677Y-137267981D01*
X188253009Y-137433668D01*
X188265905Y-137585185D01*
X188277636Y-137714611D01*
X188287470Y-137814027D01*
X188294676Y-137875515D01*
X188296995Y-137889265D01*
X188310105Y-137945294D01*
X190190436Y-137945294D01*
X190202988Y-137788925D01*
X190240884Y-137604173D01*
X190320188Y-137440742D01*
X190435899Y-137304585D01*
X190583019Y-137201654D01*
X190748146Y-137139866D01*
X190801716Y-137110883D01*
X190828535Y-137048680D01*
X190829097Y-137045937D01*
X190832315Y-137019677D01*
X190828337Y-136992787D01*
X190813281Y-136960279D01*
X190783264Y-136917166D01*
X190734403Y-136858461D01*
X190662816Y-136779174D01*
X190564620Y-136674319D01*
X190435932Y-136538907D01*
X190427617Y-136530186D01*
X190289200Y-136384837D01*
X190142043Y-136230021D01*
X189996259Y-136076397D01*
X189861958Y-135934623D01*
X189749253Y-135815355D01*
X189724118Y-135788692D01*
X189627762Y-135688153D01*
X189542166Y-135602115D01*
X189473473Y-135536496D01*
X189427828Y-135497214D01*
X189412503Y-135488580D01*
X189389648Y-135506650D01*
X189336201Y-135556219D01*
X189256370Y-135633162D01*
X189154364Y-135733351D01*
X189034392Y-135852660D01*
X188900663Y-135986962D01*
X188791364Y-136097589D01*
X188195469Y-136702727D01*
X187842370Y-136702727D01*
X187862708Y-136679519D01*
X187904852Y-136626420D01*
X187927073Y-136591189D01*
X187932017Y-136574873D01*
X187930144Y-136539266D01*
X187924454Y-136458669D01*
X187915315Y-136337720D01*
X187903096Y-136181058D01*
X187888164Y-135993320D01*
X187870887Y-135779146D01*
X187851635Y-135543172D01*
X187830775Y-135290036D01*
X187813963Y-135087729D01*
X187718843Y-133947099D01*
X187963602Y-133947099D01*
X187964656Y-133971714D01*
X187969614Y-134041041D01*
X187978078Y-134150171D01*
X187989648Y-134294200D01*
X188003928Y-134468219D01*
X188020517Y-134667322D01*
X188039019Y-134886604D01*
X188056775Y-135094797D01*
X188076887Y-135331016D01*
X188095621Y-135554000D01*
X188112546Y-135758428D01*
X188127235Y-135938975D01*
X188139257Y-136090320D01*
X188148183Y-136207139D01*
X188153585Y-136284111D01*
X188155084Y-136314004D01*
X188157423Y-136332608D01*
X188166689Y-136339991D01*
X188186454Y-136333070D01*
X188220290Y-136308767D01*
X188271769Y-136263999D01*
X188344462Y-136195688D01*
X188441942Y-136100751D01*
X188567779Y-135976110D01*
X188701297Y-135842917D01*
X189247301Y-135297337D01*
X189243474Y-135293235D01*
X189604387Y-135293235D01*
X189620836Y-135315761D01*
X189666883Y-135368801D01*
X189737914Y-135447481D01*
X189829314Y-135546926D01*
X189936468Y-135662261D01*
X190054760Y-135788612D01*
X190179576Y-135921104D01*
X190306300Y-136054863D01*
X190430318Y-136185013D01*
X190547013Y-136306680D01*
X190651772Y-136414990D01*
X190739979Y-136505068D01*
X190807019Y-136572038D01*
X190848276Y-136611027D01*
X190859527Y-136618970D01*
X190863236Y-136593332D01*
X190870935Y-136522519D01*
X190882202Y-136410964D01*
X190896611Y-136263100D01*
X190913741Y-136083359D01*
X190933167Y-135876175D01*
X190954467Y-135645981D01*
X190977217Y-135397210D01*
X190995381Y-135196615D01*
X191018616Y-134936512D01*
X191040083Y-134691484D01*
X191059421Y-134465976D01*
X191076268Y-134264432D01*
X191090265Y-134091297D01*
X191101050Y-133951018D01*
X191108261Y-133848037D01*
X191111539Y-133786801D01*
X191111164Y-133770902D01*
X191091574Y-133785064D01*
X191041689Y-133830587D01*
X190965868Y-133903064D01*
X190868472Y-133998090D01*
X190753864Y-134111258D01*
X190626403Y-134238162D01*
X190490452Y-134374396D01*
X190350371Y-134515554D01*
X190210522Y-134657230D01*
X190075265Y-134795016D01*
X189948962Y-134924508D01*
X189835974Y-135041300D01*
X189740662Y-135140984D01*
X189667388Y-135219154D01*
X189620511Y-135271406D01*
X189604387Y-135293235D01*
X189243474Y-135293235D01*
X189043699Y-135079132D01*
X188940008Y-134968393D01*
X188823628Y-134844759D01*
X188699160Y-134713054D01*
X188571206Y-134578100D01*
X188444367Y-134444720D01*
X188323245Y-134317737D01*
X188212442Y-134201972D01*
X188116558Y-134102250D01*
X188040194Y-134023392D01*
X187987954Y-133970222D01*
X187964437Y-133947562D01*
X187963602Y-133947099D01*
X187718843Y-133947099D01*
X187695069Y-133662026D01*
X185316471Y-131160520D01*
X185318221Y-130810882D01*
X185510336Y-131016103D01*
X185617855Y-131130564D01*
X185744796Y-131265041D01*
X185887734Y-131415956D01*
X186043243Y-131579729D01*
X186207897Y-131752782D01*
X186378271Y-131931537D01*
X186550939Y-132112415D01*
X186722475Y-132291838D01*
X186889454Y-132466226D01*
X187048450Y-132632002D01*
X187196037Y-132785586D01*
X187328789Y-132923400D01*
X187443282Y-133041866D01*
X187536088Y-133137404D01*
X187603783Y-133206437D01*
X187642940Y-133245385D01*
X187651522Y-133252857D01*
X187652112Y-133226866D01*
X187648866Y-133160319D01*
X187642347Y-133062272D01*
X187633120Y-132941779D01*
X187629159Y-132893645D01*
X187599661Y-132541569D01*
X187830620Y-132541569D01*
X187842544Y-132597598D01*
X187848625Y-132641909D01*
X187857170Y-132725283D01*
X187867191Y-132837097D01*
X187877701Y-132966728D01*
X187881338Y-133014706D01*
X187892066Y-133152460D01*
X187902894Y-133280387D01*
X187912739Y-133386399D01*
X187920518Y-133458409D01*
X187922272Y-133471477D01*
X187928889Y-133498307D01*
X187943212Y-133529712D01*
X187968287Y-133569214D01*
X188007159Y-133620332D01*
X188062874Y-133686589D01*
X188138477Y-133771503D01*
X188237013Y-133878595D01*
X188361529Y-134011386D01*
X188515070Y-134173397D01*
X188671700Y-134337783D01*
X188827530Y-134500461D01*
X188972994Y-134651118D01*
X189104469Y-134786093D01*
X189218335Y-134901722D01*
X189310970Y-134994343D01*
X189378754Y-135060294D01*
X189418065Y-135095910D01*
X189426448Y-135101208D01*
X189448504Y-135081996D01*
X189500058Y-135031893D01*
X189576106Y-134955926D01*
X189671645Y-134859121D01*
X189781672Y-134746504D01*
X189861240Y-134664461D01*
X190276650Y-134234902D01*
X189051765Y-134234902D01*
X189051765Y-133761765D01*
X190545882Y-133761765D01*
X190545882Y-133972582D01*
X190819804Y-133699510D01*
X191014116Y-133505800D01*
X191392549Y-133505800D01*
X191396169Y-133536358D01*
X191414491Y-133553383D01*
X191458707Y-133560801D01*
X191540012Y-133562536D01*
X191554412Y-133562549D01*
X191716274Y-133562549D01*
X191716274Y-133128204D01*
X191554412Y-133288628D01*
X191463105Y-133386161D01*
X191408493Y-133460883D01*
X191392549Y-133505800D01*
X191014116Y-133505800D01*
X191093725Y-133426438D01*
X191093725Y-133183219D01*
X191094488Y-133071323D01*
X191097979Y-133000137D01*
X191106000Y-132960579D01*
X191120356Y-132943562D01*
X191142004Y-132940000D01*
X191166080Y-132934771D01*
X191183875Y-132913805D01*
X191197541Y-132869186D01*
X191209228Y-132792997D01*
X191221089Y-132677320D01*
X191224896Y-132634951D01*
X191233137Y-132541569D01*
X187830620Y-132541569D01*
X187599661Y-132541569D01*
X187283725Y-132541569D01*
X187283725Y-132317451D01*
X187417987Y-132317451D01*
X187496514Y-132315300D01*
X187539183Y-132304919D01*
X187544403Y-132298740D01*
X187819407Y-132298740D01*
X187833880Y-132312855D01*
X187884014Y-132317212D01*
X187917849Y-132317451D01*
X188030784Y-132317451D01*
X188451936Y-132317451D01*
X191253245Y-132317451D01*
X191158496Y-132220419D01*
X191011336Y-132100681D01*
X190829207Y-132008330D01*
X190609023Y-131942100D01*
X190390245Y-131905470D01*
X190247059Y-131888379D01*
X190247059Y-132068431D01*
X189101569Y-132068431D01*
X189101569Y-131864161D01*
X188933480Y-131881197D01*
X188816037Y-131895574D01*
X188690909Y-131914633D01*
X188615980Y-131928245D01*
X188466569Y-131958257D01*
X188459252Y-132137854D01*
X188451936Y-132317451D01*
X188030784Y-132317451D01*
X188030784Y-132217843D01*
X188027492Y-132155443D01*
X188019267Y-132120760D01*
X188015952Y-132118235D01*
X187979086Y-132134208D01*
X187925226Y-132172957D01*
X187871231Y-132220732D01*
X187833962Y-132263781D01*
X187830642Y-132269379D01*
X187819407Y-132298740D01*
X187544403Y-132298740D01*
X187559885Y-132280416D01*
X187568242Y-132253724D01*
X187602352Y-132184456D01*
X187667864Y-132101185D01*
X187753507Y-132015587D01*
X187848009Y-131939339D01*
X187910083Y-131899625D01*
X187980795Y-131856155D01*
X188017044Y-131819638D01*
X188029780Y-131776578D01*
X188030759Y-131750931D01*
X188030760Y-131744706D01*
X189300784Y-131744706D01*
X189300784Y-131869216D01*
X190047843Y-131869216D01*
X190047843Y-131744706D01*
X189300784Y-131744706D01*
X188030760Y-131744706D01*
X188030784Y-131670000D01*
X188240376Y-131670000D01*
X188336807Y-131672331D01*
X188411963Y-131678543D01*
X188453743Y-131687465D01*
X188458268Y-131691078D01*
X188484770Y-131696624D01*
X188549267Y-131694352D01*
X188640677Y-131684935D01*
X188703137Y-131676240D01*
X188816392Y-131659159D01*
X188919970Y-131643739D01*
X188997808Y-131632363D01*
X189020637Y-131629132D01*
X189080282Y-131610660D01*
X189101569Y-131581715D01*
X189108041Y-131569926D01*
X189131192Y-131560933D01*
X189176626Y-131554381D01*
X189249945Y-131549915D01*
X189356754Y-131547181D01*
X189502654Y-131545826D01*
X189674314Y-131545490D01*
X189857519Y-131545681D01*
X189996892Y-131546579D01*
X190098404Y-131548677D01*
X190168026Y-131552467D01*
X190211731Y-131558439D01*
X190235488Y-131567085D01*
X190245269Y-131578897D01*
X190247059Y-131592630D01*
X190262295Y-131636221D01*
X190312201Y-131661027D01*
X190403076Y-131669874D01*
X190419426Y-131670000D01*
X190573320Y-131685876D01*
X190748109Y-131729579D01*
X190928032Y-131795224D01*
X191097324Y-131876927D01*
X191240223Y-131968801D01*
X191258731Y-131983358D01*
X191319056Y-132030720D01*
X191354780Y-132049690D01*
X191379728Y-132043557D01*
X191405336Y-132018256D01*
X191480972Y-131968695D01*
X191579409Y-131949669D01*
X191685412Y-131959564D01*
X191783746Y-131996763D01*
X191859176Y-132059651D01*
X191864639Y-132066961D01*
X191921081Y-132184354D01*
X191931582Y-132305869D01*
X191897301Y-132421707D01*
X191819396Y-132522068D01*
X191809870Y-132530355D01*
X191754558Y-132569722D01*
X191698438Y-132587058D01*
X191619541Y-132588310D01*
X191599832Y-132587200D01*
X191522638Y-132584367D01*
X191482876Y-132590857D01*
X191468481Y-132610441D01*
X191467004Y-132628726D01*
X191463987Y-132681768D01*
X191456500Y-132761539D01*
X191451119Y-132809265D01*
X191443314Y-132885069D01*
X191446560Y-132923874D01*
X191465383Y-132938058D01*
X191498911Y-132940000D01*
X191518796Y-132933587D01*
X191550874Y-132912831D01*
X191597522Y-132875456D01*
X191661118Y-132819189D01*
X191744038Y-132741755D01*
X191848660Y-132640878D01*
X191977361Y-132514283D01*
X192132518Y-132359696D01*
X192316508Y-132174842D01*
X192531709Y-131957446D01*
X192635419Y-131852395D01*
X193708431Y-130764791D01*
X193707205Y-130937248D01*
G36*
X192961372Y-142726471D02*
G01*
X185988823Y-142726471D01*
X185988823Y-141008235D01*
X192961372Y-141008235D01*
X192961372Y-142726471D01*
G37*
X192961372Y-142726471D02*
X185988823Y-142726471D01*
X185988823Y-141008235D01*
X192961372Y-141008235D01*
X192961372Y-142726471D01*
D12*
X199380000Y-135870000D02*
X199380000Y-81630000D01*
X199380000Y-135870000D02*
X243620000Y-135870000D01*
X243620000Y-81630000D02*
X199380000Y-81630000D01*
X243620000Y-81630000D02*
X243620000Y-135870000D01*
X204500000Y-87750000D02*
X238500000Y-87750000D01*
X204500000Y-129750000D02*
X204500000Y-87750000D01*
X238500000Y-129750000D02*
X204500000Y-129750000D01*
X238500000Y-87750000D02*
X238500000Y-129750000D01*
X220910000Y-50408578D02*
X220910000Y-49891422D01*
X219490000Y-50408578D02*
X219490000Y-49891422D01*
X226641000Y-61080000D02*
X226641000Y-62590000D01*
X222940000Y-61080000D02*
X222940000Y-62590000D01*
X219670000Y-62590000D02*
X229910000Y-62590000D01*
X229910000Y-61080000D02*
X229910000Y-65721000D01*
X219670000Y-61080000D02*
X219670000Y-65721000D01*
X219670000Y-65721000D02*
X229910000Y-65721000D01*
X219670000Y-61080000D02*
X229910000Y-61080000D01*
D11*
X186500000Y-59000000D02*
X186500000Y-47000000D01*
X178500000Y-59000000D02*
X190500000Y-59000000D01*
X178500000Y-47000000D02*
X178500000Y-59000000D01*
X190500000Y-47000000D02*
X178500000Y-47000000D01*
X190500000Y-59000000D02*
X190500000Y-47000000D01*
X193000000Y-127000000D02*
X193000000Y-115000000D01*
X185000000Y-127000000D02*
X197000000Y-127000000D01*
X185000000Y-115000000D02*
X185000000Y-127000000D01*
X197000000Y-115000000D02*
X185000000Y-115000000D01*
X197000000Y-127000000D02*
X197000000Y-115000000D01*
D12*
X186200000Y-87500000D02*
X189000000Y-87500000D01*
X186200000Y-87500000D02*
X186200000Y-110000000D01*
X195800000Y-87500000D02*
X195800000Y-110000000D01*
X193000000Y-87500000D02*
X195800000Y-87500000D01*
X193000000Y-110000000D02*
X195800000Y-110000000D01*
X186200000Y-110000000D02*
X189000000Y-110000000D01*
X229670000Y-72970000D02*
X226730000Y-72970000D01*
X229670000Y-73210000D02*
X226730000Y-73210000D01*
X229670000Y-73090000D02*
X226730000Y-73090000D01*
X226730000Y-77630000D02*
X226860000Y-77630000D01*
X226730000Y-72190000D02*
X226730000Y-77630000D01*
X226860000Y-72190000D02*
X226730000Y-72190000D01*
X229670000Y-77630000D02*
X229540000Y-77630000D01*
X229670000Y-72190000D02*
X229670000Y-77630000D01*
X229540000Y-72190000D02*
X229670000Y-72190000D01*
X217670000Y-72970000D02*
X214730000Y-72970000D01*
X217670000Y-73210000D02*
X214730000Y-73210000D01*
X217670000Y-73090000D02*
X214730000Y-73090000D01*
X214730000Y-77630000D02*
X214860000Y-77630000D01*
X214730000Y-72190000D02*
X214730000Y-77630000D01*
X214860000Y-72190000D02*
X214730000Y-72190000D01*
X217670000Y-77630000D02*
X217540000Y-77630000D01*
X217670000Y-72190000D02*
X217670000Y-77630000D01*
X217540000Y-72190000D02*
X217670000Y-72190000D01*
X232230000Y-76730000D02*
X235170000Y-76730000D01*
X232230000Y-76490000D02*
X235170000Y-76490000D01*
X232230000Y-76610000D02*
X235170000Y-76610000D01*
X235170000Y-72070000D02*
X235040000Y-72070000D01*
X235170000Y-77510000D02*
X235170000Y-72070000D01*
X235040000Y-77510000D02*
X235170000Y-77510000D01*
X232230000Y-72070000D02*
X232360000Y-72070000D01*
X232230000Y-77510000D02*
X232230000Y-72070000D01*
X232360000Y-77510000D02*
X232230000Y-77510000D01*
X220730000Y-76730000D02*
X223670000Y-76730000D01*
X220730000Y-76490000D02*
X223670000Y-76490000D01*
X220730000Y-76610000D02*
X223670000Y-76610000D01*
X223670000Y-72070000D02*
X223540000Y-72070000D01*
X223670000Y-77510000D02*
X223670000Y-72070000D01*
X223540000Y-77510000D02*
X223670000Y-77510000D01*
X220730000Y-72070000D02*
X220860000Y-72070000D01*
X220730000Y-77510000D02*
X220730000Y-72070000D01*
X220860000Y-77510000D02*
X220730000Y-77510000D01*
X218590000Y-50332779D02*
X218590000Y-50007221D01*
X217570000Y-50332779D02*
X217570000Y-50007221D01*
X192979646Y-72375000D02*
X192979646Y-71375000D01*
X193479646Y-71875000D02*
X192479646Y-71875000D01*
X182919000Y-69599000D02*
X182919000Y-68401000D01*
X182959000Y-69862000D02*
X182959000Y-68138000D01*
X182999000Y-70062000D02*
X182999000Y-67938000D01*
X183039000Y-70230000D02*
X183039000Y-67770000D01*
X183079000Y-70378000D02*
X183079000Y-67622000D01*
X183119000Y-70510000D02*
X183119000Y-67490000D01*
X183159000Y-70630000D02*
X183159000Y-67370000D01*
X183199000Y-70742000D02*
X183199000Y-67258000D01*
X183239000Y-70846000D02*
X183239000Y-67154000D01*
X183279000Y-70944000D02*
X183279000Y-67056000D01*
X183319000Y-71037000D02*
X183319000Y-66963000D01*
X183359000Y-71125000D02*
X183359000Y-66875000D01*
X183399000Y-71209000D02*
X183399000Y-66791000D01*
X183439000Y-71289000D02*
X183439000Y-66711000D01*
X183479000Y-71365000D02*
X183479000Y-66635000D01*
X183519000Y-71439000D02*
X183519000Y-66561000D01*
X183559000Y-71510000D02*
X183559000Y-66490000D01*
X183599000Y-71579000D02*
X183599000Y-66421000D01*
X183639000Y-71645000D02*
X183639000Y-66355000D01*
X183679000Y-71709000D02*
X183679000Y-66291000D01*
X183719000Y-71770000D02*
X183719000Y-66230000D01*
X183759000Y-71830000D02*
X183759000Y-66170000D01*
X183799000Y-71889000D02*
X183799000Y-66111000D01*
X183839000Y-71945000D02*
X183839000Y-66055000D01*
X183879000Y-72000000D02*
X183879000Y-66000000D01*
X183919000Y-72054000D02*
X183919000Y-65946000D01*
X183959000Y-72106000D02*
X183959000Y-65894000D01*
X183999000Y-72156000D02*
X183999000Y-65844000D01*
X184039000Y-72206000D02*
X184039000Y-65794000D01*
X184079000Y-72254000D02*
X184079000Y-65746000D01*
X184119000Y-72301000D02*
X184119000Y-65699000D01*
X184159000Y-72347000D02*
X184159000Y-65653000D01*
X184199000Y-72392000D02*
X184199000Y-65608000D01*
X184239000Y-72436000D02*
X184239000Y-65564000D01*
X184279000Y-67759000D02*
X184279000Y-65522000D01*
X184279000Y-72478000D02*
X184279000Y-70241000D01*
X184319000Y-67759000D02*
X184319000Y-65480000D01*
X184319000Y-72520000D02*
X184319000Y-70241000D01*
X184359000Y-67759000D02*
X184359000Y-65439000D01*
X184359000Y-72561000D02*
X184359000Y-70241000D01*
X184399000Y-67759000D02*
X184399000Y-65399000D01*
X184399000Y-72601000D02*
X184399000Y-70241000D01*
X184439000Y-67759000D02*
X184439000Y-65360000D01*
X184439000Y-72640000D02*
X184439000Y-70241000D01*
X184479000Y-67759000D02*
X184479000Y-65321000D01*
X184479000Y-72679000D02*
X184479000Y-70241000D01*
X184519000Y-67759000D02*
X184519000Y-65284000D01*
X184519000Y-72716000D02*
X184519000Y-70241000D01*
X184559000Y-67759000D02*
X184559000Y-65247000D01*
X184559000Y-72753000D02*
X184559000Y-70241000D01*
X184599000Y-67759000D02*
X184599000Y-65211000D01*
X184599000Y-72789000D02*
X184599000Y-70241000D01*
X184639000Y-67759000D02*
X184639000Y-65176000D01*
X184639000Y-72824000D02*
X184639000Y-70241000D01*
X184679000Y-67759000D02*
X184679000Y-65142000D01*
X184679000Y-72858000D02*
X184679000Y-70241000D01*
X184719000Y-67759000D02*
X184719000Y-65108000D01*
X184719000Y-72892000D02*
X184719000Y-70241000D01*
X184759000Y-67759000D02*
X184759000Y-65075000D01*
X184759000Y-72925000D02*
X184759000Y-70241000D01*
X184799000Y-67759000D02*
X184799000Y-65043000D01*
X184799000Y-72957000D02*
X184799000Y-70241000D01*
X184839000Y-67759000D02*
X184839000Y-65011000D01*
X184839000Y-72989000D02*
X184839000Y-70241000D01*
X184879000Y-67759000D02*
X184879000Y-64980000D01*
X184879000Y-73020000D02*
X184879000Y-70241000D01*
X184919000Y-67759000D02*
X184919000Y-64950000D01*
X184919000Y-73050000D02*
X184919000Y-70241000D01*
X184959000Y-67759000D02*
X184959000Y-64920000D01*
X184959000Y-73080000D02*
X184959000Y-70241000D01*
X184999000Y-67759000D02*
X184999000Y-64890000D01*
X184999000Y-73110000D02*
X184999000Y-70241000D01*
X185039000Y-67759000D02*
X185039000Y-64862000D01*
X185039000Y-73138000D02*
X185039000Y-70241000D01*
X185079000Y-67759000D02*
X185079000Y-64834000D01*
X185079000Y-73166000D02*
X185079000Y-70241000D01*
X185119000Y-67759000D02*
X185119000Y-64806000D01*
X185119000Y-73194000D02*
X185119000Y-70241000D01*
X185159000Y-67759000D02*
X185159000Y-64779000D01*
X185159000Y-73221000D02*
X185159000Y-70241000D01*
X185199000Y-67759000D02*
X185199000Y-64753000D01*
X185199000Y-73247000D02*
X185199000Y-70241000D01*
X185239000Y-67759000D02*
X185239000Y-64727000D01*
X185239000Y-73273000D02*
X185239000Y-70241000D01*
X185279000Y-67759000D02*
X185279000Y-64702000D01*
X185279000Y-73298000D02*
X185279000Y-70241000D01*
X185319000Y-67759000D02*
X185319000Y-64677000D01*
X185319000Y-73323000D02*
X185319000Y-70241000D01*
X185359000Y-67759000D02*
X185359000Y-64653000D01*
X185359000Y-73347000D02*
X185359000Y-70241000D01*
X185399000Y-67759000D02*
X185399000Y-64629000D01*
X185399000Y-73371000D02*
X185399000Y-70241000D01*
X185439000Y-67759000D02*
X185439000Y-64605000D01*
X185439000Y-73395000D02*
X185439000Y-70241000D01*
X185479000Y-67759000D02*
X185479000Y-64583000D01*
X185479000Y-73417000D02*
X185479000Y-70241000D01*
X185519000Y-67759000D02*
X185519000Y-64560000D01*
X185519000Y-73440000D02*
X185519000Y-70241000D01*
X185559000Y-67759000D02*
X185559000Y-64538000D01*
X185559000Y-73462000D02*
X185559000Y-70241000D01*
X185599000Y-67759000D02*
X185599000Y-64517000D01*
X185599000Y-73483000D02*
X185599000Y-70241000D01*
X185639000Y-67759000D02*
X185639000Y-64496000D01*
X185639000Y-73504000D02*
X185639000Y-70241000D01*
X185679000Y-67759000D02*
X185679000Y-64475000D01*
X185679000Y-73525000D02*
X185679000Y-70241000D01*
X185719000Y-67759000D02*
X185719000Y-64455000D01*
X185719000Y-73545000D02*
X185719000Y-70241000D01*
X185759000Y-67759000D02*
X185759000Y-64436000D01*
X185759000Y-73564000D02*
X185759000Y-70241000D01*
X185799000Y-67759000D02*
X185799000Y-64416000D01*
X185799000Y-73584000D02*
X185799000Y-70241000D01*
X185839000Y-67759000D02*
X185839000Y-64397000D01*
X185839000Y-73603000D02*
X185839000Y-70241000D01*
X185879000Y-67759000D02*
X185879000Y-64379000D01*
X185879000Y-73621000D02*
X185879000Y-70241000D01*
X185919000Y-67759000D02*
X185919000Y-64361000D01*
X185919000Y-73639000D02*
X185919000Y-70241000D01*
X185959000Y-67759000D02*
X185959000Y-64343000D01*
X185959000Y-73657000D02*
X185959000Y-70241000D01*
X185999000Y-67759000D02*
X185999000Y-64326000D01*
X185999000Y-73674000D02*
X185999000Y-70241000D01*
X186039000Y-67759000D02*
X186039000Y-64310000D01*
X186039000Y-73690000D02*
X186039000Y-70241000D01*
X186079000Y-67759000D02*
X186079000Y-64293000D01*
X186079000Y-73707000D02*
X186079000Y-70241000D01*
X186119000Y-67759000D02*
X186119000Y-64277000D01*
X186119000Y-73723000D02*
X186119000Y-70241000D01*
X186159000Y-67759000D02*
X186159000Y-64262000D01*
X186159000Y-73738000D02*
X186159000Y-70241000D01*
X186199000Y-67759000D02*
X186199000Y-64246000D01*
X186199000Y-73754000D02*
X186199000Y-70241000D01*
X186239000Y-67759000D02*
X186239000Y-64232000D01*
X186239000Y-73768000D02*
X186239000Y-70241000D01*
X186279000Y-67759000D02*
X186279000Y-64217000D01*
X186279000Y-73783000D02*
X186279000Y-70241000D01*
X186319000Y-67759000D02*
X186319000Y-64203000D01*
X186319000Y-73797000D02*
X186319000Y-70241000D01*
X186359000Y-67759000D02*
X186359000Y-64189000D01*
X186359000Y-73811000D02*
X186359000Y-70241000D01*
X186399000Y-67759000D02*
X186399000Y-64176000D01*
X186399000Y-73824000D02*
X186399000Y-70241000D01*
X186439000Y-67759000D02*
X186439000Y-64163000D01*
X186439000Y-73837000D02*
X186439000Y-70241000D01*
X186479000Y-67759000D02*
X186479000Y-64150000D01*
X186479000Y-73850000D02*
X186479000Y-70241000D01*
X186519000Y-67759000D02*
X186519000Y-64138000D01*
X186519000Y-73862000D02*
X186519000Y-70241000D01*
X186559000Y-67759000D02*
X186559000Y-64126000D01*
X186559000Y-73874000D02*
X186559000Y-70241000D01*
X186599000Y-67759000D02*
X186599000Y-64115000D01*
X186599000Y-73885000D02*
X186599000Y-70241000D01*
X186639000Y-67759000D02*
X186639000Y-64103000D01*
X186639000Y-73897000D02*
X186639000Y-70241000D01*
X186679000Y-67759000D02*
X186679000Y-64093000D01*
X186679000Y-73907000D02*
X186679000Y-70241000D01*
X186719000Y-67759000D02*
X186719000Y-64082000D01*
X186719000Y-73918000D02*
X186719000Y-70241000D01*
X186759000Y-73928000D02*
X186759000Y-64072000D01*
X186799000Y-73938000D02*
X186799000Y-64062000D01*
X186839000Y-73947000D02*
X186839000Y-64053000D01*
X186879000Y-73956000D02*
X186879000Y-64044000D01*
X186919000Y-73965000D02*
X186919000Y-64035000D01*
X186959000Y-73974000D02*
X186959000Y-64026000D01*
X186999000Y-73982000D02*
X186999000Y-64018000D01*
X187039000Y-73990000D02*
X187039000Y-64010000D01*
X187079000Y-73997000D02*
X187079000Y-64003000D01*
X187119000Y-74004000D02*
X187119000Y-63996000D01*
X187159000Y-74011000D02*
X187159000Y-63989000D01*
X187199000Y-74018000D02*
X187199000Y-63982000D01*
X187239000Y-74024000D02*
X187239000Y-63976000D01*
X187279000Y-74030000D02*
X187279000Y-63970000D01*
X187320000Y-74035000D02*
X187320000Y-63965000D01*
X187360000Y-74040000D02*
X187360000Y-63960000D01*
X187400000Y-74045000D02*
X187400000Y-63955000D01*
X187440000Y-74050000D02*
X187440000Y-63950000D01*
X187480000Y-74054000D02*
X187480000Y-63946000D01*
X187520000Y-74058000D02*
X187520000Y-63942000D01*
X187560000Y-74062000D02*
X187560000Y-63938000D01*
X187600000Y-74065000D02*
X187600000Y-63935000D01*
X187640000Y-74068000D02*
X187640000Y-63932000D01*
X187680000Y-74070000D02*
X187680000Y-63930000D01*
X187720000Y-74073000D02*
X187720000Y-63927000D01*
X187760000Y-74075000D02*
X187760000Y-63925000D01*
X187800000Y-74077000D02*
X187800000Y-63923000D01*
X187840000Y-74078000D02*
X187840000Y-63922000D01*
X187880000Y-74079000D02*
X187880000Y-63921000D01*
X187920000Y-74080000D02*
X187920000Y-63920000D01*
X187960000Y-74080000D02*
X187960000Y-63920000D01*
X188000000Y-74080000D02*
X188000000Y-63920000D01*
X193120000Y-69000000D02*
G75*
G03X193120000Y-69000000I-5120000J0D01*
G01*
X195125000Y-67479646D02*
X196125000Y-67479646D01*
X195625000Y-67979646D02*
X195625000Y-66979646D01*
X197901000Y-57419000D02*
X199099000Y-57419000D01*
X197638000Y-57459000D02*
X199362000Y-57459000D01*
X197438000Y-57499000D02*
X199562000Y-57499000D01*
X197270000Y-57539000D02*
X199730000Y-57539000D01*
X197122000Y-57579000D02*
X199878000Y-57579000D01*
X196990000Y-57619000D02*
X200010000Y-57619000D01*
X196870000Y-57659000D02*
X200130000Y-57659000D01*
X196758000Y-57699000D02*
X200242000Y-57699000D01*
X196654000Y-57739000D02*
X200346000Y-57739000D01*
X196556000Y-57779000D02*
X200444000Y-57779000D01*
X196463000Y-57819000D02*
X200537000Y-57819000D01*
X196375000Y-57859000D02*
X200625000Y-57859000D01*
X196291000Y-57899000D02*
X200709000Y-57899000D01*
X196211000Y-57939000D02*
X200789000Y-57939000D01*
X196135000Y-57979000D02*
X200865000Y-57979000D01*
X196061000Y-58019000D02*
X200939000Y-58019000D01*
X195990000Y-58059000D02*
X201010000Y-58059000D01*
X195921000Y-58099000D02*
X201079000Y-58099000D01*
X195855000Y-58139000D02*
X201145000Y-58139000D01*
X195791000Y-58179000D02*
X201209000Y-58179000D01*
X195730000Y-58219000D02*
X201270000Y-58219000D01*
X195670000Y-58259000D02*
X201330000Y-58259000D01*
X195611000Y-58299000D02*
X201389000Y-58299000D01*
X195555000Y-58339000D02*
X201445000Y-58339000D01*
X195500000Y-58379000D02*
X201500000Y-58379000D01*
X195446000Y-58419000D02*
X201554000Y-58419000D01*
X195394000Y-58459000D02*
X201606000Y-58459000D01*
X195344000Y-58499000D02*
X201656000Y-58499000D01*
X195294000Y-58539000D02*
X201706000Y-58539000D01*
X195246000Y-58579000D02*
X201754000Y-58579000D01*
X195199000Y-58619000D02*
X201801000Y-58619000D01*
X195153000Y-58659000D02*
X201847000Y-58659000D01*
X195108000Y-58699000D02*
X201892000Y-58699000D01*
X195064000Y-58739000D02*
X201936000Y-58739000D01*
X199741000Y-58779000D02*
X201978000Y-58779000D01*
X195022000Y-58779000D02*
X197259000Y-58779000D01*
X199741000Y-58819000D02*
X202020000Y-58819000D01*
X194980000Y-58819000D02*
X197259000Y-58819000D01*
X199741000Y-58859000D02*
X202061000Y-58859000D01*
X194939000Y-58859000D02*
X197259000Y-58859000D01*
X199741000Y-58899000D02*
X202101000Y-58899000D01*
X194899000Y-58899000D02*
X197259000Y-58899000D01*
X199741000Y-58939000D02*
X202140000Y-58939000D01*
X194860000Y-58939000D02*
X197259000Y-58939000D01*
X199741000Y-58979000D02*
X202179000Y-58979000D01*
X194821000Y-58979000D02*
X197259000Y-58979000D01*
X199741000Y-59019000D02*
X202216000Y-59019000D01*
X194784000Y-59019000D02*
X197259000Y-59019000D01*
X199741000Y-59059000D02*
X202253000Y-59059000D01*
X194747000Y-59059000D02*
X197259000Y-59059000D01*
X199741000Y-59099000D02*
X202289000Y-59099000D01*
X194711000Y-59099000D02*
X197259000Y-59099000D01*
X199741000Y-59139000D02*
X202324000Y-59139000D01*
X194676000Y-59139000D02*
X197259000Y-59139000D01*
X199741000Y-59179000D02*
X202358000Y-59179000D01*
X194642000Y-59179000D02*
X197259000Y-59179000D01*
X199741000Y-59219000D02*
X202392000Y-59219000D01*
X194608000Y-59219000D02*
X197259000Y-59219000D01*
X199741000Y-59259000D02*
X202425000Y-59259000D01*
X194575000Y-59259000D02*
X197259000Y-59259000D01*
X199741000Y-59299000D02*
X202457000Y-59299000D01*
X194543000Y-59299000D02*
X197259000Y-59299000D01*
X199741000Y-59339000D02*
X202489000Y-59339000D01*
X194511000Y-59339000D02*
X197259000Y-59339000D01*
X199741000Y-59379000D02*
X202520000Y-59379000D01*
X194480000Y-59379000D02*
X197259000Y-59379000D01*
X199741000Y-59419000D02*
X202550000Y-59419000D01*
X194450000Y-59419000D02*
X197259000Y-59419000D01*
X199741000Y-59459000D02*
X202580000Y-59459000D01*
X194420000Y-59459000D02*
X197259000Y-59459000D01*
X199741000Y-59499000D02*
X202610000Y-59499000D01*
X194390000Y-59499000D02*
X197259000Y-59499000D01*
X199741000Y-59539000D02*
X202638000Y-59539000D01*
X194362000Y-59539000D02*
X197259000Y-59539000D01*
X199741000Y-59579000D02*
X202666000Y-59579000D01*
X194334000Y-59579000D02*
X197259000Y-59579000D01*
X199741000Y-59619000D02*
X202694000Y-59619000D01*
X194306000Y-59619000D02*
X197259000Y-59619000D01*
X199741000Y-59659000D02*
X202721000Y-59659000D01*
X194279000Y-59659000D02*
X197259000Y-59659000D01*
X199741000Y-59699000D02*
X202747000Y-59699000D01*
X194253000Y-59699000D02*
X197259000Y-59699000D01*
X199741000Y-59739000D02*
X202773000Y-59739000D01*
X194227000Y-59739000D02*
X197259000Y-59739000D01*
X199741000Y-59779000D02*
X202798000Y-59779000D01*
X194202000Y-59779000D02*
X197259000Y-59779000D01*
X199741000Y-59819000D02*
X202823000Y-59819000D01*
X194177000Y-59819000D02*
X197259000Y-59819000D01*
X199741000Y-59859000D02*
X202847000Y-59859000D01*
X194153000Y-59859000D02*
X197259000Y-59859000D01*
X199741000Y-59899000D02*
X202871000Y-59899000D01*
X194129000Y-59899000D02*
X197259000Y-59899000D01*
X199741000Y-59939000D02*
X202895000Y-59939000D01*
X194105000Y-59939000D02*
X197259000Y-59939000D01*
X199741000Y-59979000D02*
X202917000Y-59979000D01*
X194083000Y-59979000D02*
X197259000Y-59979000D01*
X199741000Y-60019000D02*
X202940000Y-60019000D01*
X194060000Y-60019000D02*
X197259000Y-60019000D01*
X199741000Y-60059000D02*
X202962000Y-60059000D01*
X194038000Y-60059000D02*
X197259000Y-60059000D01*
X199741000Y-60099000D02*
X202983000Y-60099000D01*
X194017000Y-60099000D02*
X197259000Y-60099000D01*
X199741000Y-60139000D02*
X203004000Y-60139000D01*
X193996000Y-60139000D02*
X197259000Y-60139000D01*
X199741000Y-60179000D02*
X203025000Y-60179000D01*
X193975000Y-60179000D02*
X197259000Y-60179000D01*
X199741000Y-60219000D02*
X203045000Y-60219000D01*
X193955000Y-60219000D02*
X197259000Y-60219000D01*
X199741000Y-60259000D02*
X203064000Y-60259000D01*
X193936000Y-60259000D02*
X197259000Y-60259000D01*
X199741000Y-60299000D02*
X203084000Y-60299000D01*
X193916000Y-60299000D02*
X197259000Y-60299000D01*
X199741000Y-60339000D02*
X203103000Y-60339000D01*
X193897000Y-60339000D02*
X197259000Y-60339000D01*
X199741000Y-60379000D02*
X203121000Y-60379000D01*
X193879000Y-60379000D02*
X197259000Y-60379000D01*
X199741000Y-60419000D02*
X203139000Y-60419000D01*
X193861000Y-60419000D02*
X197259000Y-60419000D01*
X199741000Y-60459000D02*
X203157000Y-60459000D01*
X193843000Y-60459000D02*
X197259000Y-60459000D01*
X199741000Y-60499000D02*
X203174000Y-60499000D01*
X193826000Y-60499000D02*
X197259000Y-60499000D01*
X199741000Y-60539000D02*
X203190000Y-60539000D01*
X193810000Y-60539000D02*
X197259000Y-60539000D01*
X199741000Y-60579000D02*
X203207000Y-60579000D01*
X193793000Y-60579000D02*
X197259000Y-60579000D01*
X199741000Y-60619000D02*
X203223000Y-60619000D01*
X193777000Y-60619000D02*
X197259000Y-60619000D01*
X199741000Y-60659000D02*
X203238000Y-60659000D01*
X193762000Y-60659000D02*
X197259000Y-60659000D01*
X199741000Y-60699000D02*
X203254000Y-60699000D01*
X193746000Y-60699000D02*
X197259000Y-60699000D01*
X199741000Y-60739000D02*
X203268000Y-60739000D01*
X193732000Y-60739000D02*
X197259000Y-60739000D01*
X199741000Y-60779000D02*
X203283000Y-60779000D01*
X193717000Y-60779000D02*
X197259000Y-60779000D01*
X199741000Y-60819000D02*
X203297000Y-60819000D01*
X193703000Y-60819000D02*
X197259000Y-60819000D01*
X199741000Y-60859000D02*
X203311000Y-60859000D01*
X193689000Y-60859000D02*
X197259000Y-60859000D01*
X199741000Y-60899000D02*
X203324000Y-60899000D01*
X193676000Y-60899000D02*
X197259000Y-60899000D01*
X199741000Y-60939000D02*
X203337000Y-60939000D01*
X193663000Y-60939000D02*
X197259000Y-60939000D01*
X199741000Y-60979000D02*
X203350000Y-60979000D01*
X193650000Y-60979000D02*
X197259000Y-60979000D01*
X199741000Y-61019000D02*
X203362000Y-61019000D01*
X193638000Y-61019000D02*
X197259000Y-61019000D01*
X199741000Y-61059000D02*
X203374000Y-61059000D01*
X193626000Y-61059000D02*
X197259000Y-61059000D01*
X199741000Y-61099000D02*
X203385000Y-61099000D01*
X193615000Y-61099000D02*
X197259000Y-61099000D01*
X199741000Y-61139000D02*
X203397000Y-61139000D01*
X193603000Y-61139000D02*
X197259000Y-61139000D01*
X199741000Y-61179000D02*
X203407000Y-61179000D01*
X193593000Y-61179000D02*
X197259000Y-61179000D01*
X199741000Y-61219000D02*
X203418000Y-61219000D01*
X193582000Y-61219000D02*
X197259000Y-61219000D01*
X193572000Y-61259000D02*
X203428000Y-61259000D01*
X193562000Y-61299000D02*
X203438000Y-61299000D01*
X193553000Y-61339000D02*
X203447000Y-61339000D01*
X193544000Y-61379000D02*
X203456000Y-61379000D01*
X193535000Y-61419000D02*
X203465000Y-61419000D01*
X193526000Y-61459000D02*
X203474000Y-61459000D01*
X193518000Y-61499000D02*
X203482000Y-61499000D01*
X193510000Y-61539000D02*
X203490000Y-61539000D01*
X193503000Y-61579000D02*
X203497000Y-61579000D01*
X193496000Y-61619000D02*
X203504000Y-61619000D01*
X193489000Y-61659000D02*
X203511000Y-61659000D01*
X193482000Y-61699000D02*
X203518000Y-61699000D01*
X193476000Y-61739000D02*
X203524000Y-61739000D01*
X193470000Y-61779000D02*
X203530000Y-61779000D01*
X193465000Y-61820000D02*
X203535000Y-61820000D01*
X193460000Y-61860000D02*
X203540000Y-61860000D01*
X193455000Y-61900000D02*
X203545000Y-61900000D01*
X193450000Y-61940000D02*
X203550000Y-61940000D01*
X193446000Y-61980000D02*
X203554000Y-61980000D01*
X193442000Y-62020000D02*
X203558000Y-62020000D01*
X193438000Y-62060000D02*
X203562000Y-62060000D01*
X193435000Y-62100000D02*
X203565000Y-62100000D01*
X193432000Y-62140000D02*
X203568000Y-62140000D01*
X193430000Y-62180000D02*
X203570000Y-62180000D01*
X193427000Y-62220000D02*
X203573000Y-62220000D01*
X193425000Y-62260000D02*
X203575000Y-62260000D01*
X193423000Y-62300000D02*
X203577000Y-62300000D01*
X193422000Y-62340000D02*
X203578000Y-62340000D01*
X193421000Y-62380000D02*
X203579000Y-62380000D01*
X193420000Y-62420000D02*
X203580000Y-62420000D01*
X193420000Y-62460000D02*
X203580000Y-62460000D01*
X193420000Y-62500000D02*
X203580000Y-62500000D01*
X203620000Y-62500000D02*
G75*
G03X203620000Y-62500000I-5120000J0D01*
G01*
D11*
X231238095Y-136452380D02*
X231809523Y-136452380D01*
X231523809Y-137452380D02*
X231523809Y-136452380D01*
X232714285Y-137452380D02*
X232380952Y-136976190D01*
X232142857Y-137452380D02*
X232142857Y-136452380D01*
X232523809Y-136452380D01*
X232619047Y-136500000D01*
X232666666Y-136547619D01*
X232714285Y-136642857D01*
X232714285Y-136785714D01*
X232666666Y-136880952D01*
X232619047Y-136928571D01*
X232523809Y-136976190D01*
X232142857Y-136976190D01*
X233666666Y-137452380D02*
X233095238Y-137452380D01*
X233380952Y-137452380D02*
X233380952Y-136452380D01*
X233285714Y-136595238D01*
X233190476Y-136690476D01*
X233095238Y-136738095D01*
X201952380Y-95964285D02*
X201952380Y-96535714D01*
X201952380Y-96250000D02*
X200952380Y-96250000D01*
X201095238Y-96345238D01*
X201190476Y-96440476D01*
X201238095Y-96535714D01*
X201047619Y-101535714D02*
X201000000Y-101488095D01*
X200952380Y-101392857D01*
X200952380Y-101154761D01*
X201000000Y-101059523D01*
X201047619Y-101011904D01*
X201142857Y-100964285D01*
X201238095Y-100964285D01*
X201380952Y-101011904D01*
X201952380Y-101583333D01*
X201952380Y-100964285D01*
X200952380Y-106583333D02*
X200952380Y-105964285D01*
X201333333Y-106297619D01*
X201333333Y-106154761D01*
X201380952Y-106059523D01*
X201428571Y-106011904D01*
X201523809Y-105964285D01*
X201761904Y-105964285D01*
X201857142Y-106011904D01*
X201904761Y-106059523D01*
X201952380Y-106154761D01*
X201952380Y-106440476D01*
X201904761Y-106535714D01*
X201857142Y-106583333D01*
X201285714Y-111059523D02*
X201952380Y-111059523D01*
X200904761Y-111297619D02*
X201619047Y-111535714D01*
X201619047Y-110916666D01*
X200952380Y-116011904D02*
X200952380Y-116488095D01*
X201428571Y-116535714D01*
X201380952Y-116488095D01*
X201333333Y-116392857D01*
X201333333Y-116154761D01*
X201380952Y-116059523D01*
X201428571Y-116011904D01*
X201523809Y-115964285D01*
X201761904Y-115964285D01*
X201857142Y-116011904D01*
X201904761Y-116059523D01*
X201952380Y-116154761D01*
X201952380Y-116392857D01*
X201904761Y-116488095D01*
X201857142Y-116535714D01*
X200952380Y-121059523D02*
X200952380Y-121250000D01*
X201000000Y-121345238D01*
X201047619Y-121392857D01*
X201190476Y-121488095D01*
X201380952Y-121535714D01*
X201761904Y-121535714D01*
X201857142Y-121488095D01*
X201904761Y-121440476D01*
X201952380Y-121345238D01*
X201952380Y-121154761D01*
X201904761Y-121059523D01*
X201857142Y-121011904D01*
X201761904Y-120964285D01*
X201523809Y-120964285D01*
X201428571Y-121011904D01*
X201380952Y-121059523D01*
X201333333Y-121154761D01*
X201333333Y-121345238D01*
X201380952Y-121440476D01*
X201428571Y-121488095D01*
X201523809Y-121535714D01*
X240952380Y-121583333D02*
X240952380Y-120916666D01*
X241952380Y-121345238D01*
X241380952Y-116345238D02*
X241333333Y-116440476D01*
X241285714Y-116488095D01*
X241190476Y-116535714D01*
X241142857Y-116535714D01*
X241047619Y-116488095D01*
X241000000Y-116440476D01*
X240952380Y-116345238D01*
X240952380Y-116154761D01*
X241000000Y-116059523D01*
X241047619Y-116011904D01*
X241142857Y-115964285D01*
X241190476Y-115964285D01*
X241285714Y-116011904D01*
X241333333Y-116059523D01*
X241380952Y-116154761D01*
X241380952Y-116345238D01*
X241428571Y-116440476D01*
X241476190Y-116488095D01*
X241571428Y-116535714D01*
X241761904Y-116535714D01*
X241857142Y-116488095D01*
X241904761Y-116440476D01*
X241952380Y-116345238D01*
X241952380Y-116154761D01*
X241904761Y-116059523D01*
X241857142Y-116011904D01*
X241761904Y-115964285D01*
X241571428Y-115964285D01*
X241476190Y-116011904D01*
X241428571Y-116059523D01*
X241380952Y-116154761D01*
X241952380Y-111440476D02*
X241952380Y-111250000D01*
X241904761Y-111154761D01*
X241857142Y-111107142D01*
X241714285Y-111011904D01*
X241523809Y-110964285D01*
X241142857Y-110964285D01*
X241047619Y-111011904D01*
X241000000Y-111059523D01*
X240952380Y-111154761D01*
X240952380Y-111345238D01*
X241000000Y-111440476D01*
X241047619Y-111488095D01*
X241142857Y-111535714D01*
X241380952Y-111535714D01*
X241476190Y-111488095D01*
X241523809Y-111440476D01*
X241571428Y-111345238D01*
X241571428Y-111154761D01*
X241523809Y-111059523D01*
X241476190Y-111011904D01*
X241380952Y-110964285D01*
X241952380Y-106440476D02*
X241952380Y-107011904D01*
X241952380Y-106726190D02*
X240952380Y-106726190D01*
X241095238Y-106821428D01*
X241190476Y-106916666D01*
X241238095Y-107011904D01*
X240952380Y-105821428D02*
X240952380Y-105726190D01*
X241000000Y-105630952D01*
X241047619Y-105583333D01*
X241142857Y-105535714D01*
X241333333Y-105488095D01*
X241571428Y-105488095D01*
X241761904Y-105535714D01*
X241857142Y-105583333D01*
X241904761Y-105630952D01*
X241952380Y-105726190D01*
X241952380Y-105821428D01*
X241904761Y-105916666D01*
X241857142Y-105964285D01*
X241761904Y-106011904D01*
X241571428Y-106059523D01*
X241333333Y-106059523D01*
X241142857Y-106011904D01*
X241047619Y-105964285D01*
X241000000Y-105916666D01*
X240952380Y-105821428D01*
X241952380Y-101440476D02*
X241952380Y-102011904D01*
X241952380Y-101726190D02*
X240952380Y-101726190D01*
X241095238Y-101821428D01*
X241190476Y-101916666D01*
X241238095Y-102011904D01*
X241952380Y-100488095D02*
X241952380Y-101059523D01*
X241952380Y-100773809D02*
X240952380Y-100773809D01*
X241095238Y-100869047D01*
X241190476Y-100964285D01*
X241238095Y-101059523D01*
X241952380Y-96440476D02*
X241952380Y-97011904D01*
X241952380Y-96726190D02*
X240952380Y-96726190D01*
X241095238Y-96821428D01*
X241190476Y-96916666D01*
X241238095Y-97011904D01*
X241047619Y-96059523D02*
X241000000Y-96011904D01*
X240952380Y-95916666D01*
X240952380Y-95678571D01*
X241000000Y-95583333D01*
X241047619Y-95535714D01*
X241142857Y-95488095D01*
X241238095Y-95488095D01*
X241380952Y-95535714D01*
X241952380Y-96107142D01*
X241952380Y-95488095D01*
X222457142Y-50792857D02*
X222504761Y-50840476D01*
X222552380Y-50983333D01*
X222552380Y-51078571D01*
X222504761Y-51221428D01*
X222409523Y-51316666D01*
X222314285Y-51364285D01*
X222123809Y-51411904D01*
X221980952Y-51411904D01*
X221790476Y-51364285D01*
X221695238Y-51316666D01*
X221600000Y-51221428D01*
X221552380Y-51078571D01*
X221552380Y-50983333D01*
X221600000Y-50840476D01*
X221647619Y-50792857D01*
X222552380Y-49840476D02*
X222552380Y-50411904D01*
X222552380Y-50126190D02*
X221552380Y-50126190D01*
X221695238Y-50221428D01*
X221790476Y-50316666D01*
X221838095Y-50411904D01*
X221552380Y-49507142D02*
X221552380Y-48840476D01*
X222552380Y-49269047D01*
X228688095Y-67052380D02*
X228688095Y-67861904D01*
X228735714Y-67957142D01*
X228783333Y-68004761D01*
X228878571Y-68052380D01*
X229069047Y-68052380D01*
X229164285Y-68004761D01*
X229211904Y-67957142D01*
X229259523Y-67861904D01*
X229259523Y-67052380D01*
X229640476Y-67052380D02*
X230307142Y-67052380D01*
X229878571Y-68052380D01*
X179116666Y-59402380D02*
X179116666Y-60116666D01*
X179069047Y-60259523D01*
X178973809Y-60354761D01*
X178830952Y-60402380D01*
X178735714Y-60402380D01*
X180116666Y-60402380D02*
X179545238Y-60402380D01*
X179830952Y-60402380D02*
X179830952Y-59402380D01*
X179735714Y-59545238D01*
X179640476Y-59640476D01*
X179545238Y-59688095D01*
X184952380Y-127833333D02*
X185666666Y-127833333D01*
X185809523Y-127880952D01*
X185904761Y-127976190D01*
X185952380Y-128119047D01*
X185952380Y-128214285D01*
X185047619Y-127404761D02*
X185000000Y-127357142D01*
X184952380Y-127261904D01*
X184952380Y-127023809D01*
X185000000Y-126928571D01*
X185047619Y-126880952D01*
X185142857Y-126833333D01*
X185238095Y-126833333D01*
X185380952Y-126880952D01*
X185952380Y-127452380D01*
X185952380Y-126833333D01*
X193878571Y-86433333D02*
X193878571Y-86766666D01*
X194402380Y-86766666D02*
X193402380Y-86766666D01*
X193402380Y-86290476D01*
X194402380Y-85385714D02*
X194402380Y-85957142D01*
X194402380Y-85671428D02*
X193402380Y-85671428D01*
X193545238Y-85766666D01*
X193640476Y-85861904D01*
X193688095Y-85957142D01*
X224611904Y-75402380D02*
X224611904Y-74402380D01*
X224850000Y-74402380D01*
X224992857Y-74450000D01*
X225088095Y-74545238D01*
X225135714Y-74640476D01*
X225183333Y-74830952D01*
X225183333Y-74973809D01*
X225135714Y-75164285D01*
X225088095Y-75259523D01*
X224992857Y-75354761D01*
X224850000Y-75402380D01*
X224611904Y-75402380D01*
X226040476Y-74735714D02*
X226040476Y-75402380D01*
X225802380Y-74354761D02*
X225564285Y-75069047D01*
X226183333Y-75069047D01*
X230752380Y-71361904D02*
X229752380Y-71361904D01*
X230752380Y-70790476D02*
X230180952Y-71219047D01*
X229752380Y-70790476D02*
X230323809Y-71361904D01*
X212611904Y-75552380D02*
X212611904Y-74552380D01*
X212850000Y-74552380D01*
X212992857Y-74600000D01*
X213088095Y-74695238D01*
X213135714Y-74790476D01*
X213183333Y-74980952D01*
X213183333Y-75123809D01*
X213135714Y-75314285D01*
X213088095Y-75409523D01*
X212992857Y-75504761D01*
X212850000Y-75552380D01*
X212611904Y-75552380D01*
X213516666Y-74552380D02*
X214135714Y-74552380D01*
X213802380Y-74933333D01*
X213945238Y-74933333D01*
X214040476Y-74980952D01*
X214088095Y-75028571D01*
X214135714Y-75123809D01*
X214135714Y-75361904D01*
X214088095Y-75457142D01*
X214040476Y-75504761D01*
X213945238Y-75552380D01*
X213659523Y-75552380D01*
X213564285Y-75504761D01*
X213516666Y-75457142D01*
X218752380Y-71361904D02*
X217752380Y-71361904D01*
X218752380Y-70790476D02*
X218180952Y-71219047D01*
X217752380Y-70790476D02*
X218323809Y-71361904D01*
X230111904Y-75252380D02*
X230111904Y-74252380D01*
X230350000Y-74252380D01*
X230492857Y-74300000D01*
X230588095Y-74395238D01*
X230635714Y-74490476D01*
X230683333Y-74680952D01*
X230683333Y-74823809D01*
X230635714Y-75014285D01*
X230588095Y-75109523D01*
X230492857Y-75204761D01*
X230350000Y-75252380D01*
X230111904Y-75252380D01*
X231064285Y-74347619D02*
X231111904Y-74300000D01*
X231207142Y-74252380D01*
X231445238Y-74252380D01*
X231540476Y-74300000D01*
X231588095Y-74347619D01*
X231635714Y-74442857D01*
X231635714Y-74538095D01*
X231588095Y-74680952D01*
X231016666Y-75252380D01*
X231635714Y-75252380D01*
X232052380Y-78861904D02*
X231052380Y-78861904D01*
X232052380Y-78290476D02*
X231480952Y-78719047D01*
X231052380Y-78290476D02*
X231623809Y-78861904D01*
X218861904Y-75302380D02*
X218861904Y-74302380D01*
X219100000Y-74302380D01*
X219242857Y-74350000D01*
X219338095Y-74445238D01*
X219385714Y-74540476D01*
X219433333Y-74730952D01*
X219433333Y-74873809D01*
X219385714Y-75064285D01*
X219338095Y-75159523D01*
X219242857Y-75254761D01*
X219100000Y-75302380D01*
X218861904Y-75302380D01*
X220385714Y-75302380D02*
X219814285Y-75302380D01*
X220100000Y-75302380D02*
X220100000Y-74302380D01*
X220004761Y-74445238D01*
X219909523Y-74540476D01*
X219814285Y-74588095D01*
X220552380Y-78861904D02*
X219552380Y-78861904D01*
X220552380Y-78290476D02*
X219980952Y-78719047D01*
X219552380Y-78290476D02*
X220123809Y-78861904D01*
X217007142Y-50812857D02*
X217054761Y-50860476D01*
X217102380Y-51003333D01*
X217102380Y-51098571D01*
X217054761Y-51241428D01*
X216959523Y-51336666D01*
X216864285Y-51384285D01*
X216673809Y-51431904D01*
X216530952Y-51431904D01*
X216340476Y-51384285D01*
X216245238Y-51336666D01*
X216150000Y-51241428D01*
X216102380Y-51098571D01*
X216102380Y-51003333D01*
X216150000Y-50860476D01*
X216197619Y-50812857D01*
X217102380Y-49860476D02*
X217102380Y-50431904D01*
X217102380Y-50146190D02*
X216102380Y-50146190D01*
X216245238Y-50241428D01*
X216340476Y-50336666D01*
X216388095Y-50431904D01*
X216102380Y-49003333D02*
X216102380Y-49193809D01*
X216150000Y-49289047D01*
X216197619Y-49336666D01*
X216340476Y-49431904D01*
X216530952Y-49479523D01*
X216911904Y-49479523D01*
X217007142Y-49431904D01*
X217054761Y-49384285D01*
X217102380Y-49289047D01*
X217102380Y-49098571D01*
X217054761Y-49003333D01*
X217007142Y-48955714D01*
X216911904Y-48908095D01*
X216673809Y-48908095D01*
X216578571Y-48955714D01*
X216530952Y-49003333D01*
X216483333Y-49098571D01*
X216483333Y-49289047D01*
X216530952Y-49384285D01*
X216578571Y-49431904D01*
X216673809Y-49479523D01*
X194283333Y-70307142D02*
X194235714Y-70354761D01*
X194092857Y-70402380D01*
X193997619Y-70402380D01*
X193854761Y-70354761D01*
X193759523Y-70259523D01*
X193711904Y-70164285D01*
X193664285Y-69973809D01*
X193664285Y-69830952D01*
X193711904Y-69640476D01*
X193759523Y-69545238D01*
X193854761Y-69450000D01*
X193997619Y-69402380D01*
X194092857Y-69402380D01*
X194235714Y-69450000D01*
X194283333Y-69497619D01*
X194759523Y-70402380D02*
X194950000Y-70402380D01*
X195045238Y-70354761D01*
X195092857Y-70307142D01*
X195188095Y-70164285D01*
X195235714Y-69973809D01*
X195235714Y-69592857D01*
X195188095Y-69497619D01*
X195140476Y-69450000D01*
X195045238Y-69402380D01*
X194854761Y-69402380D01*
X194759523Y-69450000D01*
X194711904Y-69497619D01*
X194664285Y-69592857D01*
X194664285Y-69830952D01*
X194711904Y-69926190D01*
X194759523Y-69973809D01*
X194854761Y-70021428D01*
X195045238Y-70021428D01*
X195140476Y-69973809D01*
X195188095Y-69926190D01*
X195235714Y-69830952D01*
X201657142Y-68866666D02*
X201704761Y-68914285D01*
X201752380Y-69057142D01*
X201752380Y-69152380D01*
X201704761Y-69295238D01*
X201609523Y-69390476D01*
X201514285Y-69438095D01*
X201323809Y-69485714D01*
X201180952Y-69485714D01*
X200990476Y-69438095D01*
X200895238Y-69390476D01*
X200800000Y-69295238D01*
X200752380Y-69152380D01*
X200752380Y-69057142D01*
X200800000Y-68914285D01*
X200847619Y-68866666D01*
X201180952Y-68295238D02*
X201133333Y-68390476D01*
X201085714Y-68438095D01*
X200990476Y-68485714D01*
X200942857Y-68485714D01*
X200847619Y-68438095D01*
X200800000Y-68390476D01*
X200752380Y-68295238D01*
X200752380Y-68104761D01*
X200800000Y-68009523D01*
X200847619Y-67961904D01*
X200942857Y-67914285D01*
X200990476Y-67914285D01*
X201085714Y-67961904D01*
X201133333Y-68009523D01*
X201180952Y-68104761D01*
X201180952Y-68295238D01*
X201228571Y-68390476D01*
X201276190Y-68438095D01*
X201371428Y-68485714D01*
X201561904Y-68485714D01*
X201657142Y-68438095D01*
X201704761Y-68390476D01*
X201752380Y-68295238D01*
X201752380Y-68104761D01*
X201704761Y-68009523D01*
X201657142Y-67961904D01*
X201561904Y-67914285D01*
X201371428Y-67914285D01*
X201276190Y-67961904D01*
X201228571Y-68009523D01*
X201180952Y-68104761D01*
M02*
