G04 #@! TF.GenerationSoftware,KiCad,Pcbnew,(5.1.5)-3*
G04 #@! TF.CreationDate,2020-04-16T19:35:31+02:00*
G04 #@! TF.ProjectId,5vfrommains,35766672-6f6d-46d6-9169-6e732e6b6963,rev?*
G04 #@! TF.SameCoordinates,Original*
G04 #@! TF.FileFunction,Soldermask,Bot*
G04 #@! TF.FilePolarity,Negative*
%FSLAX46Y46*%
G04 Gerber Fmt 4.6, Leading zero omitted, Abs format (unit mm)*
G04 Created by KiCad (PCBNEW (5.1.5)-3) date 2020-04-16 19:35:31*
%MOMM*%
%LPD*%
G04 APERTURE LIST*
%ADD10C,0.100000*%
G04 APERTURE END LIST*
D10*
G36*
X200948903Y-137743213D02*
G01*
X201171177Y-137787426D01*
X201589932Y-137960880D01*
X201966802Y-138212696D01*
X202287304Y-138533198D01*
X202539120Y-138910068D01*
X202712574Y-139328823D01*
X202801000Y-139773371D01*
X202801000Y-140226629D01*
X202712574Y-140671177D01*
X202539120Y-141089932D01*
X202287304Y-141466802D01*
X201966802Y-141787304D01*
X201589932Y-142039120D01*
X201171177Y-142212574D01*
X200948903Y-142256787D01*
X200726630Y-142301000D01*
X200273370Y-142301000D01*
X200051097Y-142256787D01*
X199828823Y-142212574D01*
X199410068Y-142039120D01*
X199033198Y-141787304D01*
X198712696Y-141466802D01*
X198460880Y-141089932D01*
X198287426Y-140671177D01*
X198199000Y-140226629D01*
X198199000Y-139773371D01*
X198287426Y-139328823D01*
X198460880Y-138910068D01*
X198712696Y-138533198D01*
X199033198Y-138212696D01*
X199410068Y-137960880D01*
X199828823Y-137787426D01*
X200051097Y-137743213D01*
X200273370Y-137699000D01*
X200726630Y-137699000D01*
X200948903Y-137743213D01*
G37*
G36*
X237948903Y-137743213D02*
G01*
X238171177Y-137787426D01*
X238589932Y-137960880D01*
X238966802Y-138212696D01*
X239287304Y-138533198D01*
X239539120Y-138910068D01*
X239712574Y-139328823D01*
X239801000Y-139773371D01*
X239801000Y-140226629D01*
X239712574Y-140671177D01*
X239539120Y-141089932D01*
X239287304Y-141466802D01*
X238966802Y-141787304D01*
X238589932Y-142039120D01*
X238171177Y-142212574D01*
X237948903Y-142256787D01*
X237726630Y-142301000D01*
X237273370Y-142301000D01*
X237051097Y-142256787D01*
X236828823Y-142212574D01*
X236410068Y-142039120D01*
X236033198Y-141787304D01*
X235712696Y-141466802D01*
X235460880Y-141089932D01*
X235287426Y-140671177D01*
X235199000Y-140226629D01*
X235199000Y-139773371D01*
X235287426Y-139328823D01*
X235460880Y-138910068D01*
X235712696Y-138533198D01*
X236033198Y-138212696D01*
X236410068Y-137960880D01*
X236828823Y-137787426D01*
X237051097Y-137743213D01*
X237273370Y-137699000D01*
X237726630Y-137699000D01*
X237948903Y-137743213D01*
G37*
G36*
X189051000Y-131611000D02*
G01*
X185949000Y-131611000D01*
X185949000Y-128509000D01*
X189051000Y-128509000D01*
X189051000Y-131611000D01*
G37*
G36*
X189051000Y-123691000D02*
G01*
X185949000Y-123691000D01*
X185949000Y-120589000D01*
X189051000Y-120589000D01*
X189051000Y-123691000D01*
G37*
G36*
X235306564Y-119889389D02*
G01*
X235497833Y-119968615D01*
X235497835Y-119968616D01*
X235669973Y-120083635D01*
X235816365Y-120230027D01*
X235931385Y-120402167D01*
X236010611Y-120593436D01*
X236051000Y-120796484D01*
X236051000Y-121003516D01*
X236010611Y-121206564D01*
X235931385Y-121397833D01*
X235931384Y-121397835D01*
X235816365Y-121569973D01*
X235669973Y-121716365D01*
X235497835Y-121831384D01*
X235497834Y-121831385D01*
X235497833Y-121831385D01*
X235306564Y-121910611D01*
X235103516Y-121951000D01*
X234896484Y-121951000D01*
X234693436Y-121910611D01*
X234502167Y-121831385D01*
X234502166Y-121831385D01*
X234502165Y-121831384D01*
X234330027Y-121716365D01*
X234183635Y-121569973D01*
X234068616Y-121397835D01*
X234068615Y-121397833D01*
X233989389Y-121206564D01*
X233949000Y-121003516D01*
X233949000Y-120796484D01*
X233989389Y-120593436D01*
X234068615Y-120402167D01*
X234183635Y-120230027D01*
X234330027Y-120083635D01*
X234502165Y-119968616D01*
X234502167Y-119968615D01*
X234693436Y-119889389D01*
X234896484Y-119849000D01*
X235103516Y-119849000D01*
X235306564Y-119889389D01*
G37*
G36*
X207806564Y-119889389D02*
G01*
X207997833Y-119968615D01*
X207997835Y-119968616D01*
X208169973Y-120083635D01*
X208316365Y-120230027D01*
X208431385Y-120402167D01*
X208510611Y-120593436D01*
X208551000Y-120796484D01*
X208551000Y-121003516D01*
X208510611Y-121206564D01*
X208431385Y-121397833D01*
X208431384Y-121397835D01*
X208316365Y-121569973D01*
X208169973Y-121716365D01*
X207997835Y-121831384D01*
X207997834Y-121831385D01*
X207997833Y-121831385D01*
X207806564Y-121910611D01*
X207603516Y-121951000D01*
X207396484Y-121951000D01*
X207193436Y-121910611D01*
X207002167Y-121831385D01*
X207002166Y-121831385D01*
X207002165Y-121831384D01*
X206830027Y-121716365D01*
X206683635Y-121569973D01*
X206568616Y-121397835D01*
X206568615Y-121397833D01*
X206489389Y-121206564D01*
X206449000Y-121003516D01*
X206449000Y-120796484D01*
X206489389Y-120593436D01*
X206568615Y-120402167D01*
X206683635Y-120230027D01*
X206830027Y-120083635D01*
X207002165Y-119968616D01*
X207002167Y-119968615D01*
X207193436Y-119889389D01*
X207396484Y-119849000D01*
X207603516Y-119849000D01*
X207806564Y-119889389D01*
G37*
G36*
X235306564Y-114889389D02*
G01*
X235497833Y-114968615D01*
X235497835Y-114968616D01*
X235669973Y-115083635D01*
X235816365Y-115230027D01*
X235931385Y-115402167D01*
X236010611Y-115593436D01*
X236051000Y-115796484D01*
X236051000Y-116003516D01*
X236010611Y-116206564D01*
X235931385Y-116397833D01*
X235931384Y-116397835D01*
X235816365Y-116569973D01*
X235669973Y-116716365D01*
X235497835Y-116831384D01*
X235497834Y-116831385D01*
X235497833Y-116831385D01*
X235306564Y-116910611D01*
X235103516Y-116951000D01*
X234896484Y-116951000D01*
X234693436Y-116910611D01*
X234502167Y-116831385D01*
X234502166Y-116831385D01*
X234502165Y-116831384D01*
X234330027Y-116716365D01*
X234183635Y-116569973D01*
X234068616Y-116397835D01*
X234068615Y-116397833D01*
X233989389Y-116206564D01*
X233949000Y-116003516D01*
X233949000Y-115796484D01*
X233989389Y-115593436D01*
X234068615Y-115402167D01*
X234183635Y-115230027D01*
X234330027Y-115083635D01*
X234502165Y-114968616D01*
X234502167Y-114968615D01*
X234693436Y-114889389D01*
X234896484Y-114849000D01*
X235103516Y-114849000D01*
X235306564Y-114889389D01*
G37*
G36*
X207806564Y-114889389D02*
G01*
X207997833Y-114968615D01*
X207997835Y-114968616D01*
X208169973Y-115083635D01*
X208316365Y-115230027D01*
X208431385Y-115402167D01*
X208510611Y-115593436D01*
X208551000Y-115796484D01*
X208551000Y-116003516D01*
X208510611Y-116206564D01*
X208431385Y-116397833D01*
X208431384Y-116397835D01*
X208316365Y-116569973D01*
X208169973Y-116716365D01*
X207997835Y-116831384D01*
X207997834Y-116831385D01*
X207997833Y-116831385D01*
X207806564Y-116910611D01*
X207603516Y-116951000D01*
X207396484Y-116951000D01*
X207193436Y-116910611D01*
X207002167Y-116831385D01*
X207002166Y-116831385D01*
X207002165Y-116831384D01*
X206830027Y-116716365D01*
X206683635Y-116569973D01*
X206568616Y-116397835D01*
X206568615Y-116397833D01*
X206489389Y-116206564D01*
X206449000Y-116003516D01*
X206449000Y-115796484D01*
X206489389Y-115593436D01*
X206568615Y-115402167D01*
X206683635Y-115230027D01*
X206830027Y-115083635D01*
X207002165Y-114968616D01*
X207002167Y-114968615D01*
X207193436Y-114889389D01*
X207396484Y-114849000D01*
X207603516Y-114849000D01*
X207806564Y-114889389D01*
G37*
G36*
X235306564Y-109889389D02*
G01*
X235497833Y-109968615D01*
X235497835Y-109968616D01*
X235669973Y-110083635D01*
X235816365Y-110230027D01*
X235931385Y-110402167D01*
X236010611Y-110593436D01*
X236051000Y-110796484D01*
X236051000Y-111003516D01*
X236010611Y-111206564D01*
X235931385Y-111397833D01*
X235931384Y-111397835D01*
X235816365Y-111569973D01*
X235669973Y-111716365D01*
X235497835Y-111831384D01*
X235497834Y-111831385D01*
X235497833Y-111831385D01*
X235306564Y-111910611D01*
X235103516Y-111951000D01*
X234896484Y-111951000D01*
X234693436Y-111910611D01*
X234502167Y-111831385D01*
X234502166Y-111831385D01*
X234502165Y-111831384D01*
X234330027Y-111716365D01*
X234183635Y-111569973D01*
X234068616Y-111397835D01*
X234068615Y-111397833D01*
X233989389Y-111206564D01*
X233949000Y-111003516D01*
X233949000Y-110796484D01*
X233989389Y-110593436D01*
X234068615Y-110402167D01*
X234183635Y-110230027D01*
X234330027Y-110083635D01*
X234502165Y-109968616D01*
X234502167Y-109968615D01*
X234693436Y-109889389D01*
X234896484Y-109849000D01*
X235103516Y-109849000D01*
X235306564Y-109889389D01*
G37*
G36*
X191302585Y-108478802D02*
G01*
X191452410Y-108508604D01*
X191734674Y-108625521D01*
X191988705Y-108795259D01*
X192204741Y-109011295D01*
X192374479Y-109265326D01*
X192491396Y-109547590D01*
X192551000Y-109847240D01*
X192551000Y-110152760D01*
X192491396Y-110452410D01*
X192374479Y-110734674D01*
X192204741Y-110988705D01*
X191988705Y-111204741D01*
X191734674Y-111374479D01*
X191452410Y-111491396D01*
X191302585Y-111521198D01*
X191152761Y-111551000D01*
X190847239Y-111551000D01*
X190697415Y-111521198D01*
X190547590Y-111491396D01*
X190265326Y-111374479D01*
X190011295Y-111204741D01*
X189795259Y-110988705D01*
X189625521Y-110734674D01*
X189508604Y-110452410D01*
X189449000Y-110152760D01*
X189449000Y-109847240D01*
X189508604Y-109547590D01*
X189625521Y-109265326D01*
X189795259Y-109011295D01*
X190011295Y-108795259D01*
X190265326Y-108625521D01*
X190547590Y-108508604D01*
X190697415Y-108478802D01*
X190847239Y-108449000D01*
X191152761Y-108449000D01*
X191302585Y-108478802D01*
G37*
G36*
X235306564Y-104889389D02*
G01*
X235497833Y-104968615D01*
X235497835Y-104968616D01*
X235669973Y-105083635D01*
X235816365Y-105230027D01*
X235931385Y-105402167D01*
X236010611Y-105593436D01*
X236051000Y-105796484D01*
X236051000Y-106003516D01*
X236010611Y-106206564D01*
X235931385Y-106397833D01*
X235931384Y-106397835D01*
X235816365Y-106569973D01*
X235669973Y-106716365D01*
X235497835Y-106831384D01*
X235497834Y-106831385D01*
X235497833Y-106831385D01*
X235306564Y-106910611D01*
X235103516Y-106951000D01*
X234896484Y-106951000D01*
X234693436Y-106910611D01*
X234502167Y-106831385D01*
X234502166Y-106831385D01*
X234502165Y-106831384D01*
X234330027Y-106716365D01*
X234183635Y-106569973D01*
X234068616Y-106397835D01*
X234068615Y-106397833D01*
X233989389Y-106206564D01*
X233949000Y-106003516D01*
X233949000Y-105796484D01*
X233989389Y-105593436D01*
X234068615Y-105402167D01*
X234183635Y-105230027D01*
X234330027Y-105083635D01*
X234502165Y-104968616D01*
X234502167Y-104968615D01*
X234693436Y-104889389D01*
X234896484Y-104849000D01*
X235103516Y-104849000D01*
X235306564Y-104889389D01*
G37*
G36*
X207806564Y-99889389D02*
G01*
X207997833Y-99968615D01*
X207997835Y-99968616D01*
X208169973Y-100083635D01*
X208316365Y-100230027D01*
X208431385Y-100402167D01*
X208510611Y-100593436D01*
X208551000Y-100796484D01*
X208551000Y-101003516D01*
X208510611Y-101206564D01*
X208431385Y-101397833D01*
X208431384Y-101397835D01*
X208316365Y-101569973D01*
X208169973Y-101716365D01*
X207997835Y-101831384D01*
X207997834Y-101831385D01*
X207997833Y-101831385D01*
X207806564Y-101910611D01*
X207603516Y-101951000D01*
X207396484Y-101951000D01*
X207193436Y-101910611D01*
X207002167Y-101831385D01*
X207002166Y-101831385D01*
X207002165Y-101831384D01*
X206830027Y-101716365D01*
X206683635Y-101569973D01*
X206568616Y-101397835D01*
X206568615Y-101397833D01*
X206489389Y-101206564D01*
X206449000Y-101003516D01*
X206449000Y-100796484D01*
X206489389Y-100593436D01*
X206568615Y-100402167D01*
X206683635Y-100230027D01*
X206830027Y-100083635D01*
X207002165Y-99968616D01*
X207002167Y-99968615D01*
X207193436Y-99889389D01*
X207396484Y-99849000D01*
X207603516Y-99849000D01*
X207806564Y-99889389D01*
G37*
G36*
X235306564Y-99889389D02*
G01*
X235497833Y-99968615D01*
X235497835Y-99968616D01*
X235669973Y-100083635D01*
X235816365Y-100230027D01*
X235931385Y-100402167D01*
X236010611Y-100593436D01*
X236051000Y-100796484D01*
X236051000Y-101003516D01*
X236010611Y-101206564D01*
X235931385Y-101397833D01*
X235931384Y-101397835D01*
X235816365Y-101569973D01*
X235669973Y-101716365D01*
X235497835Y-101831384D01*
X235497834Y-101831385D01*
X235497833Y-101831385D01*
X235306564Y-101910611D01*
X235103516Y-101951000D01*
X234896484Y-101951000D01*
X234693436Y-101910611D01*
X234502167Y-101831385D01*
X234502166Y-101831385D01*
X234502165Y-101831384D01*
X234330027Y-101716365D01*
X234183635Y-101569973D01*
X234068616Y-101397835D01*
X234068615Y-101397833D01*
X233989389Y-101206564D01*
X233949000Y-101003516D01*
X233949000Y-100796484D01*
X233989389Y-100593436D01*
X234068615Y-100402167D01*
X234183635Y-100230027D01*
X234330027Y-100083635D01*
X234502165Y-99968616D01*
X234502167Y-99968615D01*
X234693436Y-99889389D01*
X234896484Y-99849000D01*
X235103516Y-99849000D01*
X235306564Y-99889389D01*
G37*
G36*
X191318433Y-97384893D02*
G01*
X191408657Y-97402839D01*
X191514267Y-97446585D01*
X191663621Y-97508449D01*
X191663622Y-97508450D01*
X191893086Y-97661772D01*
X192088228Y-97856914D01*
X192190675Y-98010237D01*
X192241551Y-98086379D01*
X192347161Y-98341344D01*
X192401000Y-98612012D01*
X192401000Y-98887988D01*
X192347161Y-99158656D01*
X192241551Y-99413621D01*
X192241550Y-99413622D01*
X192088228Y-99643086D01*
X191893086Y-99838228D01*
X191816516Y-99889390D01*
X191663621Y-99991551D01*
X191514267Y-100053415D01*
X191408657Y-100097161D01*
X191318433Y-100115107D01*
X191137988Y-100151000D01*
X190862012Y-100151000D01*
X190681567Y-100115107D01*
X190591343Y-100097161D01*
X190485733Y-100053415D01*
X190336379Y-99991551D01*
X190183484Y-99889390D01*
X190106914Y-99838228D01*
X189911772Y-99643086D01*
X189758450Y-99413622D01*
X189758449Y-99413621D01*
X189652839Y-99158656D01*
X189599000Y-98887988D01*
X189599000Y-98612012D01*
X189652839Y-98341344D01*
X189758449Y-98086379D01*
X189809325Y-98010237D01*
X189911772Y-97856914D01*
X190106914Y-97661772D01*
X190336378Y-97508450D01*
X190336379Y-97508449D01*
X190485733Y-97446585D01*
X190591343Y-97402839D01*
X190681567Y-97384893D01*
X190862012Y-97349000D01*
X191137988Y-97349000D01*
X191318433Y-97384893D01*
G37*
G36*
X208551000Y-96951000D02*
G01*
X206449000Y-96951000D01*
X206449000Y-94849000D01*
X208551000Y-94849000D01*
X208551000Y-96951000D01*
G37*
G36*
X235306564Y-94889389D02*
G01*
X235497833Y-94968615D01*
X235497835Y-94968616D01*
X235669973Y-95083635D01*
X235816365Y-95230027D01*
X235931385Y-95402167D01*
X236010611Y-95593436D01*
X236051000Y-95796484D01*
X236051000Y-96003516D01*
X236010611Y-96206564D01*
X235931385Y-96397833D01*
X235931384Y-96397835D01*
X235816365Y-96569973D01*
X235669973Y-96716365D01*
X235497835Y-96831384D01*
X235497834Y-96831385D01*
X235497833Y-96831385D01*
X235306564Y-96910611D01*
X235103516Y-96951000D01*
X234896484Y-96951000D01*
X234693436Y-96910611D01*
X234502167Y-96831385D01*
X234502166Y-96831385D01*
X234502165Y-96831384D01*
X234330027Y-96716365D01*
X234183635Y-96569973D01*
X234068616Y-96397835D01*
X234068615Y-96397833D01*
X233989389Y-96206564D01*
X233949000Y-96003516D01*
X233949000Y-95796484D01*
X233989389Y-95593436D01*
X234068615Y-95402167D01*
X234183635Y-95230027D01*
X234330027Y-95083635D01*
X234502165Y-94968616D01*
X234502167Y-94968615D01*
X234693436Y-94889389D01*
X234896484Y-94849000D01*
X235103516Y-94849000D01*
X235306564Y-94889389D01*
G37*
G36*
X191302585Y-85978802D02*
G01*
X191452410Y-86008604D01*
X191734674Y-86125521D01*
X191988705Y-86295259D01*
X192204741Y-86511295D01*
X192374479Y-86765326D01*
X192491396Y-87047590D01*
X192551000Y-87347240D01*
X192551000Y-87652760D01*
X192491396Y-87952410D01*
X192374479Y-88234674D01*
X192204741Y-88488705D01*
X191988705Y-88704741D01*
X191734674Y-88874479D01*
X191452410Y-88991396D01*
X191302585Y-89021198D01*
X191152761Y-89051000D01*
X190847239Y-89051000D01*
X190697415Y-89021198D01*
X190547590Y-88991396D01*
X190265326Y-88874479D01*
X190011295Y-88704741D01*
X189795259Y-88488705D01*
X189625521Y-88234674D01*
X189508604Y-87952410D01*
X189449000Y-87652760D01*
X189449000Y-87347240D01*
X189508604Y-87047590D01*
X189625521Y-86765326D01*
X189795259Y-86511295D01*
X190011295Y-86295259D01*
X190265326Y-86125521D01*
X190547590Y-86008604D01*
X190697415Y-85978802D01*
X190847239Y-85949000D01*
X191152761Y-85949000D01*
X191302585Y-85978802D01*
G37*
G36*
X228424549Y-77591116D02*
G01*
X228535734Y-77613232D01*
X228745203Y-77699997D01*
X228933720Y-77825960D01*
X229094040Y-77986280D01*
X229220003Y-78174797D01*
X229306768Y-78384266D01*
X229351000Y-78606636D01*
X229351000Y-78833364D01*
X229306768Y-79055734D01*
X229220003Y-79265203D01*
X229094040Y-79453720D01*
X228933720Y-79614040D01*
X228745203Y-79740003D01*
X228535734Y-79826768D01*
X228424549Y-79848884D01*
X228313365Y-79871000D01*
X228086635Y-79871000D01*
X227975451Y-79848884D01*
X227864266Y-79826768D01*
X227654797Y-79740003D01*
X227466280Y-79614040D01*
X227305960Y-79453720D01*
X227179997Y-79265203D01*
X227093232Y-79055734D01*
X227049000Y-78833364D01*
X227049000Y-78606636D01*
X227093232Y-78384266D01*
X227179997Y-78174797D01*
X227305960Y-77986280D01*
X227466280Y-77825960D01*
X227654797Y-77699997D01*
X227864266Y-77613232D01*
X227975451Y-77591116D01*
X228086635Y-77569000D01*
X228313365Y-77569000D01*
X228424549Y-77591116D01*
G37*
G36*
X216424549Y-77591116D02*
G01*
X216535734Y-77613232D01*
X216745203Y-77699997D01*
X216933720Y-77825960D01*
X217094040Y-77986280D01*
X217220003Y-78174797D01*
X217306768Y-78384266D01*
X217351000Y-78606636D01*
X217351000Y-78833364D01*
X217306768Y-79055734D01*
X217220003Y-79265203D01*
X217094040Y-79453720D01*
X216933720Y-79614040D01*
X216745203Y-79740003D01*
X216535734Y-79826768D01*
X216424549Y-79848884D01*
X216313365Y-79871000D01*
X216086635Y-79871000D01*
X215975451Y-79848884D01*
X215864266Y-79826768D01*
X215654797Y-79740003D01*
X215466280Y-79614040D01*
X215305960Y-79453720D01*
X215179997Y-79265203D01*
X215093232Y-79055734D01*
X215049000Y-78833364D01*
X215049000Y-78606636D01*
X215093232Y-78384266D01*
X215179997Y-78174797D01*
X215305960Y-77986280D01*
X215466280Y-77825960D01*
X215654797Y-77699997D01*
X215864266Y-77613232D01*
X215975451Y-77591116D01*
X216086635Y-77569000D01*
X216313365Y-77569000D01*
X216424549Y-77591116D01*
G37*
G36*
X234851000Y-79751000D02*
G01*
X232549000Y-79751000D01*
X232549000Y-77449000D01*
X234851000Y-77449000D01*
X234851000Y-79751000D01*
G37*
G36*
X223351000Y-79751000D02*
G01*
X221049000Y-79751000D01*
X221049000Y-77449000D01*
X223351000Y-77449000D01*
X223351000Y-79751000D01*
G37*
G36*
X199556564Y-74489389D02*
G01*
X199747833Y-74568615D01*
X199747835Y-74568616D01*
X199919973Y-74683635D01*
X200066365Y-74830027D01*
X200181385Y-75002167D01*
X200260611Y-75193436D01*
X200301000Y-75396484D01*
X200301000Y-75603516D01*
X200260611Y-75806564D01*
X200181385Y-75997833D01*
X200181384Y-75997835D01*
X200066365Y-76169973D01*
X199919973Y-76316365D01*
X199747835Y-76431384D01*
X199747834Y-76431385D01*
X199747833Y-76431385D01*
X199556564Y-76510611D01*
X199353516Y-76551000D01*
X199146484Y-76551000D01*
X198943436Y-76510611D01*
X198752167Y-76431385D01*
X198752166Y-76431385D01*
X198752165Y-76431384D01*
X198580027Y-76316365D01*
X198433635Y-76169973D01*
X198318616Y-75997835D01*
X198318615Y-75997833D01*
X198239389Y-75806564D01*
X198199000Y-75603516D01*
X198199000Y-75396484D01*
X198239389Y-75193436D01*
X198318615Y-75002167D01*
X198433635Y-74830027D01*
X198580027Y-74683635D01*
X198752165Y-74568616D01*
X198752167Y-74568615D01*
X198943436Y-74489389D01*
X199146484Y-74449000D01*
X199353516Y-74449000D01*
X199556564Y-74489389D01*
G37*
G36*
X187306564Y-74489389D02*
G01*
X187497833Y-74568615D01*
X187497835Y-74568616D01*
X187669973Y-74683635D01*
X187816365Y-74830027D01*
X187931385Y-75002167D01*
X188010611Y-75193436D01*
X188051000Y-75396484D01*
X188051000Y-75603516D01*
X188010611Y-75806564D01*
X187931385Y-75997833D01*
X187931384Y-75997835D01*
X187816365Y-76169973D01*
X187669973Y-76316365D01*
X187497835Y-76431384D01*
X187497834Y-76431385D01*
X187497833Y-76431385D01*
X187306564Y-76510611D01*
X187103516Y-76551000D01*
X186896484Y-76551000D01*
X186693436Y-76510611D01*
X186502167Y-76431385D01*
X186502166Y-76431385D01*
X186502165Y-76431384D01*
X186330027Y-76316365D01*
X186183635Y-76169973D01*
X186068616Y-75997835D01*
X186068615Y-75997833D01*
X185989389Y-75806564D01*
X185949000Y-75603516D01*
X185949000Y-75396484D01*
X185989389Y-75193436D01*
X186068615Y-75002167D01*
X186183635Y-74830027D01*
X186330027Y-74683635D01*
X186502165Y-74568616D01*
X186502167Y-74568615D01*
X186693436Y-74489389D01*
X186896484Y-74449000D01*
X187103516Y-74449000D01*
X187306564Y-74489389D01*
G37*
G36*
X217351000Y-72251000D02*
G01*
X215049000Y-72251000D01*
X215049000Y-69949000D01*
X217351000Y-69949000D01*
X217351000Y-72251000D01*
G37*
G36*
X229351000Y-72251000D02*
G01*
X227049000Y-72251000D01*
X227049000Y-69949000D01*
X229351000Y-69949000D01*
X229351000Y-72251000D01*
G37*
G36*
X233924549Y-69851116D02*
G01*
X234035734Y-69873232D01*
X234245203Y-69959997D01*
X234433720Y-70085960D01*
X234594040Y-70246280D01*
X234720003Y-70434797D01*
X234806768Y-70644266D01*
X234851000Y-70866636D01*
X234851000Y-71093364D01*
X234806768Y-71315734D01*
X234720003Y-71525203D01*
X234594040Y-71713720D01*
X234433720Y-71874040D01*
X234245203Y-72000003D01*
X234035734Y-72086768D01*
X233924549Y-72108884D01*
X233813365Y-72131000D01*
X233586635Y-72131000D01*
X233475451Y-72108884D01*
X233364266Y-72086768D01*
X233154797Y-72000003D01*
X232966280Y-71874040D01*
X232805960Y-71713720D01*
X232679997Y-71525203D01*
X232593232Y-71315734D01*
X232549000Y-71093364D01*
X232549000Y-70866636D01*
X232593232Y-70644266D01*
X232679997Y-70434797D01*
X232805960Y-70246280D01*
X232966280Y-70085960D01*
X233154797Y-69959997D01*
X233364266Y-69873232D01*
X233475451Y-69851116D01*
X233586635Y-69829000D01*
X233813365Y-69829000D01*
X233924549Y-69851116D01*
G37*
G36*
X222424549Y-69851116D02*
G01*
X222535734Y-69873232D01*
X222745203Y-69959997D01*
X222933720Y-70085960D01*
X223094040Y-70246280D01*
X223220003Y-70434797D01*
X223306768Y-70644266D01*
X223351000Y-70866636D01*
X223351000Y-71093364D01*
X223306768Y-71315734D01*
X223220003Y-71525203D01*
X223094040Y-71713720D01*
X222933720Y-71874040D01*
X222745203Y-72000003D01*
X222535734Y-72086768D01*
X222424549Y-72108884D01*
X222313365Y-72131000D01*
X222086635Y-72131000D01*
X221975451Y-72108884D01*
X221864266Y-72086768D01*
X221654797Y-72000003D01*
X221466280Y-71874040D01*
X221305960Y-71713720D01*
X221179997Y-71525203D01*
X221093232Y-71315734D01*
X221049000Y-71093364D01*
X221049000Y-70866636D01*
X221093232Y-70644266D01*
X221179997Y-70434797D01*
X221305960Y-70246280D01*
X221466280Y-70085960D01*
X221654797Y-69959997D01*
X221864266Y-69873232D01*
X221975451Y-69851116D01*
X222086635Y-69829000D01*
X222313365Y-69829000D01*
X222424549Y-69851116D01*
G37*
G36*
X188051000Y-71551000D02*
G01*
X185949000Y-71551000D01*
X185949000Y-69449000D01*
X188051000Y-69449000D01*
X188051000Y-71551000D01*
G37*
G36*
X200301000Y-71551000D02*
G01*
X198199000Y-71551000D01*
X198199000Y-69449000D01*
X200301000Y-69449000D01*
X200301000Y-71551000D01*
G37*
G36*
X186051000Y-65511000D02*
G01*
X182949000Y-65511000D01*
X182949000Y-62409000D01*
X186051000Y-62409000D01*
X186051000Y-65511000D01*
G37*
G36*
X224986719Y-63313520D02*
G01*
X225175880Y-63370901D01*
X225175883Y-63370902D01*
X225268333Y-63420318D01*
X225350212Y-63464083D01*
X225503015Y-63589485D01*
X225628417Y-63742288D01*
X225721599Y-63916619D01*
X225778980Y-64105780D01*
X225793500Y-64253206D01*
X225793500Y-64446793D01*
X225778980Y-64594219D01*
X225721599Y-64783380D01*
X225721598Y-64783383D01*
X225672182Y-64875833D01*
X225628417Y-64957712D01*
X225503015Y-65110515D01*
X225350212Y-65235917D01*
X225175881Y-65329099D01*
X224986720Y-65386480D01*
X224790000Y-65405855D01*
X224593281Y-65386480D01*
X224404120Y-65329099D01*
X224229788Y-65235917D01*
X224076985Y-65110515D01*
X223951583Y-64957712D01*
X223858401Y-64783381D01*
X223801020Y-64594220D01*
X223786500Y-64446794D01*
X223786500Y-64253207D01*
X223801020Y-64105781D01*
X223858401Y-63916620D01*
X223858402Y-63916617D01*
X223907818Y-63824167D01*
X223951583Y-63742288D01*
X224076985Y-63589485D01*
X224229788Y-63464083D01*
X224404119Y-63370901D01*
X224593280Y-63313520D01*
X224790000Y-63294145D01*
X224986719Y-63313520D01*
G37*
G36*
X227526719Y-63313520D02*
G01*
X227715880Y-63370901D01*
X227715883Y-63370902D01*
X227808333Y-63420318D01*
X227890212Y-63464083D01*
X228043015Y-63589485D01*
X228168417Y-63742288D01*
X228261599Y-63916619D01*
X228318980Y-64105780D01*
X228333500Y-64253206D01*
X228333500Y-64446793D01*
X228318980Y-64594219D01*
X228261599Y-64783380D01*
X228261598Y-64783383D01*
X228212182Y-64875833D01*
X228168417Y-64957712D01*
X228043015Y-65110515D01*
X227890212Y-65235917D01*
X227715881Y-65329099D01*
X227526720Y-65386480D01*
X227330000Y-65405855D01*
X227133281Y-65386480D01*
X226944120Y-65329099D01*
X226769788Y-65235917D01*
X226616985Y-65110515D01*
X226491583Y-64957712D01*
X226398401Y-64783381D01*
X226341020Y-64594220D01*
X226326500Y-64446794D01*
X226326500Y-64253207D01*
X226341020Y-64105781D01*
X226398401Y-63916620D01*
X226398402Y-63916617D01*
X226447818Y-63824167D01*
X226491583Y-63742288D01*
X226616985Y-63589485D01*
X226769788Y-63464083D01*
X226944119Y-63370901D01*
X227133280Y-63313520D01*
X227330000Y-63294145D01*
X227526719Y-63313520D01*
G37*
G36*
X223253500Y-65401000D02*
G01*
X221246500Y-65401000D01*
X221246500Y-63299000D01*
X223253500Y-63299000D01*
X223253500Y-65401000D01*
G37*
G36*
X238339943Y-57066248D02*
G01*
X238895189Y-57296238D01*
X239136564Y-57457520D01*
X239394899Y-57630134D01*
X239819866Y-58055101D01*
X239948909Y-58248228D01*
X240153762Y-58554811D01*
X240383752Y-59110057D01*
X240501000Y-59699501D01*
X240501000Y-60300499D01*
X240383752Y-60889943D01*
X240153762Y-61445189D01*
X240153761Y-61445190D01*
X239819866Y-61944899D01*
X239394899Y-62369866D01*
X239143347Y-62537948D01*
X238895189Y-62703762D01*
X238339943Y-62933752D01*
X237750499Y-63051000D01*
X237149501Y-63051000D01*
X236560057Y-62933752D01*
X236004811Y-62703762D01*
X235756653Y-62537948D01*
X235505101Y-62369866D01*
X235080134Y-61944899D01*
X234746239Y-61445190D01*
X234746238Y-61445189D01*
X234516248Y-60889943D01*
X234399000Y-60300499D01*
X234399000Y-59699501D01*
X234516248Y-59110057D01*
X234746238Y-58554811D01*
X234951091Y-58248228D01*
X235080134Y-58055101D01*
X235505101Y-57630134D01*
X235763436Y-57457520D01*
X236004811Y-57296238D01*
X236560057Y-57066248D01*
X237149501Y-56949000D01*
X237750499Y-56949000D01*
X238339943Y-57066248D01*
G37*
G36*
X212939943Y-57066248D02*
G01*
X213495189Y-57296238D01*
X213736564Y-57457520D01*
X213994899Y-57630134D01*
X214419866Y-58055101D01*
X214548909Y-58248228D01*
X214753762Y-58554811D01*
X214983752Y-59110057D01*
X215101000Y-59699501D01*
X215101000Y-60300499D01*
X214983752Y-60889943D01*
X214753762Y-61445189D01*
X214753761Y-61445190D01*
X214419866Y-61944899D01*
X213994899Y-62369866D01*
X213743347Y-62537948D01*
X213495189Y-62703762D01*
X212939943Y-62933752D01*
X212350499Y-63051000D01*
X211749501Y-63051000D01*
X211160057Y-62933752D01*
X210604811Y-62703762D01*
X210356653Y-62537948D01*
X210105101Y-62369866D01*
X209680134Y-61944899D01*
X209346239Y-61445190D01*
X209346238Y-61445189D01*
X209116248Y-60889943D01*
X208999000Y-60300499D01*
X208999000Y-59699501D01*
X209116248Y-59110057D01*
X209346238Y-58554811D01*
X209551091Y-58248228D01*
X209680134Y-58055101D01*
X210105101Y-57630134D01*
X210363436Y-57457520D01*
X210604811Y-57296238D01*
X211160057Y-57066248D01*
X211749501Y-56949000D01*
X212350499Y-56949000D01*
X212939943Y-57066248D01*
G37*
G36*
X198498228Y-57181703D02*
G01*
X198653100Y-57245853D01*
X198792481Y-57338985D01*
X198911015Y-57457519D01*
X199004147Y-57596900D01*
X199068297Y-57751772D01*
X199101000Y-57916184D01*
X199101000Y-58083816D01*
X199068297Y-58248228D01*
X199004147Y-58403100D01*
X198911015Y-58542481D01*
X198792481Y-58661015D01*
X198653100Y-58754147D01*
X198498228Y-58818297D01*
X198333816Y-58851000D01*
X198166184Y-58851000D01*
X198001772Y-58818297D01*
X197846900Y-58754147D01*
X197707519Y-58661015D01*
X197588985Y-58542481D01*
X197495853Y-58403100D01*
X197431703Y-58248228D01*
X197399000Y-58083816D01*
X197399000Y-57916184D01*
X197431703Y-57751772D01*
X197495853Y-57596900D01*
X197588985Y-57457519D01*
X197707519Y-57338985D01*
X197846900Y-57245853D01*
X198001772Y-57181703D01*
X198166184Y-57149000D01*
X198333816Y-57149000D01*
X198498228Y-57181703D01*
G37*
G36*
X186051000Y-57591000D02*
G01*
X182949000Y-57591000D01*
X182949000Y-54489000D01*
X186051000Y-54489000D01*
X186051000Y-57591000D01*
G37*
G36*
X199101000Y-56351000D02*
G01*
X197399000Y-56351000D01*
X197399000Y-54649000D01*
X199101000Y-54649000D01*
X199101000Y-56351000D01*
G37*
G36*
X239448903Y-45743213D02*
G01*
X239671177Y-45787426D01*
X240089932Y-45960880D01*
X240466802Y-46212696D01*
X240787304Y-46533198D01*
X241039120Y-46910068D01*
X241212574Y-47328823D01*
X241301000Y-47773371D01*
X241301000Y-48226629D01*
X241212574Y-48671177D01*
X241039120Y-49089932D01*
X240787304Y-49466802D01*
X240466802Y-49787304D01*
X240089932Y-50039120D01*
X239671177Y-50212574D01*
X239448903Y-50256787D01*
X239226630Y-50301000D01*
X238773370Y-50301000D01*
X238551097Y-50256787D01*
X238328823Y-50212574D01*
X237910068Y-50039120D01*
X237533198Y-49787304D01*
X237212696Y-49466802D01*
X236960880Y-49089932D01*
X236787426Y-48671177D01*
X236699000Y-48226629D01*
X236699000Y-47773371D01*
X236787426Y-47328823D01*
X236960880Y-46910068D01*
X237212696Y-46533198D01*
X237533198Y-46212696D01*
X237910068Y-45960880D01*
X238328823Y-45787426D01*
X238551097Y-45743213D01*
X238773370Y-45699000D01*
X239226630Y-45699000D01*
X239448903Y-45743213D01*
G37*
G36*
X179448903Y-45743213D02*
G01*
X179671177Y-45787426D01*
X180089932Y-45960880D01*
X180466802Y-46212696D01*
X180787304Y-46533198D01*
X181039120Y-46910068D01*
X181212574Y-47328823D01*
X181301000Y-47773371D01*
X181301000Y-48226629D01*
X181212574Y-48671177D01*
X181039120Y-49089932D01*
X180787304Y-49466802D01*
X180466802Y-49787304D01*
X180089932Y-50039120D01*
X179671177Y-50212574D01*
X179448903Y-50256787D01*
X179226630Y-50301000D01*
X178773370Y-50301000D01*
X178551097Y-50256787D01*
X178328823Y-50212574D01*
X177910068Y-50039120D01*
X177533198Y-49787304D01*
X177212696Y-49466802D01*
X176960880Y-49089932D01*
X176787426Y-48671177D01*
X176699000Y-48226629D01*
X176699000Y-47773371D01*
X176787426Y-47328823D01*
X176960880Y-46910068D01*
X177212696Y-46533198D01*
X177533198Y-46212696D01*
X177910068Y-45960880D01*
X178328823Y-45787426D01*
X178551097Y-45743213D01*
X178773370Y-45699000D01*
X179226630Y-45699000D01*
X179448903Y-45743213D01*
G37*
M02*
