M48
; DRILL file {KiCad (5.1.5)-3} date 14-04-2020 19:53:31
; FORMAT={-:-/ absolute / metric / decimal}
; #@! TF.CreationDate,2020-04-14T19:53:31+02:00
; #@! TF.GenerationSoftware,Kicad,Pcbnew,(5.1.5)-3
FMAT,2
METRIC
T1C0.400
T2C0.800
T3C0.900
T4C1.000
T5C1.100
T6C1.300
T7C1.800
T8C2.500
T9C2.700
T10C2.700
%
G90
G05
T1
X175.0Y-50.0
X175.0Y-57.5
X175.0Y-65.0
X175.0Y-75.0
X175.0Y-85.0
X175.0Y-92.5
X175.0Y-100.0
X175.0Y-110.0
X175.0Y-117.5
X175.0Y-127.5
X175.0Y-137.5
X180.0Y-142.5
X181.0Y-80.0
X182.5Y-87.5
X182.5Y-95.0
X182.5Y-105.0
X182.5Y-115.0
X182.5Y-125.0
X184.0Y-51.5
X184.5Y-46.5
X185.0Y-135.0
X187.5Y-142.5
X188.5Y-46.5
X189.5Y-79.5
X191.0Y-51.5
X192.5Y-58.5
X192.5Y-62.5
X192.5Y-67.5
X195.0Y-46.25
X195.0Y-77.5
X195.0Y-82.5
X195.0Y-90.0
X195.0Y-97.5
X195.0Y-105.0
X195.0Y-112.5
X195.0Y-140.0
X197.5Y-49.0
X197.5Y-62.5
X202.5Y-62.5
X202.5Y-85.0
X205.0Y-47.5
X205.0Y-67.5
X205.0Y-77.5
X205.0Y-80.0
X205.0Y-142.5
X207.5Y-72.5
X210.0Y-75.0
X212.5Y-47.5
X212.5Y-77.5
X212.5Y-142.5
X218.0Y-48.0
X220.0Y-47.5
X220.0Y-142.5
X225.0Y-52.5
X227.5Y-47.5
X227.5Y-142.5
X232.5Y-52.5
X232.5Y-67.5
X235.0Y-47.5
X235.0Y-142.5
X240.0Y-52.5
X240.0Y-67.5
X242.5Y-47.5
X242.5Y-75.0
X242.5Y-82.5
X242.5Y-90.0
X242.5Y-97.5
X242.5Y-105.0
X242.5Y-112.5
X242.5Y-120.0
X242.5Y-127.5
X242.5Y-135.0
X242.5Y-142.5
T2
X198.25Y-55.5
X198.25Y-58.0
T3
X207.75Y-96.25
X207.75Y-101.25
X207.75Y-116.25
X207.75Y-121.25
X235.25Y-96.25
X235.25Y-101.25
X235.25Y-106.25
X235.25Y-111.25
X235.25Y-116.25
X235.25Y-121.25
T4
X187.0Y-70.5
X187.0Y-75.5
X199.25Y-70.5
X199.25Y-75.5
T5
X222.25Y-64.35
X224.79Y-64.35
X227.33Y-64.35
X233.7Y-70.98
X233.7Y-78.6
X222.2Y-70.98
X222.2Y-78.6
X216.2Y-71.1
X216.2Y-78.72
X228.2Y-71.1
X228.2Y-78.72
T6
X191.0Y-87.5
X191.0Y-110.0
T7
X191.0Y-117.04
X191.0Y-124.96
X184.5Y-56.04
X184.5Y-63.96
T8
X212.05Y-60.0
X237.45Y-60.0
T9
X237.5Y-140.0
X239.0Y-48.0
X179.0Y-48.0
X200.5Y-140.0
T10
X191.0Y-98.75
T0
M30
