G04 #@! TF.GenerationSoftware,KiCad,Pcbnew,(5.1.5)-3*
G04 #@! TF.CreationDate,2020-04-01T20:44:35+02:00*
G04 #@! TF.ProjectId,5vfrommains,35766672-6f6d-46d6-9169-6e732e6b6963,rev?*
G04 #@! TF.SameCoordinates,Original*
G04 #@! TF.FileFunction,Copper,L2,Bot*
G04 #@! TF.FilePolarity,Positive*
%FSLAX46Y46*%
G04 Gerber Fmt 4.6, Leading zero omitted, Abs format (unit mm)*
G04 Created by KiCad (PCBNEW (5.1.5)-3) date 2020-04-01 20:44:35*
%MOMM*%
%LPD*%
G04 APERTURE LIST*
%ADD10C,6.000000*%
%ADD11C,4.500000*%
%ADD12C,2.000000*%
%ADD13R,2.000000X2.000000*%
%ADD14O,1.905000X2.000000*%
%ADD15R,1.905000X2.000000*%
%ADD16R,2.500880X2.500880*%
%ADD17C,3.000000*%
%ADD18O,2.200000X2.200000*%
%ADD19R,2.200000X2.200000*%
%ADD20C,0.800000*%
%ADD21C,2.500000*%
%ADD22C,0.254000*%
G04 APERTURE END LIST*
D10*
X212100000Y-60000000D03*
X237500000Y-60000000D03*
D11*
X179000000Y-65000000D03*
X239000000Y-48000000D03*
D12*
X235250000Y-96250000D03*
X235250000Y-101250000D03*
X235250000Y-106250000D03*
X235250000Y-111250000D03*
X235250000Y-116250000D03*
X235250000Y-121250000D03*
X207750000Y-121250000D03*
X207750000Y-116250000D03*
X207750000Y-101250000D03*
D13*
X207750000Y-96250000D03*
D14*
X227330000Y-64350000D03*
X224790000Y-64350000D03*
D15*
X222250000Y-64350000D03*
D16*
X184500000Y-57500000D03*
X184500000Y-48500000D03*
X191000000Y-125500000D03*
X191000000Y-116500000D03*
D11*
X200500000Y-72000000D03*
X237500000Y-140000000D03*
X200500000Y-140000000D03*
D17*
X191000000Y-110000000D03*
X191000000Y-87500000D03*
D18*
X228200000Y-78720000D03*
D19*
X228200000Y-71100000D03*
D18*
X216200000Y-78720000D03*
D19*
X216200000Y-71100000D03*
D18*
X233700000Y-70980000D03*
D19*
X233700000Y-78600000D03*
D18*
X222200000Y-70980000D03*
D19*
X222200000Y-78600000D03*
D12*
X185500000Y-69000000D03*
D13*
X190500000Y-69000000D03*
D12*
X198500000Y-60000000D03*
D13*
X198500000Y-65000000D03*
D20*
X242500000Y-47500000D03*
X235000000Y-47500000D03*
X227500000Y-47500000D03*
X220000000Y-47500000D03*
X212500000Y-47500000D03*
X205000000Y-47500000D03*
X195000000Y-47500000D03*
X195000000Y-55000000D03*
X205000000Y-67500000D03*
X195000000Y-75000000D03*
X195000000Y-82500000D03*
X195000000Y-90000000D03*
X195000000Y-97500000D03*
X195000000Y-105000000D03*
X195000000Y-112500000D03*
X195000000Y-140000000D03*
X205000000Y-142500000D03*
X212500000Y-142500000D03*
X220000000Y-142500000D03*
X227500000Y-142500000D03*
X235000000Y-142500000D03*
X242500000Y-142500000D03*
X242500000Y-135000000D03*
X242500000Y-127500000D03*
X242500000Y-120000000D03*
X242500000Y-112500000D03*
X242500000Y-105000000D03*
X242500000Y-97500000D03*
X242500000Y-90000000D03*
X242500000Y-82500000D03*
X242500000Y-75000000D03*
X240000000Y-67500000D03*
X232500000Y-67500000D03*
X205000000Y-77500000D03*
X205000000Y-80000000D03*
X202500000Y-85000000D03*
X225000000Y-52500000D03*
X232500000Y-52500000D03*
X240000000Y-52500000D03*
X175000000Y-85000000D03*
X175000000Y-75000000D03*
X175000000Y-65000000D03*
X175000000Y-57500000D03*
X175000000Y-50000000D03*
X175000000Y-92500000D03*
X175000000Y-100000000D03*
X175000000Y-110000000D03*
X175000000Y-117500000D03*
X175000000Y-127500000D03*
X175000000Y-137500000D03*
X180000000Y-142500000D03*
X187500000Y-142500000D03*
X185000000Y-135000000D03*
X182500000Y-125000000D03*
X182500000Y-115000000D03*
X182500000Y-105000000D03*
X182500000Y-95000000D03*
X182500000Y-87500000D03*
X218000000Y-48000000D03*
X182000000Y-69000000D03*
X184000000Y-73000000D03*
X183000000Y-65000000D03*
X194500000Y-58500000D03*
X198500000Y-56500000D03*
X202500000Y-58500000D03*
X181000000Y-80000000D03*
X189500000Y-79500000D03*
D21*
X228200000Y-78720000D02*
X228200000Y-109200000D01*
X228200000Y-109200000D02*
X231250000Y-112250000D01*
X231250000Y-112250000D02*
X235250000Y-116250000D01*
X230000000Y-111000000D02*
X231250000Y-112250000D01*
X230000000Y-85900000D02*
X230000000Y-111000000D01*
X233700000Y-78600000D02*
X233700000Y-82200000D01*
X233700000Y-82200000D02*
X230000000Y-85900000D01*
D22*
G36*
X242356775Y-45148147D02*
G01*
X242699967Y-45251763D01*
X243016489Y-45420062D01*
X243294299Y-45646637D01*
X243522806Y-45922856D01*
X243693310Y-46238197D01*
X243799319Y-46580656D01*
X243840000Y-46967712D01*
X243840001Y-141867711D01*
X243801853Y-142256776D01*
X243698238Y-142599964D01*
X243529939Y-142916489D01*
X243303365Y-143194296D01*
X243027146Y-143422805D01*
X242711803Y-143593310D01*
X242369344Y-143699319D01*
X241982288Y-143740000D01*
X176282279Y-143740000D01*
X175893224Y-143701853D01*
X175550036Y-143598238D01*
X175233511Y-143429939D01*
X174955704Y-143203365D01*
X174727195Y-142927146D01*
X174556690Y-142611803D01*
X174450681Y-142269344D01*
X174410000Y-141882288D01*
X174410000Y-139715852D01*
X197615000Y-139715852D01*
X197615000Y-140284148D01*
X197725869Y-140841523D01*
X197943346Y-141366560D01*
X198259074Y-141839080D01*
X198660920Y-142240926D01*
X199133440Y-142556654D01*
X199658477Y-142774131D01*
X200215852Y-142885000D01*
X200784148Y-142885000D01*
X201341523Y-142774131D01*
X201866560Y-142556654D01*
X202339080Y-142240926D01*
X202740926Y-141839080D01*
X203056654Y-141366560D01*
X203274131Y-140841523D01*
X203385000Y-140284148D01*
X203385000Y-139715852D01*
X234615000Y-139715852D01*
X234615000Y-140284148D01*
X234725869Y-140841523D01*
X234943346Y-141366560D01*
X235259074Y-141839080D01*
X235660920Y-142240926D01*
X236133440Y-142556654D01*
X236658477Y-142774131D01*
X237215852Y-142885000D01*
X237784148Y-142885000D01*
X238341523Y-142774131D01*
X238866560Y-142556654D01*
X239339080Y-142240926D01*
X239740926Y-141839080D01*
X240056654Y-141366560D01*
X240274131Y-140841523D01*
X240385000Y-140284148D01*
X240385000Y-139715852D01*
X240274131Y-139158477D01*
X240056654Y-138633440D01*
X239740926Y-138160920D01*
X239339080Y-137759074D01*
X238866560Y-137443346D01*
X238341523Y-137225869D01*
X237784148Y-137115000D01*
X237215852Y-137115000D01*
X236658477Y-137225869D01*
X236133440Y-137443346D01*
X235660920Y-137759074D01*
X235259074Y-138160920D01*
X234943346Y-138633440D01*
X234725869Y-139158477D01*
X234615000Y-139715852D01*
X203385000Y-139715852D01*
X203274131Y-139158477D01*
X203056654Y-138633440D01*
X202740926Y-138160920D01*
X202339080Y-137759074D01*
X201866560Y-137443346D01*
X201341523Y-137225869D01*
X200784148Y-137115000D01*
X200215852Y-137115000D01*
X199658477Y-137225869D01*
X199133440Y-137443346D01*
X198660920Y-137759074D01*
X198259074Y-138160920D01*
X197943346Y-138633440D01*
X197725869Y-139158477D01*
X197615000Y-139715852D01*
X174410000Y-139715852D01*
X174410000Y-124249560D01*
X189111488Y-124249560D01*
X189111488Y-126750440D01*
X189123748Y-126874922D01*
X189160058Y-126994620D01*
X189219023Y-127104934D01*
X189298375Y-127201625D01*
X189395066Y-127280977D01*
X189505380Y-127339942D01*
X189625078Y-127376252D01*
X189749560Y-127388512D01*
X192250440Y-127388512D01*
X192374922Y-127376252D01*
X192494620Y-127339942D01*
X192604934Y-127280977D01*
X192701625Y-127201625D01*
X192780977Y-127104934D01*
X192839942Y-126994620D01*
X192876252Y-126874922D01*
X192888512Y-126750440D01*
X192888512Y-124249560D01*
X192876252Y-124125078D01*
X192839942Y-124005380D01*
X192780977Y-123895066D01*
X192701625Y-123798375D01*
X192604934Y-123719023D01*
X192494620Y-123660058D01*
X192374922Y-123623748D01*
X192250440Y-123611488D01*
X189749560Y-123611488D01*
X189625078Y-123623748D01*
X189505380Y-123660058D01*
X189395066Y-123719023D01*
X189298375Y-123798375D01*
X189219023Y-123895066D01*
X189160058Y-124005380D01*
X189123748Y-124125078D01*
X189111488Y-124249560D01*
X174410000Y-124249560D01*
X174410000Y-120950656D01*
X184342753Y-120950656D01*
X184343171Y-121010472D01*
X184342753Y-121070288D01*
X184343652Y-121079460D01*
X184374252Y-121370605D01*
X184386283Y-121429217D01*
X184397489Y-121487963D01*
X184400153Y-121496784D01*
X184486721Y-121776440D01*
X184509899Y-121831578D01*
X184532311Y-121887050D01*
X184536638Y-121895186D01*
X184675877Y-122152702D01*
X184709304Y-122202259D01*
X184742080Y-122252347D01*
X184747905Y-122259488D01*
X184934510Y-122485056D01*
X184976965Y-122527215D01*
X185018809Y-122569945D01*
X185025909Y-122575819D01*
X185252773Y-122760845D01*
X185302566Y-122793927D01*
X185351955Y-122827745D01*
X185360061Y-122832127D01*
X185618542Y-122969564D01*
X185673836Y-122992355D01*
X185728829Y-123015925D01*
X185737632Y-123018650D01*
X186017887Y-123103264D01*
X186076564Y-123114882D01*
X186135079Y-123127320D01*
X186144242Y-123128283D01*
X186144244Y-123128283D01*
X186435596Y-123156850D01*
X186435598Y-123156850D01*
X186467581Y-123160000D01*
X196532419Y-123160000D01*
X196565884Y-123156704D01*
X196585349Y-123156704D01*
X196594514Y-123155741D01*
X196885438Y-123123108D01*
X196943941Y-123110672D01*
X197002629Y-123099052D01*
X197011432Y-123096327D01*
X197290476Y-123007809D01*
X197345412Y-122984263D01*
X197400764Y-122961449D01*
X197408870Y-122957065D01*
X197665408Y-122816032D01*
X197714753Y-122782245D01*
X197764591Y-122749133D01*
X197771691Y-122743259D01*
X197995949Y-122555084D01*
X198037793Y-122512354D01*
X198080248Y-122470195D01*
X198086072Y-122463053D01*
X198269509Y-122234903D01*
X198302251Y-122184869D01*
X198335714Y-122135258D01*
X198340040Y-122127122D01*
X198475670Y-121867687D01*
X198498082Y-121812215D01*
X198521260Y-121757077D01*
X198523923Y-121748255D01*
X198606578Y-121467417D01*
X198617785Y-121408669D01*
X198629816Y-121350059D01*
X198630715Y-121340888D01*
X198653641Y-121088967D01*
X206115000Y-121088967D01*
X206115000Y-121411033D01*
X206177832Y-121726912D01*
X206301082Y-122024463D01*
X206480013Y-122292252D01*
X206707748Y-122519987D01*
X206975537Y-122698918D01*
X207273088Y-122822168D01*
X207588967Y-122885000D01*
X207911033Y-122885000D01*
X208226912Y-122822168D01*
X208524463Y-122698918D01*
X208792252Y-122519987D01*
X209019987Y-122292252D01*
X209198918Y-122024463D01*
X209322168Y-121726912D01*
X209385000Y-121411033D01*
X209385000Y-121088967D01*
X233615000Y-121088967D01*
X233615000Y-121411033D01*
X233677832Y-121726912D01*
X233801082Y-122024463D01*
X233980013Y-122292252D01*
X234207748Y-122519987D01*
X234475537Y-122698918D01*
X234773088Y-122822168D01*
X235088967Y-122885000D01*
X235411033Y-122885000D01*
X235726912Y-122822168D01*
X236024463Y-122698918D01*
X236292252Y-122519987D01*
X236519987Y-122292252D01*
X236698918Y-122024463D01*
X236822168Y-121726912D01*
X236885000Y-121411033D01*
X236885000Y-121088967D01*
X236822168Y-120773088D01*
X236698918Y-120475537D01*
X236519987Y-120207748D01*
X236292252Y-119980013D01*
X236024463Y-119801082D01*
X235726912Y-119677832D01*
X235411033Y-119615000D01*
X235088967Y-119615000D01*
X234773088Y-119677832D01*
X234475537Y-119801082D01*
X234207748Y-119980013D01*
X233980013Y-120207748D01*
X233801082Y-120475537D01*
X233677832Y-120773088D01*
X233615000Y-121088967D01*
X209385000Y-121088967D01*
X209322168Y-120773088D01*
X209198918Y-120475537D01*
X209019987Y-120207748D01*
X208792252Y-119980013D01*
X208524463Y-119801082D01*
X208226912Y-119677832D01*
X207911033Y-119615000D01*
X207588967Y-119615000D01*
X207273088Y-119677832D01*
X206975537Y-119801082D01*
X206707748Y-119980013D01*
X206480013Y-120207748D01*
X206301082Y-120475537D01*
X206177832Y-120773088D01*
X206115000Y-121088967D01*
X198653641Y-121088967D01*
X198657247Y-121049344D01*
X198656829Y-120989528D01*
X198657247Y-120929712D01*
X198656348Y-120920541D01*
X198625748Y-120629395D01*
X198613710Y-120570753D01*
X198602510Y-120512037D01*
X198599847Y-120503216D01*
X198513279Y-120223560D01*
X198490101Y-120168422D01*
X198467689Y-120112950D01*
X198463362Y-120104814D01*
X198324123Y-119847298D01*
X198290701Y-119797749D01*
X198257920Y-119747653D01*
X198252095Y-119740512D01*
X198065490Y-119514945D01*
X198023054Y-119472804D01*
X197981191Y-119430055D01*
X197974091Y-119424181D01*
X197747227Y-119239155D01*
X197697408Y-119206055D01*
X197648045Y-119172256D01*
X197639939Y-119167873D01*
X197381458Y-119030436D01*
X197326164Y-119007645D01*
X197271171Y-118984075D01*
X197262368Y-118981350D01*
X196982114Y-118896736D01*
X196923429Y-118885116D01*
X196864921Y-118872680D01*
X196855758Y-118871717D01*
X196855756Y-118871717D01*
X196564404Y-118843150D01*
X196564402Y-118843150D01*
X196532419Y-118840000D01*
X186467581Y-118840000D01*
X186434116Y-118843296D01*
X186414651Y-118843296D01*
X186405486Y-118844259D01*
X186114561Y-118876892D01*
X186056044Y-118889331D01*
X185997371Y-118900948D01*
X185988568Y-118903673D01*
X185709523Y-118992191D01*
X185654588Y-119015737D01*
X185599235Y-119038551D01*
X185591129Y-119042935D01*
X185334592Y-119183968D01*
X185285247Y-119217755D01*
X185235409Y-119250867D01*
X185228309Y-119256741D01*
X185004051Y-119444916D01*
X184962207Y-119487646D01*
X184919751Y-119529806D01*
X184913927Y-119536947D01*
X184730491Y-119765097D01*
X184697744Y-119815139D01*
X184664286Y-119864742D01*
X184659960Y-119872879D01*
X184524330Y-120132313D01*
X184501918Y-120187785D01*
X184478740Y-120242923D01*
X184476077Y-120251745D01*
X184393422Y-120532583D01*
X184382224Y-120591284D01*
X184370184Y-120649940D01*
X184369285Y-120659112D01*
X184342753Y-120950656D01*
X174410000Y-120950656D01*
X174410000Y-115249560D01*
X189111488Y-115249560D01*
X189111488Y-117750440D01*
X189123748Y-117874922D01*
X189160058Y-117994620D01*
X189219023Y-118104934D01*
X189298375Y-118201625D01*
X189395066Y-118280977D01*
X189505380Y-118339942D01*
X189625078Y-118376252D01*
X189749560Y-118388512D01*
X192250440Y-118388512D01*
X192374922Y-118376252D01*
X192494620Y-118339942D01*
X192604934Y-118280977D01*
X192701625Y-118201625D01*
X192780977Y-118104934D01*
X192839942Y-117994620D01*
X192876252Y-117874922D01*
X192888512Y-117750440D01*
X192888512Y-116088967D01*
X206115000Y-116088967D01*
X206115000Y-116411033D01*
X206177832Y-116726912D01*
X206301082Y-117024463D01*
X206480013Y-117292252D01*
X206707748Y-117519987D01*
X206975537Y-117698918D01*
X207273088Y-117822168D01*
X207588967Y-117885000D01*
X207911033Y-117885000D01*
X208226912Y-117822168D01*
X208524463Y-117698918D01*
X208792252Y-117519987D01*
X209019987Y-117292252D01*
X209198918Y-117024463D01*
X209322168Y-116726912D01*
X209385000Y-116411033D01*
X209385000Y-116088967D01*
X209322168Y-115773088D01*
X209198918Y-115475537D01*
X209019987Y-115207748D01*
X208792252Y-114980013D01*
X208524463Y-114801082D01*
X208226912Y-114677832D01*
X207911033Y-114615000D01*
X207588967Y-114615000D01*
X207273088Y-114677832D01*
X206975537Y-114801082D01*
X206707748Y-114980013D01*
X206480013Y-115207748D01*
X206301082Y-115475537D01*
X206177832Y-115773088D01*
X206115000Y-116088967D01*
X192888512Y-116088967D01*
X192888512Y-115249560D01*
X192876252Y-115125078D01*
X192839942Y-115005380D01*
X192780977Y-114895066D01*
X192701625Y-114798375D01*
X192604934Y-114719023D01*
X192494620Y-114660058D01*
X192374922Y-114623748D01*
X192250440Y-114611488D01*
X189749560Y-114611488D01*
X189625078Y-114623748D01*
X189505380Y-114660058D01*
X189395066Y-114719023D01*
X189298375Y-114798375D01*
X189219023Y-114895066D01*
X189160058Y-115005380D01*
X189123748Y-115125078D01*
X189111488Y-115249560D01*
X174410000Y-115249560D01*
X174410000Y-109789721D01*
X188865000Y-109789721D01*
X188865000Y-110210279D01*
X188947047Y-110622756D01*
X189107988Y-111011302D01*
X189341637Y-111360983D01*
X189639017Y-111658363D01*
X189988698Y-111892012D01*
X190377244Y-112052953D01*
X190789721Y-112135000D01*
X191210279Y-112135000D01*
X191622756Y-112052953D01*
X192011302Y-111892012D01*
X192360983Y-111658363D01*
X192658363Y-111360983D01*
X192892012Y-111011302D01*
X193052953Y-110622756D01*
X193135000Y-110210279D01*
X193135000Y-109789721D01*
X193052953Y-109377244D01*
X192979537Y-109200000D01*
X226305881Y-109200000D01*
X226342275Y-109569524D01*
X226450062Y-109924848D01*
X226625098Y-110252317D01*
X226801628Y-110467420D01*
X226801631Y-110467423D01*
X226860656Y-110539345D01*
X226932578Y-110598370D01*
X228601631Y-112267423D01*
X228660656Y-112339345D01*
X228732578Y-112398370D01*
X229851628Y-113517420D01*
X233982579Y-117648372D01*
X234197682Y-117824902D01*
X234525151Y-117999938D01*
X234880475Y-118107724D01*
X235249999Y-118144119D01*
X235619523Y-118107724D01*
X235974848Y-117999938D01*
X236302316Y-117824902D01*
X236589344Y-117589344D01*
X236824902Y-117302316D01*
X236999938Y-116974848D01*
X237107724Y-116619523D01*
X237144119Y-116249999D01*
X237107724Y-115880475D01*
X236999938Y-115525151D01*
X236824902Y-115197682D01*
X236648372Y-114982579D01*
X232754760Y-111088967D01*
X233615000Y-111088967D01*
X233615000Y-111411033D01*
X233677832Y-111726912D01*
X233801082Y-112024463D01*
X233980013Y-112292252D01*
X234207748Y-112519987D01*
X234475537Y-112698918D01*
X234773088Y-112822168D01*
X235088967Y-112885000D01*
X235411033Y-112885000D01*
X235726912Y-112822168D01*
X236024463Y-112698918D01*
X236292252Y-112519987D01*
X236519987Y-112292252D01*
X236698918Y-112024463D01*
X236822168Y-111726912D01*
X236885000Y-111411033D01*
X236885000Y-111088967D01*
X236822168Y-110773088D01*
X236698918Y-110475537D01*
X236519987Y-110207748D01*
X236292252Y-109980013D01*
X236024463Y-109801082D01*
X235726912Y-109677832D01*
X235411033Y-109615000D01*
X235088967Y-109615000D01*
X234773088Y-109677832D01*
X234475537Y-109801082D01*
X234207748Y-109980013D01*
X233980013Y-110207748D01*
X233801082Y-110475537D01*
X233677832Y-110773088D01*
X233615000Y-111088967D01*
X232754760Y-111088967D01*
X232517420Y-110851628D01*
X231885000Y-110219208D01*
X231885000Y-106088967D01*
X233615000Y-106088967D01*
X233615000Y-106411033D01*
X233677832Y-106726912D01*
X233801082Y-107024463D01*
X233980013Y-107292252D01*
X234207748Y-107519987D01*
X234475537Y-107698918D01*
X234773088Y-107822168D01*
X235088967Y-107885000D01*
X235411033Y-107885000D01*
X235726912Y-107822168D01*
X236024463Y-107698918D01*
X236292252Y-107519987D01*
X236519987Y-107292252D01*
X236698918Y-107024463D01*
X236822168Y-106726912D01*
X236885000Y-106411033D01*
X236885000Y-106088967D01*
X236822168Y-105773088D01*
X236698918Y-105475537D01*
X236519987Y-105207748D01*
X236292252Y-104980013D01*
X236024463Y-104801082D01*
X235726912Y-104677832D01*
X235411033Y-104615000D01*
X235088967Y-104615000D01*
X234773088Y-104677832D01*
X234475537Y-104801082D01*
X234207748Y-104980013D01*
X233980013Y-105207748D01*
X233801082Y-105475537D01*
X233677832Y-105773088D01*
X233615000Y-106088967D01*
X231885000Y-106088967D01*
X231885000Y-101088967D01*
X233615000Y-101088967D01*
X233615000Y-101411033D01*
X233677832Y-101726912D01*
X233801082Y-102024463D01*
X233980013Y-102292252D01*
X234207748Y-102519987D01*
X234475537Y-102698918D01*
X234773088Y-102822168D01*
X235088967Y-102885000D01*
X235411033Y-102885000D01*
X235726912Y-102822168D01*
X236024463Y-102698918D01*
X236292252Y-102519987D01*
X236519987Y-102292252D01*
X236698918Y-102024463D01*
X236822168Y-101726912D01*
X236885000Y-101411033D01*
X236885000Y-101088967D01*
X236822168Y-100773088D01*
X236698918Y-100475537D01*
X236519987Y-100207748D01*
X236292252Y-99980013D01*
X236024463Y-99801082D01*
X235726912Y-99677832D01*
X235411033Y-99615000D01*
X235088967Y-99615000D01*
X234773088Y-99677832D01*
X234475537Y-99801082D01*
X234207748Y-99980013D01*
X233980013Y-100207748D01*
X233801082Y-100475537D01*
X233677832Y-100773088D01*
X233615000Y-101088967D01*
X231885000Y-101088967D01*
X231885000Y-96088967D01*
X233615000Y-96088967D01*
X233615000Y-96411033D01*
X233677832Y-96726912D01*
X233801082Y-97024463D01*
X233980013Y-97292252D01*
X234207748Y-97519987D01*
X234475537Y-97698918D01*
X234773088Y-97822168D01*
X235088967Y-97885000D01*
X235411033Y-97885000D01*
X235726912Y-97822168D01*
X236024463Y-97698918D01*
X236292252Y-97519987D01*
X236519987Y-97292252D01*
X236698918Y-97024463D01*
X236822168Y-96726912D01*
X236885000Y-96411033D01*
X236885000Y-96088967D01*
X236822168Y-95773088D01*
X236698918Y-95475537D01*
X236519987Y-95207748D01*
X236292252Y-94980013D01*
X236024463Y-94801082D01*
X235726912Y-94677832D01*
X235411033Y-94615000D01*
X235088967Y-94615000D01*
X234773088Y-94677832D01*
X234475537Y-94801082D01*
X234207748Y-94980013D01*
X233980013Y-95207748D01*
X233801082Y-95475537D01*
X233677832Y-95773088D01*
X233615000Y-96088967D01*
X231885000Y-96088967D01*
X231885000Y-86680792D01*
X234967423Y-83598370D01*
X235039345Y-83539345D01*
X235274903Y-83252317D01*
X235449939Y-82924848D01*
X235557725Y-82569524D01*
X235585000Y-82292597D01*
X235585000Y-82292588D01*
X235594119Y-82200001D01*
X235585000Y-82107414D01*
X235585000Y-78507403D01*
X235557725Y-78230476D01*
X235449939Y-77875152D01*
X235438072Y-77852950D01*
X235438072Y-77500000D01*
X235425812Y-77375518D01*
X235389502Y-77255820D01*
X235330537Y-77145506D01*
X235251185Y-77048815D01*
X235154494Y-76969463D01*
X235044180Y-76910498D01*
X234924482Y-76874188D01*
X234800000Y-76861928D01*
X234447049Y-76861928D01*
X234424847Y-76850061D01*
X234069523Y-76742275D01*
X233700000Y-76705880D01*
X233330476Y-76742275D01*
X232975152Y-76850061D01*
X232952950Y-76861928D01*
X232600000Y-76861928D01*
X232475518Y-76874188D01*
X232355820Y-76910498D01*
X232245506Y-76969463D01*
X232148815Y-77048815D01*
X232069463Y-77145506D01*
X232010498Y-77255820D01*
X231974188Y-77375518D01*
X231961928Y-77500000D01*
X231961928Y-77852951D01*
X231950061Y-77875153D01*
X231842275Y-78230477D01*
X231815000Y-78507404D01*
X231815001Y-81419206D01*
X230085000Y-83149208D01*
X230085000Y-78627403D01*
X230057725Y-78350476D01*
X229949939Y-77995152D01*
X229774903Y-77667683D01*
X229539345Y-77380655D01*
X229252317Y-77145097D01*
X228924847Y-76970061D01*
X228569523Y-76862275D01*
X228200000Y-76825880D01*
X227830476Y-76862275D01*
X227475152Y-76970061D01*
X227147683Y-77145097D01*
X226860655Y-77380655D01*
X226625097Y-77667683D01*
X226450061Y-77995153D01*
X226342275Y-78350477D01*
X226315000Y-78627404D01*
X226315001Y-109107401D01*
X226305881Y-109200000D01*
X192979537Y-109200000D01*
X192892012Y-108988698D01*
X192658363Y-108639017D01*
X192360983Y-108341637D01*
X192011302Y-108107988D01*
X191622756Y-107947047D01*
X191210279Y-107865000D01*
X190789721Y-107865000D01*
X190377244Y-107947047D01*
X189988698Y-108107988D01*
X189639017Y-108341637D01*
X189341637Y-108639017D01*
X189107988Y-108988698D01*
X188947047Y-109377244D01*
X188865000Y-109789721D01*
X174410000Y-109789721D01*
X174410000Y-101088967D01*
X206115000Y-101088967D01*
X206115000Y-101411033D01*
X206177832Y-101726912D01*
X206301082Y-102024463D01*
X206480013Y-102292252D01*
X206707748Y-102519987D01*
X206975537Y-102698918D01*
X207273088Y-102822168D01*
X207588967Y-102885000D01*
X207911033Y-102885000D01*
X208226912Y-102822168D01*
X208524463Y-102698918D01*
X208792252Y-102519987D01*
X209019987Y-102292252D01*
X209198918Y-102024463D01*
X209322168Y-101726912D01*
X209385000Y-101411033D01*
X209385000Y-101088967D01*
X209322168Y-100773088D01*
X209198918Y-100475537D01*
X209019987Y-100207748D01*
X208792252Y-99980013D01*
X208524463Y-99801082D01*
X208226912Y-99677832D01*
X207911033Y-99615000D01*
X207588967Y-99615000D01*
X207273088Y-99677832D01*
X206975537Y-99801082D01*
X206707748Y-99980013D01*
X206480013Y-100207748D01*
X206301082Y-100475537D01*
X206177832Y-100773088D01*
X206115000Y-101088967D01*
X174410000Y-101088967D01*
X174410000Y-98554495D01*
X189015000Y-98554495D01*
X189015000Y-98945505D01*
X189091282Y-99329003D01*
X189240915Y-99690250D01*
X189458149Y-100015364D01*
X189734636Y-100291851D01*
X190059750Y-100509085D01*
X190420997Y-100658718D01*
X190804495Y-100735000D01*
X191195505Y-100735000D01*
X191579003Y-100658718D01*
X191940250Y-100509085D01*
X192265364Y-100291851D01*
X192541851Y-100015364D01*
X192759085Y-99690250D01*
X192908718Y-99329003D01*
X192985000Y-98945505D01*
X192985000Y-98554495D01*
X192908718Y-98170997D01*
X192759085Y-97809750D01*
X192541851Y-97484636D01*
X192265364Y-97208149D01*
X191940250Y-96990915D01*
X191579003Y-96841282D01*
X191195505Y-96765000D01*
X190804495Y-96765000D01*
X190420997Y-96841282D01*
X190059750Y-96990915D01*
X189734636Y-97208149D01*
X189458149Y-97484636D01*
X189240915Y-97809750D01*
X189091282Y-98170997D01*
X189015000Y-98554495D01*
X174410000Y-98554495D01*
X174410000Y-95250000D01*
X206111928Y-95250000D01*
X206111928Y-97250000D01*
X206124188Y-97374482D01*
X206160498Y-97494180D01*
X206219463Y-97604494D01*
X206298815Y-97701185D01*
X206395506Y-97780537D01*
X206505820Y-97839502D01*
X206625518Y-97875812D01*
X206750000Y-97888072D01*
X208750000Y-97888072D01*
X208874482Y-97875812D01*
X208994180Y-97839502D01*
X209104494Y-97780537D01*
X209201185Y-97701185D01*
X209280537Y-97604494D01*
X209339502Y-97494180D01*
X209375812Y-97374482D01*
X209388072Y-97250000D01*
X209388072Y-95250000D01*
X209375812Y-95125518D01*
X209339502Y-95005820D01*
X209280537Y-94895506D01*
X209201185Y-94798815D01*
X209104494Y-94719463D01*
X208994180Y-94660498D01*
X208874482Y-94624188D01*
X208750000Y-94611928D01*
X206750000Y-94611928D01*
X206625518Y-94624188D01*
X206505820Y-94660498D01*
X206395506Y-94719463D01*
X206298815Y-94798815D01*
X206219463Y-94895506D01*
X206160498Y-95005820D01*
X206124188Y-95125518D01*
X206111928Y-95250000D01*
X174410000Y-95250000D01*
X174410000Y-87289721D01*
X188865000Y-87289721D01*
X188865000Y-87710279D01*
X188947047Y-88122756D01*
X189107988Y-88511302D01*
X189341637Y-88860983D01*
X189639017Y-89158363D01*
X189988698Y-89392012D01*
X190377244Y-89552953D01*
X190789721Y-89635000D01*
X191210279Y-89635000D01*
X191622756Y-89552953D01*
X192011302Y-89392012D01*
X192360983Y-89158363D01*
X192658363Y-88860983D01*
X192892012Y-88511302D01*
X193052953Y-88122756D01*
X193135000Y-87710279D01*
X193135000Y-87289721D01*
X193052953Y-86877244D01*
X192892012Y-86488698D01*
X192658363Y-86139017D01*
X192360983Y-85841637D01*
X192011302Y-85607988D01*
X191622756Y-85447047D01*
X191210279Y-85365000D01*
X190789721Y-85365000D01*
X190377244Y-85447047D01*
X189988698Y-85607988D01*
X189639017Y-85841637D01*
X189341637Y-86139017D01*
X189107988Y-86488698D01*
X188947047Y-86877244D01*
X188865000Y-87289721D01*
X174410000Y-87289721D01*
X174410000Y-78549117D01*
X214465000Y-78549117D01*
X214465000Y-78890883D01*
X214531675Y-79226081D01*
X214662463Y-79541831D01*
X214852337Y-79825998D01*
X215094002Y-80067663D01*
X215378169Y-80257537D01*
X215693919Y-80388325D01*
X216029117Y-80455000D01*
X216370883Y-80455000D01*
X216706081Y-80388325D01*
X217021831Y-80257537D01*
X217305998Y-80067663D01*
X217547663Y-79825998D01*
X217737537Y-79541831D01*
X217868325Y-79226081D01*
X217935000Y-78890883D01*
X217935000Y-78549117D01*
X217868325Y-78213919D01*
X217737537Y-77898169D01*
X217547663Y-77614002D01*
X217433661Y-77500000D01*
X220461928Y-77500000D01*
X220461928Y-79700000D01*
X220474188Y-79824482D01*
X220510498Y-79944180D01*
X220569463Y-80054494D01*
X220648815Y-80151185D01*
X220745506Y-80230537D01*
X220855820Y-80289502D01*
X220975518Y-80325812D01*
X221100000Y-80338072D01*
X223300000Y-80338072D01*
X223424482Y-80325812D01*
X223544180Y-80289502D01*
X223654494Y-80230537D01*
X223751185Y-80151185D01*
X223830537Y-80054494D01*
X223889502Y-79944180D01*
X223925812Y-79824482D01*
X223938072Y-79700000D01*
X223938072Y-77500000D01*
X223925812Y-77375518D01*
X223889502Y-77255820D01*
X223830537Y-77145506D01*
X223751185Y-77048815D01*
X223654494Y-76969463D01*
X223544180Y-76910498D01*
X223424482Y-76874188D01*
X223300000Y-76861928D01*
X221100000Y-76861928D01*
X220975518Y-76874188D01*
X220855820Y-76910498D01*
X220745506Y-76969463D01*
X220648815Y-77048815D01*
X220569463Y-77145506D01*
X220510498Y-77255820D01*
X220474188Y-77375518D01*
X220461928Y-77500000D01*
X217433661Y-77500000D01*
X217305998Y-77372337D01*
X217021831Y-77182463D01*
X216706081Y-77051675D01*
X216370883Y-76985000D01*
X216029117Y-76985000D01*
X215693919Y-77051675D01*
X215378169Y-77182463D01*
X215094002Y-77372337D01*
X214852337Y-77614002D01*
X214662463Y-77898169D01*
X214531675Y-78213919D01*
X214465000Y-78549117D01*
X174410000Y-78549117D01*
X174410000Y-71715852D01*
X197615000Y-71715852D01*
X197615000Y-72284148D01*
X197725869Y-72841523D01*
X197943346Y-73366560D01*
X198259074Y-73839080D01*
X198660920Y-74240926D01*
X199133440Y-74556654D01*
X199658477Y-74774131D01*
X200215852Y-74885000D01*
X200784148Y-74885000D01*
X201341523Y-74774131D01*
X201866560Y-74556654D01*
X202339080Y-74240926D01*
X202740926Y-73839080D01*
X203056654Y-73366560D01*
X203274131Y-72841523D01*
X203385000Y-72284148D01*
X203385000Y-71715852D01*
X203274131Y-71158477D01*
X203056654Y-70633440D01*
X202740926Y-70160920D01*
X202580006Y-70000000D01*
X214461928Y-70000000D01*
X214461928Y-72200000D01*
X214474188Y-72324482D01*
X214510498Y-72444180D01*
X214569463Y-72554494D01*
X214648815Y-72651185D01*
X214745506Y-72730537D01*
X214855820Y-72789502D01*
X214975518Y-72825812D01*
X215100000Y-72838072D01*
X217300000Y-72838072D01*
X217424482Y-72825812D01*
X217544180Y-72789502D01*
X217654494Y-72730537D01*
X217751185Y-72651185D01*
X217830537Y-72554494D01*
X217889502Y-72444180D01*
X217925812Y-72324482D01*
X217938072Y-72200000D01*
X217938072Y-71376123D01*
X220510821Y-71376123D01*
X220620558Y-71698054D01*
X220790992Y-71992391D01*
X221015573Y-72247822D01*
X221285671Y-72454531D01*
X221590906Y-72604575D01*
X221803878Y-72669175D01*
X222073000Y-72551125D01*
X222073000Y-71107000D01*
X222327000Y-71107000D01*
X222327000Y-72551125D01*
X222596122Y-72669175D01*
X222809094Y-72604575D01*
X223114329Y-72454531D01*
X223384427Y-72247822D01*
X223609008Y-71992391D01*
X223779442Y-71698054D01*
X223889179Y-71376123D01*
X223771600Y-71107000D01*
X222327000Y-71107000D01*
X222073000Y-71107000D01*
X220628400Y-71107000D01*
X220510821Y-71376123D01*
X217938072Y-71376123D01*
X217938072Y-70583877D01*
X220510821Y-70583877D01*
X220628400Y-70853000D01*
X222073000Y-70853000D01*
X222073000Y-69408875D01*
X222327000Y-69408875D01*
X222327000Y-70853000D01*
X223771600Y-70853000D01*
X223889179Y-70583877D01*
X223779442Y-70261946D01*
X223627764Y-70000000D01*
X226461928Y-70000000D01*
X226461928Y-72200000D01*
X226474188Y-72324482D01*
X226510498Y-72444180D01*
X226569463Y-72554494D01*
X226648815Y-72651185D01*
X226745506Y-72730537D01*
X226855820Y-72789502D01*
X226975518Y-72825812D01*
X227100000Y-72838072D01*
X229300000Y-72838072D01*
X229424482Y-72825812D01*
X229544180Y-72789502D01*
X229654494Y-72730537D01*
X229751185Y-72651185D01*
X229830537Y-72554494D01*
X229889502Y-72444180D01*
X229925812Y-72324482D01*
X229938072Y-72200000D01*
X229938072Y-71376123D01*
X232010821Y-71376123D01*
X232120558Y-71698054D01*
X232290992Y-71992391D01*
X232515573Y-72247822D01*
X232785671Y-72454531D01*
X233090906Y-72604575D01*
X233303878Y-72669175D01*
X233573000Y-72551125D01*
X233573000Y-71107000D01*
X233827000Y-71107000D01*
X233827000Y-72551125D01*
X234096122Y-72669175D01*
X234309094Y-72604575D01*
X234614329Y-72454531D01*
X234884427Y-72247822D01*
X235109008Y-71992391D01*
X235279442Y-71698054D01*
X235389179Y-71376123D01*
X235271600Y-71107000D01*
X233827000Y-71107000D01*
X233573000Y-71107000D01*
X232128400Y-71107000D01*
X232010821Y-71376123D01*
X229938072Y-71376123D01*
X229938072Y-70583877D01*
X232010821Y-70583877D01*
X232128400Y-70853000D01*
X233573000Y-70853000D01*
X233573000Y-69408875D01*
X233827000Y-69408875D01*
X233827000Y-70853000D01*
X235271600Y-70853000D01*
X235389179Y-70583877D01*
X235279442Y-70261946D01*
X235109008Y-69967609D01*
X234884427Y-69712178D01*
X234614329Y-69505469D01*
X234309094Y-69355425D01*
X234096122Y-69290825D01*
X233827000Y-69408875D01*
X233573000Y-69408875D01*
X233303878Y-69290825D01*
X233090906Y-69355425D01*
X232785671Y-69505469D01*
X232515573Y-69712178D01*
X232290992Y-69967609D01*
X232120558Y-70261946D01*
X232010821Y-70583877D01*
X229938072Y-70583877D01*
X229938072Y-70000000D01*
X229925812Y-69875518D01*
X229889502Y-69755820D01*
X229830537Y-69645506D01*
X229751185Y-69548815D01*
X229654494Y-69469463D01*
X229544180Y-69410498D01*
X229424482Y-69374188D01*
X229300000Y-69361928D01*
X227100000Y-69361928D01*
X226975518Y-69374188D01*
X226855820Y-69410498D01*
X226745506Y-69469463D01*
X226648815Y-69548815D01*
X226569463Y-69645506D01*
X226510498Y-69755820D01*
X226474188Y-69875518D01*
X226461928Y-70000000D01*
X223627764Y-70000000D01*
X223609008Y-69967609D01*
X223384427Y-69712178D01*
X223114329Y-69505469D01*
X222809094Y-69355425D01*
X222596122Y-69290825D01*
X222327000Y-69408875D01*
X222073000Y-69408875D01*
X221803878Y-69290825D01*
X221590906Y-69355425D01*
X221285671Y-69505469D01*
X221015573Y-69712178D01*
X220790992Y-69967609D01*
X220620558Y-70261946D01*
X220510821Y-70583877D01*
X217938072Y-70583877D01*
X217938072Y-70000000D01*
X217925812Y-69875518D01*
X217889502Y-69755820D01*
X217830537Y-69645506D01*
X217751185Y-69548815D01*
X217654494Y-69469463D01*
X217544180Y-69410498D01*
X217424482Y-69374188D01*
X217300000Y-69361928D01*
X215100000Y-69361928D01*
X214975518Y-69374188D01*
X214855820Y-69410498D01*
X214745506Y-69469463D01*
X214648815Y-69548815D01*
X214569463Y-69645506D01*
X214510498Y-69755820D01*
X214474188Y-69875518D01*
X214461928Y-70000000D01*
X202580006Y-70000000D01*
X202339080Y-69759074D01*
X201866560Y-69443346D01*
X201341523Y-69225869D01*
X200784148Y-69115000D01*
X200215852Y-69115000D01*
X199658477Y-69225869D01*
X199133440Y-69443346D01*
X198660920Y-69759074D01*
X198259074Y-70160920D01*
X197943346Y-70633440D01*
X197725869Y-71158477D01*
X197615000Y-71715852D01*
X174410000Y-71715852D01*
X174410000Y-70135413D01*
X184544192Y-70135413D01*
X184639956Y-70399814D01*
X184929571Y-70540704D01*
X185241108Y-70622384D01*
X185562595Y-70641718D01*
X185881675Y-70597961D01*
X186186088Y-70492795D01*
X186360044Y-70399814D01*
X186455808Y-70135413D01*
X185500000Y-69179605D01*
X184544192Y-70135413D01*
X174410000Y-70135413D01*
X174410000Y-69062595D01*
X183858282Y-69062595D01*
X183902039Y-69381675D01*
X184007205Y-69686088D01*
X184100186Y-69860044D01*
X184364587Y-69955808D01*
X185320395Y-69000000D01*
X185679605Y-69000000D01*
X186635413Y-69955808D01*
X186899814Y-69860044D01*
X187040704Y-69570429D01*
X187122384Y-69258892D01*
X187141718Y-68937405D01*
X187097961Y-68618325D01*
X186992795Y-68313912D01*
X186899814Y-68139956D01*
X186635413Y-68044192D01*
X185679605Y-69000000D01*
X185320395Y-69000000D01*
X184364587Y-68044192D01*
X184100186Y-68139956D01*
X183959296Y-68429571D01*
X183877616Y-68741108D01*
X183858282Y-69062595D01*
X174410000Y-69062595D01*
X174410000Y-64715852D01*
X176115000Y-64715852D01*
X176115000Y-65284148D01*
X176225869Y-65841523D01*
X176443346Y-66366560D01*
X176759074Y-66839080D01*
X177160920Y-67240926D01*
X177633440Y-67556654D01*
X178158477Y-67774131D01*
X178715852Y-67885000D01*
X179284148Y-67885000D01*
X179386770Y-67864587D01*
X184544192Y-67864587D01*
X185500000Y-68820395D01*
X186320395Y-68000000D01*
X188861928Y-68000000D01*
X188861928Y-70000000D01*
X188874188Y-70124482D01*
X188910498Y-70244180D01*
X188969463Y-70354494D01*
X189048815Y-70451185D01*
X189145506Y-70530537D01*
X189255820Y-70589502D01*
X189375518Y-70625812D01*
X189500000Y-70638072D01*
X191500000Y-70638072D01*
X191624482Y-70625812D01*
X191744180Y-70589502D01*
X191854494Y-70530537D01*
X191951185Y-70451185D01*
X192030537Y-70354494D01*
X192089502Y-70244180D01*
X192125812Y-70124482D01*
X192138072Y-70000000D01*
X192138072Y-68000000D01*
X192125812Y-67875518D01*
X192089502Y-67755820D01*
X192030537Y-67645506D01*
X191951185Y-67548815D01*
X191854494Y-67469463D01*
X191744180Y-67410498D01*
X191624482Y-67374188D01*
X191500000Y-67361928D01*
X189500000Y-67361928D01*
X189375518Y-67374188D01*
X189255820Y-67410498D01*
X189145506Y-67469463D01*
X189048815Y-67548815D01*
X188969463Y-67645506D01*
X188910498Y-67755820D01*
X188874188Y-67875518D01*
X188861928Y-68000000D01*
X186320395Y-68000000D01*
X186455808Y-67864587D01*
X186360044Y-67600186D01*
X186070429Y-67459296D01*
X185758892Y-67377616D01*
X185437405Y-67358282D01*
X185118325Y-67402039D01*
X184813912Y-67507205D01*
X184639956Y-67600186D01*
X184544192Y-67864587D01*
X179386770Y-67864587D01*
X179841523Y-67774131D01*
X180366560Y-67556654D01*
X180839080Y-67240926D01*
X181240926Y-66839080D01*
X181556654Y-66366560D01*
X181774131Y-65841523D01*
X181885000Y-65284148D01*
X181885000Y-64715852D01*
X181774131Y-64158477D01*
X181708488Y-64000000D01*
X196861928Y-64000000D01*
X196861928Y-66000000D01*
X196874188Y-66124482D01*
X196910498Y-66244180D01*
X196969463Y-66354494D01*
X197048815Y-66451185D01*
X197145506Y-66530537D01*
X197255820Y-66589502D01*
X197375518Y-66625812D01*
X197500000Y-66638072D01*
X199500000Y-66638072D01*
X199624482Y-66625812D01*
X199744180Y-66589502D01*
X199854494Y-66530537D01*
X199951185Y-66451185D01*
X200030537Y-66354494D01*
X200089502Y-66244180D01*
X200125812Y-66124482D01*
X200138072Y-66000000D01*
X200138072Y-64000000D01*
X200125812Y-63875518D01*
X200089502Y-63755820D01*
X200030537Y-63645506D01*
X199951185Y-63548815D01*
X199854494Y-63469463D01*
X199744180Y-63410498D01*
X199624482Y-63374188D01*
X199500000Y-63361928D01*
X197500000Y-63361928D01*
X197375518Y-63374188D01*
X197255820Y-63410498D01*
X197145506Y-63469463D01*
X197048815Y-63548815D01*
X196969463Y-63645506D01*
X196910498Y-63755820D01*
X196874188Y-63875518D01*
X196861928Y-64000000D01*
X181708488Y-64000000D01*
X181556654Y-63633440D01*
X181240926Y-63160920D01*
X180839080Y-62759074D01*
X180366560Y-62443346D01*
X179841523Y-62225869D01*
X179284148Y-62115000D01*
X178715852Y-62115000D01*
X178158477Y-62225869D01*
X177633440Y-62443346D01*
X177160920Y-62759074D01*
X176759074Y-63160920D01*
X176443346Y-63633440D01*
X176225869Y-64158477D01*
X176115000Y-64715852D01*
X174410000Y-64715852D01*
X174410000Y-61135413D01*
X197544192Y-61135413D01*
X197639956Y-61399814D01*
X197929571Y-61540704D01*
X198241108Y-61622384D01*
X198562595Y-61641718D01*
X198881675Y-61597961D01*
X199186088Y-61492795D01*
X199360044Y-61399814D01*
X199455808Y-61135413D01*
X198500000Y-60179605D01*
X197544192Y-61135413D01*
X174410000Y-61135413D01*
X174410000Y-60062595D01*
X196858282Y-60062595D01*
X196902039Y-60381675D01*
X197007205Y-60686088D01*
X197100186Y-60860044D01*
X197364587Y-60955808D01*
X198320395Y-60000000D01*
X198679605Y-60000000D01*
X199635413Y-60955808D01*
X199899814Y-60860044D01*
X200040704Y-60570429D01*
X200122384Y-60258892D01*
X200141718Y-59937405D01*
X200101206Y-59641984D01*
X208465000Y-59641984D01*
X208465000Y-60358016D01*
X208604691Y-61060290D01*
X208878705Y-61721818D01*
X209276511Y-62317177D01*
X209782823Y-62823489D01*
X210378182Y-63221295D01*
X211039710Y-63495309D01*
X211741984Y-63635000D01*
X212458016Y-63635000D01*
X213160290Y-63495309D01*
X213511096Y-63350000D01*
X220659428Y-63350000D01*
X220659428Y-65350000D01*
X220671688Y-65474482D01*
X220707998Y-65594180D01*
X220766963Y-65704494D01*
X220846315Y-65801185D01*
X220943006Y-65880537D01*
X221053320Y-65939502D01*
X221173018Y-65975812D01*
X221297500Y-65988072D01*
X223202500Y-65988072D01*
X223326982Y-65975812D01*
X223446680Y-65939502D01*
X223556994Y-65880537D01*
X223653685Y-65801185D01*
X223733037Y-65704494D01*
X223782059Y-65612781D01*
X223923077Y-65725969D01*
X224198906Y-65869571D01*
X224417020Y-65940563D01*
X224663000Y-65820594D01*
X224663000Y-64477000D01*
X224643000Y-64477000D01*
X224643000Y-64223000D01*
X224663000Y-64223000D01*
X224663000Y-62879406D01*
X224917000Y-62879406D01*
X224917000Y-64223000D01*
X224937000Y-64223000D01*
X224937000Y-64477000D01*
X224917000Y-64477000D01*
X224917000Y-65820594D01*
X225162980Y-65940563D01*
X225381094Y-65869571D01*
X225656923Y-65725969D01*
X225899437Y-65531315D01*
X226054837Y-65346101D01*
X226202037Y-65525463D01*
X226443766Y-65723845D01*
X226719552Y-65871255D01*
X227018797Y-65962030D01*
X227330000Y-65992681D01*
X227641204Y-65962030D01*
X227940449Y-65871255D01*
X228216235Y-65723845D01*
X228457963Y-65525463D01*
X228656345Y-65283734D01*
X228803755Y-65007948D01*
X228894530Y-64708703D01*
X228917500Y-64475485D01*
X228917500Y-64224514D01*
X228894530Y-63991296D01*
X228803755Y-63692051D01*
X228656345Y-63416265D01*
X228457963Y-63174537D01*
X228216234Y-62976155D01*
X227940448Y-62828745D01*
X227641203Y-62737970D01*
X227330000Y-62707319D01*
X227018796Y-62737970D01*
X226719551Y-62828745D01*
X226443765Y-62976155D01*
X226202037Y-63174537D01*
X226054838Y-63353900D01*
X225899437Y-63168685D01*
X225656923Y-62974031D01*
X225381094Y-62830429D01*
X225162980Y-62759437D01*
X224917000Y-62879406D01*
X224663000Y-62879406D01*
X224417020Y-62759437D01*
X224198906Y-62830429D01*
X223923077Y-62974031D01*
X223782059Y-63087219D01*
X223733037Y-62995506D01*
X223653685Y-62898815D01*
X223556994Y-62819463D01*
X223446680Y-62760498D01*
X223326982Y-62724188D01*
X223202500Y-62711928D01*
X221297500Y-62711928D01*
X221173018Y-62724188D01*
X221053320Y-62760498D01*
X220943006Y-62819463D01*
X220846315Y-62898815D01*
X220766963Y-62995506D01*
X220707998Y-63105820D01*
X220671688Y-63225518D01*
X220659428Y-63350000D01*
X213511096Y-63350000D01*
X213821818Y-63221295D01*
X214417177Y-62823489D01*
X214923489Y-62317177D01*
X215321295Y-61721818D01*
X215595309Y-61060290D01*
X215735000Y-60358016D01*
X215735000Y-59641984D01*
X233865000Y-59641984D01*
X233865000Y-60358016D01*
X234004691Y-61060290D01*
X234278705Y-61721818D01*
X234676511Y-62317177D01*
X235182823Y-62823489D01*
X235778182Y-63221295D01*
X236439710Y-63495309D01*
X237141984Y-63635000D01*
X237858016Y-63635000D01*
X238560290Y-63495309D01*
X239221818Y-63221295D01*
X239817177Y-62823489D01*
X240323489Y-62317177D01*
X240721295Y-61721818D01*
X240995309Y-61060290D01*
X241135000Y-60358016D01*
X241135000Y-59641984D01*
X240995309Y-58939710D01*
X240721295Y-58278182D01*
X240323489Y-57682823D01*
X239817177Y-57176511D01*
X239221818Y-56778705D01*
X238560290Y-56504691D01*
X237858016Y-56365000D01*
X237141984Y-56365000D01*
X236439710Y-56504691D01*
X235778182Y-56778705D01*
X235182823Y-57176511D01*
X234676511Y-57682823D01*
X234278705Y-58278182D01*
X234004691Y-58939710D01*
X233865000Y-59641984D01*
X215735000Y-59641984D01*
X215595309Y-58939710D01*
X215321295Y-58278182D01*
X214923489Y-57682823D01*
X214417177Y-57176511D01*
X213821818Y-56778705D01*
X213160290Y-56504691D01*
X212458016Y-56365000D01*
X211741984Y-56365000D01*
X211039710Y-56504691D01*
X210378182Y-56778705D01*
X209782823Y-57176511D01*
X209276511Y-57682823D01*
X208878705Y-58278182D01*
X208604691Y-58939710D01*
X208465000Y-59641984D01*
X200101206Y-59641984D01*
X200097961Y-59618325D01*
X199992795Y-59313912D01*
X199899814Y-59139956D01*
X199635413Y-59044192D01*
X198679605Y-60000000D01*
X198320395Y-60000000D01*
X197364587Y-59044192D01*
X197100186Y-59139956D01*
X196959296Y-59429571D01*
X196877616Y-59741108D01*
X196858282Y-60062595D01*
X174410000Y-60062595D01*
X174410000Y-58750440D01*
X182611488Y-58750440D01*
X182623748Y-58874922D01*
X182660058Y-58994620D01*
X182719023Y-59104934D01*
X182798375Y-59201625D01*
X182895066Y-59280977D01*
X183005380Y-59339942D01*
X183125078Y-59376252D01*
X183249560Y-59388512D01*
X184214250Y-59385440D01*
X184373000Y-59226690D01*
X184373000Y-57627000D01*
X184627000Y-57627000D01*
X184627000Y-59226690D01*
X184785750Y-59385440D01*
X185750440Y-59388512D01*
X185874922Y-59376252D01*
X185994620Y-59339942D01*
X186104934Y-59280977D01*
X186201625Y-59201625D01*
X186280977Y-59104934D01*
X186339942Y-58994620D01*
X186376252Y-58874922D01*
X186377269Y-58864587D01*
X197544192Y-58864587D01*
X198500000Y-59820395D01*
X199455808Y-58864587D01*
X199360044Y-58600186D01*
X199070429Y-58459296D01*
X198758892Y-58377616D01*
X198437405Y-58358282D01*
X198118325Y-58402039D01*
X197813912Y-58507205D01*
X197639956Y-58600186D01*
X197544192Y-58864587D01*
X186377269Y-58864587D01*
X186388512Y-58750440D01*
X186385440Y-57785750D01*
X186226690Y-57627000D01*
X184627000Y-57627000D01*
X184373000Y-57627000D01*
X182773310Y-57627000D01*
X182614560Y-57785750D01*
X182611488Y-58750440D01*
X174410000Y-58750440D01*
X174410000Y-56249560D01*
X182611488Y-56249560D01*
X182614560Y-57214250D01*
X182773310Y-57373000D01*
X184373000Y-57373000D01*
X184373000Y-55773310D01*
X184627000Y-55773310D01*
X184627000Y-57373000D01*
X186226690Y-57373000D01*
X186385440Y-57214250D01*
X186388512Y-56249560D01*
X186376252Y-56125078D01*
X186339942Y-56005380D01*
X186280977Y-55895066D01*
X186201625Y-55798375D01*
X186104934Y-55719023D01*
X185994620Y-55660058D01*
X185874922Y-55623748D01*
X185750440Y-55611488D01*
X184785750Y-55614560D01*
X184627000Y-55773310D01*
X184373000Y-55773310D01*
X184214250Y-55614560D01*
X183249560Y-55611488D01*
X183125078Y-55623748D01*
X183005380Y-55660058D01*
X182895066Y-55719023D01*
X182798375Y-55798375D01*
X182719023Y-55895066D01*
X182660058Y-56005380D01*
X182623748Y-56125078D01*
X182611488Y-56249560D01*
X174410000Y-56249560D01*
X174410000Y-47249560D01*
X182611488Y-47249560D01*
X182611488Y-49750440D01*
X182623748Y-49874922D01*
X182660058Y-49994620D01*
X182719023Y-50104934D01*
X182798375Y-50201625D01*
X182895066Y-50280977D01*
X183005380Y-50339942D01*
X183125078Y-50376252D01*
X183249560Y-50388512D01*
X185750440Y-50388512D01*
X185874922Y-50376252D01*
X185994620Y-50339942D01*
X186104934Y-50280977D01*
X186201625Y-50201625D01*
X186280977Y-50104934D01*
X186339942Y-49994620D01*
X186376252Y-49874922D01*
X186388512Y-49750440D01*
X186388512Y-47715852D01*
X236115000Y-47715852D01*
X236115000Y-48284148D01*
X236225869Y-48841523D01*
X236443346Y-49366560D01*
X236759074Y-49839080D01*
X237160920Y-50240926D01*
X237633440Y-50556654D01*
X238158477Y-50774131D01*
X238715852Y-50885000D01*
X239284148Y-50885000D01*
X239841523Y-50774131D01*
X240366560Y-50556654D01*
X240839080Y-50240926D01*
X241240926Y-49839080D01*
X241556654Y-49366560D01*
X241774131Y-48841523D01*
X241885000Y-48284148D01*
X241885000Y-47715852D01*
X241774131Y-47158477D01*
X241556654Y-46633440D01*
X241240926Y-46160920D01*
X240839080Y-45759074D01*
X240366560Y-45443346D01*
X239841523Y-45225869D01*
X239284148Y-45115000D01*
X238715852Y-45115000D01*
X238158477Y-45225869D01*
X237633440Y-45443346D01*
X237160920Y-45759074D01*
X236759074Y-46160920D01*
X236443346Y-46633440D01*
X236225869Y-47158477D01*
X236115000Y-47715852D01*
X186388512Y-47715852D01*
X186388512Y-47249560D01*
X186376252Y-47125078D01*
X186339942Y-47005380D01*
X186280977Y-46895066D01*
X186201625Y-46798375D01*
X186104934Y-46719023D01*
X185994620Y-46660058D01*
X185874922Y-46623748D01*
X185750440Y-46611488D01*
X183249560Y-46611488D01*
X183125078Y-46623748D01*
X183005380Y-46660058D01*
X182895066Y-46719023D01*
X182798375Y-46798375D01*
X182719023Y-46895066D01*
X182660058Y-47005380D01*
X182623748Y-47125078D01*
X182611488Y-47249560D01*
X174410000Y-47249560D01*
X174410000Y-46982279D01*
X174448147Y-46593225D01*
X174551763Y-46250033D01*
X174720062Y-45933511D01*
X174946637Y-45655701D01*
X175222856Y-45427194D01*
X175538197Y-45256690D01*
X175880656Y-45150681D01*
X176267712Y-45110000D01*
X241967721Y-45110000D01*
X242356775Y-45148147D01*
G37*
X242356775Y-45148147D02*
X242699967Y-45251763D01*
X243016489Y-45420062D01*
X243294299Y-45646637D01*
X243522806Y-45922856D01*
X243693310Y-46238197D01*
X243799319Y-46580656D01*
X243840000Y-46967712D01*
X243840001Y-141867711D01*
X243801853Y-142256776D01*
X243698238Y-142599964D01*
X243529939Y-142916489D01*
X243303365Y-143194296D01*
X243027146Y-143422805D01*
X242711803Y-143593310D01*
X242369344Y-143699319D01*
X241982288Y-143740000D01*
X176282279Y-143740000D01*
X175893224Y-143701853D01*
X175550036Y-143598238D01*
X175233511Y-143429939D01*
X174955704Y-143203365D01*
X174727195Y-142927146D01*
X174556690Y-142611803D01*
X174450681Y-142269344D01*
X174410000Y-141882288D01*
X174410000Y-139715852D01*
X197615000Y-139715852D01*
X197615000Y-140284148D01*
X197725869Y-140841523D01*
X197943346Y-141366560D01*
X198259074Y-141839080D01*
X198660920Y-142240926D01*
X199133440Y-142556654D01*
X199658477Y-142774131D01*
X200215852Y-142885000D01*
X200784148Y-142885000D01*
X201341523Y-142774131D01*
X201866560Y-142556654D01*
X202339080Y-142240926D01*
X202740926Y-141839080D01*
X203056654Y-141366560D01*
X203274131Y-140841523D01*
X203385000Y-140284148D01*
X203385000Y-139715852D01*
X234615000Y-139715852D01*
X234615000Y-140284148D01*
X234725869Y-140841523D01*
X234943346Y-141366560D01*
X235259074Y-141839080D01*
X235660920Y-142240926D01*
X236133440Y-142556654D01*
X236658477Y-142774131D01*
X237215852Y-142885000D01*
X237784148Y-142885000D01*
X238341523Y-142774131D01*
X238866560Y-142556654D01*
X239339080Y-142240926D01*
X239740926Y-141839080D01*
X240056654Y-141366560D01*
X240274131Y-140841523D01*
X240385000Y-140284148D01*
X240385000Y-139715852D01*
X240274131Y-139158477D01*
X240056654Y-138633440D01*
X239740926Y-138160920D01*
X239339080Y-137759074D01*
X238866560Y-137443346D01*
X238341523Y-137225869D01*
X237784148Y-137115000D01*
X237215852Y-137115000D01*
X236658477Y-137225869D01*
X236133440Y-137443346D01*
X235660920Y-137759074D01*
X235259074Y-138160920D01*
X234943346Y-138633440D01*
X234725869Y-139158477D01*
X234615000Y-139715852D01*
X203385000Y-139715852D01*
X203274131Y-139158477D01*
X203056654Y-138633440D01*
X202740926Y-138160920D01*
X202339080Y-137759074D01*
X201866560Y-137443346D01*
X201341523Y-137225869D01*
X200784148Y-137115000D01*
X200215852Y-137115000D01*
X199658477Y-137225869D01*
X199133440Y-137443346D01*
X198660920Y-137759074D01*
X198259074Y-138160920D01*
X197943346Y-138633440D01*
X197725869Y-139158477D01*
X197615000Y-139715852D01*
X174410000Y-139715852D01*
X174410000Y-124249560D01*
X189111488Y-124249560D01*
X189111488Y-126750440D01*
X189123748Y-126874922D01*
X189160058Y-126994620D01*
X189219023Y-127104934D01*
X189298375Y-127201625D01*
X189395066Y-127280977D01*
X189505380Y-127339942D01*
X189625078Y-127376252D01*
X189749560Y-127388512D01*
X192250440Y-127388512D01*
X192374922Y-127376252D01*
X192494620Y-127339942D01*
X192604934Y-127280977D01*
X192701625Y-127201625D01*
X192780977Y-127104934D01*
X192839942Y-126994620D01*
X192876252Y-126874922D01*
X192888512Y-126750440D01*
X192888512Y-124249560D01*
X192876252Y-124125078D01*
X192839942Y-124005380D01*
X192780977Y-123895066D01*
X192701625Y-123798375D01*
X192604934Y-123719023D01*
X192494620Y-123660058D01*
X192374922Y-123623748D01*
X192250440Y-123611488D01*
X189749560Y-123611488D01*
X189625078Y-123623748D01*
X189505380Y-123660058D01*
X189395066Y-123719023D01*
X189298375Y-123798375D01*
X189219023Y-123895066D01*
X189160058Y-124005380D01*
X189123748Y-124125078D01*
X189111488Y-124249560D01*
X174410000Y-124249560D01*
X174410000Y-120950656D01*
X184342753Y-120950656D01*
X184343171Y-121010472D01*
X184342753Y-121070288D01*
X184343652Y-121079460D01*
X184374252Y-121370605D01*
X184386283Y-121429217D01*
X184397489Y-121487963D01*
X184400153Y-121496784D01*
X184486721Y-121776440D01*
X184509899Y-121831578D01*
X184532311Y-121887050D01*
X184536638Y-121895186D01*
X184675877Y-122152702D01*
X184709304Y-122202259D01*
X184742080Y-122252347D01*
X184747905Y-122259488D01*
X184934510Y-122485056D01*
X184976965Y-122527215D01*
X185018809Y-122569945D01*
X185025909Y-122575819D01*
X185252773Y-122760845D01*
X185302566Y-122793927D01*
X185351955Y-122827745D01*
X185360061Y-122832127D01*
X185618542Y-122969564D01*
X185673836Y-122992355D01*
X185728829Y-123015925D01*
X185737632Y-123018650D01*
X186017887Y-123103264D01*
X186076564Y-123114882D01*
X186135079Y-123127320D01*
X186144242Y-123128283D01*
X186144244Y-123128283D01*
X186435596Y-123156850D01*
X186435598Y-123156850D01*
X186467581Y-123160000D01*
X196532419Y-123160000D01*
X196565884Y-123156704D01*
X196585349Y-123156704D01*
X196594514Y-123155741D01*
X196885438Y-123123108D01*
X196943941Y-123110672D01*
X197002629Y-123099052D01*
X197011432Y-123096327D01*
X197290476Y-123007809D01*
X197345412Y-122984263D01*
X197400764Y-122961449D01*
X197408870Y-122957065D01*
X197665408Y-122816032D01*
X197714753Y-122782245D01*
X197764591Y-122749133D01*
X197771691Y-122743259D01*
X197995949Y-122555084D01*
X198037793Y-122512354D01*
X198080248Y-122470195D01*
X198086072Y-122463053D01*
X198269509Y-122234903D01*
X198302251Y-122184869D01*
X198335714Y-122135258D01*
X198340040Y-122127122D01*
X198475670Y-121867687D01*
X198498082Y-121812215D01*
X198521260Y-121757077D01*
X198523923Y-121748255D01*
X198606578Y-121467417D01*
X198617785Y-121408669D01*
X198629816Y-121350059D01*
X198630715Y-121340888D01*
X198653641Y-121088967D01*
X206115000Y-121088967D01*
X206115000Y-121411033D01*
X206177832Y-121726912D01*
X206301082Y-122024463D01*
X206480013Y-122292252D01*
X206707748Y-122519987D01*
X206975537Y-122698918D01*
X207273088Y-122822168D01*
X207588967Y-122885000D01*
X207911033Y-122885000D01*
X208226912Y-122822168D01*
X208524463Y-122698918D01*
X208792252Y-122519987D01*
X209019987Y-122292252D01*
X209198918Y-122024463D01*
X209322168Y-121726912D01*
X209385000Y-121411033D01*
X209385000Y-121088967D01*
X233615000Y-121088967D01*
X233615000Y-121411033D01*
X233677832Y-121726912D01*
X233801082Y-122024463D01*
X233980013Y-122292252D01*
X234207748Y-122519987D01*
X234475537Y-122698918D01*
X234773088Y-122822168D01*
X235088967Y-122885000D01*
X235411033Y-122885000D01*
X235726912Y-122822168D01*
X236024463Y-122698918D01*
X236292252Y-122519987D01*
X236519987Y-122292252D01*
X236698918Y-122024463D01*
X236822168Y-121726912D01*
X236885000Y-121411033D01*
X236885000Y-121088967D01*
X236822168Y-120773088D01*
X236698918Y-120475537D01*
X236519987Y-120207748D01*
X236292252Y-119980013D01*
X236024463Y-119801082D01*
X235726912Y-119677832D01*
X235411033Y-119615000D01*
X235088967Y-119615000D01*
X234773088Y-119677832D01*
X234475537Y-119801082D01*
X234207748Y-119980013D01*
X233980013Y-120207748D01*
X233801082Y-120475537D01*
X233677832Y-120773088D01*
X233615000Y-121088967D01*
X209385000Y-121088967D01*
X209322168Y-120773088D01*
X209198918Y-120475537D01*
X209019987Y-120207748D01*
X208792252Y-119980013D01*
X208524463Y-119801082D01*
X208226912Y-119677832D01*
X207911033Y-119615000D01*
X207588967Y-119615000D01*
X207273088Y-119677832D01*
X206975537Y-119801082D01*
X206707748Y-119980013D01*
X206480013Y-120207748D01*
X206301082Y-120475537D01*
X206177832Y-120773088D01*
X206115000Y-121088967D01*
X198653641Y-121088967D01*
X198657247Y-121049344D01*
X198656829Y-120989528D01*
X198657247Y-120929712D01*
X198656348Y-120920541D01*
X198625748Y-120629395D01*
X198613710Y-120570753D01*
X198602510Y-120512037D01*
X198599847Y-120503216D01*
X198513279Y-120223560D01*
X198490101Y-120168422D01*
X198467689Y-120112950D01*
X198463362Y-120104814D01*
X198324123Y-119847298D01*
X198290701Y-119797749D01*
X198257920Y-119747653D01*
X198252095Y-119740512D01*
X198065490Y-119514945D01*
X198023054Y-119472804D01*
X197981191Y-119430055D01*
X197974091Y-119424181D01*
X197747227Y-119239155D01*
X197697408Y-119206055D01*
X197648045Y-119172256D01*
X197639939Y-119167873D01*
X197381458Y-119030436D01*
X197326164Y-119007645D01*
X197271171Y-118984075D01*
X197262368Y-118981350D01*
X196982114Y-118896736D01*
X196923429Y-118885116D01*
X196864921Y-118872680D01*
X196855758Y-118871717D01*
X196855756Y-118871717D01*
X196564404Y-118843150D01*
X196564402Y-118843150D01*
X196532419Y-118840000D01*
X186467581Y-118840000D01*
X186434116Y-118843296D01*
X186414651Y-118843296D01*
X186405486Y-118844259D01*
X186114561Y-118876892D01*
X186056044Y-118889331D01*
X185997371Y-118900948D01*
X185988568Y-118903673D01*
X185709523Y-118992191D01*
X185654588Y-119015737D01*
X185599235Y-119038551D01*
X185591129Y-119042935D01*
X185334592Y-119183968D01*
X185285247Y-119217755D01*
X185235409Y-119250867D01*
X185228309Y-119256741D01*
X185004051Y-119444916D01*
X184962207Y-119487646D01*
X184919751Y-119529806D01*
X184913927Y-119536947D01*
X184730491Y-119765097D01*
X184697744Y-119815139D01*
X184664286Y-119864742D01*
X184659960Y-119872879D01*
X184524330Y-120132313D01*
X184501918Y-120187785D01*
X184478740Y-120242923D01*
X184476077Y-120251745D01*
X184393422Y-120532583D01*
X184382224Y-120591284D01*
X184370184Y-120649940D01*
X184369285Y-120659112D01*
X184342753Y-120950656D01*
X174410000Y-120950656D01*
X174410000Y-115249560D01*
X189111488Y-115249560D01*
X189111488Y-117750440D01*
X189123748Y-117874922D01*
X189160058Y-117994620D01*
X189219023Y-118104934D01*
X189298375Y-118201625D01*
X189395066Y-118280977D01*
X189505380Y-118339942D01*
X189625078Y-118376252D01*
X189749560Y-118388512D01*
X192250440Y-118388512D01*
X192374922Y-118376252D01*
X192494620Y-118339942D01*
X192604934Y-118280977D01*
X192701625Y-118201625D01*
X192780977Y-118104934D01*
X192839942Y-117994620D01*
X192876252Y-117874922D01*
X192888512Y-117750440D01*
X192888512Y-116088967D01*
X206115000Y-116088967D01*
X206115000Y-116411033D01*
X206177832Y-116726912D01*
X206301082Y-117024463D01*
X206480013Y-117292252D01*
X206707748Y-117519987D01*
X206975537Y-117698918D01*
X207273088Y-117822168D01*
X207588967Y-117885000D01*
X207911033Y-117885000D01*
X208226912Y-117822168D01*
X208524463Y-117698918D01*
X208792252Y-117519987D01*
X209019987Y-117292252D01*
X209198918Y-117024463D01*
X209322168Y-116726912D01*
X209385000Y-116411033D01*
X209385000Y-116088967D01*
X209322168Y-115773088D01*
X209198918Y-115475537D01*
X209019987Y-115207748D01*
X208792252Y-114980013D01*
X208524463Y-114801082D01*
X208226912Y-114677832D01*
X207911033Y-114615000D01*
X207588967Y-114615000D01*
X207273088Y-114677832D01*
X206975537Y-114801082D01*
X206707748Y-114980013D01*
X206480013Y-115207748D01*
X206301082Y-115475537D01*
X206177832Y-115773088D01*
X206115000Y-116088967D01*
X192888512Y-116088967D01*
X192888512Y-115249560D01*
X192876252Y-115125078D01*
X192839942Y-115005380D01*
X192780977Y-114895066D01*
X192701625Y-114798375D01*
X192604934Y-114719023D01*
X192494620Y-114660058D01*
X192374922Y-114623748D01*
X192250440Y-114611488D01*
X189749560Y-114611488D01*
X189625078Y-114623748D01*
X189505380Y-114660058D01*
X189395066Y-114719023D01*
X189298375Y-114798375D01*
X189219023Y-114895066D01*
X189160058Y-115005380D01*
X189123748Y-115125078D01*
X189111488Y-115249560D01*
X174410000Y-115249560D01*
X174410000Y-109789721D01*
X188865000Y-109789721D01*
X188865000Y-110210279D01*
X188947047Y-110622756D01*
X189107988Y-111011302D01*
X189341637Y-111360983D01*
X189639017Y-111658363D01*
X189988698Y-111892012D01*
X190377244Y-112052953D01*
X190789721Y-112135000D01*
X191210279Y-112135000D01*
X191622756Y-112052953D01*
X192011302Y-111892012D01*
X192360983Y-111658363D01*
X192658363Y-111360983D01*
X192892012Y-111011302D01*
X193052953Y-110622756D01*
X193135000Y-110210279D01*
X193135000Y-109789721D01*
X193052953Y-109377244D01*
X192979537Y-109200000D01*
X226305881Y-109200000D01*
X226342275Y-109569524D01*
X226450062Y-109924848D01*
X226625098Y-110252317D01*
X226801628Y-110467420D01*
X226801631Y-110467423D01*
X226860656Y-110539345D01*
X226932578Y-110598370D01*
X228601631Y-112267423D01*
X228660656Y-112339345D01*
X228732578Y-112398370D01*
X229851628Y-113517420D01*
X233982579Y-117648372D01*
X234197682Y-117824902D01*
X234525151Y-117999938D01*
X234880475Y-118107724D01*
X235249999Y-118144119D01*
X235619523Y-118107724D01*
X235974848Y-117999938D01*
X236302316Y-117824902D01*
X236589344Y-117589344D01*
X236824902Y-117302316D01*
X236999938Y-116974848D01*
X237107724Y-116619523D01*
X237144119Y-116249999D01*
X237107724Y-115880475D01*
X236999938Y-115525151D01*
X236824902Y-115197682D01*
X236648372Y-114982579D01*
X232754760Y-111088967D01*
X233615000Y-111088967D01*
X233615000Y-111411033D01*
X233677832Y-111726912D01*
X233801082Y-112024463D01*
X233980013Y-112292252D01*
X234207748Y-112519987D01*
X234475537Y-112698918D01*
X234773088Y-112822168D01*
X235088967Y-112885000D01*
X235411033Y-112885000D01*
X235726912Y-112822168D01*
X236024463Y-112698918D01*
X236292252Y-112519987D01*
X236519987Y-112292252D01*
X236698918Y-112024463D01*
X236822168Y-111726912D01*
X236885000Y-111411033D01*
X236885000Y-111088967D01*
X236822168Y-110773088D01*
X236698918Y-110475537D01*
X236519987Y-110207748D01*
X236292252Y-109980013D01*
X236024463Y-109801082D01*
X235726912Y-109677832D01*
X235411033Y-109615000D01*
X235088967Y-109615000D01*
X234773088Y-109677832D01*
X234475537Y-109801082D01*
X234207748Y-109980013D01*
X233980013Y-110207748D01*
X233801082Y-110475537D01*
X233677832Y-110773088D01*
X233615000Y-111088967D01*
X232754760Y-111088967D01*
X232517420Y-110851628D01*
X231885000Y-110219208D01*
X231885000Y-106088967D01*
X233615000Y-106088967D01*
X233615000Y-106411033D01*
X233677832Y-106726912D01*
X233801082Y-107024463D01*
X233980013Y-107292252D01*
X234207748Y-107519987D01*
X234475537Y-107698918D01*
X234773088Y-107822168D01*
X235088967Y-107885000D01*
X235411033Y-107885000D01*
X235726912Y-107822168D01*
X236024463Y-107698918D01*
X236292252Y-107519987D01*
X236519987Y-107292252D01*
X236698918Y-107024463D01*
X236822168Y-106726912D01*
X236885000Y-106411033D01*
X236885000Y-106088967D01*
X236822168Y-105773088D01*
X236698918Y-105475537D01*
X236519987Y-105207748D01*
X236292252Y-104980013D01*
X236024463Y-104801082D01*
X235726912Y-104677832D01*
X235411033Y-104615000D01*
X235088967Y-104615000D01*
X234773088Y-104677832D01*
X234475537Y-104801082D01*
X234207748Y-104980013D01*
X233980013Y-105207748D01*
X233801082Y-105475537D01*
X233677832Y-105773088D01*
X233615000Y-106088967D01*
X231885000Y-106088967D01*
X231885000Y-101088967D01*
X233615000Y-101088967D01*
X233615000Y-101411033D01*
X233677832Y-101726912D01*
X233801082Y-102024463D01*
X233980013Y-102292252D01*
X234207748Y-102519987D01*
X234475537Y-102698918D01*
X234773088Y-102822168D01*
X235088967Y-102885000D01*
X235411033Y-102885000D01*
X235726912Y-102822168D01*
X236024463Y-102698918D01*
X236292252Y-102519987D01*
X236519987Y-102292252D01*
X236698918Y-102024463D01*
X236822168Y-101726912D01*
X236885000Y-101411033D01*
X236885000Y-101088967D01*
X236822168Y-100773088D01*
X236698918Y-100475537D01*
X236519987Y-100207748D01*
X236292252Y-99980013D01*
X236024463Y-99801082D01*
X235726912Y-99677832D01*
X235411033Y-99615000D01*
X235088967Y-99615000D01*
X234773088Y-99677832D01*
X234475537Y-99801082D01*
X234207748Y-99980013D01*
X233980013Y-100207748D01*
X233801082Y-100475537D01*
X233677832Y-100773088D01*
X233615000Y-101088967D01*
X231885000Y-101088967D01*
X231885000Y-96088967D01*
X233615000Y-96088967D01*
X233615000Y-96411033D01*
X233677832Y-96726912D01*
X233801082Y-97024463D01*
X233980013Y-97292252D01*
X234207748Y-97519987D01*
X234475537Y-97698918D01*
X234773088Y-97822168D01*
X235088967Y-97885000D01*
X235411033Y-97885000D01*
X235726912Y-97822168D01*
X236024463Y-97698918D01*
X236292252Y-97519987D01*
X236519987Y-97292252D01*
X236698918Y-97024463D01*
X236822168Y-96726912D01*
X236885000Y-96411033D01*
X236885000Y-96088967D01*
X236822168Y-95773088D01*
X236698918Y-95475537D01*
X236519987Y-95207748D01*
X236292252Y-94980013D01*
X236024463Y-94801082D01*
X235726912Y-94677832D01*
X235411033Y-94615000D01*
X235088967Y-94615000D01*
X234773088Y-94677832D01*
X234475537Y-94801082D01*
X234207748Y-94980013D01*
X233980013Y-95207748D01*
X233801082Y-95475537D01*
X233677832Y-95773088D01*
X233615000Y-96088967D01*
X231885000Y-96088967D01*
X231885000Y-86680792D01*
X234967423Y-83598370D01*
X235039345Y-83539345D01*
X235274903Y-83252317D01*
X235449939Y-82924848D01*
X235557725Y-82569524D01*
X235585000Y-82292597D01*
X235585000Y-82292588D01*
X235594119Y-82200001D01*
X235585000Y-82107414D01*
X235585000Y-78507403D01*
X235557725Y-78230476D01*
X235449939Y-77875152D01*
X235438072Y-77852950D01*
X235438072Y-77500000D01*
X235425812Y-77375518D01*
X235389502Y-77255820D01*
X235330537Y-77145506D01*
X235251185Y-77048815D01*
X235154494Y-76969463D01*
X235044180Y-76910498D01*
X234924482Y-76874188D01*
X234800000Y-76861928D01*
X234447049Y-76861928D01*
X234424847Y-76850061D01*
X234069523Y-76742275D01*
X233700000Y-76705880D01*
X233330476Y-76742275D01*
X232975152Y-76850061D01*
X232952950Y-76861928D01*
X232600000Y-76861928D01*
X232475518Y-76874188D01*
X232355820Y-76910498D01*
X232245506Y-76969463D01*
X232148815Y-77048815D01*
X232069463Y-77145506D01*
X232010498Y-77255820D01*
X231974188Y-77375518D01*
X231961928Y-77500000D01*
X231961928Y-77852951D01*
X231950061Y-77875153D01*
X231842275Y-78230477D01*
X231815000Y-78507404D01*
X231815001Y-81419206D01*
X230085000Y-83149208D01*
X230085000Y-78627403D01*
X230057725Y-78350476D01*
X229949939Y-77995152D01*
X229774903Y-77667683D01*
X229539345Y-77380655D01*
X229252317Y-77145097D01*
X228924847Y-76970061D01*
X228569523Y-76862275D01*
X228200000Y-76825880D01*
X227830476Y-76862275D01*
X227475152Y-76970061D01*
X227147683Y-77145097D01*
X226860655Y-77380655D01*
X226625097Y-77667683D01*
X226450061Y-77995153D01*
X226342275Y-78350477D01*
X226315000Y-78627404D01*
X226315001Y-109107401D01*
X226305881Y-109200000D01*
X192979537Y-109200000D01*
X192892012Y-108988698D01*
X192658363Y-108639017D01*
X192360983Y-108341637D01*
X192011302Y-108107988D01*
X191622756Y-107947047D01*
X191210279Y-107865000D01*
X190789721Y-107865000D01*
X190377244Y-107947047D01*
X189988698Y-108107988D01*
X189639017Y-108341637D01*
X189341637Y-108639017D01*
X189107988Y-108988698D01*
X188947047Y-109377244D01*
X188865000Y-109789721D01*
X174410000Y-109789721D01*
X174410000Y-101088967D01*
X206115000Y-101088967D01*
X206115000Y-101411033D01*
X206177832Y-101726912D01*
X206301082Y-102024463D01*
X206480013Y-102292252D01*
X206707748Y-102519987D01*
X206975537Y-102698918D01*
X207273088Y-102822168D01*
X207588967Y-102885000D01*
X207911033Y-102885000D01*
X208226912Y-102822168D01*
X208524463Y-102698918D01*
X208792252Y-102519987D01*
X209019987Y-102292252D01*
X209198918Y-102024463D01*
X209322168Y-101726912D01*
X209385000Y-101411033D01*
X209385000Y-101088967D01*
X209322168Y-100773088D01*
X209198918Y-100475537D01*
X209019987Y-100207748D01*
X208792252Y-99980013D01*
X208524463Y-99801082D01*
X208226912Y-99677832D01*
X207911033Y-99615000D01*
X207588967Y-99615000D01*
X207273088Y-99677832D01*
X206975537Y-99801082D01*
X206707748Y-99980013D01*
X206480013Y-100207748D01*
X206301082Y-100475537D01*
X206177832Y-100773088D01*
X206115000Y-101088967D01*
X174410000Y-101088967D01*
X174410000Y-98554495D01*
X189015000Y-98554495D01*
X189015000Y-98945505D01*
X189091282Y-99329003D01*
X189240915Y-99690250D01*
X189458149Y-100015364D01*
X189734636Y-100291851D01*
X190059750Y-100509085D01*
X190420997Y-100658718D01*
X190804495Y-100735000D01*
X191195505Y-100735000D01*
X191579003Y-100658718D01*
X191940250Y-100509085D01*
X192265364Y-100291851D01*
X192541851Y-100015364D01*
X192759085Y-99690250D01*
X192908718Y-99329003D01*
X192985000Y-98945505D01*
X192985000Y-98554495D01*
X192908718Y-98170997D01*
X192759085Y-97809750D01*
X192541851Y-97484636D01*
X192265364Y-97208149D01*
X191940250Y-96990915D01*
X191579003Y-96841282D01*
X191195505Y-96765000D01*
X190804495Y-96765000D01*
X190420997Y-96841282D01*
X190059750Y-96990915D01*
X189734636Y-97208149D01*
X189458149Y-97484636D01*
X189240915Y-97809750D01*
X189091282Y-98170997D01*
X189015000Y-98554495D01*
X174410000Y-98554495D01*
X174410000Y-95250000D01*
X206111928Y-95250000D01*
X206111928Y-97250000D01*
X206124188Y-97374482D01*
X206160498Y-97494180D01*
X206219463Y-97604494D01*
X206298815Y-97701185D01*
X206395506Y-97780537D01*
X206505820Y-97839502D01*
X206625518Y-97875812D01*
X206750000Y-97888072D01*
X208750000Y-97888072D01*
X208874482Y-97875812D01*
X208994180Y-97839502D01*
X209104494Y-97780537D01*
X209201185Y-97701185D01*
X209280537Y-97604494D01*
X209339502Y-97494180D01*
X209375812Y-97374482D01*
X209388072Y-97250000D01*
X209388072Y-95250000D01*
X209375812Y-95125518D01*
X209339502Y-95005820D01*
X209280537Y-94895506D01*
X209201185Y-94798815D01*
X209104494Y-94719463D01*
X208994180Y-94660498D01*
X208874482Y-94624188D01*
X208750000Y-94611928D01*
X206750000Y-94611928D01*
X206625518Y-94624188D01*
X206505820Y-94660498D01*
X206395506Y-94719463D01*
X206298815Y-94798815D01*
X206219463Y-94895506D01*
X206160498Y-95005820D01*
X206124188Y-95125518D01*
X206111928Y-95250000D01*
X174410000Y-95250000D01*
X174410000Y-87289721D01*
X188865000Y-87289721D01*
X188865000Y-87710279D01*
X188947047Y-88122756D01*
X189107988Y-88511302D01*
X189341637Y-88860983D01*
X189639017Y-89158363D01*
X189988698Y-89392012D01*
X190377244Y-89552953D01*
X190789721Y-89635000D01*
X191210279Y-89635000D01*
X191622756Y-89552953D01*
X192011302Y-89392012D01*
X192360983Y-89158363D01*
X192658363Y-88860983D01*
X192892012Y-88511302D01*
X193052953Y-88122756D01*
X193135000Y-87710279D01*
X193135000Y-87289721D01*
X193052953Y-86877244D01*
X192892012Y-86488698D01*
X192658363Y-86139017D01*
X192360983Y-85841637D01*
X192011302Y-85607988D01*
X191622756Y-85447047D01*
X191210279Y-85365000D01*
X190789721Y-85365000D01*
X190377244Y-85447047D01*
X189988698Y-85607988D01*
X189639017Y-85841637D01*
X189341637Y-86139017D01*
X189107988Y-86488698D01*
X188947047Y-86877244D01*
X188865000Y-87289721D01*
X174410000Y-87289721D01*
X174410000Y-78549117D01*
X214465000Y-78549117D01*
X214465000Y-78890883D01*
X214531675Y-79226081D01*
X214662463Y-79541831D01*
X214852337Y-79825998D01*
X215094002Y-80067663D01*
X215378169Y-80257537D01*
X215693919Y-80388325D01*
X216029117Y-80455000D01*
X216370883Y-80455000D01*
X216706081Y-80388325D01*
X217021831Y-80257537D01*
X217305998Y-80067663D01*
X217547663Y-79825998D01*
X217737537Y-79541831D01*
X217868325Y-79226081D01*
X217935000Y-78890883D01*
X217935000Y-78549117D01*
X217868325Y-78213919D01*
X217737537Y-77898169D01*
X217547663Y-77614002D01*
X217433661Y-77500000D01*
X220461928Y-77500000D01*
X220461928Y-79700000D01*
X220474188Y-79824482D01*
X220510498Y-79944180D01*
X220569463Y-80054494D01*
X220648815Y-80151185D01*
X220745506Y-80230537D01*
X220855820Y-80289502D01*
X220975518Y-80325812D01*
X221100000Y-80338072D01*
X223300000Y-80338072D01*
X223424482Y-80325812D01*
X223544180Y-80289502D01*
X223654494Y-80230537D01*
X223751185Y-80151185D01*
X223830537Y-80054494D01*
X223889502Y-79944180D01*
X223925812Y-79824482D01*
X223938072Y-79700000D01*
X223938072Y-77500000D01*
X223925812Y-77375518D01*
X223889502Y-77255820D01*
X223830537Y-77145506D01*
X223751185Y-77048815D01*
X223654494Y-76969463D01*
X223544180Y-76910498D01*
X223424482Y-76874188D01*
X223300000Y-76861928D01*
X221100000Y-76861928D01*
X220975518Y-76874188D01*
X220855820Y-76910498D01*
X220745506Y-76969463D01*
X220648815Y-77048815D01*
X220569463Y-77145506D01*
X220510498Y-77255820D01*
X220474188Y-77375518D01*
X220461928Y-77500000D01*
X217433661Y-77500000D01*
X217305998Y-77372337D01*
X217021831Y-77182463D01*
X216706081Y-77051675D01*
X216370883Y-76985000D01*
X216029117Y-76985000D01*
X215693919Y-77051675D01*
X215378169Y-77182463D01*
X215094002Y-77372337D01*
X214852337Y-77614002D01*
X214662463Y-77898169D01*
X214531675Y-78213919D01*
X214465000Y-78549117D01*
X174410000Y-78549117D01*
X174410000Y-71715852D01*
X197615000Y-71715852D01*
X197615000Y-72284148D01*
X197725869Y-72841523D01*
X197943346Y-73366560D01*
X198259074Y-73839080D01*
X198660920Y-74240926D01*
X199133440Y-74556654D01*
X199658477Y-74774131D01*
X200215852Y-74885000D01*
X200784148Y-74885000D01*
X201341523Y-74774131D01*
X201866560Y-74556654D01*
X202339080Y-74240926D01*
X202740926Y-73839080D01*
X203056654Y-73366560D01*
X203274131Y-72841523D01*
X203385000Y-72284148D01*
X203385000Y-71715852D01*
X203274131Y-71158477D01*
X203056654Y-70633440D01*
X202740926Y-70160920D01*
X202580006Y-70000000D01*
X214461928Y-70000000D01*
X214461928Y-72200000D01*
X214474188Y-72324482D01*
X214510498Y-72444180D01*
X214569463Y-72554494D01*
X214648815Y-72651185D01*
X214745506Y-72730537D01*
X214855820Y-72789502D01*
X214975518Y-72825812D01*
X215100000Y-72838072D01*
X217300000Y-72838072D01*
X217424482Y-72825812D01*
X217544180Y-72789502D01*
X217654494Y-72730537D01*
X217751185Y-72651185D01*
X217830537Y-72554494D01*
X217889502Y-72444180D01*
X217925812Y-72324482D01*
X217938072Y-72200000D01*
X217938072Y-71376123D01*
X220510821Y-71376123D01*
X220620558Y-71698054D01*
X220790992Y-71992391D01*
X221015573Y-72247822D01*
X221285671Y-72454531D01*
X221590906Y-72604575D01*
X221803878Y-72669175D01*
X222073000Y-72551125D01*
X222073000Y-71107000D01*
X222327000Y-71107000D01*
X222327000Y-72551125D01*
X222596122Y-72669175D01*
X222809094Y-72604575D01*
X223114329Y-72454531D01*
X223384427Y-72247822D01*
X223609008Y-71992391D01*
X223779442Y-71698054D01*
X223889179Y-71376123D01*
X223771600Y-71107000D01*
X222327000Y-71107000D01*
X222073000Y-71107000D01*
X220628400Y-71107000D01*
X220510821Y-71376123D01*
X217938072Y-71376123D01*
X217938072Y-70583877D01*
X220510821Y-70583877D01*
X220628400Y-70853000D01*
X222073000Y-70853000D01*
X222073000Y-69408875D01*
X222327000Y-69408875D01*
X222327000Y-70853000D01*
X223771600Y-70853000D01*
X223889179Y-70583877D01*
X223779442Y-70261946D01*
X223627764Y-70000000D01*
X226461928Y-70000000D01*
X226461928Y-72200000D01*
X226474188Y-72324482D01*
X226510498Y-72444180D01*
X226569463Y-72554494D01*
X226648815Y-72651185D01*
X226745506Y-72730537D01*
X226855820Y-72789502D01*
X226975518Y-72825812D01*
X227100000Y-72838072D01*
X229300000Y-72838072D01*
X229424482Y-72825812D01*
X229544180Y-72789502D01*
X229654494Y-72730537D01*
X229751185Y-72651185D01*
X229830537Y-72554494D01*
X229889502Y-72444180D01*
X229925812Y-72324482D01*
X229938072Y-72200000D01*
X229938072Y-71376123D01*
X232010821Y-71376123D01*
X232120558Y-71698054D01*
X232290992Y-71992391D01*
X232515573Y-72247822D01*
X232785671Y-72454531D01*
X233090906Y-72604575D01*
X233303878Y-72669175D01*
X233573000Y-72551125D01*
X233573000Y-71107000D01*
X233827000Y-71107000D01*
X233827000Y-72551125D01*
X234096122Y-72669175D01*
X234309094Y-72604575D01*
X234614329Y-72454531D01*
X234884427Y-72247822D01*
X235109008Y-71992391D01*
X235279442Y-71698054D01*
X235389179Y-71376123D01*
X235271600Y-71107000D01*
X233827000Y-71107000D01*
X233573000Y-71107000D01*
X232128400Y-71107000D01*
X232010821Y-71376123D01*
X229938072Y-71376123D01*
X229938072Y-70583877D01*
X232010821Y-70583877D01*
X232128400Y-70853000D01*
X233573000Y-70853000D01*
X233573000Y-69408875D01*
X233827000Y-69408875D01*
X233827000Y-70853000D01*
X235271600Y-70853000D01*
X235389179Y-70583877D01*
X235279442Y-70261946D01*
X235109008Y-69967609D01*
X234884427Y-69712178D01*
X234614329Y-69505469D01*
X234309094Y-69355425D01*
X234096122Y-69290825D01*
X233827000Y-69408875D01*
X233573000Y-69408875D01*
X233303878Y-69290825D01*
X233090906Y-69355425D01*
X232785671Y-69505469D01*
X232515573Y-69712178D01*
X232290992Y-69967609D01*
X232120558Y-70261946D01*
X232010821Y-70583877D01*
X229938072Y-70583877D01*
X229938072Y-70000000D01*
X229925812Y-69875518D01*
X229889502Y-69755820D01*
X229830537Y-69645506D01*
X229751185Y-69548815D01*
X229654494Y-69469463D01*
X229544180Y-69410498D01*
X229424482Y-69374188D01*
X229300000Y-69361928D01*
X227100000Y-69361928D01*
X226975518Y-69374188D01*
X226855820Y-69410498D01*
X226745506Y-69469463D01*
X226648815Y-69548815D01*
X226569463Y-69645506D01*
X226510498Y-69755820D01*
X226474188Y-69875518D01*
X226461928Y-70000000D01*
X223627764Y-70000000D01*
X223609008Y-69967609D01*
X223384427Y-69712178D01*
X223114329Y-69505469D01*
X222809094Y-69355425D01*
X222596122Y-69290825D01*
X222327000Y-69408875D01*
X222073000Y-69408875D01*
X221803878Y-69290825D01*
X221590906Y-69355425D01*
X221285671Y-69505469D01*
X221015573Y-69712178D01*
X220790992Y-69967609D01*
X220620558Y-70261946D01*
X220510821Y-70583877D01*
X217938072Y-70583877D01*
X217938072Y-70000000D01*
X217925812Y-69875518D01*
X217889502Y-69755820D01*
X217830537Y-69645506D01*
X217751185Y-69548815D01*
X217654494Y-69469463D01*
X217544180Y-69410498D01*
X217424482Y-69374188D01*
X217300000Y-69361928D01*
X215100000Y-69361928D01*
X214975518Y-69374188D01*
X214855820Y-69410498D01*
X214745506Y-69469463D01*
X214648815Y-69548815D01*
X214569463Y-69645506D01*
X214510498Y-69755820D01*
X214474188Y-69875518D01*
X214461928Y-70000000D01*
X202580006Y-70000000D01*
X202339080Y-69759074D01*
X201866560Y-69443346D01*
X201341523Y-69225869D01*
X200784148Y-69115000D01*
X200215852Y-69115000D01*
X199658477Y-69225869D01*
X199133440Y-69443346D01*
X198660920Y-69759074D01*
X198259074Y-70160920D01*
X197943346Y-70633440D01*
X197725869Y-71158477D01*
X197615000Y-71715852D01*
X174410000Y-71715852D01*
X174410000Y-70135413D01*
X184544192Y-70135413D01*
X184639956Y-70399814D01*
X184929571Y-70540704D01*
X185241108Y-70622384D01*
X185562595Y-70641718D01*
X185881675Y-70597961D01*
X186186088Y-70492795D01*
X186360044Y-70399814D01*
X186455808Y-70135413D01*
X185500000Y-69179605D01*
X184544192Y-70135413D01*
X174410000Y-70135413D01*
X174410000Y-69062595D01*
X183858282Y-69062595D01*
X183902039Y-69381675D01*
X184007205Y-69686088D01*
X184100186Y-69860044D01*
X184364587Y-69955808D01*
X185320395Y-69000000D01*
X185679605Y-69000000D01*
X186635413Y-69955808D01*
X186899814Y-69860044D01*
X187040704Y-69570429D01*
X187122384Y-69258892D01*
X187141718Y-68937405D01*
X187097961Y-68618325D01*
X186992795Y-68313912D01*
X186899814Y-68139956D01*
X186635413Y-68044192D01*
X185679605Y-69000000D01*
X185320395Y-69000000D01*
X184364587Y-68044192D01*
X184100186Y-68139956D01*
X183959296Y-68429571D01*
X183877616Y-68741108D01*
X183858282Y-69062595D01*
X174410000Y-69062595D01*
X174410000Y-64715852D01*
X176115000Y-64715852D01*
X176115000Y-65284148D01*
X176225869Y-65841523D01*
X176443346Y-66366560D01*
X176759074Y-66839080D01*
X177160920Y-67240926D01*
X177633440Y-67556654D01*
X178158477Y-67774131D01*
X178715852Y-67885000D01*
X179284148Y-67885000D01*
X179386770Y-67864587D01*
X184544192Y-67864587D01*
X185500000Y-68820395D01*
X186320395Y-68000000D01*
X188861928Y-68000000D01*
X188861928Y-70000000D01*
X188874188Y-70124482D01*
X188910498Y-70244180D01*
X188969463Y-70354494D01*
X189048815Y-70451185D01*
X189145506Y-70530537D01*
X189255820Y-70589502D01*
X189375518Y-70625812D01*
X189500000Y-70638072D01*
X191500000Y-70638072D01*
X191624482Y-70625812D01*
X191744180Y-70589502D01*
X191854494Y-70530537D01*
X191951185Y-70451185D01*
X192030537Y-70354494D01*
X192089502Y-70244180D01*
X192125812Y-70124482D01*
X192138072Y-70000000D01*
X192138072Y-68000000D01*
X192125812Y-67875518D01*
X192089502Y-67755820D01*
X192030537Y-67645506D01*
X191951185Y-67548815D01*
X191854494Y-67469463D01*
X191744180Y-67410498D01*
X191624482Y-67374188D01*
X191500000Y-67361928D01*
X189500000Y-67361928D01*
X189375518Y-67374188D01*
X189255820Y-67410498D01*
X189145506Y-67469463D01*
X189048815Y-67548815D01*
X188969463Y-67645506D01*
X188910498Y-67755820D01*
X188874188Y-67875518D01*
X188861928Y-68000000D01*
X186320395Y-68000000D01*
X186455808Y-67864587D01*
X186360044Y-67600186D01*
X186070429Y-67459296D01*
X185758892Y-67377616D01*
X185437405Y-67358282D01*
X185118325Y-67402039D01*
X184813912Y-67507205D01*
X184639956Y-67600186D01*
X184544192Y-67864587D01*
X179386770Y-67864587D01*
X179841523Y-67774131D01*
X180366560Y-67556654D01*
X180839080Y-67240926D01*
X181240926Y-66839080D01*
X181556654Y-66366560D01*
X181774131Y-65841523D01*
X181885000Y-65284148D01*
X181885000Y-64715852D01*
X181774131Y-64158477D01*
X181708488Y-64000000D01*
X196861928Y-64000000D01*
X196861928Y-66000000D01*
X196874188Y-66124482D01*
X196910498Y-66244180D01*
X196969463Y-66354494D01*
X197048815Y-66451185D01*
X197145506Y-66530537D01*
X197255820Y-66589502D01*
X197375518Y-66625812D01*
X197500000Y-66638072D01*
X199500000Y-66638072D01*
X199624482Y-66625812D01*
X199744180Y-66589502D01*
X199854494Y-66530537D01*
X199951185Y-66451185D01*
X200030537Y-66354494D01*
X200089502Y-66244180D01*
X200125812Y-66124482D01*
X200138072Y-66000000D01*
X200138072Y-64000000D01*
X200125812Y-63875518D01*
X200089502Y-63755820D01*
X200030537Y-63645506D01*
X199951185Y-63548815D01*
X199854494Y-63469463D01*
X199744180Y-63410498D01*
X199624482Y-63374188D01*
X199500000Y-63361928D01*
X197500000Y-63361928D01*
X197375518Y-63374188D01*
X197255820Y-63410498D01*
X197145506Y-63469463D01*
X197048815Y-63548815D01*
X196969463Y-63645506D01*
X196910498Y-63755820D01*
X196874188Y-63875518D01*
X196861928Y-64000000D01*
X181708488Y-64000000D01*
X181556654Y-63633440D01*
X181240926Y-63160920D01*
X180839080Y-62759074D01*
X180366560Y-62443346D01*
X179841523Y-62225869D01*
X179284148Y-62115000D01*
X178715852Y-62115000D01*
X178158477Y-62225869D01*
X177633440Y-62443346D01*
X177160920Y-62759074D01*
X176759074Y-63160920D01*
X176443346Y-63633440D01*
X176225869Y-64158477D01*
X176115000Y-64715852D01*
X174410000Y-64715852D01*
X174410000Y-61135413D01*
X197544192Y-61135413D01*
X197639956Y-61399814D01*
X197929571Y-61540704D01*
X198241108Y-61622384D01*
X198562595Y-61641718D01*
X198881675Y-61597961D01*
X199186088Y-61492795D01*
X199360044Y-61399814D01*
X199455808Y-61135413D01*
X198500000Y-60179605D01*
X197544192Y-61135413D01*
X174410000Y-61135413D01*
X174410000Y-60062595D01*
X196858282Y-60062595D01*
X196902039Y-60381675D01*
X197007205Y-60686088D01*
X197100186Y-60860044D01*
X197364587Y-60955808D01*
X198320395Y-60000000D01*
X198679605Y-60000000D01*
X199635413Y-60955808D01*
X199899814Y-60860044D01*
X200040704Y-60570429D01*
X200122384Y-60258892D01*
X200141718Y-59937405D01*
X200101206Y-59641984D01*
X208465000Y-59641984D01*
X208465000Y-60358016D01*
X208604691Y-61060290D01*
X208878705Y-61721818D01*
X209276511Y-62317177D01*
X209782823Y-62823489D01*
X210378182Y-63221295D01*
X211039710Y-63495309D01*
X211741984Y-63635000D01*
X212458016Y-63635000D01*
X213160290Y-63495309D01*
X213511096Y-63350000D01*
X220659428Y-63350000D01*
X220659428Y-65350000D01*
X220671688Y-65474482D01*
X220707998Y-65594180D01*
X220766963Y-65704494D01*
X220846315Y-65801185D01*
X220943006Y-65880537D01*
X221053320Y-65939502D01*
X221173018Y-65975812D01*
X221297500Y-65988072D01*
X223202500Y-65988072D01*
X223326982Y-65975812D01*
X223446680Y-65939502D01*
X223556994Y-65880537D01*
X223653685Y-65801185D01*
X223733037Y-65704494D01*
X223782059Y-65612781D01*
X223923077Y-65725969D01*
X224198906Y-65869571D01*
X224417020Y-65940563D01*
X224663000Y-65820594D01*
X224663000Y-64477000D01*
X224643000Y-64477000D01*
X224643000Y-64223000D01*
X224663000Y-64223000D01*
X224663000Y-62879406D01*
X224917000Y-62879406D01*
X224917000Y-64223000D01*
X224937000Y-64223000D01*
X224937000Y-64477000D01*
X224917000Y-64477000D01*
X224917000Y-65820594D01*
X225162980Y-65940563D01*
X225381094Y-65869571D01*
X225656923Y-65725969D01*
X225899437Y-65531315D01*
X226054837Y-65346101D01*
X226202037Y-65525463D01*
X226443766Y-65723845D01*
X226719552Y-65871255D01*
X227018797Y-65962030D01*
X227330000Y-65992681D01*
X227641204Y-65962030D01*
X227940449Y-65871255D01*
X228216235Y-65723845D01*
X228457963Y-65525463D01*
X228656345Y-65283734D01*
X228803755Y-65007948D01*
X228894530Y-64708703D01*
X228917500Y-64475485D01*
X228917500Y-64224514D01*
X228894530Y-63991296D01*
X228803755Y-63692051D01*
X228656345Y-63416265D01*
X228457963Y-63174537D01*
X228216234Y-62976155D01*
X227940448Y-62828745D01*
X227641203Y-62737970D01*
X227330000Y-62707319D01*
X227018796Y-62737970D01*
X226719551Y-62828745D01*
X226443765Y-62976155D01*
X226202037Y-63174537D01*
X226054838Y-63353900D01*
X225899437Y-63168685D01*
X225656923Y-62974031D01*
X225381094Y-62830429D01*
X225162980Y-62759437D01*
X224917000Y-62879406D01*
X224663000Y-62879406D01*
X224417020Y-62759437D01*
X224198906Y-62830429D01*
X223923077Y-62974031D01*
X223782059Y-63087219D01*
X223733037Y-62995506D01*
X223653685Y-62898815D01*
X223556994Y-62819463D01*
X223446680Y-62760498D01*
X223326982Y-62724188D01*
X223202500Y-62711928D01*
X221297500Y-62711928D01*
X221173018Y-62724188D01*
X221053320Y-62760498D01*
X220943006Y-62819463D01*
X220846315Y-62898815D01*
X220766963Y-62995506D01*
X220707998Y-63105820D01*
X220671688Y-63225518D01*
X220659428Y-63350000D01*
X213511096Y-63350000D01*
X213821818Y-63221295D01*
X214417177Y-62823489D01*
X214923489Y-62317177D01*
X215321295Y-61721818D01*
X215595309Y-61060290D01*
X215735000Y-60358016D01*
X215735000Y-59641984D01*
X233865000Y-59641984D01*
X233865000Y-60358016D01*
X234004691Y-61060290D01*
X234278705Y-61721818D01*
X234676511Y-62317177D01*
X235182823Y-62823489D01*
X235778182Y-63221295D01*
X236439710Y-63495309D01*
X237141984Y-63635000D01*
X237858016Y-63635000D01*
X238560290Y-63495309D01*
X239221818Y-63221295D01*
X239817177Y-62823489D01*
X240323489Y-62317177D01*
X240721295Y-61721818D01*
X240995309Y-61060290D01*
X241135000Y-60358016D01*
X241135000Y-59641984D01*
X240995309Y-58939710D01*
X240721295Y-58278182D01*
X240323489Y-57682823D01*
X239817177Y-57176511D01*
X239221818Y-56778705D01*
X238560290Y-56504691D01*
X237858016Y-56365000D01*
X237141984Y-56365000D01*
X236439710Y-56504691D01*
X235778182Y-56778705D01*
X235182823Y-57176511D01*
X234676511Y-57682823D01*
X234278705Y-58278182D01*
X234004691Y-58939710D01*
X233865000Y-59641984D01*
X215735000Y-59641984D01*
X215595309Y-58939710D01*
X215321295Y-58278182D01*
X214923489Y-57682823D01*
X214417177Y-57176511D01*
X213821818Y-56778705D01*
X213160290Y-56504691D01*
X212458016Y-56365000D01*
X211741984Y-56365000D01*
X211039710Y-56504691D01*
X210378182Y-56778705D01*
X209782823Y-57176511D01*
X209276511Y-57682823D01*
X208878705Y-58278182D01*
X208604691Y-58939710D01*
X208465000Y-59641984D01*
X200101206Y-59641984D01*
X200097961Y-59618325D01*
X199992795Y-59313912D01*
X199899814Y-59139956D01*
X199635413Y-59044192D01*
X198679605Y-60000000D01*
X198320395Y-60000000D01*
X197364587Y-59044192D01*
X197100186Y-59139956D01*
X196959296Y-59429571D01*
X196877616Y-59741108D01*
X196858282Y-60062595D01*
X174410000Y-60062595D01*
X174410000Y-58750440D01*
X182611488Y-58750440D01*
X182623748Y-58874922D01*
X182660058Y-58994620D01*
X182719023Y-59104934D01*
X182798375Y-59201625D01*
X182895066Y-59280977D01*
X183005380Y-59339942D01*
X183125078Y-59376252D01*
X183249560Y-59388512D01*
X184214250Y-59385440D01*
X184373000Y-59226690D01*
X184373000Y-57627000D01*
X184627000Y-57627000D01*
X184627000Y-59226690D01*
X184785750Y-59385440D01*
X185750440Y-59388512D01*
X185874922Y-59376252D01*
X185994620Y-59339942D01*
X186104934Y-59280977D01*
X186201625Y-59201625D01*
X186280977Y-59104934D01*
X186339942Y-58994620D01*
X186376252Y-58874922D01*
X186377269Y-58864587D01*
X197544192Y-58864587D01*
X198500000Y-59820395D01*
X199455808Y-58864587D01*
X199360044Y-58600186D01*
X199070429Y-58459296D01*
X198758892Y-58377616D01*
X198437405Y-58358282D01*
X198118325Y-58402039D01*
X197813912Y-58507205D01*
X197639956Y-58600186D01*
X197544192Y-58864587D01*
X186377269Y-58864587D01*
X186388512Y-58750440D01*
X186385440Y-57785750D01*
X186226690Y-57627000D01*
X184627000Y-57627000D01*
X184373000Y-57627000D01*
X182773310Y-57627000D01*
X182614560Y-57785750D01*
X182611488Y-58750440D01*
X174410000Y-58750440D01*
X174410000Y-56249560D01*
X182611488Y-56249560D01*
X182614560Y-57214250D01*
X182773310Y-57373000D01*
X184373000Y-57373000D01*
X184373000Y-55773310D01*
X184627000Y-55773310D01*
X184627000Y-57373000D01*
X186226690Y-57373000D01*
X186385440Y-57214250D01*
X186388512Y-56249560D01*
X186376252Y-56125078D01*
X186339942Y-56005380D01*
X186280977Y-55895066D01*
X186201625Y-55798375D01*
X186104934Y-55719023D01*
X185994620Y-55660058D01*
X185874922Y-55623748D01*
X185750440Y-55611488D01*
X184785750Y-55614560D01*
X184627000Y-55773310D01*
X184373000Y-55773310D01*
X184214250Y-55614560D01*
X183249560Y-55611488D01*
X183125078Y-55623748D01*
X183005380Y-55660058D01*
X182895066Y-55719023D01*
X182798375Y-55798375D01*
X182719023Y-55895066D01*
X182660058Y-56005380D01*
X182623748Y-56125078D01*
X182611488Y-56249560D01*
X174410000Y-56249560D01*
X174410000Y-47249560D01*
X182611488Y-47249560D01*
X182611488Y-49750440D01*
X182623748Y-49874922D01*
X182660058Y-49994620D01*
X182719023Y-50104934D01*
X182798375Y-50201625D01*
X182895066Y-50280977D01*
X183005380Y-50339942D01*
X183125078Y-50376252D01*
X183249560Y-50388512D01*
X185750440Y-50388512D01*
X185874922Y-50376252D01*
X185994620Y-50339942D01*
X186104934Y-50280977D01*
X186201625Y-50201625D01*
X186280977Y-50104934D01*
X186339942Y-49994620D01*
X186376252Y-49874922D01*
X186388512Y-49750440D01*
X186388512Y-47715852D01*
X236115000Y-47715852D01*
X236115000Y-48284148D01*
X236225869Y-48841523D01*
X236443346Y-49366560D01*
X236759074Y-49839080D01*
X237160920Y-50240926D01*
X237633440Y-50556654D01*
X238158477Y-50774131D01*
X238715852Y-50885000D01*
X239284148Y-50885000D01*
X239841523Y-50774131D01*
X240366560Y-50556654D01*
X240839080Y-50240926D01*
X241240926Y-49839080D01*
X241556654Y-49366560D01*
X241774131Y-48841523D01*
X241885000Y-48284148D01*
X241885000Y-47715852D01*
X241774131Y-47158477D01*
X241556654Y-46633440D01*
X241240926Y-46160920D01*
X240839080Y-45759074D01*
X240366560Y-45443346D01*
X239841523Y-45225869D01*
X239284148Y-45115000D01*
X238715852Y-45115000D01*
X238158477Y-45225869D01*
X237633440Y-45443346D01*
X237160920Y-45759074D01*
X236759074Y-46160920D01*
X236443346Y-46633440D01*
X236225869Y-47158477D01*
X236115000Y-47715852D01*
X186388512Y-47715852D01*
X186388512Y-47249560D01*
X186376252Y-47125078D01*
X186339942Y-47005380D01*
X186280977Y-46895066D01*
X186201625Y-46798375D01*
X186104934Y-46719023D01*
X185994620Y-46660058D01*
X185874922Y-46623748D01*
X185750440Y-46611488D01*
X183249560Y-46611488D01*
X183125078Y-46623748D01*
X183005380Y-46660058D01*
X182895066Y-46719023D01*
X182798375Y-46798375D01*
X182719023Y-46895066D01*
X182660058Y-47005380D01*
X182623748Y-47125078D01*
X182611488Y-47249560D01*
X174410000Y-47249560D01*
X174410000Y-46982279D01*
X174448147Y-46593225D01*
X174551763Y-46250033D01*
X174720062Y-45933511D01*
X174946637Y-45655701D01*
X175222856Y-45427194D01*
X175538197Y-45256690D01*
X175880656Y-45150681D01*
X176267712Y-45110000D01*
X241967721Y-45110000D01*
X242356775Y-45148147D01*
M02*
