M48
; DRILL file {KiCad (5.1.5)-3} date 25-04-2020 14:47:20
; FORMAT={-:-/ absolute / metric / decimal}
; #@! TF.CreationDate,2020-04-25T14:47:20+02:00
; #@! TF.GenerationSoftware,Kicad,Pcbnew,(5.1.5)-3
FMAT,2
METRIC
T1C0.400
T2C0.500
T3C0.750
T4C0.800
T5C0.900
T6C1.000
T7C1.100
T8C1.300
T9C1.800
T10C2.500
T11C3.200
T12C2.700
%
G90
G05
T1
X65.0Y-30.0
X65.0Y-32.5
X65.0Y-35.0
X65.0Y-37.5
X65.0Y-40.0
X65.0Y-42.5
X65.0Y-45.0
X65.0Y-47.5
X65.0Y-50.0
X65.0Y-52.5
X65.0Y-55.0
X65.0Y-57.5
X65.0Y-60.5
X65.0Y-61.5
X65.0Y-72.5
X65.0Y-75.0
X65.0Y-77.5
X65.0Y-80.0
X65.0Y-82.5
X65.0Y-85.0
X65.0Y-87.5
X65.0Y-90.0
X65.0Y-92.5
X65.0Y-95.0
X65.0Y-97.5
X65.0Y-115.0
X65.0Y-117.5
X65.0Y-120.0
X65.0Y-122.5
X65.0Y-125.0
X65.0Y-127.5
X65.0Y-142.5
X65.75Y-59.75
X65.75Y-99.0
X66.25Y-104.0
X66.5Y-98.25
X67.5Y-30.0
X67.75Y-89.75
X67.75Y-91.5
X67.75Y-93.25
X68.25Y-101.0
X68.5Y-49.25
X68.75Y-53.75
X70.0Y-30.0
X70.0Y-52.5
X70.0Y-55.0
X70.0Y-57.5
X71.25Y-93.0
X72.0Y-89.5
X72.5Y-30.0
X72.5Y-55.0
X72.5Y-60.0
X72.5Y-142.5
X74.0Y-43.25
X74.25Y-88.25
X74.25Y-96.0
X75.0Y-30.0
X75.0Y-32.0
X75.0Y-142.5
X76.25Y-42.75
X76.75Y-38.25
X76.875Y-58.875
X77.0Y-46.75
X77.0Y-52.75
X77.0Y-56.75
X77.5Y-30.0
X77.5Y-142.5
X78.0Y-32.0
X78.0Y-36.0
X78.5Y-51.75
X79.0Y-43.25
X79.5Y-62.25
X80.0Y-30.0
X80.0Y-34.0
X80.0Y-54.5
X80.5Y-38.25
X80.5Y-42.4
X80.75Y-62.25
X81.0Y-32.0
X81.25Y-39.5
X81.5Y-46.75
X81.5Y-52.75
X81.5Y-63.0
X82.0Y-36.0
X82.25Y-59.0
X82.5Y-30.0
X82.5Y-47.75
X84.0Y-34.0
X84.0Y-37.0
X84.0Y-43.5
X84.0Y-51.25
X85.0Y-30.0
X85.0Y-32.0
X85.0Y-49.0
X85.0Y-145.0
X85.5Y-41.75
X86.0Y-39.0
X86.25Y-61.0
X86.5Y-56.0
X87.0Y-43.0
X87.0Y-46.0
X87.0Y-51.0
X87.5Y-30.0
X87.5Y-145.0
X87.75Y-49.0
X88.0Y-47.75
X89.0Y-39.0
X89.0Y-42.5
X89.0Y-104.0
X89.0Y-108.0
X89.0Y-111.0
X89.0Y-114.0
X89.0Y-117.0
X89.0Y-122.0
X89.0Y-125.0
X89.0Y-128.0
X89.0Y-131.0
X89.0Y-134.0
X89.0Y-137.0
X90.0Y-30.0
X90.0Y-140.0
X90.0Y-145.0
X90.25Y-49.0
X91.0Y-101.0
X91.25Y-42.5
X92.0Y-39.0
X92.0Y-54.0
X92.0Y-86.0
X92.0Y-89.0
X92.0Y-92.0
X92.0Y-95.0
X92.0Y-98.0
X92.5Y-30.0
X92.5Y-47.25
X92.5Y-145.0
X93.0Y-32.0
X93.0Y-34.0
X94.0Y-43.0
X94.0Y-45.0
X95.0Y-30.0
X95.0Y-36.0
X95.0Y-39.0
X95.0Y-46.25
X95.0Y-51.0
X95.0Y-54.0
X95.0Y-130.0
X95.0Y-145.0
X95.09Y-48.475
X97.0Y-32.0
X97.0Y-34.0
X97.5Y-30.0
X97.5Y-145.0
X97.75Y-59.75
X98.0Y-39.0
X98.0Y-45.0
X98.5Y-42.75
X100.0Y-30.0
X100.0Y-33.0
X100.0Y-36.0
X100.0Y-130.0
X100.0Y-135.0
X100.0Y-145.0
X100.75Y-41.25
X101.0Y-43.0
X102.5Y-30.0
X102.5Y-40.0
X102.5Y-45.25
X102.5Y-46.25
X102.5Y-145.0
X103.0Y-52.0
X103.5Y-41.0
X105.0Y-30.0
X105.0Y-35.0
X105.0Y-82.5
X105.0Y-130.0
X105.0Y-145.0
X106.0Y-46.725
X106.25Y-51.0
X107.3Y-46.725
X107.5Y-30.0
X107.5Y-32.5
X107.5Y-35.0
X107.5Y-145.0
X107.75Y-51.0
X108.0Y-53.0
X109.0Y-51.0
X109.55Y-45.09
X110.0Y-30.0
X110.0Y-35.0
X110.0Y-82.5
X110.0Y-145.0
X111.0Y-45.75
X112.5Y-30.0
X112.5Y-32.5
X112.5Y-35.0
X112.5Y-37.5
X112.5Y-130.0
X112.5Y-145.0
X113.0Y-50.0
X114.0Y-39.0
X114.0Y-43.0
X114.25Y-48.25
X115.0Y-30.0
X115.0Y-82.5
X115.0Y-135.0
X115.0Y-145.0
X117.5Y-30.0
X117.5Y-130.0
X117.5Y-145.0
X118.0Y-41.0
X118.75Y-48.5
X120.0Y-30.0
X120.0Y-34.0
X120.0Y-82.5
X120.0Y-140.0
X120.0Y-145.0
X121.25Y-41.25
X122.0Y-37.0
X122.0Y-45.0
X122.5Y-30.0
X122.5Y-130.0
X122.5Y-135.0
X122.5Y-145.0
X124.0Y-39.0
X124.0Y-41.0
X124.0Y-44.0
X124.0Y-46.0
X125.0Y-30.0
X125.0Y-35.0
X125.0Y-82.5
X125.0Y-140.0
X125.0Y-145.0
X127.5Y-30.0
X127.5Y-35.0
X127.5Y-130.0
X127.5Y-135.0
X127.5Y-145.0
X130.0Y-30.0
X130.0Y-35.0
X130.0Y-82.5
X130.0Y-140.0
X130.0Y-145.0
X132.5Y-30.0
X132.5Y-37.5
X132.5Y-130.0
X132.5Y-145.0
X135.0Y-30.0
X135.0Y-32.5
X135.0Y-82.5
X135.0Y-135.0
X135.0Y-140.0
X135.0Y-145.0
X137.5Y-30.0
X137.5Y-130.0
X137.5Y-145.0
X140.0Y-30.0
X140.0Y-82.5
X140.0Y-140.0
X140.0Y-145.0
X142.5Y-30.0
X142.5Y-130.0
X142.5Y-145.0
X145.0Y-30.0
X145.0Y-140.0
X145.0Y-145.0
X147.5Y-30.0
X147.5Y-82.5
X147.5Y-85.0
X147.5Y-87.5
X147.5Y-90.0
X147.5Y-92.5
X147.5Y-95.0
X147.5Y-97.5
X147.5Y-100.0
X147.5Y-102.5
X147.5Y-105.0
X147.5Y-110.0
X147.5Y-130.0
X147.5Y-145.0
X148.25Y-80.5
X150.0Y-30.0
X150.0Y-107.5
X150.0Y-112.5
X150.0Y-140.0
X150.0Y-145.0
X150.4Y-49.25
X152.5Y-30.0
X152.5Y-102.5
X152.5Y-105.0
X152.5Y-110.0
X152.5Y-130.0
X152.5Y-145.0
X154.25Y-49.25
X155.0Y-30.0
X155.0Y-107.5
X155.0Y-112.5
X155.0Y-140.0
X155.0Y-145.0
X157.5Y-30.0
X157.5Y-32.5
X157.5Y-35.0
X157.5Y-90.0
X157.5Y-95.0
X157.5Y-105.0
X157.5Y-110.0
X157.5Y-130.0
X157.5Y-145.0
X160.0Y-30.0
X160.0Y-32.5
X160.0Y-35.0
X160.0Y-90.0
X160.0Y-92.5
X160.0Y-102.5
X160.0Y-112.5
X160.0Y-115.0
X160.0Y-140.0
X160.0Y-145.0
X162.5Y-30.0
X162.5Y-32.5
X162.5Y-105.0
X162.5Y-107.5
X162.5Y-110.0
X162.5Y-130.0
X162.5Y-145.0
X164.0Y-46.0
X165.0Y-105.0
X165.0Y-110.0
X165.0Y-115.0
X165.0Y-130.0
X165.0Y-135.0
X165.0Y-140.0
X165.0Y-145.0
X167.5Y-35.0
X167.5Y-37.5
X167.5Y-40.0
X167.5Y-145.0
X168.0Y-46.0
X170.0Y-35.0
X170.0Y-37.5
X170.0Y-40.0
X170.0Y-115.0
X170.0Y-120.0
X170.0Y-125.0
X170.0Y-130.0
X170.0Y-135.0
X170.0Y-140.0
X170.0Y-145.0
X170.75Y-46.5
X171.689Y-46.15
X172.095Y-45.0
X172.25Y-40.75
X172.5Y-35.0
X172.5Y-37.5
X172.5Y-145.0
X173.318Y-43.067
X173.5Y-89.5
X175.0Y-37.5
X175.0Y-49.0
X175.0Y-51.0
X175.0Y-110.0
X175.0Y-115.0
X175.0Y-120.0
X175.0Y-125.0
X175.0Y-130.0
X175.0Y-135.0
X175.0Y-140.0
X175.0Y-145.0
X175.442Y-78.692
X175.907Y-45.833
X176.0Y-39.0
X176.0Y-87.0
X176.25Y-41.75
X177.0Y-83.75
X177.453Y-40.703
X177.5Y-145.0
X177.75Y-47.25
X177.75Y-82.75
X178.452Y-39.704
X179.0Y-46.0
X179.25Y-53.0
X179.5Y-48.0
X179.5Y-49.5
X180.0Y-30.0
X180.0Y-32.5
X180.0Y-35.0
X180.0Y-38.25
X180.0Y-115.0
X180.0Y-120.0
X180.0Y-125.0
X180.0Y-130.0
X180.0Y-135.0
X180.0Y-140.0
X180.0Y-145.0
X180.75Y-53.0
X181.075Y-43.885
X182.173Y-43.423
X182.5Y-30.0
X182.5Y-32.5
X182.5Y-35.0
X182.5Y-145.0
X183.0Y-45.5
X183.673Y-41.923
X185.0Y-44.5
X185.0Y-120.0
X185.0Y-125.0
X185.0Y-130.0
X185.0Y-135.0
X185.0Y-140.0
X185.0Y-145.0
X186.0Y-41.0
X186.0Y-56.0
X186.252Y-54.495
X187.0Y-47.5
X187.5Y-45.0
X187.5Y-53.75
X187.5Y-145.0
X187.75Y-58.0
X188.0Y-41.0
X188.0Y-56.5
X189.0Y-50.5
X189.5Y-55.5
X189.75Y-39.5
X190.0Y-41.0
X190.0Y-59.5
X190.0Y-125.0
X190.0Y-130.0
X190.0Y-135.0
X190.0Y-140.0
X190.0Y-145.0
X190.445Y-36.918
X190.5Y-48.5
X190.75Y-54.0
X191.0Y-38.25
X191.0Y-40.25
X191.0Y-46.0
X191.513Y-57.737
X192.495Y-45.062
X192.5Y-49.0
X192.5Y-145.0
X193.0Y-50.5
X193.5Y-88.0
X193.75Y-45.0
X193.75Y-57.0
X194.0Y-89.0
X194.5Y-50.75
X194.5Y-53.25
X194.5Y-75.0
X194.987Y-62.888
X195.0Y-35.0
X195.0Y-37.5
X195.0Y-102.5
X195.0Y-130.0
X195.0Y-135.0
X195.0Y-140.0
X195.0Y-145.0
X195.734Y-38.266
X195.75Y-52.0
X196.229Y-47.022
X196.92Y-46.3
X197.0Y-47.75
X197.5Y-35.0
X197.5Y-55.0
X197.5Y-145.0
X198.0Y-38.0
X198.75Y-46.0
X199.75Y-51.0
X200.0Y-37.5
X200.0Y-55.0
X200.0Y-57.5
X200.0Y-61.911
X200.0Y-63.362
X200.0Y-102.5
X200.0Y-130.0
X200.0Y-145.0
X200.1Y-88.25
X200.5Y-39.25
X200.75Y-40.75
X201.0Y-36.0
X201.348Y-80.814
X201.5Y-46.0
X202.0Y-85.25
X202.0Y-87.25
X202.0Y-88.5
X202.0Y-76.5
X202.5Y-55.0
X202.5Y-107.5
X202.5Y-145.0
X202.75Y-41.75
X203.0Y-63.0
X203.0Y-95.75
X203.25Y-80.75
X203.5Y-52.0
X203.75Y-43.0
X204.0Y-86.25
X204.2Y-87.25
X204.5Y-94.5
X204.5Y-96.6
X204.75Y-52.0
X205.0Y-37.5
X205.0Y-58.75
X205.0Y-76.5
X205.0Y-80.0
X205.0Y-102.5
X205.0Y-107.5
X205.0Y-110.0
X205.0Y-145.0
X205.25Y-88.0
X206.0Y-90.5
X207.0Y-48.0
X207.0Y-59.25
X207.5Y-37.5
X207.5Y-45.0
X207.5Y-112.5
X207.5Y-145.0
X207.75Y-38.5
X208.0Y-50.5
X208.5Y-43.25
X208.53Y-96.845
X208.75Y-104.5
X209.0Y-58.0
X209.25Y-40.0
X209.5Y-96.6
X210.0Y-37.5
X210.0Y-47.75
X210.0Y-52.5
X210.0Y-76.5
X210.0Y-80.0
X210.0Y-107.5
X210.0Y-115.0
X210.0Y-135.0
X210.0Y-140.0
X210.0Y-145.0
X210.5Y-45.75
X210.5Y-48.75
X211.0Y-47.0
X211.5Y-59.0
X211.5Y-86.5
X211.75Y-88.75
X212.0Y-50.75
X212.0Y-100.75
X212.5Y-117.5
X212.5Y-145.0
X212.5Y-34.75
X213.0Y-97.25
X213.25Y-46.0
X213.5Y-40.75
X213.5Y-50.0
X214.25Y-36.0
X214.25Y-94.75
X214.4Y-101.481
X214.75Y-90.0
X215.0Y-39.75
X215.0Y-42.5
X215.0Y-76.5
X215.0Y-80.0
X215.0Y-140.0
X215.0Y-145.0
X216.75Y-56.5
X217.5Y-35.0
X217.5Y-37.5
X217.5Y-42.25
X218.0Y-61.0
X218.5Y-95.75
X218.75Y-56.5
X220.0Y-59.5
X220.0Y-76.5
X220.0Y-80.0
X220.0Y-95.0
X220.0Y-110.0
X220.25Y-99.75
X220.5Y-57.0
X220.75Y-51.5
X220.75Y-91.25
X221.0Y-42.75
X221.25Y-89.0
X221.5Y-37.75
X222.0Y-50.0
X222.0Y-51.0
X222.0Y-55.0
X222.0Y-141.5
X222.25Y-43.25
X222.5Y-30.0
X222.5Y-35.0
X222.5Y-40.0
X222.5Y-45.0
X222.5Y-91.0
X223.0Y-56.0
X223.25Y-88.25
X224.0Y-105.25
X224.5Y-49.25
X224.5Y-141.5
X224.75Y-91.5
X225.0Y-30.0
X225.0Y-32.5
X225.0Y-40.0
X225.0Y-60.0
X225.0Y-76.5
X225.0Y-110.0
X225.0Y-115.0
X226.25Y-95.0
X226.25Y-95.0
X226.5Y-141.5
X227.0Y-49.0
X227.0Y-51.0
X227.0Y-53.0
X227.5Y-37.5
X228.0Y-42.5
X228.25Y-99.75
X228.5Y-141.5
X228.75Y-95.0
X229.0Y-51.0
X229.0Y-56.0
X229.2Y-90.75
X229.75Y-94.5
X230.0Y-45.0
X230.0Y-105.0
X230.0Y-110.0
X230.0Y-115.0
X230.0Y-120.0
X230.5Y-141.5
X232.0Y-45.0
X232.2Y-96.25
X232.45Y-91.0
X234.056Y-95.616
X234.7Y-93.37
X235.0Y-30.0
X235.0Y-45.0
X235.0Y-60.0
X235.0Y-75.0
X235.0Y-105.0
X235.0Y-110.0
X235.0Y-115.0
X235.0Y-120.0
X235.0Y-125.0
X236.55Y-92.8
X237.5Y-32.5
X237.5Y-35.0
X237.5Y-40.0
X237.5Y-115.0
X237.5Y-117.5
X237.5Y-120.0
X237.5Y-122.5
X237.5Y-125.0
X237.5Y-127.5
X239.0Y-35.0
X239.0Y-40.0
X239.0Y-45.0
X239.0Y-50.0
X239.0Y-55.0
X239.0Y-60.0
X239.0Y-75.0
X239.0Y-80.0
X239.0Y-85.0
X239.0Y-90.0
X239.0Y-95.0
T2
X200.1Y-137.75
X200.803Y-136.053
X200.803Y-139.447
X202.5Y-135.35
X202.5Y-140.15
X204.197Y-136.053
X204.197Y-139.447
X204.9Y-137.75
X160.797Y-37.697
X161.5Y-36.0
X161.5Y-39.394
X163.197Y-35.297
X163.197Y-40.097
X164.894Y-36.0
X164.894Y-39.394
X165.597Y-37.697
X92.6Y-137.75
X93.303Y-136.053
X93.303Y-139.447
X95.0Y-135.35
X95.0Y-140.15
X96.697Y-136.053
X96.697Y-139.447
X97.4Y-137.75
X86.35Y-34.5
X87.053Y-32.803
X87.053Y-36.197
X88.75Y-32.1
X88.75Y-36.9
X90.447Y-32.803
X90.447Y-36.197
X91.15Y-34.5
T3
X63.7Y-100.25
X63.7Y-101.52
X63.7Y-102.79
X115.1Y-34.25
X116.37Y-34.25
X117.64Y-34.25
X239.25Y-100.16
X239.25Y-101.43
X239.25Y-102.7
T4
X70.75Y-34.25
X70.75Y-36.79
X70.75Y-39.33
X234.25Y-82.7
X234.25Y-85.24
X234.25Y-87.78
X119.75Y-43.55
X213.75Y-82.25
X103.0Y-32.5
X110.62Y-32.5
X196.17Y-93.0
X198.71Y-93.0
X201.25Y-93.0
X105.25Y-52.0
X85.0Y-52.5
X225.5Y-54.25
X70.35Y-84.45
X72.89Y-84.45
X75.43Y-84.45
X120.5Y-35.5
X231.0Y-47.0
X75.25Y-34.75
X116.25Y-38.43
X116.25Y-46.05
X229.25Y-59.75
X210.75Y-54.25
X208.5Y-89.75
X70.35Y-78.25
X72.89Y-78.25
X75.43Y-78.25
X70.75Y-45.17
X70.75Y-47.71
X70.75Y-50.25
X101.25Y-38.5
X196.17Y-99.0
X198.71Y-99.0
X201.25Y-99.0
X99.0Y-48.67
X99.0Y-51.21
X99.0Y-53.75
X228.45Y-82.72
X228.45Y-85.26
X228.45Y-87.8
X110.25Y-52.0
X210.75Y-56.75
X225.0Y-38.0
X165.5Y-106.95
X168.0Y-106.95
T5
X103.6Y-72.6
X103.6Y-100.1
X108.6Y-72.6
X108.6Y-100.1
X113.6Y-72.6
X118.6Y-72.6
X123.6Y-72.6
X123.6Y-100.1
X128.6Y-72.6
X128.6Y-100.1
T6
X152.3Y-33.7
X152.3Y-45.7
X166.55Y-31.75
X169.09Y-31.75
X171.63Y-31.75
X174.17Y-31.75
X176.71Y-31.75
X231.5Y-32.5
X231.5Y-35.04
X231.5Y-37.58
X231.5Y-40.12
X231.5Y-42.66
X234.04Y-32.5
X234.04Y-35.04
X234.04Y-37.58
X234.04Y-40.12
X234.04Y-42.66
X194.5Y-77.38
X194.5Y-79.92
X194.5Y-82.46
X194.5Y-85.0
X184.15Y-31.75
X186.69Y-31.75
X189.23Y-31.75
X191.77Y-31.75
X194.31Y-31.75
X196.85Y-31.75
X199.39Y-31.75
X201.93Y-31.75
X204.47Y-31.75
X207.01Y-31.75
X209.55Y-31.75
X212.09Y-31.75
X214.63Y-31.75
X217.17Y-31.75
X219.71Y-31.75
X222.25Y-31.75
X155.65Y-98.95
X155.65Y-103.95
X239.25Y-106.25
X239.25Y-108.79
X239.25Y-111.33
X155.65Y-86.7
X155.65Y-91.7
X63.75Y-106.17
X63.75Y-108.71
X63.75Y-111.25
T7
X232.0Y-50.5
X232.0Y-57.0
X236.5Y-50.5
X236.5Y-57.0
X167.15Y-81.1
X167.15Y-83.64
X167.15Y-86.18
X152.25Y-79.45
X159.87Y-79.45
X65.0Y-133.67
X65.0Y-136.21
X65.0Y-138.75
X152.38Y-70.7
X160.0Y-70.7
X238.0Y-64.2
X238.0Y-66.74
X238.0Y-69.28
X152.38Y-75.2
X160.0Y-75.2
X238.0Y-133.7
X238.0Y-136.24
X238.0Y-138.78
X64.75Y-64.17
X64.75Y-66.71
X64.75Y-69.25
X152.25Y-66.2
X159.87Y-66.2
T8
X126.0Y-46.0
X131.08Y-46.0
X76.42Y-145.7
X81.5Y-145.7
X126.0Y-40.0
X131.08Y-40.0
X66.55Y-145.7
X71.63Y-145.7
X140.05Y-45.75
X140.1Y-33.7
X154.25Y-39.75
X218.8Y-144.65
X223.88Y-144.65
X228.67Y-144.6
X233.75Y-144.6
X95.55Y-119.7
X118.05Y-119.7
T9
X129.25Y-115.74
X129.25Y-123.66
T10
X171.5Y-70.935
X171.5Y-96.335
T11
X202.5Y-137.75
X163.197Y-37.697
X95.0Y-137.75
X88.75Y-34.5
T12
X106.8Y-119.7
T0
M30
