G04 #@! TF.GenerationSoftware,KiCad,Pcbnew,(5.1.5)-3*
G04 #@! TF.CreationDate,2020-04-01T20:44:12+02:00*
G04 #@! TF.ProjectId,electro-load,656c6563-7472-46f2-9d6c-6f61642e6b69,rev?*
G04 #@! TF.SameCoordinates,Original*
G04 #@! TF.FileFunction,Paste,Top*
G04 #@! TF.FilePolarity,Positive*
%FSLAX46Y46*%
G04 Gerber Fmt 4.6, Leading zero omitted, Abs format (unit mm)*
G04 Created by KiCad (PCBNEW (5.1.5)-3) date 2020-04-01 20:44:12*
%MOMM*%
%LPD*%
G04 APERTURE LIST*
%ADD10C,0.100000*%
%ADD11R,0.650000X1.060000*%
%ADD12R,1.000000X0.550000*%
G04 APERTURE END LIST*
D10*
G36*
X62481572Y-60217305D02*
G01*
X62496133Y-60219465D01*
X62510412Y-60223042D01*
X62524272Y-60228001D01*
X62537579Y-60234295D01*
X62550205Y-60241863D01*
X62562028Y-60250631D01*
X62572935Y-60260517D01*
X63739661Y-61427243D01*
X63749547Y-61438150D01*
X63758315Y-61449973D01*
X63765883Y-61462599D01*
X63772177Y-61475906D01*
X63777136Y-61489766D01*
X63780713Y-61504045D01*
X63782873Y-61518606D01*
X63783595Y-61533309D01*
X63782873Y-61548012D01*
X63780713Y-61562573D01*
X63777136Y-61576852D01*
X63772177Y-61590712D01*
X63765883Y-61604019D01*
X63758315Y-61616645D01*
X63749547Y-61628468D01*
X63739661Y-61639375D01*
X63527529Y-61851507D01*
X63516622Y-61861393D01*
X63504799Y-61870161D01*
X63492173Y-61877729D01*
X63478866Y-61884023D01*
X63465006Y-61888982D01*
X63450727Y-61892559D01*
X63436166Y-61894719D01*
X63421463Y-61895441D01*
X63406760Y-61894719D01*
X63392199Y-61892559D01*
X63377920Y-61888982D01*
X63364060Y-61884023D01*
X63350753Y-61877729D01*
X63338127Y-61870161D01*
X63326304Y-61861393D01*
X63315397Y-61851507D01*
X62148671Y-60684781D01*
X62138785Y-60673874D01*
X62130017Y-60662051D01*
X62122449Y-60649425D01*
X62116155Y-60636118D01*
X62111196Y-60622258D01*
X62107619Y-60607979D01*
X62105459Y-60593418D01*
X62104737Y-60578715D01*
X62105459Y-60564012D01*
X62107619Y-60549451D01*
X62111196Y-60535172D01*
X62116155Y-60521312D01*
X62122449Y-60508005D01*
X62130017Y-60495379D01*
X62138785Y-60483556D01*
X62148671Y-60472649D01*
X62360803Y-60260517D01*
X62371710Y-60250631D01*
X62383533Y-60241863D01*
X62396159Y-60234295D01*
X62409466Y-60228001D01*
X62423326Y-60223042D01*
X62437605Y-60219465D01*
X62452166Y-60217305D01*
X62466869Y-60216583D01*
X62481572Y-60217305D01*
G37*
G36*
X61583547Y-61115331D02*
G01*
X61598108Y-61117491D01*
X61612387Y-61121068D01*
X61626247Y-61126027D01*
X61639554Y-61132321D01*
X61652180Y-61139889D01*
X61664003Y-61148657D01*
X61674910Y-61158543D01*
X62841636Y-62325269D01*
X62851522Y-62336176D01*
X62860290Y-62347999D01*
X62867858Y-62360625D01*
X62874152Y-62373932D01*
X62879111Y-62387792D01*
X62882688Y-62402071D01*
X62884848Y-62416632D01*
X62885570Y-62431335D01*
X62884848Y-62446038D01*
X62882688Y-62460599D01*
X62879111Y-62474878D01*
X62874152Y-62488738D01*
X62867858Y-62502045D01*
X62860290Y-62514671D01*
X62851522Y-62526494D01*
X62841636Y-62537401D01*
X62629504Y-62749533D01*
X62618597Y-62759419D01*
X62606774Y-62768187D01*
X62594148Y-62775755D01*
X62580841Y-62782049D01*
X62566981Y-62787008D01*
X62552702Y-62790585D01*
X62538141Y-62792745D01*
X62523438Y-62793467D01*
X62508735Y-62792745D01*
X62494174Y-62790585D01*
X62479895Y-62787008D01*
X62466035Y-62782049D01*
X62452728Y-62775755D01*
X62440102Y-62768187D01*
X62428279Y-62759419D01*
X62417372Y-62749533D01*
X61250646Y-61582807D01*
X61240760Y-61571900D01*
X61231992Y-61560077D01*
X61224424Y-61547451D01*
X61218130Y-61534144D01*
X61213171Y-61520284D01*
X61209594Y-61506005D01*
X61207434Y-61491444D01*
X61206712Y-61476741D01*
X61207434Y-61462038D01*
X61209594Y-61447477D01*
X61213171Y-61433198D01*
X61218130Y-61419338D01*
X61224424Y-61406031D01*
X61231992Y-61393405D01*
X61240760Y-61381582D01*
X61250646Y-61370675D01*
X61462778Y-61158543D01*
X61473685Y-61148657D01*
X61485508Y-61139889D01*
X61498134Y-61132321D01*
X61511441Y-61126027D01*
X61525301Y-61121068D01*
X61539580Y-61117491D01*
X61554141Y-61115331D01*
X61568844Y-61114609D01*
X61583547Y-61115331D01*
G37*
G36*
X60685521Y-62013357D02*
G01*
X60700082Y-62015517D01*
X60714361Y-62019094D01*
X60728221Y-62024053D01*
X60741528Y-62030347D01*
X60754154Y-62037915D01*
X60765977Y-62046683D01*
X60776884Y-62056569D01*
X61943610Y-63223295D01*
X61953496Y-63234202D01*
X61962264Y-63246025D01*
X61969832Y-63258651D01*
X61976126Y-63271958D01*
X61981085Y-63285818D01*
X61984662Y-63300097D01*
X61986822Y-63314658D01*
X61987544Y-63329361D01*
X61986822Y-63344064D01*
X61984662Y-63358625D01*
X61981085Y-63372904D01*
X61976126Y-63386764D01*
X61969832Y-63400071D01*
X61962264Y-63412697D01*
X61953496Y-63424520D01*
X61943610Y-63435427D01*
X61731478Y-63647559D01*
X61720571Y-63657445D01*
X61708748Y-63666213D01*
X61696122Y-63673781D01*
X61682815Y-63680075D01*
X61668955Y-63685034D01*
X61654676Y-63688611D01*
X61640115Y-63690771D01*
X61625412Y-63691493D01*
X61610709Y-63690771D01*
X61596148Y-63688611D01*
X61581869Y-63685034D01*
X61568009Y-63680075D01*
X61554702Y-63673781D01*
X61542076Y-63666213D01*
X61530253Y-63657445D01*
X61519346Y-63647559D01*
X60352620Y-62480833D01*
X60342734Y-62469926D01*
X60333966Y-62458103D01*
X60326398Y-62445477D01*
X60320104Y-62432170D01*
X60315145Y-62418310D01*
X60311568Y-62404031D01*
X60309408Y-62389470D01*
X60308686Y-62374767D01*
X60309408Y-62360064D01*
X60311568Y-62345503D01*
X60315145Y-62331224D01*
X60320104Y-62317364D01*
X60326398Y-62304057D01*
X60333966Y-62291431D01*
X60342734Y-62279608D01*
X60352620Y-62268701D01*
X60564752Y-62056569D01*
X60575659Y-62046683D01*
X60587482Y-62037915D01*
X60600108Y-62030347D01*
X60613415Y-62024053D01*
X60627275Y-62019094D01*
X60641554Y-62015517D01*
X60656115Y-62013357D01*
X60670818Y-62012635D01*
X60685521Y-62013357D01*
G37*
G36*
X59787495Y-62911382D02*
G01*
X59802056Y-62913542D01*
X59816335Y-62917119D01*
X59830195Y-62922078D01*
X59843502Y-62928372D01*
X59856128Y-62935940D01*
X59867951Y-62944708D01*
X59878858Y-62954594D01*
X61045584Y-64121320D01*
X61055470Y-64132227D01*
X61064238Y-64144050D01*
X61071806Y-64156676D01*
X61078100Y-64169983D01*
X61083059Y-64183843D01*
X61086636Y-64198122D01*
X61088796Y-64212683D01*
X61089518Y-64227386D01*
X61088796Y-64242089D01*
X61086636Y-64256650D01*
X61083059Y-64270929D01*
X61078100Y-64284789D01*
X61071806Y-64298096D01*
X61064238Y-64310722D01*
X61055470Y-64322545D01*
X61045584Y-64333452D01*
X60833452Y-64545584D01*
X60822545Y-64555470D01*
X60810722Y-64564238D01*
X60798096Y-64571806D01*
X60784789Y-64578100D01*
X60770929Y-64583059D01*
X60756650Y-64586636D01*
X60742089Y-64588796D01*
X60727386Y-64589518D01*
X60712683Y-64588796D01*
X60698122Y-64586636D01*
X60683843Y-64583059D01*
X60669983Y-64578100D01*
X60656676Y-64571806D01*
X60644050Y-64564238D01*
X60632227Y-64555470D01*
X60621320Y-64545584D01*
X59454594Y-63378858D01*
X59444708Y-63367951D01*
X59435940Y-63356128D01*
X59428372Y-63343502D01*
X59422078Y-63330195D01*
X59417119Y-63316335D01*
X59413542Y-63302056D01*
X59411382Y-63287495D01*
X59410660Y-63272792D01*
X59411382Y-63258089D01*
X59413542Y-63243528D01*
X59417119Y-63229249D01*
X59422078Y-63215389D01*
X59428372Y-63202082D01*
X59435940Y-63189456D01*
X59444708Y-63177633D01*
X59454594Y-63166726D01*
X59666726Y-62954594D01*
X59677633Y-62944708D01*
X59689456Y-62935940D01*
X59702082Y-62928372D01*
X59715389Y-62922078D01*
X59729249Y-62917119D01*
X59743528Y-62913542D01*
X59758089Y-62911382D01*
X59772792Y-62910660D01*
X59787495Y-62911382D01*
G37*
G36*
X58889470Y-63809408D02*
G01*
X58904031Y-63811568D01*
X58918310Y-63815145D01*
X58932170Y-63820104D01*
X58945477Y-63826398D01*
X58958103Y-63833966D01*
X58969926Y-63842734D01*
X58980833Y-63852620D01*
X60147559Y-65019346D01*
X60157445Y-65030253D01*
X60166213Y-65042076D01*
X60173781Y-65054702D01*
X60180075Y-65068009D01*
X60185034Y-65081869D01*
X60188611Y-65096148D01*
X60190771Y-65110709D01*
X60191493Y-65125412D01*
X60190771Y-65140115D01*
X60188611Y-65154676D01*
X60185034Y-65168955D01*
X60180075Y-65182815D01*
X60173781Y-65196122D01*
X60166213Y-65208748D01*
X60157445Y-65220571D01*
X60147559Y-65231478D01*
X59935427Y-65443610D01*
X59924520Y-65453496D01*
X59912697Y-65462264D01*
X59900071Y-65469832D01*
X59886764Y-65476126D01*
X59872904Y-65481085D01*
X59858625Y-65484662D01*
X59844064Y-65486822D01*
X59829361Y-65487544D01*
X59814658Y-65486822D01*
X59800097Y-65484662D01*
X59785818Y-65481085D01*
X59771958Y-65476126D01*
X59758651Y-65469832D01*
X59746025Y-65462264D01*
X59734202Y-65453496D01*
X59723295Y-65443610D01*
X58556569Y-64276884D01*
X58546683Y-64265977D01*
X58537915Y-64254154D01*
X58530347Y-64241528D01*
X58524053Y-64228221D01*
X58519094Y-64214361D01*
X58515517Y-64200082D01*
X58513357Y-64185521D01*
X58512635Y-64170818D01*
X58513357Y-64156115D01*
X58515517Y-64141554D01*
X58519094Y-64127275D01*
X58524053Y-64113415D01*
X58530347Y-64100108D01*
X58537915Y-64087482D01*
X58546683Y-64075659D01*
X58556569Y-64064752D01*
X58768701Y-63852620D01*
X58779608Y-63842734D01*
X58791431Y-63833966D01*
X58804057Y-63826398D01*
X58817364Y-63820104D01*
X58831224Y-63815145D01*
X58845503Y-63811568D01*
X58860064Y-63809408D01*
X58874767Y-63808686D01*
X58889470Y-63809408D01*
G37*
G36*
X57991444Y-64707434D02*
G01*
X58006005Y-64709594D01*
X58020284Y-64713171D01*
X58034144Y-64718130D01*
X58047451Y-64724424D01*
X58060077Y-64731992D01*
X58071900Y-64740760D01*
X58082807Y-64750646D01*
X59249533Y-65917372D01*
X59259419Y-65928279D01*
X59268187Y-65940102D01*
X59275755Y-65952728D01*
X59282049Y-65966035D01*
X59287008Y-65979895D01*
X59290585Y-65994174D01*
X59292745Y-66008735D01*
X59293467Y-66023438D01*
X59292745Y-66038141D01*
X59290585Y-66052702D01*
X59287008Y-66066981D01*
X59282049Y-66080841D01*
X59275755Y-66094148D01*
X59268187Y-66106774D01*
X59259419Y-66118597D01*
X59249533Y-66129504D01*
X59037401Y-66341636D01*
X59026494Y-66351522D01*
X59014671Y-66360290D01*
X59002045Y-66367858D01*
X58988738Y-66374152D01*
X58974878Y-66379111D01*
X58960599Y-66382688D01*
X58946038Y-66384848D01*
X58931335Y-66385570D01*
X58916632Y-66384848D01*
X58902071Y-66382688D01*
X58887792Y-66379111D01*
X58873932Y-66374152D01*
X58860625Y-66367858D01*
X58847999Y-66360290D01*
X58836176Y-66351522D01*
X58825269Y-66341636D01*
X57658543Y-65174910D01*
X57648657Y-65164003D01*
X57639889Y-65152180D01*
X57632321Y-65139554D01*
X57626027Y-65126247D01*
X57621068Y-65112387D01*
X57617491Y-65098108D01*
X57615331Y-65083547D01*
X57614609Y-65068844D01*
X57615331Y-65054141D01*
X57617491Y-65039580D01*
X57621068Y-65025301D01*
X57626027Y-65011441D01*
X57632321Y-64998134D01*
X57639889Y-64985508D01*
X57648657Y-64973685D01*
X57658543Y-64962778D01*
X57870675Y-64750646D01*
X57881582Y-64740760D01*
X57893405Y-64731992D01*
X57906031Y-64724424D01*
X57919338Y-64718130D01*
X57933198Y-64713171D01*
X57947477Y-64709594D01*
X57962038Y-64707434D01*
X57976741Y-64706712D01*
X57991444Y-64707434D01*
G37*
G36*
X57093418Y-65605459D02*
G01*
X57107979Y-65607619D01*
X57122258Y-65611196D01*
X57136118Y-65616155D01*
X57149425Y-65622449D01*
X57162051Y-65630017D01*
X57173874Y-65638785D01*
X57184781Y-65648671D01*
X58351507Y-66815397D01*
X58361393Y-66826304D01*
X58370161Y-66838127D01*
X58377729Y-66850753D01*
X58384023Y-66864060D01*
X58388982Y-66877920D01*
X58392559Y-66892199D01*
X58394719Y-66906760D01*
X58395441Y-66921463D01*
X58394719Y-66936166D01*
X58392559Y-66950727D01*
X58388982Y-66965006D01*
X58384023Y-66978866D01*
X58377729Y-66992173D01*
X58370161Y-67004799D01*
X58361393Y-67016622D01*
X58351507Y-67027529D01*
X58139375Y-67239661D01*
X58128468Y-67249547D01*
X58116645Y-67258315D01*
X58104019Y-67265883D01*
X58090712Y-67272177D01*
X58076852Y-67277136D01*
X58062573Y-67280713D01*
X58048012Y-67282873D01*
X58033309Y-67283595D01*
X58018606Y-67282873D01*
X58004045Y-67280713D01*
X57989766Y-67277136D01*
X57975906Y-67272177D01*
X57962599Y-67265883D01*
X57949973Y-67258315D01*
X57938150Y-67249547D01*
X57927243Y-67239661D01*
X56760517Y-66072935D01*
X56750631Y-66062028D01*
X56741863Y-66050205D01*
X56734295Y-66037579D01*
X56728001Y-66024272D01*
X56723042Y-66010412D01*
X56719465Y-65996133D01*
X56717305Y-65981572D01*
X56716583Y-65966869D01*
X56717305Y-65952166D01*
X56719465Y-65937605D01*
X56723042Y-65923326D01*
X56728001Y-65909466D01*
X56734295Y-65896159D01*
X56741863Y-65883533D01*
X56750631Y-65871710D01*
X56760517Y-65860803D01*
X56972649Y-65648671D01*
X56983556Y-65638785D01*
X56995379Y-65630017D01*
X57008005Y-65622449D01*
X57021312Y-65616155D01*
X57035172Y-65611196D01*
X57049451Y-65607619D01*
X57064012Y-65605459D01*
X57078715Y-65604737D01*
X57093418Y-65605459D01*
G37*
G36*
X53593240Y-62105281D02*
G01*
X53607801Y-62107441D01*
X53622080Y-62111018D01*
X53635940Y-62115977D01*
X53649247Y-62122271D01*
X53661873Y-62129839D01*
X53673696Y-62138607D01*
X53684603Y-62148493D01*
X54851329Y-63315219D01*
X54861215Y-63326126D01*
X54869983Y-63337949D01*
X54877551Y-63350575D01*
X54883845Y-63363882D01*
X54888804Y-63377742D01*
X54892381Y-63392021D01*
X54894541Y-63406582D01*
X54895263Y-63421285D01*
X54894541Y-63435988D01*
X54892381Y-63450549D01*
X54888804Y-63464828D01*
X54883845Y-63478688D01*
X54877551Y-63491995D01*
X54869983Y-63504621D01*
X54861215Y-63516444D01*
X54851329Y-63527351D01*
X54639197Y-63739483D01*
X54628290Y-63749369D01*
X54616467Y-63758137D01*
X54603841Y-63765705D01*
X54590534Y-63771999D01*
X54576674Y-63776958D01*
X54562395Y-63780535D01*
X54547834Y-63782695D01*
X54533131Y-63783417D01*
X54518428Y-63782695D01*
X54503867Y-63780535D01*
X54489588Y-63776958D01*
X54475728Y-63771999D01*
X54462421Y-63765705D01*
X54449795Y-63758137D01*
X54437972Y-63749369D01*
X54427065Y-63739483D01*
X53260339Y-62572757D01*
X53250453Y-62561850D01*
X53241685Y-62550027D01*
X53234117Y-62537401D01*
X53227823Y-62524094D01*
X53222864Y-62510234D01*
X53219287Y-62495955D01*
X53217127Y-62481394D01*
X53216405Y-62466691D01*
X53217127Y-62451988D01*
X53219287Y-62437427D01*
X53222864Y-62423148D01*
X53227823Y-62409288D01*
X53234117Y-62395981D01*
X53241685Y-62383355D01*
X53250453Y-62371532D01*
X53260339Y-62360625D01*
X53472471Y-62148493D01*
X53483378Y-62138607D01*
X53495201Y-62129839D01*
X53507827Y-62122271D01*
X53521134Y-62115977D01*
X53534994Y-62111018D01*
X53549273Y-62107441D01*
X53563834Y-62105281D01*
X53578537Y-62104559D01*
X53593240Y-62105281D01*
G37*
G36*
X54491265Y-61207255D02*
G01*
X54505826Y-61209415D01*
X54520105Y-61212992D01*
X54533965Y-61217951D01*
X54547272Y-61224245D01*
X54559898Y-61231813D01*
X54571721Y-61240581D01*
X54582628Y-61250467D01*
X55749354Y-62417193D01*
X55759240Y-62428100D01*
X55768008Y-62439923D01*
X55775576Y-62452549D01*
X55781870Y-62465856D01*
X55786829Y-62479716D01*
X55790406Y-62493995D01*
X55792566Y-62508556D01*
X55793288Y-62523259D01*
X55792566Y-62537962D01*
X55790406Y-62552523D01*
X55786829Y-62566802D01*
X55781870Y-62580662D01*
X55775576Y-62593969D01*
X55768008Y-62606595D01*
X55759240Y-62618418D01*
X55749354Y-62629325D01*
X55537222Y-62841457D01*
X55526315Y-62851343D01*
X55514492Y-62860111D01*
X55501866Y-62867679D01*
X55488559Y-62873973D01*
X55474699Y-62878932D01*
X55460420Y-62882509D01*
X55445859Y-62884669D01*
X55431156Y-62885391D01*
X55416453Y-62884669D01*
X55401892Y-62882509D01*
X55387613Y-62878932D01*
X55373753Y-62873973D01*
X55360446Y-62867679D01*
X55347820Y-62860111D01*
X55335997Y-62851343D01*
X55325090Y-62841457D01*
X54158364Y-61674731D01*
X54148478Y-61663824D01*
X54139710Y-61652001D01*
X54132142Y-61639375D01*
X54125848Y-61626068D01*
X54120889Y-61612208D01*
X54117312Y-61597929D01*
X54115152Y-61583368D01*
X54114430Y-61568665D01*
X54115152Y-61553962D01*
X54117312Y-61539401D01*
X54120889Y-61525122D01*
X54125848Y-61511262D01*
X54132142Y-61497955D01*
X54139710Y-61485329D01*
X54148478Y-61473506D01*
X54158364Y-61462599D01*
X54370496Y-61250467D01*
X54381403Y-61240581D01*
X54393226Y-61231813D01*
X54405852Y-61224245D01*
X54419159Y-61217951D01*
X54433019Y-61212992D01*
X54447298Y-61209415D01*
X54461859Y-61207255D01*
X54476562Y-61206533D01*
X54491265Y-61207255D01*
G37*
G36*
X55389291Y-60309229D02*
G01*
X55403852Y-60311389D01*
X55418131Y-60314966D01*
X55431991Y-60319925D01*
X55445298Y-60326219D01*
X55457924Y-60333787D01*
X55469747Y-60342555D01*
X55480654Y-60352441D01*
X56647380Y-61519167D01*
X56657266Y-61530074D01*
X56666034Y-61541897D01*
X56673602Y-61554523D01*
X56679896Y-61567830D01*
X56684855Y-61581690D01*
X56688432Y-61595969D01*
X56690592Y-61610530D01*
X56691314Y-61625233D01*
X56690592Y-61639936D01*
X56688432Y-61654497D01*
X56684855Y-61668776D01*
X56679896Y-61682636D01*
X56673602Y-61695943D01*
X56666034Y-61708569D01*
X56657266Y-61720392D01*
X56647380Y-61731299D01*
X56435248Y-61943431D01*
X56424341Y-61953317D01*
X56412518Y-61962085D01*
X56399892Y-61969653D01*
X56386585Y-61975947D01*
X56372725Y-61980906D01*
X56358446Y-61984483D01*
X56343885Y-61986643D01*
X56329182Y-61987365D01*
X56314479Y-61986643D01*
X56299918Y-61984483D01*
X56285639Y-61980906D01*
X56271779Y-61975947D01*
X56258472Y-61969653D01*
X56245846Y-61962085D01*
X56234023Y-61953317D01*
X56223116Y-61943431D01*
X55056390Y-60776705D01*
X55046504Y-60765798D01*
X55037736Y-60753975D01*
X55030168Y-60741349D01*
X55023874Y-60728042D01*
X55018915Y-60714182D01*
X55015338Y-60699903D01*
X55013178Y-60685342D01*
X55012456Y-60670639D01*
X55013178Y-60655936D01*
X55015338Y-60641375D01*
X55018915Y-60627096D01*
X55023874Y-60613236D01*
X55030168Y-60599929D01*
X55037736Y-60587303D01*
X55046504Y-60575480D01*
X55056390Y-60564573D01*
X55268522Y-60352441D01*
X55279429Y-60342555D01*
X55291252Y-60333787D01*
X55303878Y-60326219D01*
X55317185Y-60319925D01*
X55331045Y-60314966D01*
X55345324Y-60311389D01*
X55359885Y-60309229D01*
X55374588Y-60308507D01*
X55389291Y-60309229D01*
G37*
G36*
X56287317Y-59411204D02*
G01*
X56301878Y-59413364D01*
X56316157Y-59416941D01*
X56330017Y-59421900D01*
X56343324Y-59428194D01*
X56355950Y-59435762D01*
X56367773Y-59444530D01*
X56378680Y-59454416D01*
X57545406Y-60621142D01*
X57555292Y-60632049D01*
X57564060Y-60643872D01*
X57571628Y-60656498D01*
X57577922Y-60669805D01*
X57582881Y-60683665D01*
X57586458Y-60697944D01*
X57588618Y-60712505D01*
X57589340Y-60727208D01*
X57588618Y-60741911D01*
X57586458Y-60756472D01*
X57582881Y-60770751D01*
X57577922Y-60784611D01*
X57571628Y-60797918D01*
X57564060Y-60810544D01*
X57555292Y-60822367D01*
X57545406Y-60833274D01*
X57333274Y-61045406D01*
X57322367Y-61055292D01*
X57310544Y-61064060D01*
X57297918Y-61071628D01*
X57284611Y-61077922D01*
X57270751Y-61082881D01*
X57256472Y-61086458D01*
X57241911Y-61088618D01*
X57227208Y-61089340D01*
X57212505Y-61088618D01*
X57197944Y-61086458D01*
X57183665Y-61082881D01*
X57169805Y-61077922D01*
X57156498Y-61071628D01*
X57143872Y-61064060D01*
X57132049Y-61055292D01*
X57121142Y-61045406D01*
X55954416Y-59878680D01*
X55944530Y-59867773D01*
X55935762Y-59855950D01*
X55928194Y-59843324D01*
X55921900Y-59830017D01*
X55916941Y-59816157D01*
X55913364Y-59801878D01*
X55911204Y-59787317D01*
X55910482Y-59772614D01*
X55911204Y-59757911D01*
X55913364Y-59743350D01*
X55916941Y-59729071D01*
X55921900Y-59715211D01*
X55928194Y-59701904D01*
X55935762Y-59689278D01*
X55944530Y-59677455D01*
X55954416Y-59666548D01*
X56166548Y-59454416D01*
X56177455Y-59444530D01*
X56189278Y-59435762D01*
X56201904Y-59428194D01*
X56215211Y-59421900D01*
X56229071Y-59416941D01*
X56243350Y-59413364D01*
X56257911Y-59411204D01*
X56272614Y-59410482D01*
X56287317Y-59411204D01*
G37*
G36*
X57185342Y-58513178D02*
G01*
X57199903Y-58515338D01*
X57214182Y-58518915D01*
X57228042Y-58523874D01*
X57241349Y-58530168D01*
X57253975Y-58537736D01*
X57265798Y-58546504D01*
X57276705Y-58556390D01*
X58443431Y-59723116D01*
X58453317Y-59734023D01*
X58462085Y-59745846D01*
X58469653Y-59758472D01*
X58475947Y-59771779D01*
X58480906Y-59785639D01*
X58484483Y-59799918D01*
X58486643Y-59814479D01*
X58487365Y-59829182D01*
X58486643Y-59843885D01*
X58484483Y-59858446D01*
X58480906Y-59872725D01*
X58475947Y-59886585D01*
X58469653Y-59899892D01*
X58462085Y-59912518D01*
X58453317Y-59924341D01*
X58443431Y-59935248D01*
X58231299Y-60147380D01*
X58220392Y-60157266D01*
X58208569Y-60166034D01*
X58195943Y-60173602D01*
X58182636Y-60179896D01*
X58168776Y-60184855D01*
X58154497Y-60188432D01*
X58139936Y-60190592D01*
X58125233Y-60191314D01*
X58110530Y-60190592D01*
X58095969Y-60188432D01*
X58081690Y-60184855D01*
X58067830Y-60179896D01*
X58054523Y-60173602D01*
X58041897Y-60166034D01*
X58030074Y-60157266D01*
X58019167Y-60147380D01*
X56852441Y-58980654D01*
X56842555Y-58969747D01*
X56833787Y-58957924D01*
X56826219Y-58945298D01*
X56819925Y-58931991D01*
X56814966Y-58918131D01*
X56811389Y-58903852D01*
X56809229Y-58889291D01*
X56808507Y-58874588D01*
X56809229Y-58859885D01*
X56811389Y-58845324D01*
X56814966Y-58831045D01*
X56819925Y-58817185D01*
X56826219Y-58803878D01*
X56833787Y-58791252D01*
X56842555Y-58779429D01*
X56852441Y-58768522D01*
X57064573Y-58556390D01*
X57075480Y-58546504D01*
X57087303Y-58537736D01*
X57099929Y-58530168D01*
X57113236Y-58523874D01*
X57127096Y-58518915D01*
X57141375Y-58515338D01*
X57155936Y-58513178D01*
X57170639Y-58512456D01*
X57185342Y-58513178D01*
G37*
G36*
X58083368Y-57615152D02*
G01*
X58097929Y-57617312D01*
X58112208Y-57620889D01*
X58126068Y-57625848D01*
X58139375Y-57632142D01*
X58152001Y-57639710D01*
X58163824Y-57648478D01*
X58174731Y-57658364D01*
X59341457Y-58825090D01*
X59351343Y-58835997D01*
X59360111Y-58847820D01*
X59367679Y-58860446D01*
X59373973Y-58873753D01*
X59378932Y-58887613D01*
X59382509Y-58901892D01*
X59384669Y-58916453D01*
X59385391Y-58931156D01*
X59384669Y-58945859D01*
X59382509Y-58960420D01*
X59378932Y-58974699D01*
X59373973Y-58988559D01*
X59367679Y-59001866D01*
X59360111Y-59014492D01*
X59351343Y-59026315D01*
X59341457Y-59037222D01*
X59129325Y-59249354D01*
X59118418Y-59259240D01*
X59106595Y-59268008D01*
X59093969Y-59275576D01*
X59080662Y-59281870D01*
X59066802Y-59286829D01*
X59052523Y-59290406D01*
X59037962Y-59292566D01*
X59023259Y-59293288D01*
X59008556Y-59292566D01*
X58993995Y-59290406D01*
X58979716Y-59286829D01*
X58965856Y-59281870D01*
X58952549Y-59275576D01*
X58939923Y-59268008D01*
X58928100Y-59259240D01*
X58917193Y-59249354D01*
X57750467Y-58082628D01*
X57740581Y-58071721D01*
X57731813Y-58059898D01*
X57724245Y-58047272D01*
X57717951Y-58033965D01*
X57712992Y-58020105D01*
X57709415Y-58005826D01*
X57707255Y-57991265D01*
X57706533Y-57976562D01*
X57707255Y-57961859D01*
X57709415Y-57947298D01*
X57712992Y-57933019D01*
X57717951Y-57919159D01*
X57724245Y-57905852D01*
X57731813Y-57893226D01*
X57740581Y-57881403D01*
X57750467Y-57870496D01*
X57962599Y-57658364D01*
X57973506Y-57648478D01*
X57985329Y-57639710D01*
X57997955Y-57632142D01*
X58011262Y-57625848D01*
X58025122Y-57620889D01*
X58039401Y-57617312D01*
X58053962Y-57615152D01*
X58068665Y-57614430D01*
X58083368Y-57615152D01*
G37*
G36*
X58981394Y-56717127D02*
G01*
X58995955Y-56719287D01*
X59010234Y-56722864D01*
X59024094Y-56727823D01*
X59037401Y-56734117D01*
X59050027Y-56741685D01*
X59061850Y-56750453D01*
X59072757Y-56760339D01*
X60239483Y-57927065D01*
X60249369Y-57937972D01*
X60258137Y-57949795D01*
X60265705Y-57962421D01*
X60271999Y-57975728D01*
X60276958Y-57989588D01*
X60280535Y-58003867D01*
X60282695Y-58018428D01*
X60283417Y-58033131D01*
X60282695Y-58047834D01*
X60280535Y-58062395D01*
X60276958Y-58076674D01*
X60271999Y-58090534D01*
X60265705Y-58103841D01*
X60258137Y-58116467D01*
X60249369Y-58128290D01*
X60239483Y-58139197D01*
X60027351Y-58351329D01*
X60016444Y-58361215D01*
X60004621Y-58369983D01*
X59991995Y-58377551D01*
X59978688Y-58383845D01*
X59964828Y-58388804D01*
X59950549Y-58392381D01*
X59935988Y-58394541D01*
X59921285Y-58395263D01*
X59906582Y-58394541D01*
X59892021Y-58392381D01*
X59877742Y-58388804D01*
X59863882Y-58383845D01*
X59850575Y-58377551D01*
X59837949Y-58369983D01*
X59826126Y-58361215D01*
X59815219Y-58351329D01*
X58648493Y-57184603D01*
X58638607Y-57173696D01*
X58629839Y-57161873D01*
X58622271Y-57149247D01*
X58615977Y-57135940D01*
X58611018Y-57122080D01*
X58607441Y-57107801D01*
X58605281Y-57093240D01*
X58604559Y-57078537D01*
X58605281Y-57063834D01*
X58607441Y-57049273D01*
X58611018Y-57034994D01*
X58615977Y-57021134D01*
X58622271Y-57007827D01*
X58629839Y-56995201D01*
X58638607Y-56983378D01*
X58648493Y-56972471D01*
X58860625Y-56760339D01*
X58871532Y-56750453D01*
X58883355Y-56741685D01*
X58895981Y-56734117D01*
X58909288Y-56727823D01*
X58923148Y-56722864D01*
X58937427Y-56719287D01*
X58951988Y-56717127D01*
X58966691Y-56716405D01*
X58981394Y-56717127D01*
G37*
D11*
X75450000Y-62850000D03*
X73550000Y-62850000D03*
X73550000Y-60650000D03*
X74500000Y-60650000D03*
X75450000Y-60650000D03*
X75450000Y-57100000D03*
X73550000Y-57100000D03*
X73550000Y-54900000D03*
X74500000Y-54900000D03*
X75450000Y-54900000D03*
D12*
X55400000Y-78200000D03*
X55400000Y-77250000D03*
X55400000Y-76300000D03*
X58100000Y-78200000D03*
X58100000Y-77250000D03*
X58100000Y-76300000D03*
D10*
G36*
X113025037Y-80845926D02*
G01*
X112636128Y-81234835D01*
X111504757Y-80103464D01*
X111893666Y-79714555D01*
X113025037Y-80845926D01*
G37*
G36*
X113590723Y-80280241D02*
G01*
X113201814Y-80669150D01*
X112070443Y-79537779D01*
X112459352Y-79148870D01*
X113590723Y-80280241D01*
G37*
G36*
X114156408Y-79714555D02*
G01*
X113767499Y-80103464D01*
X112636128Y-78972093D01*
X113025037Y-78583184D01*
X114156408Y-79714555D01*
G37*
G36*
X114722093Y-79148870D02*
G01*
X114333184Y-79537779D01*
X113201813Y-78406408D01*
X113590722Y-78017499D01*
X114722093Y-79148870D01*
G37*
G36*
X115287779Y-78583184D02*
G01*
X114898870Y-78972093D01*
X113767499Y-77840722D01*
X114156408Y-77451813D01*
X115287779Y-78583184D01*
G37*
G36*
X115853464Y-78017499D02*
G01*
X115464555Y-78406408D01*
X114333184Y-77275037D01*
X114722093Y-76886128D01*
X115853464Y-78017499D01*
G37*
G36*
X116419150Y-77451814D02*
G01*
X116030241Y-77840723D01*
X114898870Y-76709352D01*
X115287779Y-76320443D01*
X116419150Y-77451814D01*
G37*
G36*
X116984835Y-76886128D02*
G01*
X116595926Y-77275037D01*
X115464555Y-76143666D01*
X115853464Y-75754757D01*
X116984835Y-76886128D01*
G37*
G36*
X117904074Y-77275037D02*
G01*
X117515165Y-76886128D01*
X118646536Y-75754757D01*
X119035445Y-76143666D01*
X117904074Y-77275037D01*
G37*
G36*
X118469759Y-77840723D02*
G01*
X118080850Y-77451814D01*
X119212221Y-76320443D01*
X119601130Y-76709352D01*
X118469759Y-77840723D01*
G37*
G36*
X119035445Y-78406408D02*
G01*
X118646536Y-78017499D01*
X119777907Y-76886128D01*
X120166816Y-77275037D01*
X119035445Y-78406408D01*
G37*
G36*
X119601130Y-78972093D02*
G01*
X119212221Y-78583184D01*
X120343592Y-77451813D01*
X120732501Y-77840722D01*
X119601130Y-78972093D01*
G37*
G36*
X120166816Y-79537779D02*
G01*
X119777907Y-79148870D01*
X120909278Y-78017499D01*
X121298187Y-78406408D01*
X120166816Y-79537779D01*
G37*
G36*
X120732501Y-80103464D02*
G01*
X120343592Y-79714555D01*
X121474963Y-78583184D01*
X121863872Y-78972093D01*
X120732501Y-80103464D01*
G37*
G36*
X121298186Y-80669150D02*
G01*
X120909277Y-80280241D01*
X122040648Y-79148870D01*
X122429557Y-79537779D01*
X121298186Y-80669150D01*
G37*
G36*
X121863872Y-81234835D02*
G01*
X121474963Y-80845926D01*
X122606334Y-79714555D01*
X122995243Y-80103464D01*
X121863872Y-81234835D01*
G37*
G36*
X122995243Y-82896536D02*
G01*
X122606334Y-83285445D01*
X121474963Y-82154074D01*
X121863872Y-81765165D01*
X122995243Y-82896536D01*
G37*
G36*
X122429557Y-83462221D02*
G01*
X122040648Y-83851130D01*
X120909277Y-82719759D01*
X121298186Y-82330850D01*
X122429557Y-83462221D01*
G37*
G36*
X121863872Y-84027907D02*
G01*
X121474963Y-84416816D01*
X120343592Y-83285445D01*
X120732501Y-82896536D01*
X121863872Y-84027907D01*
G37*
G36*
X121298187Y-84593592D02*
G01*
X120909278Y-84982501D01*
X119777907Y-83851130D01*
X120166816Y-83462221D01*
X121298187Y-84593592D01*
G37*
G36*
X120732501Y-85159278D02*
G01*
X120343592Y-85548187D01*
X119212221Y-84416816D01*
X119601130Y-84027907D01*
X120732501Y-85159278D01*
G37*
G36*
X120166816Y-85724963D02*
G01*
X119777907Y-86113872D01*
X118646536Y-84982501D01*
X119035445Y-84593592D01*
X120166816Y-85724963D01*
G37*
G36*
X119601130Y-86290648D02*
G01*
X119212221Y-86679557D01*
X118080850Y-85548186D01*
X118469759Y-85159277D01*
X119601130Y-86290648D01*
G37*
G36*
X119035445Y-86856334D02*
G01*
X118646536Y-87245243D01*
X117515165Y-86113872D01*
X117904074Y-85724963D01*
X119035445Y-86856334D01*
G37*
G36*
X115853464Y-87245243D02*
G01*
X115464555Y-86856334D01*
X116595926Y-85724963D01*
X116984835Y-86113872D01*
X115853464Y-87245243D01*
G37*
G36*
X115287779Y-86679557D02*
G01*
X114898870Y-86290648D01*
X116030241Y-85159277D01*
X116419150Y-85548186D01*
X115287779Y-86679557D01*
G37*
G36*
X114722093Y-86113872D02*
G01*
X114333184Y-85724963D01*
X115464555Y-84593592D01*
X115853464Y-84982501D01*
X114722093Y-86113872D01*
G37*
G36*
X114156408Y-85548187D02*
G01*
X113767499Y-85159278D01*
X114898870Y-84027907D01*
X115287779Y-84416816D01*
X114156408Y-85548187D01*
G37*
G36*
X113590722Y-84982501D02*
G01*
X113201813Y-84593592D01*
X114333184Y-83462221D01*
X114722093Y-83851130D01*
X113590722Y-84982501D01*
G37*
G36*
X113025037Y-84416816D02*
G01*
X112636128Y-84027907D01*
X113767499Y-82896536D01*
X114156408Y-83285445D01*
X113025037Y-84416816D01*
G37*
G36*
X112459352Y-83851130D02*
G01*
X112070443Y-83462221D01*
X113201814Y-82330850D01*
X113590723Y-82719759D01*
X112459352Y-83851130D01*
G37*
G36*
X111893666Y-83285445D02*
G01*
X111504757Y-82896536D01*
X112636128Y-81765165D01*
X113025037Y-82154074D01*
X111893666Y-83285445D01*
G37*
G36*
X135777691Y-47776053D02*
G01*
X135798926Y-47779203D01*
X135819750Y-47784419D01*
X135839962Y-47791651D01*
X135859368Y-47800830D01*
X135877781Y-47811866D01*
X135895024Y-47824654D01*
X135910930Y-47839070D01*
X135925346Y-47854976D01*
X135938134Y-47872219D01*
X135949170Y-47890632D01*
X135958349Y-47910038D01*
X135965581Y-47930250D01*
X135970797Y-47951074D01*
X135973947Y-47972309D01*
X135975000Y-47993750D01*
X135975000Y-48431250D01*
X135973947Y-48452691D01*
X135970797Y-48473926D01*
X135965581Y-48494750D01*
X135958349Y-48514962D01*
X135949170Y-48534368D01*
X135938134Y-48552781D01*
X135925346Y-48570024D01*
X135910930Y-48585930D01*
X135895024Y-48600346D01*
X135877781Y-48613134D01*
X135859368Y-48624170D01*
X135839962Y-48633349D01*
X135819750Y-48640581D01*
X135798926Y-48645797D01*
X135777691Y-48648947D01*
X135756250Y-48650000D01*
X135243750Y-48650000D01*
X135222309Y-48648947D01*
X135201074Y-48645797D01*
X135180250Y-48640581D01*
X135160038Y-48633349D01*
X135140632Y-48624170D01*
X135122219Y-48613134D01*
X135104976Y-48600346D01*
X135089070Y-48585930D01*
X135074654Y-48570024D01*
X135061866Y-48552781D01*
X135050830Y-48534368D01*
X135041651Y-48514962D01*
X135034419Y-48494750D01*
X135029203Y-48473926D01*
X135026053Y-48452691D01*
X135025000Y-48431250D01*
X135025000Y-47993750D01*
X135026053Y-47972309D01*
X135029203Y-47951074D01*
X135034419Y-47930250D01*
X135041651Y-47910038D01*
X135050830Y-47890632D01*
X135061866Y-47872219D01*
X135074654Y-47854976D01*
X135089070Y-47839070D01*
X135104976Y-47824654D01*
X135122219Y-47811866D01*
X135140632Y-47800830D01*
X135160038Y-47791651D01*
X135180250Y-47784419D01*
X135201074Y-47779203D01*
X135222309Y-47776053D01*
X135243750Y-47775000D01*
X135756250Y-47775000D01*
X135777691Y-47776053D01*
G37*
G36*
X135777691Y-49351053D02*
G01*
X135798926Y-49354203D01*
X135819750Y-49359419D01*
X135839962Y-49366651D01*
X135859368Y-49375830D01*
X135877781Y-49386866D01*
X135895024Y-49399654D01*
X135910930Y-49414070D01*
X135925346Y-49429976D01*
X135938134Y-49447219D01*
X135949170Y-49465632D01*
X135958349Y-49485038D01*
X135965581Y-49505250D01*
X135970797Y-49526074D01*
X135973947Y-49547309D01*
X135975000Y-49568750D01*
X135975000Y-50006250D01*
X135973947Y-50027691D01*
X135970797Y-50048926D01*
X135965581Y-50069750D01*
X135958349Y-50089962D01*
X135949170Y-50109368D01*
X135938134Y-50127781D01*
X135925346Y-50145024D01*
X135910930Y-50160930D01*
X135895024Y-50175346D01*
X135877781Y-50188134D01*
X135859368Y-50199170D01*
X135839962Y-50208349D01*
X135819750Y-50215581D01*
X135798926Y-50220797D01*
X135777691Y-50223947D01*
X135756250Y-50225000D01*
X135243750Y-50225000D01*
X135222309Y-50223947D01*
X135201074Y-50220797D01*
X135180250Y-50215581D01*
X135160038Y-50208349D01*
X135140632Y-50199170D01*
X135122219Y-50188134D01*
X135104976Y-50175346D01*
X135089070Y-50160930D01*
X135074654Y-50145024D01*
X135061866Y-50127781D01*
X135050830Y-50109368D01*
X135041651Y-50089962D01*
X135034419Y-50069750D01*
X135029203Y-50048926D01*
X135026053Y-50027691D01*
X135025000Y-50006250D01*
X135025000Y-49568750D01*
X135026053Y-49547309D01*
X135029203Y-49526074D01*
X135034419Y-49505250D01*
X135041651Y-49485038D01*
X135050830Y-49465632D01*
X135061866Y-49447219D01*
X135074654Y-49429976D01*
X135089070Y-49414070D01*
X135104976Y-49399654D01*
X135122219Y-49386866D01*
X135140632Y-49375830D01*
X135160038Y-49366651D01*
X135180250Y-49359419D01*
X135201074Y-49354203D01*
X135222309Y-49351053D01*
X135243750Y-49350000D01*
X135756250Y-49350000D01*
X135777691Y-49351053D01*
G37*
G36*
X130777691Y-49351053D02*
G01*
X130798926Y-49354203D01*
X130819750Y-49359419D01*
X130839962Y-49366651D01*
X130859368Y-49375830D01*
X130877781Y-49386866D01*
X130895024Y-49399654D01*
X130910930Y-49414070D01*
X130925346Y-49429976D01*
X130938134Y-49447219D01*
X130949170Y-49465632D01*
X130958349Y-49485038D01*
X130965581Y-49505250D01*
X130970797Y-49526074D01*
X130973947Y-49547309D01*
X130975000Y-49568750D01*
X130975000Y-50006250D01*
X130973947Y-50027691D01*
X130970797Y-50048926D01*
X130965581Y-50069750D01*
X130958349Y-50089962D01*
X130949170Y-50109368D01*
X130938134Y-50127781D01*
X130925346Y-50145024D01*
X130910930Y-50160930D01*
X130895024Y-50175346D01*
X130877781Y-50188134D01*
X130859368Y-50199170D01*
X130839962Y-50208349D01*
X130819750Y-50215581D01*
X130798926Y-50220797D01*
X130777691Y-50223947D01*
X130756250Y-50225000D01*
X130243750Y-50225000D01*
X130222309Y-50223947D01*
X130201074Y-50220797D01*
X130180250Y-50215581D01*
X130160038Y-50208349D01*
X130140632Y-50199170D01*
X130122219Y-50188134D01*
X130104976Y-50175346D01*
X130089070Y-50160930D01*
X130074654Y-50145024D01*
X130061866Y-50127781D01*
X130050830Y-50109368D01*
X130041651Y-50089962D01*
X130034419Y-50069750D01*
X130029203Y-50048926D01*
X130026053Y-50027691D01*
X130025000Y-50006250D01*
X130025000Y-49568750D01*
X130026053Y-49547309D01*
X130029203Y-49526074D01*
X130034419Y-49505250D01*
X130041651Y-49485038D01*
X130050830Y-49465632D01*
X130061866Y-49447219D01*
X130074654Y-49429976D01*
X130089070Y-49414070D01*
X130104976Y-49399654D01*
X130122219Y-49386866D01*
X130140632Y-49375830D01*
X130160038Y-49366651D01*
X130180250Y-49359419D01*
X130201074Y-49354203D01*
X130222309Y-49351053D01*
X130243750Y-49350000D01*
X130756250Y-49350000D01*
X130777691Y-49351053D01*
G37*
G36*
X130777691Y-47776053D02*
G01*
X130798926Y-47779203D01*
X130819750Y-47784419D01*
X130839962Y-47791651D01*
X130859368Y-47800830D01*
X130877781Y-47811866D01*
X130895024Y-47824654D01*
X130910930Y-47839070D01*
X130925346Y-47854976D01*
X130938134Y-47872219D01*
X130949170Y-47890632D01*
X130958349Y-47910038D01*
X130965581Y-47930250D01*
X130970797Y-47951074D01*
X130973947Y-47972309D01*
X130975000Y-47993750D01*
X130975000Y-48431250D01*
X130973947Y-48452691D01*
X130970797Y-48473926D01*
X130965581Y-48494750D01*
X130958349Y-48514962D01*
X130949170Y-48534368D01*
X130938134Y-48552781D01*
X130925346Y-48570024D01*
X130910930Y-48585930D01*
X130895024Y-48600346D01*
X130877781Y-48613134D01*
X130859368Y-48624170D01*
X130839962Y-48633349D01*
X130819750Y-48640581D01*
X130798926Y-48645797D01*
X130777691Y-48648947D01*
X130756250Y-48650000D01*
X130243750Y-48650000D01*
X130222309Y-48648947D01*
X130201074Y-48645797D01*
X130180250Y-48640581D01*
X130160038Y-48633349D01*
X130140632Y-48624170D01*
X130122219Y-48613134D01*
X130104976Y-48600346D01*
X130089070Y-48585930D01*
X130074654Y-48570024D01*
X130061866Y-48552781D01*
X130050830Y-48534368D01*
X130041651Y-48514962D01*
X130034419Y-48494750D01*
X130029203Y-48473926D01*
X130026053Y-48452691D01*
X130025000Y-48431250D01*
X130025000Y-47993750D01*
X130026053Y-47972309D01*
X130029203Y-47951074D01*
X130034419Y-47930250D01*
X130041651Y-47910038D01*
X130050830Y-47890632D01*
X130061866Y-47872219D01*
X130074654Y-47854976D01*
X130089070Y-47839070D01*
X130104976Y-47824654D01*
X130122219Y-47811866D01*
X130140632Y-47800830D01*
X130160038Y-47791651D01*
X130180250Y-47784419D01*
X130201074Y-47779203D01*
X130222309Y-47776053D01*
X130243750Y-47775000D01*
X130756250Y-47775000D01*
X130777691Y-47776053D01*
G37*
G36*
X133277691Y-49351053D02*
G01*
X133298926Y-49354203D01*
X133319750Y-49359419D01*
X133339962Y-49366651D01*
X133359368Y-49375830D01*
X133377781Y-49386866D01*
X133395024Y-49399654D01*
X133410930Y-49414070D01*
X133425346Y-49429976D01*
X133438134Y-49447219D01*
X133449170Y-49465632D01*
X133458349Y-49485038D01*
X133465581Y-49505250D01*
X133470797Y-49526074D01*
X133473947Y-49547309D01*
X133475000Y-49568750D01*
X133475000Y-50006250D01*
X133473947Y-50027691D01*
X133470797Y-50048926D01*
X133465581Y-50069750D01*
X133458349Y-50089962D01*
X133449170Y-50109368D01*
X133438134Y-50127781D01*
X133425346Y-50145024D01*
X133410930Y-50160930D01*
X133395024Y-50175346D01*
X133377781Y-50188134D01*
X133359368Y-50199170D01*
X133339962Y-50208349D01*
X133319750Y-50215581D01*
X133298926Y-50220797D01*
X133277691Y-50223947D01*
X133256250Y-50225000D01*
X132743750Y-50225000D01*
X132722309Y-50223947D01*
X132701074Y-50220797D01*
X132680250Y-50215581D01*
X132660038Y-50208349D01*
X132640632Y-50199170D01*
X132622219Y-50188134D01*
X132604976Y-50175346D01*
X132589070Y-50160930D01*
X132574654Y-50145024D01*
X132561866Y-50127781D01*
X132550830Y-50109368D01*
X132541651Y-50089962D01*
X132534419Y-50069750D01*
X132529203Y-50048926D01*
X132526053Y-50027691D01*
X132525000Y-50006250D01*
X132525000Y-49568750D01*
X132526053Y-49547309D01*
X132529203Y-49526074D01*
X132534419Y-49505250D01*
X132541651Y-49485038D01*
X132550830Y-49465632D01*
X132561866Y-49447219D01*
X132574654Y-49429976D01*
X132589070Y-49414070D01*
X132604976Y-49399654D01*
X132622219Y-49386866D01*
X132640632Y-49375830D01*
X132660038Y-49366651D01*
X132680250Y-49359419D01*
X132701074Y-49354203D01*
X132722309Y-49351053D01*
X132743750Y-49350000D01*
X133256250Y-49350000D01*
X133277691Y-49351053D01*
G37*
G36*
X133277691Y-47776053D02*
G01*
X133298926Y-47779203D01*
X133319750Y-47784419D01*
X133339962Y-47791651D01*
X133359368Y-47800830D01*
X133377781Y-47811866D01*
X133395024Y-47824654D01*
X133410930Y-47839070D01*
X133425346Y-47854976D01*
X133438134Y-47872219D01*
X133449170Y-47890632D01*
X133458349Y-47910038D01*
X133465581Y-47930250D01*
X133470797Y-47951074D01*
X133473947Y-47972309D01*
X133475000Y-47993750D01*
X133475000Y-48431250D01*
X133473947Y-48452691D01*
X133470797Y-48473926D01*
X133465581Y-48494750D01*
X133458349Y-48514962D01*
X133449170Y-48534368D01*
X133438134Y-48552781D01*
X133425346Y-48570024D01*
X133410930Y-48585930D01*
X133395024Y-48600346D01*
X133377781Y-48613134D01*
X133359368Y-48624170D01*
X133339962Y-48633349D01*
X133319750Y-48640581D01*
X133298926Y-48645797D01*
X133277691Y-48648947D01*
X133256250Y-48650000D01*
X132743750Y-48650000D01*
X132722309Y-48648947D01*
X132701074Y-48645797D01*
X132680250Y-48640581D01*
X132660038Y-48633349D01*
X132640632Y-48624170D01*
X132622219Y-48613134D01*
X132604976Y-48600346D01*
X132589070Y-48585930D01*
X132574654Y-48570024D01*
X132561866Y-48552781D01*
X132550830Y-48534368D01*
X132541651Y-48514962D01*
X132534419Y-48494750D01*
X132529203Y-48473926D01*
X132526053Y-48452691D01*
X132525000Y-48431250D01*
X132525000Y-47993750D01*
X132526053Y-47972309D01*
X132529203Y-47951074D01*
X132534419Y-47930250D01*
X132541651Y-47910038D01*
X132550830Y-47890632D01*
X132561866Y-47872219D01*
X132574654Y-47854976D01*
X132589070Y-47839070D01*
X132604976Y-47824654D01*
X132622219Y-47811866D01*
X132640632Y-47800830D01*
X132660038Y-47791651D01*
X132680250Y-47784419D01*
X132701074Y-47779203D01*
X132722309Y-47776053D01*
X132743750Y-47775000D01*
X133256250Y-47775000D01*
X133277691Y-47776053D01*
G37*
G36*
X64277691Y-72526053D02*
G01*
X64298926Y-72529203D01*
X64319750Y-72534419D01*
X64339962Y-72541651D01*
X64359368Y-72550830D01*
X64377781Y-72561866D01*
X64395024Y-72574654D01*
X64410930Y-72589070D01*
X64425346Y-72604976D01*
X64438134Y-72622219D01*
X64449170Y-72640632D01*
X64458349Y-72660038D01*
X64465581Y-72680250D01*
X64470797Y-72701074D01*
X64473947Y-72722309D01*
X64475000Y-72743750D01*
X64475000Y-73256250D01*
X64473947Y-73277691D01*
X64470797Y-73298926D01*
X64465581Y-73319750D01*
X64458349Y-73339962D01*
X64449170Y-73359368D01*
X64438134Y-73377781D01*
X64425346Y-73395024D01*
X64410930Y-73410930D01*
X64395024Y-73425346D01*
X64377781Y-73438134D01*
X64359368Y-73449170D01*
X64339962Y-73458349D01*
X64319750Y-73465581D01*
X64298926Y-73470797D01*
X64277691Y-73473947D01*
X64256250Y-73475000D01*
X63818750Y-73475000D01*
X63797309Y-73473947D01*
X63776074Y-73470797D01*
X63755250Y-73465581D01*
X63735038Y-73458349D01*
X63715632Y-73449170D01*
X63697219Y-73438134D01*
X63679976Y-73425346D01*
X63664070Y-73410930D01*
X63649654Y-73395024D01*
X63636866Y-73377781D01*
X63625830Y-73359368D01*
X63616651Y-73339962D01*
X63609419Y-73319750D01*
X63604203Y-73298926D01*
X63601053Y-73277691D01*
X63600000Y-73256250D01*
X63600000Y-72743750D01*
X63601053Y-72722309D01*
X63604203Y-72701074D01*
X63609419Y-72680250D01*
X63616651Y-72660038D01*
X63625830Y-72640632D01*
X63636866Y-72622219D01*
X63649654Y-72604976D01*
X63664070Y-72589070D01*
X63679976Y-72574654D01*
X63697219Y-72561866D01*
X63715632Y-72550830D01*
X63735038Y-72541651D01*
X63755250Y-72534419D01*
X63776074Y-72529203D01*
X63797309Y-72526053D01*
X63818750Y-72525000D01*
X64256250Y-72525000D01*
X64277691Y-72526053D01*
G37*
G36*
X62702691Y-72526053D02*
G01*
X62723926Y-72529203D01*
X62744750Y-72534419D01*
X62764962Y-72541651D01*
X62784368Y-72550830D01*
X62802781Y-72561866D01*
X62820024Y-72574654D01*
X62835930Y-72589070D01*
X62850346Y-72604976D01*
X62863134Y-72622219D01*
X62874170Y-72640632D01*
X62883349Y-72660038D01*
X62890581Y-72680250D01*
X62895797Y-72701074D01*
X62898947Y-72722309D01*
X62900000Y-72743750D01*
X62900000Y-73256250D01*
X62898947Y-73277691D01*
X62895797Y-73298926D01*
X62890581Y-73319750D01*
X62883349Y-73339962D01*
X62874170Y-73359368D01*
X62863134Y-73377781D01*
X62850346Y-73395024D01*
X62835930Y-73410930D01*
X62820024Y-73425346D01*
X62802781Y-73438134D01*
X62784368Y-73449170D01*
X62764962Y-73458349D01*
X62744750Y-73465581D01*
X62723926Y-73470797D01*
X62702691Y-73473947D01*
X62681250Y-73475000D01*
X62243750Y-73475000D01*
X62222309Y-73473947D01*
X62201074Y-73470797D01*
X62180250Y-73465581D01*
X62160038Y-73458349D01*
X62140632Y-73449170D01*
X62122219Y-73438134D01*
X62104976Y-73425346D01*
X62089070Y-73410930D01*
X62074654Y-73395024D01*
X62061866Y-73377781D01*
X62050830Y-73359368D01*
X62041651Y-73339962D01*
X62034419Y-73319750D01*
X62029203Y-73298926D01*
X62026053Y-73277691D01*
X62025000Y-73256250D01*
X62025000Y-72743750D01*
X62026053Y-72722309D01*
X62029203Y-72701074D01*
X62034419Y-72680250D01*
X62041651Y-72660038D01*
X62050830Y-72640632D01*
X62061866Y-72622219D01*
X62074654Y-72604976D01*
X62089070Y-72589070D01*
X62104976Y-72574654D01*
X62122219Y-72561866D01*
X62140632Y-72550830D01*
X62160038Y-72541651D01*
X62180250Y-72534419D01*
X62201074Y-72529203D01*
X62222309Y-72526053D01*
X62243750Y-72525000D01*
X62681250Y-72525000D01*
X62702691Y-72526053D01*
G37*
G36*
X63027691Y-53526053D02*
G01*
X63048926Y-53529203D01*
X63069750Y-53534419D01*
X63089962Y-53541651D01*
X63109368Y-53550830D01*
X63127781Y-53561866D01*
X63145024Y-53574654D01*
X63160930Y-53589070D01*
X63175346Y-53604976D01*
X63188134Y-53622219D01*
X63199170Y-53640632D01*
X63208349Y-53660038D01*
X63215581Y-53680250D01*
X63220797Y-53701074D01*
X63223947Y-53722309D01*
X63225000Y-53743750D01*
X63225000Y-54181250D01*
X63223947Y-54202691D01*
X63220797Y-54223926D01*
X63215581Y-54244750D01*
X63208349Y-54264962D01*
X63199170Y-54284368D01*
X63188134Y-54302781D01*
X63175346Y-54320024D01*
X63160930Y-54335930D01*
X63145024Y-54350346D01*
X63127781Y-54363134D01*
X63109368Y-54374170D01*
X63089962Y-54383349D01*
X63069750Y-54390581D01*
X63048926Y-54395797D01*
X63027691Y-54398947D01*
X63006250Y-54400000D01*
X62493750Y-54400000D01*
X62472309Y-54398947D01*
X62451074Y-54395797D01*
X62430250Y-54390581D01*
X62410038Y-54383349D01*
X62390632Y-54374170D01*
X62372219Y-54363134D01*
X62354976Y-54350346D01*
X62339070Y-54335930D01*
X62324654Y-54320024D01*
X62311866Y-54302781D01*
X62300830Y-54284368D01*
X62291651Y-54264962D01*
X62284419Y-54244750D01*
X62279203Y-54223926D01*
X62276053Y-54202691D01*
X62275000Y-54181250D01*
X62275000Y-53743750D01*
X62276053Y-53722309D01*
X62279203Y-53701074D01*
X62284419Y-53680250D01*
X62291651Y-53660038D01*
X62300830Y-53640632D01*
X62311866Y-53622219D01*
X62324654Y-53604976D01*
X62339070Y-53589070D01*
X62354976Y-53574654D01*
X62372219Y-53561866D01*
X62390632Y-53550830D01*
X62410038Y-53541651D01*
X62430250Y-53534419D01*
X62451074Y-53529203D01*
X62472309Y-53526053D01*
X62493750Y-53525000D01*
X63006250Y-53525000D01*
X63027691Y-53526053D01*
G37*
G36*
X63027691Y-55101053D02*
G01*
X63048926Y-55104203D01*
X63069750Y-55109419D01*
X63089962Y-55116651D01*
X63109368Y-55125830D01*
X63127781Y-55136866D01*
X63145024Y-55149654D01*
X63160930Y-55164070D01*
X63175346Y-55179976D01*
X63188134Y-55197219D01*
X63199170Y-55215632D01*
X63208349Y-55235038D01*
X63215581Y-55255250D01*
X63220797Y-55276074D01*
X63223947Y-55297309D01*
X63225000Y-55318750D01*
X63225000Y-55756250D01*
X63223947Y-55777691D01*
X63220797Y-55798926D01*
X63215581Y-55819750D01*
X63208349Y-55839962D01*
X63199170Y-55859368D01*
X63188134Y-55877781D01*
X63175346Y-55895024D01*
X63160930Y-55910930D01*
X63145024Y-55925346D01*
X63127781Y-55938134D01*
X63109368Y-55949170D01*
X63089962Y-55958349D01*
X63069750Y-55965581D01*
X63048926Y-55970797D01*
X63027691Y-55973947D01*
X63006250Y-55975000D01*
X62493750Y-55975000D01*
X62472309Y-55973947D01*
X62451074Y-55970797D01*
X62430250Y-55965581D01*
X62410038Y-55958349D01*
X62390632Y-55949170D01*
X62372219Y-55938134D01*
X62354976Y-55925346D01*
X62339070Y-55910930D01*
X62324654Y-55895024D01*
X62311866Y-55877781D01*
X62300830Y-55859368D01*
X62291651Y-55839962D01*
X62284419Y-55819750D01*
X62279203Y-55798926D01*
X62276053Y-55777691D01*
X62275000Y-55756250D01*
X62275000Y-55318750D01*
X62276053Y-55297309D01*
X62279203Y-55276074D01*
X62284419Y-55255250D01*
X62291651Y-55235038D01*
X62300830Y-55215632D01*
X62311866Y-55197219D01*
X62324654Y-55179976D01*
X62339070Y-55164070D01*
X62354976Y-55149654D01*
X62372219Y-55136866D01*
X62390632Y-55125830D01*
X62410038Y-55116651D01*
X62430250Y-55109419D01*
X62451074Y-55104203D01*
X62472309Y-55101053D01*
X62493750Y-55100000D01*
X63006250Y-55100000D01*
X63027691Y-55101053D01*
G37*
G36*
X51452691Y-70276053D02*
G01*
X51473926Y-70279203D01*
X51494750Y-70284419D01*
X51514962Y-70291651D01*
X51534368Y-70300830D01*
X51552781Y-70311866D01*
X51570024Y-70324654D01*
X51585930Y-70339070D01*
X51600346Y-70354976D01*
X51613134Y-70372219D01*
X51624170Y-70390632D01*
X51633349Y-70410038D01*
X51640581Y-70430250D01*
X51645797Y-70451074D01*
X51648947Y-70472309D01*
X51650000Y-70493750D01*
X51650000Y-71006250D01*
X51648947Y-71027691D01*
X51645797Y-71048926D01*
X51640581Y-71069750D01*
X51633349Y-71089962D01*
X51624170Y-71109368D01*
X51613134Y-71127781D01*
X51600346Y-71145024D01*
X51585930Y-71160930D01*
X51570024Y-71175346D01*
X51552781Y-71188134D01*
X51534368Y-71199170D01*
X51514962Y-71208349D01*
X51494750Y-71215581D01*
X51473926Y-71220797D01*
X51452691Y-71223947D01*
X51431250Y-71225000D01*
X50993750Y-71225000D01*
X50972309Y-71223947D01*
X50951074Y-71220797D01*
X50930250Y-71215581D01*
X50910038Y-71208349D01*
X50890632Y-71199170D01*
X50872219Y-71188134D01*
X50854976Y-71175346D01*
X50839070Y-71160930D01*
X50824654Y-71145024D01*
X50811866Y-71127781D01*
X50800830Y-71109368D01*
X50791651Y-71089962D01*
X50784419Y-71069750D01*
X50779203Y-71048926D01*
X50776053Y-71027691D01*
X50775000Y-71006250D01*
X50775000Y-70493750D01*
X50776053Y-70472309D01*
X50779203Y-70451074D01*
X50784419Y-70430250D01*
X50791651Y-70410038D01*
X50800830Y-70390632D01*
X50811866Y-70372219D01*
X50824654Y-70354976D01*
X50839070Y-70339070D01*
X50854976Y-70324654D01*
X50872219Y-70311866D01*
X50890632Y-70300830D01*
X50910038Y-70291651D01*
X50930250Y-70284419D01*
X50951074Y-70279203D01*
X50972309Y-70276053D01*
X50993750Y-70275000D01*
X51431250Y-70275000D01*
X51452691Y-70276053D01*
G37*
G36*
X53027691Y-70276053D02*
G01*
X53048926Y-70279203D01*
X53069750Y-70284419D01*
X53089962Y-70291651D01*
X53109368Y-70300830D01*
X53127781Y-70311866D01*
X53145024Y-70324654D01*
X53160930Y-70339070D01*
X53175346Y-70354976D01*
X53188134Y-70372219D01*
X53199170Y-70390632D01*
X53208349Y-70410038D01*
X53215581Y-70430250D01*
X53220797Y-70451074D01*
X53223947Y-70472309D01*
X53225000Y-70493750D01*
X53225000Y-71006250D01*
X53223947Y-71027691D01*
X53220797Y-71048926D01*
X53215581Y-71069750D01*
X53208349Y-71089962D01*
X53199170Y-71109368D01*
X53188134Y-71127781D01*
X53175346Y-71145024D01*
X53160930Y-71160930D01*
X53145024Y-71175346D01*
X53127781Y-71188134D01*
X53109368Y-71199170D01*
X53089962Y-71208349D01*
X53069750Y-71215581D01*
X53048926Y-71220797D01*
X53027691Y-71223947D01*
X53006250Y-71225000D01*
X52568750Y-71225000D01*
X52547309Y-71223947D01*
X52526074Y-71220797D01*
X52505250Y-71215581D01*
X52485038Y-71208349D01*
X52465632Y-71199170D01*
X52447219Y-71188134D01*
X52429976Y-71175346D01*
X52414070Y-71160930D01*
X52399654Y-71145024D01*
X52386866Y-71127781D01*
X52375830Y-71109368D01*
X52366651Y-71089962D01*
X52359419Y-71069750D01*
X52354203Y-71048926D01*
X52351053Y-71027691D01*
X52350000Y-71006250D01*
X52350000Y-70493750D01*
X52351053Y-70472309D01*
X52354203Y-70451074D01*
X52359419Y-70430250D01*
X52366651Y-70410038D01*
X52375830Y-70390632D01*
X52386866Y-70372219D01*
X52399654Y-70354976D01*
X52414070Y-70339070D01*
X52429976Y-70324654D01*
X52447219Y-70311866D01*
X52465632Y-70300830D01*
X52485038Y-70291651D01*
X52505250Y-70284419D01*
X52526074Y-70279203D01*
X52547309Y-70276053D01*
X52568750Y-70275000D01*
X53006250Y-70275000D01*
X53027691Y-70276053D01*
G37*
G36*
X58952691Y-70276053D02*
G01*
X58973926Y-70279203D01*
X58994750Y-70284419D01*
X59014962Y-70291651D01*
X59034368Y-70300830D01*
X59052781Y-70311866D01*
X59070024Y-70324654D01*
X59085930Y-70339070D01*
X59100346Y-70354976D01*
X59113134Y-70372219D01*
X59124170Y-70390632D01*
X59133349Y-70410038D01*
X59140581Y-70430250D01*
X59145797Y-70451074D01*
X59148947Y-70472309D01*
X59150000Y-70493750D01*
X59150000Y-71006250D01*
X59148947Y-71027691D01*
X59145797Y-71048926D01*
X59140581Y-71069750D01*
X59133349Y-71089962D01*
X59124170Y-71109368D01*
X59113134Y-71127781D01*
X59100346Y-71145024D01*
X59085930Y-71160930D01*
X59070024Y-71175346D01*
X59052781Y-71188134D01*
X59034368Y-71199170D01*
X59014962Y-71208349D01*
X58994750Y-71215581D01*
X58973926Y-71220797D01*
X58952691Y-71223947D01*
X58931250Y-71225000D01*
X58493750Y-71225000D01*
X58472309Y-71223947D01*
X58451074Y-71220797D01*
X58430250Y-71215581D01*
X58410038Y-71208349D01*
X58390632Y-71199170D01*
X58372219Y-71188134D01*
X58354976Y-71175346D01*
X58339070Y-71160930D01*
X58324654Y-71145024D01*
X58311866Y-71127781D01*
X58300830Y-71109368D01*
X58291651Y-71089962D01*
X58284419Y-71069750D01*
X58279203Y-71048926D01*
X58276053Y-71027691D01*
X58275000Y-71006250D01*
X58275000Y-70493750D01*
X58276053Y-70472309D01*
X58279203Y-70451074D01*
X58284419Y-70430250D01*
X58291651Y-70410038D01*
X58300830Y-70390632D01*
X58311866Y-70372219D01*
X58324654Y-70354976D01*
X58339070Y-70339070D01*
X58354976Y-70324654D01*
X58372219Y-70311866D01*
X58390632Y-70300830D01*
X58410038Y-70291651D01*
X58430250Y-70284419D01*
X58451074Y-70279203D01*
X58472309Y-70276053D01*
X58493750Y-70275000D01*
X58931250Y-70275000D01*
X58952691Y-70276053D01*
G37*
G36*
X60527691Y-70276053D02*
G01*
X60548926Y-70279203D01*
X60569750Y-70284419D01*
X60589962Y-70291651D01*
X60609368Y-70300830D01*
X60627781Y-70311866D01*
X60645024Y-70324654D01*
X60660930Y-70339070D01*
X60675346Y-70354976D01*
X60688134Y-70372219D01*
X60699170Y-70390632D01*
X60708349Y-70410038D01*
X60715581Y-70430250D01*
X60720797Y-70451074D01*
X60723947Y-70472309D01*
X60725000Y-70493750D01*
X60725000Y-71006250D01*
X60723947Y-71027691D01*
X60720797Y-71048926D01*
X60715581Y-71069750D01*
X60708349Y-71089962D01*
X60699170Y-71109368D01*
X60688134Y-71127781D01*
X60675346Y-71145024D01*
X60660930Y-71160930D01*
X60645024Y-71175346D01*
X60627781Y-71188134D01*
X60609368Y-71199170D01*
X60589962Y-71208349D01*
X60569750Y-71215581D01*
X60548926Y-71220797D01*
X60527691Y-71223947D01*
X60506250Y-71225000D01*
X60068750Y-71225000D01*
X60047309Y-71223947D01*
X60026074Y-71220797D01*
X60005250Y-71215581D01*
X59985038Y-71208349D01*
X59965632Y-71199170D01*
X59947219Y-71188134D01*
X59929976Y-71175346D01*
X59914070Y-71160930D01*
X59899654Y-71145024D01*
X59886866Y-71127781D01*
X59875830Y-71109368D01*
X59866651Y-71089962D01*
X59859419Y-71069750D01*
X59854203Y-71048926D01*
X59851053Y-71027691D01*
X59850000Y-71006250D01*
X59850000Y-70493750D01*
X59851053Y-70472309D01*
X59854203Y-70451074D01*
X59859419Y-70430250D01*
X59866651Y-70410038D01*
X59875830Y-70390632D01*
X59886866Y-70372219D01*
X59899654Y-70354976D01*
X59914070Y-70339070D01*
X59929976Y-70324654D01*
X59947219Y-70311866D01*
X59965632Y-70300830D01*
X59985038Y-70291651D01*
X60005250Y-70284419D01*
X60026074Y-70279203D01*
X60047309Y-70276053D01*
X60068750Y-70275000D01*
X60506250Y-70275000D01*
X60527691Y-70276053D01*
G37*
G36*
X65027691Y-53526053D02*
G01*
X65048926Y-53529203D01*
X65069750Y-53534419D01*
X65089962Y-53541651D01*
X65109368Y-53550830D01*
X65127781Y-53561866D01*
X65145024Y-53574654D01*
X65160930Y-53589070D01*
X65175346Y-53604976D01*
X65188134Y-53622219D01*
X65199170Y-53640632D01*
X65208349Y-53660038D01*
X65215581Y-53680250D01*
X65220797Y-53701074D01*
X65223947Y-53722309D01*
X65225000Y-53743750D01*
X65225000Y-54181250D01*
X65223947Y-54202691D01*
X65220797Y-54223926D01*
X65215581Y-54244750D01*
X65208349Y-54264962D01*
X65199170Y-54284368D01*
X65188134Y-54302781D01*
X65175346Y-54320024D01*
X65160930Y-54335930D01*
X65145024Y-54350346D01*
X65127781Y-54363134D01*
X65109368Y-54374170D01*
X65089962Y-54383349D01*
X65069750Y-54390581D01*
X65048926Y-54395797D01*
X65027691Y-54398947D01*
X65006250Y-54400000D01*
X64493750Y-54400000D01*
X64472309Y-54398947D01*
X64451074Y-54395797D01*
X64430250Y-54390581D01*
X64410038Y-54383349D01*
X64390632Y-54374170D01*
X64372219Y-54363134D01*
X64354976Y-54350346D01*
X64339070Y-54335930D01*
X64324654Y-54320024D01*
X64311866Y-54302781D01*
X64300830Y-54284368D01*
X64291651Y-54264962D01*
X64284419Y-54244750D01*
X64279203Y-54223926D01*
X64276053Y-54202691D01*
X64275000Y-54181250D01*
X64275000Y-53743750D01*
X64276053Y-53722309D01*
X64279203Y-53701074D01*
X64284419Y-53680250D01*
X64291651Y-53660038D01*
X64300830Y-53640632D01*
X64311866Y-53622219D01*
X64324654Y-53604976D01*
X64339070Y-53589070D01*
X64354976Y-53574654D01*
X64372219Y-53561866D01*
X64390632Y-53550830D01*
X64410038Y-53541651D01*
X64430250Y-53534419D01*
X64451074Y-53529203D01*
X64472309Y-53526053D01*
X64493750Y-53525000D01*
X65006250Y-53525000D01*
X65027691Y-53526053D01*
G37*
G36*
X65027691Y-55101053D02*
G01*
X65048926Y-55104203D01*
X65069750Y-55109419D01*
X65089962Y-55116651D01*
X65109368Y-55125830D01*
X65127781Y-55136866D01*
X65145024Y-55149654D01*
X65160930Y-55164070D01*
X65175346Y-55179976D01*
X65188134Y-55197219D01*
X65199170Y-55215632D01*
X65208349Y-55235038D01*
X65215581Y-55255250D01*
X65220797Y-55276074D01*
X65223947Y-55297309D01*
X65225000Y-55318750D01*
X65225000Y-55756250D01*
X65223947Y-55777691D01*
X65220797Y-55798926D01*
X65215581Y-55819750D01*
X65208349Y-55839962D01*
X65199170Y-55859368D01*
X65188134Y-55877781D01*
X65175346Y-55895024D01*
X65160930Y-55910930D01*
X65145024Y-55925346D01*
X65127781Y-55938134D01*
X65109368Y-55949170D01*
X65089962Y-55958349D01*
X65069750Y-55965581D01*
X65048926Y-55970797D01*
X65027691Y-55973947D01*
X65006250Y-55975000D01*
X64493750Y-55975000D01*
X64472309Y-55973947D01*
X64451074Y-55970797D01*
X64430250Y-55965581D01*
X64410038Y-55958349D01*
X64390632Y-55949170D01*
X64372219Y-55938134D01*
X64354976Y-55925346D01*
X64339070Y-55910930D01*
X64324654Y-55895024D01*
X64311866Y-55877781D01*
X64300830Y-55859368D01*
X64291651Y-55839962D01*
X64284419Y-55819750D01*
X64279203Y-55798926D01*
X64276053Y-55777691D01*
X64275000Y-55756250D01*
X64275000Y-55318750D01*
X64276053Y-55297309D01*
X64279203Y-55276074D01*
X64284419Y-55255250D01*
X64291651Y-55235038D01*
X64300830Y-55215632D01*
X64311866Y-55197219D01*
X64324654Y-55179976D01*
X64339070Y-55164070D01*
X64354976Y-55149654D01*
X64372219Y-55136866D01*
X64390632Y-55125830D01*
X64410038Y-55116651D01*
X64430250Y-55109419D01*
X64451074Y-55104203D01*
X64472309Y-55101053D01*
X64493750Y-55100000D01*
X65006250Y-55100000D01*
X65027691Y-55101053D01*
G37*
G36*
X57027691Y-72526053D02*
G01*
X57048926Y-72529203D01*
X57069750Y-72534419D01*
X57089962Y-72541651D01*
X57109368Y-72550830D01*
X57127781Y-72561866D01*
X57145024Y-72574654D01*
X57160930Y-72589070D01*
X57175346Y-72604976D01*
X57188134Y-72622219D01*
X57199170Y-72640632D01*
X57208349Y-72660038D01*
X57215581Y-72680250D01*
X57220797Y-72701074D01*
X57223947Y-72722309D01*
X57225000Y-72743750D01*
X57225000Y-73256250D01*
X57223947Y-73277691D01*
X57220797Y-73298926D01*
X57215581Y-73319750D01*
X57208349Y-73339962D01*
X57199170Y-73359368D01*
X57188134Y-73377781D01*
X57175346Y-73395024D01*
X57160930Y-73410930D01*
X57145024Y-73425346D01*
X57127781Y-73438134D01*
X57109368Y-73449170D01*
X57089962Y-73458349D01*
X57069750Y-73465581D01*
X57048926Y-73470797D01*
X57027691Y-73473947D01*
X57006250Y-73475000D01*
X56568750Y-73475000D01*
X56547309Y-73473947D01*
X56526074Y-73470797D01*
X56505250Y-73465581D01*
X56485038Y-73458349D01*
X56465632Y-73449170D01*
X56447219Y-73438134D01*
X56429976Y-73425346D01*
X56414070Y-73410930D01*
X56399654Y-73395024D01*
X56386866Y-73377781D01*
X56375830Y-73359368D01*
X56366651Y-73339962D01*
X56359419Y-73319750D01*
X56354203Y-73298926D01*
X56351053Y-73277691D01*
X56350000Y-73256250D01*
X56350000Y-72743750D01*
X56351053Y-72722309D01*
X56354203Y-72701074D01*
X56359419Y-72680250D01*
X56366651Y-72660038D01*
X56375830Y-72640632D01*
X56386866Y-72622219D01*
X56399654Y-72604976D01*
X56414070Y-72589070D01*
X56429976Y-72574654D01*
X56447219Y-72561866D01*
X56465632Y-72550830D01*
X56485038Y-72541651D01*
X56505250Y-72534419D01*
X56526074Y-72529203D01*
X56547309Y-72526053D01*
X56568750Y-72525000D01*
X57006250Y-72525000D01*
X57027691Y-72526053D01*
G37*
G36*
X55452691Y-72526053D02*
G01*
X55473926Y-72529203D01*
X55494750Y-72534419D01*
X55514962Y-72541651D01*
X55534368Y-72550830D01*
X55552781Y-72561866D01*
X55570024Y-72574654D01*
X55585930Y-72589070D01*
X55600346Y-72604976D01*
X55613134Y-72622219D01*
X55624170Y-72640632D01*
X55633349Y-72660038D01*
X55640581Y-72680250D01*
X55645797Y-72701074D01*
X55648947Y-72722309D01*
X55650000Y-72743750D01*
X55650000Y-73256250D01*
X55648947Y-73277691D01*
X55645797Y-73298926D01*
X55640581Y-73319750D01*
X55633349Y-73339962D01*
X55624170Y-73359368D01*
X55613134Y-73377781D01*
X55600346Y-73395024D01*
X55585930Y-73410930D01*
X55570024Y-73425346D01*
X55552781Y-73438134D01*
X55534368Y-73449170D01*
X55514962Y-73458349D01*
X55494750Y-73465581D01*
X55473926Y-73470797D01*
X55452691Y-73473947D01*
X55431250Y-73475000D01*
X54993750Y-73475000D01*
X54972309Y-73473947D01*
X54951074Y-73470797D01*
X54930250Y-73465581D01*
X54910038Y-73458349D01*
X54890632Y-73449170D01*
X54872219Y-73438134D01*
X54854976Y-73425346D01*
X54839070Y-73410930D01*
X54824654Y-73395024D01*
X54811866Y-73377781D01*
X54800830Y-73359368D01*
X54791651Y-73339962D01*
X54784419Y-73319750D01*
X54779203Y-73298926D01*
X54776053Y-73277691D01*
X54775000Y-73256250D01*
X54775000Y-72743750D01*
X54776053Y-72722309D01*
X54779203Y-72701074D01*
X54784419Y-72680250D01*
X54791651Y-72660038D01*
X54800830Y-72640632D01*
X54811866Y-72622219D01*
X54824654Y-72604976D01*
X54839070Y-72589070D01*
X54854976Y-72574654D01*
X54872219Y-72561866D01*
X54890632Y-72550830D01*
X54910038Y-72541651D01*
X54930250Y-72534419D01*
X54951074Y-72529203D01*
X54972309Y-72526053D01*
X54993750Y-72525000D01*
X55431250Y-72525000D01*
X55452691Y-72526053D01*
G37*
G36*
X60777691Y-49776053D02*
G01*
X60798926Y-49779203D01*
X60819750Y-49784419D01*
X60839962Y-49791651D01*
X60859368Y-49800830D01*
X60877781Y-49811866D01*
X60895024Y-49824654D01*
X60910930Y-49839070D01*
X60925346Y-49854976D01*
X60938134Y-49872219D01*
X60949170Y-49890632D01*
X60958349Y-49910038D01*
X60965581Y-49930250D01*
X60970797Y-49951074D01*
X60973947Y-49972309D01*
X60975000Y-49993750D01*
X60975000Y-50431250D01*
X60973947Y-50452691D01*
X60970797Y-50473926D01*
X60965581Y-50494750D01*
X60958349Y-50514962D01*
X60949170Y-50534368D01*
X60938134Y-50552781D01*
X60925346Y-50570024D01*
X60910930Y-50585930D01*
X60895024Y-50600346D01*
X60877781Y-50613134D01*
X60859368Y-50624170D01*
X60839962Y-50633349D01*
X60819750Y-50640581D01*
X60798926Y-50645797D01*
X60777691Y-50648947D01*
X60756250Y-50650000D01*
X60243750Y-50650000D01*
X60222309Y-50648947D01*
X60201074Y-50645797D01*
X60180250Y-50640581D01*
X60160038Y-50633349D01*
X60140632Y-50624170D01*
X60122219Y-50613134D01*
X60104976Y-50600346D01*
X60089070Y-50585930D01*
X60074654Y-50570024D01*
X60061866Y-50552781D01*
X60050830Y-50534368D01*
X60041651Y-50514962D01*
X60034419Y-50494750D01*
X60029203Y-50473926D01*
X60026053Y-50452691D01*
X60025000Y-50431250D01*
X60025000Y-49993750D01*
X60026053Y-49972309D01*
X60029203Y-49951074D01*
X60034419Y-49930250D01*
X60041651Y-49910038D01*
X60050830Y-49890632D01*
X60061866Y-49872219D01*
X60074654Y-49854976D01*
X60089070Y-49839070D01*
X60104976Y-49824654D01*
X60122219Y-49811866D01*
X60140632Y-49800830D01*
X60160038Y-49791651D01*
X60180250Y-49784419D01*
X60201074Y-49779203D01*
X60222309Y-49776053D01*
X60243750Y-49775000D01*
X60756250Y-49775000D01*
X60777691Y-49776053D01*
G37*
G36*
X60777691Y-51351053D02*
G01*
X60798926Y-51354203D01*
X60819750Y-51359419D01*
X60839962Y-51366651D01*
X60859368Y-51375830D01*
X60877781Y-51386866D01*
X60895024Y-51399654D01*
X60910930Y-51414070D01*
X60925346Y-51429976D01*
X60938134Y-51447219D01*
X60949170Y-51465632D01*
X60958349Y-51485038D01*
X60965581Y-51505250D01*
X60970797Y-51526074D01*
X60973947Y-51547309D01*
X60975000Y-51568750D01*
X60975000Y-52006250D01*
X60973947Y-52027691D01*
X60970797Y-52048926D01*
X60965581Y-52069750D01*
X60958349Y-52089962D01*
X60949170Y-52109368D01*
X60938134Y-52127781D01*
X60925346Y-52145024D01*
X60910930Y-52160930D01*
X60895024Y-52175346D01*
X60877781Y-52188134D01*
X60859368Y-52199170D01*
X60839962Y-52208349D01*
X60819750Y-52215581D01*
X60798926Y-52220797D01*
X60777691Y-52223947D01*
X60756250Y-52225000D01*
X60243750Y-52225000D01*
X60222309Y-52223947D01*
X60201074Y-52220797D01*
X60180250Y-52215581D01*
X60160038Y-52208349D01*
X60140632Y-52199170D01*
X60122219Y-52188134D01*
X60104976Y-52175346D01*
X60089070Y-52160930D01*
X60074654Y-52145024D01*
X60061866Y-52127781D01*
X60050830Y-52109368D01*
X60041651Y-52089962D01*
X60034419Y-52069750D01*
X60029203Y-52048926D01*
X60026053Y-52027691D01*
X60025000Y-52006250D01*
X60025000Y-51568750D01*
X60026053Y-51547309D01*
X60029203Y-51526074D01*
X60034419Y-51505250D01*
X60041651Y-51485038D01*
X60050830Y-51465632D01*
X60061866Y-51447219D01*
X60074654Y-51429976D01*
X60089070Y-51414070D01*
X60104976Y-51399654D01*
X60122219Y-51386866D01*
X60140632Y-51375830D01*
X60160038Y-51366651D01*
X60180250Y-51359419D01*
X60201074Y-51354203D01*
X60222309Y-51351053D01*
X60243750Y-51350000D01*
X60756250Y-51350000D01*
X60777691Y-51351053D01*
G37*
G36*
X51452691Y-72526053D02*
G01*
X51473926Y-72529203D01*
X51494750Y-72534419D01*
X51514962Y-72541651D01*
X51534368Y-72550830D01*
X51552781Y-72561866D01*
X51570024Y-72574654D01*
X51585930Y-72589070D01*
X51600346Y-72604976D01*
X51613134Y-72622219D01*
X51624170Y-72640632D01*
X51633349Y-72660038D01*
X51640581Y-72680250D01*
X51645797Y-72701074D01*
X51648947Y-72722309D01*
X51650000Y-72743750D01*
X51650000Y-73256250D01*
X51648947Y-73277691D01*
X51645797Y-73298926D01*
X51640581Y-73319750D01*
X51633349Y-73339962D01*
X51624170Y-73359368D01*
X51613134Y-73377781D01*
X51600346Y-73395024D01*
X51585930Y-73410930D01*
X51570024Y-73425346D01*
X51552781Y-73438134D01*
X51534368Y-73449170D01*
X51514962Y-73458349D01*
X51494750Y-73465581D01*
X51473926Y-73470797D01*
X51452691Y-73473947D01*
X51431250Y-73475000D01*
X50993750Y-73475000D01*
X50972309Y-73473947D01*
X50951074Y-73470797D01*
X50930250Y-73465581D01*
X50910038Y-73458349D01*
X50890632Y-73449170D01*
X50872219Y-73438134D01*
X50854976Y-73425346D01*
X50839070Y-73410930D01*
X50824654Y-73395024D01*
X50811866Y-73377781D01*
X50800830Y-73359368D01*
X50791651Y-73339962D01*
X50784419Y-73319750D01*
X50779203Y-73298926D01*
X50776053Y-73277691D01*
X50775000Y-73256250D01*
X50775000Y-72743750D01*
X50776053Y-72722309D01*
X50779203Y-72701074D01*
X50784419Y-72680250D01*
X50791651Y-72660038D01*
X50800830Y-72640632D01*
X50811866Y-72622219D01*
X50824654Y-72604976D01*
X50839070Y-72589070D01*
X50854976Y-72574654D01*
X50872219Y-72561866D01*
X50890632Y-72550830D01*
X50910038Y-72541651D01*
X50930250Y-72534419D01*
X50951074Y-72529203D01*
X50972309Y-72526053D01*
X50993750Y-72525000D01*
X51431250Y-72525000D01*
X51452691Y-72526053D01*
G37*
G36*
X53027691Y-72526053D02*
G01*
X53048926Y-72529203D01*
X53069750Y-72534419D01*
X53089962Y-72541651D01*
X53109368Y-72550830D01*
X53127781Y-72561866D01*
X53145024Y-72574654D01*
X53160930Y-72589070D01*
X53175346Y-72604976D01*
X53188134Y-72622219D01*
X53199170Y-72640632D01*
X53208349Y-72660038D01*
X53215581Y-72680250D01*
X53220797Y-72701074D01*
X53223947Y-72722309D01*
X53225000Y-72743750D01*
X53225000Y-73256250D01*
X53223947Y-73277691D01*
X53220797Y-73298926D01*
X53215581Y-73319750D01*
X53208349Y-73339962D01*
X53199170Y-73359368D01*
X53188134Y-73377781D01*
X53175346Y-73395024D01*
X53160930Y-73410930D01*
X53145024Y-73425346D01*
X53127781Y-73438134D01*
X53109368Y-73449170D01*
X53089962Y-73458349D01*
X53069750Y-73465581D01*
X53048926Y-73470797D01*
X53027691Y-73473947D01*
X53006250Y-73475000D01*
X52568750Y-73475000D01*
X52547309Y-73473947D01*
X52526074Y-73470797D01*
X52505250Y-73465581D01*
X52485038Y-73458349D01*
X52465632Y-73449170D01*
X52447219Y-73438134D01*
X52429976Y-73425346D01*
X52414070Y-73410930D01*
X52399654Y-73395024D01*
X52386866Y-73377781D01*
X52375830Y-73359368D01*
X52366651Y-73339962D01*
X52359419Y-73319750D01*
X52354203Y-73298926D01*
X52351053Y-73277691D01*
X52350000Y-73256250D01*
X52350000Y-72743750D01*
X52351053Y-72722309D01*
X52354203Y-72701074D01*
X52359419Y-72680250D01*
X52366651Y-72660038D01*
X52375830Y-72640632D01*
X52386866Y-72622219D01*
X52399654Y-72604976D01*
X52414070Y-72589070D01*
X52429976Y-72574654D01*
X52447219Y-72561866D01*
X52465632Y-72550830D01*
X52485038Y-72541651D01*
X52505250Y-72534419D01*
X52526074Y-72529203D01*
X52547309Y-72526053D01*
X52568750Y-72525000D01*
X53006250Y-72525000D01*
X53027691Y-72526053D01*
G37*
G36*
X113027691Y-51101053D02*
G01*
X113048926Y-51104203D01*
X113069750Y-51109419D01*
X113089962Y-51116651D01*
X113109368Y-51125830D01*
X113127781Y-51136866D01*
X113145024Y-51149654D01*
X113160930Y-51164070D01*
X113175346Y-51179976D01*
X113188134Y-51197219D01*
X113199170Y-51215632D01*
X113208349Y-51235038D01*
X113215581Y-51255250D01*
X113220797Y-51276074D01*
X113223947Y-51297309D01*
X113225000Y-51318750D01*
X113225000Y-51756250D01*
X113223947Y-51777691D01*
X113220797Y-51798926D01*
X113215581Y-51819750D01*
X113208349Y-51839962D01*
X113199170Y-51859368D01*
X113188134Y-51877781D01*
X113175346Y-51895024D01*
X113160930Y-51910930D01*
X113145024Y-51925346D01*
X113127781Y-51938134D01*
X113109368Y-51949170D01*
X113089962Y-51958349D01*
X113069750Y-51965581D01*
X113048926Y-51970797D01*
X113027691Y-51973947D01*
X113006250Y-51975000D01*
X112493750Y-51975000D01*
X112472309Y-51973947D01*
X112451074Y-51970797D01*
X112430250Y-51965581D01*
X112410038Y-51958349D01*
X112390632Y-51949170D01*
X112372219Y-51938134D01*
X112354976Y-51925346D01*
X112339070Y-51910930D01*
X112324654Y-51895024D01*
X112311866Y-51877781D01*
X112300830Y-51859368D01*
X112291651Y-51839962D01*
X112284419Y-51819750D01*
X112279203Y-51798926D01*
X112276053Y-51777691D01*
X112275000Y-51756250D01*
X112275000Y-51318750D01*
X112276053Y-51297309D01*
X112279203Y-51276074D01*
X112284419Y-51255250D01*
X112291651Y-51235038D01*
X112300830Y-51215632D01*
X112311866Y-51197219D01*
X112324654Y-51179976D01*
X112339070Y-51164070D01*
X112354976Y-51149654D01*
X112372219Y-51136866D01*
X112390632Y-51125830D01*
X112410038Y-51116651D01*
X112430250Y-51109419D01*
X112451074Y-51104203D01*
X112472309Y-51101053D01*
X112493750Y-51100000D01*
X113006250Y-51100000D01*
X113027691Y-51101053D01*
G37*
G36*
X113027691Y-49526053D02*
G01*
X113048926Y-49529203D01*
X113069750Y-49534419D01*
X113089962Y-49541651D01*
X113109368Y-49550830D01*
X113127781Y-49561866D01*
X113145024Y-49574654D01*
X113160930Y-49589070D01*
X113175346Y-49604976D01*
X113188134Y-49622219D01*
X113199170Y-49640632D01*
X113208349Y-49660038D01*
X113215581Y-49680250D01*
X113220797Y-49701074D01*
X113223947Y-49722309D01*
X113225000Y-49743750D01*
X113225000Y-50181250D01*
X113223947Y-50202691D01*
X113220797Y-50223926D01*
X113215581Y-50244750D01*
X113208349Y-50264962D01*
X113199170Y-50284368D01*
X113188134Y-50302781D01*
X113175346Y-50320024D01*
X113160930Y-50335930D01*
X113145024Y-50350346D01*
X113127781Y-50363134D01*
X113109368Y-50374170D01*
X113089962Y-50383349D01*
X113069750Y-50390581D01*
X113048926Y-50395797D01*
X113027691Y-50398947D01*
X113006250Y-50400000D01*
X112493750Y-50400000D01*
X112472309Y-50398947D01*
X112451074Y-50395797D01*
X112430250Y-50390581D01*
X112410038Y-50383349D01*
X112390632Y-50374170D01*
X112372219Y-50363134D01*
X112354976Y-50350346D01*
X112339070Y-50335930D01*
X112324654Y-50320024D01*
X112311866Y-50302781D01*
X112300830Y-50284368D01*
X112291651Y-50264962D01*
X112284419Y-50244750D01*
X112279203Y-50223926D01*
X112276053Y-50202691D01*
X112275000Y-50181250D01*
X112275000Y-49743750D01*
X112276053Y-49722309D01*
X112279203Y-49701074D01*
X112284419Y-49680250D01*
X112291651Y-49660038D01*
X112300830Y-49640632D01*
X112311866Y-49622219D01*
X112324654Y-49604976D01*
X112339070Y-49589070D01*
X112354976Y-49574654D01*
X112372219Y-49561866D01*
X112390632Y-49550830D01*
X112410038Y-49541651D01*
X112430250Y-49534419D01*
X112451074Y-49529203D01*
X112472309Y-49526053D01*
X112493750Y-49525000D01*
X113006250Y-49525000D01*
X113027691Y-49526053D01*
G37*
G36*
X110527691Y-51101053D02*
G01*
X110548926Y-51104203D01*
X110569750Y-51109419D01*
X110589962Y-51116651D01*
X110609368Y-51125830D01*
X110627781Y-51136866D01*
X110645024Y-51149654D01*
X110660930Y-51164070D01*
X110675346Y-51179976D01*
X110688134Y-51197219D01*
X110699170Y-51215632D01*
X110708349Y-51235038D01*
X110715581Y-51255250D01*
X110720797Y-51276074D01*
X110723947Y-51297309D01*
X110725000Y-51318750D01*
X110725000Y-51756250D01*
X110723947Y-51777691D01*
X110720797Y-51798926D01*
X110715581Y-51819750D01*
X110708349Y-51839962D01*
X110699170Y-51859368D01*
X110688134Y-51877781D01*
X110675346Y-51895024D01*
X110660930Y-51910930D01*
X110645024Y-51925346D01*
X110627781Y-51938134D01*
X110609368Y-51949170D01*
X110589962Y-51958349D01*
X110569750Y-51965581D01*
X110548926Y-51970797D01*
X110527691Y-51973947D01*
X110506250Y-51975000D01*
X109993750Y-51975000D01*
X109972309Y-51973947D01*
X109951074Y-51970797D01*
X109930250Y-51965581D01*
X109910038Y-51958349D01*
X109890632Y-51949170D01*
X109872219Y-51938134D01*
X109854976Y-51925346D01*
X109839070Y-51910930D01*
X109824654Y-51895024D01*
X109811866Y-51877781D01*
X109800830Y-51859368D01*
X109791651Y-51839962D01*
X109784419Y-51819750D01*
X109779203Y-51798926D01*
X109776053Y-51777691D01*
X109775000Y-51756250D01*
X109775000Y-51318750D01*
X109776053Y-51297309D01*
X109779203Y-51276074D01*
X109784419Y-51255250D01*
X109791651Y-51235038D01*
X109800830Y-51215632D01*
X109811866Y-51197219D01*
X109824654Y-51179976D01*
X109839070Y-51164070D01*
X109854976Y-51149654D01*
X109872219Y-51136866D01*
X109890632Y-51125830D01*
X109910038Y-51116651D01*
X109930250Y-51109419D01*
X109951074Y-51104203D01*
X109972309Y-51101053D01*
X109993750Y-51100000D01*
X110506250Y-51100000D01*
X110527691Y-51101053D01*
G37*
G36*
X110527691Y-49526053D02*
G01*
X110548926Y-49529203D01*
X110569750Y-49534419D01*
X110589962Y-49541651D01*
X110609368Y-49550830D01*
X110627781Y-49561866D01*
X110645024Y-49574654D01*
X110660930Y-49589070D01*
X110675346Y-49604976D01*
X110688134Y-49622219D01*
X110699170Y-49640632D01*
X110708349Y-49660038D01*
X110715581Y-49680250D01*
X110720797Y-49701074D01*
X110723947Y-49722309D01*
X110725000Y-49743750D01*
X110725000Y-50181250D01*
X110723947Y-50202691D01*
X110720797Y-50223926D01*
X110715581Y-50244750D01*
X110708349Y-50264962D01*
X110699170Y-50284368D01*
X110688134Y-50302781D01*
X110675346Y-50320024D01*
X110660930Y-50335930D01*
X110645024Y-50350346D01*
X110627781Y-50363134D01*
X110609368Y-50374170D01*
X110589962Y-50383349D01*
X110569750Y-50390581D01*
X110548926Y-50395797D01*
X110527691Y-50398947D01*
X110506250Y-50400000D01*
X109993750Y-50400000D01*
X109972309Y-50398947D01*
X109951074Y-50395797D01*
X109930250Y-50390581D01*
X109910038Y-50383349D01*
X109890632Y-50374170D01*
X109872219Y-50363134D01*
X109854976Y-50350346D01*
X109839070Y-50335930D01*
X109824654Y-50320024D01*
X109811866Y-50302781D01*
X109800830Y-50284368D01*
X109791651Y-50264962D01*
X109784419Y-50244750D01*
X109779203Y-50223926D01*
X109776053Y-50202691D01*
X109775000Y-50181250D01*
X109775000Y-49743750D01*
X109776053Y-49722309D01*
X109779203Y-49701074D01*
X109784419Y-49680250D01*
X109791651Y-49660038D01*
X109800830Y-49640632D01*
X109811866Y-49622219D01*
X109824654Y-49604976D01*
X109839070Y-49589070D01*
X109854976Y-49574654D01*
X109872219Y-49561866D01*
X109890632Y-49550830D01*
X109910038Y-49541651D01*
X109930250Y-49534419D01*
X109951074Y-49529203D01*
X109972309Y-49526053D01*
X109993750Y-49525000D01*
X110506250Y-49525000D01*
X110527691Y-49526053D01*
G37*
G36*
X58952691Y-72526053D02*
G01*
X58973926Y-72529203D01*
X58994750Y-72534419D01*
X59014962Y-72541651D01*
X59034368Y-72550830D01*
X59052781Y-72561866D01*
X59070024Y-72574654D01*
X59085930Y-72589070D01*
X59100346Y-72604976D01*
X59113134Y-72622219D01*
X59124170Y-72640632D01*
X59133349Y-72660038D01*
X59140581Y-72680250D01*
X59145797Y-72701074D01*
X59148947Y-72722309D01*
X59150000Y-72743750D01*
X59150000Y-73256250D01*
X59148947Y-73277691D01*
X59145797Y-73298926D01*
X59140581Y-73319750D01*
X59133349Y-73339962D01*
X59124170Y-73359368D01*
X59113134Y-73377781D01*
X59100346Y-73395024D01*
X59085930Y-73410930D01*
X59070024Y-73425346D01*
X59052781Y-73438134D01*
X59034368Y-73449170D01*
X59014962Y-73458349D01*
X58994750Y-73465581D01*
X58973926Y-73470797D01*
X58952691Y-73473947D01*
X58931250Y-73475000D01*
X58493750Y-73475000D01*
X58472309Y-73473947D01*
X58451074Y-73470797D01*
X58430250Y-73465581D01*
X58410038Y-73458349D01*
X58390632Y-73449170D01*
X58372219Y-73438134D01*
X58354976Y-73425346D01*
X58339070Y-73410930D01*
X58324654Y-73395024D01*
X58311866Y-73377781D01*
X58300830Y-73359368D01*
X58291651Y-73339962D01*
X58284419Y-73319750D01*
X58279203Y-73298926D01*
X58276053Y-73277691D01*
X58275000Y-73256250D01*
X58275000Y-72743750D01*
X58276053Y-72722309D01*
X58279203Y-72701074D01*
X58284419Y-72680250D01*
X58291651Y-72660038D01*
X58300830Y-72640632D01*
X58311866Y-72622219D01*
X58324654Y-72604976D01*
X58339070Y-72589070D01*
X58354976Y-72574654D01*
X58372219Y-72561866D01*
X58390632Y-72550830D01*
X58410038Y-72541651D01*
X58430250Y-72534419D01*
X58451074Y-72529203D01*
X58472309Y-72526053D01*
X58493750Y-72525000D01*
X58931250Y-72525000D01*
X58952691Y-72526053D01*
G37*
G36*
X60527691Y-72526053D02*
G01*
X60548926Y-72529203D01*
X60569750Y-72534419D01*
X60589962Y-72541651D01*
X60609368Y-72550830D01*
X60627781Y-72561866D01*
X60645024Y-72574654D01*
X60660930Y-72589070D01*
X60675346Y-72604976D01*
X60688134Y-72622219D01*
X60699170Y-72640632D01*
X60708349Y-72660038D01*
X60715581Y-72680250D01*
X60720797Y-72701074D01*
X60723947Y-72722309D01*
X60725000Y-72743750D01*
X60725000Y-73256250D01*
X60723947Y-73277691D01*
X60720797Y-73298926D01*
X60715581Y-73319750D01*
X60708349Y-73339962D01*
X60699170Y-73359368D01*
X60688134Y-73377781D01*
X60675346Y-73395024D01*
X60660930Y-73410930D01*
X60645024Y-73425346D01*
X60627781Y-73438134D01*
X60609368Y-73449170D01*
X60589962Y-73458349D01*
X60569750Y-73465581D01*
X60548926Y-73470797D01*
X60527691Y-73473947D01*
X60506250Y-73475000D01*
X60068750Y-73475000D01*
X60047309Y-73473947D01*
X60026074Y-73470797D01*
X60005250Y-73465581D01*
X59985038Y-73458349D01*
X59965632Y-73449170D01*
X59947219Y-73438134D01*
X59929976Y-73425346D01*
X59914070Y-73410930D01*
X59899654Y-73395024D01*
X59886866Y-73377781D01*
X59875830Y-73359368D01*
X59866651Y-73339962D01*
X59859419Y-73319750D01*
X59854203Y-73298926D01*
X59851053Y-73277691D01*
X59850000Y-73256250D01*
X59850000Y-72743750D01*
X59851053Y-72722309D01*
X59854203Y-72701074D01*
X59859419Y-72680250D01*
X59866651Y-72660038D01*
X59875830Y-72640632D01*
X59886866Y-72622219D01*
X59899654Y-72604976D01*
X59914070Y-72589070D01*
X59929976Y-72574654D01*
X59947219Y-72561866D01*
X59965632Y-72550830D01*
X59985038Y-72541651D01*
X60005250Y-72534419D01*
X60026074Y-72529203D01*
X60047309Y-72526053D01*
X60068750Y-72525000D01*
X60506250Y-72525000D01*
X60527691Y-72526053D01*
G37*
G36*
X136527691Y-60601053D02*
G01*
X136548926Y-60604203D01*
X136569750Y-60609419D01*
X136589962Y-60616651D01*
X136609368Y-60625830D01*
X136627781Y-60636866D01*
X136645024Y-60649654D01*
X136660930Y-60664070D01*
X136675346Y-60679976D01*
X136688134Y-60697219D01*
X136699170Y-60715632D01*
X136708349Y-60735038D01*
X136715581Y-60755250D01*
X136720797Y-60776074D01*
X136723947Y-60797309D01*
X136725000Y-60818750D01*
X136725000Y-61256250D01*
X136723947Y-61277691D01*
X136720797Y-61298926D01*
X136715581Y-61319750D01*
X136708349Y-61339962D01*
X136699170Y-61359368D01*
X136688134Y-61377781D01*
X136675346Y-61395024D01*
X136660930Y-61410930D01*
X136645024Y-61425346D01*
X136627781Y-61438134D01*
X136609368Y-61449170D01*
X136589962Y-61458349D01*
X136569750Y-61465581D01*
X136548926Y-61470797D01*
X136527691Y-61473947D01*
X136506250Y-61475000D01*
X135993750Y-61475000D01*
X135972309Y-61473947D01*
X135951074Y-61470797D01*
X135930250Y-61465581D01*
X135910038Y-61458349D01*
X135890632Y-61449170D01*
X135872219Y-61438134D01*
X135854976Y-61425346D01*
X135839070Y-61410930D01*
X135824654Y-61395024D01*
X135811866Y-61377781D01*
X135800830Y-61359368D01*
X135791651Y-61339962D01*
X135784419Y-61319750D01*
X135779203Y-61298926D01*
X135776053Y-61277691D01*
X135775000Y-61256250D01*
X135775000Y-60818750D01*
X135776053Y-60797309D01*
X135779203Y-60776074D01*
X135784419Y-60755250D01*
X135791651Y-60735038D01*
X135800830Y-60715632D01*
X135811866Y-60697219D01*
X135824654Y-60679976D01*
X135839070Y-60664070D01*
X135854976Y-60649654D01*
X135872219Y-60636866D01*
X135890632Y-60625830D01*
X135910038Y-60616651D01*
X135930250Y-60609419D01*
X135951074Y-60604203D01*
X135972309Y-60601053D01*
X135993750Y-60600000D01*
X136506250Y-60600000D01*
X136527691Y-60601053D01*
G37*
G36*
X136527691Y-59026053D02*
G01*
X136548926Y-59029203D01*
X136569750Y-59034419D01*
X136589962Y-59041651D01*
X136609368Y-59050830D01*
X136627781Y-59061866D01*
X136645024Y-59074654D01*
X136660930Y-59089070D01*
X136675346Y-59104976D01*
X136688134Y-59122219D01*
X136699170Y-59140632D01*
X136708349Y-59160038D01*
X136715581Y-59180250D01*
X136720797Y-59201074D01*
X136723947Y-59222309D01*
X136725000Y-59243750D01*
X136725000Y-59681250D01*
X136723947Y-59702691D01*
X136720797Y-59723926D01*
X136715581Y-59744750D01*
X136708349Y-59764962D01*
X136699170Y-59784368D01*
X136688134Y-59802781D01*
X136675346Y-59820024D01*
X136660930Y-59835930D01*
X136645024Y-59850346D01*
X136627781Y-59863134D01*
X136609368Y-59874170D01*
X136589962Y-59883349D01*
X136569750Y-59890581D01*
X136548926Y-59895797D01*
X136527691Y-59898947D01*
X136506250Y-59900000D01*
X135993750Y-59900000D01*
X135972309Y-59898947D01*
X135951074Y-59895797D01*
X135930250Y-59890581D01*
X135910038Y-59883349D01*
X135890632Y-59874170D01*
X135872219Y-59863134D01*
X135854976Y-59850346D01*
X135839070Y-59835930D01*
X135824654Y-59820024D01*
X135811866Y-59802781D01*
X135800830Y-59784368D01*
X135791651Y-59764962D01*
X135784419Y-59744750D01*
X135779203Y-59723926D01*
X135776053Y-59702691D01*
X135775000Y-59681250D01*
X135775000Y-59243750D01*
X135776053Y-59222309D01*
X135779203Y-59201074D01*
X135784419Y-59180250D01*
X135791651Y-59160038D01*
X135800830Y-59140632D01*
X135811866Y-59122219D01*
X135824654Y-59104976D01*
X135839070Y-59089070D01*
X135854976Y-59074654D01*
X135872219Y-59061866D01*
X135890632Y-59050830D01*
X135910038Y-59041651D01*
X135930250Y-59034419D01*
X135951074Y-59029203D01*
X135972309Y-59026053D01*
X135993750Y-59025000D01*
X136506250Y-59025000D01*
X136527691Y-59026053D01*
G37*
G36*
X105777691Y-67276053D02*
G01*
X105798926Y-67279203D01*
X105819750Y-67284419D01*
X105839962Y-67291651D01*
X105859368Y-67300830D01*
X105877781Y-67311866D01*
X105895024Y-67324654D01*
X105910930Y-67339070D01*
X105925346Y-67354976D01*
X105938134Y-67372219D01*
X105949170Y-67390632D01*
X105958349Y-67410038D01*
X105965581Y-67430250D01*
X105970797Y-67451074D01*
X105973947Y-67472309D01*
X105975000Y-67493750D01*
X105975000Y-67931250D01*
X105973947Y-67952691D01*
X105970797Y-67973926D01*
X105965581Y-67994750D01*
X105958349Y-68014962D01*
X105949170Y-68034368D01*
X105938134Y-68052781D01*
X105925346Y-68070024D01*
X105910930Y-68085930D01*
X105895024Y-68100346D01*
X105877781Y-68113134D01*
X105859368Y-68124170D01*
X105839962Y-68133349D01*
X105819750Y-68140581D01*
X105798926Y-68145797D01*
X105777691Y-68148947D01*
X105756250Y-68150000D01*
X105243750Y-68150000D01*
X105222309Y-68148947D01*
X105201074Y-68145797D01*
X105180250Y-68140581D01*
X105160038Y-68133349D01*
X105140632Y-68124170D01*
X105122219Y-68113134D01*
X105104976Y-68100346D01*
X105089070Y-68085930D01*
X105074654Y-68070024D01*
X105061866Y-68052781D01*
X105050830Y-68034368D01*
X105041651Y-68014962D01*
X105034419Y-67994750D01*
X105029203Y-67973926D01*
X105026053Y-67952691D01*
X105025000Y-67931250D01*
X105025000Y-67493750D01*
X105026053Y-67472309D01*
X105029203Y-67451074D01*
X105034419Y-67430250D01*
X105041651Y-67410038D01*
X105050830Y-67390632D01*
X105061866Y-67372219D01*
X105074654Y-67354976D01*
X105089070Y-67339070D01*
X105104976Y-67324654D01*
X105122219Y-67311866D01*
X105140632Y-67300830D01*
X105160038Y-67291651D01*
X105180250Y-67284419D01*
X105201074Y-67279203D01*
X105222309Y-67276053D01*
X105243750Y-67275000D01*
X105756250Y-67275000D01*
X105777691Y-67276053D01*
G37*
G36*
X105777691Y-68851053D02*
G01*
X105798926Y-68854203D01*
X105819750Y-68859419D01*
X105839962Y-68866651D01*
X105859368Y-68875830D01*
X105877781Y-68886866D01*
X105895024Y-68899654D01*
X105910930Y-68914070D01*
X105925346Y-68929976D01*
X105938134Y-68947219D01*
X105949170Y-68965632D01*
X105958349Y-68985038D01*
X105965581Y-69005250D01*
X105970797Y-69026074D01*
X105973947Y-69047309D01*
X105975000Y-69068750D01*
X105975000Y-69506250D01*
X105973947Y-69527691D01*
X105970797Y-69548926D01*
X105965581Y-69569750D01*
X105958349Y-69589962D01*
X105949170Y-69609368D01*
X105938134Y-69627781D01*
X105925346Y-69645024D01*
X105910930Y-69660930D01*
X105895024Y-69675346D01*
X105877781Y-69688134D01*
X105859368Y-69699170D01*
X105839962Y-69708349D01*
X105819750Y-69715581D01*
X105798926Y-69720797D01*
X105777691Y-69723947D01*
X105756250Y-69725000D01*
X105243750Y-69725000D01*
X105222309Y-69723947D01*
X105201074Y-69720797D01*
X105180250Y-69715581D01*
X105160038Y-69708349D01*
X105140632Y-69699170D01*
X105122219Y-69688134D01*
X105104976Y-69675346D01*
X105089070Y-69660930D01*
X105074654Y-69645024D01*
X105061866Y-69627781D01*
X105050830Y-69609368D01*
X105041651Y-69589962D01*
X105034419Y-69569750D01*
X105029203Y-69548926D01*
X105026053Y-69527691D01*
X105025000Y-69506250D01*
X105025000Y-69068750D01*
X105026053Y-69047309D01*
X105029203Y-69026074D01*
X105034419Y-69005250D01*
X105041651Y-68985038D01*
X105050830Y-68965632D01*
X105061866Y-68947219D01*
X105074654Y-68929976D01*
X105089070Y-68914070D01*
X105104976Y-68899654D01*
X105122219Y-68886866D01*
X105140632Y-68875830D01*
X105160038Y-68866651D01*
X105180250Y-68859419D01*
X105201074Y-68854203D01*
X105222309Y-68851053D01*
X105243750Y-68850000D01*
X105756250Y-68850000D01*
X105777691Y-68851053D01*
G37*
G36*
X119452691Y-97276053D02*
G01*
X119473926Y-97279203D01*
X119494750Y-97284419D01*
X119514962Y-97291651D01*
X119534368Y-97300830D01*
X119552781Y-97311866D01*
X119570024Y-97324654D01*
X119585930Y-97339070D01*
X119600346Y-97354976D01*
X119613134Y-97372219D01*
X119624170Y-97390632D01*
X119633349Y-97410038D01*
X119640581Y-97430250D01*
X119645797Y-97451074D01*
X119648947Y-97472309D01*
X119650000Y-97493750D01*
X119650000Y-98006250D01*
X119648947Y-98027691D01*
X119645797Y-98048926D01*
X119640581Y-98069750D01*
X119633349Y-98089962D01*
X119624170Y-98109368D01*
X119613134Y-98127781D01*
X119600346Y-98145024D01*
X119585930Y-98160930D01*
X119570024Y-98175346D01*
X119552781Y-98188134D01*
X119534368Y-98199170D01*
X119514962Y-98208349D01*
X119494750Y-98215581D01*
X119473926Y-98220797D01*
X119452691Y-98223947D01*
X119431250Y-98225000D01*
X118993750Y-98225000D01*
X118972309Y-98223947D01*
X118951074Y-98220797D01*
X118930250Y-98215581D01*
X118910038Y-98208349D01*
X118890632Y-98199170D01*
X118872219Y-98188134D01*
X118854976Y-98175346D01*
X118839070Y-98160930D01*
X118824654Y-98145024D01*
X118811866Y-98127781D01*
X118800830Y-98109368D01*
X118791651Y-98089962D01*
X118784419Y-98069750D01*
X118779203Y-98048926D01*
X118776053Y-98027691D01*
X118775000Y-98006250D01*
X118775000Y-97493750D01*
X118776053Y-97472309D01*
X118779203Y-97451074D01*
X118784419Y-97430250D01*
X118791651Y-97410038D01*
X118800830Y-97390632D01*
X118811866Y-97372219D01*
X118824654Y-97354976D01*
X118839070Y-97339070D01*
X118854976Y-97324654D01*
X118872219Y-97311866D01*
X118890632Y-97300830D01*
X118910038Y-97291651D01*
X118930250Y-97284419D01*
X118951074Y-97279203D01*
X118972309Y-97276053D01*
X118993750Y-97275000D01*
X119431250Y-97275000D01*
X119452691Y-97276053D01*
G37*
G36*
X121027691Y-97276053D02*
G01*
X121048926Y-97279203D01*
X121069750Y-97284419D01*
X121089962Y-97291651D01*
X121109368Y-97300830D01*
X121127781Y-97311866D01*
X121145024Y-97324654D01*
X121160930Y-97339070D01*
X121175346Y-97354976D01*
X121188134Y-97372219D01*
X121199170Y-97390632D01*
X121208349Y-97410038D01*
X121215581Y-97430250D01*
X121220797Y-97451074D01*
X121223947Y-97472309D01*
X121225000Y-97493750D01*
X121225000Y-98006250D01*
X121223947Y-98027691D01*
X121220797Y-98048926D01*
X121215581Y-98069750D01*
X121208349Y-98089962D01*
X121199170Y-98109368D01*
X121188134Y-98127781D01*
X121175346Y-98145024D01*
X121160930Y-98160930D01*
X121145024Y-98175346D01*
X121127781Y-98188134D01*
X121109368Y-98199170D01*
X121089962Y-98208349D01*
X121069750Y-98215581D01*
X121048926Y-98220797D01*
X121027691Y-98223947D01*
X121006250Y-98225000D01*
X120568750Y-98225000D01*
X120547309Y-98223947D01*
X120526074Y-98220797D01*
X120505250Y-98215581D01*
X120485038Y-98208349D01*
X120465632Y-98199170D01*
X120447219Y-98188134D01*
X120429976Y-98175346D01*
X120414070Y-98160930D01*
X120399654Y-98145024D01*
X120386866Y-98127781D01*
X120375830Y-98109368D01*
X120366651Y-98089962D01*
X120359419Y-98069750D01*
X120354203Y-98048926D01*
X120351053Y-98027691D01*
X120350000Y-98006250D01*
X120350000Y-97493750D01*
X120351053Y-97472309D01*
X120354203Y-97451074D01*
X120359419Y-97430250D01*
X120366651Y-97410038D01*
X120375830Y-97390632D01*
X120386866Y-97372219D01*
X120399654Y-97354976D01*
X120414070Y-97339070D01*
X120429976Y-97324654D01*
X120447219Y-97311866D01*
X120465632Y-97300830D01*
X120485038Y-97291651D01*
X120505250Y-97284419D01*
X120526074Y-97279203D01*
X120547309Y-97276053D01*
X120568750Y-97275000D01*
X121006250Y-97275000D01*
X121027691Y-97276053D01*
G37*
G36*
X80702691Y-69776053D02*
G01*
X80723926Y-69779203D01*
X80744750Y-69784419D01*
X80764962Y-69791651D01*
X80784368Y-69800830D01*
X80802781Y-69811866D01*
X80820024Y-69824654D01*
X80835930Y-69839070D01*
X80850346Y-69854976D01*
X80863134Y-69872219D01*
X80874170Y-69890632D01*
X80883349Y-69910038D01*
X80890581Y-69930250D01*
X80895797Y-69951074D01*
X80898947Y-69972309D01*
X80900000Y-69993750D01*
X80900000Y-70506250D01*
X80898947Y-70527691D01*
X80895797Y-70548926D01*
X80890581Y-70569750D01*
X80883349Y-70589962D01*
X80874170Y-70609368D01*
X80863134Y-70627781D01*
X80850346Y-70645024D01*
X80835930Y-70660930D01*
X80820024Y-70675346D01*
X80802781Y-70688134D01*
X80784368Y-70699170D01*
X80764962Y-70708349D01*
X80744750Y-70715581D01*
X80723926Y-70720797D01*
X80702691Y-70723947D01*
X80681250Y-70725000D01*
X80243750Y-70725000D01*
X80222309Y-70723947D01*
X80201074Y-70720797D01*
X80180250Y-70715581D01*
X80160038Y-70708349D01*
X80140632Y-70699170D01*
X80122219Y-70688134D01*
X80104976Y-70675346D01*
X80089070Y-70660930D01*
X80074654Y-70645024D01*
X80061866Y-70627781D01*
X80050830Y-70609368D01*
X80041651Y-70589962D01*
X80034419Y-70569750D01*
X80029203Y-70548926D01*
X80026053Y-70527691D01*
X80025000Y-70506250D01*
X80025000Y-69993750D01*
X80026053Y-69972309D01*
X80029203Y-69951074D01*
X80034419Y-69930250D01*
X80041651Y-69910038D01*
X80050830Y-69890632D01*
X80061866Y-69872219D01*
X80074654Y-69854976D01*
X80089070Y-69839070D01*
X80104976Y-69824654D01*
X80122219Y-69811866D01*
X80140632Y-69800830D01*
X80160038Y-69791651D01*
X80180250Y-69784419D01*
X80201074Y-69779203D01*
X80222309Y-69776053D01*
X80243750Y-69775000D01*
X80681250Y-69775000D01*
X80702691Y-69776053D01*
G37*
G36*
X82277691Y-69776053D02*
G01*
X82298926Y-69779203D01*
X82319750Y-69784419D01*
X82339962Y-69791651D01*
X82359368Y-69800830D01*
X82377781Y-69811866D01*
X82395024Y-69824654D01*
X82410930Y-69839070D01*
X82425346Y-69854976D01*
X82438134Y-69872219D01*
X82449170Y-69890632D01*
X82458349Y-69910038D01*
X82465581Y-69930250D01*
X82470797Y-69951074D01*
X82473947Y-69972309D01*
X82475000Y-69993750D01*
X82475000Y-70506250D01*
X82473947Y-70527691D01*
X82470797Y-70548926D01*
X82465581Y-70569750D01*
X82458349Y-70589962D01*
X82449170Y-70609368D01*
X82438134Y-70627781D01*
X82425346Y-70645024D01*
X82410930Y-70660930D01*
X82395024Y-70675346D01*
X82377781Y-70688134D01*
X82359368Y-70699170D01*
X82339962Y-70708349D01*
X82319750Y-70715581D01*
X82298926Y-70720797D01*
X82277691Y-70723947D01*
X82256250Y-70725000D01*
X81818750Y-70725000D01*
X81797309Y-70723947D01*
X81776074Y-70720797D01*
X81755250Y-70715581D01*
X81735038Y-70708349D01*
X81715632Y-70699170D01*
X81697219Y-70688134D01*
X81679976Y-70675346D01*
X81664070Y-70660930D01*
X81649654Y-70645024D01*
X81636866Y-70627781D01*
X81625830Y-70609368D01*
X81616651Y-70589962D01*
X81609419Y-70569750D01*
X81604203Y-70548926D01*
X81601053Y-70527691D01*
X81600000Y-70506250D01*
X81600000Y-69993750D01*
X81601053Y-69972309D01*
X81604203Y-69951074D01*
X81609419Y-69930250D01*
X81616651Y-69910038D01*
X81625830Y-69890632D01*
X81636866Y-69872219D01*
X81649654Y-69854976D01*
X81664070Y-69839070D01*
X81679976Y-69824654D01*
X81697219Y-69811866D01*
X81715632Y-69800830D01*
X81735038Y-69791651D01*
X81755250Y-69784419D01*
X81776074Y-69779203D01*
X81797309Y-69776053D01*
X81818750Y-69775000D01*
X82256250Y-69775000D01*
X82277691Y-69776053D01*
G37*
G36*
X79527691Y-67351053D02*
G01*
X79548926Y-67354203D01*
X79569750Y-67359419D01*
X79589962Y-67366651D01*
X79609368Y-67375830D01*
X79627781Y-67386866D01*
X79645024Y-67399654D01*
X79660930Y-67414070D01*
X79675346Y-67429976D01*
X79688134Y-67447219D01*
X79699170Y-67465632D01*
X79708349Y-67485038D01*
X79715581Y-67505250D01*
X79720797Y-67526074D01*
X79723947Y-67547309D01*
X79725000Y-67568750D01*
X79725000Y-68006250D01*
X79723947Y-68027691D01*
X79720797Y-68048926D01*
X79715581Y-68069750D01*
X79708349Y-68089962D01*
X79699170Y-68109368D01*
X79688134Y-68127781D01*
X79675346Y-68145024D01*
X79660930Y-68160930D01*
X79645024Y-68175346D01*
X79627781Y-68188134D01*
X79609368Y-68199170D01*
X79589962Y-68208349D01*
X79569750Y-68215581D01*
X79548926Y-68220797D01*
X79527691Y-68223947D01*
X79506250Y-68225000D01*
X78993750Y-68225000D01*
X78972309Y-68223947D01*
X78951074Y-68220797D01*
X78930250Y-68215581D01*
X78910038Y-68208349D01*
X78890632Y-68199170D01*
X78872219Y-68188134D01*
X78854976Y-68175346D01*
X78839070Y-68160930D01*
X78824654Y-68145024D01*
X78811866Y-68127781D01*
X78800830Y-68109368D01*
X78791651Y-68089962D01*
X78784419Y-68069750D01*
X78779203Y-68048926D01*
X78776053Y-68027691D01*
X78775000Y-68006250D01*
X78775000Y-67568750D01*
X78776053Y-67547309D01*
X78779203Y-67526074D01*
X78784419Y-67505250D01*
X78791651Y-67485038D01*
X78800830Y-67465632D01*
X78811866Y-67447219D01*
X78824654Y-67429976D01*
X78839070Y-67414070D01*
X78854976Y-67399654D01*
X78872219Y-67386866D01*
X78890632Y-67375830D01*
X78910038Y-67366651D01*
X78930250Y-67359419D01*
X78951074Y-67354203D01*
X78972309Y-67351053D01*
X78993750Y-67350000D01*
X79506250Y-67350000D01*
X79527691Y-67351053D01*
G37*
G36*
X79527691Y-65776053D02*
G01*
X79548926Y-65779203D01*
X79569750Y-65784419D01*
X79589962Y-65791651D01*
X79609368Y-65800830D01*
X79627781Y-65811866D01*
X79645024Y-65824654D01*
X79660930Y-65839070D01*
X79675346Y-65854976D01*
X79688134Y-65872219D01*
X79699170Y-65890632D01*
X79708349Y-65910038D01*
X79715581Y-65930250D01*
X79720797Y-65951074D01*
X79723947Y-65972309D01*
X79725000Y-65993750D01*
X79725000Y-66431250D01*
X79723947Y-66452691D01*
X79720797Y-66473926D01*
X79715581Y-66494750D01*
X79708349Y-66514962D01*
X79699170Y-66534368D01*
X79688134Y-66552781D01*
X79675346Y-66570024D01*
X79660930Y-66585930D01*
X79645024Y-66600346D01*
X79627781Y-66613134D01*
X79609368Y-66624170D01*
X79589962Y-66633349D01*
X79569750Y-66640581D01*
X79548926Y-66645797D01*
X79527691Y-66648947D01*
X79506250Y-66650000D01*
X78993750Y-66650000D01*
X78972309Y-66648947D01*
X78951074Y-66645797D01*
X78930250Y-66640581D01*
X78910038Y-66633349D01*
X78890632Y-66624170D01*
X78872219Y-66613134D01*
X78854976Y-66600346D01*
X78839070Y-66585930D01*
X78824654Y-66570024D01*
X78811866Y-66552781D01*
X78800830Y-66534368D01*
X78791651Y-66514962D01*
X78784419Y-66494750D01*
X78779203Y-66473926D01*
X78776053Y-66452691D01*
X78775000Y-66431250D01*
X78775000Y-65993750D01*
X78776053Y-65972309D01*
X78779203Y-65951074D01*
X78784419Y-65930250D01*
X78791651Y-65910038D01*
X78800830Y-65890632D01*
X78811866Y-65872219D01*
X78824654Y-65854976D01*
X78839070Y-65839070D01*
X78854976Y-65824654D01*
X78872219Y-65811866D01*
X78890632Y-65800830D01*
X78910038Y-65791651D01*
X78930250Y-65784419D01*
X78951074Y-65779203D01*
X78972309Y-65776053D01*
X78993750Y-65775000D01*
X79506250Y-65775000D01*
X79527691Y-65776053D01*
G37*
G36*
X73527691Y-67351053D02*
G01*
X73548926Y-67354203D01*
X73569750Y-67359419D01*
X73589962Y-67366651D01*
X73609368Y-67375830D01*
X73627781Y-67386866D01*
X73645024Y-67399654D01*
X73660930Y-67414070D01*
X73675346Y-67429976D01*
X73688134Y-67447219D01*
X73699170Y-67465632D01*
X73708349Y-67485038D01*
X73715581Y-67505250D01*
X73720797Y-67526074D01*
X73723947Y-67547309D01*
X73725000Y-67568750D01*
X73725000Y-68006250D01*
X73723947Y-68027691D01*
X73720797Y-68048926D01*
X73715581Y-68069750D01*
X73708349Y-68089962D01*
X73699170Y-68109368D01*
X73688134Y-68127781D01*
X73675346Y-68145024D01*
X73660930Y-68160930D01*
X73645024Y-68175346D01*
X73627781Y-68188134D01*
X73609368Y-68199170D01*
X73589962Y-68208349D01*
X73569750Y-68215581D01*
X73548926Y-68220797D01*
X73527691Y-68223947D01*
X73506250Y-68225000D01*
X72993750Y-68225000D01*
X72972309Y-68223947D01*
X72951074Y-68220797D01*
X72930250Y-68215581D01*
X72910038Y-68208349D01*
X72890632Y-68199170D01*
X72872219Y-68188134D01*
X72854976Y-68175346D01*
X72839070Y-68160930D01*
X72824654Y-68145024D01*
X72811866Y-68127781D01*
X72800830Y-68109368D01*
X72791651Y-68089962D01*
X72784419Y-68069750D01*
X72779203Y-68048926D01*
X72776053Y-68027691D01*
X72775000Y-68006250D01*
X72775000Y-67568750D01*
X72776053Y-67547309D01*
X72779203Y-67526074D01*
X72784419Y-67505250D01*
X72791651Y-67485038D01*
X72800830Y-67465632D01*
X72811866Y-67447219D01*
X72824654Y-67429976D01*
X72839070Y-67414070D01*
X72854976Y-67399654D01*
X72872219Y-67386866D01*
X72890632Y-67375830D01*
X72910038Y-67366651D01*
X72930250Y-67359419D01*
X72951074Y-67354203D01*
X72972309Y-67351053D01*
X72993750Y-67350000D01*
X73506250Y-67350000D01*
X73527691Y-67351053D01*
G37*
G36*
X73527691Y-65776053D02*
G01*
X73548926Y-65779203D01*
X73569750Y-65784419D01*
X73589962Y-65791651D01*
X73609368Y-65800830D01*
X73627781Y-65811866D01*
X73645024Y-65824654D01*
X73660930Y-65839070D01*
X73675346Y-65854976D01*
X73688134Y-65872219D01*
X73699170Y-65890632D01*
X73708349Y-65910038D01*
X73715581Y-65930250D01*
X73720797Y-65951074D01*
X73723947Y-65972309D01*
X73725000Y-65993750D01*
X73725000Y-66431250D01*
X73723947Y-66452691D01*
X73720797Y-66473926D01*
X73715581Y-66494750D01*
X73708349Y-66514962D01*
X73699170Y-66534368D01*
X73688134Y-66552781D01*
X73675346Y-66570024D01*
X73660930Y-66585930D01*
X73645024Y-66600346D01*
X73627781Y-66613134D01*
X73609368Y-66624170D01*
X73589962Y-66633349D01*
X73569750Y-66640581D01*
X73548926Y-66645797D01*
X73527691Y-66648947D01*
X73506250Y-66650000D01*
X72993750Y-66650000D01*
X72972309Y-66648947D01*
X72951074Y-66645797D01*
X72930250Y-66640581D01*
X72910038Y-66633349D01*
X72890632Y-66624170D01*
X72872219Y-66613134D01*
X72854976Y-66600346D01*
X72839070Y-66585930D01*
X72824654Y-66570024D01*
X72811866Y-66552781D01*
X72800830Y-66534368D01*
X72791651Y-66514962D01*
X72784419Y-66494750D01*
X72779203Y-66473926D01*
X72776053Y-66452691D01*
X72775000Y-66431250D01*
X72775000Y-65993750D01*
X72776053Y-65972309D01*
X72779203Y-65951074D01*
X72784419Y-65930250D01*
X72791651Y-65910038D01*
X72800830Y-65890632D01*
X72811866Y-65872219D01*
X72824654Y-65854976D01*
X72839070Y-65839070D01*
X72854976Y-65824654D01*
X72872219Y-65811866D01*
X72890632Y-65800830D01*
X72910038Y-65791651D01*
X72930250Y-65784419D01*
X72951074Y-65779203D01*
X72972309Y-65776053D01*
X72993750Y-65775000D01*
X73506250Y-65775000D01*
X73527691Y-65776053D01*
G37*
G36*
X87202691Y-77276053D02*
G01*
X87223926Y-77279203D01*
X87244750Y-77284419D01*
X87264962Y-77291651D01*
X87284368Y-77300830D01*
X87302781Y-77311866D01*
X87320024Y-77324654D01*
X87335930Y-77339070D01*
X87350346Y-77354976D01*
X87363134Y-77372219D01*
X87374170Y-77390632D01*
X87383349Y-77410038D01*
X87390581Y-77430250D01*
X87395797Y-77451074D01*
X87398947Y-77472309D01*
X87400000Y-77493750D01*
X87400000Y-78006250D01*
X87398947Y-78027691D01*
X87395797Y-78048926D01*
X87390581Y-78069750D01*
X87383349Y-78089962D01*
X87374170Y-78109368D01*
X87363134Y-78127781D01*
X87350346Y-78145024D01*
X87335930Y-78160930D01*
X87320024Y-78175346D01*
X87302781Y-78188134D01*
X87284368Y-78199170D01*
X87264962Y-78208349D01*
X87244750Y-78215581D01*
X87223926Y-78220797D01*
X87202691Y-78223947D01*
X87181250Y-78225000D01*
X86743750Y-78225000D01*
X86722309Y-78223947D01*
X86701074Y-78220797D01*
X86680250Y-78215581D01*
X86660038Y-78208349D01*
X86640632Y-78199170D01*
X86622219Y-78188134D01*
X86604976Y-78175346D01*
X86589070Y-78160930D01*
X86574654Y-78145024D01*
X86561866Y-78127781D01*
X86550830Y-78109368D01*
X86541651Y-78089962D01*
X86534419Y-78069750D01*
X86529203Y-78048926D01*
X86526053Y-78027691D01*
X86525000Y-78006250D01*
X86525000Y-77493750D01*
X86526053Y-77472309D01*
X86529203Y-77451074D01*
X86534419Y-77430250D01*
X86541651Y-77410038D01*
X86550830Y-77390632D01*
X86561866Y-77372219D01*
X86574654Y-77354976D01*
X86589070Y-77339070D01*
X86604976Y-77324654D01*
X86622219Y-77311866D01*
X86640632Y-77300830D01*
X86660038Y-77291651D01*
X86680250Y-77284419D01*
X86701074Y-77279203D01*
X86722309Y-77276053D01*
X86743750Y-77275000D01*
X87181250Y-77275000D01*
X87202691Y-77276053D01*
G37*
G36*
X88777691Y-77276053D02*
G01*
X88798926Y-77279203D01*
X88819750Y-77284419D01*
X88839962Y-77291651D01*
X88859368Y-77300830D01*
X88877781Y-77311866D01*
X88895024Y-77324654D01*
X88910930Y-77339070D01*
X88925346Y-77354976D01*
X88938134Y-77372219D01*
X88949170Y-77390632D01*
X88958349Y-77410038D01*
X88965581Y-77430250D01*
X88970797Y-77451074D01*
X88973947Y-77472309D01*
X88975000Y-77493750D01*
X88975000Y-78006250D01*
X88973947Y-78027691D01*
X88970797Y-78048926D01*
X88965581Y-78069750D01*
X88958349Y-78089962D01*
X88949170Y-78109368D01*
X88938134Y-78127781D01*
X88925346Y-78145024D01*
X88910930Y-78160930D01*
X88895024Y-78175346D01*
X88877781Y-78188134D01*
X88859368Y-78199170D01*
X88839962Y-78208349D01*
X88819750Y-78215581D01*
X88798926Y-78220797D01*
X88777691Y-78223947D01*
X88756250Y-78225000D01*
X88318750Y-78225000D01*
X88297309Y-78223947D01*
X88276074Y-78220797D01*
X88255250Y-78215581D01*
X88235038Y-78208349D01*
X88215632Y-78199170D01*
X88197219Y-78188134D01*
X88179976Y-78175346D01*
X88164070Y-78160930D01*
X88149654Y-78145024D01*
X88136866Y-78127781D01*
X88125830Y-78109368D01*
X88116651Y-78089962D01*
X88109419Y-78069750D01*
X88104203Y-78048926D01*
X88101053Y-78027691D01*
X88100000Y-78006250D01*
X88100000Y-77493750D01*
X88101053Y-77472309D01*
X88104203Y-77451074D01*
X88109419Y-77430250D01*
X88116651Y-77410038D01*
X88125830Y-77390632D01*
X88136866Y-77372219D01*
X88149654Y-77354976D01*
X88164070Y-77339070D01*
X88179976Y-77324654D01*
X88197219Y-77311866D01*
X88215632Y-77300830D01*
X88235038Y-77291651D01*
X88255250Y-77284419D01*
X88276074Y-77279203D01*
X88297309Y-77276053D01*
X88318750Y-77275000D01*
X88756250Y-77275000D01*
X88777691Y-77276053D01*
G37*
G36*
X75527691Y-67351053D02*
G01*
X75548926Y-67354203D01*
X75569750Y-67359419D01*
X75589962Y-67366651D01*
X75609368Y-67375830D01*
X75627781Y-67386866D01*
X75645024Y-67399654D01*
X75660930Y-67414070D01*
X75675346Y-67429976D01*
X75688134Y-67447219D01*
X75699170Y-67465632D01*
X75708349Y-67485038D01*
X75715581Y-67505250D01*
X75720797Y-67526074D01*
X75723947Y-67547309D01*
X75725000Y-67568750D01*
X75725000Y-68006250D01*
X75723947Y-68027691D01*
X75720797Y-68048926D01*
X75715581Y-68069750D01*
X75708349Y-68089962D01*
X75699170Y-68109368D01*
X75688134Y-68127781D01*
X75675346Y-68145024D01*
X75660930Y-68160930D01*
X75645024Y-68175346D01*
X75627781Y-68188134D01*
X75609368Y-68199170D01*
X75589962Y-68208349D01*
X75569750Y-68215581D01*
X75548926Y-68220797D01*
X75527691Y-68223947D01*
X75506250Y-68225000D01*
X74993750Y-68225000D01*
X74972309Y-68223947D01*
X74951074Y-68220797D01*
X74930250Y-68215581D01*
X74910038Y-68208349D01*
X74890632Y-68199170D01*
X74872219Y-68188134D01*
X74854976Y-68175346D01*
X74839070Y-68160930D01*
X74824654Y-68145024D01*
X74811866Y-68127781D01*
X74800830Y-68109368D01*
X74791651Y-68089962D01*
X74784419Y-68069750D01*
X74779203Y-68048926D01*
X74776053Y-68027691D01*
X74775000Y-68006250D01*
X74775000Y-67568750D01*
X74776053Y-67547309D01*
X74779203Y-67526074D01*
X74784419Y-67505250D01*
X74791651Y-67485038D01*
X74800830Y-67465632D01*
X74811866Y-67447219D01*
X74824654Y-67429976D01*
X74839070Y-67414070D01*
X74854976Y-67399654D01*
X74872219Y-67386866D01*
X74890632Y-67375830D01*
X74910038Y-67366651D01*
X74930250Y-67359419D01*
X74951074Y-67354203D01*
X74972309Y-67351053D01*
X74993750Y-67350000D01*
X75506250Y-67350000D01*
X75527691Y-67351053D01*
G37*
G36*
X75527691Y-65776053D02*
G01*
X75548926Y-65779203D01*
X75569750Y-65784419D01*
X75589962Y-65791651D01*
X75609368Y-65800830D01*
X75627781Y-65811866D01*
X75645024Y-65824654D01*
X75660930Y-65839070D01*
X75675346Y-65854976D01*
X75688134Y-65872219D01*
X75699170Y-65890632D01*
X75708349Y-65910038D01*
X75715581Y-65930250D01*
X75720797Y-65951074D01*
X75723947Y-65972309D01*
X75725000Y-65993750D01*
X75725000Y-66431250D01*
X75723947Y-66452691D01*
X75720797Y-66473926D01*
X75715581Y-66494750D01*
X75708349Y-66514962D01*
X75699170Y-66534368D01*
X75688134Y-66552781D01*
X75675346Y-66570024D01*
X75660930Y-66585930D01*
X75645024Y-66600346D01*
X75627781Y-66613134D01*
X75609368Y-66624170D01*
X75589962Y-66633349D01*
X75569750Y-66640581D01*
X75548926Y-66645797D01*
X75527691Y-66648947D01*
X75506250Y-66650000D01*
X74993750Y-66650000D01*
X74972309Y-66648947D01*
X74951074Y-66645797D01*
X74930250Y-66640581D01*
X74910038Y-66633349D01*
X74890632Y-66624170D01*
X74872219Y-66613134D01*
X74854976Y-66600346D01*
X74839070Y-66585930D01*
X74824654Y-66570024D01*
X74811866Y-66552781D01*
X74800830Y-66534368D01*
X74791651Y-66514962D01*
X74784419Y-66494750D01*
X74779203Y-66473926D01*
X74776053Y-66452691D01*
X74775000Y-66431250D01*
X74775000Y-65993750D01*
X74776053Y-65972309D01*
X74779203Y-65951074D01*
X74784419Y-65930250D01*
X74791651Y-65910038D01*
X74800830Y-65890632D01*
X74811866Y-65872219D01*
X74824654Y-65854976D01*
X74839070Y-65839070D01*
X74854976Y-65824654D01*
X74872219Y-65811866D01*
X74890632Y-65800830D01*
X74910038Y-65791651D01*
X74930250Y-65784419D01*
X74951074Y-65779203D01*
X74972309Y-65776053D01*
X74993750Y-65775000D01*
X75506250Y-65775000D01*
X75527691Y-65776053D01*
G37*
G36*
X84202691Y-58526053D02*
G01*
X84223926Y-58529203D01*
X84244750Y-58534419D01*
X84264962Y-58541651D01*
X84284368Y-58550830D01*
X84302781Y-58561866D01*
X84320024Y-58574654D01*
X84335930Y-58589070D01*
X84350346Y-58604976D01*
X84363134Y-58622219D01*
X84374170Y-58640632D01*
X84383349Y-58660038D01*
X84390581Y-58680250D01*
X84395797Y-58701074D01*
X84398947Y-58722309D01*
X84400000Y-58743750D01*
X84400000Y-59256250D01*
X84398947Y-59277691D01*
X84395797Y-59298926D01*
X84390581Y-59319750D01*
X84383349Y-59339962D01*
X84374170Y-59359368D01*
X84363134Y-59377781D01*
X84350346Y-59395024D01*
X84335930Y-59410930D01*
X84320024Y-59425346D01*
X84302781Y-59438134D01*
X84284368Y-59449170D01*
X84264962Y-59458349D01*
X84244750Y-59465581D01*
X84223926Y-59470797D01*
X84202691Y-59473947D01*
X84181250Y-59475000D01*
X83743750Y-59475000D01*
X83722309Y-59473947D01*
X83701074Y-59470797D01*
X83680250Y-59465581D01*
X83660038Y-59458349D01*
X83640632Y-59449170D01*
X83622219Y-59438134D01*
X83604976Y-59425346D01*
X83589070Y-59410930D01*
X83574654Y-59395024D01*
X83561866Y-59377781D01*
X83550830Y-59359368D01*
X83541651Y-59339962D01*
X83534419Y-59319750D01*
X83529203Y-59298926D01*
X83526053Y-59277691D01*
X83525000Y-59256250D01*
X83525000Y-58743750D01*
X83526053Y-58722309D01*
X83529203Y-58701074D01*
X83534419Y-58680250D01*
X83541651Y-58660038D01*
X83550830Y-58640632D01*
X83561866Y-58622219D01*
X83574654Y-58604976D01*
X83589070Y-58589070D01*
X83604976Y-58574654D01*
X83622219Y-58561866D01*
X83640632Y-58550830D01*
X83660038Y-58541651D01*
X83680250Y-58534419D01*
X83701074Y-58529203D01*
X83722309Y-58526053D01*
X83743750Y-58525000D01*
X84181250Y-58525000D01*
X84202691Y-58526053D01*
G37*
G36*
X85777691Y-58526053D02*
G01*
X85798926Y-58529203D01*
X85819750Y-58534419D01*
X85839962Y-58541651D01*
X85859368Y-58550830D01*
X85877781Y-58561866D01*
X85895024Y-58574654D01*
X85910930Y-58589070D01*
X85925346Y-58604976D01*
X85938134Y-58622219D01*
X85949170Y-58640632D01*
X85958349Y-58660038D01*
X85965581Y-58680250D01*
X85970797Y-58701074D01*
X85973947Y-58722309D01*
X85975000Y-58743750D01*
X85975000Y-59256250D01*
X85973947Y-59277691D01*
X85970797Y-59298926D01*
X85965581Y-59319750D01*
X85958349Y-59339962D01*
X85949170Y-59359368D01*
X85938134Y-59377781D01*
X85925346Y-59395024D01*
X85910930Y-59410930D01*
X85895024Y-59425346D01*
X85877781Y-59438134D01*
X85859368Y-59449170D01*
X85839962Y-59458349D01*
X85819750Y-59465581D01*
X85798926Y-59470797D01*
X85777691Y-59473947D01*
X85756250Y-59475000D01*
X85318750Y-59475000D01*
X85297309Y-59473947D01*
X85276074Y-59470797D01*
X85255250Y-59465581D01*
X85235038Y-59458349D01*
X85215632Y-59449170D01*
X85197219Y-59438134D01*
X85179976Y-59425346D01*
X85164070Y-59410930D01*
X85149654Y-59395024D01*
X85136866Y-59377781D01*
X85125830Y-59359368D01*
X85116651Y-59339962D01*
X85109419Y-59319750D01*
X85104203Y-59298926D01*
X85101053Y-59277691D01*
X85100000Y-59256250D01*
X85100000Y-58743750D01*
X85101053Y-58722309D01*
X85104203Y-58701074D01*
X85109419Y-58680250D01*
X85116651Y-58660038D01*
X85125830Y-58640632D01*
X85136866Y-58622219D01*
X85149654Y-58604976D01*
X85164070Y-58589070D01*
X85179976Y-58574654D01*
X85197219Y-58561866D01*
X85215632Y-58550830D01*
X85235038Y-58541651D01*
X85255250Y-58534419D01*
X85276074Y-58529203D01*
X85297309Y-58526053D01*
X85318750Y-58525000D01*
X85756250Y-58525000D01*
X85777691Y-58526053D01*
G37*
G36*
X84027691Y-54776053D02*
G01*
X84048926Y-54779203D01*
X84069750Y-54784419D01*
X84089962Y-54791651D01*
X84109368Y-54800830D01*
X84127781Y-54811866D01*
X84145024Y-54824654D01*
X84160930Y-54839070D01*
X84175346Y-54854976D01*
X84188134Y-54872219D01*
X84199170Y-54890632D01*
X84208349Y-54910038D01*
X84215581Y-54930250D01*
X84220797Y-54951074D01*
X84223947Y-54972309D01*
X84225000Y-54993750D01*
X84225000Y-55431250D01*
X84223947Y-55452691D01*
X84220797Y-55473926D01*
X84215581Y-55494750D01*
X84208349Y-55514962D01*
X84199170Y-55534368D01*
X84188134Y-55552781D01*
X84175346Y-55570024D01*
X84160930Y-55585930D01*
X84145024Y-55600346D01*
X84127781Y-55613134D01*
X84109368Y-55624170D01*
X84089962Y-55633349D01*
X84069750Y-55640581D01*
X84048926Y-55645797D01*
X84027691Y-55648947D01*
X84006250Y-55650000D01*
X83493750Y-55650000D01*
X83472309Y-55648947D01*
X83451074Y-55645797D01*
X83430250Y-55640581D01*
X83410038Y-55633349D01*
X83390632Y-55624170D01*
X83372219Y-55613134D01*
X83354976Y-55600346D01*
X83339070Y-55585930D01*
X83324654Y-55570024D01*
X83311866Y-55552781D01*
X83300830Y-55534368D01*
X83291651Y-55514962D01*
X83284419Y-55494750D01*
X83279203Y-55473926D01*
X83276053Y-55452691D01*
X83275000Y-55431250D01*
X83275000Y-54993750D01*
X83276053Y-54972309D01*
X83279203Y-54951074D01*
X83284419Y-54930250D01*
X83291651Y-54910038D01*
X83300830Y-54890632D01*
X83311866Y-54872219D01*
X83324654Y-54854976D01*
X83339070Y-54839070D01*
X83354976Y-54824654D01*
X83372219Y-54811866D01*
X83390632Y-54800830D01*
X83410038Y-54791651D01*
X83430250Y-54784419D01*
X83451074Y-54779203D01*
X83472309Y-54776053D01*
X83493750Y-54775000D01*
X84006250Y-54775000D01*
X84027691Y-54776053D01*
G37*
G36*
X84027691Y-56351053D02*
G01*
X84048926Y-56354203D01*
X84069750Y-56359419D01*
X84089962Y-56366651D01*
X84109368Y-56375830D01*
X84127781Y-56386866D01*
X84145024Y-56399654D01*
X84160930Y-56414070D01*
X84175346Y-56429976D01*
X84188134Y-56447219D01*
X84199170Y-56465632D01*
X84208349Y-56485038D01*
X84215581Y-56505250D01*
X84220797Y-56526074D01*
X84223947Y-56547309D01*
X84225000Y-56568750D01*
X84225000Y-57006250D01*
X84223947Y-57027691D01*
X84220797Y-57048926D01*
X84215581Y-57069750D01*
X84208349Y-57089962D01*
X84199170Y-57109368D01*
X84188134Y-57127781D01*
X84175346Y-57145024D01*
X84160930Y-57160930D01*
X84145024Y-57175346D01*
X84127781Y-57188134D01*
X84109368Y-57199170D01*
X84089962Y-57208349D01*
X84069750Y-57215581D01*
X84048926Y-57220797D01*
X84027691Y-57223947D01*
X84006250Y-57225000D01*
X83493750Y-57225000D01*
X83472309Y-57223947D01*
X83451074Y-57220797D01*
X83430250Y-57215581D01*
X83410038Y-57208349D01*
X83390632Y-57199170D01*
X83372219Y-57188134D01*
X83354976Y-57175346D01*
X83339070Y-57160930D01*
X83324654Y-57145024D01*
X83311866Y-57127781D01*
X83300830Y-57109368D01*
X83291651Y-57089962D01*
X83284419Y-57069750D01*
X83279203Y-57048926D01*
X83276053Y-57027691D01*
X83275000Y-57006250D01*
X83275000Y-56568750D01*
X83276053Y-56547309D01*
X83279203Y-56526074D01*
X83284419Y-56505250D01*
X83291651Y-56485038D01*
X83300830Y-56465632D01*
X83311866Y-56447219D01*
X83324654Y-56429976D01*
X83339070Y-56414070D01*
X83354976Y-56399654D01*
X83372219Y-56386866D01*
X83390632Y-56375830D01*
X83410038Y-56366651D01*
X83430250Y-56359419D01*
X83451074Y-56354203D01*
X83472309Y-56351053D01*
X83493750Y-56350000D01*
X84006250Y-56350000D01*
X84027691Y-56351053D01*
G37*
G36*
X82027691Y-54776053D02*
G01*
X82048926Y-54779203D01*
X82069750Y-54784419D01*
X82089962Y-54791651D01*
X82109368Y-54800830D01*
X82127781Y-54811866D01*
X82145024Y-54824654D01*
X82160930Y-54839070D01*
X82175346Y-54854976D01*
X82188134Y-54872219D01*
X82199170Y-54890632D01*
X82208349Y-54910038D01*
X82215581Y-54930250D01*
X82220797Y-54951074D01*
X82223947Y-54972309D01*
X82225000Y-54993750D01*
X82225000Y-55431250D01*
X82223947Y-55452691D01*
X82220797Y-55473926D01*
X82215581Y-55494750D01*
X82208349Y-55514962D01*
X82199170Y-55534368D01*
X82188134Y-55552781D01*
X82175346Y-55570024D01*
X82160930Y-55585930D01*
X82145024Y-55600346D01*
X82127781Y-55613134D01*
X82109368Y-55624170D01*
X82089962Y-55633349D01*
X82069750Y-55640581D01*
X82048926Y-55645797D01*
X82027691Y-55648947D01*
X82006250Y-55650000D01*
X81493750Y-55650000D01*
X81472309Y-55648947D01*
X81451074Y-55645797D01*
X81430250Y-55640581D01*
X81410038Y-55633349D01*
X81390632Y-55624170D01*
X81372219Y-55613134D01*
X81354976Y-55600346D01*
X81339070Y-55585930D01*
X81324654Y-55570024D01*
X81311866Y-55552781D01*
X81300830Y-55534368D01*
X81291651Y-55514962D01*
X81284419Y-55494750D01*
X81279203Y-55473926D01*
X81276053Y-55452691D01*
X81275000Y-55431250D01*
X81275000Y-54993750D01*
X81276053Y-54972309D01*
X81279203Y-54951074D01*
X81284419Y-54930250D01*
X81291651Y-54910038D01*
X81300830Y-54890632D01*
X81311866Y-54872219D01*
X81324654Y-54854976D01*
X81339070Y-54839070D01*
X81354976Y-54824654D01*
X81372219Y-54811866D01*
X81390632Y-54800830D01*
X81410038Y-54791651D01*
X81430250Y-54784419D01*
X81451074Y-54779203D01*
X81472309Y-54776053D01*
X81493750Y-54775000D01*
X82006250Y-54775000D01*
X82027691Y-54776053D01*
G37*
G36*
X82027691Y-56351053D02*
G01*
X82048926Y-56354203D01*
X82069750Y-56359419D01*
X82089962Y-56366651D01*
X82109368Y-56375830D01*
X82127781Y-56386866D01*
X82145024Y-56399654D01*
X82160930Y-56414070D01*
X82175346Y-56429976D01*
X82188134Y-56447219D01*
X82199170Y-56465632D01*
X82208349Y-56485038D01*
X82215581Y-56505250D01*
X82220797Y-56526074D01*
X82223947Y-56547309D01*
X82225000Y-56568750D01*
X82225000Y-57006250D01*
X82223947Y-57027691D01*
X82220797Y-57048926D01*
X82215581Y-57069750D01*
X82208349Y-57089962D01*
X82199170Y-57109368D01*
X82188134Y-57127781D01*
X82175346Y-57145024D01*
X82160930Y-57160930D01*
X82145024Y-57175346D01*
X82127781Y-57188134D01*
X82109368Y-57199170D01*
X82089962Y-57208349D01*
X82069750Y-57215581D01*
X82048926Y-57220797D01*
X82027691Y-57223947D01*
X82006250Y-57225000D01*
X81493750Y-57225000D01*
X81472309Y-57223947D01*
X81451074Y-57220797D01*
X81430250Y-57215581D01*
X81410038Y-57208349D01*
X81390632Y-57199170D01*
X81372219Y-57188134D01*
X81354976Y-57175346D01*
X81339070Y-57160930D01*
X81324654Y-57145024D01*
X81311866Y-57127781D01*
X81300830Y-57109368D01*
X81291651Y-57089962D01*
X81284419Y-57069750D01*
X81279203Y-57048926D01*
X81276053Y-57027691D01*
X81275000Y-57006250D01*
X81275000Y-56568750D01*
X81276053Y-56547309D01*
X81279203Y-56526074D01*
X81284419Y-56505250D01*
X81291651Y-56485038D01*
X81300830Y-56465632D01*
X81311866Y-56447219D01*
X81324654Y-56429976D01*
X81339070Y-56414070D01*
X81354976Y-56399654D01*
X81372219Y-56386866D01*
X81390632Y-56375830D01*
X81410038Y-56366651D01*
X81430250Y-56359419D01*
X81451074Y-56354203D01*
X81472309Y-56351053D01*
X81493750Y-56350000D01*
X82006250Y-56350000D01*
X82027691Y-56351053D01*
G37*
G36*
X78027691Y-56351053D02*
G01*
X78048926Y-56354203D01*
X78069750Y-56359419D01*
X78089962Y-56366651D01*
X78109368Y-56375830D01*
X78127781Y-56386866D01*
X78145024Y-56399654D01*
X78160930Y-56414070D01*
X78175346Y-56429976D01*
X78188134Y-56447219D01*
X78199170Y-56465632D01*
X78208349Y-56485038D01*
X78215581Y-56505250D01*
X78220797Y-56526074D01*
X78223947Y-56547309D01*
X78225000Y-56568750D01*
X78225000Y-57006250D01*
X78223947Y-57027691D01*
X78220797Y-57048926D01*
X78215581Y-57069750D01*
X78208349Y-57089962D01*
X78199170Y-57109368D01*
X78188134Y-57127781D01*
X78175346Y-57145024D01*
X78160930Y-57160930D01*
X78145024Y-57175346D01*
X78127781Y-57188134D01*
X78109368Y-57199170D01*
X78089962Y-57208349D01*
X78069750Y-57215581D01*
X78048926Y-57220797D01*
X78027691Y-57223947D01*
X78006250Y-57225000D01*
X77493750Y-57225000D01*
X77472309Y-57223947D01*
X77451074Y-57220797D01*
X77430250Y-57215581D01*
X77410038Y-57208349D01*
X77390632Y-57199170D01*
X77372219Y-57188134D01*
X77354976Y-57175346D01*
X77339070Y-57160930D01*
X77324654Y-57145024D01*
X77311866Y-57127781D01*
X77300830Y-57109368D01*
X77291651Y-57089962D01*
X77284419Y-57069750D01*
X77279203Y-57048926D01*
X77276053Y-57027691D01*
X77275000Y-57006250D01*
X77275000Y-56568750D01*
X77276053Y-56547309D01*
X77279203Y-56526074D01*
X77284419Y-56505250D01*
X77291651Y-56485038D01*
X77300830Y-56465632D01*
X77311866Y-56447219D01*
X77324654Y-56429976D01*
X77339070Y-56414070D01*
X77354976Y-56399654D01*
X77372219Y-56386866D01*
X77390632Y-56375830D01*
X77410038Y-56366651D01*
X77430250Y-56359419D01*
X77451074Y-56354203D01*
X77472309Y-56351053D01*
X77493750Y-56350000D01*
X78006250Y-56350000D01*
X78027691Y-56351053D01*
G37*
G36*
X78027691Y-54776053D02*
G01*
X78048926Y-54779203D01*
X78069750Y-54784419D01*
X78089962Y-54791651D01*
X78109368Y-54800830D01*
X78127781Y-54811866D01*
X78145024Y-54824654D01*
X78160930Y-54839070D01*
X78175346Y-54854976D01*
X78188134Y-54872219D01*
X78199170Y-54890632D01*
X78208349Y-54910038D01*
X78215581Y-54930250D01*
X78220797Y-54951074D01*
X78223947Y-54972309D01*
X78225000Y-54993750D01*
X78225000Y-55431250D01*
X78223947Y-55452691D01*
X78220797Y-55473926D01*
X78215581Y-55494750D01*
X78208349Y-55514962D01*
X78199170Y-55534368D01*
X78188134Y-55552781D01*
X78175346Y-55570024D01*
X78160930Y-55585930D01*
X78145024Y-55600346D01*
X78127781Y-55613134D01*
X78109368Y-55624170D01*
X78089962Y-55633349D01*
X78069750Y-55640581D01*
X78048926Y-55645797D01*
X78027691Y-55648947D01*
X78006250Y-55650000D01*
X77493750Y-55650000D01*
X77472309Y-55648947D01*
X77451074Y-55645797D01*
X77430250Y-55640581D01*
X77410038Y-55633349D01*
X77390632Y-55624170D01*
X77372219Y-55613134D01*
X77354976Y-55600346D01*
X77339070Y-55585930D01*
X77324654Y-55570024D01*
X77311866Y-55552781D01*
X77300830Y-55534368D01*
X77291651Y-55514962D01*
X77284419Y-55494750D01*
X77279203Y-55473926D01*
X77276053Y-55452691D01*
X77275000Y-55431250D01*
X77275000Y-54993750D01*
X77276053Y-54972309D01*
X77279203Y-54951074D01*
X77284419Y-54930250D01*
X77291651Y-54910038D01*
X77300830Y-54890632D01*
X77311866Y-54872219D01*
X77324654Y-54854976D01*
X77339070Y-54839070D01*
X77354976Y-54824654D01*
X77372219Y-54811866D01*
X77390632Y-54800830D01*
X77410038Y-54791651D01*
X77430250Y-54784419D01*
X77451074Y-54779203D01*
X77472309Y-54776053D01*
X77493750Y-54775000D01*
X78006250Y-54775000D01*
X78027691Y-54776053D01*
G37*
G36*
X83952691Y-52526053D02*
G01*
X83973926Y-52529203D01*
X83994750Y-52534419D01*
X84014962Y-52541651D01*
X84034368Y-52550830D01*
X84052781Y-52561866D01*
X84070024Y-52574654D01*
X84085930Y-52589070D01*
X84100346Y-52604976D01*
X84113134Y-52622219D01*
X84124170Y-52640632D01*
X84133349Y-52660038D01*
X84140581Y-52680250D01*
X84145797Y-52701074D01*
X84148947Y-52722309D01*
X84150000Y-52743750D01*
X84150000Y-53256250D01*
X84148947Y-53277691D01*
X84145797Y-53298926D01*
X84140581Y-53319750D01*
X84133349Y-53339962D01*
X84124170Y-53359368D01*
X84113134Y-53377781D01*
X84100346Y-53395024D01*
X84085930Y-53410930D01*
X84070024Y-53425346D01*
X84052781Y-53438134D01*
X84034368Y-53449170D01*
X84014962Y-53458349D01*
X83994750Y-53465581D01*
X83973926Y-53470797D01*
X83952691Y-53473947D01*
X83931250Y-53475000D01*
X83493750Y-53475000D01*
X83472309Y-53473947D01*
X83451074Y-53470797D01*
X83430250Y-53465581D01*
X83410038Y-53458349D01*
X83390632Y-53449170D01*
X83372219Y-53438134D01*
X83354976Y-53425346D01*
X83339070Y-53410930D01*
X83324654Y-53395024D01*
X83311866Y-53377781D01*
X83300830Y-53359368D01*
X83291651Y-53339962D01*
X83284419Y-53319750D01*
X83279203Y-53298926D01*
X83276053Y-53277691D01*
X83275000Y-53256250D01*
X83275000Y-52743750D01*
X83276053Y-52722309D01*
X83279203Y-52701074D01*
X83284419Y-52680250D01*
X83291651Y-52660038D01*
X83300830Y-52640632D01*
X83311866Y-52622219D01*
X83324654Y-52604976D01*
X83339070Y-52589070D01*
X83354976Y-52574654D01*
X83372219Y-52561866D01*
X83390632Y-52550830D01*
X83410038Y-52541651D01*
X83430250Y-52534419D01*
X83451074Y-52529203D01*
X83472309Y-52526053D01*
X83493750Y-52525000D01*
X83931250Y-52525000D01*
X83952691Y-52526053D01*
G37*
G36*
X85527691Y-52526053D02*
G01*
X85548926Y-52529203D01*
X85569750Y-52534419D01*
X85589962Y-52541651D01*
X85609368Y-52550830D01*
X85627781Y-52561866D01*
X85645024Y-52574654D01*
X85660930Y-52589070D01*
X85675346Y-52604976D01*
X85688134Y-52622219D01*
X85699170Y-52640632D01*
X85708349Y-52660038D01*
X85715581Y-52680250D01*
X85720797Y-52701074D01*
X85723947Y-52722309D01*
X85725000Y-52743750D01*
X85725000Y-53256250D01*
X85723947Y-53277691D01*
X85720797Y-53298926D01*
X85715581Y-53319750D01*
X85708349Y-53339962D01*
X85699170Y-53359368D01*
X85688134Y-53377781D01*
X85675346Y-53395024D01*
X85660930Y-53410930D01*
X85645024Y-53425346D01*
X85627781Y-53438134D01*
X85609368Y-53449170D01*
X85589962Y-53458349D01*
X85569750Y-53465581D01*
X85548926Y-53470797D01*
X85527691Y-53473947D01*
X85506250Y-53475000D01*
X85068750Y-53475000D01*
X85047309Y-53473947D01*
X85026074Y-53470797D01*
X85005250Y-53465581D01*
X84985038Y-53458349D01*
X84965632Y-53449170D01*
X84947219Y-53438134D01*
X84929976Y-53425346D01*
X84914070Y-53410930D01*
X84899654Y-53395024D01*
X84886866Y-53377781D01*
X84875830Y-53359368D01*
X84866651Y-53339962D01*
X84859419Y-53319750D01*
X84854203Y-53298926D01*
X84851053Y-53277691D01*
X84850000Y-53256250D01*
X84850000Y-52743750D01*
X84851053Y-52722309D01*
X84854203Y-52701074D01*
X84859419Y-52680250D01*
X84866651Y-52660038D01*
X84875830Y-52640632D01*
X84886866Y-52622219D01*
X84899654Y-52604976D01*
X84914070Y-52589070D01*
X84929976Y-52574654D01*
X84947219Y-52561866D01*
X84965632Y-52550830D01*
X84985038Y-52541651D01*
X85005250Y-52534419D01*
X85026074Y-52529203D01*
X85047309Y-52526053D01*
X85068750Y-52525000D01*
X85506250Y-52525000D01*
X85527691Y-52526053D01*
G37*
G36*
X53527691Y-82351053D02*
G01*
X53548926Y-82354203D01*
X53569750Y-82359419D01*
X53589962Y-82366651D01*
X53609368Y-82375830D01*
X53627781Y-82386866D01*
X53645024Y-82399654D01*
X53660930Y-82414070D01*
X53675346Y-82429976D01*
X53688134Y-82447219D01*
X53699170Y-82465632D01*
X53708349Y-82485038D01*
X53715581Y-82505250D01*
X53720797Y-82526074D01*
X53723947Y-82547309D01*
X53725000Y-82568750D01*
X53725000Y-83006250D01*
X53723947Y-83027691D01*
X53720797Y-83048926D01*
X53715581Y-83069750D01*
X53708349Y-83089962D01*
X53699170Y-83109368D01*
X53688134Y-83127781D01*
X53675346Y-83145024D01*
X53660930Y-83160930D01*
X53645024Y-83175346D01*
X53627781Y-83188134D01*
X53609368Y-83199170D01*
X53589962Y-83208349D01*
X53569750Y-83215581D01*
X53548926Y-83220797D01*
X53527691Y-83223947D01*
X53506250Y-83225000D01*
X52993750Y-83225000D01*
X52972309Y-83223947D01*
X52951074Y-83220797D01*
X52930250Y-83215581D01*
X52910038Y-83208349D01*
X52890632Y-83199170D01*
X52872219Y-83188134D01*
X52854976Y-83175346D01*
X52839070Y-83160930D01*
X52824654Y-83145024D01*
X52811866Y-83127781D01*
X52800830Y-83109368D01*
X52791651Y-83089962D01*
X52784419Y-83069750D01*
X52779203Y-83048926D01*
X52776053Y-83027691D01*
X52775000Y-83006250D01*
X52775000Y-82568750D01*
X52776053Y-82547309D01*
X52779203Y-82526074D01*
X52784419Y-82505250D01*
X52791651Y-82485038D01*
X52800830Y-82465632D01*
X52811866Y-82447219D01*
X52824654Y-82429976D01*
X52839070Y-82414070D01*
X52854976Y-82399654D01*
X52872219Y-82386866D01*
X52890632Y-82375830D01*
X52910038Y-82366651D01*
X52930250Y-82359419D01*
X52951074Y-82354203D01*
X52972309Y-82351053D01*
X52993750Y-82350000D01*
X53506250Y-82350000D01*
X53527691Y-82351053D01*
G37*
G36*
X53527691Y-80776053D02*
G01*
X53548926Y-80779203D01*
X53569750Y-80784419D01*
X53589962Y-80791651D01*
X53609368Y-80800830D01*
X53627781Y-80811866D01*
X53645024Y-80824654D01*
X53660930Y-80839070D01*
X53675346Y-80854976D01*
X53688134Y-80872219D01*
X53699170Y-80890632D01*
X53708349Y-80910038D01*
X53715581Y-80930250D01*
X53720797Y-80951074D01*
X53723947Y-80972309D01*
X53725000Y-80993750D01*
X53725000Y-81431250D01*
X53723947Y-81452691D01*
X53720797Y-81473926D01*
X53715581Y-81494750D01*
X53708349Y-81514962D01*
X53699170Y-81534368D01*
X53688134Y-81552781D01*
X53675346Y-81570024D01*
X53660930Y-81585930D01*
X53645024Y-81600346D01*
X53627781Y-81613134D01*
X53609368Y-81624170D01*
X53589962Y-81633349D01*
X53569750Y-81640581D01*
X53548926Y-81645797D01*
X53527691Y-81648947D01*
X53506250Y-81650000D01*
X52993750Y-81650000D01*
X52972309Y-81648947D01*
X52951074Y-81645797D01*
X52930250Y-81640581D01*
X52910038Y-81633349D01*
X52890632Y-81624170D01*
X52872219Y-81613134D01*
X52854976Y-81600346D01*
X52839070Y-81585930D01*
X52824654Y-81570024D01*
X52811866Y-81552781D01*
X52800830Y-81534368D01*
X52791651Y-81514962D01*
X52784419Y-81494750D01*
X52779203Y-81473926D01*
X52776053Y-81452691D01*
X52775000Y-81431250D01*
X52775000Y-80993750D01*
X52776053Y-80972309D01*
X52779203Y-80951074D01*
X52784419Y-80930250D01*
X52791651Y-80910038D01*
X52800830Y-80890632D01*
X52811866Y-80872219D01*
X52824654Y-80854976D01*
X52839070Y-80839070D01*
X52854976Y-80824654D01*
X52872219Y-80811866D01*
X52890632Y-80800830D01*
X52910038Y-80791651D01*
X52930250Y-80784419D01*
X52951074Y-80779203D01*
X52972309Y-80776053D01*
X52993750Y-80775000D01*
X53506250Y-80775000D01*
X53527691Y-80776053D01*
G37*
G36*
X55527691Y-82351053D02*
G01*
X55548926Y-82354203D01*
X55569750Y-82359419D01*
X55589962Y-82366651D01*
X55609368Y-82375830D01*
X55627781Y-82386866D01*
X55645024Y-82399654D01*
X55660930Y-82414070D01*
X55675346Y-82429976D01*
X55688134Y-82447219D01*
X55699170Y-82465632D01*
X55708349Y-82485038D01*
X55715581Y-82505250D01*
X55720797Y-82526074D01*
X55723947Y-82547309D01*
X55725000Y-82568750D01*
X55725000Y-83006250D01*
X55723947Y-83027691D01*
X55720797Y-83048926D01*
X55715581Y-83069750D01*
X55708349Y-83089962D01*
X55699170Y-83109368D01*
X55688134Y-83127781D01*
X55675346Y-83145024D01*
X55660930Y-83160930D01*
X55645024Y-83175346D01*
X55627781Y-83188134D01*
X55609368Y-83199170D01*
X55589962Y-83208349D01*
X55569750Y-83215581D01*
X55548926Y-83220797D01*
X55527691Y-83223947D01*
X55506250Y-83225000D01*
X54993750Y-83225000D01*
X54972309Y-83223947D01*
X54951074Y-83220797D01*
X54930250Y-83215581D01*
X54910038Y-83208349D01*
X54890632Y-83199170D01*
X54872219Y-83188134D01*
X54854976Y-83175346D01*
X54839070Y-83160930D01*
X54824654Y-83145024D01*
X54811866Y-83127781D01*
X54800830Y-83109368D01*
X54791651Y-83089962D01*
X54784419Y-83069750D01*
X54779203Y-83048926D01*
X54776053Y-83027691D01*
X54775000Y-83006250D01*
X54775000Y-82568750D01*
X54776053Y-82547309D01*
X54779203Y-82526074D01*
X54784419Y-82505250D01*
X54791651Y-82485038D01*
X54800830Y-82465632D01*
X54811866Y-82447219D01*
X54824654Y-82429976D01*
X54839070Y-82414070D01*
X54854976Y-82399654D01*
X54872219Y-82386866D01*
X54890632Y-82375830D01*
X54910038Y-82366651D01*
X54930250Y-82359419D01*
X54951074Y-82354203D01*
X54972309Y-82351053D01*
X54993750Y-82350000D01*
X55506250Y-82350000D01*
X55527691Y-82351053D01*
G37*
G36*
X55527691Y-80776053D02*
G01*
X55548926Y-80779203D01*
X55569750Y-80784419D01*
X55589962Y-80791651D01*
X55609368Y-80800830D01*
X55627781Y-80811866D01*
X55645024Y-80824654D01*
X55660930Y-80839070D01*
X55675346Y-80854976D01*
X55688134Y-80872219D01*
X55699170Y-80890632D01*
X55708349Y-80910038D01*
X55715581Y-80930250D01*
X55720797Y-80951074D01*
X55723947Y-80972309D01*
X55725000Y-80993750D01*
X55725000Y-81431250D01*
X55723947Y-81452691D01*
X55720797Y-81473926D01*
X55715581Y-81494750D01*
X55708349Y-81514962D01*
X55699170Y-81534368D01*
X55688134Y-81552781D01*
X55675346Y-81570024D01*
X55660930Y-81585930D01*
X55645024Y-81600346D01*
X55627781Y-81613134D01*
X55609368Y-81624170D01*
X55589962Y-81633349D01*
X55569750Y-81640581D01*
X55548926Y-81645797D01*
X55527691Y-81648947D01*
X55506250Y-81650000D01*
X54993750Y-81650000D01*
X54972309Y-81648947D01*
X54951074Y-81645797D01*
X54930250Y-81640581D01*
X54910038Y-81633349D01*
X54890632Y-81624170D01*
X54872219Y-81613134D01*
X54854976Y-81600346D01*
X54839070Y-81585930D01*
X54824654Y-81570024D01*
X54811866Y-81552781D01*
X54800830Y-81534368D01*
X54791651Y-81514962D01*
X54784419Y-81494750D01*
X54779203Y-81473926D01*
X54776053Y-81452691D01*
X54775000Y-81431250D01*
X54775000Y-80993750D01*
X54776053Y-80972309D01*
X54779203Y-80951074D01*
X54784419Y-80930250D01*
X54791651Y-80910038D01*
X54800830Y-80890632D01*
X54811866Y-80872219D01*
X54824654Y-80854976D01*
X54839070Y-80839070D01*
X54854976Y-80824654D01*
X54872219Y-80811866D01*
X54890632Y-80800830D01*
X54910038Y-80791651D01*
X54930250Y-80784419D01*
X54951074Y-80779203D01*
X54972309Y-80776053D01*
X54993750Y-80775000D01*
X55506250Y-80775000D01*
X55527691Y-80776053D01*
G37*
G36*
X105027691Y-80276053D02*
G01*
X105048926Y-80279203D01*
X105069750Y-80284419D01*
X105089962Y-80291651D01*
X105109368Y-80300830D01*
X105127781Y-80311866D01*
X105145024Y-80324654D01*
X105160930Y-80339070D01*
X105175346Y-80354976D01*
X105188134Y-80372219D01*
X105199170Y-80390632D01*
X105208349Y-80410038D01*
X105215581Y-80430250D01*
X105220797Y-80451074D01*
X105223947Y-80472309D01*
X105225000Y-80493750D01*
X105225000Y-81006250D01*
X105223947Y-81027691D01*
X105220797Y-81048926D01*
X105215581Y-81069750D01*
X105208349Y-81089962D01*
X105199170Y-81109368D01*
X105188134Y-81127781D01*
X105175346Y-81145024D01*
X105160930Y-81160930D01*
X105145024Y-81175346D01*
X105127781Y-81188134D01*
X105109368Y-81199170D01*
X105089962Y-81208349D01*
X105069750Y-81215581D01*
X105048926Y-81220797D01*
X105027691Y-81223947D01*
X105006250Y-81225000D01*
X104568750Y-81225000D01*
X104547309Y-81223947D01*
X104526074Y-81220797D01*
X104505250Y-81215581D01*
X104485038Y-81208349D01*
X104465632Y-81199170D01*
X104447219Y-81188134D01*
X104429976Y-81175346D01*
X104414070Y-81160930D01*
X104399654Y-81145024D01*
X104386866Y-81127781D01*
X104375830Y-81109368D01*
X104366651Y-81089962D01*
X104359419Y-81069750D01*
X104354203Y-81048926D01*
X104351053Y-81027691D01*
X104350000Y-81006250D01*
X104350000Y-80493750D01*
X104351053Y-80472309D01*
X104354203Y-80451074D01*
X104359419Y-80430250D01*
X104366651Y-80410038D01*
X104375830Y-80390632D01*
X104386866Y-80372219D01*
X104399654Y-80354976D01*
X104414070Y-80339070D01*
X104429976Y-80324654D01*
X104447219Y-80311866D01*
X104465632Y-80300830D01*
X104485038Y-80291651D01*
X104505250Y-80284419D01*
X104526074Y-80279203D01*
X104547309Y-80276053D01*
X104568750Y-80275000D01*
X105006250Y-80275000D01*
X105027691Y-80276053D01*
G37*
G36*
X103452691Y-80276053D02*
G01*
X103473926Y-80279203D01*
X103494750Y-80284419D01*
X103514962Y-80291651D01*
X103534368Y-80300830D01*
X103552781Y-80311866D01*
X103570024Y-80324654D01*
X103585930Y-80339070D01*
X103600346Y-80354976D01*
X103613134Y-80372219D01*
X103624170Y-80390632D01*
X103633349Y-80410038D01*
X103640581Y-80430250D01*
X103645797Y-80451074D01*
X103648947Y-80472309D01*
X103650000Y-80493750D01*
X103650000Y-81006250D01*
X103648947Y-81027691D01*
X103645797Y-81048926D01*
X103640581Y-81069750D01*
X103633349Y-81089962D01*
X103624170Y-81109368D01*
X103613134Y-81127781D01*
X103600346Y-81145024D01*
X103585930Y-81160930D01*
X103570024Y-81175346D01*
X103552781Y-81188134D01*
X103534368Y-81199170D01*
X103514962Y-81208349D01*
X103494750Y-81215581D01*
X103473926Y-81220797D01*
X103452691Y-81223947D01*
X103431250Y-81225000D01*
X102993750Y-81225000D01*
X102972309Y-81223947D01*
X102951074Y-81220797D01*
X102930250Y-81215581D01*
X102910038Y-81208349D01*
X102890632Y-81199170D01*
X102872219Y-81188134D01*
X102854976Y-81175346D01*
X102839070Y-81160930D01*
X102824654Y-81145024D01*
X102811866Y-81127781D01*
X102800830Y-81109368D01*
X102791651Y-81089962D01*
X102784419Y-81069750D01*
X102779203Y-81048926D01*
X102776053Y-81027691D01*
X102775000Y-81006250D01*
X102775000Y-80493750D01*
X102776053Y-80472309D01*
X102779203Y-80451074D01*
X102784419Y-80430250D01*
X102791651Y-80410038D01*
X102800830Y-80390632D01*
X102811866Y-80372219D01*
X102824654Y-80354976D01*
X102839070Y-80339070D01*
X102854976Y-80324654D01*
X102872219Y-80311866D01*
X102890632Y-80300830D01*
X102910038Y-80291651D01*
X102930250Y-80284419D01*
X102951074Y-80279203D01*
X102972309Y-80276053D01*
X102993750Y-80275000D01*
X103431250Y-80275000D01*
X103452691Y-80276053D01*
G37*
G36*
X138027691Y-47776053D02*
G01*
X138048926Y-47779203D01*
X138069750Y-47784419D01*
X138089962Y-47791651D01*
X138109368Y-47800830D01*
X138127781Y-47811866D01*
X138145024Y-47824654D01*
X138160930Y-47839070D01*
X138175346Y-47854976D01*
X138188134Y-47872219D01*
X138199170Y-47890632D01*
X138208349Y-47910038D01*
X138215581Y-47930250D01*
X138220797Y-47951074D01*
X138223947Y-47972309D01*
X138225000Y-47993750D01*
X138225000Y-48431250D01*
X138223947Y-48452691D01*
X138220797Y-48473926D01*
X138215581Y-48494750D01*
X138208349Y-48514962D01*
X138199170Y-48534368D01*
X138188134Y-48552781D01*
X138175346Y-48570024D01*
X138160930Y-48585930D01*
X138145024Y-48600346D01*
X138127781Y-48613134D01*
X138109368Y-48624170D01*
X138089962Y-48633349D01*
X138069750Y-48640581D01*
X138048926Y-48645797D01*
X138027691Y-48648947D01*
X138006250Y-48650000D01*
X137493750Y-48650000D01*
X137472309Y-48648947D01*
X137451074Y-48645797D01*
X137430250Y-48640581D01*
X137410038Y-48633349D01*
X137390632Y-48624170D01*
X137372219Y-48613134D01*
X137354976Y-48600346D01*
X137339070Y-48585930D01*
X137324654Y-48570024D01*
X137311866Y-48552781D01*
X137300830Y-48534368D01*
X137291651Y-48514962D01*
X137284419Y-48494750D01*
X137279203Y-48473926D01*
X137276053Y-48452691D01*
X137275000Y-48431250D01*
X137275000Y-47993750D01*
X137276053Y-47972309D01*
X137279203Y-47951074D01*
X137284419Y-47930250D01*
X137291651Y-47910038D01*
X137300830Y-47890632D01*
X137311866Y-47872219D01*
X137324654Y-47854976D01*
X137339070Y-47839070D01*
X137354976Y-47824654D01*
X137372219Y-47811866D01*
X137390632Y-47800830D01*
X137410038Y-47791651D01*
X137430250Y-47784419D01*
X137451074Y-47779203D01*
X137472309Y-47776053D01*
X137493750Y-47775000D01*
X138006250Y-47775000D01*
X138027691Y-47776053D01*
G37*
G36*
X138027691Y-49351053D02*
G01*
X138048926Y-49354203D01*
X138069750Y-49359419D01*
X138089962Y-49366651D01*
X138109368Y-49375830D01*
X138127781Y-49386866D01*
X138145024Y-49399654D01*
X138160930Y-49414070D01*
X138175346Y-49429976D01*
X138188134Y-49447219D01*
X138199170Y-49465632D01*
X138208349Y-49485038D01*
X138215581Y-49505250D01*
X138220797Y-49526074D01*
X138223947Y-49547309D01*
X138225000Y-49568750D01*
X138225000Y-50006250D01*
X138223947Y-50027691D01*
X138220797Y-50048926D01*
X138215581Y-50069750D01*
X138208349Y-50089962D01*
X138199170Y-50109368D01*
X138188134Y-50127781D01*
X138175346Y-50145024D01*
X138160930Y-50160930D01*
X138145024Y-50175346D01*
X138127781Y-50188134D01*
X138109368Y-50199170D01*
X138089962Y-50208349D01*
X138069750Y-50215581D01*
X138048926Y-50220797D01*
X138027691Y-50223947D01*
X138006250Y-50225000D01*
X137493750Y-50225000D01*
X137472309Y-50223947D01*
X137451074Y-50220797D01*
X137430250Y-50215581D01*
X137410038Y-50208349D01*
X137390632Y-50199170D01*
X137372219Y-50188134D01*
X137354976Y-50175346D01*
X137339070Y-50160930D01*
X137324654Y-50145024D01*
X137311866Y-50127781D01*
X137300830Y-50109368D01*
X137291651Y-50089962D01*
X137284419Y-50069750D01*
X137279203Y-50048926D01*
X137276053Y-50027691D01*
X137275000Y-50006250D01*
X137275000Y-49568750D01*
X137276053Y-49547309D01*
X137279203Y-49526074D01*
X137284419Y-49505250D01*
X137291651Y-49485038D01*
X137300830Y-49465632D01*
X137311866Y-49447219D01*
X137324654Y-49429976D01*
X137339070Y-49414070D01*
X137354976Y-49399654D01*
X137372219Y-49386866D01*
X137390632Y-49375830D01*
X137410038Y-49366651D01*
X137430250Y-49359419D01*
X137451074Y-49354203D01*
X137472309Y-49351053D01*
X137493750Y-49350000D01*
X138006250Y-49350000D01*
X138027691Y-49351053D01*
G37*
G36*
X128277691Y-47776053D02*
G01*
X128298926Y-47779203D01*
X128319750Y-47784419D01*
X128339962Y-47791651D01*
X128359368Y-47800830D01*
X128377781Y-47811866D01*
X128395024Y-47824654D01*
X128410930Y-47839070D01*
X128425346Y-47854976D01*
X128438134Y-47872219D01*
X128449170Y-47890632D01*
X128458349Y-47910038D01*
X128465581Y-47930250D01*
X128470797Y-47951074D01*
X128473947Y-47972309D01*
X128475000Y-47993750D01*
X128475000Y-48431250D01*
X128473947Y-48452691D01*
X128470797Y-48473926D01*
X128465581Y-48494750D01*
X128458349Y-48514962D01*
X128449170Y-48534368D01*
X128438134Y-48552781D01*
X128425346Y-48570024D01*
X128410930Y-48585930D01*
X128395024Y-48600346D01*
X128377781Y-48613134D01*
X128359368Y-48624170D01*
X128339962Y-48633349D01*
X128319750Y-48640581D01*
X128298926Y-48645797D01*
X128277691Y-48648947D01*
X128256250Y-48650000D01*
X127743750Y-48650000D01*
X127722309Y-48648947D01*
X127701074Y-48645797D01*
X127680250Y-48640581D01*
X127660038Y-48633349D01*
X127640632Y-48624170D01*
X127622219Y-48613134D01*
X127604976Y-48600346D01*
X127589070Y-48585930D01*
X127574654Y-48570024D01*
X127561866Y-48552781D01*
X127550830Y-48534368D01*
X127541651Y-48514962D01*
X127534419Y-48494750D01*
X127529203Y-48473926D01*
X127526053Y-48452691D01*
X127525000Y-48431250D01*
X127525000Y-47993750D01*
X127526053Y-47972309D01*
X127529203Y-47951074D01*
X127534419Y-47930250D01*
X127541651Y-47910038D01*
X127550830Y-47890632D01*
X127561866Y-47872219D01*
X127574654Y-47854976D01*
X127589070Y-47839070D01*
X127604976Y-47824654D01*
X127622219Y-47811866D01*
X127640632Y-47800830D01*
X127660038Y-47791651D01*
X127680250Y-47784419D01*
X127701074Y-47779203D01*
X127722309Y-47776053D01*
X127743750Y-47775000D01*
X128256250Y-47775000D01*
X128277691Y-47776053D01*
G37*
G36*
X128277691Y-49351053D02*
G01*
X128298926Y-49354203D01*
X128319750Y-49359419D01*
X128339962Y-49366651D01*
X128359368Y-49375830D01*
X128377781Y-49386866D01*
X128395024Y-49399654D01*
X128410930Y-49414070D01*
X128425346Y-49429976D01*
X128438134Y-49447219D01*
X128449170Y-49465632D01*
X128458349Y-49485038D01*
X128465581Y-49505250D01*
X128470797Y-49526074D01*
X128473947Y-49547309D01*
X128475000Y-49568750D01*
X128475000Y-50006250D01*
X128473947Y-50027691D01*
X128470797Y-50048926D01*
X128465581Y-50069750D01*
X128458349Y-50089962D01*
X128449170Y-50109368D01*
X128438134Y-50127781D01*
X128425346Y-50145024D01*
X128410930Y-50160930D01*
X128395024Y-50175346D01*
X128377781Y-50188134D01*
X128359368Y-50199170D01*
X128339962Y-50208349D01*
X128319750Y-50215581D01*
X128298926Y-50220797D01*
X128277691Y-50223947D01*
X128256250Y-50225000D01*
X127743750Y-50225000D01*
X127722309Y-50223947D01*
X127701074Y-50220797D01*
X127680250Y-50215581D01*
X127660038Y-50208349D01*
X127640632Y-50199170D01*
X127622219Y-50188134D01*
X127604976Y-50175346D01*
X127589070Y-50160930D01*
X127574654Y-50145024D01*
X127561866Y-50127781D01*
X127550830Y-50109368D01*
X127541651Y-50089962D01*
X127534419Y-50069750D01*
X127529203Y-50048926D01*
X127526053Y-50027691D01*
X127525000Y-50006250D01*
X127525000Y-49568750D01*
X127526053Y-49547309D01*
X127529203Y-49526074D01*
X127534419Y-49505250D01*
X127541651Y-49485038D01*
X127550830Y-49465632D01*
X127561866Y-49447219D01*
X127574654Y-49429976D01*
X127589070Y-49414070D01*
X127604976Y-49399654D01*
X127622219Y-49386866D01*
X127640632Y-49375830D01*
X127660038Y-49366651D01*
X127680250Y-49359419D01*
X127701074Y-49354203D01*
X127722309Y-49351053D01*
X127743750Y-49350000D01*
X128256250Y-49350000D01*
X128277691Y-49351053D01*
G37*
G36*
X125777691Y-47776053D02*
G01*
X125798926Y-47779203D01*
X125819750Y-47784419D01*
X125839962Y-47791651D01*
X125859368Y-47800830D01*
X125877781Y-47811866D01*
X125895024Y-47824654D01*
X125910930Y-47839070D01*
X125925346Y-47854976D01*
X125938134Y-47872219D01*
X125949170Y-47890632D01*
X125958349Y-47910038D01*
X125965581Y-47930250D01*
X125970797Y-47951074D01*
X125973947Y-47972309D01*
X125975000Y-47993750D01*
X125975000Y-48431250D01*
X125973947Y-48452691D01*
X125970797Y-48473926D01*
X125965581Y-48494750D01*
X125958349Y-48514962D01*
X125949170Y-48534368D01*
X125938134Y-48552781D01*
X125925346Y-48570024D01*
X125910930Y-48585930D01*
X125895024Y-48600346D01*
X125877781Y-48613134D01*
X125859368Y-48624170D01*
X125839962Y-48633349D01*
X125819750Y-48640581D01*
X125798926Y-48645797D01*
X125777691Y-48648947D01*
X125756250Y-48650000D01*
X125243750Y-48650000D01*
X125222309Y-48648947D01*
X125201074Y-48645797D01*
X125180250Y-48640581D01*
X125160038Y-48633349D01*
X125140632Y-48624170D01*
X125122219Y-48613134D01*
X125104976Y-48600346D01*
X125089070Y-48585930D01*
X125074654Y-48570024D01*
X125061866Y-48552781D01*
X125050830Y-48534368D01*
X125041651Y-48514962D01*
X125034419Y-48494750D01*
X125029203Y-48473926D01*
X125026053Y-48452691D01*
X125025000Y-48431250D01*
X125025000Y-47993750D01*
X125026053Y-47972309D01*
X125029203Y-47951074D01*
X125034419Y-47930250D01*
X125041651Y-47910038D01*
X125050830Y-47890632D01*
X125061866Y-47872219D01*
X125074654Y-47854976D01*
X125089070Y-47839070D01*
X125104976Y-47824654D01*
X125122219Y-47811866D01*
X125140632Y-47800830D01*
X125160038Y-47791651D01*
X125180250Y-47784419D01*
X125201074Y-47779203D01*
X125222309Y-47776053D01*
X125243750Y-47775000D01*
X125756250Y-47775000D01*
X125777691Y-47776053D01*
G37*
G36*
X125777691Y-49351053D02*
G01*
X125798926Y-49354203D01*
X125819750Y-49359419D01*
X125839962Y-49366651D01*
X125859368Y-49375830D01*
X125877781Y-49386866D01*
X125895024Y-49399654D01*
X125910930Y-49414070D01*
X125925346Y-49429976D01*
X125938134Y-49447219D01*
X125949170Y-49465632D01*
X125958349Y-49485038D01*
X125965581Y-49505250D01*
X125970797Y-49526074D01*
X125973947Y-49547309D01*
X125975000Y-49568750D01*
X125975000Y-50006250D01*
X125973947Y-50027691D01*
X125970797Y-50048926D01*
X125965581Y-50069750D01*
X125958349Y-50089962D01*
X125949170Y-50109368D01*
X125938134Y-50127781D01*
X125925346Y-50145024D01*
X125910930Y-50160930D01*
X125895024Y-50175346D01*
X125877781Y-50188134D01*
X125859368Y-50199170D01*
X125839962Y-50208349D01*
X125819750Y-50215581D01*
X125798926Y-50220797D01*
X125777691Y-50223947D01*
X125756250Y-50225000D01*
X125243750Y-50225000D01*
X125222309Y-50223947D01*
X125201074Y-50220797D01*
X125180250Y-50215581D01*
X125160038Y-50208349D01*
X125140632Y-50199170D01*
X125122219Y-50188134D01*
X125104976Y-50175346D01*
X125089070Y-50160930D01*
X125074654Y-50145024D01*
X125061866Y-50127781D01*
X125050830Y-50109368D01*
X125041651Y-50089962D01*
X125034419Y-50069750D01*
X125029203Y-50048926D01*
X125026053Y-50027691D01*
X125025000Y-50006250D01*
X125025000Y-49568750D01*
X125026053Y-49547309D01*
X125029203Y-49526074D01*
X125034419Y-49505250D01*
X125041651Y-49485038D01*
X125050830Y-49465632D01*
X125061866Y-49447219D01*
X125074654Y-49429976D01*
X125089070Y-49414070D01*
X125104976Y-49399654D01*
X125122219Y-49386866D01*
X125140632Y-49375830D01*
X125160038Y-49366651D01*
X125180250Y-49359419D01*
X125201074Y-49354203D01*
X125222309Y-49351053D01*
X125243750Y-49350000D01*
X125756250Y-49350000D01*
X125777691Y-49351053D01*
G37*
G36*
X50165191Y-60026053D02*
G01*
X50186426Y-60029203D01*
X50207250Y-60034419D01*
X50227462Y-60041651D01*
X50246868Y-60050830D01*
X50265281Y-60061866D01*
X50282524Y-60074654D01*
X50298430Y-60089070D01*
X50312846Y-60104976D01*
X50325634Y-60122219D01*
X50336670Y-60140632D01*
X50345849Y-60160038D01*
X50353081Y-60180250D01*
X50358297Y-60201074D01*
X50361447Y-60222309D01*
X50362500Y-60243750D01*
X50362500Y-60756250D01*
X50361447Y-60777691D01*
X50358297Y-60798926D01*
X50353081Y-60819750D01*
X50345849Y-60839962D01*
X50336670Y-60859368D01*
X50325634Y-60877781D01*
X50312846Y-60895024D01*
X50298430Y-60910930D01*
X50282524Y-60925346D01*
X50265281Y-60938134D01*
X50246868Y-60949170D01*
X50227462Y-60958349D01*
X50207250Y-60965581D01*
X50186426Y-60970797D01*
X50165191Y-60973947D01*
X50143750Y-60975000D01*
X49706250Y-60975000D01*
X49684809Y-60973947D01*
X49663574Y-60970797D01*
X49642750Y-60965581D01*
X49622538Y-60958349D01*
X49603132Y-60949170D01*
X49584719Y-60938134D01*
X49567476Y-60925346D01*
X49551570Y-60910930D01*
X49537154Y-60895024D01*
X49524366Y-60877781D01*
X49513330Y-60859368D01*
X49504151Y-60839962D01*
X49496919Y-60819750D01*
X49491703Y-60798926D01*
X49488553Y-60777691D01*
X49487500Y-60756250D01*
X49487500Y-60243750D01*
X49488553Y-60222309D01*
X49491703Y-60201074D01*
X49496919Y-60180250D01*
X49504151Y-60160038D01*
X49513330Y-60140632D01*
X49524366Y-60122219D01*
X49537154Y-60104976D01*
X49551570Y-60089070D01*
X49567476Y-60074654D01*
X49584719Y-60061866D01*
X49603132Y-60050830D01*
X49622538Y-60041651D01*
X49642750Y-60034419D01*
X49663574Y-60029203D01*
X49684809Y-60026053D01*
X49706250Y-60025000D01*
X50143750Y-60025000D01*
X50165191Y-60026053D01*
G37*
G36*
X51740191Y-60026053D02*
G01*
X51761426Y-60029203D01*
X51782250Y-60034419D01*
X51802462Y-60041651D01*
X51821868Y-60050830D01*
X51840281Y-60061866D01*
X51857524Y-60074654D01*
X51873430Y-60089070D01*
X51887846Y-60104976D01*
X51900634Y-60122219D01*
X51911670Y-60140632D01*
X51920849Y-60160038D01*
X51928081Y-60180250D01*
X51933297Y-60201074D01*
X51936447Y-60222309D01*
X51937500Y-60243750D01*
X51937500Y-60756250D01*
X51936447Y-60777691D01*
X51933297Y-60798926D01*
X51928081Y-60819750D01*
X51920849Y-60839962D01*
X51911670Y-60859368D01*
X51900634Y-60877781D01*
X51887846Y-60895024D01*
X51873430Y-60910930D01*
X51857524Y-60925346D01*
X51840281Y-60938134D01*
X51821868Y-60949170D01*
X51802462Y-60958349D01*
X51782250Y-60965581D01*
X51761426Y-60970797D01*
X51740191Y-60973947D01*
X51718750Y-60975000D01*
X51281250Y-60975000D01*
X51259809Y-60973947D01*
X51238574Y-60970797D01*
X51217750Y-60965581D01*
X51197538Y-60958349D01*
X51178132Y-60949170D01*
X51159719Y-60938134D01*
X51142476Y-60925346D01*
X51126570Y-60910930D01*
X51112154Y-60895024D01*
X51099366Y-60877781D01*
X51088330Y-60859368D01*
X51079151Y-60839962D01*
X51071919Y-60819750D01*
X51066703Y-60798926D01*
X51063553Y-60777691D01*
X51062500Y-60756250D01*
X51062500Y-60243750D01*
X51063553Y-60222309D01*
X51066703Y-60201074D01*
X51071919Y-60180250D01*
X51079151Y-60160038D01*
X51088330Y-60140632D01*
X51099366Y-60122219D01*
X51112154Y-60104976D01*
X51126570Y-60089070D01*
X51142476Y-60074654D01*
X51159719Y-60061866D01*
X51178132Y-60050830D01*
X51197538Y-60041651D01*
X51217750Y-60034419D01*
X51238574Y-60029203D01*
X51259809Y-60026053D01*
X51281250Y-60025000D01*
X51718750Y-60025000D01*
X51740191Y-60026053D01*
G37*
G36*
X55452691Y-70276053D02*
G01*
X55473926Y-70279203D01*
X55494750Y-70284419D01*
X55514962Y-70291651D01*
X55534368Y-70300830D01*
X55552781Y-70311866D01*
X55570024Y-70324654D01*
X55585930Y-70339070D01*
X55600346Y-70354976D01*
X55613134Y-70372219D01*
X55624170Y-70390632D01*
X55633349Y-70410038D01*
X55640581Y-70430250D01*
X55645797Y-70451074D01*
X55648947Y-70472309D01*
X55650000Y-70493750D01*
X55650000Y-71006250D01*
X55648947Y-71027691D01*
X55645797Y-71048926D01*
X55640581Y-71069750D01*
X55633349Y-71089962D01*
X55624170Y-71109368D01*
X55613134Y-71127781D01*
X55600346Y-71145024D01*
X55585930Y-71160930D01*
X55570024Y-71175346D01*
X55552781Y-71188134D01*
X55534368Y-71199170D01*
X55514962Y-71208349D01*
X55494750Y-71215581D01*
X55473926Y-71220797D01*
X55452691Y-71223947D01*
X55431250Y-71225000D01*
X54993750Y-71225000D01*
X54972309Y-71223947D01*
X54951074Y-71220797D01*
X54930250Y-71215581D01*
X54910038Y-71208349D01*
X54890632Y-71199170D01*
X54872219Y-71188134D01*
X54854976Y-71175346D01*
X54839070Y-71160930D01*
X54824654Y-71145024D01*
X54811866Y-71127781D01*
X54800830Y-71109368D01*
X54791651Y-71089962D01*
X54784419Y-71069750D01*
X54779203Y-71048926D01*
X54776053Y-71027691D01*
X54775000Y-71006250D01*
X54775000Y-70493750D01*
X54776053Y-70472309D01*
X54779203Y-70451074D01*
X54784419Y-70430250D01*
X54791651Y-70410038D01*
X54800830Y-70390632D01*
X54811866Y-70372219D01*
X54824654Y-70354976D01*
X54839070Y-70339070D01*
X54854976Y-70324654D01*
X54872219Y-70311866D01*
X54890632Y-70300830D01*
X54910038Y-70291651D01*
X54930250Y-70284419D01*
X54951074Y-70279203D01*
X54972309Y-70276053D01*
X54993750Y-70275000D01*
X55431250Y-70275000D01*
X55452691Y-70276053D01*
G37*
G36*
X57027691Y-70276053D02*
G01*
X57048926Y-70279203D01*
X57069750Y-70284419D01*
X57089962Y-70291651D01*
X57109368Y-70300830D01*
X57127781Y-70311866D01*
X57145024Y-70324654D01*
X57160930Y-70339070D01*
X57175346Y-70354976D01*
X57188134Y-70372219D01*
X57199170Y-70390632D01*
X57208349Y-70410038D01*
X57215581Y-70430250D01*
X57220797Y-70451074D01*
X57223947Y-70472309D01*
X57225000Y-70493750D01*
X57225000Y-71006250D01*
X57223947Y-71027691D01*
X57220797Y-71048926D01*
X57215581Y-71069750D01*
X57208349Y-71089962D01*
X57199170Y-71109368D01*
X57188134Y-71127781D01*
X57175346Y-71145024D01*
X57160930Y-71160930D01*
X57145024Y-71175346D01*
X57127781Y-71188134D01*
X57109368Y-71199170D01*
X57089962Y-71208349D01*
X57069750Y-71215581D01*
X57048926Y-71220797D01*
X57027691Y-71223947D01*
X57006250Y-71225000D01*
X56568750Y-71225000D01*
X56547309Y-71223947D01*
X56526074Y-71220797D01*
X56505250Y-71215581D01*
X56485038Y-71208349D01*
X56465632Y-71199170D01*
X56447219Y-71188134D01*
X56429976Y-71175346D01*
X56414070Y-71160930D01*
X56399654Y-71145024D01*
X56386866Y-71127781D01*
X56375830Y-71109368D01*
X56366651Y-71089962D01*
X56359419Y-71069750D01*
X56354203Y-71048926D01*
X56351053Y-71027691D01*
X56350000Y-71006250D01*
X56350000Y-70493750D01*
X56351053Y-70472309D01*
X56354203Y-70451074D01*
X56359419Y-70430250D01*
X56366651Y-70410038D01*
X56375830Y-70390632D01*
X56386866Y-70372219D01*
X56399654Y-70354976D01*
X56414070Y-70339070D01*
X56429976Y-70324654D01*
X56447219Y-70311866D01*
X56465632Y-70300830D01*
X56485038Y-70291651D01*
X56505250Y-70284419D01*
X56526074Y-70279203D01*
X56547309Y-70276053D01*
X56568750Y-70275000D01*
X57006250Y-70275000D01*
X57027691Y-70276053D01*
G37*
G36*
X77527691Y-67351053D02*
G01*
X77548926Y-67354203D01*
X77569750Y-67359419D01*
X77589962Y-67366651D01*
X77609368Y-67375830D01*
X77627781Y-67386866D01*
X77645024Y-67399654D01*
X77660930Y-67414070D01*
X77675346Y-67429976D01*
X77688134Y-67447219D01*
X77699170Y-67465632D01*
X77708349Y-67485038D01*
X77715581Y-67505250D01*
X77720797Y-67526074D01*
X77723947Y-67547309D01*
X77725000Y-67568750D01*
X77725000Y-68006250D01*
X77723947Y-68027691D01*
X77720797Y-68048926D01*
X77715581Y-68069750D01*
X77708349Y-68089962D01*
X77699170Y-68109368D01*
X77688134Y-68127781D01*
X77675346Y-68145024D01*
X77660930Y-68160930D01*
X77645024Y-68175346D01*
X77627781Y-68188134D01*
X77609368Y-68199170D01*
X77589962Y-68208349D01*
X77569750Y-68215581D01*
X77548926Y-68220797D01*
X77527691Y-68223947D01*
X77506250Y-68225000D01*
X76993750Y-68225000D01*
X76972309Y-68223947D01*
X76951074Y-68220797D01*
X76930250Y-68215581D01*
X76910038Y-68208349D01*
X76890632Y-68199170D01*
X76872219Y-68188134D01*
X76854976Y-68175346D01*
X76839070Y-68160930D01*
X76824654Y-68145024D01*
X76811866Y-68127781D01*
X76800830Y-68109368D01*
X76791651Y-68089962D01*
X76784419Y-68069750D01*
X76779203Y-68048926D01*
X76776053Y-68027691D01*
X76775000Y-68006250D01*
X76775000Y-67568750D01*
X76776053Y-67547309D01*
X76779203Y-67526074D01*
X76784419Y-67505250D01*
X76791651Y-67485038D01*
X76800830Y-67465632D01*
X76811866Y-67447219D01*
X76824654Y-67429976D01*
X76839070Y-67414070D01*
X76854976Y-67399654D01*
X76872219Y-67386866D01*
X76890632Y-67375830D01*
X76910038Y-67366651D01*
X76930250Y-67359419D01*
X76951074Y-67354203D01*
X76972309Y-67351053D01*
X76993750Y-67350000D01*
X77506250Y-67350000D01*
X77527691Y-67351053D01*
G37*
G36*
X77527691Y-65776053D02*
G01*
X77548926Y-65779203D01*
X77569750Y-65784419D01*
X77589962Y-65791651D01*
X77609368Y-65800830D01*
X77627781Y-65811866D01*
X77645024Y-65824654D01*
X77660930Y-65839070D01*
X77675346Y-65854976D01*
X77688134Y-65872219D01*
X77699170Y-65890632D01*
X77708349Y-65910038D01*
X77715581Y-65930250D01*
X77720797Y-65951074D01*
X77723947Y-65972309D01*
X77725000Y-65993750D01*
X77725000Y-66431250D01*
X77723947Y-66452691D01*
X77720797Y-66473926D01*
X77715581Y-66494750D01*
X77708349Y-66514962D01*
X77699170Y-66534368D01*
X77688134Y-66552781D01*
X77675346Y-66570024D01*
X77660930Y-66585930D01*
X77645024Y-66600346D01*
X77627781Y-66613134D01*
X77609368Y-66624170D01*
X77589962Y-66633349D01*
X77569750Y-66640581D01*
X77548926Y-66645797D01*
X77527691Y-66648947D01*
X77506250Y-66650000D01*
X76993750Y-66650000D01*
X76972309Y-66648947D01*
X76951074Y-66645797D01*
X76930250Y-66640581D01*
X76910038Y-66633349D01*
X76890632Y-66624170D01*
X76872219Y-66613134D01*
X76854976Y-66600346D01*
X76839070Y-66585930D01*
X76824654Y-66570024D01*
X76811866Y-66552781D01*
X76800830Y-66534368D01*
X76791651Y-66514962D01*
X76784419Y-66494750D01*
X76779203Y-66473926D01*
X76776053Y-66452691D01*
X76775000Y-66431250D01*
X76775000Y-65993750D01*
X76776053Y-65972309D01*
X76779203Y-65951074D01*
X76784419Y-65930250D01*
X76791651Y-65910038D01*
X76800830Y-65890632D01*
X76811866Y-65872219D01*
X76824654Y-65854976D01*
X76839070Y-65839070D01*
X76854976Y-65824654D01*
X76872219Y-65811866D01*
X76890632Y-65800830D01*
X76910038Y-65791651D01*
X76930250Y-65784419D01*
X76951074Y-65779203D01*
X76972309Y-65776053D01*
X76993750Y-65775000D01*
X77506250Y-65775000D01*
X77527691Y-65776053D01*
G37*
G36*
X80027691Y-54776053D02*
G01*
X80048926Y-54779203D01*
X80069750Y-54784419D01*
X80089962Y-54791651D01*
X80109368Y-54800830D01*
X80127781Y-54811866D01*
X80145024Y-54824654D01*
X80160930Y-54839070D01*
X80175346Y-54854976D01*
X80188134Y-54872219D01*
X80199170Y-54890632D01*
X80208349Y-54910038D01*
X80215581Y-54930250D01*
X80220797Y-54951074D01*
X80223947Y-54972309D01*
X80225000Y-54993750D01*
X80225000Y-55431250D01*
X80223947Y-55452691D01*
X80220797Y-55473926D01*
X80215581Y-55494750D01*
X80208349Y-55514962D01*
X80199170Y-55534368D01*
X80188134Y-55552781D01*
X80175346Y-55570024D01*
X80160930Y-55585930D01*
X80145024Y-55600346D01*
X80127781Y-55613134D01*
X80109368Y-55624170D01*
X80089962Y-55633349D01*
X80069750Y-55640581D01*
X80048926Y-55645797D01*
X80027691Y-55648947D01*
X80006250Y-55650000D01*
X79493750Y-55650000D01*
X79472309Y-55648947D01*
X79451074Y-55645797D01*
X79430250Y-55640581D01*
X79410038Y-55633349D01*
X79390632Y-55624170D01*
X79372219Y-55613134D01*
X79354976Y-55600346D01*
X79339070Y-55585930D01*
X79324654Y-55570024D01*
X79311866Y-55552781D01*
X79300830Y-55534368D01*
X79291651Y-55514962D01*
X79284419Y-55494750D01*
X79279203Y-55473926D01*
X79276053Y-55452691D01*
X79275000Y-55431250D01*
X79275000Y-54993750D01*
X79276053Y-54972309D01*
X79279203Y-54951074D01*
X79284419Y-54930250D01*
X79291651Y-54910038D01*
X79300830Y-54890632D01*
X79311866Y-54872219D01*
X79324654Y-54854976D01*
X79339070Y-54839070D01*
X79354976Y-54824654D01*
X79372219Y-54811866D01*
X79390632Y-54800830D01*
X79410038Y-54791651D01*
X79430250Y-54784419D01*
X79451074Y-54779203D01*
X79472309Y-54776053D01*
X79493750Y-54775000D01*
X80006250Y-54775000D01*
X80027691Y-54776053D01*
G37*
G36*
X80027691Y-56351053D02*
G01*
X80048926Y-56354203D01*
X80069750Y-56359419D01*
X80089962Y-56366651D01*
X80109368Y-56375830D01*
X80127781Y-56386866D01*
X80145024Y-56399654D01*
X80160930Y-56414070D01*
X80175346Y-56429976D01*
X80188134Y-56447219D01*
X80199170Y-56465632D01*
X80208349Y-56485038D01*
X80215581Y-56505250D01*
X80220797Y-56526074D01*
X80223947Y-56547309D01*
X80225000Y-56568750D01*
X80225000Y-57006250D01*
X80223947Y-57027691D01*
X80220797Y-57048926D01*
X80215581Y-57069750D01*
X80208349Y-57089962D01*
X80199170Y-57109368D01*
X80188134Y-57127781D01*
X80175346Y-57145024D01*
X80160930Y-57160930D01*
X80145024Y-57175346D01*
X80127781Y-57188134D01*
X80109368Y-57199170D01*
X80089962Y-57208349D01*
X80069750Y-57215581D01*
X80048926Y-57220797D01*
X80027691Y-57223947D01*
X80006250Y-57225000D01*
X79493750Y-57225000D01*
X79472309Y-57223947D01*
X79451074Y-57220797D01*
X79430250Y-57215581D01*
X79410038Y-57208349D01*
X79390632Y-57199170D01*
X79372219Y-57188134D01*
X79354976Y-57175346D01*
X79339070Y-57160930D01*
X79324654Y-57145024D01*
X79311866Y-57127781D01*
X79300830Y-57109368D01*
X79291651Y-57089962D01*
X79284419Y-57069750D01*
X79279203Y-57048926D01*
X79276053Y-57027691D01*
X79275000Y-57006250D01*
X79275000Y-56568750D01*
X79276053Y-56547309D01*
X79279203Y-56526074D01*
X79284419Y-56505250D01*
X79291651Y-56485038D01*
X79300830Y-56465632D01*
X79311866Y-56447219D01*
X79324654Y-56429976D01*
X79339070Y-56414070D01*
X79354976Y-56399654D01*
X79372219Y-56386866D01*
X79390632Y-56375830D01*
X79410038Y-56366651D01*
X79430250Y-56359419D01*
X79451074Y-56354203D01*
X79472309Y-56351053D01*
X79493750Y-56350000D01*
X80006250Y-56350000D01*
X80027691Y-56351053D01*
G37*
G36*
X88777691Y-79276053D02*
G01*
X88798926Y-79279203D01*
X88819750Y-79284419D01*
X88839962Y-79291651D01*
X88859368Y-79300830D01*
X88877781Y-79311866D01*
X88895024Y-79324654D01*
X88910930Y-79339070D01*
X88925346Y-79354976D01*
X88938134Y-79372219D01*
X88949170Y-79390632D01*
X88958349Y-79410038D01*
X88965581Y-79430250D01*
X88970797Y-79451074D01*
X88973947Y-79472309D01*
X88975000Y-79493750D01*
X88975000Y-80006250D01*
X88973947Y-80027691D01*
X88970797Y-80048926D01*
X88965581Y-80069750D01*
X88958349Y-80089962D01*
X88949170Y-80109368D01*
X88938134Y-80127781D01*
X88925346Y-80145024D01*
X88910930Y-80160930D01*
X88895024Y-80175346D01*
X88877781Y-80188134D01*
X88859368Y-80199170D01*
X88839962Y-80208349D01*
X88819750Y-80215581D01*
X88798926Y-80220797D01*
X88777691Y-80223947D01*
X88756250Y-80225000D01*
X88318750Y-80225000D01*
X88297309Y-80223947D01*
X88276074Y-80220797D01*
X88255250Y-80215581D01*
X88235038Y-80208349D01*
X88215632Y-80199170D01*
X88197219Y-80188134D01*
X88179976Y-80175346D01*
X88164070Y-80160930D01*
X88149654Y-80145024D01*
X88136866Y-80127781D01*
X88125830Y-80109368D01*
X88116651Y-80089962D01*
X88109419Y-80069750D01*
X88104203Y-80048926D01*
X88101053Y-80027691D01*
X88100000Y-80006250D01*
X88100000Y-79493750D01*
X88101053Y-79472309D01*
X88104203Y-79451074D01*
X88109419Y-79430250D01*
X88116651Y-79410038D01*
X88125830Y-79390632D01*
X88136866Y-79372219D01*
X88149654Y-79354976D01*
X88164070Y-79339070D01*
X88179976Y-79324654D01*
X88197219Y-79311866D01*
X88215632Y-79300830D01*
X88235038Y-79291651D01*
X88255250Y-79284419D01*
X88276074Y-79279203D01*
X88297309Y-79276053D01*
X88318750Y-79275000D01*
X88756250Y-79275000D01*
X88777691Y-79276053D01*
G37*
G36*
X87202691Y-79276053D02*
G01*
X87223926Y-79279203D01*
X87244750Y-79284419D01*
X87264962Y-79291651D01*
X87284368Y-79300830D01*
X87302781Y-79311866D01*
X87320024Y-79324654D01*
X87335930Y-79339070D01*
X87350346Y-79354976D01*
X87363134Y-79372219D01*
X87374170Y-79390632D01*
X87383349Y-79410038D01*
X87390581Y-79430250D01*
X87395797Y-79451074D01*
X87398947Y-79472309D01*
X87400000Y-79493750D01*
X87400000Y-80006250D01*
X87398947Y-80027691D01*
X87395797Y-80048926D01*
X87390581Y-80069750D01*
X87383349Y-80089962D01*
X87374170Y-80109368D01*
X87363134Y-80127781D01*
X87350346Y-80145024D01*
X87335930Y-80160930D01*
X87320024Y-80175346D01*
X87302781Y-80188134D01*
X87284368Y-80199170D01*
X87264962Y-80208349D01*
X87244750Y-80215581D01*
X87223926Y-80220797D01*
X87202691Y-80223947D01*
X87181250Y-80225000D01*
X86743750Y-80225000D01*
X86722309Y-80223947D01*
X86701074Y-80220797D01*
X86680250Y-80215581D01*
X86660038Y-80208349D01*
X86640632Y-80199170D01*
X86622219Y-80188134D01*
X86604976Y-80175346D01*
X86589070Y-80160930D01*
X86574654Y-80145024D01*
X86561866Y-80127781D01*
X86550830Y-80109368D01*
X86541651Y-80089962D01*
X86534419Y-80069750D01*
X86529203Y-80048926D01*
X86526053Y-80027691D01*
X86525000Y-80006250D01*
X86525000Y-79493750D01*
X86526053Y-79472309D01*
X86529203Y-79451074D01*
X86534419Y-79430250D01*
X86541651Y-79410038D01*
X86550830Y-79390632D01*
X86561866Y-79372219D01*
X86574654Y-79354976D01*
X86589070Y-79339070D01*
X86604976Y-79324654D01*
X86622219Y-79311866D01*
X86640632Y-79300830D01*
X86660038Y-79291651D01*
X86680250Y-79284419D01*
X86701074Y-79279203D01*
X86722309Y-79276053D01*
X86743750Y-79275000D01*
X87181250Y-79275000D01*
X87202691Y-79276053D01*
G37*
G36*
X83277691Y-67351053D02*
G01*
X83298926Y-67354203D01*
X83319750Y-67359419D01*
X83339962Y-67366651D01*
X83359368Y-67375830D01*
X83377781Y-67386866D01*
X83395024Y-67399654D01*
X83410930Y-67414070D01*
X83425346Y-67429976D01*
X83438134Y-67447219D01*
X83449170Y-67465632D01*
X83458349Y-67485038D01*
X83465581Y-67505250D01*
X83470797Y-67526074D01*
X83473947Y-67547309D01*
X83475000Y-67568750D01*
X83475000Y-68006250D01*
X83473947Y-68027691D01*
X83470797Y-68048926D01*
X83465581Y-68069750D01*
X83458349Y-68089962D01*
X83449170Y-68109368D01*
X83438134Y-68127781D01*
X83425346Y-68145024D01*
X83410930Y-68160930D01*
X83395024Y-68175346D01*
X83377781Y-68188134D01*
X83359368Y-68199170D01*
X83339962Y-68208349D01*
X83319750Y-68215581D01*
X83298926Y-68220797D01*
X83277691Y-68223947D01*
X83256250Y-68225000D01*
X82743750Y-68225000D01*
X82722309Y-68223947D01*
X82701074Y-68220797D01*
X82680250Y-68215581D01*
X82660038Y-68208349D01*
X82640632Y-68199170D01*
X82622219Y-68188134D01*
X82604976Y-68175346D01*
X82589070Y-68160930D01*
X82574654Y-68145024D01*
X82561866Y-68127781D01*
X82550830Y-68109368D01*
X82541651Y-68089962D01*
X82534419Y-68069750D01*
X82529203Y-68048926D01*
X82526053Y-68027691D01*
X82525000Y-68006250D01*
X82525000Y-67568750D01*
X82526053Y-67547309D01*
X82529203Y-67526074D01*
X82534419Y-67505250D01*
X82541651Y-67485038D01*
X82550830Y-67465632D01*
X82561866Y-67447219D01*
X82574654Y-67429976D01*
X82589070Y-67414070D01*
X82604976Y-67399654D01*
X82622219Y-67386866D01*
X82640632Y-67375830D01*
X82660038Y-67366651D01*
X82680250Y-67359419D01*
X82701074Y-67354203D01*
X82722309Y-67351053D01*
X82743750Y-67350000D01*
X83256250Y-67350000D01*
X83277691Y-67351053D01*
G37*
G36*
X83277691Y-65776053D02*
G01*
X83298926Y-65779203D01*
X83319750Y-65784419D01*
X83339962Y-65791651D01*
X83359368Y-65800830D01*
X83377781Y-65811866D01*
X83395024Y-65824654D01*
X83410930Y-65839070D01*
X83425346Y-65854976D01*
X83438134Y-65872219D01*
X83449170Y-65890632D01*
X83458349Y-65910038D01*
X83465581Y-65930250D01*
X83470797Y-65951074D01*
X83473947Y-65972309D01*
X83475000Y-65993750D01*
X83475000Y-66431250D01*
X83473947Y-66452691D01*
X83470797Y-66473926D01*
X83465581Y-66494750D01*
X83458349Y-66514962D01*
X83449170Y-66534368D01*
X83438134Y-66552781D01*
X83425346Y-66570024D01*
X83410930Y-66585930D01*
X83395024Y-66600346D01*
X83377781Y-66613134D01*
X83359368Y-66624170D01*
X83339962Y-66633349D01*
X83319750Y-66640581D01*
X83298926Y-66645797D01*
X83277691Y-66648947D01*
X83256250Y-66650000D01*
X82743750Y-66650000D01*
X82722309Y-66648947D01*
X82701074Y-66645797D01*
X82680250Y-66640581D01*
X82660038Y-66633349D01*
X82640632Y-66624170D01*
X82622219Y-66613134D01*
X82604976Y-66600346D01*
X82589070Y-66585930D01*
X82574654Y-66570024D01*
X82561866Y-66552781D01*
X82550830Y-66534368D01*
X82541651Y-66514962D01*
X82534419Y-66494750D01*
X82529203Y-66473926D01*
X82526053Y-66452691D01*
X82525000Y-66431250D01*
X82525000Y-65993750D01*
X82526053Y-65972309D01*
X82529203Y-65951074D01*
X82534419Y-65930250D01*
X82541651Y-65910038D01*
X82550830Y-65890632D01*
X82561866Y-65872219D01*
X82574654Y-65854976D01*
X82589070Y-65839070D01*
X82604976Y-65824654D01*
X82622219Y-65811866D01*
X82640632Y-65800830D01*
X82660038Y-65791651D01*
X82680250Y-65784419D01*
X82701074Y-65779203D01*
X82722309Y-65776053D01*
X82743750Y-65775000D01*
X83256250Y-65775000D01*
X83277691Y-65776053D01*
G37*
G36*
X64277691Y-76776053D02*
G01*
X64298926Y-76779203D01*
X64319750Y-76784419D01*
X64339962Y-76791651D01*
X64359368Y-76800830D01*
X64377781Y-76811866D01*
X64395024Y-76824654D01*
X64410930Y-76839070D01*
X64425346Y-76854976D01*
X64438134Y-76872219D01*
X64449170Y-76890632D01*
X64458349Y-76910038D01*
X64465581Y-76930250D01*
X64470797Y-76951074D01*
X64473947Y-76972309D01*
X64475000Y-76993750D01*
X64475000Y-77506250D01*
X64473947Y-77527691D01*
X64470797Y-77548926D01*
X64465581Y-77569750D01*
X64458349Y-77589962D01*
X64449170Y-77609368D01*
X64438134Y-77627781D01*
X64425346Y-77645024D01*
X64410930Y-77660930D01*
X64395024Y-77675346D01*
X64377781Y-77688134D01*
X64359368Y-77699170D01*
X64339962Y-77708349D01*
X64319750Y-77715581D01*
X64298926Y-77720797D01*
X64277691Y-77723947D01*
X64256250Y-77725000D01*
X63818750Y-77725000D01*
X63797309Y-77723947D01*
X63776074Y-77720797D01*
X63755250Y-77715581D01*
X63735038Y-77708349D01*
X63715632Y-77699170D01*
X63697219Y-77688134D01*
X63679976Y-77675346D01*
X63664070Y-77660930D01*
X63649654Y-77645024D01*
X63636866Y-77627781D01*
X63625830Y-77609368D01*
X63616651Y-77589962D01*
X63609419Y-77569750D01*
X63604203Y-77548926D01*
X63601053Y-77527691D01*
X63600000Y-77506250D01*
X63600000Y-76993750D01*
X63601053Y-76972309D01*
X63604203Y-76951074D01*
X63609419Y-76930250D01*
X63616651Y-76910038D01*
X63625830Y-76890632D01*
X63636866Y-76872219D01*
X63649654Y-76854976D01*
X63664070Y-76839070D01*
X63679976Y-76824654D01*
X63697219Y-76811866D01*
X63715632Y-76800830D01*
X63735038Y-76791651D01*
X63755250Y-76784419D01*
X63776074Y-76779203D01*
X63797309Y-76776053D01*
X63818750Y-76775000D01*
X64256250Y-76775000D01*
X64277691Y-76776053D01*
G37*
G36*
X62702691Y-76776053D02*
G01*
X62723926Y-76779203D01*
X62744750Y-76784419D01*
X62764962Y-76791651D01*
X62784368Y-76800830D01*
X62802781Y-76811866D01*
X62820024Y-76824654D01*
X62835930Y-76839070D01*
X62850346Y-76854976D01*
X62863134Y-76872219D01*
X62874170Y-76890632D01*
X62883349Y-76910038D01*
X62890581Y-76930250D01*
X62895797Y-76951074D01*
X62898947Y-76972309D01*
X62900000Y-76993750D01*
X62900000Y-77506250D01*
X62898947Y-77527691D01*
X62895797Y-77548926D01*
X62890581Y-77569750D01*
X62883349Y-77589962D01*
X62874170Y-77609368D01*
X62863134Y-77627781D01*
X62850346Y-77645024D01*
X62835930Y-77660930D01*
X62820024Y-77675346D01*
X62802781Y-77688134D01*
X62784368Y-77699170D01*
X62764962Y-77708349D01*
X62744750Y-77715581D01*
X62723926Y-77720797D01*
X62702691Y-77723947D01*
X62681250Y-77725000D01*
X62243750Y-77725000D01*
X62222309Y-77723947D01*
X62201074Y-77720797D01*
X62180250Y-77715581D01*
X62160038Y-77708349D01*
X62140632Y-77699170D01*
X62122219Y-77688134D01*
X62104976Y-77675346D01*
X62089070Y-77660930D01*
X62074654Y-77645024D01*
X62061866Y-77627781D01*
X62050830Y-77609368D01*
X62041651Y-77589962D01*
X62034419Y-77569750D01*
X62029203Y-77548926D01*
X62026053Y-77527691D01*
X62025000Y-77506250D01*
X62025000Y-76993750D01*
X62026053Y-76972309D01*
X62029203Y-76951074D01*
X62034419Y-76930250D01*
X62041651Y-76910038D01*
X62050830Y-76890632D01*
X62061866Y-76872219D01*
X62074654Y-76854976D01*
X62089070Y-76839070D01*
X62104976Y-76824654D01*
X62122219Y-76811866D01*
X62140632Y-76800830D01*
X62160038Y-76791651D01*
X62180250Y-76784419D01*
X62201074Y-76779203D01*
X62222309Y-76776053D01*
X62243750Y-76775000D01*
X62681250Y-76775000D01*
X62702691Y-76776053D01*
G37*
G36*
X64277691Y-74776053D02*
G01*
X64298926Y-74779203D01*
X64319750Y-74784419D01*
X64339962Y-74791651D01*
X64359368Y-74800830D01*
X64377781Y-74811866D01*
X64395024Y-74824654D01*
X64410930Y-74839070D01*
X64425346Y-74854976D01*
X64438134Y-74872219D01*
X64449170Y-74890632D01*
X64458349Y-74910038D01*
X64465581Y-74930250D01*
X64470797Y-74951074D01*
X64473947Y-74972309D01*
X64475000Y-74993750D01*
X64475000Y-75506250D01*
X64473947Y-75527691D01*
X64470797Y-75548926D01*
X64465581Y-75569750D01*
X64458349Y-75589962D01*
X64449170Y-75609368D01*
X64438134Y-75627781D01*
X64425346Y-75645024D01*
X64410930Y-75660930D01*
X64395024Y-75675346D01*
X64377781Y-75688134D01*
X64359368Y-75699170D01*
X64339962Y-75708349D01*
X64319750Y-75715581D01*
X64298926Y-75720797D01*
X64277691Y-75723947D01*
X64256250Y-75725000D01*
X63818750Y-75725000D01*
X63797309Y-75723947D01*
X63776074Y-75720797D01*
X63755250Y-75715581D01*
X63735038Y-75708349D01*
X63715632Y-75699170D01*
X63697219Y-75688134D01*
X63679976Y-75675346D01*
X63664070Y-75660930D01*
X63649654Y-75645024D01*
X63636866Y-75627781D01*
X63625830Y-75609368D01*
X63616651Y-75589962D01*
X63609419Y-75569750D01*
X63604203Y-75548926D01*
X63601053Y-75527691D01*
X63600000Y-75506250D01*
X63600000Y-74993750D01*
X63601053Y-74972309D01*
X63604203Y-74951074D01*
X63609419Y-74930250D01*
X63616651Y-74910038D01*
X63625830Y-74890632D01*
X63636866Y-74872219D01*
X63649654Y-74854976D01*
X63664070Y-74839070D01*
X63679976Y-74824654D01*
X63697219Y-74811866D01*
X63715632Y-74800830D01*
X63735038Y-74791651D01*
X63755250Y-74784419D01*
X63776074Y-74779203D01*
X63797309Y-74776053D01*
X63818750Y-74775000D01*
X64256250Y-74775000D01*
X64277691Y-74776053D01*
G37*
G36*
X62702691Y-74776053D02*
G01*
X62723926Y-74779203D01*
X62744750Y-74784419D01*
X62764962Y-74791651D01*
X62784368Y-74800830D01*
X62802781Y-74811866D01*
X62820024Y-74824654D01*
X62835930Y-74839070D01*
X62850346Y-74854976D01*
X62863134Y-74872219D01*
X62874170Y-74890632D01*
X62883349Y-74910038D01*
X62890581Y-74930250D01*
X62895797Y-74951074D01*
X62898947Y-74972309D01*
X62900000Y-74993750D01*
X62900000Y-75506250D01*
X62898947Y-75527691D01*
X62895797Y-75548926D01*
X62890581Y-75569750D01*
X62883349Y-75589962D01*
X62874170Y-75609368D01*
X62863134Y-75627781D01*
X62850346Y-75645024D01*
X62835930Y-75660930D01*
X62820024Y-75675346D01*
X62802781Y-75688134D01*
X62784368Y-75699170D01*
X62764962Y-75708349D01*
X62744750Y-75715581D01*
X62723926Y-75720797D01*
X62702691Y-75723947D01*
X62681250Y-75725000D01*
X62243750Y-75725000D01*
X62222309Y-75723947D01*
X62201074Y-75720797D01*
X62180250Y-75715581D01*
X62160038Y-75708349D01*
X62140632Y-75699170D01*
X62122219Y-75688134D01*
X62104976Y-75675346D01*
X62089070Y-75660930D01*
X62074654Y-75645024D01*
X62061866Y-75627781D01*
X62050830Y-75609368D01*
X62041651Y-75589962D01*
X62034419Y-75569750D01*
X62029203Y-75548926D01*
X62026053Y-75527691D01*
X62025000Y-75506250D01*
X62025000Y-74993750D01*
X62026053Y-74972309D01*
X62029203Y-74951074D01*
X62034419Y-74930250D01*
X62041651Y-74910038D01*
X62050830Y-74890632D01*
X62061866Y-74872219D01*
X62074654Y-74854976D01*
X62089070Y-74839070D01*
X62104976Y-74824654D01*
X62122219Y-74811866D01*
X62140632Y-74800830D01*
X62160038Y-74791651D01*
X62180250Y-74784419D01*
X62201074Y-74779203D01*
X62222309Y-74776053D01*
X62243750Y-74775000D01*
X62681250Y-74775000D01*
X62702691Y-74776053D01*
G37*
G36*
X103452691Y-82276053D02*
G01*
X103473926Y-82279203D01*
X103494750Y-82284419D01*
X103514962Y-82291651D01*
X103534368Y-82300830D01*
X103552781Y-82311866D01*
X103570024Y-82324654D01*
X103585930Y-82339070D01*
X103600346Y-82354976D01*
X103613134Y-82372219D01*
X103624170Y-82390632D01*
X103633349Y-82410038D01*
X103640581Y-82430250D01*
X103645797Y-82451074D01*
X103648947Y-82472309D01*
X103650000Y-82493750D01*
X103650000Y-83006250D01*
X103648947Y-83027691D01*
X103645797Y-83048926D01*
X103640581Y-83069750D01*
X103633349Y-83089962D01*
X103624170Y-83109368D01*
X103613134Y-83127781D01*
X103600346Y-83145024D01*
X103585930Y-83160930D01*
X103570024Y-83175346D01*
X103552781Y-83188134D01*
X103534368Y-83199170D01*
X103514962Y-83208349D01*
X103494750Y-83215581D01*
X103473926Y-83220797D01*
X103452691Y-83223947D01*
X103431250Y-83225000D01*
X102993750Y-83225000D01*
X102972309Y-83223947D01*
X102951074Y-83220797D01*
X102930250Y-83215581D01*
X102910038Y-83208349D01*
X102890632Y-83199170D01*
X102872219Y-83188134D01*
X102854976Y-83175346D01*
X102839070Y-83160930D01*
X102824654Y-83145024D01*
X102811866Y-83127781D01*
X102800830Y-83109368D01*
X102791651Y-83089962D01*
X102784419Y-83069750D01*
X102779203Y-83048926D01*
X102776053Y-83027691D01*
X102775000Y-83006250D01*
X102775000Y-82493750D01*
X102776053Y-82472309D01*
X102779203Y-82451074D01*
X102784419Y-82430250D01*
X102791651Y-82410038D01*
X102800830Y-82390632D01*
X102811866Y-82372219D01*
X102824654Y-82354976D01*
X102839070Y-82339070D01*
X102854976Y-82324654D01*
X102872219Y-82311866D01*
X102890632Y-82300830D01*
X102910038Y-82291651D01*
X102930250Y-82284419D01*
X102951074Y-82279203D01*
X102972309Y-82276053D01*
X102993750Y-82275000D01*
X103431250Y-82275000D01*
X103452691Y-82276053D01*
G37*
G36*
X105027691Y-82276053D02*
G01*
X105048926Y-82279203D01*
X105069750Y-82284419D01*
X105089962Y-82291651D01*
X105109368Y-82300830D01*
X105127781Y-82311866D01*
X105145024Y-82324654D01*
X105160930Y-82339070D01*
X105175346Y-82354976D01*
X105188134Y-82372219D01*
X105199170Y-82390632D01*
X105208349Y-82410038D01*
X105215581Y-82430250D01*
X105220797Y-82451074D01*
X105223947Y-82472309D01*
X105225000Y-82493750D01*
X105225000Y-83006250D01*
X105223947Y-83027691D01*
X105220797Y-83048926D01*
X105215581Y-83069750D01*
X105208349Y-83089962D01*
X105199170Y-83109368D01*
X105188134Y-83127781D01*
X105175346Y-83145024D01*
X105160930Y-83160930D01*
X105145024Y-83175346D01*
X105127781Y-83188134D01*
X105109368Y-83199170D01*
X105089962Y-83208349D01*
X105069750Y-83215581D01*
X105048926Y-83220797D01*
X105027691Y-83223947D01*
X105006250Y-83225000D01*
X104568750Y-83225000D01*
X104547309Y-83223947D01*
X104526074Y-83220797D01*
X104505250Y-83215581D01*
X104485038Y-83208349D01*
X104465632Y-83199170D01*
X104447219Y-83188134D01*
X104429976Y-83175346D01*
X104414070Y-83160930D01*
X104399654Y-83145024D01*
X104386866Y-83127781D01*
X104375830Y-83109368D01*
X104366651Y-83089962D01*
X104359419Y-83069750D01*
X104354203Y-83048926D01*
X104351053Y-83027691D01*
X104350000Y-83006250D01*
X104350000Y-82493750D01*
X104351053Y-82472309D01*
X104354203Y-82451074D01*
X104359419Y-82430250D01*
X104366651Y-82410038D01*
X104375830Y-82390632D01*
X104386866Y-82372219D01*
X104399654Y-82354976D01*
X104414070Y-82339070D01*
X104429976Y-82324654D01*
X104447219Y-82311866D01*
X104465632Y-82300830D01*
X104485038Y-82291651D01*
X104505250Y-82284419D01*
X104526074Y-82279203D01*
X104547309Y-82276053D01*
X104568750Y-82275000D01*
X105006250Y-82275000D01*
X105027691Y-82276053D01*
G37*
G36*
X103452691Y-86186053D02*
G01*
X103473926Y-86189203D01*
X103494750Y-86194419D01*
X103514962Y-86201651D01*
X103534368Y-86210830D01*
X103552781Y-86221866D01*
X103570024Y-86234654D01*
X103585930Y-86249070D01*
X103600346Y-86264976D01*
X103613134Y-86282219D01*
X103624170Y-86300632D01*
X103633349Y-86320038D01*
X103640581Y-86340250D01*
X103645797Y-86361074D01*
X103648947Y-86382309D01*
X103650000Y-86403750D01*
X103650000Y-86916250D01*
X103648947Y-86937691D01*
X103645797Y-86958926D01*
X103640581Y-86979750D01*
X103633349Y-86999962D01*
X103624170Y-87019368D01*
X103613134Y-87037781D01*
X103600346Y-87055024D01*
X103585930Y-87070930D01*
X103570024Y-87085346D01*
X103552781Y-87098134D01*
X103534368Y-87109170D01*
X103514962Y-87118349D01*
X103494750Y-87125581D01*
X103473926Y-87130797D01*
X103452691Y-87133947D01*
X103431250Y-87135000D01*
X102993750Y-87135000D01*
X102972309Y-87133947D01*
X102951074Y-87130797D01*
X102930250Y-87125581D01*
X102910038Y-87118349D01*
X102890632Y-87109170D01*
X102872219Y-87098134D01*
X102854976Y-87085346D01*
X102839070Y-87070930D01*
X102824654Y-87055024D01*
X102811866Y-87037781D01*
X102800830Y-87019368D01*
X102791651Y-86999962D01*
X102784419Y-86979750D01*
X102779203Y-86958926D01*
X102776053Y-86937691D01*
X102775000Y-86916250D01*
X102775000Y-86403750D01*
X102776053Y-86382309D01*
X102779203Y-86361074D01*
X102784419Y-86340250D01*
X102791651Y-86320038D01*
X102800830Y-86300632D01*
X102811866Y-86282219D01*
X102824654Y-86264976D01*
X102839070Y-86249070D01*
X102854976Y-86234654D01*
X102872219Y-86221866D01*
X102890632Y-86210830D01*
X102910038Y-86201651D01*
X102930250Y-86194419D01*
X102951074Y-86189203D01*
X102972309Y-86186053D01*
X102993750Y-86185000D01*
X103431250Y-86185000D01*
X103452691Y-86186053D01*
G37*
G36*
X105027691Y-86186053D02*
G01*
X105048926Y-86189203D01*
X105069750Y-86194419D01*
X105089962Y-86201651D01*
X105109368Y-86210830D01*
X105127781Y-86221866D01*
X105145024Y-86234654D01*
X105160930Y-86249070D01*
X105175346Y-86264976D01*
X105188134Y-86282219D01*
X105199170Y-86300632D01*
X105208349Y-86320038D01*
X105215581Y-86340250D01*
X105220797Y-86361074D01*
X105223947Y-86382309D01*
X105225000Y-86403750D01*
X105225000Y-86916250D01*
X105223947Y-86937691D01*
X105220797Y-86958926D01*
X105215581Y-86979750D01*
X105208349Y-86999962D01*
X105199170Y-87019368D01*
X105188134Y-87037781D01*
X105175346Y-87055024D01*
X105160930Y-87070930D01*
X105145024Y-87085346D01*
X105127781Y-87098134D01*
X105109368Y-87109170D01*
X105089962Y-87118349D01*
X105069750Y-87125581D01*
X105048926Y-87130797D01*
X105027691Y-87133947D01*
X105006250Y-87135000D01*
X104568750Y-87135000D01*
X104547309Y-87133947D01*
X104526074Y-87130797D01*
X104505250Y-87125581D01*
X104485038Y-87118349D01*
X104465632Y-87109170D01*
X104447219Y-87098134D01*
X104429976Y-87085346D01*
X104414070Y-87070930D01*
X104399654Y-87055024D01*
X104386866Y-87037781D01*
X104375830Y-87019368D01*
X104366651Y-86999962D01*
X104359419Y-86979750D01*
X104354203Y-86958926D01*
X104351053Y-86937691D01*
X104350000Y-86916250D01*
X104350000Y-86403750D01*
X104351053Y-86382309D01*
X104354203Y-86361074D01*
X104359419Y-86340250D01*
X104366651Y-86320038D01*
X104375830Y-86300632D01*
X104386866Y-86282219D01*
X104399654Y-86264976D01*
X104414070Y-86249070D01*
X104429976Y-86234654D01*
X104447219Y-86221866D01*
X104465632Y-86210830D01*
X104485038Y-86201651D01*
X104505250Y-86194419D01*
X104526074Y-86189203D01*
X104547309Y-86186053D01*
X104568750Y-86185000D01*
X105006250Y-86185000D01*
X105027691Y-86186053D01*
G37*
G36*
X103452691Y-84276053D02*
G01*
X103473926Y-84279203D01*
X103494750Y-84284419D01*
X103514962Y-84291651D01*
X103534368Y-84300830D01*
X103552781Y-84311866D01*
X103570024Y-84324654D01*
X103585930Y-84339070D01*
X103600346Y-84354976D01*
X103613134Y-84372219D01*
X103624170Y-84390632D01*
X103633349Y-84410038D01*
X103640581Y-84430250D01*
X103645797Y-84451074D01*
X103648947Y-84472309D01*
X103650000Y-84493750D01*
X103650000Y-85006250D01*
X103648947Y-85027691D01*
X103645797Y-85048926D01*
X103640581Y-85069750D01*
X103633349Y-85089962D01*
X103624170Y-85109368D01*
X103613134Y-85127781D01*
X103600346Y-85145024D01*
X103585930Y-85160930D01*
X103570024Y-85175346D01*
X103552781Y-85188134D01*
X103534368Y-85199170D01*
X103514962Y-85208349D01*
X103494750Y-85215581D01*
X103473926Y-85220797D01*
X103452691Y-85223947D01*
X103431250Y-85225000D01*
X102993750Y-85225000D01*
X102972309Y-85223947D01*
X102951074Y-85220797D01*
X102930250Y-85215581D01*
X102910038Y-85208349D01*
X102890632Y-85199170D01*
X102872219Y-85188134D01*
X102854976Y-85175346D01*
X102839070Y-85160930D01*
X102824654Y-85145024D01*
X102811866Y-85127781D01*
X102800830Y-85109368D01*
X102791651Y-85089962D01*
X102784419Y-85069750D01*
X102779203Y-85048926D01*
X102776053Y-85027691D01*
X102775000Y-85006250D01*
X102775000Y-84493750D01*
X102776053Y-84472309D01*
X102779203Y-84451074D01*
X102784419Y-84430250D01*
X102791651Y-84410038D01*
X102800830Y-84390632D01*
X102811866Y-84372219D01*
X102824654Y-84354976D01*
X102839070Y-84339070D01*
X102854976Y-84324654D01*
X102872219Y-84311866D01*
X102890632Y-84300830D01*
X102910038Y-84291651D01*
X102930250Y-84284419D01*
X102951074Y-84279203D01*
X102972309Y-84276053D01*
X102993750Y-84275000D01*
X103431250Y-84275000D01*
X103452691Y-84276053D01*
G37*
G36*
X105027691Y-84276053D02*
G01*
X105048926Y-84279203D01*
X105069750Y-84284419D01*
X105089962Y-84291651D01*
X105109368Y-84300830D01*
X105127781Y-84311866D01*
X105145024Y-84324654D01*
X105160930Y-84339070D01*
X105175346Y-84354976D01*
X105188134Y-84372219D01*
X105199170Y-84390632D01*
X105208349Y-84410038D01*
X105215581Y-84430250D01*
X105220797Y-84451074D01*
X105223947Y-84472309D01*
X105225000Y-84493750D01*
X105225000Y-85006250D01*
X105223947Y-85027691D01*
X105220797Y-85048926D01*
X105215581Y-85069750D01*
X105208349Y-85089962D01*
X105199170Y-85109368D01*
X105188134Y-85127781D01*
X105175346Y-85145024D01*
X105160930Y-85160930D01*
X105145024Y-85175346D01*
X105127781Y-85188134D01*
X105109368Y-85199170D01*
X105089962Y-85208349D01*
X105069750Y-85215581D01*
X105048926Y-85220797D01*
X105027691Y-85223947D01*
X105006250Y-85225000D01*
X104568750Y-85225000D01*
X104547309Y-85223947D01*
X104526074Y-85220797D01*
X104505250Y-85215581D01*
X104485038Y-85208349D01*
X104465632Y-85199170D01*
X104447219Y-85188134D01*
X104429976Y-85175346D01*
X104414070Y-85160930D01*
X104399654Y-85145024D01*
X104386866Y-85127781D01*
X104375830Y-85109368D01*
X104366651Y-85089962D01*
X104359419Y-85069750D01*
X104354203Y-85048926D01*
X104351053Y-85027691D01*
X104350000Y-85006250D01*
X104350000Y-84493750D01*
X104351053Y-84472309D01*
X104354203Y-84451074D01*
X104359419Y-84430250D01*
X104366651Y-84410038D01*
X104375830Y-84390632D01*
X104386866Y-84372219D01*
X104399654Y-84354976D01*
X104414070Y-84339070D01*
X104429976Y-84324654D01*
X104447219Y-84311866D01*
X104465632Y-84300830D01*
X104485038Y-84291651D01*
X104505250Y-84284419D01*
X104526074Y-84279203D01*
X104547309Y-84276053D01*
X104568750Y-84275000D01*
X105006250Y-84275000D01*
X105027691Y-84276053D01*
G37*
G36*
X126777691Y-72026053D02*
G01*
X126798926Y-72029203D01*
X126819750Y-72034419D01*
X126839962Y-72041651D01*
X126859368Y-72050830D01*
X126877781Y-72061866D01*
X126895024Y-72074654D01*
X126910930Y-72089070D01*
X126925346Y-72104976D01*
X126938134Y-72122219D01*
X126949170Y-72140632D01*
X126958349Y-72160038D01*
X126965581Y-72180250D01*
X126970797Y-72201074D01*
X126973947Y-72222309D01*
X126975000Y-72243750D01*
X126975000Y-72681250D01*
X126973947Y-72702691D01*
X126970797Y-72723926D01*
X126965581Y-72744750D01*
X126958349Y-72764962D01*
X126949170Y-72784368D01*
X126938134Y-72802781D01*
X126925346Y-72820024D01*
X126910930Y-72835930D01*
X126895024Y-72850346D01*
X126877781Y-72863134D01*
X126859368Y-72874170D01*
X126839962Y-72883349D01*
X126819750Y-72890581D01*
X126798926Y-72895797D01*
X126777691Y-72898947D01*
X126756250Y-72900000D01*
X126243750Y-72900000D01*
X126222309Y-72898947D01*
X126201074Y-72895797D01*
X126180250Y-72890581D01*
X126160038Y-72883349D01*
X126140632Y-72874170D01*
X126122219Y-72863134D01*
X126104976Y-72850346D01*
X126089070Y-72835930D01*
X126074654Y-72820024D01*
X126061866Y-72802781D01*
X126050830Y-72784368D01*
X126041651Y-72764962D01*
X126034419Y-72744750D01*
X126029203Y-72723926D01*
X126026053Y-72702691D01*
X126025000Y-72681250D01*
X126025000Y-72243750D01*
X126026053Y-72222309D01*
X126029203Y-72201074D01*
X126034419Y-72180250D01*
X126041651Y-72160038D01*
X126050830Y-72140632D01*
X126061866Y-72122219D01*
X126074654Y-72104976D01*
X126089070Y-72089070D01*
X126104976Y-72074654D01*
X126122219Y-72061866D01*
X126140632Y-72050830D01*
X126160038Y-72041651D01*
X126180250Y-72034419D01*
X126201074Y-72029203D01*
X126222309Y-72026053D01*
X126243750Y-72025000D01*
X126756250Y-72025000D01*
X126777691Y-72026053D01*
G37*
G36*
X126777691Y-73601053D02*
G01*
X126798926Y-73604203D01*
X126819750Y-73609419D01*
X126839962Y-73616651D01*
X126859368Y-73625830D01*
X126877781Y-73636866D01*
X126895024Y-73649654D01*
X126910930Y-73664070D01*
X126925346Y-73679976D01*
X126938134Y-73697219D01*
X126949170Y-73715632D01*
X126958349Y-73735038D01*
X126965581Y-73755250D01*
X126970797Y-73776074D01*
X126973947Y-73797309D01*
X126975000Y-73818750D01*
X126975000Y-74256250D01*
X126973947Y-74277691D01*
X126970797Y-74298926D01*
X126965581Y-74319750D01*
X126958349Y-74339962D01*
X126949170Y-74359368D01*
X126938134Y-74377781D01*
X126925346Y-74395024D01*
X126910930Y-74410930D01*
X126895024Y-74425346D01*
X126877781Y-74438134D01*
X126859368Y-74449170D01*
X126839962Y-74458349D01*
X126819750Y-74465581D01*
X126798926Y-74470797D01*
X126777691Y-74473947D01*
X126756250Y-74475000D01*
X126243750Y-74475000D01*
X126222309Y-74473947D01*
X126201074Y-74470797D01*
X126180250Y-74465581D01*
X126160038Y-74458349D01*
X126140632Y-74449170D01*
X126122219Y-74438134D01*
X126104976Y-74425346D01*
X126089070Y-74410930D01*
X126074654Y-74395024D01*
X126061866Y-74377781D01*
X126050830Y-74359368D01*
X126041651Y-74339962D01*
X126034419Y-74319750D01*
X126029203Y-74298926D01*
X126026053Y-74277691D01*
X126025000Y-74256250D01*
X126025000Y-73818750D01*
X126026053Y-73797309D01*
X126029203Y-73776074D01*
X126034419Y-73755250D01*
X126041651Y-73735038D01*
X126050830Y-73715632D01*
X126061866Y-73697219D01*
X126074654Y-73679976D01*
X126089070Y-73664070D01*
X126104976Y-73649654D01*
X126122219Y-73636866D01*
X126140632Y-73625830D01*
X126160038Y-73616651D01*
X126180250Y-73609419D01*
X126201074Y-73604203D01*
X126222309Y-73601053D01*
X126243750Y-73600000D01*
X126756250Y-73600000D01*
X126777691Y-73601053D01*
G37*
G36*
X124777691Y-72026053D02*
G01*
X124798926Y-72029203D01*
X124819750Y-72034419D01*
X124839962Y-72041651D01*
X124859368Y-72050830D01*
X124877781Y-72061866D01*
X124895024Y-72074654D01*
X124910930Y-72089070D01*
X124925346Y-72104976D01*
X124938134Y-72122219D01*
X124949170Y-72140632D01*
X124958349Y-72160038D01*
X124965581Y-72180250D01*
X124970797Y-72201074D01*
X124973947Y-72222309D01*
X124975000Y-72243750D01*
X124975000Y-72681250D01*
X124973947Y-72702691D01*
X124970797Y-72723926D01*
X124965581Y-72744750D01*
X124958349Y-72764962D01*
X124949170Y-72784368D01*
X124938134Y-72802781D01*
X124925346Y-72820024D01*
X124910930Y-72835930D01*
X124895024Y-72850346D01*
X124877781Y-72863134D01*
X124859368Y-72874170D01*
X124839962Y-72883349D01*
X124819750Y-72890581D01*
X124798926Y-72895797D01*
X124777691Y-72898947D01*
X124756250Y-72900000D01*
X124243750Y-72900000D01*
X124222309Y-72898947D01*
X124201074Y-72895797D01*
X124180250Y-72890581D01*
X124160038Y-72883349D01*
X124140632Y-72874170D01*
X124122219Y-72863134D01*
X124104976Y-72850346D01*
X124089070Y-72835930D01*
X124074654Y-72820024D01*
X124061866Y-72802781D01*
X124050830Y-72784368D01*
X124041651Y-72764962D01*
X124034419Y-72744750D01*
X124029203Y-72723926D01*
X124026053Y-72702691D01*
X124025000Y-72681250D01*
X124025000Y-72243750D01*
X124026053Y-72222309D01*
X124029203Y-72201074D01*
X124034419Y-72180250D01*
X124041651Y-72160038D01*
X124050830Y-72140632D01*
X124061866Y-72122219D01*
X124074654Y-72104976D01*
X124089070Y-72089070D01*
X124104976Y-72074654D01*
X124122219Y-72061866D01*
X124140632Y-72050830D01*
X124160038Y-72041651D01*
X124180250Y-72034419D01*
X124201074Y-72029203D01*
X124222309Y-72026053D01*
X124243750Y-72025000D01*
X124756250Y-72025000D01*
X124777691Y-72026053D01*
G37*
G36*
X124777691Y-73601053D02*
G01*
X124798926Y-73604203D01*
X124819750Y-73609419D01*
X124839962Y-73616651D01*
X124859368Y-73625830D01*
X124877781Y-73636866D01*
X124895024Y-73649654D01*
X124910930Y-73664070D01*
X124925346Y-73679976D01*
X124938134Y-73697219D01*
X124949170Y-73715632D01*
X124958349Y-73735038D01*
X124965581Y-73755250D01*
X124970797Y-73776074D01*
X124973947Y-73797309D01*
X124975000Y-73818750D01*
X124975000Y-74256250D01*
X124973947Y-74277691D01*
X124970797Y-74298926D01*
X124965581Y-74319750D01*
X124958349Y-74339962D01*
X124949170Y-74359368D01*
X124938134Y-74377781D01*
X124925346Y-74395024D01*
X124910930Y-74410930D01*
X124895024Y-74425346D01*
X124877781Y-74438134D01*
X124859368Y-74449170D01*
X124839962Y-74458349D01*
X124819750Y-74465581D01*
X124798926Y-74470797D01*
X124777691Y-74473947D01*
X124756250Y-74475000D01*
X124243750Y-74475000D01*
X124222309Y-74473947D01*
X124201074Y-74470797D01*
X124180250Y-74465581D01*
X124160038Y-74458349D01*
X124140632Y-74449170D01*
X124122219Y-74438134D01*
X124104976Y-74425346D01*
X124089070Y-74410930D01*
X124074654Y-74395024D01*
X124061866Y-74377781D01*
X124050830Y-74359368D01*
X124041651Y-74339962D01*
X124034419Y-74319750D01*
X124029203Y-74298926D01*
X124026053Y-74277691D01*
X124025000Y-74256250D01*
X124025000Y-73818750D01*
X124026053Y-73797309D01*
X124029203Y-73776074D01*
X124034419Y-73755250D01*
X124041651Y-73735038D01*
X124050830Y-73715632D01*
X124061866Y-73697219D01*
X124074654Y-73679976D01*
X124089070Y-73664070D01*
X124104976Y-73649654D01*
X124122219Y-73636866D01*
X124140632Y-73625830D01*
X124160038Y-73616651D01*
X124180250Y-73609419D01*
X124201074Y-73604203D01*
X124222309Y-73601053D01*
X124243750Y-73600000D01*
X124756250Y-73600000D01*
X124777691Y-73601053D01*
G37*
M02*
