M48
; DRILL file {KiCad (5.1.5)-3} date 01-04-2020 20:44:16
; FORMAT={-:-/ absolute / metric / decimal}
; #@! TF.CreationDate,2020-04-01T20:44:16+02:00
; #@! TF.GenerationSoftware,Kicad,Pcbnew,(5.1.5)-3
FMAT,2
METRIC
T1C0.400
T2C0.750
T3C0.800
T4C1.000
T5C1.100
T6C1.250
T7C1.300
T8C1.500
T9C2.500
T10C2.700
%
G90
G05
T1
X42.5Y-32.5
X42.5Y-37.5
X42.5Y-42.5
X42.5Y-47.5
X42.5Y-52.5
X42.5Y-57.5
X42.5Y-62.5
X42.5Y-67.5
X42.5Y-72.5
X42.5Y-77.5
X42.5Y-82.5
X42.5Y-87.5
X42.5Y-92.5
X42.5Y-97.5
X42.5Y-102.5
X44.6Y-30.4
X45.0Y-50.0
X45.0Y-52.5
X45.0Y-76.0
X47.1Y-30.4
X47.5Y-35.0
X47.5Y-40.0
X47.5Y-45.0
X47.5Y-47.5
X47.5Y-52.5
X47.5Y-67.5
X47.5Y-76.0
X47.5Y-97.5
X47.5Y-102.5
X48.5Y-70.0
X49.0Y-66.0
X49.0Y-72.5
X50.0Y-59.0
X50.0Y-62.0
X50.0Y-69.0
X50.0Y-75.5
X50.0Y-82.5
X50.0Y-87.5
X50.0Y-92.5
X51.75Y-63.75
X52.0Y-67.25
X52.1Y-30.4
X52.5Y-47.5
X52.5Y-69.5
X52.5Y-90.0
X52.5Y-102.5
X53.0Y-61.0
X53.0Y-74.5
X54.0Y-71.5
X54.5Y-84.0
X54.75Y-60.0
X54.75Y-67.75
X55.5Y-79.5
X56.0Y-67.5
X56.5Y-75.0
X56.75Y-80.0
X57.0Y-69.0
X57.1Y-30.4
X57.5Y-47.5
X57.5Y-90.0
X57.5Y-95.0
X57.5Y-102.5
X59.0Y-60.0
X59.0Y-68.5
X59.0Y-84.0
X59.25Y-61.0
X59.5Y-93.0
X59.5Y-95.0
X59.85Y-80.73
X60.0Y-82.5
X60.5Y-92.0
X60.7Y-76.3
X60.758Y-78.269
X61.0Y-74.5
X61.5Y-61.0
X61.5Y-65.0
X61.75Y-83.75
X62.1Y-30.4
X62.25Y-72.0
X62.5Y-78.75
X62.5Y-87.5
X62.5Y-90.0
X62.5Y-92.0
X62.5Y-102.5
X63.7Y-48.4
X64.0Y-57.75
X64.5Y-52.5
X65.0Y-62.5
X65.0Y-67.5
X65.0Y-70.0
X65.0Y-80.0
X65.0Y-82.5
X65.0Y-87.5
X65.5Y-75.0
X65.5Y-77.0
X67.1Y-30.4
X67.5Y-92.0
X67.5Y-102.5
X68.0Y-70.75
X68.8Y-96.2
X69.5Y-92.0
X70.0Y-52.5
X70.0Y-55.0
X70.0Y-57.5
X70.0Y-60.0
X70.0Y-62.5
X70.0Y-65.0
X70.0Y-67.5
X70.0Y-70.0
X70.0Y-72.5
X70.0Y-75.0
X70.0Y-77.5
X70.0Y-80.0
X70.0Y-82.5
X72.1Y-30.4
X72.5Y-102.5
X74.5Y-62.0
X74.5Y-90.0
X74.5Y-92.0
X75.0Y-52.5
X76.25Y-64.75
X76.5Y-92.0
X77.0Y-63.0
X77.1Y-30.4
X77.5Y-54.0
X77.5Y-69.0
X77.5Y-72.5
X77.5Y-77.5
X77.5Y-102.5
X77.6Y-59.1
X78.75Y-48.0
X79.071Y-59.95
X79.5Y-52.0
X79.5Y-54.0
X80.0Y-87.5
X80.25Y-58.0
X80.5Y-63.75
X80.5Y-93.0
X80.5Y-95.0
X81.5Y-60.75
X81.5Y-92.0
X82.1Y-30.4
X82.5Y-64.5
X82.5Y-75.0
X82.5Y-102.5
X83.0Y-57.75
X83.5Y-92.0
X84.0Y-68.5
X84.25Y-70.0
X84.25Y-73.75
X84.5Y-96.0
X85.0Y-35.0
X85.0Y-40.0
X85.0Y-45.0
X85.0Y-82.5
X85.0Y-87.5
X85.0Y-90.0
X85.5Y-57.0
X85.5Y-71.5
X85.5Y-92.0
X85.5Y-94.0
X86.5Y-65.0
X86.5Y-67.5
X87.0Y-62.5
X87.1Y-30.4
X87.5Y-84.0
X87.5Y-92.5
X87.5Y-97.5
X87.5Y-102.5
X88.25Y-60.25
X89.5Y-67.5
X90.0Y-32.5
X90.0Y-35.0
X90.0Y-37.5
X90.0Y-75.0
X90.0Y-77.75
X90.0Y-79.75
X90.0Y-87.5
X90.5Y-62.0
X91.5Y-60.25
X91.5Y-67.0
X91.5Y-81.0
X92.1Y-30.4
X92.5Y-37.5
X92.5Y-84.0
X92.5Y-92.5
X92.5Y-102.5
X93.0Y-62.0
X94.5Y-77.5
X95.0Y-75.0
X95.0Y-80.0
X95.0Y-87.5
X95.5Y-65.0
X95.5Y-84.0
X97.0Y-85.75
X97.1Y-30.4
X97.5Y-92.5
X97.5Y-97.5
X97.5Y-102.5
X98.0Y-83.25
X98.5Y-62.0
X99.0Y-71.5
X99.5Y-77.5
X99.5Y-103.5
X100.0Y-74.0
X100.0Y-90.0
X100.0Y-95.0
X101.0Y-69.0
X101.25Y-82.75
X101.5Y-62.0
X102.0Y-79.75
X102.0Y-82.0
X102.0Y-84.75
X102.0Y-86.5
X102.1Y-30.4
X102.25Y-103.5
X102.5Y-35.0
X102.5Y-71.5
X102.5Y-92.5
X103.04Y-64.25
X103.2Y-96.9
X103.5Y-67.0
X104.0Y-71.75
X104.0Y-77.5
X104.5Y-62.0
X104.5Y-69.0
X104.5Y-74.0
X104.75Y-103.5
X105.0Y-32.5
X105.0Y-37.5
X105.0Y-90.5
X105.0Y-93.5
X105.0Y-95.5
X105.358Y-70.55
X105.5Y-96.75
X105.75Y-89.0
X107.0Y-91.5
X107.0Y-94.5
X107.1Y-30.4
X107.25Y-75.75
X107.25Y-82.0
X107.25Y-103.5
X107.5Y-40.0
X107.5Y-62.0
X107.5Y-74.25
X107.5Y-77.25
X107.5Y-80.25
X107.5Y-83.75
X107.626Y-70.937
X108.0Y-66.5
X108.0Y-68.5
X108.5Y-87.75
X109.5Y-77.5
X109.5Y-96.5
X109.8Y-67.0
X110.0Y-42.5
X110.0Y-89.0
X110.5Y-61.5
X111.0Y-84.0
X111.0Y-90.5
X111.0Y-94.0
X112.0Y-84.75
X112.1Y-30.4
X112.5Y-37.5
X112.5Y-47.5
X112.5Y-66.5
X112.5Y-102.5
X112.75Y-77.5
X113.0Y-97.0
X113.25Y-76.5
X113.5Y-58.85
X113.5Y-86.0
X113.75Y-71.25
X114.0Y-75.5
X114.25Y-90.5
X114.5Y-61.5
X114.5Y-94.5
X115.0Y-42.5
X115.0Y-50.0
X115.0Y-67.5
X115.0Y-70.0
X115.0Y-74.25
X115.25Y-87.75
X115.25Y-88.75
X115.5Y-58.25
X116.0Y-56.5
X116.0Y-60.0
X116.0Y-73.75
X116.0Y-79.5
X116.25Y-83.75
X117.0Y-57.5
X117.1Y-30.4
X117.5Y-35.0
X117.5Y-40.0
X117.5Y-47.5
X117.5Y-52.5
X117.5Y-74.5
X117.5Y-84.5
X117.75Y-72.75
X117.75Y-88.75
X118.25Y-91.0
X119.4Y-58.2
X119.75Y-75.0
X120.0Y-45.0
X120.0Y-67.5
X120.0Y-89.0
X120.0Y-91.0
X121.0Y-81.25
X121.5Y-86.25
X121.75Y-76.5
X122.1Y-30.4
X122.1Y-58.2
X122.5Y-50.0
X122.5Y-55.0
X122.5Y-67.5
X123.25Y-88.0
X124.0Y-80.5
X124.0Y-89.5
X124.0Y-103.5
X124.25Y-83.5
X124.5Y-71.0
X124.5Y-78.0
X124.75Y-59.0
X125.0Y-95.0
X125.25Y-57.25
X125.25Y-88.5
X125.5Y-47.0
X126.0Y-51.5
X126.0Y-83.0
X126.0Y-102.0
X126.5Y-71.0
X127.0Y-53.0
X127.0Y-55.0
X127.0Y-61.0
X127.0Y-75.5
X127.1Y-30.4
X127.5Y-47.0
X127.75Y-58.0
X127.75Y-83.0
X128.0Y-68.25
X128.0Y-85.0
X129.0Y-66.0
X129.0Y-81.5
X129.5Y-51.5
X129.5Y-70.0
X129.5Y-72.0
X129.5Y-75.5
X130.0Y-61.5
X130.0Y-97.5
X130.25Y-54.0
X130.25Y-56.75
X131.0Y-78.5
X132.1Y-30.4
X132.25Y-101.0
X132.25Y-102.5
X132.5Y-57.5
X132.5Y-60.0
X132.5Y-69.5
X133.75Y-99.5
X135.25Y-99.5
X137.0Y-101.25
X137.0Y-102.5
X137.1Y-30.4
X137.5Y-70.0
X137.5Y-77.5
X137.5Y-85.0
X138.5Y-47.0
X138.5Y-59.5
X140.0Y-32.5
X140.0Y-37.5
X140.0Y-42.5
X140.0Y-47.5
X140.0Y-52.5
X140.0Y-57.5
X140.0Y-90.0
X140.0Y-97.5
T2
X72.75Y-72.25
X74.02Y-72.25
X75.29Y-72.25
X105.85Y-46.05
X107.12Y-46.05
X108.39Y-46.05
X64.2Y-36.6
X65.47Y-36.6
X66.74Y-36.6
T3
X45.5Y-57.25
X45.5Y-59.79
X45.5Y-62.33
X122.0Y-90.0
X119.0Y-70.0
X45.5Y-68.0
X45.5Y-70.54
X45.5Y-73.08
X45.5Y-78.92
X45.5Y-81.46
X45.5Y-84.0
X51.0Y-84.5
X122.0Y-72.5
X64.5Y-64.5
X65.0Y-59.5
X82.0Y-77.75
X82.0Y-80.29
X82.0Y-82.83
X46.63Y-51.0
X54.25Y-51.0
X105.5Y-41.0
X107.0Y-50.38
X107.0Y-58.0
X110.5Y-55.5
X45.5Y-89.92
X45.5Y-92.46
X45.5Y-95.0
X89.0Y-63.75
X91.54Y-63.75
X94.08Y-63.75
X126.0Y-77.0
X126.0Y-80.0
X121.5Y-94.5
X58.0Y-54.5
X89.0Y-70.5
X91.54Y-70.5
X94.08Y-70.5
X74.5Y-77.67
X74.5Y-80.21
X74.5Y-82.75
X57.5Y-86.5
T4
X116.38Y-102.0
X118.92Y-102.0
X121.46Y-102.0
X124.0Y-102.0
X99.59Y-99.0
X99.59Y-101.54
X102.13Y-99.0
X102.13Y-101.54
X104.67Y-99.0
X104.67Y-101.54
X107.21Y-99.0
X107.21Y-101.54
X109.75Y-99.0
X109.75Y-101.54
X100.5Y-64.25
X103.04Y-64.25
X105.58Y-64.25
X108.12Y-64.25
X110.66Y-64.25
X113.2Y-64.25
X115.74Y-64.25
X118.28Y-64.25
X120.82Y-64.25
X123.36Y-64.25
X125.9Y-64.25
X128.44Y-64.25
X130.98Y-64.25
X133.52Y-64.25
X136.06Y-64.25
X138.6Y-64.25
X89.05Y-55.55
X101.05Y-55.55
X122.75Y-35.5
X122.75Y-38.0
X122.75Y-40.5
X137.25Y-35.5
X137.25Y-40.5
T5
X62.9Y-43.85
X65.44Y-43.85
X67.98Y-43.85
T6
X134.5Y-92.75
X134.5Y-101.75
T7
X61.75Y-94.17
X61.75Y-99.25
X68.75Y-94.17
X68.75Y-99.25
X92.5Y-34.2
X97.58Y-34.2
X82.75Y-94.17
X82.75Y-99.25
X75.75Y-94.17
X75.75Y-99.25
X89.0Y-43.3
X95.0Y-57.5
X101.05Y-43.35
T9
X52.75Y-39.5
X78.15Y-39.5
T10
X91.75Y-98.5
X109.0Y-35.5
X53.5Y-98.5
T8
G00X129.6Y-32.4
M15
G01X130.9Y-32.4
M16
G05
G00X129.6Y-43.6
M15
G01X130.9Y-43.6
M16
G05
T0
M30
